<svg width="20" height="25" viewBox="0 0 20 25" fill="none" xmlns="http://www.w3.org/2000/svg">
<g clip-path="url(#clip0_253_10801)">
<path d="M13.1745 10.7388C13.1745 12.7774 13.1745 14.7697 13.1745 16.7619C13.1745 16.8361 13.1933 16.9195 13.2027 16.9936C13.5218 18.5689 13.8503 20.1349 14.1693 21.7102C14.3195 22.4422 14.4603 23.1836 14.6104 23.9527C13.6156 24.138 12.6678 24.3233 11.7105 24.4994C11.2037 22.016 10.7063 19.5789 10.2183 17.1511C10.1807 17.1511 10.1432 17.1511 10.1057 17.1604C9.60826 19.5975 9.11086 22.0345 8.61346 24.5086C7.62804 24.3233 6.68954 24.138 5.71351 23.9527C5.87305 23.1465 6.03259 22.3959 6.18275 21.6361C6.64262 19.2175 7.36526 16.8361 7.17756 14.3341C7.12125 13.6577 7.16817 12.972 7.16817 12.2955C7.16817 11.7859 7.16817 11.2855 7.16817 10.7573C5.04717 10.294 2.96372 9.83065 0.833332 9.35807C1.05857 8.39436 1.26504 7.46772 1.49028 6.49474C2.46631 6.70787 3.42358 6.87467 4.35269 7.13413C6.67077 7.76424 9.01701 8.07003 11.4289 7.91251C11.9076 7.88471 12.405 7.90324 12.8742 7.80131C14.4603 7.46772 16.037 7.09706 17.623 6.74494C18.0266 6.65227 18.4301 6.57814 18.8524 6.48548C19.0777 7.47698 19.2841 8.40363 19.5 9.3488C17.3602 9.82139 15.2862 10.2754 13.1745 10.7388ZM10.1432 0.499377C11.8137 0.490111 13.1652 1.81521 13.1745 3.45536C13.1745 5.07698 11.8419 6.41135 10.2089 6.42988C8.54776 6.44841 7.17756 5.13258 7.15879 3.49243C7.1494 1.85227 8.48207 0.508643 10.1432 0.499377Z" fill="white"/>
<path d="M13.1745 10.7393C15.2862 10.2759 17.3602 9.82188 19.5 9.34929C19.2841 8.40412 19.0777 7.48675 18.8524 6.49524C18.4301 6.57864 18.0266 6.66203 17.623 6.7547C16.037 7.10682 14.4603 7.47748 12.8742 7.81107C12.405 7.90373 11.917 7.8852 11.4289 7.92227C9.01701 8.0798 6.67077 7.774 4.3433 7.13462C3.41419 6.87516 2.46631 6.70837 1.48089 6.49524C1.25565 7.46821 1.04918 8.39485 0.823946 9.35856C2.95433 9.83115 5.03779 10.2852 7.15879 10.7578C7.15879 11.286 7.15879 11.7864 7.15879 12.296C7.15879 12.9725 7.11186 13.6582 7.16817 14.3346C7.36526 16.8458 6.63323 19.2273 6.17337 21.6366C6.03259 22.3871 5.87305 23.147 5.70412 23.9532C6.68016 24.1385 7.62804 24.3238 8.60407 24.5091C9.10147 22.035 9.59888 19.5979 10.0963 17.1609C10.1338 17.1609 10.1714 17.1609 10.2089 17.1516C10.7063 19.5794 11.1943 22.0165 11.7011 24.4999C12.6771 24.3145 13.6156 24.1292 14.6198 23.9439C14.4697 23.1748 14.3289 22.4335 14.1787 21.7014C13.8596 20.1261 13.5312 18.5601 13.2121 16.9848C13.1933 16.9107 13.1839 16.8366 13.1839 16.7532C13.1745 14.7701 13.1745 12.7779 13.1745 10.7393Z" fill="#3F3F3F"/>
<path d="M10.1433 0.499865C8.48214 0.509132 7.14947 1.85276 7.15886 3.49292C7.17763 5.13307 8.54783 6.4489 10.209 6.43037C11.842 6.41183 13.1746 5.07747 13.1652 3.45585C13.1652 1.8157 11.8138 0.490599 10.1433 0.499865Z" fill="#3F3F3F"/>
</g>
<defs>
<clipPath id="clip0_253_10801">
<rect width="18.6667" height="24" fill="white" transform="matrix(-1 0 0 1 19.5 0.499878)"/>
</clipPath>
</defs>
</svg>
