<svg width="44" height="44" viewBox="0 0 44 44" fill="none" xmlns="http://www.w3.org/2000/svg">
<path d="M22.3594 43.4683C33.9561 43.4683 43.3478 33.9651 43.3478 22.254C43.3478 10.5428 33.9561 1.0397 22.3593 1.0397C10.7626 1.0397 1.37085 10.5428 1.37086 22.254C1.37087 33.9651 10.7626 43.4683 22.3594 43.4683Z" fill="#F4BD31" stroke="white"/>
<path d="M35.3953 29.0479C35.3953 29.6646 35.3953 30.2813 35.3953 30.8981C35.1663 31.5148 34.6318 31.669 34.021 31.669C26.9966 31.669 20.0485 31.669 13.0241 31.669C12.9478 31.669 12.8714 31.669 12.7951 31.669C12.1843 31.669 11.8025 31.2064 11.8025 30.5897C11.8025 29.8959 11.8025 29.125 11.8025 28.4312C11.8025 28.1999 11.8789 27.8915 12.0316 27.7374C12.7951 26.8123 13.7877 26.0414 14.8566 25.5788C16.1546 24.9621 17.5289 24.9621 18.9796 25.1934C20.2012 25.3476 21.4229 25.8101 22.5682 26.2726C23.0263 26.5039 23.4844 26.6581 24.0189 26.8894C23.0263 23.9599 22.0337 21.0305 20.9648 18.1782C20.8884 18.1782 20.8884 18.1782 20.8121 18.1782C18.9033 18.872 17.0708 19.72 15.3911 20.7221C14.7802 21.0305 14.2458 21.416 13.635 21.7243C13.1768 21.9556 12.7187 21.8785 12.4133 21.493C12.1843 21.2618 12.1843 20.9534 12.1079 20.6451C11.8788 18.9491 11.9552 17.3302 12.4897 15.7884C13.4059 13.0131 15.162 10.9317 17.758 9.62114C17.8343 9.54405 17.9107 9.54405 17.987 9.46696C17.758 8.69606 17.9107 8.23351 18.4451 7.92515C18.6742 7.84806 18.9032 7.77097 19.1323 7.84806C19.5904 8.00224 19.7431 8.31061 19.8958 8.69606C20.3539 8.61897 20.7357 8.54188 21.1175 8.46479C23.1026 8.23351 24.9351 8.54188 26.6912 9.38987C28.7527 10.392 30.3561 11.8568 31.5014 13.9382C31.8831 14.7091 31.5777 15.48 30.7378 15.5571C28.9817 15.7884 27.2256 16.0967 25.5459 16.5593C24.6297 16.7905 23.7898 17.0218 22.8736 17.3302C22.8736 17.4073 22.9499 17.4844 22.9499 17.5614C24.0952 20.8763 25.2405 24.1912 26.3858 27.5061C26.4621 27.6603 26.5385 27.7374 26.6912 27.8145C28.6 28.4312 30.5088 28.4312 32.4176 28.277C33.0284 28.1999 33.6392 28.1228 34.3264 28.1228C34.7845 28.1228 35.1663 28.3541 35.319 28.8166C35.3953 28.9708 35.3953 28.9708 35.3953 29.0479Z" fill="white"/>
</svg>
