<svg width="35" height="35" viewBox="0 0 35 35" fill="none" xmlns="http://www.w3.org/2000/svg">
<g clip-path="url(#clip0_780_24377)">
<path d="M34.6104 23.237C35.1383 22.684 35.1383 21.9928 34.5979 21.4273C34.3842 21.2011 34.1455 20.9623 33.8564 20.6732C33.5674 20.3842 33.2406 20.2459 32.9139 20.2459C32.5871 20.2459 32.2729 20.3967 31.9713 20.6732L31.7325 20.8994C31.6948 20.8115 31.6194 20.623 31.6194 20.623C31.4937 20.3088 31.3806 20.0197 31.2424 19.7307C31.1796 19.605 31.2047 19.5422 31.3052 19.4416C31.5692 19.1903 31.8456 18.9264 32.1221 18.6248C32.6625 18.0467 32.6625 17.368 32.1221 16.7899C31.9964 16.6517 31.8582 16.5134 31.72 16.3878L31.544 16.2118C31.1293 15.7971 30.8277 15.6337 30.5009 15.6337C30.2621 15.6337 30.0108 15.7217 29.6589 15.9102L29.4453 15.3824C29.1562 14.6786 28.842 13.9497 28.5656 13.2208C28.553 13.1957 28.5907 13.0826 28.641 13.0323C28.8797 12.8061 29.1437 12.5799 29.395 12.3662L29.4076 12.3537C29.6086 12.1903 29.7972 12.0143 29.9982 11.8384C30.1993 11.6625 30.3124 11.4739 30.3124 11.2854C30.3124 11.1346 30.2621 10.9964 30.1365 10.8707C30.0234 10.745 29.8851 10.6822 29.7343 10.6822C29.5584 10.6822 29.3699 10.7702 29.1814 10.9336C27.8367 12.1023 26.4794 13.2711 25.1347 14.4398L25.097 14.465C21.9049 17.2298 18.6122 20.0826 15.3699 22.9102C12.5422 25.386 10.0413 27.0951 7.52783 28.3016C7.40216 28.3644 7.27649 28.4273 7.15082 28.4524C7.08798 28.465 7.02514 28.4775 6.94974 28.4775C6.74866 28.4775 6.56015 28.4021 6.42191 28.2513C6.29624 28.1131 6.22083 27.9497 6.22083 27.7612C6.22083 27.5852 6.3088 27.3967 6.38421 27.2334C7.23879 25.4488 8.7343 23.1239 10.3806 21.0251C10.5943 20.7486 11.9641 19.2154 11.9767 19.1903L14.842 15.8348L14.9677 15.684C17.7702 12.4542 20.6607 9.11129 23.5009 5.83122C25.5117 3.50627 28.1508 2.2244 31.3304 2.03589C31.3681 2.03589 31.4058 2.03589 31.4435 2.03589C31.8456 2.03589 32.1975 2.17413 32.4237 2.41291C32.6248 2.62656 32.7002 2.92817 32.6751 3.25492C32.562 4.28544 32.3986 5.27826 32.1724 6.20824C31.9085 7.32673 31.3178 8.29442 30.8402 9.01075C30.7146 9.19926 30.6769 9.38777 30.7146 9.56372C30.7523 9.71452 30.8402 9.8402 30.9911 9.92817C31.0916 9.991 31.1921 10.0161 31.3052 10.0161C31.5189 10.0161 31.7074 9.89047 31.8582 9.67682C32.009 9.46318 32.1472 9.23697 32.2478 9.07359C33.2532 7.38957 33.7936 5.51704 33.9067 3.34289C33.9821 2.03589 33.1526 0.992806 31.8959 0.829431C31.7577 0.816864 31.6069 0.804296 31.4435 0.804296C31.0665 0.804296 30.6894 0.854566 30.3124 0.904835L30.1113 0.92997C27.7738 1.23159 25.7379 2.1113 24.0916 3.56911C23.5135 4.0718 22.9857 4.6499 22.4704 5.22799C22.2191 5.50447 21.9551 5.79352 21.6912 6.07C21.6284 6.13284 21.5404 6.18311 21.5027 6.19568C20.7989 5.91919 20.1203 5.64271 19.404 5.3411L18.9892 5.16516C18.9892 5.15259 19.0018 5.15259 19.0018 5.14002C19.5422 4.47395 19.5171 3.87072 18.9138 3.25492C18.7002 3.04128 18.4866 2.81507 18.2603 2.60142C17.9587 2.29981 17.632 2.149 17.3052 2.149C16.9659 2.149 16.6392 2.29981 16.3375 2.61399C16.2119 2.73966 16.0862 2.86534 15.9605 2.99101L15.9228 3.02871C15.7594 3.19209 15.5961 3.35546 15.4201 3.51884C15.3573 3.56911 15.3196 3.60681 15.2944 3.60681C14.9803 3.4937 14.6786 3.36803 14.3519 3.22979L14.1885 3.16695C14.2262 3.12925 14.2639 3.09155 14.2891 3.06641C14.9426 2.38778 14.9426 1.73428 14.2765 1.05564C14.088 0.867133 13.8869 0.666056 13.6984 0.477546C13.3591 0.138229 13.0323 -0.0251465 12.693 -0.0251465C12.3537 -0.0251465 12.0144 0.138229 11.6751 0.490113C11.5997 0.565517 11.5117 0.653489 11.4237 0.74146C11.1724 0.992806 10.8959 1.25672 10.6445 1.5332C10.5566 1.6086 10.5063 1.63374 10.456 1.63374C10.4183 1.63374 10.3806 1.62117 10.3178 1.59604C9.71455 1.33212 9.07362 1.06821 8.36985 0.791729C7.92999 0.615787 7.49013 0.527815 7.08798 0.527815C6.32137 0.527815 5.59246 0.841998 4.95153 1.47036C4.62478 1.78455 4.29803 2.12386 4.00898 2.41291L3.68223 2.73966C3.21724 3.20465 2.99103 3.71991 3.02873 4.21004C3.06643 4.70016 3.36805 5.17772 3.89587 5.57988C6.2334 7.31417 8.57092 9.06102 10.9084 10.8079L14.5404 13.5099C14.6284 13.5727 14.7289 13.6481 14.8169 13.7235L14.9551 13.8366L14.93 13.8617C14.8797 13.9246 14.842 13.9748 14.7918 14.0251L13.9372 15.0054C13.4973 15.5081 12.8061 16.3249 12.14 17.1041C11.8384 17.4686 11.5242 17.833 11.2478 18.1598C11.1221 18.3106 10.8205 18.6499 10.4937 19.0269C10.0287 19.5547 9.50091 20.158 9.37523 20.3213C9.06105 20.7109 8.62119 21.2513 8.42012 21.5404C8.33214 21.666 8.25674 21.7163 8.18134 21.7163C8.13107 21.7163 8.05566 21.6912 7.96769 21.6535C7.03771 21.2136 6.07002 20.7863 5.21544 20.3967L5.08977 20.3465C4.67505 20.158 4.27289 19.982 3.85817 19.7935C3.45602 19.6176 3.06643 19.517 2.70198 19.517C2.23699 19.517 1.8097 19.6678 1.43268 19.9569C1.05566 20.2459 0.728906 20.623 0.414722 20.9748C0.276481 21.1256 0.138241 21.289 0 21.4398L0 21.465V22.0179L0.0251347 22.0431C0.0879714 22.1185 0.150808 22.1939 0.213645 22.2818C0.351885 22.4578 0.502693 22.6463 0.678636 22.7845C1.77199 23.6265 2.89049 24.4686 3.97128 25.2729C4.37343 25.5745 4.77559 25.8761 5.17774 26.1777C5.24058 26.228 5.31598 26.2782 5.37882 26.3285L5.42909 26.3662L5.21544 26.8061C4.80072 27.6607 4.9264 28.5404 5.5422 29.1562C5.91922 29.5332 6.38421 29.7217 6.89947 29.7217C7.22622 29.7217 7.55297 29.6463 7.89229 29.4829L8.33214 29.2818L8.39498 29.3698C8.44525 29.4326 8.49552 29.4955 8.54579 29.5709L9.77739 31.2046C10.5189 32.1975 11.2729 33.1903 12.0144 34.1831C12.2909 34.5475 12.5925 34.7235 12.9318 34.7235C13.2208 34.7235 13.5225 34.5852 13.8115 34.2962C14 34.1077 14.176 33.9317 14.3645 33.7432C15.219 32.8761 15.395 31.9084 14.9049 30.8025C14.5907 30.0987 14.2639 29.3824 13.9372 28.6786C13.9372 28.6786 13.4596 27.6355 13.246 27.158C13.1706 26.982 13.0952 26.8186 13.0323 26.6678L12.9695 26.5422L20.8743 19.7684L20.912 19.8186C20.9749 19.8941 21.0252 19.9695 21.0754 20.0323L24.1544 24.1544C25.8636 26.4416 27.5602 28.7163 29.2693 31.0036C29.6589 31.5188 30.1616 31.8079 30.6894 31.8079C31.1419 31.8079 31.5943 31.6068 31.9839 31.2172C32.3735 30.8276 32.8008 30.4129 33.3034 29.8976C34.2837 28.9174 34.5099 27.7486 33.9946 26.4542L33.9569 26.3537C33.7559 25.8635 33.5548 25.3483 33.3286 24.8581C33.2532 24.6822 33.2657 24.6068 33.4165 24.456C33.8187 24.0413 34.2209 23.6391 34.6104 23.237ZM31.2173 17.7953C31.079 17.9587 30.9282 18.1221 30.7774 18.298L30.6894 18.3985C30.6517 18.3231 30.5763 18.1346 30.5763 18.1346C30.4381 17.8079 30.2998 17.5063 30.2119 17.1921C30.1993 17.1544 30.2999 17.0161 30.3627 16.9407C30.4004 16.8905 30.4255 16.8528 30.4632 16.8025L30.6392 16.991C30.8654 17.2423 31.0665 17.456 31.255 17.6696C31.255 17.6696 31.2424 17.7702 31.2173 17.7953ZM31.9713 29.4829L31.9336 29.5206C31.6697 29.7845 31.3932 30.0736 31.1167 30.3375C30.9659 30.4757 30.8277 30.5511 30.702 30.5511C30.5638 30.5511 30.4255 30.4632 30.2999 30.2872C27.9372 27.1328 25.5745 23.9659 23.2244 20.7989L21.8295 18.9389C21.8295 18.9389 21.8295 18.9264 21.8169 18.9264L27.535 13.9748L27.7989 14.6032C28 15.0933 28.2011 15.5835 28.4022 16.061L32.8008 26.6804C33.2406 27.7486 33.1275 28.3142 32.3106 29.131C32.1975 29.2567 32.0844 29.3698 31.9713 29.4829ZM32.9641 23.1741C32.9641 23.1741 32.8133 23.3375 32.7631 23.3878L32.6751 23.1741C32.5368 22.8348 32.3986 22.5206 32.2729 22.2064C32.2729 22.1939 32.2729 22.131 32.2981 22.1059C32.562 21.7414 32.7253 21.5655 32.851 21.5655C32.9767 21.5655 33.1652 21.7289 33.4543 22.0179C33.4668 22.0305 33.492 22.0556 33.5045 22.0682C33.5422 22.1059 33.5799 22.1562 33.6302 22.1939C33.7182 22.2693 33.7433 22.307 33.7433 22.3447C33.7433 22.3949 33.7056 22.4578 33.6176 22.5332C33.404 22.7091 33.1903 22.9353 32.9641 23.1741ZM12.9946 33.4165L9.45064 28.7163L11.939 27.1831L12.6427 28.7289C13.0198 29.5709 13.4093 30.4003 13.7864 31.2423C14.1006 31.921 14.0126 32.3734 13.4848 32.9012C13.3842 33.0018 12.9946 33.4165 12.9946 33.4165ZM3.1921 20.824C4.28546 21.3016 5.41652 21.8169 6.40934 22.2693L7.52783 22.772L5.99462 25.2603L1.28187 21.7163C1.3447 21.6535 1.40754 21.5906 1.48295 21.5278L1.50808 21.5027C1.73429 21.289 1.94794 21.0879 2.18672 20.912C2.35009 20.7863 2.55117 20.7235 2.75225 20.7235C2.90305 20.7235 3.0413 20.7612 3.1921 20.824ZM12.5799 1.29442C12.6302 1.24415 12.6553 1.23159 12.6679 1.23159C12.6804 1.23159 12.7181 1.24415 12.7684 1.29442C12.8438 1.36983 12.9192 1.44523 13.0072 1.5332L13.0198 1.54577C13.158 1.68401 13.3088 1.82225 13.4345 1.97306C13.4471 1.98562 13.4345 2.0736 13.4345 2.12386C13.4345 2.149 13.4345 2.17413 13.4345 2.19927C13.1706 2.48832 13.07 2.61399 12.9318 2.61399C12.8187 2.61399 12.6553 2.55115 12.3914 2.43805C12.2406 2.37521 12.0898 2.31237 11.9138 2.23697L11.6876 2.16157L11.9138 1.94792C12.1526 1.72171 12.3663 1.50807 12.5799 1.29442ZM16.614 4.02153C16.8151 3.83302 17.0036 3.64451 17.2047 3.48114C17.2047 3.48114 17.2298 3.46857 17.2801 3.46857C17.3304 3.46857 17.3681 3.48114 17.3681 3.48114C17.5189 3.60681 17.6697 3.75762 17.8079 3.89586L17.8205 3.90842C17.8959 3.9964 17.9839 4.0718 18.0718 4.1472C18.1472 4.22261 18.1472 4.24774 18.0593 4.34828C17.921 4.52422 17.7953 4.59963 17.6697 4.59963C17.5943 4.59963 17.4937 4.57449 17.3932 4.51166C17.1795 4.38598 16.9533 4.29801 16.702 4.19747H16.6894C16.6266 4.17234 16.5512 4.1472 16.4883 4.12207L16.614 4.02153ZM4.24776 4.12207C4.23519 3.98383 4.32316 3.82045 4.52424 3.61938C4.78816 3.34289 5.06464 3.07898 5.34112 2.8025L5.80611 2.33751C6.20826 1.93536 6.64812 1.73428 7.12568 1.73428C7.37703 1.73428 7.65351 1.79711 7.92999 1.91022C11.5242 3.40573 15.1185 4.90124 18.7253 6.39675L20.6104 7.17593C20.6356 7.18849 20.6607 7.20106 20.6984 7.21363L15.772 12.8941L15.7469 12.8815C15.684 12.8438 15.6212 12.8061 15.5709 12.7558C11.9138 10.0413 8.25674 7.31417 4.59965 4.57449C4.37343 4.41112 4.26033 4.26031 4.24776 4.12207Z" fill="#3F3F3F"/>
<path d="M27.0957 4.08438C27.0706 4.08438 27.0455 4.08438 27.0203 4.08438C26.7187 4.08438 26.5051 4.26032 26.4422 4.57451C26.3668 4.91382 26.5554 5.19031 26.9072 5.27828C27.0078 5.30341 27.1083 5.31598 27.2089 5.34111C27.2717 5.35368 27.3471 5.36625 27.4099 5.37882C28.2519 5.55476 28.8175 5.96948 29.1065 6.63555C29.2196 6.89946 29.295 7.18851 29.3579 7.46499V7.47756C29.383 7.5781 29.4081 7.67864 29.4333 7.77918C29.5212 8.10593 29.7474 8.307 30.0365 8.307C30.0616 8.307 30.0742 8.307 30.0993 8.307C30.4135 8.28187 30.6523 8.00539 30.6397 7.66607L30.6146 7.52783C30.602 7.42729 30.5895 7.33932 30.5769 7.25135C30.2501 5.39138 29.0185 4.27289 27.0957 4.08438Z" fill="#3F3F3F"/>
</g>
<defs>
<clipPath id="clip0_780_24377">
<rect width="35" height="34.711" fill="white"/>
</clipPath>
</defs>
</svg>
