<svg width="55" height="55" viewBox="0 0 55 55" fill="none" xmlns="http://www.w3.org/2000/svg">
<path d="M38.8088 29.6268L30.0754 24.4547C30.0997 22.8095 30.0391 16.9951 28.2101 15.2485C27.665 14.7302 26.9746 14.5499 26.2478 14.7414C22.9047 15.6316 22.6624 22.787 22.6624 24.6688L14.995 29.1986C14.7891 29.3113 14.668 29.5254 14.668 29.7395V32.9622C14.668 33.1763 14.7891 33.3791 14.9829 33.5031C15.1767 33.627 15.419 33.6383 15.637 33.5594L23.8979 30.2916V34.6299L21.7903 36.5906C21.657 36.7145 21.5844 36.8723 21.5844 37.0413V39.6217C21.5844 39.8471 21.7055 40.0499 21.9114 40.1739C22.0204 40.2415 22.1537 40.2753 22.2748 40.2753C22.3838 40.2753 22.4807 40.2528 22.5897 40.2077L26.8898 38.2019L31.105 40.1964C31.3231 40.2978 31.5774 40.2866 31.7833 40.1739C31.9893 40.0612 32.1104 39.8471 32.1104 39.6217V37.4808C32.1104 37.323 32.0498 37.1653 31.9287 37.0526L29.4213 34.4496V30.5057L38.1426 33.9876C38.3606 34.0778 38.6028 34.0552 38.7966 33.9313C38.9904 33.8073 39.1116 33.6158 39.1116 33.3904V30.1677C39.1237 29.9536 39.0026 29.7508 38.8088 29.6268ZM37.7428 32.4101L29.0216 28.9282C28.8036 28.838 28.5613 28.8606 28.3675 28.9845C28.1737 29.1085 28.0526 29.3 28.0526 29.5254V34.675C28.0526 34.8327 28.1132 34.9905 28.2343 35.1032L30.7295 37.7174V38.5625L27.2168 36.8948C27.023 36.8047 26.7929 36.8047 26.5991 36.8948L22.9773 38.5738V37.3118L25.085 35.3511C25.2182 35.2271 25.2909 35.0694 25.2909 34.9003V29.3226C25.2909 29.1085 25.1698 28.9056 24.976 28.7817C24.7821 28.6577 24.5399 28.6465 24.3219 28.7253L16.0609 31.9931V30.1001L23.7283 25.5702C23.9343 25.4463 24.0554 25.2435 24.0554 25.0181C24.0069 21.8066 24.6489 16.5106 26.6354 15.9809C26.696 15.9584 26.7565 15.9584 26.8171 15.9584C26.9019 15.9584 27.0472 15.9809 27.2289 16.15C28.4402 17.3106 28.7673 22.0658 28.6946 24.7927C28.6825 25.0181 28.8036 25.2322 29.0095 25.3561L37.7549 30.5283V32.4101H37.7428Z" fill="#3F3F3F"/>
<circle cx="27.5" cy="27.5" r="27" stroke="#3F3F3F"/>
</svg>
