<svg width="35" height="33" viewBox="0 0 35 33" fill="none" xmlns="http://www.w3.org/2000/svg">
<g clip-path="url(#clip0_780_24357)">
<path d="M34.9893 7.84905C34.9777 6.75275 34.068 5.87804 32.96 5.83139C32.7151 5.81973 32.4702 5.83139 32.1903 5.83139C32.1903 4.65345 32.2019 4.67678 32.1903 3.54549C32.1786 1.52782 30.6741 0.0116628 28.6448 0C21.2156 0 13.7864 0 6.34554 0C4.32788 0 2.82338 1.52782 2.80006 3.55715C2.7884 4.56015 2.80006 4.39687 2.80006 5.41153C2.80006 5.55148 2.80006 5.69144 2.80006 5.84305C2.50849 5.84305 2.2869 5.84305 2.07697 5.84305C0.934013 5.86638 0.0243161 6.75275 0.0126533 7.8957C0.000990555 9.56348 0.000990555 11.2196 0.0126533 12.8874C0.0243161 14.007 0.92235 14.8934 2.05364 14.9284C2.29856 14.94 2.54348 14.9284 2.81172 14.9284C2.81172 15.1616 2.81172 15.3366 2.81172 15.4998C2.81172 19.022 2.81172 22.5558 2.81172 26.078C2.81172 27.6758 3.76807 28.9704 5.29589 29.4602C5.40086 29.4952 5.50582 29.5302 5.61079 29.5652C5.61079 30.02 5.61079 30.4399 5.61079 30.8714C5.61079 31.8511 6.18226 32.4109 7.16194 32.4225C8.45651 32.4225 9.75108 32.4225 11.0573 32.4225C12.0486 32.4225 12.6085 31.8627 12.6085 30.883C12.6085 30.4632 12.6085 30.055 12.6085 29.6468C15.909 29.6468 19.1396 29.6468 22.4052 29.6468C22.4052 30.09 22.4052 30.5098 22.4052 30.9297C22.4169 31.8277 22.9883 32.4109 23.8747 32.4225C25.2276 32.4342 26.5805 32.4342 27.945 32.4225C28.8081 32.4225 29.3912 31.8277 29.4029 30.9647C29.4145 30.4982 29.4029 30.0317 29.4029 29.5768C31.4205 28.8887 32.2019 27.7924 32.2019 25.6814C32.2019 22.2759 32.2019 18.8587 32.2019 15.4532C32.2019 15.2899 32.2019 15.1383 32.2019 14.9284C32.5052 14.9284 32.7617 14.94 33.0067 14.9284C34.0913 14.8817 34.9777 14.007 34.9893 12.9224C35.0127 11.2313 35.0127 9.54016 34.9893 7.84905ZM2.77673 13.5288C2.53181 13.5288 2.32188 13.5405 2.10029 13.5288C1.69209 13.5055 1.41219 13.2489 1.41219 12.8291C1.40052 11.1963 1.40052 9.57514 1.41219 7.94235C1.41219 7.52249 1.68043 7.26591 2.10029 7.24259C2.32188 7.23092 2.53181 7.24259 2.77673 7.24259C2.77673 9.33022 2.77673 11.3945 2.77673 13.5288ZM4.29289 3.04399C4.42118 2.01766 5.31922 1.39953 6.40386 1.39953C10.8474 1.39953 15.2909 1.39953 19.7344 1.39953C22.6618 1.39953 25.5891 1.39953 28.5165 1.39953C29.9394 1.39953 30.7907 2.26258 30.8024 3.68544C30.8024 4.33855 30.8024 3.82539 30.8024 4.46685C21.9154 4.46685 13.0983 4.46685 4.26957 4.46685C4.25791 3.62713 4.1646 3.90703 4.29289 3.04399ZM30.8024 6.7994C30.8024 9.91336 30.8024 13.039 30.8024 16.153C30.8024 17.5525 29.9394 18.4272 28.5515 18.4272C25.1226 18.4272 21.7054 18.4272 18.2299 18.4272C18.2299 14.2169 18.2299 10.0533 18.2299 5.85472C18.3699 5.84305 18.5098 5.83139 18.6498 5.83139C22.3819 5.83139 26.114 5.83139 29.846 5.83139C30.5808 5.83139 30.8024 6.05298 30.8024 6.7994ZM5.15594 5.83139C8.88803 5.83139 12.6201 5.83139 16.3522 5.83139C16.4805 5.83139 16.6088 5.83139 16.7721 5.83139C16.7721 10.03 16.7721 14.2053 16.7721 18.4272C16.6088 18.4272 16.4805 18.4272 16.3522 18.4272C13.075 18.4272 9.79773 18.4272 6.52049 18.4272C5.06264 18.4272 4.21125 17.5758 4.21125 16.118C4.21125 13.0157 4.21125 9.91336 4.21125 6.7994C4.21125 6.05298 4.42118 5.83139 5.15594 5.83139ZM11.1856 30.9997C9.80939 30.9997 8.43318 30.9997 7.03365 30.9997C7.03365 30.5565 7.03365 30.125 7.03365 29.6585C8.42152 29.6585 9.78606 29.6585 11.1856 29.6585C11.1856 30.1016 11.1856 30.5332 11.1856 30.9997ZM27.9683 30.9997C26.6038 30.9997 25.2393 30.9997 23.8281 30.9997C23.8281 30.5332 23.8281 30.1016 23.8281 29.6585C25.2159 29.6585 26.5688 29.6585 27.9683 29.6585C27.9683 30.0783 27.9683 30.5215 27.9683 30.9997ZM30.8024 25.9963C30.8024 27.3609 29.916 28.2239 28.5515 28.2239C21.1923 28.2239 13.833 28.2239 6.47383 28.2239C5.08596 28.2239 4.22292 27.3492 4.21125 25.9497C4.21125 23.7104 4.21125 21.4595 4.21125 19.127C5.08596 19.7684 5.99566 19.8384 6.94035 19.8384C14.0197 19.8267 21.1106 19.8267 28.1899 19.8384C29.0996 19.8384 29.9627 19.7451 30.7674 19.162C30.7791 19.3252 30.8024 19.4302 30.8024 19.5352C30.8024 21.6811 30.8024 23.8387 30.8024 25.9963ZM33.5898 12.8291C33.5898 13.2489 33.3099 13.5055 32.9017 13.5288C32.6918 13.5405 32.4702 13.5288 32.2136 13.5288C32.2136 11.4179 32.2136 9.35355 32.2136 7.23092C32.4468 7.23092 32.6801 7.21926 32.9017 7.23092C33.3099 7.25425 33.5898 7.51083 33.5898 7.93069C33.6015 9.56348 33.6015 11.1963 33.5898 12.8291Z" fill="#3F3F3F"/>
<path d="M11.1388 22.2876C10.1358 22.0427 9.12115 21.8211 8.11815 21.6111C6.83524 21.3545 5.64564 22.3109 5.61065 23.6288C5.59899 23.932 5.61065 24.2353 5.61065 24.5502C5.61065 25.9497 6.4737 26.8244 7.86157 26.8244C8.49136 26.8244 9.10948 26.8244 9.73927 26.8244C10.4507 26.8244 11.1621 26.8361 11.8852 26.8244C12.5967 26.8127 13.1915 26.3462 13.2731 25.6698C13.5297 23.8387 12.515 22.6258 11.1388 22.2876ZM11.8619 25.4249C10.4624 25.4249 9.05117 25.4365 7.65164 25.4132C7.27843 25.4015 7.04517 25.1333 7.02185 24.7484C6.99852 24.3869 6.99852 24.0253 7.02185 23.6638C7.04517 23.1973 7.39506 22.9057 7.84991 22.999C8.87623 23.2089 9.90255 23.4305 10.9056 23.6871C11.652 23.8737 11.9902 24.5268 11.8619 25.4249Z" fill="#3F3F3F"/>
<path d="M26.8236 21.6345C25.9256 21.8211 25.0275 22.031 24.1411 22.2293C22.485 22.6025 21.6803 23.6405 21.7036 25.3549C21.7153 26.2413 22.2984 26.8244 23.1848 26.8361C23.8729 26.8477 24.5493 26.8361 25.2374 26.8361C25.9256 26.8361 26.6137 26.8477 27.2901 26.8361C28.468 26.8127 29.3544 25.9264 29.3894 24.7601C29.4011 24.3985 29.4011 24.0253 29.3894 23.6638C29.3544 22.2876 28.1648 21.3429 26.8236 21.6345ZM27.9899 24.7251C27.9665 25.145 27.71 25.4132 27.3018 25.4249C25.9256 25.4365 24.5377 25.4249 23.1265 25.4249C23.0215 24.3286 23.3947 23.8037 24.4211 23.5705C25.2608 23.3839 26.0888 23.1856 26.9286 22.999C27.6516 22.8357 27.9782 23.104 27.9899 23.8387C28.0015 24.142 28.0132 24.4335 27.9899 24.7251Z" fill="#3F3F3F"/>
<path d="M20.1658 21.926C19.2911 21.926 18.4163 21.926 17.5416 21.926C16.6436 21.926 15.7339 21.926 14.8359 21.926C14.3227 21.926 14.0078 22.1943 14.0078 22.6258C14.0078 23.0456 14.3227 23.3256 14.8359 23.3256C16.6086 23.3256 18.393 23.3256 20.1658 23.3256C20.6789 23.3256 20.9938 23.0456 20.9938 22.6258C20.9938 22.2059 20.6789 21.9377 20.1658 21.926Z" fill="#3F3F3F"/>
<path d="M19.4655 24.7251C18.1592 24.7251 16.8413 24.7251 15.5351 24.7251C15.0219 24.7251 14.707 24.9933 14.707 25.4249C14.707 25.8447 15.0219 26.113 15.5351 26.1246C16.1765 26.1246 16.818 26.1246 17.4595 26.1246C18.1242 26.1246 18.8007 26.1246 19.4655 26.1246C19.9786 26.1246 20.2935 25.8447 20.2935 25.4249C20.2935 25.005 19.9786 24.7251 19.4655 24.7251Z" fill="#3F3F3F"/>
</g>
<defs>
<clipPath id="clip0_780_24357">
<rect width="35" height="32.4342" fill="white"/>
</clipPath>
</defs>
</svg>
