<svg width="55" height="55" viewBox="0 0 55 55" fill="none" xmlns="http://www.w3.org/2000/svg">
<path d="M17.8413 36.5557H18.5219C18.4834 38.0028 18.8943 39.8668 20.6022 40.2715C20.7692 40.3082 20.9233 40.3328 21.0774 40.3328C21.4626 40.3328 21.8222 40.2101 22.1303 39.9649C23.0421 39.2414 23.2219 37.5736 23.2347 36.5557H31.1963C31.145 37.3651 31.2092 38.5669 31.8769 39.4008C32.3007 39.9404 32.9299 40.2592 33.6747 40.3205C33.7518 40.3328 33.8288 40.3328 33.9059 40.3328C34.702 40.3328 35.2029 39.9894 35.4854 39.6951C36.2687 38.8735 36.32 37.4632 36.2687 36.5557H36.9107C37.3217 36.5557 37.6427 36.2369 37.6427 35.8567V19.044C37.6427 15.8066 32.2879 14.6661 27.7163 14.6661C22.6055 14.6661 17.1094 16.0396 17.1094 19.044V35.8567C17.1094 36.2369 17.4304 36.5557 17.8413 36.5557ZM21.1801 38.8857C21.1416 38.9103 21.103 38.947 20.9489 38.9103C20.1143 38.714 19.9602 37.4264 19.9858 36.5557H21.7579C21.7323 37.5 21.5525 38.5914 21.1801 38.8857ZM34.4067 38.7508C34.3168 38.8489 34.1627 38.9593 33.8031 38.9348C33.4693 38.9103 33.2253 38.7876 33.0455 38.5669C32.6603 38.0764 32.6217 37.1934 32.6731 36.5557H34.7919C34.8433 37.3038 34.8048 38.3339 34.4067 38.7508ZM18.5733 19.044C18.5733 17.4008 22.6697 16.0641 27.7163 16.0641C32.6217 16.0641 36.1788 17.3149 36.1788 19.044V35.1577H32.0182H18.5733V19.044Z" fill="#3F3F3F"/>
<path d="M20.8726 27.211H33.7396C34.1505 27.211 34.4716 26.8921 34.4716 26.512V21.3737C34.4716 20.9813 34.1377 20.6747 33.7396 20.6747H20.8726C20.4617 20.6747 20.1406 20.9936 20.1406 21.3737V26.512C20.1406 26.9044 20.4617 27.211 20.8726 27.211ZM21.6045 22.0727H32.9948V25.813H21.6045V22.0727Z" fill="#3F3F3F"/>
<path d="M23.7124 19.2766H30.3129C30.7238 19.2766 31.0448 18.9577 31.0448 18.5776C31.0448 18.1851 30.711 17.8786 30.3129 17.8786H23.7124C23.3015 17.8786 22.9805 18.1974 22.9805 18.5776C22.9805 18.9577 23.3015 19.2766 23.7124 19.2766Z" fill="#3F3F3F"/>
<path d="M22.4906 30.2525H20.8726C20.4617 30.2525 20.1406 30.5713 20.1406 30.9515C20.1406 31.3439 20.4745 31.6505 20.8726 31.6505H22.4906C22.9015 31.6505 23.2226 31.3316 23.2226 30.9515C23.2226 30.5591 22.9015 30.2525 22.4906 30.2525Z" fill="#3F3F3F"/>
<path d="M32.1109 31.6505H33.7289C34.1398 31.6505 34.4608 31.3316 34.4608 30.9515C34.4608 30.5591 34.127 30.2525 33.7289 30.2525H32.1109C31.6999 30.2525 31.3789 30.5713 31.3789 30.9515C31.3789 31.3439 31.7128 31.6505 32.1109 31.6505Z" fill="#3F3F3F"/>
<circle cx="27.5" cy="27.5" r="27" stroke="#3F3F3F"/>
</svg>
