<svg width="35" height="27" viewBox="0 0 35 27" fill="none" xmlns="http://www.w3.org/2000/svg">
<g clip-path="url(#clip0_780_24365)">
<path d="M34.9903 6.72114C34.9686 6.02214 34.4144 5.48445 33.7081 5.4737C32.991 5.46295 32.2738 5.46295 31.5458 5.4737C31.0024 5.48445 30.5895 5.73179 30.2744 6.16194C30.2201 6.23722 30.1657 6.32325 30.0897 6.42003C29.5355 5.44144 29.0357 4.48435 28.4706 3.57028C27.1341 1.37651 25.1673 0.107559 22.5703 0.0537899C18.7345 -0.0214866 16.4091 -0.0214866 12.5625 0.0430361C9.78076 0.0860513 7.72705 1.44103 6.36878 3.82837C5.92327 4.60264 5.49948 5.37692 5.06484 6.15119C5.02137 6.23722 4.95617 6.3125 4.88011 6.42003C4.51066 5.71028 3.94562 5.43068 3.18498 5.46295C2.56561 5.48445 1.93537 5.46295 1.316 5.4737C0.566232 5.48445 0.0337883 6.02214 0.0120559 6.74265C0.0011897 7.19431 0.0011897 7.63521 0.0120559 8.07612C0.0229221 8.88265 0.555366 9.40959 1.37033 9.42034C1.65285 9.42034 1.94624 9.42034 2.32656 9.42034C1.55506 10.0871 1.15301 10.8183 1.15301 11.7109C1.14214 14.4209 1.14214 17.1416 1.15301 19.8515C1.15301 20.7118 1.53332 21.4001 2.21789 21.927C2.33742 22.0238 2.43522 22.2174 2.43522 22.3787C2.45695 23.0239 2.44608 23.6691 2.44608 24.3143C2.44608 25.4542 3.15239 26.1963 4.3042 26.2178C5.40169 26.2393 6.49917 26.2393 7.60753 26.2178C8.75934 26.1855 9.45478 25.4542 9.46564 24.3036C9.46564 23.8412 9.46564 23.368 9.46564 22.8626C15.3551 23.3035 19.669 23.3142 25.5476 22.8626C25.5476 23.411 25.5476 23.9057 25.5476 24.4004C25.5585 25.3897 26.2322 26.1532 27.221 26.1855C28.438 26.2285 29.6659 26.2285 30.8829 26.1855C31.8717 26.1425 32.5454 25.3897 32.5563 24.4004C32.5672 23.7014 32.5454 23.0024 32.5672 22.3034C32.5672 22.1851 32.6432 22.013 32.741 21.9485C33.5234 21.3786 33.8711 20.6043 33.8711 19.6579C33.8603 17.077 33.8603 14.4961 33.8711 11.9152C33.8711 10.9904 33.5777 10.2054 32.8823 9.57089C32.8388 9.53863 32.8171 9.47411 32.7628 9.39883C33.1105 9.39883 33.4147 9.40959 33.7081 9.39883C34.4253 9.37733 34.9686 8.85039 34.9903 8.15139C35.0121 7.68898 35.0121 7.20506 34.9903 6.72114ZM8.1291 3.54877C9.25919 1.98947 10.9326 1.31198 12.8668 1.30123C16.4635 1.29048 18.5389 1.29048 22.1465 1.30123C24.5588 1.31198 26.3517 2.38736 27.5144 4.48435C27.9925 5.34465 28.4815 6.1942 28.9596 7.05451C29.0248 7.1728 29.0791 7.29109 29.1661 7.46315C20.8643 8.39873 14.149 8.38798 5.77114 7.4739C6.5861 6.09742 7.25981 4.7532 8.1291 3.54877ZM1.32687 8.12989C1.32687 7.66747 1.32687 7.24808 1.32687 6.7534C2.0223 6.7534 2.69601 6.74265 3.36971 6.76415C3.45664 6.76415 3.5653 6.83943 3.61963 6.91471C3.73916 7.06526 3.82609 7.22657 3.92389 7.38787C4.13034 7.72124 3.96735 8.10838 3.57617 8.11913C2.8264 8.15139 2.0875 8.12989 1.32687 8.12989ZM8.1291 24.4756C8.11824 24.637 7.85745 24.9058 7.71619 24.9166C6.53177 24.9488 5.35822 24.9488 4.17381 24.9166C4.03255 24.9166 3.78263 24.6585 3.77176 24.5079C3.72829 23.8412 3.75003 23.1744 3.75003 22.4647C5.22783 22.583 6.67303 22.7013 8.15084 22.8196C8.15084 23.3788 8.18343 23.938 8.1291 24.4756ZM31.2198 24.5187C31.2089 24.6692 30.9481 24.9166 30.8069 24.9166C29.6442 24.9488 28.4706 24.9488 27.3079 24.9273C27.0254 24.9273 26.8624 24.7337 26.8516 24.4541C26.8407 23.9164 26.8516 23.3895 26.8516 22.8088C28.3294 22.6905 29.7637 22.5722 31.2415 22.4432C31.2415 23.1637 31.2632 23.8412 31.2198 24.5187ZM32.5454 19.6795C32.5454 20.5828 32.1325 21.0667 31.2306 21.142C28.4815 21.3678 25.7323 21.5829 22.9832 21.7549C21.1142 21.8732 19.995 21.9055 18.126 21.97C14.3337 21.9593 11.3129 21.7657 7.53146 21.4646C6.24925 21.357 4.95617 21.2603 3.67396 21.142C2.8916 21.0667 2.44608 20.572 2.44608 19.7977C2.43522 17.1093 2.43522 14.4209 2.45695 11.7324C2.45695 11.399 2.63081 11.0119 2.84813 10.7646C3.46751 10.0871 4.14121 9.4526 4.82578 8.85039C4.97791 8.71059 5.29303 8.69984 5.53208 8.72134C7.12941 8.8719 8.71588 9.09773 10.3132 9.18376C12.6386 9.3128 14.4315 9.42034 16.7677 9.42034C19.4517 9.43109 21.1685 9.36657 23.8525 9.23753C25.678 9.1515 27.5035 8.91491 29.3182 8.71059C29.7528 8.66758 30.0788 8.68908 30.4048 9.04396C30.9155 9.60316 31.4806 10.1086 32.0347 10.6248C32.3824 10.9474 32.5454 11.3238 32.5454 11.8077C32.5454 14.4316 32.5563 17.0555 32.5454 19.6795ZM33.6647 8.14064C32.9258 8.14064 32.2086 8.16215 31.4914 8.12989C31.285 8.11913 31.0894 7.91481 30.8612 7.77501C31.0568 7.44164 31.2198 7.1728 31.3936 6.90395C31.448 6.82868 31.5675 6.77491 31.6544 6.77491C32.3172 6.76415 32.9801 6.76415 33.6647 6.76415C33.6647 7.21581 33.6647 7.64597 33.6647 8.14064Z" fill="#3F3F3F"/>
<path d="M23.2548 16.1845C23.0158 15.1844 22.2769 14.5929 21.2446 14.5929C18.2455 14.5929 16.7677 14.5929 13.7687 14.5929C12.7255 14.5929 11.9975 15.1844 11.7584 16.1845C11.6172 16.7867 11.4759 17.3889 11.3346 17.9911C10.976 19.5504 11.8345 20.6043 13.4644 20.6043C15.0509 20.6043 15.8767 20.6043 17.4632 20.6043C19.1148 20.6043 20.0167 20.615 21.6684 20.6043C23.1462 20.5935 24.0264 19.4966 23.6895 18.0771C23.5482 17.4426 23.407 16.8189 23.2548 16.1845ZM21.6684 19.3138C20.0276 19.3246 19.1474 19.3138 17.5066 19.3138C15.8876 19.3138 15.04 19.3138 13.4209 19.3138C12.6603 19.3138 12.4213 19.0019 12.5951 18.2707C12.7364 17.6792 12.8668 17.0985 13.0189 16.5071C13.1384 16.0447 13.3231 15.8833 13.7795 15.8833C16.7677 15.8833 18.2238 15.8833 21.212 15.8833C21.6684 15.8833 21.864 16.0447 21.9726 16.4963C22.1248 17.12 22.2878 17.7438 22.4182 18.3782C22.5594 18.9912 22.2986 19.3138 21.6684 19.3138Z" fill="#3F3F3F"/>
<path d="M8.49972 13.2702C7.93468 13.2595 7.35877 13.2702 6.79373 13.2702C6.23955 13.2702 5.68537 13.2595 5.12033 13.2702C4.2945 13.281 3.77292 13.8079 3.76206 14.6144C3.75119 15.0338 3.75119 15.4425 3.76206 15.8619C3.77292 16.6684 4.2945 17.2169 5.10946 17.2276C6.23955 17.2491 7.35877 17.2491 8.48885 17.2276C9.28208 17.2169 9.81453 16.7007 9.84713 15.9156C9.86886 15.4747 9.86886 15.0231 9.84713 14.5822C9.81453 13.7972 9.29295 13.281 8.49972 13.2702ZM8.51059 15.9156C7.3805 15.9156 6.25042 15.9156 5.07687 15.9156C5.07687 15.464 5.07687 15.0338 5.07687 14.5822C6.21782 14.5822 7.3479 14.5822 8.51059 14.5822C8.51059 15.0231 8.51059 15.4532 8.51059 15.9156Z" fill="#3F3F3F"/>
<path d="M29.9051 13.2702C28.775 13.2595 27.6558 13.2595 26.5257 13.2702C25.7108 13.281 25.1892 13.7971 25.1566 14.6144C25.1457 15.0338 25.1457 15.4425 25.1566 15.8619C25.1783 16.6899 25.7108 17.2169 26.5366 17.2384C27.0799 17.2491 27.6232 17.2384 28.1665 17.2384C28.7098 17.2384 29.2531 17.2384 29.7964 17.2384C29.8182 17.2384 29.8508 17.2384 29.8725 17.2384C30.6875 17.2061 31.2199 16.6792 31.2308 15.8834C31.2416 15.4532 31.2416 15.0231 31.2308 14.5929C31.2308 13.8079 30.6983 13.281 29.9051 13.2702ZM29.9051 15.9156C28.7859 15.9156 27.6558 15.9156 26.4714 15.9156C26.4714 15.4747 26.4714 15.0446 26.4714 14.5929C27.6123 14.5929 28.7424 14.5929 29.9051 14.5929C29.9051 15.0123 29.9051 15.4425 29.9051 15.9156Z" fill="#3F3F3F"/>
<path d="M8.84578 18.5933C8.17208 18.5826 7.48751 18.5933 6.8138 18.5933C6.11837 18.5933 5.4338 18.5933 4.73836 18.5933C4.27112 18.5933 3.99946 18.8299 3.9886 19.2063C3.97773 19.6042 4.24938 19.873 4.73836 19.873C6.1075 19.8838 7.47664 19.8838 8.84578 19.873C9.32389 19.873 9.61728 19.6042 9.61728 19.2278C9.61728 18.8407 9.32389 18.5933 8.84578 18.5933Z" fill="#3F3F3F"/>
<path d="M30.2617 18.5933C29.5663 18.5826 28.8817 18.5933 28.1863 18.5933C27.5126 18.5933 26.828 18.5933 26.1543 18.5933C25.6762 18.5933 25.3828 18.8514 25.3828 19.2278C25.3828 19.6042 25.6871 19.873 26.1543 19.873C27.5234 19.8838 28.8926 19.8838 30.2617 19.873C30.7398 19.873 31.0224 19.6042 31.0115 19.2063C31.0006 18.8192 30.729 18.5933 30.2617 18.5933Z" fill="#3F3F3F"/>
</g>
<defs>
<clipPath id="clip0_780_24365">
<rect width="35" height="26.25" fill="white"/>
</clipPath>
</defs>
</svg>
