<svg width="32" height="37" viewBox="0 0 32 37" fill="none" xmlns="http://www.w3.org/2000/svg">
<g clip-path="url(#clip0_780_25369)">
<path d="M23.8418 21.901C23.6775 21.7516 23.6177 21.6321 23.6177 21.423C23.6327 16.239 23.6327 10.7264 23.6177 5.03455C23.6177 2.70401 22.1985 0.806723 20.0024 0.194211C19.853 0.149393 19.6887 0.104575 19.5393 0.0746965L19.3003 0H18.0753H18.0454H18.0304C17.896 0.0448179 17.7765 0.0746965 17.642 0.104575C17.3432 0.179272 17.0444 0.253968 16.7457 0.388422C14.7587 1.3296 13.7578 2.89823 13.7429 5.07936C13.7279 10.6218 13.7429 16.2241 13.7429 21.4528C13.7429 21.6321 13.698 21.7367 13.5636 21.8562C11.0986 23.9925 10.1724 26.6368 10.8148 29.6993C11.4571 32.747 13.3395 34.8086 16.4319 35.7796C16.7606 35.8842 17.1191 35.944 17.4478 36.0187C17.5972 36.0485 17.7466 36.0784 17.9259 36.1083H17.9408H19.4497L19.7036 36.0635C19.8381 36.0336 19.9875 36.0037 20.1219 35.9739C23.4683 35.2717 25.6047 33.2997 26.4562 30.1326C27.2928 26.9655 26.4263 24.1867 23.8418 21.901ZM22.1537 13.3557V13.3856V13.4155H15.2218V12.9524C15.2218 10.3679 15.2218 7.78338 15.2218 5.19888C15.2218 4.2577 15.4609 3.48086 15.9389 2.85341C16.5963 2.00187 17.6271 1.47899 18.7027 1.47899C19.0612 1.47899 19.4198 1.53875 19.7485 1.64332C21.1677 2.10644 22.1387 3.37628 22.1537 4.84034C22.1686 6.8422 22.1686 8.87395 22.1686 10.831C22.1537 11.6527 22.1537 12.4893 22.1537 13.3557ZM14.7737 22.7974C15.177 22.4837 15.2218 22.1102 15.2218 21.7964C15.2218 19.4659 15.2218 17.1503 15.2218 14.8198H22.1537V15.4472C22.1537 17.5238 22.1537 19.6751 22.1537 21.8114C22.1537 22.2446 22.3031 22.5584 22.6467 22.8273C24.8428 24.5901 25.6644 26.8161 25.1117 29.4304C24.5589 32.0448 22.8558 33.7778 20.2116 34.465C19.7036 34.5994 19.1808 34.6592 18.6579 34.6592C15.4011 34.6592 12.5477 32.1494 12.1742 28.9524C11.8754 26.4426 12.7419 24.366 14.7737 22.7974Z" fill="#3F3F3F"/>
<path d="M12.3848 10.9505C12.5342 10.5173 12.3848 10.1288 11.9516 9.81512C11.6229 9.57609 11.4586 9.26237 11.4586 8.9337C11.4586 8.60504 11.6379 8.29131 11.9516 8.05228C12.3848 7.73856 12.5193 7.35014 12.3848 6.9169C12.2504 6.49859 11.9068 6.27451 11.3988 6.27451C10.9955 6.27451 10.6519 6.12511 10.4726 5.8562C10.2784 5.5873 10.2336 5.22875 10.3531 4.82539C10.5025 4.3324 10.3979 3.94397 10.0393 3.69001C9.86007 3.55555 9.6808 3.49579 9.50153 3.49579C9.29238 3.49579 9.08323 3.57049 8.82926 3.74976C8.60517 3.91409 8.36614 3.98879 8.12711 3.98879C7.67893 3.98879 7.32039 3.69001 7.14112 3.19701C6.97679 2.70401 6.64812 2.45004 6.19994 2.45004C5.7667 2.45004 5.45298 2.70401 5.28865 3.19701C5.12431 3.70494 4.75083 4.00373 4.30265 4.00373C4.06362 4.00373 3.80965 3.91409 3.58557 3.74976C3.36148 3.58543 3.13739 3.51073 2.94318 3.51073C2.7639 3.51073 2.58463 3.57049 2.4203 3.69001C2.04682 3.95891 1.94224 4.34733 2.10657 4.85527C2.22609 5.22875 2.18127 5.5873 1.98706 5.8562C1.77791 6.12511 1.44924 6.27451 1.06082 6.27451C0.523008 6.27451 0.194344 6.4986 0.0598898 6.93184C-0.074564 7.36508 0.0748291 7.73856 0.508069 8.05228C0.791916 8.26143 0.956248 8.53034 0.986127 8.82913C0.986127 9.26237 0.851673 9.53127 0.47819 9.81512C0.0748291 10.1139 -0.074564 10.5023 0.0598898 10.9206C0.194344 11.3539 0.537947 11.578 1.03094 11.578C1.44924 11.578 1.79285 11.7274 1.98706 11.9963C2.18127 12.2652 2.22609 12.6386 2.09164 13.042C1.94224 13.5201 2.06176 13.9085 2.4203 14.1774C2.59957 14.2969 2.7639 14.3567 2.94318 14.3567C3.15233 14.3567 3.36148 14.282 3.58557 14.1176C3.82459 13.9533 4.06362 13.8637 4.30265 13.8637C4.75083 13.8637 5.10937 14.1625 5.28865 14.6704C5.45298 15.1634 5.75176 15.4024 6.19994 15.4024H6.21488C6.66306 15.4024 6.97679 15.1634 7.14112 14.6555C7.30545 14.1625 7.67893 13.8637 8.12711 13.8637C8.36614 13.8637 8.60517 13.9533 8.82926 14.1027C9.06829 14.267 9.29238 14.3567 9.50153 14.3567C9.6808 14.3567 9.86007 14.2969 10.0393 14.1625C10.4128 13.8936 10.5025 13.5201 10.3381 12.9972C10.2186 12.6237 10.2634 12.2652 10.4576 11.9963C10.6519 11.7274 10.9955 11.578 11.3839 11.563C11.9068 11.578 12.2504 11.3539 12.3848 10.9505ZM6.22982 13.3109C5.67707 12.6984 5.03468 12.3996 4.30265 12.3996C4.0935 12.3996 3.86941 12.4295 3.64532 12.4743C3.42123 11.2493 3.13739 10.8459 2.06176 10.2782C2.58463 9.38188 2.58463 8.47058 2.06176 7.57423C3.01787 7.14099 3.55569 6.40896 3.64532 5.37815C3.86941 5.42296 4.07856 5.45284 4.28771 5.45284C5.03468 5.45284 5.69201 5.15406 6.22982 4.54155C6.76764 5.13912 7.42497 5.45284 8.15699 5.45284C8.36614 5.45284 8.57529 5.42296 8.79938 5.37815C8.90396 6.40896 9.44177 7.15592 10.3979 7.57423C9.87501 8.47058 9.87501 9.38188 10.3979 10.2782C9.44177 10.6965 8.90396 11.4435 8.79938 12.4743C8.54541 12.4295 8.32132 12.4146 8.12711 12.4146C7.38015 12.4295 6.81246 12.6984 6.22982 13.3109Z" fill="#3F3F3F"/>
<path d="M31.1651 11.6825C30.702 11.6825 29.8654 11.6825 29.0288 11.6825C28.1772 11.6825 27.3257 11.6825 26.8476 11.6825C26.5787 11.6825 26.3397 11.7722 26.1903 11.9216C26.0559 12.056 25.9961 12.2353 25.9961 12.4295C26.011 12.8478 26.3397 13.1317 26.8327 13.1466C27.012 13.1466 27.4303 13.1466 27.9083 13.1466C28.3416 13.1466 28.8047 13.1466 29.1782 13.1466H29.7309H30.5974C30.7916 13.1466 30.9709 13.1466 31.1651 13.1466C31.449 13.1466 31.673 13.057 31.8224 12.8926C31.9569 12.7582 32.0167 12.5789 32.0017 12.3847C31.9868 11.9664 31.6432 11.6825 31.1651 11.6825Z" fill="#3F3F3F"/>
<path d="M30.0444 20.1531C29.9249 20.1531 29.8203 20.1531 29.7008 20.1531H29.163H26.7877C26.3096 20.1681 25.966 20.4818 25.9809 20.9001C25.9959 21.3184 26.3096 21.6022 26.7727 21.6172C27.0715 21.6172 27.7438 21.6172 28.416 21.6172C29.0734 21.6172 29.7158 21.6172 30.0145 21.6172C30.4777 21.6172 30.7914 21.3184 30.8063 20.8852C30.8362 20.4668 30.5075 20.1681 30.0444 20.1531Z" fill="#3F3F3F"/>
<path d="M26.7112 4.66107C26.995 4.67601 27.6523 4.67601 28.4292 4.67601C29.1761 4.67601 29.8185 4.67601 30.1024 4.66107C30.3115 4.66107 30.4908 4.57143 30.6252 4.43698C30.7597 4.30252 30.8195 4.10831 30.8195 3.89916C30.8045 3.51074 30.5057 3.21195 30.0874 3.19701C29.9679 3.19701 29.8484 3.19701 29.7289 3.19701C29.6393 3.19701 29.5496 3.19701 29.46 3.19701C29.3703 3.19701 29.2807 3.19701 29.1761 3.19701H28.8027C28.474 3.19701 28.0109 3.19701 27.6075 3.19701C27.1295 3.19701 26.8456 3.19701 26.741 3.19701C26.3227 3.21195 26.024 3.48086 25.9941 3.88422C25.9791 4.07843 26.0538 4.27264 26.1883 4.42204C26.3227 4.57143 26.5169 4.66107 26.7112 4.66107Z" fill="#3F3F3F"/>
<path d="M27.427 7.43977C27.3524 7.43977 27.2926 7.43977 27.2179 7.43977H27.203C27.1432 7.43977 27.0685 7.43977 27.0087 7.43977C26.9191 7.43977 26.8295 7.43977 26.7398 7.43977C26.3215 7.45471 26.0078 7.7535 26.0078 8.14192C26.0078 8.56022 26.2767 8.85901 26.6502 8.87395C26.8892 8.88889 27.4719 8.88889 28.1441 8.88889C28.7118 8.88889 29.399 8.88889 29.6829 8.85901C29.8771 8.84407 30.0564 8.76937 30.1609 8.61998C30.2655 8.48553 30.3253 8.30625 30.3103 8.0971C30.2805 7.69374 30.0116 7.43977 29.6082 7.42484C29.5186 7.42484 29.2795 7.42484 28.8313 7.42484C28.4429 7.42484 27.9947 7.42484 27.7109 7.42484H27.6213H27.427V7.43977Z" fill="#3F3F3F"/>
<path d="M26.7578 17.3744C26.8475 17.3744 26.9222 17.3744 27.0118 17.3744C27.0118 17.3744 27.3554 17.3744 27.4301 17.3744H27.7438C28.0426 17.3744 28.4609 17.3744 28.8344 17.3744C29.2676 17.3744 29.5067 17.3744 29.5814 17.3744C29.9997 17.3595 30.2984 17.0906 30.3283 16.7021C30.3433 16.493 30.2835 16.3137 30.1491 16.1643C30.0146 16.0149 29.8353 15.9253 29.6262 15.9253C29.417 15.9104 28.8792 15.9104 28.1771 15.9104C27.5197 15.9104 26.9371 15.9104 26.713 15.9253C26.2798 15.9402 25.966 16.2689 25.981 16.6723C26.0109 17.0756 26.3246 17.3595 26.7578 17.3744Z" fill="#3F3F3F"/>
<path d="M9.30665 8.94864C9.30665 8.12698 8.99292 7.35014 8.41029 6.7675C7.82766 6.18487 7.05081 5.85621 6.21421 5.85621C4.52607 5.84127 3.13672 7.23062 3.13672 8.91876C3.13672 10.6218 4.51113 12.0112 6.21421 12.0112H6.22915C7.91729 12.0261 9.30665 10.6368 9.30665 8.94864ZM4.60077 8.90382C4.61571 8.00747 5.31786 7.30532 6.22915 7.30532H6.25903C7.14045 7.32026 7.85754 8.05228 7.8426 8.9337C7.8426 9.83006 7.12551 10.5471 6.21421 10.5471H6.19928C5.76604 10.5471 5.36267 10.3679 5.04895 10.0691C4.7651 9.75537 4.60077 9.352 4.60077 8.90382Z" fill="#3F3F3F"/>
</g>
<defs>
<clipPath id="clip0_780_25369">
<rect width="32" height="36.1232" fill="white"/>
</clipPath>
</defs>
</svg>
