<svg width="55" height="55" viewBox="0 0 55 55" fill="none" xmlns="http://www.w3.org/2000/svg">
<g clip-path="url(#clip0_661_8978)">
<path d="M35.7993 27.8746H31.6202C31.4531 27.8746 31.2859 27.9582 31.2023 28.0418C31.1187 28.1254 31.0352 28.2925 31.0352 28.4597C31.0352 28.6269 31.1187 28.794 31.2023 28.8776C31.2859 28.9612 31.4531 29.0448 31.6202 29.0448H35.7993C35.9665 29.0448 36.1337 28.9612 36.2172 28.8776C36.3008 28.794 36.3844 28.6269 36.3844 28.4597C36.3844 28.2925 36.3008 28.1254 36.2172 28.0418C36.0501 27.8746 35.9665 27.8746 35.7993 27.8746Z" fill="#3F3F3F"/>
<path d="M35.7993 25.3672H31.6202C31.4531 25.3672 31.2859 25.4507 31.2023 25.5343C31.1187 25.6179 31.0352 25.7851 31.0352 25.9522C31.0352 26.1194 31.1187 26.2866 31.2023 26.3701C31.2859 26.4537 31.4531 26.5373 31.6202 26.5373H35.7993C35.9665 26.5373 36.1337 26.4537 36.2172 26.3701C36.3008 26.2866 36.3844 26.1194 36.3844 25.9522C36.3844 25.7851 36.3008 25.6179 36.2172 25.5343C36.0501 25.4507 35.9665 25.3672 35.7993 25.3672Z" fill="#3F3F3F"/>
<path d="M35.7993 22.9433H31.6202C31.4531 22.9433 31.2859 23.0269 31.2023 23.1104C31.1187 23.194 31.0352 23.3612 31.0352 23.5284C31.0352 23.6955 31.1187 23.8627 31.2023 23.9463C31.2859 24.0298 31.4531 24.1134 31.6202 24.1134H35.7993C35.9665 24.1134 36.1337 24.0298 36.2172 23.9463C36.3008 23.8627 36.3844 23.6955 36.3844 23.5284C36.3844 23.3612 36.3008 23.194 36.2172 23.1104C36.0501 23.0269 35.9665 22.9433 35.7993 22.9433Z" fill="#3F3F3F"/>
<path d="M35.7993 20.5194H31.6202C31.4531 20.5194 31.2859 20.603 31.2023 20.6866C31.1187 20.7702 31.0352 20.9373 31.0352 21.1045C31.0352 21.2716 31.1187 21.4388 31.2023 21.5224C31.2859 21.606 31.4531 21.6896 31.6202 21.6896H35.7993C35.9665 21.6896 36.1337 21.606 36.2172 21.5224C36.3008 21.4388 36.3844 21.2716 36.3844 21.1045C36.3844 20.9373 36.3008 20.7702 36.2172 20.6866C36.0501 20.603 35.9665 20.5194 35.7993 20.5194Z" fill="#3F3F3F"/>
<path d="M31.5358 19.2657H35.715C35.8821 19.2657 36.0493 19.1821 36.1329 19.0985C36.2164 19.0149 36.3 18.8478 36.3 18.6806C36.3 18.5134 36.2164 18.3463 36.1329 18.2627C36.0493 18.1791 35.8821 18.0955 35.715 18.0955H31.5358C31.4523 18.0955 31.3687 18.0955 31.2851 18.0955C31.2015 18.0955 31.1179 18.1791 31.1179 18.1791C31.0344 18.2627 31.0344 18.2627 30.9508 18.3463C30.9508 18.4298 30.8672 18.5134 30.8672 18.597C30.8672 18.6806 30.8672 18.7642 30.8672 18.8478C30.8672 18.9313 30.9508 19.0149 30.9508 19.0149C30.9508 19.0149 31.0344 19.0985 31.1179 19.1821C31.4523 19.2657 31.4523 19.2657 31.5358 19.2657Z" fill="#3F3F3F"/>
<path d="M28.444 31.2179L28.1933 30.9672V17.0925C28.1933 16.2567 27.7754 15.5045 27.1903 14.9194C26.6052 14.3343 25.7694 14 24.9336 14C24.0977 14 23.2619 14.3343 22.6768 14.9194C22.0918 15.5045 21.7574 16.2567 21.6739 17.0925V30.9672L21.3395 31.2179C19.25 32.7224 18.4142 35.3134 19.25 37.8209C20.0858 40.3284 22.2589 42 24.9336 42C27.5246 42 29.6977 40.3284 30.5336 37.8209C31.3694 35.2299 30.5336 32.6388 28.444 31.2179ZM23.3455 17.3433C23.3455 16.9254 23.5127 16.5075 23.847 16.2567C24.1813 15.9224 24.5156 15.7552 24.9336 15.7552C25.3515 15.7552 25.7694 15.9224 26.0201 16.2567C26.3545 16.5075 26.5216 16.9254 26.5216 17.3433V25.2836H23.3455C23.3455 23.3612 23.3455 20.9373 23.3455 17.594V17.3433ZM29.2798 36.4836C29.0291 38.406 27.6082 40.3284 25.0171 40.3284C22.3425 40.3284 20.9216 38.406 20.7545 36.4836C20.5873 34.8119 21.3395 32.7224 23.4291 31.8866C23.4291 30.9672 23.4291 29.9642 23.4291 26.3701H26.5216V31.8866C28.6948 32.7224 29.447 34.8119 29.2798 36.4836Z" fill="#3F3F3F"/>
</g>
<circle cx="27.5" cy="27.5" r="27" stroke="#3F3F3F"/>
<defs>
<clipPath id="clip0_661_8978">
<rect width="17.3851" height="28" fill="white" transform="translate(19 14)"/>
</clipPath>
</defs>
</svg>
