<svg width="55" height="55" viewBox="0 0 55 55" fill="none" xmlns="http://www.w3.org/2000/svg">
<path d="M37.5272 25.0382L34.7575 19.8871C34.6338 19.6594 34.3989 19.5157 34.1269 19.5157H31.4313C31.4808 19.4797 31.5426 19.4558 31.5797 19.4079C31.8394 19.1323 31.827 18.7011 31.5426 18.4375L30.133 17.1797C29.997 17.0599 29.8363 17 29.6508 17H25.8795C25.6693 17 25.4715 17.0958 25.3355 17.2516L23.4313 19.5157H20.9459C20.6492 19.5157 20.3895 19.6954 20.2906 19.9589L17.8424 26.2002L16.6059 26.3679C16.2597 26.4159 16 26.7034 16 27.0508V33.4358C16 33.8192 16.3215 34.1187 16.7048 34.1187H18.5719C18.5843 35.089 18.7326 36.6823 19.4993 37.4849C19.8207 37.8203 20.2411 38 20.6986 38C21.1561 38 21.5766 37.8203 21.898 37.4849C22.677 36.6942 22.813 35.089 22.8254 34.1187H32.2103C32.2227 35.4124 32.4947 37.7484 34.2505 37.988C34.3247 38 34.4113 38 34.4855 38C34.8688 38 35.215 37.8682 35.4994 37.6047C36.3278 36.862 36.4762 35.1369 36.4886 34.1067H38.5906C38.9863 34.1067 39.2954 33.7952 39.2954 33.4239V27.0388C39.2954 26.8591 39.2212 26.6794 39.0852 26.5596L37.5272 25.0382ZM26.2257 18.3776H29.3788L30.5905 19.4558C30.6276 19.4797 30.6647 19.5037 30.7018 19.5157H25.2613L26.2257 18.3776ZM20.8841 36.5385C20.8099 36.6224 20.7605 36.6224 20.711 36.6224C20.6616 36.6224 20.6121 36.6104 20.5379 36.5385C20.167 36.1552 20.0062 35.0531 19.9938 34.1187H21.4282C21.4034 35.0411 21.2551 36.1671 20.8841 36.5385ZM34.5597 36.6104C34.5226 36.6463 34.5102 36.6463 34.4731 36.6343C33.9538 36.5625 33.6817 35.2807 33.657 34.1187H35.0913C35.0666 35.1968 34.8811 36.3109 34.5597 36.6104ZM37.8982 32.753H17.4096V27.6378L18.4482 27.494C18.7079 27.4581 18.9181 27.2904 19.0047 27.0627L21.4158 20.8933H33.6817L36.3031 25.769C36.3402 25.8289 36.3773 25.8888 36.4267 25.9367L37.8734 27.3383V32.753H37.8982Z" fill="#3F3F3F"/>
<path d="M21.1795 26.356H33.8906H33.903C34.2987 26.356 34.6078 26.0445 34.6078 25.6732C34.6078 25.5054 34.546 25.3377 34.4347 25.2179L32.3697 22.1033C32.2337 21.9116 32.0112 21.7918 31.7762 21.7918H22.8241C22.552 21.7918 22.3171 21.9356 22.1935 22.1752L20.5489 25.3737C20.4377 25.5893 20.45 25.8409 20.5737 26.0445C20.7097 26.2362 20.9322 26.356 21.1795 26.356ZM23.2568 23.1694H31.3806L32.5923 24.9903H22.3171L23.2568 23.1694Z" fill="#3F3F3F"/>
<path d="M22.1223 28.6442H19.2907C18.8951 28.6442 18.5859 28.9557 18.5859 29.3271C18.5859 29.6984 18.9074 30.0099 19.2907 30.0099H22.1223C22.518 30.0099 22.8271 29.6984 22.8271 29.3271C22.8271 28.9557 22.5056 28.6442 22.1223 28.6442Z" fill="#3F3F3F"/>
<path d="M35.7707 28.6442H32.9392C32.5435 28.6442 32.2344 28.9557 32.2344 29.3271C32.2344 29.6984 32.5559 30.0099 32.9392 30.0099H35.7707C36.1664 30.0099 36.4755 29.6984 36.4755 29.3271C36.4755 28.9557 36.1664 28.6442 35.7707 28.6442Z" fill="#3F3F3F"/>
<circle cx="27.5" cy="27.5" r="27" stroke="#3F3F3F"/>
</svg>
