<svg width="30" height="29" viewBox="0 0 30 29" fill="none" xmlns="http://www.w3.org/2000/svg">
<path d="M1.48602 27.6371C1.53525 27.6068 6.24561 24.3661 10.6605 26.7285C13.188 28.0914 16.9301 29 20.5408 29C21.0988 29 21.6404 28.9697 22.182 28.9243C22.1984 28.9243 22.1984 28.9243 22.2148 28.9243C22.2148 28.9243 22.2149 28.9243 22.2313 28.9243C22.3133 28.9243 22.379 28.9091 22.4446 28.894C25.4809 28.6063 28.2546 27.5614 29.8302 25.4715C30.1256 25.0778 30.0271 24.5478 29.6004 24.2601C29.1737 23.9875 28.5828 24.0783 28.2874 24.4721C27.2042 25.8956 25.3496 26.7133 23.216 27.0616C23.6427 22.9577 26.1702 15.3405 26.2031 15.2496C26.3015 14.9619 26.2195 14.659 26.0225 14.4319C25.2183 13.5687 24.1023 12.7963 22.9206 12.13V8.55614C22.9206 8.26841 22.7729 8.01097 22.5267 7.84439L20.1469 6.29974C20.1469 6.25431 20.1633 6.20888 20.1633 6.16345V0.863186C20.1633 0.378591 19.7366 0 19.2278 0H12.0392C11.514 0 11.1037 0.393734 11.1037 0.863186V5.73943L7.77195 8.14726C7.54218 8.31384 7.41088 8.55614 7.41088 8.82872V12.5238C6.09789 13.1295 5.1788 13.599 5.08033 13.6444C4.83414 13.7655 4.67002 13.9775 4.60437 14.235C4.55513 14.4924 4.62078 14.7499 4.7849 14.9467C6.44255 16.8548 6.95134 21.5796 7.06622 24.0783C3.42268 24.1086 0.5341 26.0924 0.369976 26.2136C-0.040333 26.5013 -0.122396 27.0465 0.189439 27.4251C0.484862 27.8642 1.07571 27.9248 1.48602 27.6371ZM12.9583 1.7718H18.2759V5.13368L15.535 3.36188C15.1903 3.14987 14.7472 3.14987 14.419 3.39217L12.9747 4.43708V1.7718H12.9583ZM9.26549 9.29817L15.0262 5.14883L21.0332 9.04073V11.2214C18.6041 10.1008 16.372 9.44961 16.2079 9.40418C16.0438 9.35875 15.8797 9.35875 15.7155 9.38904C13.943 9.76762 11.4155 10.7822 9.26549 11.7363V9.29817ZM15.8961 11.1305C17.0285 11.4789 21.8702 13.0689 24.25 15.2648C23.6591 17.0971 21.624 23.5937 21.3286 27.2888C17.8984 27.4251 14.1071 26.5922 11.6125 25.2444C10.7098 24.7598 9.80709 24.4569 8.93724 24.2903C8.87159 22.4731 8.55975 17.5969 6.85287 14.765C8.7567 13.8564 13.2209 11.7817 15.8961 11.1305Z" fill="#3F3F3F"/>
</svg>
