<svg width="55" height="55" viewBox="0 0 55 55" fill="none" xmlns="http://www.w3.org/2000/svg">
<path d="M16.281 38.8251C16.3235 38.799 20.3841 36.0052 24.1901 38.0418C26.369 39.2167 29.5949 40 32.7076 40C33.1886 40 33.6555 39.9739 34.1224 39.9347C34.1366 39.9347 34.1366 39.9347 34.1507 39.9347C34.1507 39.9347 34.1507 39.9347 34.1649 39.9347C34.2356 39.9347 34.2922 39.9217 34.3488 39.9086C36.9663 39.6606 39.3574 38.7598 40.7157 36.9582C40.9704 36.6188 40.8855 36.1619 40.5176 35.9138C40.1497 35.6789 39.6404 35.7572 39.3857 36.0966C38.4519 37.3238 36.8531 38.0287 35.0138 38.329C35.3817 34.7911 37.5605 28.2245 37.5888 28.1462C37.6737 27.8982 37.603 27.6371 37.4332 27.4413C36.7399 26.6971 35.7778 26.0313 34.7591 25.4569V22.376C34.7591 22.1279 34.6318 21.906 34.4196 21.7624L32.368 20.4308C32.368 20.3916 32.3822 20.3525 32.3822 20.3133V15.7441C32.3822 15.3264 32.0143 15 31.5757 15H25.3786C24.9258 15 24.5721 15.3394 24.5721 15.7441V19.9478L21.7 22.0235C21.5019 22.1671 21.3887 22.376 21.3887 22.611V25.7963C20.2568 26.3185 19.4645 26.7232 19.3796 26.7624C19.1674 26.8668 19.0259 27.0496 18.9693 27.2715C18.9268 27.4935 18.9834 27.7154 19.1249 27.8851C20.5539 29.53 20.9925 33.6031 21.0916 35.7572C17.9506 35.7833 15.4604 37.4935 15.3189 37.5979C14.9652 37.846 14.8945 38.3159 15.1633 38.6423C15.418 39.0209 15.9273 39.0731 16.281 38.8251ZM26.1709 16.5274H30.7551V19.4256L28.3922 17.8982C28.0951 17.7154 27.7131 17.7154 27.4301 17.9243L26.1851 18.8251V16.5274H26.1709ZM22.9875 23.0157L27.9536 19.4386L33.132 22.7937V24.6736C31.038 23.7076 29.1138 23.1462 28.9723 23.107C28.8309 23.0679 28.6894 23.0679 28.5479 23.094C27.0198 23.4204 24.841 24.295 22.9875 25.1175V23.0157ZM28.7035 24.5953C29.6798 24.8956 33.8536 26.2663 35.9052 28.1593C35.3958 29.7389 33.6414 35.3394 33.3867 38.5248C30.4297 38.6423 27.1613 37.9243 25.0107 36.7624C24.2326 36.3446 23.4544 36.0836 22.7045 35.9399C22.6479 34.3734 22.3791 30.1697 20.9076 27.7285C22.5489 26.9452 26.3973 25.1567 28.7035 24.5953Z" fill="#3F3F3F"/>
<circle cx="27.5" cy="27.5" r="27" stroke="#3F3F3F"/>
</svg>
