<svg width="55" height="55" viewBox="0 0 55 55" fill="none" xmlns="http://www.w3.org/2000/svg">
<circle cx="27.5" cy="27.5" r="27" stroke="#3F3F3F"/>
<g clip-path="url(#clip0_661_8949)">
<path d="M14 36.7668V21.6521C14 21.5213 14.11 21.4132 14.2432 21.4132H17.2372C17.3704 21.4132 17.4805 21.3051 17.4805 21.1743V18.2389C17.4747 18.1081 17.5847 18 17.7179 18H41.7626C41.8958 18 42.0058 18.1081 42.0058 18.2389V33.3536C42.0058 33.4844 41.8958 33.5925 41.7626 33.5925H38.7686C38.6354 33.5925 38.5253 33.7006 38.5253 33.8314V36.7725C38.5253 36.9033 38.4153 37.0114 38.2821 37.0114H14.2432C14.11 37 14 36.8976 14 36.7668ZM36.9733 33.0294C35.7572 33.3536 34.8132 34.2865 34.4831 35.4755V35.4811C34.4426 35.6347 34.5584 35.7826 34.7148 35.7826H37.0428C37.176 35.7826 37.286 35.6746 37.286 35.5437V33.2569C37.2802 33.0976 37.1297 32.9838 36.9733 33.0294ZM15.4883 35.777H17.8163C17.9727 35.777 18.0885 35.6291 18.048 35.4755V35.4698C17.7179 34.2752 16.7681 33.3479 15.5578 33.0237H15.552C15.3957 32.9838 15.2451 33.0976 15.2451 33.2512V35.538C15.2451 35.6746 15.3551 35.777 15.4883 35.777ZM19.3452 22.8353C18.9977 24.7922 17.4399 26.3225 15.4478 26.6638C15.332 26.6808 15.2451 26.7832 15.2451 26.897V31.5162C15.2451 31.63 15.332 31.7323 15.4478 31.7494C17.4399 32.0907 18.9977 33.621 19.3452 35.5779C19.3626 35.6916 19.4668 35.777 19.5826 35.777H32.9427C33.0585 35.777 33.1628 35.6916 33.1801 35.5779C33.5276 33.621 35.0854 32.0907 37.0776 31.7494C37.1934 31.7323 37.2802 31.63 37.2802 31.5162V26.897C37.2802 26.7832 37.1934 26.6808 37.0776 26.6638C35.0854 26.3225 33.5276 24.7922 33.1801 22.8353C33.1628 22.7216 33.0585 22.6362 32.9427 22.6362H19.5826C19.4668 22.6362 19.3626 22.7216 19.3452 22.8353ZM38.7686 32.3638H40.5175C40.6507 32.3638 40.7607 32.2557 40.7607 32.1249V19.462C40.7607 19.3311 40.6507 19.2231 40.5175 19.2231H18.963C18.8298 19.2231 18.7198 19.3311 18.7198 19.462V21.1799C18.7198 21.3108 18.8298 21.4189 18.963 21.4189H38.2879C38.4211 21.4189 38.5311 21.5269 38.5311 21.6578V32.1362C38.5253 32.2614 38.6354 32.3638 38.7686 32.3638ZM15.552 25.3895C16.7681 25.0653 17.7179 24.1323 18.048 22.9377V22.932C18.0885 22.7784 17.9727 22.6305 17.8163 22.6305H15.4883C15.3551 22.6305 15.2451 22.7386 15.2451 22.8695V25.1563C15.2451 25.3156 15.3957 25.4293 15.552 25.3895ZM34.4774 22.9377C34.8074 24.1323 35.7572 25.0596 36.9675 25.3838H36.9733C37.1297 25.4237 37.2802 25.3099 37.2802 25.1563V22.8752C37.2802 22.7443 37.1702 22.6362 37.037 22.6362H34.709C34.5526 22.6362 34.4368 22.7841 34.4774 22.9377Z" fill="#3F3F3F"/>
<path d="M26.4929 32.6198C24.3965 32.7506 22.6591 31.044 22.7923 28.9847C22.9024 27.2838 24.3038 25.9072 26.0354 25.7991C28.1317 25.6683 29.8691 27.3749 29.7359 29.4341C29.6259 31.135 28.2244 32.5117 26.4929 32.6198ZM26.4697 27.0222C25.0798 26.9027 23.9158 28.0404 24.0374 29.4114C24.1301 30.4581 24.993 31.3057 26.0585 31.3967C27.4542 31.5162 28.6124 30.3784 28.4908 29.0075C28.3923 27.9608 27.5353 27.1132 26.4697 27.0222Z" fill="#3F3F3F"/>
<path d="M31.7539 29.5877V28.8311C31.7539 28.7003 31.8581 28.5979 31.9913 28.5979H33.8677C34.0009 28.5979 34.1051 28.7003 34.1051 28.8311V29.5877C34.1051 29.7186 34.0009 29.8209 33.8677 29.8209H31.9913C31.8581 29.8209 31.7539 29.7129 31.7539 29.5877Z" fill="#3F3F3F"/>
<path d="M18.418 29.5877V28.8311C18.418 28.7003 18.5222 28.5979 18.6554 28.5979H20.5317C20.6649 28.5979 20.7692 28.7003 20.7692 28.8311V29.5877C20.7692 29.7186 20.6649 29.8209 20.5317 29.8209H18.6554C18.528 29.8209 18.418 29.7129 18.418 29.5877Z" fill="#3F3F3F"/>
</g>
<defs>
<clipPath id="clip0_661_8949">
<rect width="28" height="19" fill="white" transform="translate(14 18)"/>
</clipPath>
</defs>
</svg>
