<svg width="32" height="19" viewBox="0 0 32 19" fill="none" xmlns="http://www.w3.org/2000/svg">
<g clip-path="url(#clip0_660_8470)">
<path d="M0 18.7668V3.6521C0 3.52126 0.12575 3.41318 0.277973 3.41318H3.69969C3.85191 3.41318 3.97766 3.30509 3.97766 3.17425V0.238922C3.97104 0.108084 4.09679 0 4.24902 0H31.7286C31.8809 0 32.0066 0.108084 32.0066 0.238922V15.3536C32.0066 15.4844 31.8809 15.5925 31.7286 15.5925H28.3069C28.1547 15.5925 28.029 15.7006 28.029 15.8314V18.7725C28.029 18.9033 27.9032 19.0114 27.751 19.0114H0.277973C0.12575 19 0 18.8976 0 18.7668ZM26.2552 15.0294C24.8654 15.3536 23.7866 16.2865 23.4093 17.4755V17.4811C23.363 17.6347 23.4953 17.7826 23.674 17.7826H26.3346C26.4869 17.7826 26.6126 17.6746 26.6126 17.5437V15.2569C26.606 15.0976 26.4339 14.9838 26.2552 15.0294ZM1.70093 17.777H4.36153C4.54023 17.777 4.6726 17.6291 4.62627 17.4755V17.4698C4.24902 16.2752 3.1636 15.3479 1.78035 15.0237H1.77373C1.59504 14.9838 1.42296 15.0976 1.42296 15.2512V17.538C1.42296 17.6746 1.54871 17.777 1.70093 17.777ZM6.10879 4.83533C5.71169 6.79222 3.93133 8.32246 1.6546 8.66378C1.52223 8.68085 1.42296 8.78324 1.42296 8.89701V13.5162C1.42296 13.63 1.52223 13.7323 1.6546 13.7494C3.93133 14.0907 5.71169 15.621 6.10879 17.5779C6.12865 17.6916 6.24778 17.777 6.38014 17.777H21.6488C21.7812 17.777 21.9003 17.6916 21.9202 17.5779C22.3173 15.621 24.0976 14.0907 26.3744 13.7494C26.5067 13.7323 26.606 13.63 26.606 13.5162V8.89701C26.606 8.78324 26.5067 8.68085 26.3744 8.66378C24.0976 8.32246 22.3173 6.79222 21.9202 4.83533C21.9003 4.72156 21.7812 4.63623 21.6488 4.63623H6.38014C6.24778 4.63623 6.12865 4.72156 6.10879 4.83533ZM28.3069 14.3638H30.3057C30.4579 14.3638 30.5837 14.2557 30.5837 14.1249V1.46198C30.5837 1.33114 30.4579 1.22305 30.3057 1.22305H5.67198C5.51975 1.22305 5.394 1.33114 5.394 1.46198V3.17994C5.394 3.31078 5.51975 3.41886 5.67198 3.41886H27.7576C27.9098 3.41886 28.0356 3.52695 28.0356 3.65779V14.1362C28.029 14.2614 28.1547 14.3638 28.3069 14.3638ZM1.77373 7.38953C3.1636 7.06527 4.24902 6.13234 4.62627 4.93773V4.93204C4.6726 4.77845 4.54023 4.63054 4.36153 4.63054H1.70093C1.54871 4.63054 1.42296 4.73863 1.42296 4.86946V7.15629C1.42296 7.31557 1.59504 7.42935 1.77373 7.38953ZM23.4027 4.93773C23.7799 6.13234 24.8654 7.05959 26.2486 7.38384H26.2552C26.4339 7.42366 26.606 7.30989 26.606 7.15629V4.87515C26.606 4.74431 26.4802 4.63623 26.328 4.63623H23.6674C23.4887 4.63623 23.3564 4.78414 23.4027 4.93773Z" fill="#3F3F3F"/>
<path d="M14.2764 14.6198C11.8806 14.7506 9.89505 13.044 10.0473 10.9847C10.173 9.28384 11.7747 7.90719 13.7536 7.79911C16.1494 7.66827 18.135 9.37486 17.9828 11.4341C17.857 13.135 16.2553 14.5117 14.2764 14.6198ZM14.25 9.02216C12.6615 8.9027 11.3312 10.0404 11.4702 11.4114C11.5761 12.4581 12.5623 13.3057 13.7801 13.3967C15.3751 13.5162 16.6988 12.3785 16.5598 11.0075C16.4473 9.96079 15.4678 9.11318 14.25 9.02216Z" fill="#3F3F3F"/>
<path d="M20.293 11.5877V10.8311C20.293 10.7003 20.4121 10.5979 20.5643 10.5979H22.7087C22.8609 10.5979 22.98 10.7003 22.98 10.8311V11.5877C22.98 11.7186 22.8609 11.8209 22.7087 11.8209H20.5643C20.4121 11.8209 20.293 11.7129 20.293 11.5877Z" fill="#3F3F3F"/>
<path d="M5.05078 11.5877V10.8311C5.05078 10.7003 5.16991 10.5979 5.32214 10.5979H7.4665C7.61872 10.5979 7.73785 10.7003 7.73785 10.8311V11.5877C7.73785 11.7186 7.61872 11.8209 7.4665 11.8209H5.32214C5.17653 11.8209 5.05078 11.7129 5.05078 11.5877Z" fill="#3F3F3F"/>
</g>
<defs>
<clipPath id="clip0_660_8470">
<rect width="32" height="19" fill="white"/>
</clipPath>
</defs>
</svg>
