<svg width="23" height="24" viewBox="0 0 23 24" fill="none" xmlns="http://www.w3.org/2000/svg">
<g clip-path="url(#clip0_660_8417)">
<path d="M18.549 15.4534C18.1565 15.0228 17.6167 14.7743 17.0442 14.7743C16.5536 14.7743 16.0792 14.9565 15.7357 15.2878L15.0815 15.8841C14.8688 16.0828 14.5744 16.1988 14.28 16.1988C14.2473 16.1988 14.2309 16.1988 14.1982 16.1988C13.8547 16.1822 13.5276 16.0166 13.2986 15.7516L7.77015 9.62319C7.54116 9.35818 7.41031 9.02692 7.41031 8.67909C7.41031 8.33126 7.55751 8.01656 7.80286 7.80124L8.45712 7.20497C8.84967 6.84058 9.07866 6.34369 9.09502 5.7971C9.11138 5.26708 8.9151 4.75362 8.55526 4.35611L5.18583 0.612836C4.82599 0.231884 4.31894 0 3.79553 0C3.33755 0 2.91229 0.165631 2.58516 0.480331L1.73462 1.2588C0.622385 2.28571 -0.538922 4.20704 0.2789 7.48654C0.949514 10.1863 2.84686 13.2836 5.90551 16.6791L6.19993 16.9938C9.24223 20.4058 12.1046 22.5921 14.7216 23.5031C15.6376 23.8344 16.5208 24 17.355 24C18.7453 24 20.0048 23.5197 20.9862 22.5921L21.8367 21.8137C22.5727 21.1346 22.6218 19.942 21.9348 19.1801L18.549 15.4534ZM7.36124 6.01242L6.70698 6.6087C6.15086 7.12215 5.82373 7.83437 5.80738 8.61284C5.77466 9.3913 6.05272 10.1366 6.57613 10.7164L12.1046 16.8447C12.628 17.4244 13.3313 17.7723 14.1001 17.8219C14.1655 17.8219 14.2146 17.8219 14.28 17.8219C14.9833 17.8219 15.654 17.5569 16.1774 17.0766L16.8316 16.4803C16.897 16.4306 16.9788 16.3975 17.0606 16.3975C17.1751 16.3975 17.2896 16.4472 17.3714 16.5466L20.7408 20.2733C20.8389 20.3727 20.8389 20.5217 20.7572 20.6046L19.9066 21.383C19.2033 22.029 18.3364 22.3602 17.3387 22.3602C14.6726 22.3602 11.1396 20.058 7.37759 15.9006L7.08318 15.5859C4.25351 12.4389 2.43795 9.50725 1.83276 7.08903C1.34207 5.10145 1.68555 3.51139 2.81415 2.45135L3.66468 1.67288C3.6974 1.63975 3.74646 1.62319 3.79553 1.62319C3.86096 1.62319 3.94274 1.65631 3.99181 1.72257L7.36124 5.44928C7.44302 5.53209 7.47573 5.64803 7.47573 5.74741C7.47573 5.84679 7.42666 5.94617 7.36124 6.01242Z" fill="#3F3F3F"/>
<path d="M11.2031 4.45551C10.7615 4.45551 10.418 4.81989 10.418 5.25054C10.418 5.68118 10.7778 6.04557 11.2031 6.04557C14.7034 6.04557 17.5657 8.92755 17.5657 12.4886C17.5657 12.9358 17.9256 13.2837 18.3508 13.2837C18.7761 13.2837 19.1359 12.9193 19.1359 12.4886C19.1523 8.06627 15.5866 4.45551 11.2031 4.45551Z" fill="#3F3F3F"/>
<path d="M11.0898 1.95444C16.5692 1.95444 21.0182 6.45962 21.0182 12.0083C21.0182 12.4555 21.378 12.8033 21.8033 12.8033C22.2285 12.8033 22.5884 12.4389 22.5884 12.0083C22.5884 5.58177 17.4361 0.36438 11.0898 0.36438C10.6482 0.36438 10.3047 0.728769 10.3047 1.15941C10.3047 1.59005 10.6482 1.95444 11.0898 1.95444Z" fill="#3F3F3F"/>
</g>
<defs>
<clipPath id="clip0_660_8417">
<rect width="22.5882" height="24" fill="white"/>
</clipPath>
</defs>
</svg>
