<svg width="55" height="55" viewBox="0 0 55 55" fill="none" xmlns="http://www.w3.org/2000/svg">
<circle cx="27.5" cy="27.5" r="27" stroke="#3F3F3F"/>
<path d="M37.5389 17.0612C35.9637 15.6981 33.7323 15 30.943 15H21V40H26.3817V31.6223H30.943C33.7651 31.6223 35.9965 30.891 37.5717 29.4614C39.1796 27.9987 40 25.9043 40 23.2114C40 20.5186 39.1796 18.4574 37.5389 17.0612ZM30.943 30.0266H24.8066V38.4043H22.5751V16.5957H30.943C33.3713 16.5957 35.2746 17.1609 36.5544 18.258C37.8014 19.3218 38.4577 20.984 38.4577 23.2114C38.4577 25.4388 37.8014 27.1343 36.5544 28.2646C35.2418 29.4282 33.3385 30.0266 30.943 30.0266Z" fill="#3F3F3F"/>
<path d="M34.9118 19.8537C34.4852 19.3551 33.8945 18.9561 33.1397 18.6569C32.4178 18.391 31.5318 18.258 30.4489 18.258H24.8047V28.2979H30.4489C31.5318 28.2979 32.4178 28.1649 33.1397 27.9322C33.8945 27.6662 34.4852 27.2673 34.9446 26.7686C35.3712 26.27 35.6665 25.7048 35.8306 25.1064C35.9619 24.5412 36.0603 23.9761 36.0603 23.3777C36.0603 22.7793 35.9947 22.1809 35.8306 21.6157C35.6337 20.9508 35.3384 20.3524 34.9118 19.8537ZM30.4489 26.7354H26.3798V19.8537H30.4489C31.3349 19.8537 32.0568 19.9535 32.6147 20.1529C33.1069 20.3524 33.5007 20.5851 33.7632 20.8843C34.0258 21.1835 34.2226 21.5492 34.3211 21.9482C34.4195 22.4136 34.4852 22.879 34.4852 23.3444C34.4852 23.8099 34.4195 24.2753 34.3211 24.6742C34.2226 25.0399 34.0258 25.4056 33.7632 25.7048C33.5007 26.004 33.1397 26.2367 32.6475 26.4362C32.0897 26.6357 31.3349 26.7354 30.4489 26.7354Z" fill="#3F3F3F"/>
</svg>
