<svg width="19" height="25" viewBox="0 0 19 25" fill="none" xmlns="http://www.w3.org/2000/svg">
<path d="M16.5389 2.06117C14.9637 0.698138 12.7323 0 9.943 0H0V25H5.38169V16.6223H9.943C12.7651 16.6223 14.9965 15.891 16.5717 14.4614C18.1796 12.9987 19 10.9043 19 8.21144C19 5.51862 18.1796 3.45745 16.5389 2.06117ZM9.943 15.0266H3.80656V23.4043H1.57513V1.59574H9.943C12.3713 1.59574 14.2746 2.1609 15.5544 3.25798C16.8014 4.32181 17.4577 5.98404 17.4577 8.21144C17.4577 10.4388 16.8014 12.1343 15.5544 13.2646C14.2418 14.4282 12.3385 15.0266 9.943 15.0266Z" fill="#3F3F3F"/>
<path d="M13.9118 4.85374C13.4852 4.35507 12.8945 3.95613 12.1397 3.65693C11.4178 3.39097 10.5318 3.258 9.4489 3.258H3.80469V13.2979H9.4489C10.5318 13.2979 11.4178 13.1649 12.1397 12.9322C12.8945 12.6662 13.4852 12.2673 13.9446 11.7686C14.3712 11.27 14.6665 10.7048 14.8306 10.1064C14.9619 9.54124 15.0603 8.97608 15.0603 8.37768C15.0603 7.77927 14.9947 7.18087 14.8306 6.61571C14.6337 5.95081 14.3384 5.35241 13.9118 4.85374ZM9.4489 11.7354H5.37982V4.85374H9.4489C10.3349 4.85374 11.0568 4.95347 11.6147 5.15294C12.1069 5.35241 12.5007 5.58512 12.7632 5.88433C13.0258 6.18353 13.2226 6.54922 13.3211 6.94815C13.4195 7.41358 13.4852 7.87901 13.4852 8.34443C13.4852 8.80986 13.4195 9.27528 13.3211 9.67422C13.2226 10.0399 13.0258 10.4056 12.7632 10.7048C12.5007 11.004 12.1397 11.2367 11.6475 11.4362C11.0897 11.6357 10.3349 11.7354 9.4489 11.7354Z" fill="#3F3F3F"/>
</svg>
