<svg width="55" height="55" viewBox="0 0 55 55" fill="none" xmlns="http://www.w3.org/2000/svg">
<g clip-path="url(#clip0_661_8948)">
<path d="M34.549 31.4534C34.1565 31.0228 33.6167 30.7743 33.0442 30.7743C32.5536 30.7743 32.0792 30.9565 31.7357 31.2878L31.0815 31.8841C30.8688 32.0828 30.5744 32.1988 30.28 32.1988C30.2473 32.1988 30.2309 32.1988 30.1982 32.1988C29.8547 32.1822 29.5276 32.0166 29.2986 31.7516L23.7701 25.6232C23.5412 25.3582 23.4103 25.0269 23.4103 24.6791C23.4103 24.3313 23.5575 24.0166 23.8029 23.8012L24.4571 23.205C24.8497 22.8406 25.0787 22.3437 25.095 21.7971C25.1114 21.2671 24.9151 20.7536 24.5553 20.3561L21.1858 16.6128C20.826 16.2319 20.3189 16 19.7955 16C19.3376 16 18.9123 16.1656 18.5852 16.4803L17.7346 17.2588C16.6224 18.2857 15.4611 20.207 16.2789 23.4865C16.9495 26.1863 18.8469 29.2836 21.9055 32.6791L22.1999 32.9938C25.2422 36.4058 28.1046 38.5921 30.7216 39.5031C31.6376 39.8344 32.5208 40 33.355 40C34.7453 40 36.0048 39.5197 36.9862 38.5921L37.8367 37.8137C38.5727 37.1346 38.6218 35.942 37.9348 35.1801L34.549 31.4534ZM23.3612 22.0124L22.707 22.6087C22.1509 23.1222 21.8237 23.8344 21.8074 24.6128C21.7747 25.3913 22.0527 26.1366 22.5761 26.7164L28.1046 32.8447C28.628 33.4244 29.3313 33.7723 30.1001 33.8219C30.1655 33.8219 30.2146 33.8219 30.28 33.8219C30.9833 33.8219 31.654 33.5569 32.1774 33.0766L32.8316 32.4803C32.897 32.4306 32.9788 32.3975 33.0606 32.3975C33.1751 32.3975 33.2896 32.4472 33.3714 32.5466L36.7408 36.2733C36.8389 36.3727 36.8389 36.5217 36.7572 36.6046L35.9066 37.383C35.2033 38.029 34.3364 38.3602 33.3387 38.3602C30.6726 38.3602 27.1396 36.058 23.3776 31.9006L23.0832 31.5859C20.2535 28.4389 18.4379 25.5072 17.8328 23.089C17.3421 21.1014 17.6856 19.5114 18.8141 18.4513L19.6647 17.6729C19.6974 17.6398 19.7465 17.6232 19.7955 17.6232C19.861 17.6232 19.9427 17.6563 19.9918 17.7226L23.3612 21.4493C23.443 21.5321 23.4757 21.648 23.4757 21.7474C23.4757 21.8468 23.4267 21.9462 23.3612 22.0124Z" fill="#3F3F3F"/>
<path d="M27.2031 20.4554C26.7615 20.4554 26.418 20.8198 26.418 21.2505C26.418 21.6811 26.7778 22.0455 27.2031 22.0455C30.7034 22.0455 33.5657 24.9275 33.5657 28.4886C33.5657 28.9358 33.9256 29.2836 34.3508 29.2836C34.7761 29.2836 35.1359 28.9192 35.1359 28.4886C35.1523 24.0662 31.5866 20.4554 27.2031 20.4554Z" fill="#3F3F3F"/>
<path d="M27.0898 17.9544C32.5692 17.9544 37.0182 22.4596 37.0182 28.0083C37.0182 28.4555 37.378 28.8033 37.8033 28.8033C38.2285 28.8033 38.5884 28.4389 38.5884 28.0083C38.5884 21.5818 33.4361 16.3644 27.0898 16.3644C26.6482 16.3644 26.3047 16.7288 26.3047 17.1594C26.3047 17.5901 26.6482 17.9544 27.0898 17.9544Z" fill="#3F3F3F"/>
</g>
<circle cx="27.5" cy="27.5" r="27" stroke="#3F3F3F"/>
<defs>
<clipPath id="clip0_661_8948">
<rect width="22.5882" height="24" fill="white" transform="translate(16 16)"/>
</clipPath>
</defs>
</svg>
