<svg width="55" height="55" viewBox="0 0 55 55" fill="none" xmlns="http://www.w3.org/2000/svg">
<path d="M33.2324 21.2256H21.8492C21.4859 21.2256 21.1953 21.5073 21.1953 21.8593V26.4709C21.1953 26.823 21.4859 27.1046 21.8492 27.1046H33.2324C33.5957 27.1046 33.8863 26.823 33.8863 26.4709V21.8593C33.8863 21.5073 33.5957 21.2256 33.2324 21.2256ZM32.5906 25.8373H22.5032V22.4812H32.5784V25.8373H32.5906Z" fill="#3F3F3F"/>
<path d="M24.3649 19.9698H30.2017C30.565 19.9698 30.8557 19.6881 30.8557 19.3361C30.8557 18.9841 30.565 18.7025 30.2017 18.7025H24.3649C24.0016 18.7025 23.7109 18.9841 23.7109 19.3361C23.7109 19.6881 24.0016 19.9698 24.3649 19.9698Z" fill="#3F3F3F"/>
<path d="M23.2899 29.8264H21.861C21.4977 29.8264 21.207 30.108 21.207 30.4601C21.207 30.8121 21.4977 31.0937 21.861 31.0937H23.2899C23.6532 31.0937 23.9438 30.8121 23.9438 30.4601C23.9438 30.108 23.6532 29.8264 23.2899 29.8264Z" fill="#3F3F3F"/>
<path d="M33.2274 29.8264H31.7985C31.4352 29.8264 31.1445 30.108 31.1445 30.4601C31.1445 30.8121 31.4352 31.0937 31.7985 31.0937H33.2274C33.5907 31.0937 33.8813 30.8121 33.8813 30.4601C33.8813 30.108 33.5907 29.8264 33.2274 29.8264Z" fill="#3F3F3F"/>
<path d="M34.5501 35.4832H36.0396C36.4029 35.4832 36.6935 35.2015 36.6935 34.8495V19.759C36.6935 18.1162 35.1798 17.0718 33.1333 16.4851C33.1696 16.3795 33.1696 16.2622 33.1454 16.1448L32.4309 13.4694C32.3583 13.1878 32.104 13 31.8012 13H24.3659C24.0873 13 23.833 13.176 23.7483 13.4459L22.7795 16.4147C20.3333 17.0249 18.5169 18.1279 18.5169 19.7708V34.8612C18.5169 35.2133 18.8075 35.4949 19.1708 35.4949H20.515L17.1364 39.6606C16.9184 39.9305 16.9668 40.3295 17.2453 40.5407C17.3664 40.6346 17.4996 40.6698 17.645 40.6698C17.8387 40.6698 18.0325 40.5876 18.1536 40.4351L22.1619 35.4949H32.9153L36.8267 40.4351C36.9599 40.5994 37.1416 40.6815 37.3475 40.6815C37.4807 40.6815 37.626 40.6346 37.7471 40.5524C38.0256 40.3412 38.0862 39.9422 37.8682 39.6723L34.5501 35.4832ZM24.8381 14.2556H31.2926L31.8012 16.1683C30.5539 15.9336 29.1855 15.828 27.9019 15.828C26.6667 15.828 25.4073 15.9219 24.2326 16.1096L24.8381 14.2556ZM19.8126 19.759C19.8126 18.832 21.2415 18.0106 23.4213 17.5295C23.4455 17.5295 23.4697 17.5178 23.494 17.5178C24.7655 17.2479 26.2792 17.0836 27.9019 17.0836C32.2372 17.0836 35.3857 18.2101 35.3857 19.759V34.2276H19.8126V19.759Z" fill="#3F3F3F"/>
<circle cx="27.5" cy="27.5" r="27" stroke="#3F3F3F"/>
</svg>
