<svg width="34" height="40" viewBox="0 0 34 40" fill="none" xmlns="http://www.w3.org/2000/svg">
<g clip-path="url(#clip0_780_24373)">
<path d="M33.5612 36.6492C33.0808 35.9217 32.6553 35.1393 32.2298 34.3981C32.0376 34.0686 31.8592 33.7255 31.667 33.396L30.7336 31.7763C30.7473 31.7626 30.7473 31.7626 30.7611 31.7626C30.7885 31.7489 30.8022 31.7352 30.8297 31.7214C32.5455 30.9665 33.424 29.6076 33.424 27.6585C33.424 24.0896 33.424 21.0836 33.424 18.1324C33.424 14.6185 33.424 11.1869 33.424 6.93177C33.3965 2.9786 30.4316 0 26.4922 0C23.3351 0 20.1644 0 17.0073 0C13.8366 0 10.6795 0 7.50874 0C3.58302 0 0.618144 2.9786 0.604418 6.91805C0.604418 10.4182 0.604418 14.742 0.604418 18.5579V22.3327V22.415C0.604418 22.4562 0.604418 22.4974 0.604418 22.5386V23.1974C0.590692 24.8171 0.590691 26.4917 0.63187 28.1389C0.673049 29.6625 1.46917 30.8567 2.92416 31.5842C3.00652 31.6254 3.08887 31.6665 3.18496 31.7077L3.28104 31.7489L3.21241 31.8587C3.15751 31.9548 3.1026 32.0509 3.0477 32.147C2.75944 32.6411 2.47119 33.149 2.18294 33.6431C1.55153 34.7275 0.906396 35.8531 0.274987 36.9649C-0.0269911 37.5002 -0.0956225 38.0904 0.110272 38.6258C0.316166 39.1611 0.755407 39.5729 1.34564 39.7788C1.38682 39.7925 1.42799 39.82 1.46917 39.8337C1.4829 39.8474 1.5378 39.8611 1.5378 39.8611H2.30648C3.03397 39.6141 3.55557 39.1336 3.81637 38.4336C4.15952 37.5414 4.76348 37.3492 5.64196 37.3492H5.68314C9.18334 37.3629 12.9169 37.3767 17.4328 37.3767C20.5899 37.3767 23.7332 37.3767 26.8902 37.3629H29.1276C29.4571 37.3629 29.663 37.4316 29.8002 37.7473C29.8551 37.8845 29.9375 38.0081 30.0061 38.1316C30.0747 38.2277 30.1296 38.3375 30.1846 38.4336C30.5277 39.1611 31.0356 39.6278 31.7219 39.8474H32.4768C33.1906 39.6141 33.6848 39.1885 33.8906 38.5983C34.1103 38.0081 33.9867 37.2943 33.5612 36.6492ZM32.0925 38.5571C31.9415 38.5571 31.7905 38.4748 31.6533 38.3238C31.6121 38.2826 31.5846 38.2277 31.5435 38.1591C30.3767 36.155 29.2237 34.1373 28.057 32.1195C28.0433 32.0921 28.0295 32.0646 28.0158 32.0234C28.0158 32.0097 28.0021 32.0097 28.0021 31.996C28.0158 31.996 28.0158 31.996 28.0158 31.9822C28.0295 31.9822 28.0295 31.9685 28.0295 31.9685C28.2766 31.9548 28.4825 31.9411 28.6472 31.9411C29.2923 31.9411 29.3884 32.1058 29.8963 32.9843C29.8963 32.9843 31.7631 36.2237 32.4082 37.3355C32.4219 37.3629 32.4357 37.3904 32.4631 37.4179C32.518 37.5139 32.5867 37.6237 32.6278 37.7336C32.7514 38.0493 32.6553 38.3101 32.367 38.461C32.2847 38.5297 32.1886 38.5571 32.0925 38.5571ZM2.48492 38.1316C2.45747 38.1865 2.43001 38.2414 2.38883 38.2826C2.25157 38.461 2.08686 38.5571 1.92214 38.5571C1.82606 38.5571 1.72997 38.5297 1.63389 38.4885C1.34564 38.3512 1.24955 38.0355 1.38682 37.7198C1.41427 37.6375 1.46917 37.5688 1.51035 37.5002L2.30648 36.1139C3.03397 34.8648 3.77519 33.5745 4.50268 32.2979C4.61249 32.0921 4.73603 31.9685 4.96937 31.9685C4.99683 31.9685 5.01055 31.9685 5.03801 31.9685C5.14782 31.9822 5.27135 31.9822 5.43607 31.9822C5.53215 31.9822 5.64196 31.9822 5.73805 31.9822C5.83413 31.9822 5.91649 31.9822 6.01257 31.9822C5.99885 32.0097 5.98512 32.0371 5.97139 32.0646C5.93021 32.147 5.90276 32.2019 5.87531 32.2568C4.87329 34 3.85755 35.7432 2.85553 37.4865L2.51237 38.0767L2.48492 38.1316ZM17.0073 1.33145C20.1506 1.33145 23.294 1.33145 26.4373 1.33145C29.7041 1.33145 32.0788 3.7061 32.0788 6.98668C32.0788 11.4203 32.0788 14.5636 32.0788 18.2011V24.021H29.8551C29.3061 22.2229 28.0295 21.3581 25.9431 21.3581H25.8745C23.5136 21.3718 20.9193 21.3855 17.7211 21.3855C16.0465 21.3855 14.3719 21.3855 12.6973 21.3855C11.0227 21.3855 9.34806 21.3855 7.67345 21.3855H7.59109C5.75177 21.3855 4.59877 22.2366 4.04971 23.9935C4.04971 23.9935 4.04971 24.0073 4.03599 24.0073H1.93587C1.93587 24.0073 1.93587 22.7307 1.93587 22.4562C1.93587 22.4562 1.93587 22.113 1.93587 21.9621V17.4873C1.93587 13.9185 1.93587 10.1712 1.93587 7.0004C1.93587 3.7061 4.31051 1.33145 7.57737 1.33145C10.7207 1.33145 13.864 1.33145 17.0073 1.33145ZM26.5745 22.6484V22.6895C27.6589 22.6895 28.5648 23.6092 28.5786 24.6799C28.5786 25.778 27.6864 26.6702 26.5883 26.6839H26.5745C25.4627 26.6839 24.598 25.8191 24.5842 24.721C24.5842 24.172 24.7901 23.6641 25.1607 23.2798C25.5313 22.8954 26.0392 22.6895 26.5745 22.6895V22.6484ZM23.8842 26.6702H10.0206C10.8579 25.3387 10.8579 24.0485 10.0206 22.7307H23.8842C23.4587 23.417 23.2528 24.0484 23.2528 24.7073C23.2528 25.3799 23.4587 25.9976 23.8842 26.6702ZM7.31657 22.6484V22.6895C8.41467 22.6895 9.30688 23.5818 9.30688 24.6799C9.30688 25.778 8.41467 26.6702 7.31657 26.6839C6.21847 26.6839 5.32626 25.8054 5.31253 24.721C5.31253 24.172 5.51843 23.6641 5.90276 23.2798C6.27337 22.8954 6.78124 22.6895 7.31657 22.6895V22.6484ZM2.0594 28.7291C2.0045 28.5644 1.96332 28.3997 1.94959 28.235C1.93587 27.5212 1.93587 26.8349 1.94959 26.1074V25.3936H3.9399C4.04971 25.5721 4.1458 25.7368 4.22816 25.9015C4.43405 26.2858 4.63994 26.6427 4.90074 26.9584C5.51843 27.6859 6.35573 28.0291 7.46756 28.0291H7.48128C8.88136 28.0291 10.2952 28.0291 11.6953 28.0291C12.5737 28.0291 16.1151 28.0291 16.9936 28.0291C17.8858 28.0291 18.778 28.0291 19.6702 28.0153C20.5624 28.0153 21.4546 28.0016 22.3468 28.0016C23.7332 28.0016 24.8588 28.0153 25.9157 28.0428C25.9706 28.0428 26.0255 28.0428 26.0804 28.0428C28.0295 28.0428 29.361 27.0957 29.8414 25.3662H32.0239C32.0239 25.3799 32.0376 25.4074 32.0376 25.4211C32.0513 25.476 32.0651 25.5309 32.0651 25.5721C32.0651 25.7642 32.0651 25.9701 32.0651 26.1623C32.0651 26.7388 32.0788 27.3428 32.0651 27.933C32.0376 29.4429 30.912 30.5822 29.3884 30.6508C29.3198 30.6508 29.2512 30.6508 29.1825 30.6508H16.5406C12.6424 30.6508 8.7441 30.6508 4.83211 30.6508C3.43203 30.6508 2.41629 29.9508 2.04568 28.7428L2.0594 28.7291ZM6.65771 33.5608C6.72634 33.4372 6.79497 33.3137 6.8636 33.1902C7.0695 32.8195 7.27539 32.4627 7.49501 32.1195C7.54992 32.0371 7.75581 31.9822 7.92053 31.9822C9.85593 31.9822 11.7913 31.9822 13.7267 31.9822H20.7958C22.5527 31.9822 24.3097 31.9822 26.0804 31.9822C26.3686 31.9822 26.5059 32.0646 26.6294 32.2979C26.7804 32.6137 26.9589 32.9019 27.151 33.2176C27.2197 33.3274 27.2883 33.451 27.3569 33.5745H6.65771V33.5608ZM5.38116 35.7844C5.53215 35.5099 5.68314 35.2491 5.84786 35.0158C5.88904 34.9608 6.04002 34.9197 6.21847 34.9197C7.54992 34.9197 8.88137 34.9197 10.1991 34.9197H18.4486C21.1938 34.9197 24.447 34.9197 27.6864 34.9059C28.0021 34.9059 28.2217 34.9746 28.359 35.2903C28.4413 35.4824 28.5511 35.6609 28.6609 35.8393C28.7021 35.908 28.7433 35.9766 28.7845 36.0589H5.21645C5.27135 35.9629 5.32626 35.8805 5.38116 35.7844Z" fill="#3F3F3F"/>
<path d="M6.17901 17.1853C7.73008 17.1853 9.28115 17.1853 10.8322 17.1853H23.131C24.7095 17.1853 26.288 17.1853 27.8803 17.1853C29.3078 17.1853 30.1314 16.3617 30.1451 14.9342C30.1451 13.7675 30.1451 12.6007 30.1451 11.4203V10.0614C30.1451 9.73194 30.1451 9.41624 30.1451 9.08681C30.1451 8.33186 30.1451 7.54946 30.1314 6.78079C30.1176 5.62778 29.3078 4.7493 28.2234 4.6944H28.2097H28.1822C28.1273 4.6944 28.0862 4.6944 28.0312 4.6944H28.0038C27.8803 4.6944 27.7567 4.6944 27.6332 4.6944C27.4685 4.6944 27.3038 4.6944 27.139 4.70812H6.17901C4.69657 4.70812 3.88672 5.51797 3.88672 7.00041C3.88672 9.63586 3.88672 12.2576 3.88672 14.893C3.88672 16.3892 4.68284 17.1853 6.17901 17.1853ZM28.7999 14.8518C28.7999 15.6342 28.5803 15.8539 27.8116 15.8539H6.20646C5.42406 15.8539 5.20444 15.6342 5.20444 14.8518C5.20444 12.2439 5.20444 9.64959 5.20444 7.04159C5.20444 6.21801 5.41034 6.01212 6.26137 6.01212H27.1116C27.1939 6.01212 27.2763 6.01212 27.3449 6.01212C27.4273 6.01212 27.7842 6.01212 27.7842 6.01212H27.8665C28.5803 6.02585 28.7999 6.25919 28.7999 7.00041C28.8136 9.62213 28.8136 12.2439 28.7999 14.8518Z" fill="#3F3F3F"/>
</g>
<defs>
<clipPath id="clip0_780_24373">
<rect width="34" height="39.8886" fill="white"/>
</clipPath>
</defs>
</svg>
