<svg width="32" height="26" viewBox="0 0 32 26" fill="none" xmlns="http://www.w3.org/2000/svg">
<g clip-path="url(#clip0_660_8422)">
<path d="M15.9966 25.6C14.9289 25.6 13.9247 25.1914 13.1748 24.4432C12.4248 23.7014 12.0117 22.7081 12.0117 21.6519C12.0117 20.5957 12.4248 19.6024 13.1811 18.8605C13.9311 18.1187 14.9353 17.7037 16.003 17.7037C17.0707 17.7037 18.0749 18.1124 18.8248 18.8605C19.5748 19.6024 19.9942 20.5957 19.9942 21.6519C19.9942 22.7081 19.5811 23.7014 18.8248 24.4432C18.0685 25.1914 17.0644 25.6 15.9966 25.6ZM16.003 19.1183C15.3166 19.1183 14.6747 19.3823 14.1917 19.8601C13.7086 20.3379 13.4417 20.9729 13.4417 21.6519C13.4417 22.3308 13.7086 22.9658 14.1917 23.4436C14.6747 23.9214 15.3166 24.1855 16.003 24.1855C16.6894 24.1855 17.3313 23.9214 17.8143 23.4436C18.8121 22.4566 18.8121 20.8472 17.8143 19.8538C17.3313 19.3823 16.683 19.1183 16.003 19.1183Z" fill="black"/>
<path d="M22.1477 16.7104C21.957 16.7104 21.7791 16.635 21.6456 16.503C20.1394 15.013 18.1374 14.1957 16.0019 14.1957C13.8665 14.1957 11.8581 15.013 10.3582 16.503C10.2248 16.635 10.0468 16.7104 9.85615 16.7104C9.66548 16.7104 9.48753 16.635 9.35406 16.503L6.35426 13.5356C6.2208 13.4035 6.14453 13.2275 6.14453 13.0389C6.14453 12.8503 6.2208 12.6743 6.35426 12.5422C8.92824 9.99608 12.3602 8.59412 16.0083 8.59412C19.6627 8.59412 23.0883 9.99608 25.6623 12.5422C25.7958 12.6743 25.872 12.8503 25.872 13.0389C25.872 13.2275 25.7958 13.4035 25.6623 13.5356L22.6625 16.503C22.5227 16.635 22.3384 16.7104 22.1477 16.7104ZM15.9956 12.7811C18.1946 12.7811 20.2538 13.5041 21.938 14.8684L22.1286 15.0193L24.1243 13.0452L23.9018 12.8566C21.7028 11.0083 18.8937 9.99608 15.9956 9.99608C13.0975 9.99608 10.2883 11.0145 8.08932 12.8566L7.86687 13.0452L9.8625 15.0193L10.0532 14.8684C11.7437 13.5041 13.7966 12.7811 15.9956 12.7811Z" fill="black"/>
<path d="M28.2884 10.6436C28.0977 10.6436 27.9198 10.5682 27.7863 10.4361C24.6467 7.33045 20.4584 5.61415 16.0032 5.61415C11.548 5.61415 7.36604 7.32416 4.22006 10.4361C4.08659 10.5682 3.90864 10.6436 3.71797 10.6436C3.52731 10.6436 3.34935 10.5682 3.21589 10.4361L0.209732 7.46876C0.0762661 7.33674 0 7.16071 0 6.9721C0 6.7835 0.0762661 6.60747 0.209732 6.47544C4.42979 2.2947 10.0354 0 15.9968 0C21.9646 0 27.5702 2.2947 31.7903 6.46915C31.9237 6.60118 32 6.77721 32 6.96582C32 7.15442 31.9237 7.33045 31.7903 7.46247L28.7905 10.4361C28.657 10.5682 28.4727 10.6436 28.2884 10.6436ZM16.0032 4.20589C20.4838 4.20589 24.7738 5.8279 28.0914 8.77642L28.282 8.94617L30.2777 6.9721L30.0679 6.7835C26.2228 3.31945 21.2274 1.40825 16.0095 1.40825C10.7789 1.40825 5.78352 3.31945 1.93843 6.78978L1.7287 6.97839L3.72433 8.95245L3.91499 8.78271C7.22622 5.8279 11.5225 4.20589 16.0032 4.20589Z" fill="black"/>
</g>
<defs>
<clipPath id="clip0_660_8422">
<rect width="32" height="25.6" fill="white"/>
</clipPath>
</defs>
</svg>
