<svg width="55" height="55" viewBox="0 0 55 55" fill="none" xmlns="http://www.w3.org/2000/svg">
<g clip-path="url(#clip0_661_8947)">
<path d="M27.7487 38C26.8312 38 25.9682 37.6488 25.3237 37.0059C24.6792 36.3684 24.3242 35.5147 24.3242 34.6071C24.3242 33.6994 24.6792 32.8458 25.3292 32.2082C25.9737 31.5707 26.8366 31.2141 27.7542 31.2141C28.6718 31.2141 29.5347 31.5653 30.1792 32.2082C30.8237 32.8458 31.1842 33.6994 31.1842 34.6071C31.1842 35.5147 30.8292 36.3684 30.1792 37.0059C29.5293 37.6488 28.6663 38 27.7487 38ZM27.7542 32.4298C27.1643 32.4298 26.6127 32.6567 26.1976 33.0673C25.7825 33.4779 25.5531 34.0236 25.5531 34.6071C25.5531 35.1906 25.7825 35.7362 26.1976 36.1469C26.6127 36.5575 27.1643 36.7844 27.7542 36.7844C28.3441 36.7844 28.8957 36.5575 29.3108 36.1469C30.1683 35.2986 30.1683 33.9155 29.3108 33.0619C28.8957 32.6567 28.3386 32.4298 27.7542 32.4298Z" fill="black"/>
<path d="M33.034 30.3605C32.8701 30.3605 32.7172 30.2957 32.6025 30.1822C31.3081 28.9018 29.5876 28.1994 27.7524 28.1994C25.9173 28.1994 24.1914 28.9018 22.9024 30.1822C22.7877 30.2957 22.6348 30.3605 22.4709 30.3605C22.3071 30.3605 22.1541 30.2957 22.0394 30.1822L19.4615 27.6321C19.3468 27.5187 19.2812 27.3674 19.2812 27.2053C19.2812 27.0432 19.3468 26.8919 19.4615 26.7785C21.6735 24.5904 24.6229 23.3856 27.7579 23.3856C30.8984 23.3856 33.8423 24.5904 36.0543 26.7785C36.169 26.8919 36.2346 27.0432 36.2346 27.2053C36.2346 27.3674 36.169 27.5187 36.0543 27.6321L33.4764 30.1822C33.3562 30.2957 33.1978 30.3605 33.034 30.3605ZM27.747 26.9838C29.6368 26.9838 31.4064 27.6051 32.8537 28.7775L33.0176 28.9072L34.7326 27.2107L34.5414 27.0486C32.6517 25.4602 30.2375 24.5904 27.747 24.5904C25.2564 24.5904 22.8423 25.4656 20.9526 27.0486L20.7614 27.2107L22.4764 28.9072L22.6402 28.7775C24.0931 27.6051 25.8572 26.9838 27.747 26.9838Z" fill="black"/>
<path d="M38.3103 25.1469C38.1465 25.1469 37.9935 25.082 37.8788 24.9686C35.1807 22.2996 31.5814 20.8247 27.7527 20.8247C23.924 20.8247 20.3302 22.2942 17.6266 24.9686C17.5119 25.082 17.359 25.1469 17.1951 25.1469C17.0313 25.1469 16.8784 25.082 16.7637 24.9686L14.1802 22.4185C14.0655 22.305 14 22.1537 14 21.9917C14 21.8296 14.0655 21.6783 14.1802 21.5648C17.8069 17.972 22.6241 16 27.7473 16C32.8759 16 37.6931 17.972 41.3198 21.5594C41.4345 21.6729 41.5 21.8242 41.5 21.9862C41.5 22.1483 41.4345 22.2996 41.3198 22.4131L38.7418 24.9686C38.6271 25.082 38.4687 25.1469 38.3103 25.1469ZM27.7527 19.6144C31.6033 19.6144 35.29 21.0083 38.141 23.5422L38.3049 23.6881L40.0199 21.9917L39.8396 21.8296C36.5353 18.8527 32.2423 17.2102 27.7582 17.2102C23.2632 17.2102 18.9702 18.8527 15.6658 21.835L15.4856 21.9971L17.2006 23.6935L17.3644 23.5476C20.21 21.0083 23.9022 19.6144 27.7527 19.6144Z" fill="black"/>
</g>
<circle cx="27.5" cy="27.5" r="27" stroke="#3F3F3F"/>
<defs>
<clipPath id="clip0_661_8947">
<rect width="27.5" height="22" fill="white" transform="translate(14 16)"/>
</clipPath>
</defs>
</svg>
