<svg width="32" height="34" viewBox="0 0 32 34" fill="none" xmlns="http://www.w3.org/2000/svg">
<g clip-path="url(#clip0_780_25333)">
<path d="M13.4805 18.077C15.2866 17.6829 23.4303 15.8769 23.4303 15.8769C23.7586 15.8112 24.0706 15.7291 24.4154 15.6634L24.793 15.5813C24.793 15.7291 24.793 15.8604 24.793 16.0082C24.793 16.4023 24.793 16.7963 24.793 17.1739C24.8258 18.1426 25.4662 18.783 26.4349 18.783C26.8453 18.783 27.2558 18.783 27.6663 18.783C28.126 18.783 29.1932 18.783 29.1932 18.783C30.244 18.783 30.8843 18.1262 30.9008 17.0754C30.9008 16.2217 30.9008 15.2694 30.9008 14.3335C30.9008 14.1693 30.95 14.0872 31.0814 13.9723C31.7874 13.4469 32.0993 12.7245 31.968 11.8871C31.7874 10.7378 30.8843 9.98256 29.6693 9.98256C27.3215 9.98256 24.9736 9.98256 22.6257 9.98256H14.5642C14.5313 9.83479 14.5149 9.68702 14.4985 9.53925C14.4328 9.1452 14.3836 8.76757 14.2358 8.4392C14.0388 7.94664 13.579 7.66752 12.873 7.63469C12.873 7.40482 12.873 7.17496 12.873 6.9451V6.92868C12.873 6.27193 12.8566 5.64803 12.8895 5.0077C12.9059 4.63007 13.1029 4.26886 13.4805 3.97332C13.7596 3.75988 14.1044 3.66137 14.5642 3.66137C16.206 3.66137 17.8643 3.66137 19.5062 3.66137H19.654C21.1809 3.66137 22.7078 3.66137 24.2348 3.66137C24.8587 3.66137 25.3348 3.48076 25.696 3.10313C26.2378 2.52848 26.3692 1.87173 26.0901 1.14931C25.8274 0.459723 25.1542 0 24.3825 0C23.3153 0 22.2317 0 21.1645 0H17.2568H17.1747C17.1583 0 17.1255 0 17.1091 0H15.615C14.5477 0 13.2999 0 12.1014 0C10.3281 0 9.0639 0 8.25939 0.0164187C6.35482 0.049256 4.74579 1.64187 4.6637 3.54643C4.63086 4.43304 4.63086 5.33607 4.63086 6.18984V6.22268C4.63086 6.60031 4.63086 6.99436 4.63086 7.37199V7.63469C4.08905 7.68394 3.67858 7.86455 3.39946 8.19292C3.10392 8.53771 2.95616 9.01385 3.00541 9.57209C3.02183 9.78553 3.02183 9.96614 3.00541 10.1303C2.98899 10.2124 2.93974 10.2945 2.9069 10.3273C2.06955 10.8527 1.6755 11.6244 1.6755 12.6588C1.69192 15.4171 1.6755 18.1919 1.6755 20.8846V24.4802C0.78889 24.7265 0.476935 25.1698 0.476935 26.1221V26.2206C0.476935 26.3027 0.476935 26.3848 0.476935 26.4833C0.493354 26.6311 0.460517 26.6968 0.312749 26.7624C0.115724 26.861 -0.015625 27.058 -0.015625 27.2714C-0.015625 27.4849 0.0993058 27.6819 0.312749 27.7804C0.460517 27.8461 0.476935 27.9282 0.476935 28.1088C0.476935 28.5192 0.476935 28.9133 0.476935 29.3238C0.476935 30.1119 0.476935 30.9328 0.460517 31.7373C0.444098 32.6239 0.78889 33.1657 1.59341 33.4284H12.0357H12.0521H12.0685C12.8238 33.1329 13.1522 32.5747 13.1193 31.688C13.0865 30.9985 13.1029 30.2925 13.1029 29.6029C13.1029 29.3073 13.1029 28.9954 13.1029 28.6998V27.8789C13.5298 27.7804 13.6119 27.5013 13.6119 27.2714C13.6119 26.8938 13.3328 26.746 13.0865 26.6804V26.6639C13.1193 25.7445 13.1522 24.8086 12.0028 24.4967V23.9877C12.0028 22.9697 12.0028 21.098 12.0028 20.6711C12.0028 20.4905 12.0028 20.3263 12.0028 20.1457C12.0028 20.0472 12.0028 19.9323 12.0028 19.8338C12.0521 18.8815 12.5447 18.274 13.4805 18.077ZM29.6858 17.2068C29.6858 17.4366 29.5544 17.568 29.3081 17.568C28.9141 17.568 28.52 17.568 28.126 17.568C27.5678 17.568 27.0095 17.568 26.402 17.568C26.1722 17.568 26.0408 17.4531 26.0408 17.2232C26.0244 16.665 26.0244 16.0739 26.0408 15.4171C26.0408 15.3843 26.0901 15.3186 26.1229 15.3022C27.1901 15.0559 28.2738 14.8261 29.3246 14.5962L29.7186 14.5141V15.2037C29.6858 15.8604 29.6858 16.5336 29.6858 17.2068ZM11.9208 31.8851C11.9208 32.1806 11.8879 32.2134 11.576 32.2134H4.64728H2.05313C1.9382 32.2134 1.82327 32.2134 1.75759 32.1478C1.72476 32.1149 1.70834 32.0657 1.70834 31.9672C1.70834 31.9672 1.70834 28.7655 1.70834 27.9282V27.9118H11.9043C11.9043 27.9446 11.9208 27.9938 11.9208 28.0267C11.9208 29.3238 11.9208 30.6044 11.9208 31.8851ZM11.4775 25.6952C11.9208 25.6952 11.9208 25.6952 11.9208 26.155V26.6804H9.03107C7.9146 26.6804 6.79813 26.6804 5.68166 26.6804C4.45026 26.6804 3.21886 26.6804 1.98745 26.6804C1.8561 26.6804 1.77401 26.6639 1.74117 26.6311C1.70834 26.5983 1.69192 26.5162 1.69192 26.4012V26.352C1.70834 25.7281 1.70834 25.7281 2.36508 25.7281L11.4775 25.6952V25.646V25.6952ZM10.8864 19.2591C10.8371 19.686 10.8371 20.0965 10.8371 20.5562C10.8371 20.589 10.8371 20.6054 10.8371 20.6383C10.8371 20.8189 10.8371 22.2801 10.8371 23.1503V23.9713C10.8371 24.431 10.8043 24.4638 10.361 24.4638C8.02953 24.4638 5.69808 24.4638 3.36662 24.4638C2.95616 24.4638 2.9069 24.431 2.9069 24.0205C2.9069 20.2114 2.9069 16.3858 2.9069 12.5767C2.9069 12.4454 2.9069 12.2976 2.93974 12.1498C3.08751 11.5423 3.58007 11.1975 4.31891 11.1975C12.676 11.1975 29.5708 11.1975 29.5708 11.1975H29.7186C29.7679 11.1975 29.8171 11.1975 29.85 11.1975C30.2933 11.2304 30.6381 11.5095 30.753 11.9364C30.8187 12.1991 30.8022 12.4618 30.6709 12.6752C30.5067 12.9379 30.2112 13.1349 29.8007 13.217L13.0701 16.9277C11.9043 17.1904 11.0341 18.1098 10.8864 19.2591ZM12.7253 8.86609C13.185 8.86609 13.2835 8.9646 13.2835 9.42432C13.2835 9.57209 13.2835 9.70344 13.2835 9.86763V9.96614H4.25323C4.25323 9.90046 4.25323 9.85121 4.25323 9.78553C4.25323 9.57209 4.23681 9.37506 4.26965 9.17804C4.28607 8.9646 4.41742 8.86609 4.69654 8.86609H5.09058C5.48463 8.86609 7.55339 8.86609 7.55339 8.86609H10.246H12.7253ZM11.6581 7.12571V7.61827H5.86226C5.86226 7.58543 5.86226 7.55259 5.86226 7.51975V7.12571C5.86226 6.02565 5.86226 4.89277 5.86226 3.79271C5.86226 3.59569 5.87868 3.41508 5.91152 3.26732C6.17422 2.05233 7.19218 1.21498 8.44 1.21498C9.52363 1.21498 11.3461 1.21498 12.7909 1.21498H15.7135C16.2389 1.21498 16.715 1.21498 17.0926 1.21498C17.1255 1.21498 17.1583 1.21498 17.1912 1.21498C17.2076 1.21498 17.3389 1.21498 17.3553 1.21498H24.1363H24.284C24.3333 1.21498 24.3825 1.21498 24.4482 1.2314C24.7437 1.26424 24.9736 1.52694 24.99 1.82247C25.0064 2.11801 24.8094 2.36429 24.5139 2.42996C24.3825 2.4628 24.2512 2.4628 24.1198 2.4628H18.8987C17.4374 2.4628 15.9598 2.4628 14.4985 2.4628C13.0536 2.4628 11.9536 3.34941 11.6909 4.71216C11.6416 4.95844 11.6416 5.20472 11.6416 5.451V5.59877C11.6581 6.10775 11.6581 6.61673 11.6581 7.12571Z" fill="black"/>
<path d="M31.3623 26.7296L31.3459 26.6311C31.2966 26.3848 31.231 26.1385 31.1489 25.9087C30.6071 24.5788 30.0324 23.2324 29.4906 21.9189L28.7517 20.1293C28.5711 19.7024 28.2756 19.489 27.8487 19.489C27.4383 19.489 27.1427 19.686 26.9785 20.0636C26.7487 20.6219 26.5024 21.1801 26.2725 21.7383C25.665 23.1668 25.0411 24.628 24.4829 26.1057C23.9575 27.4849 24.3023 28.8148 25.4188 29.8656C26.1248 30.5223 26.9129 30.8507 27.7666 30.8507C28.2428 30.8507 28.7517 30.7358 29.2443 30.5223C30.5906 29.9477 31.3295 28.8476 31.428 27.255C31.428 27.2058 31.4116 27.1401 31.4116 27.0908C31.4116 26.9759 31.3952 26.8446 31.3623 26.7296ZM27.7995 29.6193C27.2576 29.6193 26.7651 29.4223 26.3054 29.0118C25.5173 28.3222 25.271 27.452 25.6158 26.5654C26.1248 25.2191 26.6666 23.9384 27.2412 22.5593L27.2576 22.51C27.4547 22.0503 27.6517 21.5906 27.8487 21.1144C27.8651 21.1309 27.8651 21.1637 27.8816 21.1801L28.3905 22.3951C28.9159 23.6593 29.4578 24.9564 29.9996 26.2535C30.525 27.5177 30.016 28.8805 28.8174 29.3894C28.4726 29.5536 28.1278 29.6193 27.7995 29.6193Z" fill="black"/>
</g>
<defs>
<clipPath id="clip0_780_25333">
<rect width="32" height="33.4284" fill="white"/>
</clipPath>
</defs>
</svg>
