<svg width="55" height="55" viewBox="0 0 55 55" fill="none" xmlns="http://www.w3.org/2000/svg">
<circle cx="27.5" cy="27.5" r="27" stroke="#3F3F3F"/>
<g clip-path="url(#clip0_661_8979)">
<path d="M37.2808 18.0317L37.234 18H19.5166L19.4698 18.0238C19.0643 18.2377 18.9629 18.4278 19.0175 18.8794C19.0409 19.0695 19.0721 19.2676 19.0955 19.4577C19.1111 19.5528 19.1267 19.6478 19.1345 19.7429L19.579 22.9355C19.9065 25.2647 20.2262 27.5859 20.5538 29.915C20.8267 31.8639 21.0996 33.8127 21.3804 35.7695C21.5441 36.9183 21.7079 38.067 21.8639 39.2157C21.9496 39.8178 22.1602 40 22.7606 40H33.7327C34.6061 40 34.7464 39.8732 34.8634 38.978C35.035 37.7342 35.2065 36.4746 35.3859 35.2546C35.4561 34.7793 35.5184 34.3118 35.5886 33.8365L37.0001 23.7911C37.0625 23.3713 37.1171 22.9593 37.1717 22.5394C37.3354 21.359 37.507 20.139 37.6785 18.9427C37.7487 18.5149 37.6161 18.2139 37.2808 18.0317ZM21.4116 26.255C21.3726 25.9539 21.3258 25.6529 21.279 25.3439C21.279 25.3439 21.279 25.3439 21.2868 25.3439C21.6377 25.2092 21.9886 25.1458 22.3395 25.1458C22.7139 25.1458 23.096 25.2251 23.4703 25.3756C23.9148 25.5578 24.4918 25.7875 25.1001 25.9698C25.451 26.0727 25.8175 26.1282 26.1918 26.1282C26.7533 26.1282 27.3538 26.0094 28.0322 25.7717C28.2272 25.7004 28.4143 25.6291 28.6015 25.5578C28.851 25.4627 29.1083 25.3597 29.3657 25.2805C29.6074 25.2013 29.8648 25.1617 30.1143 25.1617C30.4418 25.1617 30.7928 25.233 31.1437 25.3597L31.3776 25.4469C31.8923 25.6449 32.4304 25.843 32.9606 26.0094C33.2882 26.1124 33.6157 26.1599 33.9822 26.1599C34.3877 26.1599 34.8322 26.0965 35.3391 25.9618L33.5455 38.5898H23.1506L23.1272 38.4393C23.0882 38.1858 23.0492 37.9323 23.018 37.6709C22.7606 35.8408 22.5033 34.0108 22.246 32.1808C22.09 31.0954 21.9418 30.0101 21.7859 28.9247L21.4116 26.255ZM35.5964 24.2031C35.573 24.3695 35.5496 24.4091 35.4015 24.4566C34.9414 24.6309 34.4813 24.7101 34.029 24.7101C33.5065 24.7101 32.9762 24.5913 32.446 24.3615C31.8611 24.108 31.3308 23.9258 30.8395 23.8149C30.6212 23.7674 30.395 23.7436 30.1611 23.7436C29.4593 23.7436 28.8042 23.9654 28.3129 24.1635C27.7203 24.4012 27.19 24.5675 26.7143 24.6784C26.5428 24.718 26.3634 24.7418 26.184 24.7418C25.7473 24.7418 25.295 24.6309 24.7102 24.3932C24.2501 24.2031 23.7588 24.005 23.2441 23.8624C22.9634 23.7832 22.6749 23.7515 22.3785 23.7515C21.9808 23.7515 21.5597 23.8228 21.123 23.9575C21.1152 23.9575 21.1074 23.9654 21.0918 23.9654L20.4446 19.3864H36.2515L36.2281 19.5528C36.1891 19.8538 36.1501 20.1469 36.1033 20.448C36.0565 20.7886 36.0097 21.1293 35.9629 21.4699C35.8382 22.3731 35.7134 23.292 35.5964 24.2031Z" fill="#3F3F3F"/>
</g>
<defs>
<clipPath id="clip0_661_8979">
<rect width="18.7" height="22" fill="white" transform="translate(19 18)"/>
</clipPath>
</defs>
</svg>
