<svg width="21" height="24" viewBox="0 0 21 24" fill="none" xmlns="http://www.w3.org/2000/svg">
<path d="M20.6407 4.59946C20.0152 4.01817 19.3825 3.42961 18.7714 2.85559C17.88 2.01998 16.9525 1.15531 16.0395 0.312443C15.8454 0.138056 15.5506 0.0145322 15.2918 0.0145322C13.8755 0.00726612 12.4089 0 10.8129 0C9.80636 0 8.7711 0 7.63519 0.00726612C6.02478 0.0145322 4.96795 1.07539 4.95357 2.7248C4.95357 2.94278 4.95357 3.16803 4.95357 3.39328C4.95357 3.46594 4.95357 3.53134 4.95357 3.604C4.74508 3.604 4.53659 3.604 4.3281 3.61126C4.09085 3.61126 3.85361 3.61853 3.62355 3.61853C3.30003 3.61853 3.02684 3.61126 2.77521 3.604C2.73207 3.604 2.69613 3.604 2.65299 3.604C1.92687 3.604 1.26545 3.87284 0.776581 4.36694C0.273329 4.88283 -0.00705439 5.60945 0.000134926 6.40145C0.0432708 11.4296 0.0432708 16.4069 0.000134926 21.188C-0.00705439 21.9728 0.273329 22.6921 0.78377 23.2153C1.27983 23.7239 1.97001 24 2.73207 24H2.76802C4.01896 23.9855 5.39212 23.9782 7.0888 23.9782C7.95871 23.9782 8.82861 23.9782 9.69133 23.9782C10.5612 23.9782 11.4311 23.9782 12.2939 23.9782C12.5383 23.9782 12.7899 23.9782 13.0344 23.9782C13.2716 23.9782 13.5448 23.9709 13.8108 23.9055C14.997 23.6222 15.7519 22.6412 15.7735 21.3479C15.7807 21.1008 15.7735 20.861 15.7735 20.6067C15.7735 20.5341 15.7735 20.4541 15.7735 20.3815C16.0251 20.3815 16.2624 20.3815 16.5068 20.3815C16.78 20.3815 17.046 20.3815 17.312 20.3815C17.6427 20.3815 17.9734 20.3815 18.2969 20.3815C19.9217 20.3669 20.9786 19.2988 20.9786 17.6567C20.9786 16.0291 20.9786 14.4087 20.9786 12.7811C20.9786 10.3688 20.9786 7.86921 20.9857 5.41326C21.0001 5.08629 20.8851 4.83197 20.6407 4.59946ZM15.7879 19.1535V16.6249C15.7879 14.1689 15.7879 11.6258 15.7951 9.12625C15.7951 8.73388 15.6728 8.44323 15.3925 8.17439C13.9618 6.83015 12.4808 5.40599 10.9782 3.96004C10.7194 3.70572 10.439 3.59673 10.0796 3.59673H10.058C9.59068 3.604 9.07305 3.604 8.4332 3.604C8.10249 3.604 7.77897 3.604 7.44826 3.604C7.11756 3.604 6.79404 3.604 6.46333 3.604H6.18295C6.18295 3.48774 6.17576 3.37875 6.17576 3.26249C6.16857 2.93551 6.16138 2.63034 6.19013 2.33243C6.26203 1.7366 6.78685 1.24251 7.36918 1.23524C8.3685 1.22797 9.46127 1.22071 10.8201 1.22071C11.503 1.22071 12.186 1.22071 12.8762 1.22071C13.5304 1.22071 14.1847 1.22071 14.8461 1.22071C14.8461 1.36603 14.8461 1.51862 14.8461 1.66394C14.8461 2.09991 14.8461 2.55041 14.8533 2.98638C14.8533 3.04451 14.8533 3.09537 14.8533 3.1535C14.8533 3.45141 14.8604 3.76385 14.918 4.0545C15.1049 4.97729 15.8957 5.63124 16.8375 5.64578C17.1754 5.65304 17.5421 5.65304 17.995 5.65304C18.225 5.65304 18.4623 5.65304 18.6924 5.65304C18.9224 5.65304 19.1597 5.65304 19.3897 5.65304H19.8067V9.10445C19.8067 11.931 19.8067 14.7575 19.8067 17.584C19.8067 18.6158 19.2891 19.139 18.2754 19.139C17.9519 19.139 17.6283 19.139 17.3048 19.139L15.7879 19.1535ZM1.21513 6.36512C1.21513 5.36966 1.73276 4.83924 2.70332 4.83924C3.60917 4.83924 4.50783 4.83924 5.41369 4.83924C6.45614 4.83924 7.49859 4.83924 8.54104 4.83924H9.35343C9.42533 4.83924 9.50441 4.8465 9.59068 4.8465C9.60506 4.8465 9.61225 4.8465 9.62663 4.8465V5.53678C9.62663 6.11807 9.62663 6.68483 9.62663 7.24432C9.63382 8.71208 10.4606 9.55495 11.9056 9.55495C12.2507 9.55495 12.5958 9.55495 12.9481 9.55495H14.5657V12.9119C14.5657 15.6876 14.5657 18.4632 14.5657 21.2389C14.5657 22.2489 14.0552 22.7648 13.0416 22.7648C11.2874 22.7648 9.53317 22.7648 7.78616 22.7648C6.11105 22.7648 4.44313 22.7648 2.76802 22.7648C1.73995 22.7648 1.22232 22.2416 1.22232 21.2171C1.21513 16.2688 1.21513 11.3206 1.21513 6.36512ZM13.5017 8.32698C13.1925 8.32698 12.8906 8.32698 12.5814 8.32698C12.2795 8.32698 12.0063 8.32698 11.7619 8.31971C11.1651 8.31244 10.8416 7.98547 10.8416 7.37511C10.8416 6.91008 10.8416 6.44505 10.8416 5.95095C10.8416 5.8129 10.8416 5.66758 10.8416 5.52225L13.7749 8.31971L13.5017 8.32698ZM18.2682 4.4396C18.0525 4.4396 17.844 4.44687 17.6427 4.44687C17.312 4.44687 17.046 4.4396 16.8016 4.43233C16.4133 4.4178 16.1114 4.13442 16.0898 3.77838C16.0611 3.32062 16.0683 2.87012 16.0754 2.38329C16.0754 2.25976 16.0754 2.13624 16.0826 2.01272L18.678 4.4396C18.5342 4.4396 18.4048 4.4396 18.2682 4.4396Z" fill="#0066B3"/>
</svg>
