<svg width="15" height="16" viewBox="0 0 15 16" fill="none" xmlns="http://www.w3.org/2000/svg">
<g clip-path="url(#clip0_780_21710)">
<path d="M13.2331 14.797H1.20301V12.9925C1.20301 12.6316 0.962406 12.391 0.601504 12.391C0.240601 12.391 0 12.6316 0 12.9925V15.3985C0 15.7594 0.240601 16 0.601504 16H13.8346C14.1955 16 14.4361 15.7594 14.4361 15.3985V12.9925C14.4361 12.6316 14.1955 12.391 13.8346 12.391C13.4737 12.391 13.2331 12.6316 13.2331 12.9925V14.797Z" fill="#3F3F3F"/>
<path d="M11.4292 7.57895C11.3089 7.45865 11.1886 7.45865 11.0683 7.45865C10.948 7.45865 10.8277 7.45865 10.7074 7.57895L7.82021 10.4662V0.601504C7.82021 0.240601 7.57961 0 7.21871 0C6.8578 0 6.6172 0.240601 6.6172 0.601504V10.4662L3.85028 7.57895C3.72998 7.45865 3.48938 7.45865 3.36908 7.45865C3.24878 7.45865 3.12848 7.45865 3.00818 7.57895C2.88788 7.69925 2.76758 7.81955 2.76758 7.93985C2.76758 8.06015 2.88788 8.18045 2.88788 8.30075L6.7375 12.1504C6.8578 12.2707 6.9781 12.2707 7.09841 12.2707C7.21871 12.2707 7.33901 12.2707 7.45931 12.1504L11.4292 8.42105C11.5495 8.30075 11.5495 8.18045 11.5495 8.06015C11.6698 7.81955 11.5495 7.69925 11.4292 7.57895Z" fill="#3F3F3F"/>
</g>
<defs>
<clipPath id="clip0_780_21710">
<rect width="14.4361" height="16" fill="white"/>
</clipPath>
</defs>
</svg>
