<svg width="20" height="21" viewBox="0 0 20 21" fill="none" xmlns="http://www.w3.org/2000/svg">
<g clip-path="url(#clip0_295_6452)">
<path d="M19.6029 8.26179V5.75615C19.6029 4.86973 19.2703 4.04963 18.6668 3.44726C18.0644 2.84379 17.2465 2.51221 16.3612 2.51221H3.56005C1.70542 2.51221 0.307258 3.91258 0.306152 5.77052V14.2214C0.306152 15.7422 1.21136 16.9436 2.58742 17.3548H16.3435L17.4002 17.3515C17.7737 17.231 18.1086 17.0453 18.4159 16.7955C18.5087 16.7502 18.5695 16.6916 18.6988 16.5645C18.7817 16.4849 18.848 16.4032 18.8724 16.3534C19.3753 15.7135 19.6162 14.9851 19.6074 14.1285C19.6007 12.1722 19.6018 10.1849 19.6029 8.26179ZM3.24505 4.20105C3.35226 4.18336 3.47052 4.17452 3.60426 4.17452H16.2993C16.433 4.17452 16.5535 4.18558 16.6663 4.20879L16.706 4.34142C15.7732 5.26984 10.7454 10.2966 10.7465 10.2955C10.227 10.8116 9.68099 10.8105 9.16373 10.2966L3.20194 4.33368L3.24505 4.20105ZM1.96184 14.3153C1.95742 14.2689 1.95521 14.2236 1.95521 14.1794L1.95299 5.83352C1.95299 5.70089 1.96515 5.5771 1.98947 5.45221L2.17626 5.41021C2.5012 5.73736 3.37547 6.61163 3.81094 7.046L4.06405 7.2991C4.8521 8.08715 5.74405 8.98021 6.58626 9.77379L6.60947 9.81136L6.59289 9.91415C5.58268 10.9188 2.66147 13.8423 2.13868 14.3673L1.96184 14.3153ZM16.9072 15.7466C16.7149 15.8129 16.5115 15.845 16.2838 15.845H6.8692H3.63852C3.39757 15.845 3.20305 15.8096 3.03394 15.7334L3.01294 15.6007C3.6761 14.942 6.07563 12.5369 6.08115 12.5303L6.11873 12.4916C6.59068 12.0208 7.07699 11.5334 7.6042 11.0415L7.79873 11.047C7.88163 11.1333 7.96784 11.2173 8.06068 11.3079L8.19331 11.4372C8.67741 11.9147 9.30189 12.1766 9.95178 12.1766C10.5984 12.1766 11.2195 11.9169 11.7047 11.4449C11.8606 11.2902 12.0054 11.1487 12.1623 11.0017L12.3535 11.0039C13.6898 12.3468 15.0935 13.7516 16.5215 15.1785L16.937 15.6096L16.9072 15.7466ZM17.7892 14.3452C17.7693 14.3219 17.7505 14.3009 17.7317 14.281L13.3792 9.92852L13.5384 9.59805C14.6094 8.53258 17.1802 5.96173 17.7373 5.40468L17.9229 5.44779C17.9461 5.56605 17.9561 5.68984 17.9561 5.82026L17.9583 14.2943L17.7892 14.3452Z" fill="white"/>
</g>
<defs>
<clipPath id="clip0_295_6452">
<rect width="19.8947" height="21" fill="white"/>
</clipPath>
</defs>
</svg>
