<?xml version="1.0" encoding="utf-8"?>
<!-- Generator: Adobe Illustrator 23.0.6, SVG Export Plug-In . SVG Version: 6.00 Build 0)  -->
<svg version="1.1" id="Layer_1" xmlns="http://www.w3.org/2000/svg" xmlns:xlink="http://www.w3.org/1999/xlink" x="0px" y="0px"
	 viewBox="0 0 43 44" style="enable-background:new 0 0 43 44;" xml:space="preserve">
<style type="text/css">
	.st0{fill:#E6E6E6;}
	.st1{fill:#3F3F3F;}
</style>
<g>
	<g>
		<path class="st0" d="M21.4,43.2C9.7,43.2,0.2,33.7,0.2,22c0-11.7,9.5-21.3,21.3-21.3S42.7,10.3,42.7,22
			C42.7,33.7,33.1,43.2,21.4,43.2z M21.4,1.7C10.3,1.7,1.2,10.8,1.2,22s9.1,20.3,20.3,20.3c11.2,0,20.3-9.1,20.3-20.3
			S32.6,1.7,21.4,1.7z"/>
	</g>
	<path class="st1" d="M30,22L30,22C30,22,30,22,30,22c0-2.2-0.8-4.1-2-5.7c0,0,0,0,0,0c0-0.1-0.1-0.1-0.1-0.2c-1.6-1.8-3.9-3-6.4-3
		c0,0,0,0,0,0c0,0,0,0,0,0c0,0,0,0,0,0c-2.6,0-4.9,1.2-6.5,3.1c0,0,0,0-0.1,0.1c0,0,0,0,0,0c-1.3,1.5-2,3.5-2,5.7c0,0,0,0,0,0v0v0
		c0,2.2,0.8,4.1,2,5.7c0,0,0,0,0,0c0,0.1,0.1,0.1,0.1,0.1c1.6,1.8,3.9,3,6.4,3c0,0,0,0,0,0c0,0,0,0,0,0c0,0,0,0,0,0
		c2.6,0,4.9-1.2,6.5-3.1c0,0,0,0,0,0c0,0,0,0,0,0C29.2,26.1,30,24.1,30,22L30,22z M27.4,26.7c-0.5-0.3-1.1-0.5-1.7-0.7
		c0.3-1,0.5-2.2,0.5-3.5H29C28.9,24.1,28.3,25.5,27.4,26.7z M13.9,22.5h2.7c0,1.3,0.2,2.4,0.5,3.5c-0.6,0.2-1.2,0.4-1.7,0.7
		C14.5,25.5,14,24.1,13.9,22.5z M15.4,17.3c0.5,0.3,1.1,0.5,1.7,0.7c-0.3,1-0.5,2.2-0.5,3.5h-2.7C14,19.9,14.5,18.4,15.4,17.3z
		 M20.9,18.6v2.8h-3.3c0-1.1,0.2-2.2,0.5-3.2C19,18.5,19.9,18.6,20.9,18.6z M18.4,17.3c0.6-1.6,1.5-2.7,2.5-2.9v3.2
		C20.1,17.5,19.2,17.4,18.4,17.3z M20.9,22.5v2.8c-1,0-1.9,0.2-2.8,0.4c-0.3-1-0.4-2.1-0.5-3.2H20.9z M20.9,26.4v3.3
		c-1-0.3-1.9-1.4-2.5-3C19.2,26.5,20.1,26.4,20.9,26.4z M21.9,25.3v-2.8h3.3c0,1.1-0.2,2.2-0.5,3.2C23.9,25.5,22.9,25.4,21.9,25.3z
		 M24.4,26.7c-0.6,1.6-1.5,2.7-2.5,2.9v-3.2C22.8,26.4,23.6,26.5,24.4,26.7z M21.9,21.5v-2.8c1,0,1.9-0.2,2.8-0.4
		c0.3,1,0.4,2.1,0.5,3.2H21.9z M21.9,17.6v-3.3c1,0.3,1.9,1.4,2.5,3C23.6,17.4,22.8,17.5,21.9,17.6z M24.2,14.8
		c0.9,0.4,1.8,1,2.5,1.7c-0.4,0.2-0.8,0.4-1.3,0.5C25.1,16.1,24.7,15.4,24.2,14.8z M17.5,17c-0.5-0.2-0.9-0.3-1.3-0.5
		c0.7-0.7,1.6-1.3,2.5-1.6C18.2,15.4,17.8,16.1,17.5,17z M17.4,27c0.3,0.9,0.7,1.6,1.2,2.2c-0.9-0.4-1.8-1-2.5-1.7
		C16.5,27.3,17,27.1,17.4,27z M25.4,27c0.5,0.2,0.9,0.3,1.3,0.5c-0.7,0.7-1.6,1.3-2.5,1.6C24.7,28.6,25.1,27.8,25.4,27z M26.2,21.5
		c0-1.3-0.2-2.4-0.5-3.5c0.6-0.2,1.2-0.4,1.7-0.7c0.9,1.2,1.5,2.6,1.6,4.2H26.2z"/>
</g>
</svg>
