<svg width="43" height="44" viewBox="0 0 43 44" fill="none" xmlns="http://www.w3.org/2000/svg">
<circle cx="21.2625" cy="22.2377" r="20.2625" fill="white" stroke="#4989F5" stroke-width="2"/>
<g clip-path="url(#clip0_693_12928)">
<path d="M29.4837 18.6056H13.8035C13.4309 18.6056 13.1289 18.9076 13.1289 19.2802V30.6645C13.1289 31.037 13.4309 31.3391 13.8035 31.3391H29.4837C29.8563 31.3391 30.1583 31.037 30.1583 30.6645V19.2802C30.1583 18.9076 29.8563 18.6056 29.4837 18.6056Z" fill="#4989F5"/>
<path d="M29.2852 18.51H13.9798C13.5057 18.51 13.1367 22.1793 13.1367 22.6534L21.5184 31.3391H29.2852C29.7608 31.3378 30.146 30.9526 30.1473 30.4771V19.3719C30.1459 18.8964 29.7607 18.5113 29.2852 18.51Z" fill="url(#paint0_linear_693_12928)"/>
<path d="M17.0156 20.7381H21.8812V14.3522H17.7442L17.0156 20.7381Z" fill="#3C4BA6"/>
<path d="M26.7484 20.7381H21.8828V14.3522H26.0198L26.7484 20.7381ZM30.1583 15.5627L30.1643 15.5845C30.1628 15.5768 30.1599 15.5697 30.1583 15.5627Z" fill="#7BABF7"/>
<path d="M30.164 15.5842L30.158 15.5625C30.0037 14.8561 29.3785 14.3524 28.6555 14.3519H26.0195L26.7475 20.7381H31.6131L30.164 15.5842Z" fill="#3F51B5"/>
<path d="M13.6056 15.5626L13.5996 15.5831C13.6011 15.5759 13.6039 15.5692 13.6056 15.5626Z" fill="#7BABF7"/>
<path d="M13.6004 15.5842L13.6064 15.5625C13.7607 14.8561 14.3859 14.3524 15.1089 14.3519H17.745L17.0159 20.7381H12.1504L13.6004 15.5842Z" fill="#7BABF7"/>
<path fill-rule="evenodd" clip-rule="evenodd" d="M17.0249 20.7365C17.0249 22.0793 15.9363 23.1679 14.5935 23.1679C13.2507 23.1679 12.1621 22.0793 12.1621 20.7365H17.0249Z" fill="#709BE0"/>
<path fill-rule="evenodd" clip-rule="evenodd" d="M21.8882 20.7365C21.8882 22.0793 20.7996 23.1679 19.4568 23.1679C18.114 23.1679 17.0254 22.0793 17.0254 20.7365H21.8882Z" fill="#3C4BA6"/>
<path fill-rule="evenodd" clip-rule="evenodd" d="M26.7495 20.7365C26.7495 22.0793 25.6609 23.1679 24.3181 23.1679C22.9753 23.1679 21.8867 22.0793 21.8867 20.7365H26.7495Z" fill="#709BE0"/>
<path fill-rule="evenodd" clip-rule="evenodd" d="M31.6128 20.7365C31.6128 22.0793 30.5242 23.1679 29.1814 23.1679C27.8386 23.1679 26.75 22.0793 26.75 20.7365H31.6128Z" fill="#3C4BA6"/>
<path d="M29.1819 27.3237C29.1733 27.2079 29.1591 27.1022 29.1388 26.9672H26.4865C26.4865 27.3382 26.4865 27.743 26.485 28.1141H28.0215C27.9889 28.2871 27.9224 28.4519 27.8259 28.5991C27.7293 28.7463 27.6047 28.8729 27.4591 28.9718C27.4591 28.9718 27.4591 28.9654 27.458 28.9652C27.2699 29.0887 27.058 29.1714 26.836 29.2079C26.6135 29.2486 26.3853 29.2477 26.1631 29.205C25.9375 29.1583 25.7239 29.0657 25.5355 28.933C25.2575 28.7359 25.0431 28.4619 24.9185 28.1446C24.909 28.12 24.9003 28.0951 24.8913 28.0698V28.0671L24.8937 28.0653C24.7728 27.7105 24.7725 27.3257 24.8928 26.9707C24.9775 26.7217 25.1169 26.4948 25.3008 26.3067C25.7323 25.8604 26.3769 25.6926 26.9712 25.8717C27.1991 25.9416 27.4073 26.0642 27.5791 26.2295L28.0974 25.7111C28.1889 25.6188 28.2838 25.5293 28.3718 25.4338C28.109 25.1887 27.8004 24.9976 27.4638 24.8716C26.8512 24.6494 26.181 24.6435 25.5646 24.8549C25.5431 24.8622 25.5218 24.8699 25.5006 24.8778C24.8356 25.1278 24.2885 25.6181 23.9674 26.2518C23.854 26.4762 23.7714 26.7148 23.7219 26.9612C23.4283 28.4203 24.3186 29.8566 25.7561 30.2427C26.226 30.3685 26.7256 30.3654 27.1991 30.2579C27.6294 30.1607 28.0273 29.954 28.3541 29.6577C28.695 29.344 28.9394 28.9261 29.0674 28.4821C29.1745 28.1059 29.2133 27.7136 29.1819 27.3237Z" fill="white"/>
</g>
<defs>
<linearGradient id="paint0_linear_693_12928" x1="13.1367" y1="24.9244" x2="30.1471" y2="24.9244" gradientUnits="userSpaceOnUse">
<stop offset="0.03" stop-color="#4079D8"/>
<stop offset="1" stop-color="#4989F5"/>
</linearGradient>
<clipPath id="clip0_693_12928">
<rect width="19.4622" height="17.01" fill="white" transform="translate(12.1504 14.3406)"/>
</clipPath>
</defs>
</svg>
