<svg width="43" height="43" viewBox="0 0 43 43" fill="none" xmlns="http://www.w3.org/2000/svg">
<circle cx="21.2625" cy="21.5234" r="21.2625" fill="url(#paint0_linear_693_12893)"/>
<path d="M21.2641 10.1938C16.6192 10.1938 12.2085 9.78093 10.5238 14.1013C9.82789 15.8856 9.92895 18.203 9.92895 21.5212C9.92895 24.433 9.83556 27.1696 10.5238 28.9399C12.2047 33.2628 16.6512 32.8487 21.2615 32.8487C25.7094 32.8487 30.2954 33.3114 32.0005 28.9399C32.6977 27.1377 32.5954 24.8548 32.5954 21.5212C32.5954 17.0961 32.8397 14.2393 30.6919 12.0945C28.5172 9.92154 25.5763 10.1938 21.259 10.1938H21.2641ZM20.2484 12.2351C29.9372 12.2197 31.1703 11.1435 30.4898 26.0947C30.248 31.3826 26.2185 30.8023 21.2654 30.8023C12.2341 30.8023 11.9744 30.5441 11.9744 21.5161C11.9744 12.3834 12.6908 12.2402 20.2484 12.2325V12.2351ZM27.3148 14.1153C26.5639 14.1153 25.955 14.7237 25.955 15.4741C25.955 16.2244 26.5639 16.8328 27.3148 16.8328C28.0657 16.8328 28.6746 16.2244 28.6746 15.4741C28.6746 14.7237 28.0657 14.1153 27.3148 14.1153ZM21.2641 15.7041C18.0494 15.7041 15.4436 18.3091 15.4436 21.5212C15.4436 24.7334 18.0494 27.3371 21.2641 27.3371C24.4788 27.3371 27.0832 24.7334 27.0832 21.5212C27.0832 18.3091 24.4788 15.7041 21.2641 15.7041ZM21.2641 17.7454C26.2594 17.7454 26.2658 25.2971 21.2641 25.2971C16.27 25.2971 16.2623 17.7454 21.2641 17.7454Z" fill="white"/>
<defs>
<linearGradient id="paint0_linear_693_12893" x1="2.85519" y1="40.0154" x2="42.2574" y2="5.90654" gradientUnits="userSpaceOnUse">
<stop stop-color="#FFDD55"/>
<stop offset="0.5" stop-color="#FF543E"/>
<stop offset="1" stop-color="#C837AB"/>
</linearGradient>
</defs>
</svg>
