<svg width="43" height="44" viewBox="0 0 43 44" fill="none" xmlns="http://www.w3.org/2000/svg">
<circle cx="21.2625" cy="21.8154" r="21.2625" fill="#55ACEE"/>
<path d="M31.9192 16.2768C31.1523 16.6254 30.3158 16.8345 29.4792 16.9739C30.3855 16.4162 31.0129 15.5797 31.3615 14.6037C30.5249 15.0917 29.6186 15.4402 28.6427 15.6494C27.8061 14.7431 26.6907 14.2551 25.5056 14.2551C23.1353 14.2551 21.1834 16.2071 21.1834 18.5773C21.1834 18.9259 21.2531 19.2745 21.3228 19.5533C17.7674 19.3442 14.5606 17.6711 12.4692 15.022C12.1207 15.6494 11.9115 16.4162 11.9115 17.1831C11.9115 18.647 12.6784 19.9716 13.7938 20.7384C13.0967 20.7384 12.3995 20.5293 11.8418 20.2504V20.3202C11.8418 22.4115 13.3058 24.1544 15.2578 24.5029C14.9092 24.5726 14.4909 24.6424 14.1423 24.6424C13.8635 24.6424 13.5846 24.6424 13.3058 24.5726C13.8635 26.2458 15.4669 27.5006 17.2794 27.5703C15.8155 28.7554 13.9332 29.3828 11.9812 29.3828C11.6327 29.3828 11.2841 29.3828 10.9355 29.3131C12.8178 30.4982 15.1183 31.2651 17.4886 31.2651C25.3662 31.2651 29.6884 24.7121 29.6884 19.0653C29.6884 18.8562 29.6884 18.7168 29.6884 18.5076C30.5946 17.8802 31.3615 17.1134 31.9192 16.2768Z" fill="white"/>
</svg>
