<svg width="43" height="43" viewBox="0 0 43 43" fill="none" xmlns="http://www.w3.org/2000/svg">
<circle cx="21.2625" cy="21.5266" r="21.2625" fill="#33E0A1"/>
<g clip-path="url(#clip0_693_12904)">
<path d="M34.9664 17.0761C35.3376 15.5295 36.4511 14.0448 36.4511 14.0448H31.3783C28.5326 12.1889 25.0682 11.1991 21.2327 11.1991C17.2734 11.1991 13.6854 12.1889 10.8397 14.0448H6.07617C6.07617 14.0448 7.18971 15.5295 7.56089 17.0761L7.80835 17.2617C6.81853 18.5608 6.1999 20.1693 6.1999 21.9015C6.1999 25.9845 9.54052 29.3251 13.6235 29.3251C16.098 29.3251 18.2633 28.1497 19.6243 26.2938L19.6861 26.3556L21.2946 28.7683L22.903 26.3556L22.9649 26.2938C24.3259 28.1497 26.4911 29.3251 28.9656 29.3251C33.0486 29.3251 36.3892 25.9845 36.3892 21.9015C36.3892 20.1693 35.7706 18.5608 34.7808 17.2617L34.9664 17.0761ZM13.6235 28.0878C10.221 28.0878 7.43717 25.304 7.43717 21.9015C7.43717 18.499 10.221 15.7151 13.6235 15.7151C17.026 15.7151 19.8099 18.499 19.8099 21.9015C19.8099 25.304 17.026 28.0878 13.6235 28.0878ZM21.2946 21.0354C20.9853 17.138 17.8302 14.0448 13.871 13.983C16.0362 13.055 18.5726 12.5601 21.2946 12.5601C24.0166 12.5601 26.4911 13.055 28.6563 14.0448C27.8521 14.0448 27.0479 14.2304 26.2436 14.4779C24.3259 15.1584 22.7793 16.5812 21.9751 18.4371C21.542 19.2413 21.3564 20.1074 21.2946 21.0354ZM35.0901 21.8396C35.0901 25.2421 32.3063 28.0259 28.9038 28.0259C25.5013 28.0259 22.7174 25.2421 22.7174 21.8396C22.7174 18.4371 25.5013 15.6533 28.9038 15.6533C32.3063 15.6533 35.0901 18.4371 35.0901 21.8396Z" fill="#3F3F3F"/>
<path d="M13.6239 25.5514C11.5824 25.5514 9.91211 23.8811 9.91211 21.8396C9.91211 19.7981 11.5824 18.1278 13.6239 18.1278C15.6654 18.1278 17.3357 19.7981 17.3357 21.8396C17.2739 23.8811 15.6035 25.5514 13.6239 25.5514ZM13.6239 19.4269C12.2629 19.4269 11.1494 20.5405 11.1494 21.9015C11.1494 23.2625 12.2629 24.376 13.6239 24.376C14.9849 24.376 16.0985 23.2625 16.0985 21.9015C16.0985 20.5405 14.923 19.4269 13.6239 19.4269Z" fill="#3F3F3F"/>
<path d="M13.624 23.1387C14.3073 23.1387 14.8613 22.5848 14.8613 21.9015C14.8613 21.2181 14.3073 20.6642 13.624 20.6642C12.9407 20.6642 12.3867 21.2181 12.3867 21.9015C12.3867 22.5848 12.9407 23.1387 13.624 23.1387Z" fill="#3F3F3F"/>
<path d="M28.9032 25.5514C26.8617 25.5514 25.1914 23.8811 25.1914 21.8396C25.1914 19.7981 26.8617 18.1278 28.9032 18.1278C30.9447 18.1278 32.615 19.7981 32.615 21.8396C32.615 23.8811 30.9447 25.5514 28.9032 25.5514ZM28.9032 19.4269C27.5422 19.4269 26.4287 20.5405 26.4287 21.9015C26.4287 23.2625 27.5422 24.376 28.9032 24.376C30.2642 24.376 31.3777 23.2625 31.3777 21.9015C31.3777 20.5405 30.2642 19.4269 28.9032 19.4269Z" fill="#3F3F3F"/>
<path d="M28.9033 23.0768C29.5866 23.0768 30.1406 22.5229 30.1406 21.8396C30.1406 21.1562 29.5866 20.6023 28.9033 20.6023C28.22 20.6023 27.666 21.1562 27.666 21.8396C27.666 22.5229 28.22 23.0768 28.9033 23.0768Z" fill="#3F3F3F"/>
</g>
<defs>
<clipPath id="clip0_693_12904">
<rect width="30.3749" height="18.126" fill="white" transform="translate(6.07617 11.1991)"/>
</clipPath>
</defs>
</svg>
