<svg width="43" height="44" viewBox="0 0 43 44" fill="none" xmlns="http://www.w3.org/2000/svg">
<circle cx="21.2625" cy="22.108" r="21.2625" fill="#F52424"/>
<path fill-rule="evenodd" clip-rule="evenodd" d="M28.6319 15.1085C29.4971 15.3465 30.1793 16.0435 30.4122 16.9275C30.8448 18.5426 30.8282 21.9086 30.8282 21.9086C30.8282 21.9086 30.8282 25.2577 30.4122 26.8727C30.1793 27.7567 29.4971 28.4537 28.6319 28.6918C27.0512 29.1168 20.7285 29.1168 20.7285 29.1168C20.7285 29.1168 14.4225 29.1168 12.8252 28.6748C11.96 28.4367 11.2778 27.7397 11.0449 26.8557C10.6289 25.2577 10.6289 21.8916 10.6289 21.8916C10.6289 21.8916 10.6289 18.5426 11.0449 16.9275C11.2778 16.0435 11.9766 15.3295 12.8252 15.0915C14.4059 14.6665 20.7285 14.6665 20.7285 14.6665C20.7285 14.6665 27.0512 14.6665 28.6319 15.1085ZM18.7153 18.7975L23.9731 21.8915L18.7153 24.9856V18.7975Z" fill="white"/>
</svg>
