<svg width="26" height="20" viewBox="0 0 26 20" fill="none" xmlns="http://www.w3.org/2000/svg">
<path d="M22.7246 0H3.27539C1.46631 0 0 1.46631 0 3.27539V10.645C0 12.4541 1.46631 13.9204 3.27539 13.9204H22.7246C24.5337 13.9204 26 12.4541 26 10.645V3.27539C26 1.46631 24.5337 0 22.7246 0ZM20.2173 12.3843H5.78271V12.1558C5.78271 11.21 6.55078 10.4419 7.49658 10.4419H18.5034C19.4492 10.4419 20.2173 11.21 20.2173 12.1558V12.3843ZM24.4639 10.645C24.4639 11.6035 23.6831 12.3843 22.7246 12.3843H21.7534V12.1558C21.7534 10.3657 20.2935 8.90576 18.5034 8.90576H7.49658C5.70654 8.90576 4.24658 10.3657 4.24658 12.1558V12.3843H3.27539C2.31689 12.3843 1.53613 11.6035 1.53613 10.645V3.27539C1.53613 2.31689 2.31689 1.53613 3.27539 1.53613H22.7246C23.6831 1.53613 24.4639 2.31689 24.4639 3.27539V10.645Z" fill="#3F3F3F"/>
<path d="M21.8042 2.91992H20.8267C20.4014 2.91992 20.0586 3.2627 20.0586 3.68799C20.0586 4.11328 20.4014 4.45606 20.8267 4.45606H21.8042C22.2295 4.45606 22.5723 4.11328 22.5723 3.68799C22.5723 3.2627 22.2295 2.91992 21.8042 2.91992Z" fill="#3F3F3F"/>
<path d="M18.1157 2.91992H17.1382C16.7129 2.91992 16.3701 3.2627 16.3701 3.68799C16.3701 4.11328 16.7129 4.45606 17.1382 4.45606H18.1157C18.541 4.45606 18.8838 4.11328 18.8838 3.68799C18.8838 3.2627 18.541 2.91992 18.1157 2.91992Z" fill="#3F3F3F"/>
<path d="M12.9995 14.6948C12.5742 14.6948 12.2314 15.0376 12.2314 15.4629V19.0747C12.2314 19.5 12.5742 19.8428 12.9995 19.8428C13.4248 19.8428 13.7676 19.5 13.7676 19.0747V15.4629C13.7676 15.0376 13.4248 14.6948 12.9995 14.6948Z" fill="#3F3F3F"/>
<path d="M17.4502 18.3067C16.7393 18.3067 16.1553 17.729 16.1553 17.0117V15.4629C16.1553 15.0376 15.8125 14.6948 15.3872 14.6948C14.9619 14.6948 14.6191 15.0376 14.6191 15.4629V17.0117C14.6191 18.5733 15.8887 19.8428 17.4438 19.8428C17.8691 19.8428 18.2119 19.5 18.2119 19.0747C18.2183 18.6494 17.8755 18.3067 17.4502 18.3067Z" fill="#3F3F3F"/>
<path d="M10.6074 14.6948C10.1821 14.6948 9.83936 15.0376 9.83936 15.4629V17.0117C9.83936 17.7227 9.26172 18.3067 8.54443 18.3067C8.11914 18.3067 7.77637 18.6494 7.77637 19.0747C7.77637 19.5 8.11914 19.8428 8.54443 19.8428C10.106 19.8428 11.3755 18.5733 11.3755 17.0117V15.4629C11.3755 15.0376 11.0327 14.6948 10.6074 14.6948Z" fill="#3F3F3F"/>
</svg>
