<svg width="25" height="25" viewBox="0 0 25 25" fill="none" xmlns="http://www.w3.org/2000/svg">
<g clip-path="url(#clip0_986_2823)">
<path d="M0.649279 22.0449C0.796859 22.0449 0.973954 21.9858 1.12153 21.8972C1.44621 21.6903 1.77088 21.513 2.09556 21.3357L2.21362 21.2766C2.27266 21.247 2.30217 21.247 2.3612 21.247C2.42024 21.247 2.47927 21.2766 2.56782 21.3061C2.77443 21.4243 2.98104 21.5426 3.21717 21.6903C3.60087 21.9267 3.98458 22.0449 4.36829 22.0449C4.752 22.0449 5.1357 21.9267 5.48989 21.6903C5.66699 21.5721 5.84409 21.4835 6.0507 21.3652L6.13924 21.3357C6.22779 21.2766 6.31634 21.247 6.40489 21.247C6.49344 21.247 6.58198 21.2766 6.67053 21.3357L6.75908 21.3652C6.93618 21.4835 7.14279 21.5721 7.31988 21.6903C7.67407 21.9267 8.05778 22.0449 8.44149 22.0449C8.79568 22.0449 9.17939 21.9267 9.53358 21.7199C9.71067 21.6312 9.85825 21.513 10.0353 21.4243L10.2124 21.3357C10.301 21.2766 10.3895 21.247 10.4781 21.247C10.5666 21.247 10.6552 21.2766 10.7437 21.3357L10.9208 21.4243C11.0684 21.513 11.1865 21.5721 11.3045 21.6608C11.6882 21.9267 12.1015 22.0449 12.5147 22.0449C12.9279 22.0449 13.3116 21.9267 13.7248 21.6608C13.8134 21.6017 13.9019 21.5426 14.02 21.4834C14.079 21.4539 14.1676 21.3948 14.2266 21.3652C14.3447 21.3061 14.4332 21.2766 14.5218 21.2766C14.6103 21.2766 14.6989 21.3061 14.8169 21.3652C14.994 21.4539 15.1416 21.5721 15.3482 21.6608L15.5253 21.779C15.8795 21.9858 16.2337 22.0745 16.5584 22.0745C16.9126 22.0745 17.2668 21.9563 17.6209 21.7494C17.8571 21.6017 18.0932 21.4834 18.2998 21.3357C18.3884 21.2766 18.4769 21.247 18.5359 21.247C18.6245 21.247 18.6835 21.2766 18.7721 21.3061C18.9196 21.3948 19.0967 21.4835 19.2443 21.5721L19.5395 21.7494C19.8642 21.9563 20.2183 22.0449 20.5725 22.0449C20.9267 22.0449 21.2809 21.9267 21.6351 21.7199L21.7532 21.6608C21.9008 21.5721 22.0779 21.4539 22.2254 21.3652C22.3435 21.2766 22.4616 21.247 22.5501 21.247C22.6387 21.247 22.7272 21.2766 22.8158 21.3061C22.9338 21.3652 23.0519 21.4539 23.1995 21.5426C23.4061 21.6608 23.6422 21.8085 23.8783 21.9267C23.9964 21.9858 24.144 22.0154 24.262 22.0154C24.3506 22.0154 24.4686 21.9858 24.5277 21.9563C24.6753 21.8972 24.7638 21.7494 24.8524 21.6017C24.8819 21.5721 24.8819 21.5426 24.9114 21.513L25.0295 21.3357L24.9114 21.1584C24.8819 21.1288 24.8524 21.0697 24.8228 21.0402C24.7638 20.9515 24.6753 20.8333 24.5867 20.7742C24.2325 20.5378 23.8488 20.3014 23.4651 20.0946C23.229 19.9764 22.9928 19.8877 22.7567 19.8582V17.169H22.9338C23.4061 17.169 23.8193 16.9917 24.1145 16.6962C24.3801 16.4303 24.5277 16.0461 24.5277 15.6324C24.5277 14.7459 23.8488 14.1253 22.9043 14.1253H21.4285C20.9267 14.1253 20.3954 14.1253 19.8937 14.1253C19.7756 14.1253 19.7166 14.0957 19.6575 13.9775C19.2738 13.357 18.8606 12.7069 18.4474 12.0863C17.9456 11.2884 17.4143 10.461 16.9126 9.66312C16.6764 9.30851 16.4403 9.16076 15.9976 9.16076C15.5548 9.16076 15.1121 9.16076 14.6694 9.16076C14.4332 9.16076 13.1936 9.16076 12.8098 9.16076V6.20567H13.1345C13.2231 6.20567 13.3411 6.20567 13.4592 6.20567C13.7839 6.20567 14.02 6.05792 14.1086 5.76241C14.1971 5.49645 14.1086 5.2305 13.8429 5.02364L11.7473 3.36879C11.7473 3.36879 8.88423 1.12293 7.67407 0.177305C7.49698 0.0591017 7.3494 0 7.20182 0C7.05424 0 6.90666 0.0591016 6.72956 0.206856L0.590247 5.05319C0.324604 5.26005 0.236056 5.526 0.324604 5.79196C0.413152 6.08747 0.649279 6.23522 1.00347 6.23522C1.12153 6.23522 1.21008 6.23522 1.32815 6.23522H1.65282V20.0059C1.56427 20.0355 1.47573 20.065 1.38718 20.0946C1.00347 20.3014 0.649279 20.5378 0.324604 20.7447C0.117992 20.8629 -7.1764e-05 21.0402 -0.0295877 21.247C-0.0591037 21.4243 -7.17565e-05 21.6017 0.117992 21.779C0.295088 21.9563 0.472183 22.0449 0.649279 22.0449ZM12.8098 10.4314H14.3742C14.8169 10.4314 15.2597 10.4314 15.7319 10.4314C15.85 10.4314 15.909 10.461 15.9681 10.5792C16.3813 11.2589 16.824 11.909 17.2372 12.5887L17.2668 12.6478C17.7685 13.4161 18.2408 14.1844 18.713 14.9527C18.9197 15.2778 19.1558 15.396 19.569 15.396C20.0708 15.396 20.5725 15.396 21.1038 15.396C21.4875 15.396 22.9043 15.396 22.9043 15.396C23.0224 15.396 23.1404 15.4255 23.1995 15.4846C23.229 15.5142 23.2585 15.6028 23.2585 15.6619C23.2585 15.8392 23.1404 15.9279 22.9633 15.9279C22.373 15.9279 21.8122 15.9279 21.2219 15.9279C20.4545 15.9279 19.6575 15.9279 18.8901 15.9279C18.8606 15.9279 18.8016 15.8688 18.7721 15.8097C17.798 14.273 16.9126 12.8842 16.0271 11.4953C15.791 11.1111 15.5253 10.9634 15.1416 10.9634H15.0826C14.7579 10.9634 14.4037 10.9634 14.079 10.9634C13.8429 10.9634 13.6068 10.9634 13.3707 10.9634H12.8394V10.4314H12.8098ZM12.7803 14.0366V12.2045H13.6953C14.1086 12.2045 14.5218 12.2045 14.9055 12.2045C14.935 12.2045 14.994 12.2636 15.0235 12.3227C15.9681 13.7707 16.883 15.2187 17.7685 16.6667C17.9751 17.0213 18.2408 17.169 18.6245 17.169H18.654C19.0377 17.169 19.3919 17.169 19.7756 17.169C19.9822 17.169 21.399 17.169 21.399 17.169C21.399 17.6714 21.399 19.3558 21.399 20.1537C21.3695 20.1537 21.3695 20.1832 21.34 20.1832C21.1333 20.3014 20.9267 20.4492 20.7201 20.5674C20.6316 20.6265 20.543 20.656 20.484 20.656C20.3954 20.656 20.3364 20.6265 20.2479 20.5969C20.1003 20.5083 19.9232 20.4196 19.7461 20.331L19.4805 20.1832C19.1558 19.9764 18.8016 19.8877 18.4474 19.8877C18.0932 19.8877 17.739 20.0059 17.3848 20.2128C17.2668 20.2719 16.7355 20.5969 16.7355 20.5969C16.6469 20.656 16.5289 20.6856 16.4403 20.6856C16.3518 20.6856 16.2632 20.656 16.1747 20.5969L15.909 20.4492C15.7614 20.3605 15.6139 20.2719 15.4663 20.1832C15.1121 19.9764 14.7579 19.8582 14.4037 19.8582C14.0495 19.8582 13.6658 19.9764 13.3116 20.1832C13.1345 20.3014 12.9279 20.4196 12.7508 20.5378C12.7803 18.8534 12.7803 16.1939 12.7803 14.0366ZM8.38246 20.065V20.6265C8.29391 20.6265 8.20536 20.5969 8.11681 20.5378C8.02826 20.4787 7.96923 20.4492 7.85117 20.3605C7.73311 20.3014 7.61504 20.2423 7.52649 20.1537C7.1723 19.9173 6.7886 19.7991 6.40489 19.7991C6.28682 19.7991 6.19828 19.7991 6.0507 19.8286V17.8783C6.0507 17.1099 6.0507 16.7258 6.0507 15.8392C6.0507 15.2187 6.58198 14.7163 7.23133 14.7163C7.88069 14.7163 8.38246 15.2187 8.38246 15.8097C8.38246 17.169 8.38246 19.2671 8.38246 20.065ZM11.5111 20.1832C11.157 19.9764 10.7732 19.8582 10.4191 19.8582C10.1534 19.8582 9.88777 19.9173 9.65164 20.0355V18.0851C9.65164 17.0804 9.65164 16.9326 9.65164 15.8983C9.65164 14.8936 9.00229 14.0071 8.05778 13.6525C7.79214 13.5638 7.49698 13.5047 7.20182 13.5047C6.52295 13.5047 5.8736 13.8002 5.40135 14.3026C4.98812 14.7754 4.78151 15.3073 4.78151 15.9574V20.4787L4.60442 20.5674C4.51587 20.6265 4.42732 20.6265 4.33877 20.6265C4.25022 20.6265 4.16168 20.5969 4.07313 20.5378L3.89603 20.4196C3.74845 20.331 3.57136 20.2423 3.42378 20.1241C3.24668 20.0059 3.06959 19.9468 2.89249 19.8877V6.23522H11.5111V20.1832ZM6.96569 1.6253C7.08376 1.53664 7.20182 1.44799 7.23133 1.44799C7.26085 1.44799 7.37891 1.53664 7.49698 1.6253L11.6882 4.90544H2.77443L6.96569 1.6253Z" fill="#3F3F3F"/>
<path d="M24.7936 23.9953C24.7346 23.9066 24.6461 23.7884 24.5575 23.7293C24.2033 23.4929 23.8196 23.2565 23.4359 23.0496C23.1407 22.9019 22.8161 22.8132 22.5209 22.8132C22.1372 22.8132 21.783 22.9314 21.3993 23.1678C21.1927 23.286 20.9861 23.4338 20.7795 23.552C20.6909 23.6111 20.6024 23.6407 20.5433 23.6407C20.4548 23.6407 20.3958 23.6111 20.3072 23.5816C20.1596 23.4929 19.9825 23.4043 19.8054 23.3156L19.5398 23.1678C19.2151 22.961 18.8609 22.8723 18.5067 22.8723C18.1525 22.8723 17.7984 22.9905 17.4442 23.1974C17.3261 23.2565 16.9424 23.4929 16.8243 23.5816L16.7948 23.6111C16.7063 23.6702 16.5882 23.6998 16.4997 23.6998C16.4111 23.6998 16.3226 23.6702 16.234 23.6111L15.9684 23.4634C15.8208 23.3747 15.6732 23.286 15.5256 23.1974C15.1714 22.9905 14.8172 22.8723 14.4631 22.8723C14.1089 22.8723 13.7252 22.9905 13.371 23.1974C13.1644 23.3451 12.9282 23.4634 12.7216 23.5816C12.6331 23.6407 12.5445 23.6407 12.4855 23.6407C12.3969 23.6407 12.3379 23.6111 12.2494 23.5816C12.0132 23.4634 11.7771 23.3156 11.5705 23.1974C11.2163 22.9905 10.8326 22.8723 10.4784 22.8723C10.0947 22.8723 9.71099 22.9905 9.32728 23.2269C9.20922 23.3156 9.09116 23.3747 8.94357 23.4634L8.73696 23.5816C8.6189 23.6407 8.53035 23.6702 8.4418 23.6702C8.35326 23.6702 8.26471 23.6407 8.14665 23.5816C8.0581 23.5225 7.99907 23.4929 7.881 23.4043C7.76294 23.3451 7.64487 23.286 7.55633 23.1974C7.20214 22.961 6.81843 22.8428 6.43472 22.8428C6.05101 22.8428 5.66731 22.961 5.31312 23.1974C5.1065 23.3156 4.89989 23.4338 4.66377 23.5816C4.57522 23.6407 4.48667 23.6407 4.39812 23.6407C4.30957 23.6407 4.22103 23.6111 4.13248 23.552L3.95538 23.4338C3.8078 23.3452 3.63071 23.2565 3.48313 23.1383C3.12894 22.9314 2.77475 22.8132 2.42055 22.8132C2.09588 22.8132 1.7712 22.9019 1.47604 23.0792C1.09234 23.286 0.738146 23.5225 0.413471 23.7293C0.206859 23.8475 0.0887954 24.0248 0.0592795 24.2317C0.0297635 24.409 0.0887954 24.5863 0.206859 24.7636C0.354439 24.9409 0.502018 25.0296 0.70863 25.0296C0.85621 25.0296 1.03331 24.9704 1.18088 24.8818C1.50556 24.6749 1.83024 24.4976 2.15491 24.3203L2.21394 24.2317C2.27297 24.2021 2.30249 24.2021 2.36152 24.2021C2.42055 24.2021 2.47959 24.2317 2.56813 24.2612C2.77475 24.3794 2.98136 24.4976 3.21748 24.6454C3.60119 24.8818 3.9849 25 4.36861 25C4.75231 25 5.13602 24.8818 5.49021 24.6454C5.66731 24.5272 5.8444 24.4385 6.05101 24.3203L6.13956 24.2908C6.22811 24.2317 6.31666 24.2021 6.40521 24.2021C6.49375 24.2021 6.5823 24.2317 6.67085 24.2908L6.7594 24.3203C6.93649 24.4385 7.1431 24.5272 7.3202 24.6454C7.67439 24.8818 8.0581 25 8.4418 25C8.796 25 9.1797 24.8818 9.53389 24.6749C9.71099 24.5863 9.85857 24.4681 10.0357 24.3794L10.2128 24.2908C10.3013 24.2317 10.3899 24.2021 10.4784 24.2021C10.567 24.2021 10.6555 24.2317 10.744 24.2908L10.9211 24.3794C11.0687 24.4681 11.1868 24.5272 11.3049 24.6158C11.6886 24.8818 12.1018 25 12.515 25C12.9282 25 13.3119 24.8818 13.7252 24.6158C13.8137 24.5567 13.9023 24.4976 14.0203 24.4385C14.0793 24.409 14.1679 24.3499 14.2269 24.3203C14.345 24.2612 14.4335 24.2317 14.5221 24.2317C14.6106 24.2317 14.6992 24.2612 14.8172 24.3203C14.9943 24.409 15.1419 24.5272 15.3485 24.6158L15.5256 24.734C15.8798 24.9409 16.234 25.0296 16.5587 25.0296C16.9129 25.0296 17.2671 24.9113 17.6213 24.7045C17.8574 24.5567 18.0935 24.4385 18.3001 24.2908C18.3887 24.2317 18.4772 24.2021 18.5363 24.2021C18.6248 24.2021 18.6838 24.2317 18.7724 24.2612C18.92 24.3499 19.0971 24.4385 19.2446 24.5272L19.5398 24.7045C19.8645 24.9113 20.2187 25 20.5729 25C20.927 25 21.2812 24.8818 21.6354 24.6749L21.7535 24.6158C21.9011 24.5272 22.0782 24.409 22.2257 24.3203C22.3438 24.2317 22.4619 24.2021 22.5504 24.2021C22.639 24.2021 22.7275 24.2317 22.8161 24.2612C22.9341 24.3203 23.0522 24.409 23.1998 24.4976C23.4064 24.6158 23.6425 24.7636 23.8786 24.8818C23.9967 24.9409 24.1443 24.9704 24.2623 24.9704C24.3509 24.9704 24.469 24.9409 24.528 24.9113C24.6756 24.8522 24.7641 24.7045 24.8527 24.5567C24.8822 24.5272 24.8822 24.4976 24.9117 24.4681L25.0298 24.2908L24.9117 24.1135C24.8231 24.0839 24.8231 24.0544 24.7936 23.9953Z" fill="#3F3F3F"/>
</g>
<defs>
<clipPath id="clip0_986_2823">
<rect width="25" height="25" fill="white"/>
</clipPath>
</defs>
</svg>
