<svg width="24" height="23" viewBox="0 0 24 23" fill="none" xmlns="http://www.w3.org/2000/svg">
<g clip-path="url(#clip0_307_3556)">
<path d="M23.3898 0.454802C23.0975 0.162429 22.7401 0 22.3178 0H1.49435C1.10452 0 0.714689 0.162429 0.454802 0.454802C0.162429 0.714689 0 1.10452 0 1.49435V6.23729C0 6.62712 0.162429 7.01695 0.454802 7.30932C0.747175 7.6017 1.10452 7.76412 1.52684 7.76412H4.38559V21.4082C4.38559 21.8305 4.54802 22.2528 4.8404 22.5452C5.13277 22.8376 5.55508 23 5.9774 23H17.4449C17.8672 23 18.2895 22.8376 18.5819 22.5452C18.8743 22.2528 19.0367 21.8305 19.0367 21.4082V7.76412H22.3178C22.7076 7.76412 23.0975 7.6017 23.3898 7.30932C23.6822 7.01695 23.8446 6.6596 23.8446 6.23729V1.49435C23.8121 1.10452 23.6822 0.714689 23.3898 0.454802ZM13.5466 21.7006V7.73164H15.0085V21.7006H13.5466ZM1.29944 1.49435C1.29944 1.46186 1.29943 1.39689 1.36441 1.36441C1.39689 1.29943 1.46186 1.29944 1.49435 1.29944H22.3178C22.3828 1.29944 22.4153 1.33192 22.4802 1.36441C22.5127 1.39689 22.5452 1.46186 22.5452 1.52684V6.26977C22.5452 6.33475 22.5127 6.36723 22.4802 6.4322C22.4477 6.46469 22.3828 6.49718 22.3178 6.49718H1.49435C1.42938 6.49718 1.39689 6.46469 1.33192 6.4322C1.29944 6.33475 1.29944 6.30226 1.29944 6.23729V1.49435ZM5.94491 21.7006C5.84746 21.7006 5.78249 21.6681 5.71751 21.6031C5.65254 21.5381 5.62006 21.4732 5.62006 21.3757V7.73164H12.2472V21.7006H5.94491ZM16.2754 7.73164H17.7373V21.3757C17.7373 21.4732 17.7048 21.5381 17.6398 21.6031C17.5749 21.6681 17.5099 21.7006 17.4124 21.7006H16.2754V7.73164Z" fill="#3F3F3F"/>
</g>
<defs>
<clipPath id="clip0_307_3556">
<rect width="23.8121" height="23" fill="white"/>
</clipPath>
</defs>
</svg>
