<svg width="25" height="19" viewBox="0 0 25 19" fill="none" xmlns="http://www.w3.org/2000/svg">
<g clip-path="url(#clip0_989_2981)">
<path d="M1.20613 3.73529C1.73554 4.47059 2.29437 5.20588 2.8826 5.94118C3.76495 7.05882 4.85319 8.32353 6.35319 9.17647C6.44142 10.2059 6.97084 10.7059 8.00025 10.7059H14.5591C15.3238 10.7059 16.1179 10.7059 16.8826 10.7059C17.765 10.7059 18.3532 10.2059 18.4708 9.32353C18.4708 9.32353 18.5002 9.26471 18.5297 9.23529C18.6767 9.11765 18.8238 9.02941 19.0002 8.94118C19.265 8.76471 19.5591 8.58824 19.7944 8.38235C21.7061 6.76471 23.0885 4.73529 24.4414 2.76471L24.4708 2.70588C24.7944 2.23529 24.8532 1.67647 24.6473 1.11765C24.412 0.558824 23.912 0.147059 23.3238 0.0294118C23.2061 0.0294118 23.0591 0 22.912 0C22.7061 0 22.5002 0.0294118 22.3532 0.0294118C21.9708 0.0882353 21.6179 0.147059 21.1767 0.205882C20.6473 0.294118 20.0885 0.382353 19.5297 0.441176C17.9708 0.588235 16.1179 0.764706 14.2061 0.911765L13.765 0.941177C13.0885 1 13.0591 1 12.3238 1C12.0297 1 11.765 1 11.4708 1C10.4414 0.970588 10.0591 0.911765 8.97084 0.794118L8.35319 0.735294C6.32378 0.5 4.29437 0.264706 2.55907 0.0294118C2.41201 0 2.29437 0 2.17672 0C1.44143 0 0.823778 0.294118 0.500249 0.823529C0.0590726 1.5 0.147308 2.32353 0.67672 3.05882L1.20613 3.73529ZM16.9708 9.41177C16.912 9.41177 16.8532 9.41177 16.8238 9.41177H8.00025C7.94142 9.41177 7.8826 9.41177 7.79437 9.41177C7.67672 9.38235 7.58848 9.29412 7.58848 9.17647C7.58848 9.05882 7.67672 8.94118 7.79437 8.91177C7.85319 8.91177 7.94142 8.91177 8.02966 8.91177H16.8826C16.912 8.91177 16.9708 8.91177 17.0002 8.91177C17.1473 8.94118 17.2355 9.02941 17.2355 9.17647C17.2355 9.29412 17.1179 9.41177 16.9708 9.41177ZM21.8238 1.41176C22.1473 1.35294 22.4708 1.29412 22.7944 1.26471C22.8532 1.26471 22.8826 1.26471 22.9414 1.26471C23.1767 1.26471 23.3238 1.35294 23.412 1.52941C23.5297 1.76471 23.5002 2 23.3238 2.26471C23.2355 2.38235 22.765 3.02941 22.765 3.02941L21.6767 1.47059L21.8238 1.41176ZM13.1179 2.29412L14.5591 2.14706L14.8826 4.08824H13.1179V2.29412ZM10.3826 2.14706L11.8532 2.29412V4.08824H10.0885L10.3826 2.14706ZM4.1179 2.35294C4.26495 2.11765 4.41201 1.88235 4.58848 1.64706L4.6179 1.61765C5.97084 1.73529 7.32378 1.88235 8.67672 2L9.14731 2.05882L8.82378 4.08824H7.64731C7.44142 4.08824 6.79437 4.08824 6.79437 4.70588C6.79437 4.88235 6.85319 5.02941 6.94142 5.11765C7.08848 5.26471 7.29437 5.32353 7.6179 5.32353H17.4414C17.8826 5.29412 18.1473 5.05882 18.1473 4.67647C18.1473 4.32353 17.8532 4.05882 17.4414 4.05882C17.2944 4.05882 16.3238 4.05882 16.1473 4.05882L15.8238 2.05882L16.1179 2.02941C16.5297 2 16.912 1.97059 17.2944 1.91176L18.5297 1.79412C19.1179 1.73529 19.7355 1.67647 20.3238 1.61765H20.3532C20.3532 1.61765 20.3532 1.61765 20.3826 1.61765C20.9708 2.47059 21.5002 3.23529 22.0297 4.02941C21.1473 5.20588 20.3238 6.26471 19.3238 7.14706C19.0591 7.38235 18.765 7.58824 18.4708 7.79412C18.3238 7.88235 18.2061 7.97059 18.0591 8.08824C18.0591 8.08824 18.0297 8.08824 18.0297 8.11765C18.0297 8.11765 18.0002 8.11765 18.0002 8.08824C17.7355 7.82353 17.3826 7.70588 16.9414 7.70588H13.3826C11.265 7.70588 10.0591 7.70588 7.94142 7.70588C7.6179 7.70588 7.26495 7.85294 7.00025 8C6.94142 8.02941 6.91201 8.02941 6.91201 8.02941C6.91201 8.02941 6.91201 8.02941 6.85319 8C6.14731 7.58824 5.50025 7.05882 4.94142 6.41176C4.44142 5.85294 3.94142 5.26471 3.47084 4.67647C3.47084 4.67647 3.14731 4.26471 2.97084 4.05882L3.1179 3.85294C3.29437 3.61765 3.47084 3.41176 3.6179 3.17647C3.76495 2.91176 3.94142 2.64706 4.1179 2.35294ZM1.55907 1.5C1.67672 1.29412 1.85319 1.23529 2.00025 1.23529C2.02966 1.23529 2.05907 1.23529 2.08848 1.23529C2.44143 1.26471 2.79437 1.32353 3.17672 1.38235L3.32378 1.41176L2.23554 2.97059L2.08848 2.85294C1.91201 2.61765 1.73554 2.38235 1.58848 2.14706C1.44143 1.94118 1.44143 1.73529 1.55907 1.5Z" fill="#3F3F3F"/>
<path d="M0.617647 14C0.941176 14 1.26471 14.1177 1.67647 14.353C2.20588 14.6765 2.73529 14.8236 3.26471 14.8236C3.79412 14.8236 4.32353 14.6765 4.85294 14.353C5.20588 14.1177 5.55882 14.0295 5.91177 14.0295C6.26471 14.0295 6.58824 14.1471 6.97059 14.353C7.5 14.6765 8.02941 14.8236 8.55882 14.8236C9.08824 14.8236 9.64706 14.6471 10.1471 14.353C10.5 14.1471 10.8529 14.0295 11.1765 14.0295C11.5294 14.0295 11.8529 14.1471 12.2059 14.353C12.7353 14.6765 13.2647 14.8236 13.7941 14.8236C14.3235 14.8236 14.8824 14.6471 15.4118 14.3236C15.7647 14.1177 16.0882 14 16.4412 14C16.7647 14 17.1176 14.1177 17.4412 14.3236C17.9706 14.6471 18.5294 14.8236 19.0588 14.8236C19.6176 14.8236 20.1765 14.6471 20.7059 14.3236C20.9412 14.1765 21.1176 14.1177 21.2941 14.0589C21.4412 14.0295 21.5882 14 21.7353 14C22.0294 14 22.3235 14.0883 22.5882 14.2648C23.1765 14.6471 23.7059 14.8236 24.2647 14.8236H24.2941C24.7059 14.8236 24.9706 14.5589 24.9706 14.2059C24.9706 13.853 24.7059 13.5883 24.3235 13.5883C24 13.5883 23.7059 13.5 23.3824 13.2942C22.8235 12.9412 22.2647 12.7648 21.7059 12.7648C21.1471 12.7648 20.5882 12.9412 20.0294 13.2648C19.7059 13.4706 19.3824 13.5589 19.0588 13.5589C18.7353 13.5589 18.4118 13.4706 18.0882 13.2648C17.8529 13.1177 17.5588 12.9706 17.2353 12.8824C16.9706 12.7942 16.6765 12.7648 16.4118 12.7648C15.8235 12.7648 15.2647 12.9412 14.7353 13.2648C14.4118 13.4706 14.1176 13.5589 13.7941 13.5589C13.4706 13.5589 13.1471 13.4706 12.8235 13.2648C12.2647 12.9118 11.7059 12.7353 11.1471 12.7353C10.5882 12.7353 10.0294 12.9118 9.47059 13.2353C9.14706 13.4412 8.82353 13.5295 8.5 13.5295C8.17647 13.5295 7.88235 13.4412 7.55882 13.2353C7 12.8824 6.41176 12.7059 5.85294 12.7059C5.29412 12.7059 4.70588 12.8824 4.14706 13.2353C3.97059 13.353 3.76471 13.4412 3.61765 13.4706C3.47059 13.5 3.32353 13.5295 3.17647 13.5295C2.88235 13.5295 2.58824 13.4412 2.32353 13.2648C1.82353 12.9412 1.29412 12.7648 0.882353 12.7648H0.823529C0.294118 12.7648 0.0294118 12.9412 0 13.353C0 13.5295 0.0588235 13.6765 0.176471 13.8236C0.294118 13.9412 0.441176 14 0.617647 14Z" fill="#3F3F3F"/>
<path d="M24.3529 17.0589C24.0294 17.0589 23.7353 16.9706 23.4118 16.7647C22.8529 16.4118 22.2941 16.2353 21.7353 16.2353C21.1765 16.2353 20.6176 16.4118 20.0588 16.7353C19.7353 16.9412 19.4118 17.0295 19.0882 17.0295C18.7647 17.0295 18.4412 16.9412 18.1176 16.7353C17.8824 16.5883 17.5882 16.4412 17.2647 16.353C17 16.2647 16.7059 16.2353 16.4412 16.2353C15.8529 16.2353 15.2941 16.4118 14.7647 16.7353C14.4412 16.9412 14.1471 17.0295 13.8235 17.0295C13.5 17.0295 13.1765 16.9412 12.8529 16.7353C12.2941 16.3824 11.7353 16.2059 11.1765 16.2059C10.6176 16.2059 10.0588 16.3824 9.5 16.7059C9.17647 16.9118 8.85294 17 8.52941 17C8.20588 17 7.91176 16.9118 7.58824 16.7059C7.02941 16.353 6.44118 16.1765 5.88235 16.1765C5.32353 16.1765 4.73529 16.353 4.17647 16.7059C4 16.8236 3.79412 16.9118 3.64706 16.9412C3.5 16.9706 3.35294 17 3.20588 17C2.91176 17 2.61765 16.9118 2.35294 16.7353C1.82353 16.4706 1.29412 16.2942 0.882353 16.2942H0.823529C0.294118 16.2942 0.0294118 16.4706 0 16.8824C0 17.0589 0.0588235 17.2059 0.176471 17.353C0.294118 17.4706 0.470588 17.5589 0.647059 17.5589C0.970588 17.5589 1.29412 17.6765 1.70588 17.9118C2.23529 18.2353 2.76471 18.3824 3.29412 18.3824C3.82353 18.3824 4.35294 18.2353 4.88235 17.9118C5.23529 17.6765 5.58824 17.5883 5.94118 17.5883C6.29412 17.5883 6.61765 17.7059 7 17.9118C7.52941 18.2353 8.05882 18.3824 8.58824 18.3824C9.11765 18.3824 9.67647 18.2059 10.1765 17.9118C10.5294 17.7059 10.8824 17.5883 11.2059 17.5883C11.5588 17.5883 11.8824 17.7059 12.2353 17.9118C12.7647 18.2353 13.2941 18.3824 13.8235 18.3824C14.3529 18.3824 14.9118 18.2059 15.4412 17.8824C15.7941 17.6765 16.1176 17.5589 16.4706 17.5589C16.7941 17.5589 17.1471 17.6765 17.4706 17.8824C18 18.2059 18.5588 18.3824 19.0882 18.3824C19.6471 18.3824 20.2059 18.2059 20.7353 17.8824C20.9706 17.7353 21.1471 17.6765 21.3235 17.6177C21.4706 17.5883 21.6176 17.5589 21.7647 17.5589C22.0588 17.5589 22.3529 17.6471 22.6176 17.8236C23.2059 18.2059 23.7353 18.3824 24.2941 18.3824H24.3235C24.7353 18.3824 25 18.1177 25 17.7648C25 17.3236 24.7353 17.0883 24.3529 17.0589Z" fill="#3F3F3F"/>
</g>
<defs>
<clipPath id="clip0_989_2981">
<rect width="25" height="18.3529" fill="white"/>
</clipPath>
</defs>
</svg>
