<svg width="17" height="22" viewBox="0 0 17 22" fill="none" xmlns="http://www.w3.org/2000/svg">
<g clip-path="url(#clip0_307_3526)">
<path d="M0.758902 21.2963C0.373614 21.2963 0.0350263 20.9915 0 20.6177C0 20.5774 0 20.5314 0 20.4796V20.4566C0 13.9176 0 7.37865 0 0.83966C0 0.385323 0.233508 0.0805153 0.647986 0.0115022C0.68885 0.00575109 0.729714 0 0.776416 0C1.15003 0 1.47694 0.276052 1.5178 0.626869C1.54699 0.856913 1.54116 1.10421 1.53532 1.34V1.44352C1.53532 1.66207 1.62872 1.78859 1.84472 1.8346C2.52189 1.98988 3.21658 2.07039 3.9171 2.07039C4.26737 2.07039 4.61763 2.05314 4.96789 2.01288C6.01284 1.89786 7.06363 1.73108 8.07939 1.57005C8.3129 1.53554 8.54641 1.49528 8.77992 1.46078L8.87332 1.44928C10.1343 1.25374 11.4419 1.05245 12.732 1.05245C12.8371 1.05245 12.948 1.05245 13.0531 1.0582C14.1506 1.08696 15.143 1.25374 16.0946 1.57005C16.4799 1.69657 16.6608 1.94387 16.6608 2.33494C16.6608 5.5038 16.6667 9.25351 16.6608 13.0492C16.6608 13.4978 16.3398 13.8314 15.9194 13.8314C15.826 13.8314 15.7326 13.8141 15.6334 13.7796C14.7402 13.4748 13.7712 13.3195 12.7554 13.3195C12.3292 13.3195 11.8856 13.3483 11.4302 13.4C10.6597 13.4921 9.88324 13.6128 9.13018 13.7279C8.65149 13.8026 8.15528 13.8774 7.66492 13.9464L7.48978 13.9694C6.35143 14.1304 5.17805 14.2915 4.01635 14.2915C3.75365 14.2915 3.50263 14.2857 3.25744 14.2685C2.96556 14.2512 2.662 14.211 2.37595 14.1707C2.24752 14.1534 2.11909 14.1362 1.98482 14.1247C1.93228 14.1189 1.88558 14.1132 1.8272 14.1017C1.79218 14.0959 1.75715 14.0902 1.72212 14.0844L1.52948 14.0557V16.1721C1.52948 17.6041 1.52948 19.0304 1.52948 20.4624C1.52948 20.911 1.29013 21.2043 0.869819 21.2733C0.84063 21.2905 0.799766 21.2963 0.758902 21.2963ZM1.56451 12.5259L1.6871 12.5604C2.42265 12.7559 3.17571 12.8479 4.00467 12.8479C4.5359 12.8479 5.07881 12.8077 5.67426 12.7329C6.52656 12.6179 7.39054 12.4741 8.22534 12.3361C8.65149 12.2671 9.08932 12.1923 9.52131 12.1233C10.648 11.945 11.5937 11.83 12.5569 11.83C12.6912 11.83 12.8196 11.83 12.948 11.8357C13.4034 11.853 13.8587 11.899 14.3374 11.945C14.5534 11.968 14.7694 11.991 14.9912 12.0083L15.1605 12.0255L15.1664 11.8588C15.1664 11.8415 15.1664 11.83 15.1664 11.8127C15.1664 11.7725 15.1722 11.7265 15.1722 11.6747V9.66184C15.1722 7.53968 15.1722 5.34277 15.178 3.18035C15.178 3.00782 15.1372 2.82954 14.8511 2.76052C14.174 2.60525 13.4734 2.53048 12.7029 2.53048C12.0315 2.53048 11.3018 2.58799 10.4612 2.71452C9.76065 2.81804 9.05429 2.93306 8.36544 3.04233C7.62989 3.1631 6.87099 3.28387 6.12376 3.39314C5.37069 3.50242 4.69936 3.55418 4.06305 3.55418C3.60187 3.55418 3.15236 3.52542 2.72037 3.46791C2.49854 3.43915 2.28255 3.4104 2.05487 3.37589L1.55867 3.30688V12.5259H1.56451Z" fill="#3F3F3F"/>
</g>
<defs>
<clipPath id="clip0_307_3526">
<rect width="16.6667" height="21.2963" fill="white"/>
</clipPath>
</defs>
</svg>
