<svg width="25" height="25" viewBox="0 0 25 25" fill="none" xmlns="http://www.w3.org/2000/svg">
<g clip-path="url(#clip0_989_2888)">
<path d="M23.0197 18.0618C23.3354 17.3315 23.6511 16.4607 23.9381 15.5899C24.2252 14.7472 24.5409 13.8764 24.8566 13.1461C25.1437 12.4438 24.914 11.9101 24.2252 11.6011C23.9381 11.4888 23.6511 11.3483 23.3354 11.236L23.3067 11.2079C22.79 11.0112 22.3021 10.7865 21.7854 10.5618C21.728 10.5337 21.6706 10.4494 21.6706 10.4494C21.5271 9.52247 21.2114 6.99438 21.0105 5.33708C20.9244 4.60674 20.8383 4.12921 20.8096 3.82022C20.7809 3.70787 20.7809 3.59551 20.7522 3.53933C20.6086 2.58427 20.0346 2.05056 19.0874 2.05056H13.3469V0.365169C13.3469 0.168539 13.1747 0 12.9737 0H12.3997C12.1988 0 12.0266 0.168539 12.0266 0.365169V2.05056H6.31473C5.39624 2.05056 4.79349 2.55618 4.64997 3.45506C4.56386 4.07303 4.36295 5.50562 4.16203 7.16292C3.98981 8.53933 3.8463 9.80337 3.76019 10.2809C3.73149 10.3933 3.70279 10.4494 3.61668 10.4775C2.92781 10.7584 2.23895 11.0393 1.52138 11.3202L0.775116 11.6292C0.373279 11.7978 0.143658 11.9944 0.0288473 12.2753C-0.0859633 12.5562 -0.0572606 12.8652 0.114955 13.2584L2.87041 20.4494H2.84171C2.55468 20.3933 2.29636 20.3371 2.00933 20.3371C1.98063 20.3371 1.92322 20.3371 1.89452 20.3371C1.49268 20.3371 1.20566 20.5618 1.20566 20.927C1.17695 21.4607 1.75101 21.573 1.92322 21.6011C2.26765 21.6573 2.64079 21.7135 2.92781 21.8539C3.58797 22.2191 4.24814 22.4157 4.9083 22.4157C5.56846 22.4157 6.22862 22.2191 6.88878 21.8539C7.26191 21.6573 7.60634 21.5449 7.97948 21.5449C8.35261 21.5449 8.72575 21.6573 9.09888 21.8539C9.75904 22.2191 10.4192 22.4157 11.0794 22.4157C11.7108 22.4157 12.371 22.2472 13.0311 21.882C13.4043 21.6854 13.7774 21.573 14.1792 21.573C14.5524 21.573 14.9542 21.6854 15.3274 21.882C15.9875 22.2472 16.619 22.4157 17.2504 22.4157C17.8819 22.4157 18.5133 22.2472 19.1161 21.882C19.5179 21.6573 19.8911 21.5449 20.2929 21.5449C20.6947 21.5449 21.0966 21.6573 21.5271 21.882C21.6706 21.9663 21.8142 22.0225 21.9577 22.1067C22.3308 22.3034 22.7613 22.3876 23.2206 22.3876C23.278 22.3876 23.3354 22.3876 23.3928 22.3876C23.7085 22.3595 23.9381 22.1629 23.9668 21.8539C23.9956 21.5169 23.8233 21.264 23.5076 21.1798C23.4215 21.1517 23.3354 21.1517 23.278 21.1517H23.2206C22.7613 21.1517 22.3308 20.927 21.9864 20.7303C21.9864 20.7022 22.0151 20.6742 22.0151 20.6461L23.0197 18.0618ZM20.867 20.309C20.867 20.309 20.867 20.3371 20.8383 20.3371H20.8096C20.666 20.309 20.5225 20.309 20.4077 20.309C19.7189 20.309 19.0587 20.4775 18.4272 20.8708C18.0541 21.0674 17.681 21.1798 17.3078 21.1798C16.9347 21.1798 16.5616 21.0674 16.1884 20.8708C15.5283 20.5056 14.8681 20.309 14.2367 20.309C13.5765 20.309 12.9163 20.5056 12.2562 20.8708C11.9117 21.0674 11.5386 21.1798 11.1655 21.1798C10.7923 21.1798 10.4192 21.0674 10.0461 20.8708C9.38591 20.5056 8.72575 20.309 8.06559 20.309C7.40543 20.309 6.74527 20.5056 6.0851 20.8708C5.76938 21.0674 5.39624 21.1517 5.02311 21.1517C4.9083 21.1517 4.82219 21.1517 4.70738 21.1236C4.67867 21.1236 4.62127 21.0955 4.62127 21.0674C3.93241 19.5506 2.29636 14.9157 2.06673 14.3258L2.12414 14.2978C2.23895 14.2416 2.38246 14.1854 2.49727 14.1573L5.74067 12.9494C7.83597 12.1629 9.90256 11.3483 11.9978 10.5337C12.2275 10.4494 12.4571 10.3933 12.6867 10.3933C12.9163 10.3933 13.146 10.4494 13.4043 10.5337C15.6144 11.3764 17.8245 12.2472 20.0633 13.0899C20.0633 13.0899 22.7613 14.1292 23.0484 14.2416C22.7613 14.9438 20.9531 20.1124 20.867 20.309ZM13.9496 9.41011C13.5191 9.24157 13.0885 9.1573 12.658 9.1573C12.2275 9.1573 11.7969 9.24157 11.3664 9.41011C8.95537 10.3371 6.51564 11.2921 4.13332 12.191L1.52138 13.2022L1.32047 12.7528L1.75101 12.5843C2.15284 12.4157 2.55468 12.2472 2.98522 12.0787L10.8784 8.82022C11.4238 8.59551 11.9691 8.48315 12.5145 8.48315C13.0311 8.48315 13.5478 8.5955 14.0644 8.79213C16.5042 9.80337 18.9152 10.7865 21.3549 11.7978L23.6511 12.7528L23.5076 13.0899C23.2206 12.9775 22.503 12.7247 22.2447 12.6124L20.0059 11.7697C17.9967 10.9551 15.9875 10.1966 13.9496 9.41011ZM18.0254 9.04494C16.5329 8.39888 14.9829 7.75281 13.3756 7.27528V3.28652H18.9439C19.4318 3.28652 19.4318 3.28652 19.4892 3.76404C19.604 4.57865 20.2929 9.94382 20.2929 9.97191C19.5466 9.69101 18.7717 9.35393 18.0254 9.04494ZM6.28602 3.28652C7.1471 3.28652 8.00818 3.28652 8.86926 3.28652H12.0553V7.2191C11.9978 7.2191 11.9404 7.24719 11.8543 7.24719C11.5673 7.30337 11.2803 7.33146 10.9933 7.44382C10.2757 7.69663 9.52942 8.00562 8.84056 8.28652L8.43872 8.45506C7.69245 8.76404 6.97489 9.07303 6.19991 9.38202L5.13792 9.83146L5.16662 9.55056C5.16662 9.52247 5.88419 4.04494 5.91289 3.65169C5.97029 3.3427 6.0564 3.28652 6.28602 3.28652Z" fill="#3F3F3F"/>
<path d="M23.0776 23.736C22.5609 23.736 22.1017 23.5113 21.7285 23.3427C21.4702 23.2023 21.1545 23.0619 20.81 22.9776C20.523 22.9214 20.2647 22.8933 20.0064 22.8933C19.3749 22.8933 18.7722 23.0619 18.1981 23.3989C17.7963 23.6236 17.3657 23.7641 16.9639 23.7641C16.5621 23.7641 16.1315 23.6517 15.701 23.3989C15.0982 23.0619 14.4668 22.8933 13.864 22.8933C13.2612 22.8933 12.6298 23.0619 12.027 23.3989C11.5965 23.6236 11.1947 23.7641 10.7641 23.7641C10.3623 23.7641 9.93174 23.6517 9.52991 23.427C8.92715 23.0899 8.29569 22.9214 7.66424 22.9214C7.06148 22.9214 6.43002 23.0899 5.82727 23.427C5.42543 23.6517 5.02359 23.7641 4.67916 23.7641C4.56435 23.7641 4.44954 23.7641 4.33473 23.736C3.87549 23.6517 3.44495 23.4551 3.10052 23.2866C2.58387 23.0338 2.09592 22.9214 1.60798 22.9214C1.55057 22.9214 1.52187 22.9214 1.46447 22.9214C1.12003 22.9495 0.833008 23.2023 0.833008 23.5394C0.833008 23.8765 1.03393 24.1012 1.34966 24.1574C1.40706 24.1574 1.43576 24.1574 1.49317 24.1574C1.52187 24.1574 1.55057 24.1574 1.55057 24.1574C1.66538 24.1854 1.78019 24.2135 1.89501 24.2416C2.12463 24.2978 2.38295 24.354 2.58387 24.4663C3.24403 24.8315 3.90419 25.0001 4.53565 25.0001C5.19581 25.0001 5.85597 24.8034 6.48743 24.4663C6.86056 24.2697 7.2337 24.1574 7.60683 24.1574C7.97996 24.1574 8.3531 24.2697 8.72623 24.4663C9.38639 24.8315 10.0466 25.0281 10.7067 25.0281C11.3382 25.0281 11.9983 24.8596 12.6585 24.4944C12.8881 24.3821 13.1751 24.2978 13.4335 24.2135C13.4909 24.1854 13.5483 24.1854 13.6344 24.1574V24.1854H13.8353C14.2371 24.1854 14.6103 24.2978 14.9834 24.4944C15.6149 24.8315 16.2463 25.0281 16.8778 25.0281C17.5379 25.0281 18.1694 24.8315 18.8296 24.4663C19.174 24.2697 19.5471 24.1854 19.949 24.1854H19.9777C20.4369 24.1854 20.8387 24.2978 21.2406 24.5225C21.8146 24.8596 22.36 25.0001 22.9053 25.0001C22.934 25.0001 22.9914 25.0001 23.0201 25.0001C23.3646 24.972 23.5655 24.8315 23.6229 24.5506C23.6516 24.3821 23.5942 24.1293 23.4794 23.9607C23.4794 23.8203 23.2498 23.736 23.0776 23.736Z" fill="#3F3F3F"/>
</g>
<defs>
<clipPath id="clip0_989_2888">
<rect width="25" height="25" fill="white"/>
</clipPath>
</defs>
</svg>
