<svg width="22" height="21" viewBox="0 0 22 21" fill="none" xmlns="http://www.w3.org/2000/svg">
<g clip-path="url(#clip0_842_2497)">
<path d="M21.9666 15.585C21.6565 12.2515 20.0645 9.6323 17.2349 7.80496C17.174 7.7662 16.9552 7.63607 16.7282 7.63607C16.6867 7.63607 16.6451 7.64161 16.6064 7.64991C16.4513 7.68591 16.3489 7.81327 16.2658 7.92124C16.2215 7.8991 16.1745 7.87695 16.1274 7.8548C15.881 7.73297 15.6235 7.60838 15.3522 7.50594C15.175 7.43949 15.1584 7.39796 15.1694 7.25399C15.2054 6.81654 15.0393 6.59781 14.6129 6.52306C13.8598 6.39293 13.0902 6.28495 12.3481 6.18251L12.3232 6.17974C12.2512 6.16866 12.1931 6.16589 12.1377 6.16589C11.9135 6.16589 11.7418 6.24619 11.62 6.40677C11.6144 6.40677 11.6089 6.40677 11.6006 6.40677C11.4428 6.40677 11.2822 6.40677 11.1244 6.40677C10.8531 6.40677 10.6288 6.404 10.4156 6.40123C10.4045 6.39846 10.3658 6.38462 10.3464 6.37355C10.3298 6.36801 10.3159 6.3597 10.2993 6.35416C10.2689 6.34032 10.2301 6.32094 10.1886 6.29879C10.0917 6.24619 9.97261 6.17974 9.83971 6.17974C9.82587 6.17974 9.81202 6.17974 9.79541 6.18251C9.10878 6.25449 8.31139 6.34309 7.5417 6.47876C7.22053 6.5369 7.05718 6.58673 6.94366 6.73624C6.83291 6.88298 6.82461 7.06295 6.81353 7.36474C6.81353 7.38412 6.80246 7.41457 6.79415 7.42842C6.48406 7.5807 6.16289 7.72467 5.8528 7.8631L5.73928 7.91294C5.60085 7.65822 5.41257 7.60285 5.27691 7.60285C5.13571 7.60285 4.98343 7.65822 4.79516 7.78004C1.77175 9.73474 0.154832 12.556 0.00255374 16.1636C-0.0223645 16.7478 0.135451 17.2351 0.459388 17.5729C0.794399 17.9218 1.2983 18.1073 1.91849 18.1073H20.0949H20.2085C20.25 18.1073 20.3054 18.1073 20.3607 18.1045C21.1664 18.0657 21.8364 17.4871 21.9583 16.7257C22.0219 16.3215 21.997 15.9034 21.9666 15.585ZM1.14879 16.2301C1.254 13.3645 2.439 11.0249 4.67333 9.2696C4.67333 9.66552 4.67333 10.0614 4.67333 10.4574C4.67057 11.4513 4.67057 12.4785 4.6761 13.4891C4.68164 14.4111 5.4015 15.1309 6.3124 15.1309C6.54497 15.1309 6.77477 15.0811 6.99626 14.9842C7.6386 14.7018 7.96808 14.1868 7.97638 13.4586C7.98192 13.0433 7.97915 12.6225 7.97915 12.2155V12.1878C7.97915 12.0244 7.97915 11.8639 7.97915 11.7005C7.97915 11.4043 7.97915 11.108 7.97915 10.8118V10.7121C7.97915 9.70151 7.98192 8.65495 7.97361 7.62499C7.97361 7.56131 7.97915 7.5447 7.97915 7.54193C7.98469 7.5364 8.00684 7.53363 8.0456 7.52809C8.40553 7.47825 8.75715 7.42565 9.13093 7.37028L9.35242 7.33705V7.42842C9.35242 7.84926 9.35242 8.27287 9.35242 8.69371V8.74631C9.35242 9.83164 9.34965 10.9557 9.35796 12.0604C9.36073 12.7554 9.69851 13.2676 10.3298 13.5417C10.5651 13.6441 10.8004 13.6967 11.033 13.6967C11.4262 13.6967 11.7944 13.55 12.1266 13.2593C12.4838 12.9464 12.6638 12.5173 12.661 11.9801C12.6582 10.8893 12.6582 9.78181 12.6582 8.70755V7.33428L12.7745 7.35366C13.212 7.42288 13.6245 7.48656 14.0343 7.55578C14.037 7.56962 14.0343 7.60008 14.0343 7.61946C14.0343 7.64438 14.0315 7.66929 14.0315 7.69144C14.0315 8.20365 14.0315 8.71309 14.0315 9.2253V9.29728C14.0315 10.5321 14.0287 11.8085 14.0343 13.0627C14.0398 14.0207 14.7541 14.7682 15.6623 14.7682C15.8921 14.7682 16.1219 14.7184 16.3434 14.6242C16.9885 14.3446 17.329 13.8213 17.3346 13.1042C17.3401 12.1767 17.3401 11.2326 17.3373 10.3217C17.3373 9.97008 17.3373 9.61568 17.3373 9.26406C19.5689 11.0166 20.7539 13.3562 20.8619 16.2218C20.8702 16.4737 20.8203 16.6592 20.7096 16.7728C20.5961 16.8918 20.4023 16.9499 20.1365 16.9499H1.87696C1.60839 16.9499 1.41459 16.889 1.30107 16.77C1.19032 16.662 1.14049 16.4793 1.14879 16.2301ZM16.1772 13.1375C16.1745 13.4143 15.9641 13.6164 15.6789 13.6164H15.6706C15.3826 13.6137 15.1861 13.4226 15.1861 13.1458C15.1805 11.9635 15.1805 10.7592 15.1833 9.59353C15.1833 9.59353 15.1833 8.95674 15.1833 8.66879L15.2054 8.67987C15.5432 8.8626 15.8616 9.03703 16.1772 9.21699C16.1772 9.21976 16.1772 9.22253 16.1772 9.2253V9.61568C16.1828 10.7675 16.1883 11.9635 16.1772 13.1375ZM11.4982 12.066C11.4954 12.3401 11.2877 12.5367 11.0026 12.5367H10.9915C10.7146 12.5311 10.5125 12.329 10.507 12.0549C10.5014 11.5289 10.5014 10.9945 10.5042 10.4767C10.5042 10.258 10.5042 10.0365 10.5042 9.81503L10.5014 9.74581C10.5014 9.588 10.5014 9.22253 10.5014 9.22253C10.5014 8.68264 10.5042 8.12613 10.4987 7.57793C10.4987 7.56962 10.4987 7.56408 10.4987 7.55578C10.5679 7.55578 10.6399 7.55578 10.7091 7.55578H10.8918C11.0856 7.55578 11.2877 7.55578 11.4898 7.56685C11.4898 7.56962 11.4926 7.56962 11.4926 7.57239C11.5065 9.20315 11.5065 10.6733 11.4982 12.066ZM6.82461 13.406C6.82461 13.766 6.64187 13.9736 6.32624 13.9764C6.01338 13.9764 5.82511 13.7687 5.82234 13.4171C5.81957 12.6972 5.81957 11.9691 5.81957 11.2658C5.81957 10.9751 5.81957 10.6844 5.81957 10.3937C5.81957 10.2912 5.81957 10.1916 5.81957 10.0891V10.0781C5.82234 9.82057 5.82234 9.55754 5.81403 9.29175C5.81127 9.21699 5.81957 9.20315 5.88048 9.16992C6.1712 9.01765 6.4536 8.86537 6.75262 8.70202L6.81907 8.66602V9.28621C6.82737 10.6373 6.82737 12.0328 6.82461 13.406Z" fill="#3F3F3F"/>
<path d="M10.6224 3.20891C10.3732 3.47194 10.2486 3.77649 10.2597 4.11427C10.268 4.38007 10.4369 4.56557 10.6999 4.59602C10.7248 4.59879 10.7498 4.60156 10.7719 4.60156C11.0128 4.60156 11.1955 4.45482 11.226 4.23333C11.2536 4.03398 11.3672 3.90385 11.5084 3.73773L11.5388 3.70174C11.644 3.57715 11.7299 3.41656 11.7797 3.25044C11.9209 2.77423 11.7991 2.33954 11.4115 1.95193C11.2121 1.75258 11.2121 1.67506 11.4087 1.44802C11.525 1.31236 11.6689 1.13239 11.752 0.930279C11.9209 0.523282 11.86 0.279638 11.5277 0.0304556L11.489 0H11.1097L11.0654 0.0636798C11.046 0.0913667 11.0266 0.121822 11.0045 0.149509L11.0017 0.155047C10.9519 0.224264 10.902 0.299018 10.855 0.376542C10.819 0.437453 10.7913 0.498364 10.7636 0.556506C10.7193 0.650642 10.6778 0.73924 10.6196 0.80292C10.124 1.35112 10.1268 2.07375 10.6279 2.60257C10.902 2.89051 10.902 2.91266 10.6224 3.20891Z" fill="#3F3F3F"/>
<path d="M7.7623 3.18953C7.49928 3.46363 7.36915 3.77372 7.38023 4.11427C7.38853 4.39114 7.57403 4.58218 7.8509 4.60156C7.86474 4.60156 7.87582 4.60156 7.88966 4.60156C8.03917 4.60156 8.24405 4.53788 8.36864 4.22779C8.43508 4.06444 8.50984 3.89831 8.61505 3.77649C8.96944 3.36396 9.14386 2.69947 8.76732 2.27863C8.35756 1.82457 8.35479 1.55877 8.75902 1.1407C8.90852 0.985653 8.98328 0.805688 8.97774 0.614649C8.9722 0.406997 8.86976 0.202114 8.6898 0.0387616L8.6455 0H8.26343L8.21913 0.0581425C8.19698 0.088598 8.17206 0.119054 8.14714 0.152278C8.089 0.224264 8.02809 0.301787 7.97826 0.384848C7.9395 0.448528 7.90904 0.512207 7.87858 0.578656C7.83705 0.667254 7.79552 0.750315 7.74292 0.811226C7.24733 1.35666 7.25287 2.07929 7.75676 2.60534C8.01979 2.8822 8.01979 2.92097 7.7623 3.18953Z" fill="#3F3F3F"/>
<path d="M13.5162 3.18953C13.2532 3.46363 13.1231 3.77372 13.1341 4.11427C13.1424 4.39114 13.3279 4.58218 13.6048 4.60156C13.6186 4.60156 13.6297 4.60156 13.6436 4.60156C13.7931 4.60156 13.998 4.53788 14.1225 4.22779C14.189 4.06444 14.2637 3.89831 14.369 3.77649C14.7233 3.36396 14.8978 2.69947 14.5212 2.27863C14.1115 1.82457 14.1087 1.55877 14.5129 1.1407C14.6624 0.985653 14.7372 0.805688 14.7316 0.614649C14.7261 0.406997 14.6237 0.202114 14.4437 0.0387616L14.3994 0H14.0173L13.973 0.0581425C13.9509 0.088598 13.926 0.119054 13.9011 0.152278C13.8429 0.224264 13.782 0.301787 13.7322 0.384848C13.6934 0.448528 13.6629 0.512207 13.6325 0.578656C13.591 0.667254 13.5494 0.750315 13.4968 0.811226C13.0012 1.35666 13.0068 2.07929 13.5107 2.60534C13.7765 2.8822 13.7765 2.92097 13.5162 3.18953Z" fill="#3F3F3F"/>
<path d="M21.3743 20.6683H0.622955C0.279638 20.6683 0 20.3886 0 20.0453C0 19.702 0.279638 19.4224 0.622955 19.4224H21.3743C21.7176 19.4224 21.9972 19.702 21.9972 20.0453C22 20.3886 21.7204 20.6683 21.3743 20.6683Z" fill="#3F3F3F"/>
</g>
<defs>
<clipPath id="clip0_842_2497">
<rect width="22" height="20.6683" fill="white"/>
</clipPath>
</defs>
</svg>
