<svg width="23" height="25" viewBox="0 0 23 25" fill="none" xmlns="http://www.w3.org/2000/svg">
<g clip-path="url(#clip0_844_2528)">
<path d="M0.664442 19.6099C0.755712 19.6099 0.846981 19.5969 0.938251 19.5578C1.75968 19.1797 2.48984 18.9841 3.1548 18.9841C3.98927 18.9841 4.66728 19.2709 5.39744 19.5708L5.42351 19.5839C6.21886 19.9229 7.20979 20.3531 8.47453 20.3531C9.43939 20.3531 10.5477 20.0924 11.7602 19.5839C12.5817 19.2058 13.3118 19.0102 13.9768 19.0102C14.8113 19.0102 15.4893 19.297 16.2194 19.5969L16.2455 19.6099C17.0409 19.949 18.0318 20.3792 19.2965 20.3792C20.2614 20.3792 21.3697 20.1185 22.5822 19.6099C22.7517 19.5317 22.8952 19.3883 22.9473 19.2058C22.9995 19.0493 22.9864 18.8798 22.9212 18.7494C22.8691 18.4626 22.6214 18.267 22.3475 18.267C22.2693 18.267 22.178 18.28 22.1129 18.3191C21.0698 18.7624 20.1832 18.9841 19.3748 18.9841C18.3708 18.9841 17.5885 18.6451 16.8322 18.3191C16.0108 17.9671 15.1633 17.6151 14.0681 17.6151C13.1945 17.6151 12.2818 17.8497 11.2517 18.3191C10.2087 18.7624 9.32204 18.9841 8.51365 18.9841C7.50968 18.9841 6.72737 18.6451 5.97113 18.3191C5.18882 17.9932 4.3022 17.6151 3.19392 17.6151C2.32034 17.6151 1.3946 17.8497 0.377594 18.3322C0.05163 18.5147 -0.091794 18.9059 0.05163 19.2318C0.155938 19.4665 0.403671 19.6099 0.664442 19.6099Z" fill="#3F3F3F"/>
<path d="M22.947 22.8305C22.8427 22.5827 22.5819 22.4132 22.3212 22.4132C22.2299 22.4132 22.1517 22.4263 22.0734 22.4654C21.0303 22.9087 20.1437 23.1303 19.3353 23.1303C18.3314 23.1303 17.549 22.7913 16.7928 22.4654C15.9714 22.1133 15.1239 21.7613 14.0286 21.7613C13.1551 21.7613 12.2424 21.996 11.2123 22.4654C10.1692 22.9087 9.2826 23.1303 8.47421 23.1303C7.47025 23.1303 6.68793 22.7913 5.9317 22.4654C5.11027 22.1133 4.26276 21.7613 3.16752 21.7613C2.29394 21.7613 1.38124 21.996 0.351195 22.4654C0.207771 22.5175 0.103462 22.6218 0.0382697 22.7783C-0.0399616 22.9478 -0.0269231 23.1434 0.0382697 23.3129C0.142578 23.5476 0.377272 23.704 0.651082 23.704C0.742352 23.704 0.833621 23.691 0.924891 23.6519C1.74632 23.2738 2.47648 23.0782 3.14145 23.0782C3.97591 23.0782 4.65392 23.365 5.38408 23.6649L5.41015 23.678C6.20551 24.017 7.19644 24.4472 8.46118 24.4472C9.42603 24.4472 10.5343 24.1865 11.7469 23.678C12.5683 23.2998 13.2985 23.1043 13.9634 23.1043C14.7979 23.1043 15.4759 23.3911 16.2061 23.691L16.2322 23.704C17.0275 24.043 18.0184 24.4733 19.2832 24.4733C20.248 24.4733 21.3563 24.2125 22.5689 23.704C22.9209 23.5606 23.0904 23.1564 22.947 22.8305Z" fill="#3F3F3F"/>
<path d="M3.65066 15.7636C3.27255 15.7636 2.88139 15.3724 2.88139 14.9943C2.88139 14.6162 3.27255 14.2251 3.65066 14.2251H5.04579V6.54535H3.52028C3.16824 6.54535 2.97266 6.41497 2.88139 6.12812C2.79012 5.85431 2.89443 5.63265 3.20735 5.411L3.80713 4.99376C6.04976 3.42914 8.37062 1.79932 10.6784 0.18254C10.8479 0.0651927 11.0044 0 11.1609 0C11.3043 0 11.4608 0.0521542 11.6172 0.169501C13.8859 1.7602 16.3241 3.48129 19.0883 5.39796C19.4143 5.61961 19.5186 5.85431 19.4143 6.16723C19.323 6.41497 19.1405 6.53231 18.8145 6.54535H17.954V14.2251H19.3752C19.9097 14.2251 20.1444 14.6293 20.1444 14.9943C20.1444 15.3724 19.7533 15.7636 19.3752 15.7636H3.65066ZM13.4557 14.2251H16.7023V6.54535H6.42788V14.2251H9.34851V9.85714H13.4426V14.2251H13.4557ZM10.4959 14.2251H12.2952V10.9785H10.4959V14.2251ZM11.187 1.47336C11.0044 1.47336 10.8349 1.52551 10.7176 1.60374C9.63536 2.34694 8.54012 3.10317 7.484 3.84637L6.72776 4.38095C6.55826 4.4983 6.38876 4.62868 6.18015 4.77211L5.44999 5.29365H16.624L16.4154 5.04592C16.3893 5.0068 16.3633 4.98073 16.3502 4.96769C16.3111 4.91553 16.285 4.87642 16.2329 4.85034L15.4375 4.30272C14.1597 3.40306 12.8428 2.47732 11.5129 1.57766C11.4216 1.48639 11.2913 1.47336 11.187 1.47336Z" fill="#3F3F3F"/>
</g>
<defs>
<clipPath id="clip0_844_2528">
<rect width="23" height="24.4734" fill="white"/>
</clipPath>
</defs>
</svg>
