<svg width="24" height="29" viewBox="0 0 24 29" fill="none" xmlns="http://www.w3.org/2000/svg">
<g clip-path="url(#clip0_307_3558)">
<path d="M10.151 25.1428C4.90575 25.1428 0.641602 20.8118 0.641602 15.4843V11.5366C0.641602 11.115 0.981224 10.7317 1.43405 10.7317H18.868C19.2831 10.7317 19.6605 11.0766 19.6605 11.5366V13.1463H20.2265C22.302 13.1463 24.0378 14.8711 24.0378 17.0174C24.0378 19.1254 22.3397 20.8885 20.2265 20.8885H18.0756L17.9624 21.0801C16.151 23.6097 13.2454 25.1428 10.151 25.1428ZM2.18877 15.4843C2.18877 19.9303 5.77368 23.5714 10.151 23.5714C12.4152 23.5714 14.5661 22.6132 16.0756 20.8885C17.3963 19.3937 18.1133 17.4773 18.1133 15.4843V12.3031H2.18877V15.4843ZM19.6605 15.4843C19.6605 16.5575 19.4718 17.6306 19.1322 18.6655L18.9435 19.2404H20.2265C21.4341 19.2404 22.4529 18.2439 22.4529 16.9791C22.4529 15.7526 21.4718 14.7178 20.2265 14.7178H19.6605V15.4843Z" fill="#3F3F3F"/>
<path d="M13.4718 1.3031C13.9246 1.37976 14.1887 1.80136 14.0378 2.18463C14.0001 2.26129 13.9623 2.33794 13.9246 2.4146C13.5095 3.10449 13.5472 3.71773 14.0378 4.40763C14.3397 4.86756 14.6793 5.32749 14.8303 5.82575C15.2076 6.97557 14.9435 8.01042 14.2265 8.96861C14.0755 9.16024 13.8869 9.35188 13.6604 9.46686C13.434 9.58185 13.2454 9.46686 13.0944 9.27523C12.9435 9.08359 12.9057 8.85362 13.0189 8.62366C13.0944 8.47035 13.2076 8.35536 13.3208 8.20205C14.0378 7.28219 14.0378 6.28568 13.3208 5.40415C12.9812 4.98254 12.7171 4.56094 12.5661 4.02435C12.3774 3.14282 12.5284 2.37627 13.0567 1.68638C13.0944 1.49474 13.3208 1.41808 13.4718 1.3031Z" fill="#3F3F3F"/>
<path d="M10.7548 0.728198C10.717 0.804853 10.6793 0.919836 10.6038 1.07315C10.1887 1.76304 10.2265 2.41461 10.717 3.06618C11.0944 3.56444 11.434 4.06269 11.585 4.67593C11.8114 5.7491 11.585 6.66897 10.9434 7.5505C10.8302 7.70381 10.717 7.85712 10.5661 8.01043C10.3774 8.20207 10.0378 8.24039 9.81137 8.08708C9.58495 7.89545 9.47175 7.58883 9.62269 7.32053C9.69816 7.20555 9.77363 7.05224 9.88684 6.93726C10.6416 5.94074 10.6416 4.98255 9.88684 4.02437C9.35854 3.33447 9.01892 2.60625 9.13212 1.72471C9.16986 1.18813 9.39628 0.689871 9.69816 0.268268C9.84911 0.0383028 10.1133 -0.0383523 10.3774 0.0766303C10.6416 0.153285 10.7548 0.344923 10.7548 0.728198Z" fill="#3F3F3F"/>
<path d="M8.33964 6.47727C8.33964 7.78041 7.92454 8.58529 7.2453 9.31351C7.05662 9.54348 6.717 9.54348 6.49058 9.35184C6.26417 9.1602 6.18869 8.85358 6.33964 8.58529C6.41511 8.43198 6.52832 8.31699 6.64152 8.16368C7.32077 7.24382 7.35851 6.28563 6.64152 5.36577C6.18869 4.79086 5.84907 4.21595 5.81134 3.48773C5.7736 2.79783 5.96228 2.14626 6.41511 1.57135C6.60379 1.30306 6.98115 1.26473 7.20756 1.41804C7.47171 1.60968 7.54718 1.9163 7.35851 2.22292C7.09435 2.64452 6.86794 3.06612 7.01888 3.52605C7.09435 3.83267 7.28303 4.17762 7.47171 4.44591C7.96228 5.17414 8.33964 5.90236 8.33964 6.47727Z" fill="#3F3F3F"/>
<path d="M20.1132 28.2857H0.641509C0.301887 28.2857 0 27.9407 0 27.5191C0 27.0975 0.301887 26.7526 0.641509 26.7526H20.1132C20.4528 26.7526 20.7547 27.0975 20.7547 27.5191C20.7547 27.9407 20.4906 28.2857 20.1132 28.2857Z" fill="#3F3F3F"/>
</g>
<defs>
<clipPath id="clip0_307_3558">
<rect width="24" height="28.2857" fill="white"/>
</clipPath>
</defs>
</svg>
