<svg width="24" height="29" viewBox="0 0 24 29" fill="none" xmlns="http://www.w3.org/2000/svg">
<g clip-path="url(#clip0_223_771)">
<path d="M10.151 25.1428C4.90575 25.1428 0.641602 20.8118 0.641602 15.4843V11.5366C0.641602 11.115 0.981224 10.7317 1.43405 10.7317H18.868C19.2831 10.7317 19.6605 11.0766 19.6605 11.5366V13.1463H20.2265C22.302 13.1463 24.0378 14.8711 24.0378 17.0174C24.0378 19.1254 22.3397 20.8885 20.2265 20.8885H18.0756L17.9624 21.0801C16.151 23.6097 13.2454 25.1428 10.151 25.1428ZM2.18877 15.4843C2.18877 19.9303 5.77368 23.5714 10.151 23.5714C12.4152 23.5714 14.5661 22.6132 16.0756 20.8885C17.3963 19.3937 18.1133 17.4773 18.1133 15.4843V12.3031H2.18877V15.4843ZM19.6605 15.4843C19.6605 16.5575 19.4718 17.6306 19.1322 18.6655L18.9435 19.2404H20.2265C21.4341 19.2404 22.4529 18.2439 22.4529 16.9791C22.4529 15.7526 21.4718 14.7178 20.2265 14.7178H19.6605V15.4843Z" fill="#3F3F3F"/>
<path d="M13.4718 1.30322C13.9246 1.37988 14.1887 1.80148 14.0378 2.18476C14.0001 2.26141 13.9623 2.33807 13.9246 2.41472C13.5095 3.10462 13.5472 3.71786 14.0378 4.40775C14.3397 4.86768 14.6793 5.32761 14.8303 5.82587C15.2076 6.9757 14.9435 8.01054 14.2265 8.96873C14.0755 9.16037 13.8869 9.352 13.6604 9.46699C13.434 9.58197 13.2454 9.46699 13.0944 9.27535C12.9435 9.08371 12.9057 8.85374 13.0189 8.62378C13.0944 8.47047 13.2076 8.35549 13.3208 8.20218C14.0378 7.28232 14.0378 6.2858 13.3208 5.40427C12.9812 4.98267 12.7171 4.56106 12.5661 4.02448C12.3774 3.14294 12.5284 2.37639 13.0567 1.6865C13.0944 1.49486 13.3208 1.41821 13.4718 1.30322Z" fill="#3F3F3F"/>
<path d="M10.7548 0.72832C10.717 0.804975 10.6793 0.919958 10.6038 1.07327C10.1887 1.76316 10.2265 2.41473 10.717 3.0663C11.0944 3.56456 11.434 4.06282 11.585 4.67606C11.8114 5.74923 11.585 6.66909 10.9434 7.55062C10.8302 7.70393 10.717 7.85724 10.5661 8.01055C10.3774 8.20219 10.0378 8.24052 9.81137 8.08721C9.58495 7.89557 9.47175 7.58895 9.62269 7.32066C9.69816 7.20567 9.77363 7.05236 9.88684 6.93738C10.6416 5.94086 10.6416 4.98268 9.88684 4.02449C9.35854 3.33459 9.01892 2.60637 9.13212 1.72484C9.16986 1.18825 9.39628 0.689993 9.69816 0.26839C9.84911 0.0384248 10.1133 -0.0382302 10.3774 0.0767524C10.6416 0.153407 10.7548 0.345045 10.7548 0.72832Z" fill="#3F3F3F"/>
<path d="M8.33964 6.47752C8.33964 7.78065 7.92454 8.58553 7.2453 9.31375C7.05662 9.54372 6.717 9.54372 6.49058 9.35208C6.26417 9.16044 6.18869 8.85382 6.33964 8.58553C6.41511 8.43222 6.52832 8.31724 6.64152 8.16393C7.32077 7.24407 7.35851 6.28588 6.64152 5.36602C6.18869 4.79111 5.84907 4.21619 5.81134 3.48797C5.7736 2.79807 5.96228 2.14651 6.41511 1.57159C6.60379 1.3033 6.98115 1.26497 7.20756 1.41828C7.47171 1.60992 7.54718 1.91654 7.35851 2.22316C7.09435 2.64476 6.86794 3.06637 7.01888 3.5263C7.09435 3.83292 7.28303 4.17787 7.47171 4.44616C7.96228 5.17438 8.33964 5.9026 8.33964 6.47752Z" fill="#3F3F3F"/>
<path d="M20.1132 28.2858H0.641509C0.301887 28.2858 0 27.9408 0 27.5192C0 27.0976 0.301887 26.7527 0.641509 26.7527H20.1132C20.4528 26.7527 20.7547 27.0976 20.7547 27.5192C20.7547 27.9408 20.4906 28.2858 20.1132 28.2858Z" fill="#3F3F3F"/>
</g>
<defs>
<clipPath id="clip0_223_771">
<rect width="24" height="28.2857" fill="white"/>
</clipPath>
</defs>
</svg>
