<svg width="17" height="14" viewBox="0 0 17 14" fill="none" xmlns="http://www.w3.org/2000/svg">
<g clip-path="url(#clip0_451_1999)">
<path d="M0.5712 13.5048C0.2584 13.5048 0 13.2464 0 12.9336V0.5576V0.544C0 0.5168 0 0.4896 0.0136 0.4624C0.0136 0.4488 0.0136 0.4488 0.0272 0.4352L0.0408 0.3944C0.0408 0.3808 0.0544 0.3672 0.0544 0.3536C0.0544 0.34 0.068 0.3264 0.068 0.3128L0.0816 0.272C0.0816 0.2584 0.0952 0.2584 0.0952 0.2448C0.1088 0.2176 0.1224 0.204 0.1496 0.1904C0.1496 0.1768 0.1632 0.1768 0.1632 0.1768C0.1904 0.136 0.2176 0.1224 0.2448 0.0952C0.2448 0.0952 0.2584 0.0816 0.272 0.0816L0.2992 0.068L0.3128 0.0544C0.3264 0.0408 0.34 0.0408 0.3536 0.0408C0.3672 0.0272 0.3944 0.0272 0.408 0.0272L0.4488 0.0136H0.4624C0.4896 0 0.5304 0 0.5712 0H16.4288C16.4696 0 16.4968 0 16.5376 0.0136H16.5512L16.592 0.0272C16.6056 0.0272 16.6192 0.0408 16.6328 0.0408C16.6464 0.0408 16.66 0.0544 16.6736 0.0544L16.6872 0.068L16.7144 0.0816C16.728 0.0816 16.728 0.0952 16.7416 0.0952C16.7688 0.1224 16.796 0.136 16.8232 0.1632C16.8232 0.1632 16.8368 0.1768 16.8504 0.1904C16.864 0.204 16.8912 0.2312 16.9048 0.2448C16.9048 0.2584 16.9184 0.2584 16.9184 0.272L16.932 0.3128C16.932 0.3264 16.9456 0.34 16.9456 0.3536C16.9456 0.3672 16.9592 0.3808 16.9592 0.3944L16.9728 0.4352C16.9728 0.4488 16.9728 0.4488 16.9864 0.4624C16.9864 0.4896 16.9864 0.5168 17 0.544C17 0.5576 17 0.5576 17 0.5712V12.9472C17 13.26 16.7416 13.5184 16.4288 13.5184H0.5712V13.5048ZM1.768 12.376H15.232L10.2544 7.4664L9.8464 7.8744C9.8328 7.888 9.8192 7.888 9.8192 7.9016C9.792 7.9288 9.7784 7.9288 9.7648 7.9424C9.7512 7.9424 9.7512 7.956 9.7376 7.956L9.6968 7.9696C9.6832 7.9696 9.6696 7.9832 9.6696 7.9832C9.656 7.9832 9.6424 7.9968 9.6288 7.9968L9.588 8.0104C9.5744 8.0104 9.5744 8.0104 9.5608 8.024C9.52 8.024 9.4792 8.024 9.4384 8.024H7.548C7.5072 8.024 7.48 8.024 7.4392 8.0104C7.4256 8.0104 7.4256 8.0104 7.412 7.9968L7.3712 7.9832C7.3576 7.9832 7.344 7.9696 7.3304 7.9696C7.3168 7.9696 7.3032 7.956 7.3032 7.956L7.2624 7.9424C7.2488 7.9424 7.2488 7.9288 7.2352 7.9288C7.208 7.9152 7.1944 7.9016 7.1672 7.8744L7.1536 7.8608L6.7456 7.4528L1.768 12.376ZM11.0568 6.664L15.8576 11.3968V1.9312L11.0568 6.664ZM1.1424 11.3968L5.9432 6.664L1.1424 1.9312V11.3968ZM7.7928 6.8952H9.2208L15.0552 1.1424H1.9584L7.7928 6.8952Z" fill="#3F3F3F"/>
</g>
<defs>
<clipPath id="clip0_451_1999">
<rect width="17" height="13.5048" fill="white"/>
</clipPath>
</defs>
</svg>
