<svg width="24" height="25" viewBox="0 0 24 25" fill="none" xmlns="http://www.w3.org/2000/svg">
<g clip-path="url(#clip0_307_3609)">
<path d="M18.6325 25C17.2215 25 16.5702 25 15.1592 25C14.1462 25 8.75547 25 8.75547 25C8.32132 25 7.34448 25 6.9465 25C6.25909 25 5.57168 25 4.92045 24.9638C2.71351 24.9276 0.795995 23.4081 0.217123 21.2735C0.144764 21.0564 0.108585 20.8394 0.0724055 20.5861C0.0362261 20.4776 0.0362261 20.369 4.66369e-05 20.2605V19.7902C4.66369e-05 19.754 0.0362261 19.7178 0.0724055 19.6816C0.144764 19.5731 0.217123 19.4284 0.180944 19.3198C0.180944 19.1751 0.108585 19.0304 0.0724055 18.8857C0.0362261 18.8133 0.0362261 18.7771 4.66369e-05 18.7048V18.0897C0.217123 17.2576 0.651277 16.7149 1.37487 16.4255C1.44722 16.3893 1.51958 16.2808 1.51958 16.2084C1.51958 15.8104 1.51958 15.4486 1.51958 15.0507V14.5803H1.04925C0.976892 14.5803 0.904533 14.5803 0.832174 14.5803C0.795994 14.5803 0.759815 14.5803 0.723636 14.5803C0.325662 14.5803 0.0724055 14.3994 -0.0361328 14.0014V13.4949L4.66369e-05 13.2055C0.0362261 12.9884 0.0724055 12.7352 0.108585 12.5181C0.795995 8.71925 4.16068 5.78871 8.03189 5.75253C8.5384 5.75253 11.2519 5.75253 11.2519 5.75253V4.19682C11.2519 3.03907 11.2519 1.88133 11.2519 0.759768C11.2519 0.578871 11.3242 0.397974 11.4328 0.253256C11.5413 0.0723589 11.686 0 11.8669 0C11.9754 0 12.1202 0.0361795 12.2649 0.108538L14.2186 1.01302C15.1231 1.44718 16.0275 1.88133 16.932 2.27931C17.2576 2.42402 17.4024 2.6411 17.4024 2.93054C17.4024 3.21997 17.2215 3.43705 16.8597 3.54559C15.919 3.8712 14.9422 4.233 14.0015 4.59479L12.9161 4.99276C12.5181 5.13748 12.482 5.20984 12.5905 5.60781L12.6267 5.68017H14.6165C15.0869 5.68017 14.8336 5.68017 15.3401 5.68017C15.7019 5.68017 16.0999 5.68017 16.5341 5.71635C20.6223 6.22287 23.7699 9.69609 23.8061 13.8567C23.8061 14.3271 23.5529 14.5803 23.0825 14.5803H22.2866V15.0868C22.2866 15.4124 22.2866 15.7019 22.2866 16.0275C22.2866 16.2446 22.3589 16.3893 22.576 16.4978C23.5167 16.932 24.0232 17.9812 23.7338 18.958C23.6614 19.2113 23.589 19.4645 23.8061 19.7178C23.8423 19.754 23.8423 19.8625 23.8423 19.9349C23.8423 20.5137 23.7338 21.0926 23.5167 21.6715C22.9016 23.2996 21.2012 24.9638 18.7048 24.9638L18.6325 25ZM1.37487 20.767C1.37487 20.8032 1.37487 20.8394 1.37487 20.8394C1.77284 22.5398 3.2562 23.6975 5.10135 23.6975C7.27212 23.6975 8.71929 23.6975 10.8901 23.6975H18.7048C19.7178 23.6975 20.6223 23.3357 21.3459 22.6845C21.9248 22.1418 22.2866 21.4906 22.4675 20.7308L22.5037 20.5861H1.37487V20.767ZM2.20699 17.5832C2.13463 17.5832 2.09845 17.5832 2.0261 17.5832C1.77284 17.6194 1.55576 17.7641 1.41105 17.9812C1.26633 18.1983 1.23015 18.4877 1.33869 18.7048C1.4834 19.1028 1.80902 19.2836 2.31553 19.2836H10.3112L10.0579 18.9942C10.0218 18.958 9.98557 18.8857 9.9494 18.8495L9.62378 18.5239C9.4067 18.3068 9.18963 18.0897 8.97255 17.8726C8.75547 17.6556 8.50222 17.547 8.1766 17.547C6.98268 17.547 6.51235 17.547 5.35461 17.547L2.20699 17.5832ZM15.5934 17.5832C15.1954 17.5832 15.1231 17.6556 14.7613 18.0174C14.6889 18.0897 14.5804 18.1983 14.4356 18.3068C14.2548 18.4877 14.11 18.6686 13.9291 18.8495C13.8568 18.9219 13.7844 19.0304 13.6759 19.1027L13.495 19.2836H21.5268C21.5992 19.2836 21.7077 19.2836 21.7801 19.2475C22.178 19.1751 22.4675 18.8133 22.4675 18.4153C22.4675 18.0174 22.178 17.6556 21.8163 17.5832C21.7077 17.547 21.5992 17.547 21.4545 17.547H17.8727C17.0767 17.547 17.0044 17.547 16.1723 17.547H16.0999C15.9552 17.547 15.8105 17.547 15.7019 17.547L15.5934 17.5832ZM8.14042 16.3169C8.82783 16.3169 9.37052 16.534 9.84086 17.0405C10.2388 17.4747 10.673 17.8726 11.1071 18.3068L11.6136 18.8133C11.6498 18.8495 11.686 18.8857 11.7222 18.9219L11.8669 19.0666L12.1563 18.8133L12.699 18.3068C13.1332 17.9088 13.5673 17.4747 13.9653 17.0767C14.4356 16.6064 14.9783 16.3893 15.6296 16.3893C16.4617 16.3893 16.5341 16.3893 17.3662 16.3893H20.9841V14.6889H2.82204V16.3893H6.43999C7.23594 16.3169 7.3083 16.3169 8.14042 16.3169ZM12.3372 6.98263C10.7092 6.98263 9.7685 6.98263 8.14042 6.98263C6.43999 6.98263 4.92045 7.59768 3.61799 8.75543C2.35171 9.91317 1.55576 11.3965 1.33869 13.1693V13.2779H22.5037V13.097C22.5037 13.0608 22.5037 13.0246 22.5037 12.9884C22.0695 9.58755 19.139 6.98263 15.7381 6.94645C14.3271 6.98263 13.7121 6.98263 12.3372 6.98263ZM12.5543 3.79884L15.1231 2.85818L12.5543 1.62808V3.79884Z" fill="#3F3F3F"/>
</g>
<defs>
<clipPath id="clip0_307_3609">
<rect width="23.8061" height="25" fill="white"/>
</clipPath>
</defs>
</svg>
