<svg width="17" height="17" viewBox="0 0 17 17" fill="none" xmlns="http://www.w3.org/2000/svg">
<path d="M8.30554 17C3.72902 17 0 13.1837 0 8.5C0 3.81633 3.72902 0 8.30554 0C12.8821 0 16.6111 3.81633 16.6111 8.5C16.6111 13.1837 12.8821 17 8.30554 17ZM8.30554 1.00928C4.26834 1.00928 0.986186 4.36828 0.986186 8.5C0.986186 12.6317 4.26834 15.9907 8.30554 15.9907C12.3427 15.9907 15.6249 12.6317 15.6249 8.5C15.6249 4.36828 12.3427 1.00928 8.30554 1.00928Z" fill="white"/>
<path d="M8.30591 17C5.70176 17 3.65234 13.2625 3.65234 8.5C3.65234 3.73748 5.70176 0 8.30591 0C10.9101 0 12.9595 3.73748 12.9595 8.5C12.9595 13.2625 10.9101 17 8.30591 17ZM8.30591 1.00928C6.31813 1.00928 4.63853 4.43136 4.63853 8.5C4.63853 12.5529 6.31813 15.9907 8.30591 15.9907C10.2937 15.9907 11.9733 12.5687 11.9733 8.5C11.9733 4.44713 10.2937 1.00928 8.30591 1.00928Z" fill="white"/>
<path d="M8.30591 5.26716C5.94831 5.26716 3.68316 4.69944 2.12684 3.70593C1.8957 3.564 1.81865 3.2486 1.97275 3.01205C2.11143 2.7755 2.41961 2.69665 2.65075 2.85435C4.06839 3.75324 6.11781 4.25788 8.30591 4.25788C10.494 4.25788 12.5588 3.75324 13.9611 2.85435C14.1922 2.71242 14.5004 2.7755 14.6391 3.01205C14.7778 3.2486 14.7161 3.564 14.485 3.70593C12.9287 4.69944 10.6635 5.26716 8.30591 5.26716Z" fill="white"/>
<path d="M14.2221 14.2245C14.1296 14.2245 14.0372 14.193 13.9601 14.1456C12.5425 13.2468 10.493 12.7421 8.30494 12.7421C6.11684 12.7421 4.05202 13.2468 2.64978 14.1456C2.41864 14.2876 2.11046 14.2245 1.97178 13.9879C1.8331 13.7514 1.89473 13.436 2.12587 13.2941C3.6822 12.3006 5.94734 11.7328 8.30494 11.7328C10.6625 11.7328 12.9277 12.3006 14.484 13.2941C14.7152 13.436 14.7922 13.7514 14.6381 13.9879C14.5457 14.1456 14.3916 14.2245 14.2221 14.2245Z" fill="white"/>
<path d="M8.30559 17C8.02823 17 7.8125 16.7792 7.8125 16.4954V0.50464C7.8125 0.220781 8.02823 0 8.30559 0C8.58296 0 8.79869 0.220781 8.79869 0.50464V16.4954C8.79869 16.7792 8.58296 17 8.30559 17Z" fill="white"/>
<path d="M16.118 9.00465H0.493093C0.215728 9.00465 0 8.78387 0 8.50001C0 8.21614 0.215728 7.99536 0.493093 7.99536H16.118C16.3953 7.99536 16.6111 8.21614 16.6111 8.50001C16.6111 8.78387 16.3953 9.00465 16.118 9.00465Z" fill="white"/>
</svg>
