<svg width="17" height="18" viewBox="0 0 17 18" fill="none" xmlns="http://www.w3.org/2000/svg">
<path d="M8.30554 17.1077C3.72902 17.1077 0 13.2913 0 8.60767C0 3.924 3.72902 0.107666 8.30554 0.107666C12.8821 0.107666 16.6111 3.924 16.6111 8.60767C16.6111 13.2913 12.8821 17.1077 8.30554 17.1077ZM8.30554 1.11695C4.26834 1.11695 0.986186 4.47594 0.986186 8.60767C0.986186 12.7394 4.26834 16.0984 8.30554 16.0984C12.3427 16.0984 15.6249 12.7394 15.6249 8.60767C15.6249 4.47594 12.3427 1.11695 8.30554 1.11695Z" fill="#3F3F3F"/>
<path d="M8.30591 17.1077C5.70176 17.1077 3.65234 13.3702 3.65234 8.60767C3.65234 3.84515 5.70176 0.107666 8.30591 0.107666C10.9101 0.107666 12.9595 3.84515 12.9595 8.60767C12.9595 13.3702 10.9101 17.1077 8.30591 17.1077ZM8.30591 1.11695C6.31813 1.11695 4.63853 4.53902 4.63853 8.60767C4.63853 12.6605 6.31813 16.0984 8.30591 16.0984C10.2937 16.0984 11.9733 12.6763 11.9733 8.60767C11.9733 4.55479 10.2937 1.11695 8.30591 1.11695Z" fill="#3F3F3F"/>
<path d="M8.30591 5.37483C5.94831 5.37483 3.68316 4.8071 2.12684 3.8136C1.8957 3.67167 1.81865 3.35627 1.97275 3.11972C2.11143 2.88317 2.41961 2.80432 2.65075 2.96202C4.06839 3.86091 6.11781 4.36555 8.30591 4.36555C10.494 4.36555 12.5588 3.86091 13.9611 2.96202C14.1922 2.82009 14.5004 2.88317 14.6391 3.11972C14.7778 3.35627 14.7161 3.67167 14.485 3.8136C12.9287 4.8071 10.6635 5.37483 8.30591 5.37483Z" fill="#3F3F3F"/>
<path d="M14.2221 14.3322C14.1296 14.3322 14.0372 14.3006 13.9601 14.2533C12.5425 13.3544 10.493 12.8498 8.30494 12.8498C6.11684 12.8498 4.05202 13.3544 2.64978 14.2533C2.41864 14.3952 2.11046 14.3322 1.97178 14.0956C1.8331 13.8591 1.89473 13.5437 2.12587 13.4017C3.6822 12.4082 5.94734 11.8405 8.30494 11.8405C10.6625 11.8405 12.9277 12.4082 14.484 13.4017C14.7152 13.5437 14.7922 13.8591 14.6381 14.0956C14.5457 14.2533 14.3916 14.3322 14.2221 14.3322Z" fill="#3F3F3F"/>
<path d="M8.30559 17.1077C8.02823 17.1077 7.8125 16.8869 7.8125 16.603V0.612306C7.8125 0.328447 8.02823 0.107666 8.30559 0.107666C8.58296 0.107666 8.79869 0.328447 8.79869 0.612306V16.603C8.79869 16.8869 8.58296 17.1077 8.30559 17.1077Z" fill="#3F3F3F"/>
<path d="M16.118 9.11232H0.493093C0.215728 9.11232 0 8.89153 0 8.60767C0 8.32381 0.215728 8.10303 0.493093 8.10303H16.118C16.3953 8.10303 16.6111 8.32381 16.6111 8.60767C16.6111 8.89153 16.3953 9.11232 16.118 9.11232Z" fill="#3F3F3F"/>
</svg>
