<svg width="25" height="25" viewBox="0 0 25 25" fill="none" xmlns="http://www.w3.org/2000/svg">
<g clip-path="url(#clip0_989_3002)">
<path d="M25.0003 16.3068C24.9716 16.1932 24.943 16.0795 24.9143 15.9375C24.8571 15.6818 24.7998 15.3977 24.7139 15.142C24.2843 13.9205 23.4825 12.983 22.3084 12.3295C22.1079 12.2159 22.0507 12.1023 22.0507 11.9034C22.0507 9.40341 22.0507 6.61932 22.0507 4.09091C22.0507 3.92045 22.1366 3.77841 22.3084 3.69318C23.1102 3.29545 23.5111 2.67045 23.5398 1.78977C23.5398 1.36364 23.5398 1.30682 23.5398 0.994318V0.198864L23.5111 0.170455C23.4539 0.0852273 23.3393 0 23.1961 0H22.5948C22.4516 0 22.337 0.0852273 22.3084 0.198864H22.2798V1.96023C22.2798 2.61364 21.9647 2.67045 21.2775 2.67045C21.2775 2.67045 18.872 2.67045 18.3851 2.67045C17.4974 2.67045 16.6383 2.67045 15.7505 2.67045C15.3783 2.67045 15.1492 2.78409 14.8914 3.03977C14.6051 3.35227 14.2901 3.63636 14.0037 3.94886L13.746 4.20455L13.7173 4.23295L13.6887 4.26136C13.6314 4.31818 13.5741 4.40341 13.5741 4.48864C13.5741 4.57386 13.6028 4.65909 13.66 4.71591L14.061 5.14205C14.1182 5.19886 14.2041 5.25568 14.2901 5.25568C14.376 5.25568 14.4619 5.22727 14.5192 5.17045L14.6051 5.11364L14.7482 4.97159L14.8342 4.91477L14.8055 4.88636H14.8342C15.0919 4.63068 15.3496 4.375 15.6074 4.11932C15.6933 4.03409 15.8651 3.97727 15.9796 3.94886C16.266 3.94886 16.581 3.94886 16.8674 3.94886H17.8124V12.1023L12.3141 13.1818L10.4527 8.57955H13.2305C13.4023 8.57955 13.5455 8.4375 13.5455 8.26705V7.69886C13.5455 7.52841 13.4023 7.38636 13.2305 7.38636H8.10449C7.53175 7.38636 7.18811 7.04545 7.18811 6.47727C7.18811 6.33523 7.18811 6.19318 7.18811 6.02273V5.90909C7.18811 5.73864 7.04493 5.59659 6.87311 5.59659H6.30037C6.12855 5.59659 5.98536 5.73864 5.98536 5.90909V6.50568C5.98536 7.64205 6.95902 8.60795 8.10449 8.60795C8.21904 8.60795 8.33359 8.60795 8.44813 8.60795H9.13542L11.0827 13.4375C10.9682 13.4659 10.6245 13.5227 10.4814 13.5511C10.1377 13.608 9.79407 13.6932 9.45043 13.7784C9.39315 13.7784 9.36452 13.8068 9.30724 13.8068C9.13542 13.8068 9.04951 13.7216 8.9636 13.608C7.90403 12.3864 6.61537 11.7614 5.12626 11.7614C4.83989 11.7614 4.58216 11.7898 4.29579 11.8182C1.91893 12.1591 0.0575275 14.2045 0.000253777 16.5625C-0.0856569 19.0625 1.57528 21.1648 4.00942 21.6761L4.41033 21.7614V23.7784H1.54665C1.37482 23.7784 1.23164 23.9205 1.23164 24.0909V24.6591C1.23164 24.8295 1.37482 24.9716 1.54665 24.9716H23.1961C23.368 24.9716 23.5111 24.8295 23.5111 24.6591V24.0909C23.5111 23.9205 23.368 23.7784 23.1961 23.7784H20.5902V21.875V21.7898L20.6761 21.7614C20.7047 21.7614 20.7334 21.733 20.7334 21.733C20.762 21.733 20.7906 21.7045 20.8479 21.7045H20.8765C22.8811 21.25 24.1984 20.0568 24.7998 18.0966C24.8571 17.8977 24.8857 17.7273 24.943 17.5C24.9716 17.4148 24.9716 17.3295 25.0003 17.2159V16.3068ZM19.3015 23.7784H5.69899V21.7614L5.95673 21.7045C6.07127 21.6761 6.21446 21.6477 6.32901 21.6193C7.38857 21.3352 8.27631 20.767 8.9636 19.9432C9.04951 19.858 9.13542 19.7443 9.30724 19.7443C9.33588 19.7443 9.39315 19.7443 9.45043 19.7443C11.8846 20.2273 14.3187 20.7102 16.7242 21.1932L19.0438 21.6477C19.0724 21.6477 19.1297 21.6761 19.1583 21.6761L19.3015 21.7045V23.7784ZM7.1022 14.233C6.84447 14.2898 6.61537 14.3466 6.35764 14.375C6.12855 14.4318 5.89945 14.4602 5.67036 14.517C5.32671 14.5739 4.95443 14.6591 4.61079 14.7443C3.55123 14.9716 2.86394 15.9091 2.94985 16.9886C3.03576 17.8693 3.75169 18.6364 4.6967 18.8352C5.26944 18.9489 5.84218 19.0625 6.44355 19.2045L7.27402 19.375C7.30266 19.375 7.35993 19.4034 7.41721 19.4034L7.70358 19.4602L7.56039 19.6023C6.93038 20.1989 5.98536 20.5682 5.04035 20.5682C4.06669 20.5682 3.12167 20.1989 2.40575 19.4886C1.66119 18.7784 1.26028 17.8125 1.26028 16.7898C1.26028 15.767 1.66119 14.8011 2.40575 14.0909C3.12167 13.3807 4.06669 13.0114 5.06898 13.0114C6.04264 13.0114 6.95902 13.3523 7.58903 13.9773L7.73221 14.1193L7.1022 14.233ZM20.0174 20.5398C19.5306 20.5398 19.0724 20.4545 18.6142 20.3409L5.41262 17.6989C5.26944 17.6705 5.12626 17.642 4.95443 17.6136C4.52488 17.5284 4.20988 17.1875 4.20988 16.7898C4.20988 16.3636 4.49624 16.0227 4.95443 15.9375L5.84218 15.767C10.3095 14.858 14.7769 13.9773 19.2442 13.0682C19.4161 13.0398 19.5592 13.0114 19.7311 13.0114C19.817 13.0114 19.8743 13.0114 19.9602 12.983H19.9888C21.1056 12.983 22.1938 13.4943 22.9098 14.375C23.6257 15.2557 23.9121 16.3352 23.7116 17.4432C23.4252 19.0341 22.0793 20.3125 20.4756 20.5114C20.3038 20.5398 20.1606 20.5398 20.0174 20.5398ZM20.7906 3.92045V11.7614H19.1011V3.92045H20.7906Z" fill="#3F3F3F"/>
<path d="M20.5902 14.7727C20.3897 14.7159 20.1607 14.6591 19.9602 14.6591C19.1584 14.6591 18.4138 15.142 18.0702 15.8522C17.9556 16.1079 17.7838 16.1079 17.6406 16.1079C17.297 16.1079 16.9247 16.1079 16.581 16.1079H14.7196C14.5765 16.1079 14.4619 16.2216 14.4619 16.3636V17.1306C14.4619 17.2727 14.5765 17.3863 14.7196 17.3863H15.1206C15.1492 17.3863 15.1492 17.3863 15.1778 17.3863H16.2374C16.6956 17.3863 17.1538 17.3863 17.612 17.3863C17.8124 17.3863 17.9556 17.4432 18.0702 17.6704C18.4424 18.4091 19.0438 18.8068 19.8743 18.8636C19.9029 18.8636 19.9316 18.8636 19.9602 18.8636C20.9911 18.8636 21.8502 18.125 22.0221 17.0738C22.1939 16.0795 21.5639 15.0852 20.5902 14.7727ZM20.7907 16.7613C20.7907 17.2159 20.3897 17.6136 19.9316 17.6136C19.7025 17.6136 19.502 17.5284 19.3302 17.3579C19.1584 17.1875 19.0725 16.9886 19.0725 16.7613C19.0725 16.3068 19.4734 15.9375 19.9316 15.9375V15.9091V15.9375C20.3897 15.9375 20.7907 16.3068 20.7907 16.7613Z" fill="#3F3F3F"/>
</g>
<defs>
<clipPath id="clip0_989_3002">
<rect width="25" height="25" fill="white"/>
</clipPath>
</defs>
</svg>
