<svg width="25" height="24" viewBox="0 0 25 24" fill="none" xmlns="http://www.w3.org/2000/svg">
<g clip-path="url(#clip0_989_2967)">
<path d="M24.3837 19.2195C24.0609 19.2195 23.7381 19.1315 23.4447 18.9261C22.8872 18.574 22.3297 18.3979 21.7722 18.3979C21.2146 18.3979 20.6571 18.574 20.0996 18.8968C19.7769 19.1022 19.4541 19.1902 19.1313 19.1902C18.8085 19.1902 18.4858 19.1022 18.1337 18.8968C17.8989 18.7794 17.6055 18.6327 17.3121 18.5447C17.048 18.4566 16.7546 18.4273 16.4905 18.4273C15.933 18.4273 15.3754 18.6033 14.8179 18.9261C14.4952 19.1315 14.1724 19.2195 13.879 19.2195C13.5562 19.2195 13.2334 19.1315 12.9107 18.9261C12.3531 18.574 11.7956 18.4273 11.2381 18.4273C10.6806 18.4273 10.1231 18.6033 9.56559 18.9261C9.24282 19.1315 8.92005 19.2195 8.59728 19.2195C8.27451 19.2195 7.95174 19.1315 7.65831 18.9261C7.1008 18.574 6.54329 18.3979 5.98578 18.3979C5.42827 18.3979 4.87075 18.574 4.31324 18.8968C4.13719 19.0141 3.93179 19.1022 3.75573 19.1315C3.60902 19.1609 3.4623 19.1902 3.31559 19.1902C3.02216 19.1902 2.72874 19.1022 2.43531 18.9261C1.8778 18.574 1.37897 18.3979 0.93883 18.3979H0.880144C0.381318 18.3979 0.117233 18.574 0.0878906 18.9555C0.0878906 19.1315 0.117233 19.2782 0.234604 19.3956C0.351975 19.513 0.498689 19.5717 0.674745 19.5717C1.02686 19.5717 1.32028 19.689 1.76043 19.9238C2.28859 20.2172 2.81676 20.3933 3.31559 20.3933C3.84376 20.3933 4.37193 20.2465 4.87075 19.9238C5.22287 19.689 5.57498 19.601 5.92709 19.601C6.2792 19.601 6.63132 19.7184 6.98343 19.9238C7.48226 20.2465 8.01043 20.3933 8.53859 20.3933C9.06676 20.3933 9.59493 20.2465 10.1231 19.9238C10.4752 19.689 10.8273 19.601 11.1794 19.601C11.5316 19.601 11.8837 19.7184 12.2358 19.9238C12.7639 20.2465 13.2921 20.3933 13.8203 20.3933C14.3485 20.3933 14.906 20.2172 15.4048 19.9238C15.7569 19.7184 16.109 19.601 16.4318 19.601C16.7546 19.601 17.1067 19.7184 17.4588 19.9238C17.9869 20.2465 18.5151 20.4226 19.0726 20.4226C19.6008 20.4226 20.1583 20.2465 20.7158 19.9238C20.9506 19.7771 21.1266 19.689 21.3027 19.6597C21.4494 19.6303 21.5961 19.601 21.7428 19.601C22.0362 19.601 22.3297 19.689 22.5938 19.8651C23.1806 20.2465 23.7088 20.3933 24.2369 20.3933H24.2663C24.6477 20.3933 24.9118 20.1585 24.9118 19.8064C24.9999 19.4836 24.7358 19.2195 24.3837 19.2195Z" fill="#3F3F3F"/>
<path d="M24.3837 22.4472C24.0609 22.4472 23.7381 22.3592 23.4447 22.1538C22.8872 21.8017 22.3297 21.6256 21.7722 21.6256C21.2146 21.6256 20.6571 21.8017 20.0996 22.1244C19.7769 22.3298 19.4541 22.4179 19.1313 22.4179C18.8085 22.4179 18.4858 22.3298 18.1337 22.1244C17.8989 22.0071 17.6055 21.8604 17.3121 21.7723C17.048 21.6843 16.7546 21.655 16.4905 21.655C15.933 21.655 15.3754 21.831 14.8179 22.1538C14.4952 22.3592 14.1724 22.4472 13.879 22.4472C13.5562 22.4472 13.2334 22.3592 12.9107 22.1538C12.3531 21.8017 11.7956 21.655 11.2381 21.655C10.6806 21.655 10.1231 21.831 9.56559 22.1538C9.24282 22.3592 8.92005 22.4472 8.59728 22.4472C8.27451 22.4472 7.95174 22.3592 7.65831 22.1538C7.1008 21.8017 6.54329 21.6256 5.98578 21.6256C5.42827 21.6256 4.87075 21.8017 4.31324 22.1244C4.13719 22.2418 3.93179 22.3298 3.75573 22.3592C3.60902 22.3885 3.4623 22.4179 3.31559 22.4179C3.02216 22.4179 2.72874 22.3298 2.43531 22.1538C1.8778 21.8017 1.37897 21.6256 0.93883 21.6256H0.880144C0.381318 21.6256 0.117233 21.8017 0.0878906 22.1831C0.0878906 22.3592 0.117233 22.5059 0.234604 22.6233C0.351975 22.7406 0.498689 22.7993 0.674745 22.7993C1.02686 22.7993 1.32028 22.9167 1.76043 23.1514C2.28859 23.4449 2.81676 23.6209 3.31559 23.6209C3.84376 23.6209 4.37193 23.4742 4.87075 23.1514C5.22287 22.9167 5.57498 22.8287 5.92709 22.8287C6.2792 22.8287 6.63132 22.946 6.98343 23.1514C7.48226 23.4742 8.01043 23.6209 8.53859 23.6209C9.06676 23.6209 9.59493 23.4742 10.1231 23.1514C10.4752 22.9167 10.8273 22.8287 11.1794 22.8287C11.5316 22.8287 11.8837 22.946 12.2358 23.1514C12.7639 23.4742 13.2921 23.6209 13.8203 23.6209C14.3485 23.6209 14.906 23.4449 15.4048 23.1514C15.7569 22.946 16.109 22.8287 16.4318 22.8287C16.7546 22.8287 17.1067 22.946 17.4588 23.1514C17.9869 23.4742 18.5151 23.6503 19.0726 23.6503C19.6008 23.6503 20.1583 23.4742 20.7158 23.1514C20.9506 23.0047 21.1266 22.9167 21.3027 22.8873C21.4494 22.858 21.5961 22.8287 21.7428 22.8287C22.0362 22.8287 22.3297 22.9167 22.5938 23.0927C23.1806 23.4742 23.7088 23.6209 24.2369 23.6209H24.2663C24.6477 23.6209 24.9118 23.3862 24.9118 23.0341C24.9999 22.7113 24.7358 22.4472 24.3837 22.4472Z" fill="#3F3F3F"/>
<path d="M0.880259 14.3192C1.3204 14.8768 1.7312 15.4636 2.17134 16.0211C2.34739 16.2559 2.58214 16.3732 2.90491 16.3732H4.04927C5.42838 16.3732 8.392 16.3732 8.392 16.3732C9.47768 16.3732 15.0528 16.3732 16.9894 16.3439C20.1584 16.3146 22.1244 15.0235 24.0903 12.1185C24.3544 11.7371 24.5305 11.3263 24.7359 10.9448L24.9119 10.6221L25.0587 10.2993V7.39437L24.9413 7.33568L24.8533 7.24765C24.7946 7.18897 24.7359 7.13028 24.6479 7.0716C24.4425 6.92488 24.2371 6.80751 24.061 6.69014C22.8873 5.92723 19.3075 3.49178 15.1995 2.87559C14.6713 2.78756 14.3779 2.64085 14.0551 2.28873C13.1162 1.20305 11.9131 0.469484 10.5047 0.0586854C10.358 0.0293427 10.2406 0 10.0939 0C9.65373 0 9.24293 0.205399 8.94951 0.557512C8.68542 0.909624 8.59739 1.37911 8.71477 1.81925C8.86148 2.31808 9.21359 2.67019 9.74176 2.84624C10.8568 3.19836 11.7664 3.90258 12.4413 4.87089C12.4706 4.92958 12.5 4.92958 12.4413 5.01761C12.2652 5.4284 12.1479 5.80986 12.0305 6.16197C11.9718 6.39671 11.9425 6.63146 11.8838 6.8662L11.8544 6.95423H10.9448C10.8568 5.98592 10.2699 5.34038 9.30162 5.19366C9.09622 5.16432 8.89082 5.13498 8.68542 5.10563H8.50937C8.1866 5.07629 7.89317 5.01761 7.5704 4.98826C6.86617 4.90023 6.10326 4.78286 5.36969 4.72418C5.28167 4.72418 5.22298 4.72418 5.13495 4.72418C4.07862 4.72418 3.28636 5.51643 3.28636 6.63146C3.28636 6.77817 3.28636 6.89554 3.28636 7.04225C2.55279 7.13028 2.142 7.59977 2.142 8.36268C2.142 8.42136 2.142 9.38967 2.142 9.44836C2.142 9.56573 2.142 9.71244 2.142 9.82981C2.142 9.94718 2.11265 10.0352 2.05397 10.0939C1.64317 10.6514 1.23237 11.1796 0.792231 11.7664L0.234719 12.5C-0.0587084 12.8815 -0.0587084 13.0869 0.234719 13.4683L0.880259 14.3192ZM10.3873 1.78991C10.3286 1.76056 10.2993 1.76056 10.2406 1.73122C10.1819 1.70188 10.1232 1.70188 10.0645 1.67254C9.91782 1.61385 9.85913 1.49648 9.88847 1.37911C9.91782 1.26174 10.0058 1.20305 10.0939 1.20305C10.1232 1.20305 10.1526 1.20305 10.1819 1.23239C10.446 1.32042 10.6807 1.40845 10.9155 1.49648C11.9425 1.93662 12.7934 2.6115 13.4976 3.49178L13.2042 3.87324C12.4413 2.87559 11.5317 2.2007 10.3873 1.78991ZM4.48941 6.4554C4.51876 6.13263 4.78284 5.89789 5.13495 5.89789C5.1643 5.89789 5.19364 5.89789 5.19364 5.89789C5.66312 5.95657 6.13261 6.01526 6.60209 6.07394L7.07157 6.13263C7.51171 6.19131 7.95185 6.25 8.392 6.30869L9.06688 6.39671C9.3603 6.42606 9.71242 6.57277 9.74176 6.98357H4.46007V6.95423C4.48941 6.77817 4.48941 6.63146 4.48941 6.4554ZM3.34505 8.27465C3.34505 8.24531 3.34505 8.21596 3.34505 8.21596C3.34505 8.21596 3.34505 8.21596 3.40373 8.21596C3.46242 8.21596 3.5211 8.21596 3.55045 8.21596H12.2065C12.9108 8.21596 13.0575 8.06925 13.0868 7.36502C13.1455 6.07394 13.6737 4.95892 14.642 4.10798C14.7007 4.0493 14.7594 4.01995 14.8474 4.01995C14.8767 4.01995 14.9061 4.01995 14.9354 4.01995C18.6619 4.57746 20.7746 5.95657 23.6502 7.86385C23.7676 7.95188 23.7676 7.95188 23.7676 8.03991C23.7676 8.24531 23.7676 9.30164 23.7676 9.50704V9.53638H3.34505C3.34505 9.41901 3.34505 8.42136 3.34505 8.27465ZM1.40843 12.9401C1.5258 12.7934 1.64317 12.6174 1.76054 12.4707C1.78988 12.4413 2.43542 11.561 2.46477 11.561L2.61148 11.385C2.78754 11.1796 2.93425 10.9742 3.05162 10.7981C3.05162 10.7981 3.08096 10.7981 3.11031 10.7981H3.25702C8.21594 10.7981 21.2734 10.7981 23.4742 10.7981C22.007 13.4683 20.4519 14.7887 17.723 15.1115C17.4002 15.1408 17.0481 15.1408 16.8134 15.1408C16.8134 15.1408 6.19129 15.1408 3.25702 15.1408C3.11031 15.1408 3.05162 15.1115 2.99293 14.9941C2.87556 14.8181 2.75819 14.6714 2.64082 14.4953L2.58214 14.4366C1.9366 13.615 1.7312 13.3509 1.70185 13.2923C1.64317 13.1749 1.55514 13.0869 1.43777 12.9401H1.40843Z" fill="#3F3F3F"/>
</g>
<defs>
<clipPath id="clip0_989_2967">
<rect width="25" height="23.6796" fill="white"/>
</clipPath>
</defs>
</svg>
