<svg width="23" height="23" viewBox="0 0 23 23" fill="none" xmlns="http://www.w3.org/2000/svg">
<g clip-path="url(#clip0_223_717)">
<path d="M12.1798 22.9998C11.7268 22.9998 11.2865 22.9998 10.8335 22.9998C10.7832 22.9872 10.7329 22.9746 10.6825 22.9621C8.63165 22.8111 6.75692 22.1316 5.07093 20.9615C4.94511 20.8734 4.85703 20.886 4.73121 20.9489C3.95112 21.3012 3.07038 21.1377 2.46644 20.5463C1.87508 19.955 1.68635 19.0742 2.03865 18.3193C2.12672 18.1306 2.08898 18.0173 1.98832 17.8537C1.06983 16.5075 0.453311 15.0354 0.189088 13.4249C0.113596 13.0097 0.0758497 12.5819 0.0129395 12.1667C0.0129395 11.7137 0.0129395 11.2733 0.0129395 10.8204C0.0255215 10.7575 0.0381036 10.6946 0.0506856 10.6316C0.189088 8.60593 0.868519 6.75637 2.01349 5.08296C2.10156 4.95714 2.11414 4.86906 2.03865 4.71808C1.68635 3.95057 1.83734 3.08241 2.42869 2.47847C3.02005 1.86195 3.9008 1.6858 4.68088 2.0381C4.86961 2.12617 4.98285 2.08843 5.14642 1.98777C6.94565 0.754731 8.9462 0.0752996 11.1355 -0.000192721C13.6141 -0.0756851 15.8789 0.603746 17.9172 2.00035C18.043 2.08843 18.1311 2.10101 18.2821 2.0381C19.0496 1.67322 19.9429 1.83679 20.5469 2.42814C21.1508 3.0195 21.3269 3.91283 20.9746 4.68033C20.8992 4.85648 20.9243 4.95714 21.025 5.09554C22.2454 6.89477 22.9249 8.88274 23.0004 11.0594C23.0884 13.5507 22.409 15.8155 21.0124 17.8789C20.9243 18.0173 20.8992 18.118 20.9746 18.2815C21.3269 19.049 21.1634 19.9424 20.5594 20.5337C19.9681 21.1251 19.0748 21.3012 18.3198 20.9489C18.1437 20.8734 18.043 20.8986 17.9046 20.9993C16.6087 21.8926 15.1869 22.4965 13.6393 22.7859C13.136 22.8866 12.6579 22.9369 12.1798 22.9998ZM11.5004 16.2181C14.0923 16.2181 16.2186 14.1043 16.2186 11.5124C16.2186 8.9079 14.1174 6.79412 11.5129 6.78154C8.90845 6.76895 6.78209 8.89532 6.78209 11.4998C6.78209 14.0917 8.89587 16.2181 11.5004 16.2181ZM3.08296 17.0611C4.02662 16.1174 4.95769 15.1863 5.88876 14.2553C6.002 14.142 6.01458 14.054 5.95167 13.9156C5.27224 12.3051 5.27224 10.6946 5.95167 9.08405C6.01458 8.92048 5.98942 8.84499 5.87618 8.71917C4.99543 7.85101 4.11469 6.97027 3.23395 6.08952C3.18362 6.03919 3.13329 5.98887 3.07038 5.93854C0.793027 9.22245 0.767863 13.7394 3.08296 17.0611ZM5.93909 3.08241C6.89532 4.03865 7.85156 4.9823 8.79521 5.93854C8.89587 6.03919 8.97136 5.98887 9.07202 5.95112C10.6951 5.25911 12.3182 5.25911 13.9287 5.95112C14.0797 6.01403 14.1552 6.00145 14.2684 5.88821C15.1492 4.99488 16.0425 4.10156 16.9358 3.22081C16.9861 3.17049 17.0239 3.13274 17.0616 3.08241C13.7148 0.754731 9.19784 0.805059 5.93909 3.08241ZM19.9178 17.0611C22.2203 13.8023 22.2329 9.19729 19.9178 5.93854C18.9615 6.89477 18.0053 7.85101 17.049 8.81983C17.0113 8.85757 17.0239 8.9834 17.049 9.04631C17.7159 10.6065 17.7536 12.1667 17.1245 13.7394C17.0113 14.0414 17.0365 14.1924 17.2629 14.4188C18.1563 15.287 19.037 16.1803 19.9178 17.0611ZM5.93909 19.9298C9.42432 22.3204 13.9287 22.1316 17.0742 19.9172C16.118 18.961 15.1617 18.0047 14.1929 17.0485C14.1552 17.0107 14.0545 17.0107 14.0042 17.0233C12.3434 17.7405 10.6825 17.7405 9.02169 17.0233C8.97136 16.9982 8.85812 17.0107 8.82038 17.0485C7.85156 18.0047 6.89532 18.961 5.93909 19.9298ZM16.2815 7.66228C16.2815 7.66228 16.3067 7.63712 16.3319 7.61195C17.4013 6.54248 18.4708 5.473 19.5403 4.40353C19.578 4.36578 19.6284 4.31545 19.6535 4.26512C19.8045 4.05123 19.8297 3.82475 19.729 3.58569C19.6158 3.34663 19.4271 3.22081 19.1754 3.19565C18.9363 3.17049 18.7476 3.28372 18.5841 3.45987C17.5272 4.51677 16.4829 5.56108 15.426 6.61797C15.3882 6.65571 15.3505 6.70604 15.3505 6.70604C15.6524 7.03318 15.9544 7.33515 16.2815 7.66228ZM6.71918 7.66228C7.04631 7.34773 7.34828 7.03318 7.66283 6.71863C7.65025 6.70604 7.6125 6.6683 7.58734 6.63055C6.81983 5.86305 6.05233 5.09554 5.28482 4.32803C4.97027 4.01348 4.6683 3.69893 4.34117 3.39696C4.13985 3.20823 3.90079 3.14532 3.63657 3.24598C3.38493 3.34663 3.23395 3.53537 3.20878 3.79959C3.18362 4.05123 3.29686 4.23996 3.46042 4.41611C4.51732 5.473 5.57421 6.51731 6.61852 7.5742C6.66885 7.62453 6.71918 7.66228 6.71918 7.66228ZM16.2941 15.3373C15.967 15.6519 15.6524 15.9664 15.3253 16.281C15.3505 16.3062 15.3882 16.3565 15.4511 16.4068C16.2312 17.1869 17.0239 17.9796 17.804 18.7597C18.0808 19.0365 18.3576 19.3258 18.647 19.6027C18.8483 19.7914 19.0873 19.8543 19.3516 19.7536C19.6158 19.653 19.7668 19.4642 19.7919 19.1874C19.8171 18.9358 19.7039 18.7471 19.5277 18.5709C18.735 17.7908 17.955 16.9982 17.1623 16.2055C16.8603 15.9035 16.5583 15.6016 16.2941 15.3373ZM6.71918 15.3373C6.70659 15.3499 6.65627 15.4002 6.60594 15.4506C5.57421 16.4823 4.55506 17.5014 3.52333 18.5332C3.473 18.5835 3.41009 18.6338 3.37235 18.6967C3.20878 18.8981 3.15845 19.1245 3.25911 19.3762C3.35977 19.6278 3.5485 19.7788 3.81272 19.804C4.06436 19.8291 4.25309 19.7159 4.42924 19.5523C5.48613 18.4954 6.54303 17.4385 7.59992 16.3816C7.63767 16.3439 7.66283 16.3062 7.66283 16.3062C7.34828 15.9664 7.04631 15.6519 6.71918 15.3373Z" fill="#3F3F3F"/>
</g>
<defs>
<clipPath id="clip0_223_717">
<rect width="23" height="23" fill="white"/>
</clipPath>
</defs>
</svg>
