<svg width="23" height="23" viewBox="0 0 23 23" fill="none" xmlns="http://www.w3.org/2000/svg">
<g clip-path="url(#clip0_307_3504)">
<path d="M12.1795 22.9999C11.7266 22.9999 11.2862 22.9999 10.8333 22.9999C10.7829 22.9873 10.7326 22.9748 10.6823 22.9622C8.6314 22.8112 6.75668 22.1318 5.07068 20.9616C4.94486 20.8736 4.85679 20.8861 4.73097 20.9491C3.95088 21.3014 3.07014 21.1378 2.4662 20.5464C1.87484 19.9551 1.68611 19.0743 2.03841 18.3194C2.12648 18.1307 2.08873 18.0174 1.98808 17.8539C1.06959 16.5076 0.453067 15.0355 0.188844 13.425C0.113352 13.0098 0.0756056 12.582 0.0126953 12.1668C0.0126953 11.7138 0.0126953 11.2735 0.0126953 10.8205C0.0252774 10.7576 0.0378594 10.6947 0.0504415 10.6318C0.188844 8.60606 0.868275 6.75649 2.01324 5.08308C2.10132 4.95726 2.1139 4.86918 2.03841 4.7182C1.68611 3.95069 1.83709 3.08253 2.42845 2.47859C3.01981 1.86207 3.90055 1.68593 4.68064 2.03822C4.86937 2.1263 4.98261 2.08855 5.14617 1.98789C6.94541 0.754853 8.94596 0.0754217 11.1352 -7.06511e-05C13.6139 -0.075563 15.8787 0.603868 17.917 2.00048C18.0428 2.08855 18.1309 2.10113 18.2818 2.03822C19.0493 1.67334 19.9427 1.83691 20.5466 2.42827C21.1505 3.01962 21.3267 3.91295 20.9744 4.68045C20.8989 4.8566 20.9241 4.95726 21.0247 5.09566C22.2452 6.8949 22.9246 8.88286 23.0001 11.0596C23.0882 13.5508 22.4088 15.8156 21.0121 17.879C20.9241 18.0174 20.8989 18.1181 20.9744 18.2817C21.3267 19.0492 21.1631 19.9425 20.5592 20.5338C19.9678 21.1252 19.0745 21.3014 18.3196 20.9491C18.1434 20.8736 18.0428 20.8987 17.9044 20.9994C16.6084 21.8927 15.1867 22.4966 13.6391 22.786C13.1358 22.8867 12.6577 22.937 12.1795 22.9999ZM11.5001 16.2182C14.092 16.2182 16.2184 14.1044 16.2184 11.5125C16.2184 8.90802 14.1172 6.79424 11.5127 6.78166C8.90821 6.76908 6.78184 8.89544 6.78184 11.4999C6.78184 14.0918 8.89563 16.2182 11.5001 16.2182ZM3.08272 17.0612C4.02637 16.1175 4.95744 15.1865 5.88852 14.2554C6.00175 14.1422 6.01434 14.0541 5.95143 13.9157C5.272 12.3052 5.272 10.6947 5.95143 9.08417C6.01434 8.92061 5.98917 8.84511 5.87593 8.71929C4.99519 7.85113 4.11445 6.97039 3.2337 6.08964C3.18337 6.03932 3.13305 5.98899 3.07013 5.93866C0.792783 9.22258 0.767619 13.7395 3.08272 17.0612ZM5.93884 3.08253C6.89508 4.03877 7.85132 4.98242 8.79497 5.93866C8.89563 6.03932 8.97112 5.98899 9.07178 5.95124C10.6949 5.25923 12.3179 5.25923 13.9284 5.95124C14.0794 6.01415 14.1549 6.00157 14.2682 5.88833C15.1489 4.99501 16.0422 4.10168 16.9356 3.22094C16.9859 3.17061 17.0236 3.13286 17.0614 3.08253C13.7146 0.754853 9.1976 0.805181 5.93884 3.08253ZM19.9175 17.0612C22.22 13.8024 22.2326 9.19741 19.9175 5.93866C18.9613 6.8949 18.005 7.85113 17.0488 8.81995C17.0111 8.8577 17.0236 8.98352 17.0488 9.04643C17.7156 10.6066 17.7534 12.1668 17.1243 13.7395C17.0111 14.0415 17.0362 14.1925 17.2627 14.419C18.156 15.2871 19.0368 16.1805 19.9175 17.0612ZM5.93884 19.9299C9.42407 22.3205 13.9284 22.1318 17.074 19.9173C16.1177 18.9611 15.1615 18.0049 14.1927 17.0486C14.1549 17.0109 14.0543 17.0109 14.0039 17.0235C12.3431 17.7406 10.6823 17.7406 9.02145 17.0235C8.97112 16.9983 8.85788 17.0109 8.82014 17.0486C7.85132 18.0049 6.89508 18.9611 5.93884 19.9299ZM16.2813 7.6624C16.2813 7.6624 16.3065 7.63724 16.3316 7.61207C17.4011 6.5426 18.4706 5.47312 19.54 4.40365C19.5778 4.3659 19.6281 4.31557 19.6533 4.26525C19.8043 4.05135 19.8294 3.82487 19.7288 3.58582C19.6155 3.34676 19.4268 3.22094 19.1752 3.19577C18.9361 3.17061 18.7474 3.28385 18.5838 3.45999C17.5269 4.51689 16.4826 5.5612 15.4257 6.61809C15.388 6.65584 15.3502 6.70616 15.3502 6.70616C15.6522 7.0333 15.9542 7.33527 16.2813 7.6624ZM6.71893 7.6624C7.04607 7.34785 7.34803 7.0333 7.66259 6.71875C7.65 6.70617 7.61226 6.66842 7.58709 6.63067C6.81959 5.86317 6.05208 5.09566 5.28458 4.32816C4.97003 4.01361 4.66806 3.69905 4.34092 3.39708C4.13961 3.20835 3.90055 3.14544 3.63633 3.2461C3.38469 3.34676 3.2337 3.53549 3.20854 3.79971C3.18337 4.05135 3.29661 4.24008 3.46018 4.41623C4.51707 5.47312 5.57396 6.51743 6.61827 7.57433C6.6686 7.62466 6.71893 7.6624 6.71893 7.6624ZM16.2939 15.3375C15.9667 15.652 15.6522 15.9666 15.3251 16.2811C15.3502 16.3063 15.388 16.3566 15.4509 16.4069C16.231 17.187 17.0236 17.9797 17.8037 18.7598C18.0805 19.0366 18.3573 19.326 18.6467 19.6028C18.848 19.7915 19.0871 19.8544 19.3513 19.7538C19.6155 19.6531 19.7665 19.4644 19.7917 19.1876C19.8169 18.9359 19.7036 18.7472 19.5275 18.571C18.7348 17.791 17.9547 16.9983 17.162 16.2056C16.8601 15.9036 16.5581 15.6017 16.2939 15.3375ZM6.71893 15.3375C6.70635 15.35 6.65602 15.4004 6.60569 15.4507C5.57396 16.4824 4.55482 17.5016 3.52309 18.5333C3.47276 18.5836 3.40985 18.634 3.3721 18.6969C3.20854 18.8982 3.15821 19.1247 3.25887 19.3763C3.35952 19.6279 3.54825 19.7789 3.81248 19.8041C4.06412 19.8293 4.25285 19.716 4.429 19.5524C5.48589 18.4956 6.54278 17.4387 7.59968 16.3818C7.63742 16.344 7.66259 16.3063 7.66259 16.3063C7.34803 15.9666 7.04607 15.652 6.71893 15.3375Z" fill="#3F3F3F"/>
</g>
<defs>
<clipPath id="clip0_307_3504">
<rect width="23" height="23" fill="white"/>
</clipPath>
</defs>
</svg>
