<svg width="15" height="20" viewBox="0 0 15 20" fill="none" xmlns="http://www.w3.org/2000/svg">
<path d="M13.3039 8.18749C13.3039 8.28044 13.3039 8.37339 13.2888 8.46633C13.2888 8.5128 13.2737 8.55927 13.2737 8.59026C13.2737 8.66771 13.2888 8.52829 13.2888 8.52829C13.2888 8.55928 13.2737 8.59026 13.2737 8.62124C13.2434 8.82262 13.198 9.024 13.1374 9.22538C13.0769 9.44225 13.0012 9.67461 12.9255 9.89148C12.9104 9.93796 12.8801 9.98443 12.865 10.0464C12.8498 10.0619 12.8044 10.2168 12.8196 10.1393C12.8498 10.0774 12.7742 10.2323 12.759 10.2633C12.7287 10.3252 12.6985 10.3872 12.6833 10.4492C12.2444 11.4251 11.6843 12.339 11.094 13.2375C10.7913 13.6867 10.4734 14.136 10.1556 14.5852C10.0799 14.6936 10.0042 14.8021 9.91337 14.9105C9.8831 14.957 9.83769 15.0035 9.80742 15.0499C9.76201 15.1119 9.80742 15.0499 9.82255 15.0344C9.79228 15.0654 9.77715 15.0964 9.74687 15.1274C9.58037 15.3443 9.42901 15.5456 9.26251 15.7625C8.73273 16.4286 8.18782 17.0947 7.62777 17.7298C7.37045 18.0397 7.098 18.334 6.82554 18.6283C7.12827 18.6283 7.431 18.6283 7.73373 18.6283C6.9315 17.7608 6.17467 16.8624 5.43299 15.9329C5.26649 15.7315 5.11512 15.5301 4.94862 15.3133C4.91835 15.2668 4.87294 15.2203 4.84267 15.1739C4.82753 15.1584 4.72158 15.019 4.75185 15.0499C4.78212 15.0809 4.6913 14.9725 4.67617 14.9415C4.63076 14.8795 4.58535 14.8176 4.5248 14.7401C4.1918 14.2909 3.8588 13.8262 3.54094 13.3459C2.93548 12.4475 2.36029 11.5025 1.9062 10.5111C1.86079 10.4027 1.80025 10.2942 1.75484 10.1703C1.69429 10.0309 1.76997 10.2013 1.72456 10.0929C1.69429 10.0309 1.67915 9.96894 1.64888 9.92247C1.5732 9.7056 1.49752 9.48872 1.42183 9.25636C1.36129 9.05498 1.31588 8.83811 1.28561 8.62124C1.28561 8.59026 1.25533 8.45084 1.27047 8.55927C1.28561 8.66771 1.27047 8.49731 1.25533 8.46633C1.2402 8.37339 1.2402 8.26495 1.2402 8.172C1.2402 6.91724 1.60347 5.72445 2.29975 4.67108C3.66203 2.62629 6.25036 1.60389 8.61164 2.17705C9.80742 2.47138 10.8367 3.07552 11.6843 4.00497C12.5017 4.90344 13.0163 6.01878 13.2131 7.25804C13.2283 7.36648 13.2283 7.32001 13.2283 7.41295C13.2434 7.49041 13.2434 7.56786 13.2434 7.64531C13.3039 7.8312 13.3039 8.0016 13.3039 8.18749C13.3039 9.024 14.5905 9.024 14.5754 8.18749C14.5603 5.27522 12.865 2.53334 10.2464 1.37153C7.55209 0.178733 4.38858 0.705423 2.25434 2.78119C0.437967 4.54715 -0.515628 7.38197 0.286603 9.86051C0.998015 12.0912 2.42084 14.0895 3.81339 15.9329C4.73671 17.1567 5.70545 18.396 6.78013 19.4958C6.79527 19.5113 6.81041 19.5268 6.82554 19.5578C7.05259 19.8056 7.49154 19.8056 7.73373 19.5578C8.53596 18.7058 9.27764 17.8073 10.0193 16.8779C11.3967 15.1429 12.7439 13.3305 13.6975 11.3166C14.1516 10.3407 14.5754 9.28734 14.5754 8.20298C14.5905 7.3355 13.3191 7.3355 13.3039 8.18749Z" fill="#3F3F3F"/>
<path d="M9.20269 7.58349C9.18756 8.38901 8.70319 9.16355 7.96151 9.42689C7.53769 9.5818 7.14414 9.59729 6.73546 9.47337C6.35704 9.36493 6.03918 9.14806 5.76672 8.79177C5.56995 8.54392 5.40345 8.09469 5.37318 7.76938C5.3429 7.32015 5.41859 6.96386 5.6305 6.59208C6.02404 5.89499 6.87168 5.49223 7.6285 5.64714C8.56696 5.84852 9.18756 6.63855 9.20269 7.58349C9.21783 8.41999 10.4893 8.41999 10.4742 7.58349C10.459 6.18931 9.61138 4.96554 8.32478 4.50082C7.09873 4.05158 5.6305 4.46984 4.81313 5.50772C3.96549 6.57659 3.82926 8.11017 4.55581 9.28748C5.26722 10.4648 6.6295 11.0379 7.96151 10.7746C9.42974 10.4803 10.459 9.0861 10.4742 7.58349C10.5044 6.74698 9.21783 6.74698 9.20269 7.58349Z" fill="#3F3F3F"/>
</svg>
