<svg width="15" height="17" viewBox="0 0 15 17" fill="none" xmlns="http://www.w3.org/2000/svg">
<path d="M7.45412 9.54643C8.60967 9.54643 9.54643 8.60967 9.54643 7.45412C9.54643 6.29857 8.60967 5.36182 7.45412 5.36182C6.29857 5.36182 5.36182 6.29857 5.36182 7.45412C5.36182 8.60967 6.29857 9.54643 7.45412 9.54643Z" fill="white"/>
<path d="M7.5848 0.130859H7.45403C3.40018 0.130859 0.261719 3.40009 0.261719 7.45394C0.261719 9.41547 1.04633 11.2462 2.4848 12.5539C2.61556 12.6847 5.10018 14.9078 6.14633 15.8232C6.53864 16.2155 6.93095 16.477 6.93095 16.477C7.06172 16.6078 7.32326 16.7386 7.5848 16.7386C7.84633 16.7386 7.9771 16.6078 8.23864 16.6078C8.23864 16.6078 9.41556 15.5616 10.4617 14.6462C11.5079 13.7309 12.6848 12.6847 12.6848 12.6847C14.1233 11.377 14.9079 9.41547 14.9079 7.45394C14.7771 3.40009 11.5079 0.130859 7.5848 0.130859ZM11.1156 11.5078L7.45403 14.777L3.79249 11.377C2.74633 10.4616 2.09249 8.8924 2.09249 7.45394V7.32317C2.22326 4.44624 4.44633 2.22317 7.32326 2.22317H7.5848C9.02326 2.22317 10.3309 2.74624 11.3771 3.7924C12.4233 4.83855 12.9463 6.14625 12.9463 7.58471C12.8156 9.02317 12.2925 10.4616 11.1156 11.5078Z" fill="white"/>
</svg>
