<svg width="12" height="17" viewBox="0 0 12 17" fill="none" xmlns="http://www.w3.org/2000/svg">
<path d="M5.7683 0.628479C2.58579 0.628479 0 3.22723 0 6.42185C0 10.3892 5.1601 16.2094 5.37814 16.4555C5.58469 16.6861 5.94426 16.6861 6.15081 16.4555C6.36885 16.2094 11.529 10.3853 11.529 6.42185C11.5328 3.23107 8.94316 0.628479 5.7683 0.628479ZM5.7683 9.33968C4.16939 9.33968 2.86885 8.02877 2.86885 6.42569C2.86885 4.82262 4.17322 3.51171 5.7683 3.51171C7.36338 3.51171 8.66775 4.82262 8.66775 6.42569C8.66775 8.02877 7.36338 9.33968 5.7683 9.33968Z" fill="#0066B3"/>
</svg>
