<svg width="11" height="15" viewBox="0 0 11 15" fill="none" xmlns="http://www.w3.org/2000/svg">
<g clip-path="url(#clip0_346_2487)">
<path d="M5.41317 0.120728C2.45798 0.120728 0.0568848 2.52016 0.0568848 5.46976C0.0568848 9.1328 4.84842 14.5067 5.05087 14.7338C5.24268 14.9468 5.57656 14.9468 5.76836 14.7338C5.97082 14.5067 10.7624 9.12925 10.7624 5.46976C10.7659 2.52371 8.36126 0.120728 5.41317 0.120728ZM5.41317 8.16379C3.92847 8.16379 2.72082 6.95343 2.72082 5.47331C2.72082 3.99318 3.93202 2.78282 5.41317 2.78282C6.89432 2.78282 8.10552 3.99318 8.10552 5.47331C8.10552 6.95343 6.89432 8.16379 5.41317 8.16379Z" fill="#8C9AA0"/>
</g>
<defs>
<clipPath id="clip0_346_2487">
<rect width="10.8333" height="15" fill="white"/>
</clipPath>
</defs>
</svg>
