<svg width="17" height="14" viewBox="0 0 17 14" fill="none" xmlns="http://www.w3.org/2000/svg">
<g clip-path="url(#clip0_451_6205)">
<path d="M0.5712 13.7613C0.2584 13.7613 0 13.5029 0 13.1901V0.814069V0.800469C0 0.773269 0 0.746069 0.0136 0.71887C0.0136 0.70527 0.0136 0.70527 0.0272 0.69167L0.0408 0.65087C0.0408 0.63727 0.0544 0.62367 0.0544 0.61007C0.0544 0.59647 0.068 0.58287 0.068 0.56927L0.0816 0.52847C0.0816 0.51487 0.0952 0.51487 0.0952 0.50127C0.1088 0.47407 0.1224 0.46047 0.1496 0.44687C0.1496 0.43327 0.1632 0.43327 0.1632 0.43327C0.1904 0.39247 0.2176 0.37887 0.2448 0.35167C0.2448 0.35167 0.2584 0.33807 0.272 0.33807L0.2992 0.32447L0.3128 0.31087C0.3264 0.29727 0.34 0.29727 0.3536 0.29727C0.3672 0.28367 0.3944 0.28367 0.408 0.28367L0.4488 0.27007H0.4624C0.4896 0.25647 0.5304 0.25647 0.5712 0.25647H16.4288C16.4696 0.25647 16.4968 0.25647 16.5376 0.27007H16.5512L16.592 0.28367C16.6056 0.28367 16.6192 0.29727 16.6328 0.29727C16.6464 0.29727 16.66 0.31087 16.6736 0.31087L16.6872 0.32447L16.7144 0.33807C16.728 0.33807 16.728 0.35167 16.7416 0.35167C16.7688 0.37887 16.796 0.39247 16.8232 0.41967C16.8232 0.41967 16.8368 0.43327 16.8504 0.44687C16.864 0.46047 16.8912 0.48767 16.9048 0.50127C16.9048 0.51487 16.9184 0.51487 16.9184 0.52847L16.932 0.56927C16.932 0.58287 16.9456 0.59647 16.9456 0.61007C16.9456 0.62367 16.9592 0.63727 16.9592 0.65087L16.9728 0.69167C16.9728 0.70527 16.9728 0.70527 16.9864 0.71887C16.9864 0.746069 16.9864 0.773269 17 0.800469C17 0.814069 17 0.814069 17 0.827669V13.2037C17 13.5165 16.7416 13.7749 16.4288 13.7749H0.5712V13.7613ZM1.768 12.6325H15.232L10.2544 7.72287L9.8464 8.13087C9.8328 8.14447 9.8192 8.14447 9.8192 8.15807C9.792 8.18527 9.7784 8.18527 9.7648 8.19887C9.7512 8.19887 9.7512 8.21247 9.7376 8.21247L9.6968 8.22607C9.6832 8.22607 9.6696 8.23967 9.6696 8.23967C9.656 8.23967 9.6424 8.25327 9.6288 8.25327L9.588 8.26687C9.5744 8.26687 9.5744 8.26687 9.5608 8.28047C9.52 8.28047 9.4792 8.28047 9.4384 8.28047H7.548C7.5072 8.28047 7.48 8.28047 7.4392 8.26687C7.4256 8.26687 7.4256 8.26687 7.412 8.25327L7.3712 8.23967C7.3576 8.23967 7.344 8.22607 7.3304 8.22607C7.3168 8.22607 7.3032 8.21247 7.3032 8.21247L7.2624 8.19887C7.2488 8.19887 7.2488 8.18527 7.2352 8.18527C7.208 8.17167 7.1944 8.15807 7.1672 8.13087L7.1536 8.11727L6.7456 7.70927L1.768 12.6325ZM11.0568 6.92047L15.8576 11.6533V2.18767L11.0568 6.92047ZM1.1424 11.6533L5.9432 6.92047L1.1424 2.18767V11.6533ZM7.7928 7.15167H9.2208L15.0552 1.39887H1.9584L7.7928 7.15167Z" fill="#3F3F3F"/>
</g>
<defs>
<clipPath id="clip0_451_6205">
<rect width="17" height="13.5048" fill="white" transform="translate(0 0.25647)"/>
</clipPath>
</defs>
</svg>
