<svg width="15" height="15" viewBox="0 0 15 15" fill="none" xmlns="http://www.w3.org/2000/svg">
<g opacity="0.8">
<path d="M6.76452 7.423C7.15619 7.68413 7.84344 7.68416 8.2352 7.42297C8.23526 7.42294 8.23535 7.42289 8.2354 7.42286L14.9112 2.97231C14.6922 2.33903 14.0903 1.88281 13.3836 1.88281H1.61602C0.909225 1.88281 0.307375 2.33903 0.0883789 2.97231L6.76431 7.42289C6.7644 7.42294 6.76446 7.42294 6.76452 7.423Z" fill="white"/>
<path d="M8.72309 9.15435C8.723 9.15441 8.72294 9.15447 8.72289 9.15449C8.38005 9.38304 7.93995 9.49733 7.5 9.49733C7.05995 9.49733 6.62003 9.38307 6.27716 9.15447C6.27711 9.15444 6.27708 9.15441 6.27702 9.15438L0 4.96973V12.5012C0 13.3923 0.725015 14.1173 1.6162 14.1173H13.3838C14.275 14.1173 15 13.3923 15 12.5012V4.96973L8.72309 9.15435Z" fill="white"/>
</g>
</svg>
