<svg width="23" height="21" viewBox="0 0 23 21" fill="none" xmlns="http://www.w3.org/2000/svg">
<g clip-path="url(#clip0_842_2512)">
<path d="M22.2698 19.3492H21.9048L18.254 13.6296C20.9312 12.6561 22.8783 10.1005 22.8783 7.0582C22.8783 3.16402 19.7143 0 15.8201 0C11.9259 0 8.8836 3.16402 8.8836 6.93651C8.8836 8.27513 9.24868 9.61376 9.97884 10.709L10.709 9.49206C10.3439 8.7619 10.1005 7.91005 10.1005 6.93651C10.1005 3.77249 12.6561 1.21693 15.8201 1.21693C18.9841 1.21693 21.5397 3.77249 21.5397 6.93651C21.5397 9.49206 19.836 11.6825 17.5238 12.4127L14.4815 7.42328C14.3598 7.17989 13.9947 6.93651 13.7513 6.81481C13.7513 6.81481 13.5079 6.69312 13.1429 6.69312C12.8995 6.69312 12.6561 6.81481 12.6561 6.81481C12.4127 6.93651 12.1693 7.17989 11.9259 7.42328L9.12698 12.0476L8.51852 11.1958C8.27513 10.709 7.78836 10.4656 7.30159 10.4656C6.81482 10.4656 6.32804 10.709 5.96296 11.1958L0.973545 19.3492H0.730159C0.365079 19.3492 0 19.7143 0 20.0794C0 20.4444 0.365079 20.8095 0.730159 20.8095H22.2698C22.6349 20.8095 23 20.4444 23 20.0794C23 19.5926 22.7566 19.3492 22.2698 19.3492ZM8.7619 19.3492H2.55556L7.17989 12.0476L7.30159 11.9259C7.30159 11.9259 7.42328 11.9259 7.42328 12.0476L8.27513 13.3862L6.69312 15.8201C6.44974 16.1852 6.57143 16.5503 6.93651 16.7937C7.0582 16.9153 7.17989 16.9153 7.30159 16.9153C7.54497 16.9153 7.78836 16.7937 7.91005 16.5503L13.1429 8.27513L13.2646 8.15344C13.2646 8.15344 13.3862 8.15344 13.3862 8.27513L17.8889 15.455L20.3228 19.3492H8.7619Z" fill="#3F3F3F"/>
</g>
<defs>
<clipPath id="clip0_842_2512">
<rect width="23" height="20.8095" fill="white"/>
</clipPath>
</defs>
</svg>
