<svg width="24" height="25" viewBox="0 0 24 25" fill="none" xmlns="http://www.w3.org/2000/svg">
<g clip-path="url(#clip0_307_3506)">
<path d="M10.3843 24.0741C9.94565 24.0741 9.63862 23.727 9.63862 23.2455C9.62765 22.2377 9.62765 18.3523 9.62765 17.3557C9.62765 16.9526 9.62765 16.5383 9.62765 16.1352V15.2954H9.43027C9.33158 15.2954 8.99165 15.2954 8.90393 15.2954C8.80524 15.2954 8.71752 15.2954 8.62979 15.2954C8.41048 15.2954 8.18021 15.2842 7.90607 15.2842C7.6758 15.2842 7.43455 15.2842 7.20428 15.2842C6.974 15.2842 6.73276 15.2842 6.50249 15.2842C5.72394 15.2842 4.8796 15.2618 4.04622 15.1387C1.77636 14.814 0.0767111 12.7313 -4.73007e-05 10.2007C-0.0658402 7.84927 1.57898 5.65461 3.82691 5.08355C4.19974 4.99397 4.46291 4.83721 4.61642 4.34453C5.40594 1.74677 7.73062 0 10.3843 0H10.3952C13.0927 0.0111972 15.4174 1.78036 16.185 4.41171C16.3056 4.84841 16.5469 4.98277 16.8649 5.07235C19.4637 5.72179 21.0427 8.1068 20.7247 10.8837C20.4396 13.3247 18.2465 15.273 15.7354 15.2954C15.2529 15.3066 14.7266 15.3066 14.1016 15.3066C13.663 15.3066 13.2134 15.3066 12.7638 15.3066C12.3032 15.3066 11.8317 15.3066 11.3602 15.3066H11.1519V22.708C11.1519 22.764 11.1519 22.82 11.1519 22.876C11.1519 23.0103 11.1519 23.1447 11.1519 23.2679C11.119 23.7494 10.8119 24.0741 10.3843 24.0741ZM12.8296 9.3609C13.016 9.3609 13.1805 9.42808 13.323 9.57364C13.652 9.89836 13.6081 10.3686 13.2353 10.7606C13.027 10.9733 12.8186 11.186 12.6103 11.3988C12.2484 11.7571 11.8865 12.1266 11.5356 12.5185C11.3821 12.6865 11.2834 12.8992 11.1957 13.1008C11.1519 13.1904 11.119 13.2687 11.0751 13.3471L10.9983 13.5039L11.3602 13.795H11.426C11.6014 13.795 11.7769 13.795 11.9523 13.795C12.1278 13.795 12.3032 13.795 12.4787 13.795C12.698 13.795 12.9063 13.795 13.1256 13.7838C13.3559 13.7838 13.5972 13.7726 13.8274 13.7726H14.2661C14.9788 13.7726 15.6696 13.7614 16.3714 13.6718C18.082 13.4367 19.354 11.7907 19.2773 9.92076C19.1896 8.17399 17.7531 6.62877 16.0644 6.47201C15.0446 6.38243 15.0336 6.37123 14.8472 5.31869C14.4963 3.2472 12.6651 1.6236 10.6036 1.53402C10.5378 1.53402 10.472 1.53402 10.4062 1.53402C8.12538 1.53402 6.26125 3.16882 5.88842 5.50904C5.7678 6.24806 5.57042 6.43842 4.94539 6.47201C3.14705 6.55039 1.63381 8.02842 1.51319 9.85357C1.3816 11.7795 2.67553 13.4479 4.53967 13.7166C5.01118 13.7838 5.4827 13.795 5.97614 13.795H6.19545C6.30511 13.795 6.41476 13.795 6.51345 13.795C6.89725 13.795 7.28104 13.8062 7.66483 13.8062C7.94993 13.8062 8.23504 13.8062 8.5311 13.8062C8.82717 13.8062 9.13421 13.8062 9.43027 13.8062H9.63862V13.5935C9.63862 13.4143 9.63862 13.2463 9.63862 13.0784C9.64958 12.6753 9.64958 12.2946 9.61669 11.9027C9.59476 11.5891 9.4522 11.2644 9.26579 11.0629C8.80524 10.5702 8.32276 10.0775 7.86221 9.60723C7.58807 9.3385 7.3249 9.05857 7.06173 8.78984C6.67794 8.39793 6.64504 7.97244 6.95207 7.63652C7.09462 7.47976 7.28104 7.39018 7.47842 7.39018C7.69773 7.39018 7.928 7.50215 8.11442 7.69251C8.36662 7.93885 8.60786 8.19638 8.83814 8.45392C8.94779 8.56589 9.05745 8.68906 9.15614 8.80103L9.38641 9.04737L9.49607 8.72265C9.59476 8.40913 9.60572 8.1292 9.61669 7.87166C9.61669 7.79328 9.62765 7.7149 9.62765 7.64772C9.66055 7.21103 9.97855 6.8863 10.3733 6.8863H10.3952C10.79 6.8975 11.097 7.19983 11.1299 7.63652C11.1519 7.86046 11.1409 8.08441 11.1409 8.31955C11.1409 8.42033 11.1409 8.5099 11.1409 8.61068C11.1409 8.9578 11.1409 9.29371 11.1409 9.64083V10.2343L11.5576 10.3798L11.6453 10.2791C11.7001 10.2119 11.755 10.1447 11.8098 10.0775C11.9304 9.93196 12.0401 9.78639 12.1716 9.66322C12.38 9.46167 12.6103 9.3609 12.8296 9.3609Z" fill="#3F3F3F"/>
<path d="M18.8059 23.4022L18.6414 23.5702C18.3783 23.8389 17.9396 23.8389 17.6765 23.5702L12.7091 18.4978C12.4459 18.2291 12.4459 17.7812 12.7091 17.5125L12.8736 17.3445C13.1368 17.0758 13.5754 17.0758 13.8385 17.3445L18.8059 22.4168C19.0691 22.6968 19.0691 23.1335 18.8059 23.4022Z" fill="#3F3F3F"/>
<path d="M22.9504 23.0439L22.786 23.2119C22.5228 23.4806 22.0842 23.4806 21.821 23.2119L16.8536 18.1395C16.5905 17.8708 16.5905 17.4229 16.8536 17.1542L17.0181 16.9862C17.2813 16.7175 17.7199 16.7175 17.9831 16.9862L22.9504 22.0586C23.2136 22.3273 23.2136 22.764 22.9504 23.0439Z" fill="#3F3F3F"/>
</g>
<defs>
<clipPath id="clip0_307_3506">
<rect width="23.1481" height="24.0741" fill="white"/>
</clipPath>
</defs>
</svg>
