<svg width="23" height="21" viewBox="0 0 23 21" fill="none" xmlns="http://www.w3.org/2000/svg">
<g clip-path="url(#clip0_844_2516)">
<path d="M22.2538 19.0039H17.7382V11.7874C20.6642 11.4273 22.9993 8.90635 22.9993 5.88678C22.9993 2.63173 20.3125 -0.013855 17.0067 -0.013855C13.7009 -3.72622e-06 11.014 2.64559 11.014 5.90063C11.014 8.90635 13.3351 11.4411 16.2752 11.8013V19.0178H12.9694V12.7431H13.6165C13.926 12.7293 14.1088 12.6185 14.1932 12.3692C14.2917 12.0783 14.1932 11.8567 13.8838 11.635C11.5345 10.0145 9.45256 8.58777 7.53941 7.25805C7.38467 7.14724 7.244 7.10569 7.10333 7.10569C6.96265 7.10569 6.80791 7.16109 6.65317 7.2719C4.71189 8.61548 2.74247 9.9729 0.829323 11.2888L0.322901 11.635C0.0274883 11.8428 -0.0709826 12.0506 0.013421 12.3138C0.0978247 12.5908 0.294767 12.7154 0.632381 12.7154H1.0122C1.04033 12.7154 1.06847 12.7154 1.0966 12.7154H1.36388H1.8281V18.9762H0.758987C0.393238 18.9762 0.0274883 19.3363 0.0274883 19.6965C0.0274883 20.0566 0.393238 20.4167 0.758987 20.4167H22.2678C22.6336 20.4167 22.9993 20.0566 22.9993 19.6965C22.9993 19.364 22.7461 19.0039 22.2538 19.0039ZM3.4177 10.9148L4.0648 10.4715C4.9651 9.84824 5.87947 9.21108 6.80791 8.60162C6.89232 8.54622 7.03299 8.50467 7.1596 8.50467C7.22993 8.50467 7.3284 8.51852 7.39874 8.56007C8.51005 9.30804 9.63544 10.0837 10.7186 10.8317L11.3938 11.2888C11.422 11.3165 11.4501 11.3303 11.4782 11.3719C11.4923 11.3857 11.5064 11.4134 11.5345 11.4411L11.6049 11.5242H2.53146C2.644 11.4411 2.88315 11.2749 2.95348 11.2334C3.12229 11.1226 3.26296 11.0256 3.4177 10.9148ZM6.65317 19.0039V16.4553H8.0177V19.0039H6.65317ZM11.7455 19.0039H9.15715V15.3472H5.51373V19.0039H3.19263V12.7431H11.7455V19.0039ZM18.8354 5.77597C18.7088 5.65131 18.5963 5.5405 18.3431 5.5405C18.2165 5.5405 17.9773 5.66516 17.8507 5.77597L16.9926 6.73171L16.1345 5.88678C16.0079 5.76212 15.8954 5.65131 15.6422 5.65131C15.403 5.65131 15.2764 5.77597 15.1498 5.88678C15.0232 6.01144 14.9107 6.12225 14.9107 6.37157C14.9107 6.49623 15.0373 6.73171 15.1498 6.85637L16.2471 7.8121V10.333C14.0666 10.1114 12.3645 8.18609 12.3645 5.90063C12.3645 3.3797 14.4464 1.32972 17.0067 1.32972C19.5669 1.32972 21.6489 3.3797 21.6489 5.90063C21.6489 8.18609 19.9327 10.1114 17.7382 10.3469L17.6116 7.93676L18.8354 6.73171C19.0886 6.49623 19.0886 6.01144 18.8354 5.77597Z" fill="#3F3F3F"/>
</g>
<defs>
<clipPath id="clip0_844_2516">
<rect width="23" height="20.4444" fill="white"/>
</clipPath>
</defs>
</svg>
