<svg width="23" height="21" viewBox="0 0 23 21" fill="none" xmlns="http://www.w3.org/2000/svg">
<g clip-path="url(#clip0_842_2510)">
<path d="M0.692686 20.7806C0.353411 20.7806 0 20.4272 0 20.0879C0 19.7486 0.353411 19.3952 0.692686 19.3952H1.83774V16.8648H1.42778C1.07437 16.8648 0.848187 16.6386 0.848187 16.2852C0.848187 15.9318 1.07437 15.7056 1.42778 15.7056H1.83774V12.3553C1.83774 12.0018 2.06392 11.7757 2.41733 11.7757H12.3694C12.7228 11.7757 12.949 12.0018 12.949 12.3553V15.7056H13.3589C13.7124 15.7056 13.9385 15.9318 13.9385 16.2852C13.9385 16.6386 13.7124 16.8648 13.3589 16.8648H12.949V19.3952H16.3417V11.9594H16.3135C13.3165 11.5919 11.0688 9.01905 11.0688 5.97972C11.0547 2.68593 13.7265 0 17.0344 0C20.3423 0 23.0141 2.68593 23.0141 5.97972C23.0141 9.01905 20.7523 11.5778 17.7695 11.9594H17.7412V19.3952H22.3214C22.8021 19.3952 23.0141 19.7628 23.0141 20.0879C23.0141 20.4272 22.6607 20.7806 22.3214 20.7806H0.692686ZM3.11002 19.3952H11.7898V16.8648H3.11002V19.3952ZM3.11002 15.5925H11.7898V12.9349H3.11002V15.5925ZM17.0344 1.27228C14.4333 1.27228 12.327 3.37861 12.327 5.97972C12.327 8.29809 14.0658 10.3196 16.2852 10.5599H16.3276V7.93055L15.2108 6.941C15.0977 6.8279 14.9846 6.58758 14.9846 6.47449C14.9846 6.24831 15.0977 6.13522 15.225 6.00799C15.3522 5.88076 15.4653 5.76767 15.6915 5.76767C15.9176 5.76767 16.0307 5.88076 16.158 6.00799L17.0486 6.89859L17.9392 5.88076C18.0522 5.76767 18.2926 5.65458 18.4057 5.65458C18.6318 5.65458 18.7449 5.76767 18.8722 5.8949C19.0983 6.12108 19.0983 6.58758 18.8722 6.81377L17.6281 8.05778L17.7554 10.5741H17.7978C20.0172 10.3337 21.756 8.31223 21.756 5.99385C21.7277 3.37861 19.6214 1.27228 17.0344 1.27228Z" fill="#3F3F3F"/>
</g>
<defs>
<clipPath id="clip0_842_2510">
<rect width="23" height="20.7806" fill="white"/>
</clipPath>
</defs>
</svg>
