<svg width="25" height="25" viewBox="0 0 25 25" fill="none" xmlns="http://www.w3.org/2000/svg">
<g clip-path="url(#clip0_307_3519)">
<path d="M0.914329 24.0741C0.438377 24.0741 0.162826 23.9361 0 23.5848V23.221C0.162826 22.8823 0.425852 22.7317 0.876754 22.7317H0.914329C1.49048 22.7443 2.05411 22.7443 2.47996 22.7443H3.82014C4.10822 22.7443 4.38377 22.7443 4.67184 22.7443C4.87224 22.7443 4.97245 22.669 5.03507 22.4808C5.36072 21.4521 5.67385 20.4485 5.9995 19.4951C6.07465 19.2818 5.9995 19.1689 5.8492 19.0686C4.24599 17.9144 2.63026 16.7603 1.02705 15.5936L0.400802 15.142C0.0876754 14.9161 -0.012525 14.6527 0.0751503 14.3642C0.162826 14.0756 0.400802 13.8874 0.701403 13.8874C0.839178 13.8874 0.989479 13.9376 1.11473 14.0254C1.67836 14.4269 2.25451 14.8409 2.80561 15.2423C3.01854 15.3929 3.23146 15.5559 3.44439 15.7065L4.27104 16.3086C5.1478 16.9359 6.01202 17.5632 6.88878 18.1904C7.0015 18.2657 7.12675 18.3159 7.23948 18.3159C8.67986 18.3159 10.1328 18.3159 11.5731 18.3159H14.1157C14.1408 18.3159 14.1658 18.3159 14.2034 18.3033L14.3537 18.2908L11.2851 9.20811C11.2851 9.20811 9.99499 9.63465 9.63176 9.7601L7.71543 10.3999C6.3502 10.8515 4.98497 11.3157 3.60721 11.7673C3.49449 11.805 3.38176 11.83 3.28156 11.83C2.91834 11.83 2.68036 11.5791 2.64279 11.1526C2.32966 7.89088 3.53206 5.16859 6.1999 3.0861C6.82615 2.59684 7.57766 2.1703 8.47946 1.78141C8.51703 1.75632 8.56713 1.74377 8.61724 1.71868L8.76754 1.65596L8.66733 1.37996C8.61723 1.22942 8.56713 1.07888 8.51703 0.940884C8.37926 0.526895 8.55461 0.163086 8.93036 0.0376353C9.00551 0.0125451 9.06814 0 9.14329 0C9.43136 0 9.66934 0.188177 9.78206 0.501805C9.83216 0.652346 9.88227 0.802887 9.93237 0.953429L10.02 1.20433L10.0827 1.19179C10.258 1.1667 10.4334 1.12906 10.6087 1.09142C10.9845 1.01615 11.3477 0.953429 11.7109 0.903248C12.1242 0.853068 12.5376 0.827978 12.9509 0.827978C16.1824 0.827978 18.9629 2.37103 20.5787 5.06823C20.7415 5.34422 20.7916 5.58258 20.7164 5.7833C20.6413 5.98402 20.4409 6.13456 20.1278 6.24747C18.1237 6.91236 16.1197 7.58979 14.1157 8.25469L12.8257 8.68122C12.7881 8.69376 12.738 8.70631 12.7004 8.7314L12.5752 8.78158L12.6127 8.91958C12.6253 8.96976 12.6378 9.01994 12.6503 9.07012C12.6503 9.07012 14.8422 15.4807 15.6939 18.0399C15.7565 18.2406 15.8567 18.3033 16.0696 18.3033C16.5205 18.3033 16.9589 18.3033 17.3973 18.3033H18.5496C19.1884 18.3033 19.8272 18.3033 20.4659 18.3033C20.8667 18.3033 21.1047 18.4539 21.2926 18.8177C21.6182 19.4951 21.9689 20.1851 22.2946 20.85C22.5701 21.402 22.8457 21.9414 23.1087 22.4934C23.1964 22.669 23.2966 22.7443 23.4719 22.7443C23.4845 22.7443 23.497 22.7443 23.5095 22.7443C23.6097 22.7443 23.735 22.7317 23.8602 22.7317C23.9729 22.7317 24.0857 22.7317 24.2109 22.7317H24.3111C24.7119 22.7443 25 23.0203 25 23.3841C25 23.7604 24.7119 24.049 24.2986 24.049C24.2735 24.0615 6.02455 24.0615 0.914329 24.0741ZM16.4955 20.4736C16.7209 21.1636 16.9464 21.816 17.1593 22.4808C17.2345 22.7067 17.3597 22.7443 17.5351 22.7443C18.2239 22.7443 18.9003 22.7443 19.5767 22.7443H21.3677C21.4178 22.7443 21.4679 22.7443 21.518 22.7317L21.6433 22.7192V22.6565C21.6433 22.6439 21.6433 22.6439 21.6433 22.6314C21.6433 22.6063 21.6558 22.5812 21.6308 22.5561L21.5807 22.4558C21.1423 21.5776 20.7039 20.6743 20.253 19.7836C20.2154 19.7084 20.1027 19.6331 20.0276 19.6331C19.1884 19.6331 18.3492 19.6331 17.51 19.6331H16.2074L16.4955 20.4736ZM12.9509 19.6331C11.3101 19.6331 9.40631 19.6331 7.52755 19.6457C7.41483 19.6457 7.3021 19.7711 7.27705 19.8589C7.11423 20.3356 6.96393 20.8123 6.81363 21.2765L6.3502 22.7192H15.8567L14.8297 19.6331H12.9509ZM7.22695 4.01444C5.37325 4.99296 3.54459 8.44286 3.97044 10.1615L3.99549 10.2368L7.38978 9.10775L7.37725 9.04503C6.97645 7.30126 6.96393 5.68294 7.33968 4.10225L7.37725 3.93917L7.22695 4.01444ZM10.1453 2.63447C9.76954 2.63447 9.46894 2.78502 9.25601 3.09864C9.00551 3.44991 8.83016 3.78862 8.71743 4.12734C8.41683 5.0055 8.32916 6.00911 8.42936 7.26362C8.45441 7.5647 8.50451 7.85324 8.55461 8.16687C8.57966 8.30487 8.60471 8.45541 8.61724 8.5934L8.62976 8.68122L14.3287 6.77436L14.2911 6.69909C13.6523 5.31913 12.8632 4.25279 11.8612 3.41227C11.3978 3.02337 10.9594 2.78502 10.5085 2.67211C10.3833 2.65956 10.258 2.63447 10.1453 2.63447ZM13.3893 2.12012C13.1263 2.12012 12.8758 2.15776 12.6754 2.22049L12.5501 2.25812L12.6628 2.34594C13.3642 2.91047 13.9028 3.50009 14.3412 4.13989C14.6543 4.6166 14.9424 5.10586 15.2555 5.62021C15.3933 5.84602 15.5185 6.07184 15.6563 6.2851L15.6814 6.33528L19.0381 5.20622L19.0005 5.13095C18.1738 3.66317 15.2931 2.12012 13.3893 2.12012Z" fill="#3F3F3F"/>
</g>
<defs>
<clipPath id="clip0_307_3519">
<rect width="25" height="24.0741" fill="white"/>
</clipPath>
</defs>
</svg>
