<svg width="25" height="25" viewBox="0 0 25 25" fill="none" xmlns="http://www.w3.org/2000/svg">
<g clip-path="url(#clip0_985_2809)">
<path d="M0.266527 11.2722C1.00617 7.92899 2.84049 5.11834 5.76948 2.84024C8.16593 1.00592 10.7695 0.0591716 13.6985 0H13.9352C14.1423 0 14.3494 0.0295858 14.5565 0.0295858C16.6866 0.207101 18.4914 1.00592 19.9115 2.39645C20.0594 2.54438 20.1778 2.81065 20.2074 2.98817C20.3553 5.56213 20.4736 8.16568 20.6216 10.7396L20.7991 14.0237C20.8878 16.0059 21.0062 18.0178 21.1245 20C21.1245 20.1183 21.2133 20.2959 21.3316 20.4142C22.16 21.2426 22.9884 22.071 23.8168 22.8994L24.7044 23.8166C24.7636 23.8757 24.8523 23.9645 24.9115 24.0533C25.089 24.3195 25.0298 24.5858 24.8227 24.8225C24.7044 24.9408 24.5565 25 24.4085 25C24.2902 25 24.1718 24.9704 24.0831 24.8817C23.9647 24.8521 23.9056 24.7633 23.8168 24.7041L22.8701 23.7574C22.0417 22.929 21.2429 22.1302 20.4145 21.3314C20.2961 21.213 20.1186 21.1538 19.9707 21.1243C19.4973 21.0947 18.9943 21.0651 18.521 21.0355C18.2843 21.0355 18.0476 21.0059 17.8109 21.0059L9.37895 20.5621C7.30795 20.4438 5.23694 20.355 3.19552 20.2367C2.72215 20.2071 2.3967 20.0592 2.1896 19.7337C2.10085 19.6154 2.01209 19.4675 1.89375 19.3491C1.74582 19.1716 1.59789 18.9645 1.44996 18.7574C0.0298405 16.5385 -0.354774 14.0828 0.266527 11.2722ZM4.94108 10.1183C5.47363 11.3609 6.24286 12.574 7.27836 13.7574C8.49137 10.6509 10.6511 8.46154 13.7576 7.30769C12.0417 5.8284 10.4145 4.91124 8.63931 4.46746C8.16593 4.34911 7.72215 4.28994 7.27836 4.28994C6.9825 4.28994 6.68664 4.31953 6.42037 4.3787C5.08901 4.67456 4.31978 5.71006 4.31978 7.21894C4.29019 8.1361 4.49729 9.05326 4.94108 10.1183ZM7.6038 3.07692C10.6216 3.3432 12.8997 4.94083 14.7044 6.50888C15.089 5.6213 15.592 4.88166 16.2133 4.26035C16.8642 3.60947 17.6038 3.10651 18.4618 2.75148C18.3434 2.69231 18.2251 2.60355 18.1068 2.54438C17.7517 2.33728 17.3967 2.10059 17.0121 1.95266C15.9766 1.47929 14.8523 1.27219 13.6689 1.27219C12.7813 1.27219 11.8346 1.42012 10.8287 1.68639C9.73398 1.92308 8.66889 2.39645 7.6038 3.07692ZM19.0535 3.78698C17.8109 4.28994 16.8642 5.11834 16.1541 6.30177C15.6807 7.07101 15.6511 7.69231 16.0062 8.49113C16.9825 10.6213 17.8997 12.8107 18.7872 14.9112L18.8168 14.9408C19.1127 15.6805 19.4381 16.3905 19.734 17.1302L19.0535 3.78698ZM14.6452 8.3432C12.2784 8.87574 9.26061 11.2426 8.34345 14.5858L19.3494 19.3195L14.6452 8.3432ZM7.72215 15.6805C7.66297 15.6509 7.57422 15.6509 7.51505 15.6509C7.48546 15.6509 7.45587 15.6509 7.45587 15.6509C5.7399 16.213 4.4973 17.3373 3.78724 19.0237L17.1304 19.7337C13.9943 18.3728 10.8582 17.0414 7.72215 15.6805ZM2.72215 18.3728C3.52096 16.6568 4.73398 15.4438 6.47954 14.6746C5.02984 12.9882 3.34345 10.6805 3.07718 7.60355C1.12452 10.5621 0.355284 15.3254 2.72215 18.3728Z" fill="#3F3F3F"/>
</g>
<defs>
<clipPath id="clip0_985_2809">
<rect width="25" height="25" fill="white" transform="matrix(-1 0 0 1 25 0)"/>
</clipPath>
</defs>
</svg>
