<svg width="22" height="22" viewBox="0 0 22 22" fill="none" xmlns="http://www.w3.org/2000/svg">
<path d="M2.60649 22C1.11707 22 0 20.8829 0 19.3935V2.63752C0 1.11707 1.11707 0 2.60649 0H19.3625C20.8519 0 21.969 1.11707 21.969 2.60649V19.3625C21.969 20.8519 20.8519 21.969 19.3625 21.969H2.60649V22ZM2.60649 1.52045C1.95487 1.52045 1.48942 1.9859 1.48942 2.63752V19.3935C1.48942 20.0451 1.95487 20.5106 2.60649 20.5106H19.3625C20.0141 20.5106 20.4795 20.0451 20.4795 19.3935V2.63752C20.4795 1.9859 20.0141 1.52045 19.3625 1.52045H2.60649ZM6.20592 17.3456V4.65444H12.6911C14.8942 4.65444 16.6939 6.45416 16.6939 8.65726C16.6939 10.8604 14.8942 12.6601 12.6911 12.6601H7.72637V17.3145H6.20592V17.3456ZM7.72637 11.1707H12.7221C14.1185 11.1707 15.2355 10.0846 15.2355 8.65726C15.2355 7.2299 14.1495 6.14386 12.7221 6.14386H7.72637V11.1707Z" fill="#3F3F3F"/>
</svg>
