<svg width="22" height="26" viewBox="0 0 22 26" fill="none" xmlns="http://www.w3.org/2000/svg">
<g clip-path="url(#clip0_223_734)">
<path d="M6.94642 5.4786C6.94642 4.79627 7.13627 4.11394 7.5048 3.49873C8.35352 2.07815 9.58194 1.2616 11.2794 0.981954C11.3464 0.970768 11.4022 0.948397 11.4469 0.926025L12.5078 0.926025C12.6306 0.959582 12.7535 0.981954 12.8763 1.01551C13.1667 1.08262 13.4347 1.14974 13.6916 1.23922C15.255 1.83207 16.2266 3.18553 16.2266 4.76271C16.2266 5.4786 16.0144 6.20567 15.6235 6.85444C14.2611 9.11394 11.2012 9.99761 8.93423 8.77837C7.70581 8.11842 6.94642 6.85444 6.94642 5.4786ZM14.7413 4.78509C14.7413 3.87905 14.1941 3.07368 13.3119 2.68218C11.7484 1.99985 9.63778 2.70455 8.78905 4.20343C8.55453 4.6173 8.43169 5.06473 8.43169 5.50097C8.43169 6.09381 8.66621 6.64191 9.10174 7.06696C9.64894 7.61506 10.3413 7.84996 11.3911 7.84996L11.4134 7.84996C12.6865 7.78285 13.7474 7.13408 14.4063 6.0267C14.6185 5.6352 14.7413 5.21014 14.7413 4.78509Z" fill="#3F3F3F"/>
<path d="M11.5025 25.9147C11.5695 25.8923 11.6254 25.8811 11.6924 25.8699C13.267 25.6239 14.3837 24.3487 14.4172 22.7491L14.4172 22.682C14.4172 21.4628 13.8142 20.2883 12.7645 19.4494C11.7147 18.6104 10.4193 18.2972 9.22438 18.5769C7.70561 18.9348 6.71171 20.1541 6.71171 21.6753C6.71171 21.7424 6.7117 21.8207 6.72287 21.8878C6.81221 23.3755 7.53809 24.5165 8.90052 25.2883C9.24671 25.4896 9.64874 25.6127 10.0731 25.7357C10.2518 25.7916 10.4305 25.8476 10.6091 25.9035L10.6203 25.9035L11.469 25.9035L11.5025 25.9147ZM13.1218 22.1787C13.1553 22.3465 13.1777 22.5031 13.1777 22.6708C13.1777 23.823 12.3066 24.6619 11.1228 24.6843C9.76041 24.7066 8.43149 23.7223 8.0518 22.4136C7.98479 22.1899 7.95129 21.9661 7.95129 21.7424C7.95129 21.1943 8.16347 20.691 8.532 20.3218C8.93403 19.9303 9.50356 19.7178 10.1289 19.7402C11.536 19.7849 12.8426 20.8476 13.1218 22.1787Z" fill="#3F3F3F"/>
<path d="M12.3067 14.4159C12.3067 12.8387 12.8874 11.3398 13.8924 10.3108C14.9198 9.27049 16.2264 8.75595 17.5665 8.87899C18.9178 9.00204 20.1127 9.74029 20.9503 10.9707C21.6426 11.9998 21.9888 13.1743 22 14.5613C21.9218 16.3846 21.2518 17.8387 20.0122 18.9014C18.2031 20.4338 15.8244 20.3667 14.0823 18.7336C12.9544 17.6821 12.3067 16.1049 12.3067 14.4159ZM20.5259 14.4271C20.5259 13.4875 20.2355 12.5591 19.6995 11.7537C19.0965 10.8589 18.1696 10.3443 17.1645 10.3443C16.1594 10.3443 15.2437 10.8477 14.6407 11.7313C14.06 12.5815 13.7696 13.4763 13.7696 14.4047C13.7696 15.1318 13.9594 15.8812 14.3168 16.6195C14.8975 17.794 15.8356 18.4651 16.9635 18.5211L16.9747 18.5211C18.1026 18.5211 18.9736 18.0848 19.6325 17.1788C20.2132 16.3622 20.5259 15.4114 20.5259 14.4271Z" fill="#3F3F3F"/>
<path d="M0.703762 13.2191C0.703762 11.5077 1.79817 10.0424 3.55146 9.40478C6.1088 8.47637 9.29152 9.79628 10.3524 12.2348C10.5981 12.794 10.7209 13.3757 10.7209 13.9685C10.7209 15.6688 9.64887 17.1565 7.99609 17.7493C7.57173 17.9059 7.11387 17.9842 6.74534 18.0625C6.61133 18.0849 6.48849 18.1072 6.38798 18.1296C4.09866 18.0178 2.54639 17.2236 1.48548 15.6464C0.971781 14.897 0.703762 14.058 0.703762 13.2191ZM9.24685 13.9574C9.24685 13.5547 9.15751 13.152 8.96766 12.7605C8.1301 11.0043 5.78494 10.0983 3.96465 10.8142C2.84791 11.2504 2.17786 12.1565 2.17786 13.2191C2.17786 13.6889 2.31187 14.1587 2.56872 14.6285C3.27227 15.8813 4.43368 16.5189 6.22047 16.6531L6.26514 16.6531L6.30981 16.6419C6.38798 16.6307 6.46616 16.6084 6.56666 16.5972C6.82351 16.5524 7.1362 16.4965 7.44889 16.3958C8.53213 16.0267 9.24685 15.0647 9.24685 13.9574Z" fill="#3F3F3F"/>
</g>
<defs>
<clipPath id="clip0_223_734">
<rect width="25" height="21.2963" fill="white" transform="translate(22 0.926025) rotate(90)"/>
</clipPath>
</defs>
</svg>
