<svg width="26" height="23" viewBox="0 0 26 23" fill="none" xmlns="http://www.w3.org/2000/svg">
<g clip-path="url(#clip0_989_2943)">
<path d="M0.613208 18.2123C0.981132 18.2123 1.28774 18.3349 1.74764 18.5802C2.29953 18.8868 2.85141 19.0708 3.37264 19.0708C3.92453 19.0708 4.47641 18.9175 4.99764 18.5802C5.36557 18.3349 5.73349 18.2429 6.10141 18.2429C6.46934 18.2429 6.83726 18.3656 7.20519 18.5802C7.72641 18.9175 8.2783 19.0708 8.83019 19.0708C9.38207 19.0708 9.93396 18.9175 10.4858 18.5802C10.8538 18.3349 11.2217 18.2429 11.5896 18.2429C11.9575 18.2429 12.3255 18.3656 12.6934 18.5802C13.2453 18.9175 13.7972 19.0708 14.3491 19.0708C14.9009 19.0708 15.4835 18.8868 16.0047 18.5802C16.3726 18.3656 16.7406 18.2429 17.0778 18.2429C17.4151 18.2429 17.783 18.3656 18.1509 18.5802C18.7028 18.9175 19.2547 19.1014 19.8373 19.1014C20.3891 19.1014 20.9717 18.9175 21.5542 18.5802C21.7995 18.4269 21.9835 18.3349 22.1675 18.3042C22.3208 18.2736 22.4741 18.2429 22.6274 18.2429C22.934 18.2429 23.2406 18.3349 23.5165 18.5189C24.1297 18.9175 24.6816 19.0708 25.2335 19.0708H25.2642C25.6627 19.0708 25.9387 18.8255 25.9387 18.4575C25.9387 18.0896 25.6627 17.8443 25.2948 17.8443C24.9575 17.8443 24.6203 17.7524 24.3137 17.5377C23.7311 17.1698 23.1486 16.9858 22.566 16.9858C21.9835 16.9858 21.4009 17.1698 20.8184 17.5071C20.4811 17.7217 20.1439 17.8137 19.8066 17.8137C19.6226 17.8137 19.4387 17.783 19.2547 17.7217L19.6226 17.5684C20.7264 17.1085 22.1675 16.1274 23.4552 15.0236C24.2524 14.3184 25.2948 13.184 25.8774 12.1415V11.6816C25.6014 10.9764 25.3561 10.7618 24.7123 10.7618C24.6816 10.7618 24.6203 10.7618 24.5896 10.7618C24.559 10.7618 24.4976 10.7618 24.467 10.7618C24.4363 10.7618 24.375 10.7618 24.2524 10.7618C24.283 10.6391 24.3137 10.4858 24.3137 10.3325C24.283 9.50472 23.6698 8.89151 22.7807 8.86085H22.658L21.125 8.89151C20.6038 8.89151 20.0519 8.92217 19.5307 8.95283H19.5C19.3774 8.95283 19.316 8.92217 19.2241 8.79953C19.1321 8.67689 13.2146 0.766509 13.0307 0.521226C12.8774 0.153302 12.6321 0 12.2948 0H12.2028C11.7429 0.0306604 11.283 0.0306604 10.8231 0.0613208C10.6392 0.0613208 8.73821 0.153302 8.15566 0.183962C7.9717 0.183962 7.87972 0.275943 7.8184 0.367925C7.75708 0.459906 7.75707 0.643868 7.75707 0.643868L8.24764 11.4976L7.75707 11.5283L7.66509 10.2099C7.63443 9.93396 7.51179 9.68868 7.32783 9.50472C7.14387 9.35141 6.92924 9.25943 6.68396 9.25943H6.6533C6.62264 9.25943 6.59198 9.25943 6.59198 9.25943L5.91745 9.29009C5.64151 9.32075 5.39623 9.4434 5.21226 9.62736C5.0283 9.84198 4.93632 10.0873 4.96698 10.3632L5.05896 11.559C4.53774 11.5896 4.13915 11.5896 3.92453 11.6203C3.12736 11.6816 2.72877 11.9575 2.45283 12.6627C2.11557 13.5825 1.22642 15.9127 0.889151 16.8325C0.858491 16.8939 0.858491 16.9245 0.858491 16.9858H0.82783C0.306604 16.9552 0.0306604 17.1698 0 17.5377C0 17.7217 0.0306604 17.875 0.153302 17.9976C0.275943 18.1509 0.459906 18.2123 0.613208 18.2123ZM9.4434 11.375L9.01415 3.12736H9.07547C9.47406 3.12736 10.7618 3.0967 11.1604 3.0967C11.191 3.0967 11.283 3.15802 11.3443 3.25C11.5283 3.52594 15.8514 9.25943 17.1698 11.0377C14.9316 11.1297 12.1108 11.2524 9.4434 11.375ZM10.5472 1.22642C11.0071 1.22642 11.467 1.19575 11.9575 1.19575H12.0189C12.1415 1.19575 12.2028 1.22642 12.2642 1.34906C12.3561 1.50236 18.3349 9.47406 18.4882 9.68868C18.6722 9.96462 18.9175 10.0873 19.2547 10.1179H19.316C19.8373 10.0873 20.3585 10.0873 20.9104 10.0566C21.217 10.0566 22.7807 10.0259 22.7807 10.0259H22.842C22.9646 10.0259 23.0566 10.0566 23.1179 10.1179C23.1792 10.1792 23.2099 10.2406 23.2099 10.3325C23.2099 10.5472 23.0566 10.6698 22.842 10.6698C22.2288 10.7005 21.6462 10.7005 21.033 10.7311C20.2358 10.7618 19.408 10.7618 18.6108 10.7925C18.5802 10.7925 18.4882 10.7311 18.4269 10.6698C18.1816 10.3019 12.5094 2.79009 12.2335 2.39151C12.0189 2.05425 11.7736 1.90094 11.4363 1.90094H11.3443H11.283C10.9151 1.9316 9.65802 1.96226 9.41274 1.96226H9.01415L8.98349 1.28774L10.5472 1.22642ZM5.94811 10.2712L5.97877 10.2406L6.6533 10.2099H6.68396L6.71462 10.2406L6.8066 11.467L6.04009 11.4976L5.94811 10.2712C5.94811 10.3019 5.91745 10.3019 5.94811 10.2712ZM3.00472 14.809C3.21934 14.2264 3.43396 13.6745 3.64858 13.092C3.70991 12.9387 3.74057 12.908 3.92453 12.908C4.59906 12.8774 9.65802 12.6627 14.0118 12.4481L14.5024 12.4175C19.1014 12.2028 23.6392 12.0189 24.4976 11.9575L24.4057 12.0495C24.191 12.3255 23.6391 12.9693 23.3632 13.2453C23.3325 13.2759 22.1675 14.3491 22.1061 14.4104C20.941 15.3302 19.1934 16.4646 17.7217 16.9858C17.5071 16.9245 17.2925 16.8939 17.0472 16.8939C16.4646 16.8939 15.8821 17.0778 15.2995 17.4151C14.9623 17.6297 14.625 17.7217 14.3184 17.7217C13.9811 17.7217 13.6439 17.6297 13.3066 17.4151C12.7241 17.0472 12.1415 16.8939 11.559 16.8939C10.9764 16.8939 10.3939 17.0778 9.81132 17.4151C9.47406 17.6297 9.13679 17.7217 8.79953 17.7217C8.46226 17.7217 8.125 17.6297 7.8184 17.4151C7.23585 17.0472 6.6533 16.8632 6.07075 16.8632C5.48821 16.8632 4.90566 17.0472 4.32311 17.3844C4.13915 17.5071 3.92453 17.5991 3.74057 17.6297C3.58726 17.6604 3.43396 17.691 3.28066 17.691C2.97406 17.691 2.66745 17.5991 2.36085 17.4151C2.26887 17.3538 2.14623 17.2925 2.05425 17.2311L3.00472 14.809Z" fill="#3F3F3F"/>
<path d="M25.3561 21.1556C25.0189 21.1556 24.6816 21.0637 24.375 20.849C23.7925 20.4811 23.2099 20.2971 22.6274 20.2971C22.0448 20.2971 21.4623 20.4811 20.8797 20.8184C20.5425 21.033 20.2052 21.125 19.8679 21.125C19.5307 21.125 19.1934 21.033 18.8255 20.8184C18.5802 20.6651 18.2736 20.5118 17.9363 20.4198C17.6604 20.3278 17.3538 20.2971 17.0778 20.2971C16.4953 20.2971 15.9127 20.4811 15.3302 20.8184C14.9929 21.033 14.6557 21.125 14.3491 21.125C14.0118 21.125 13.6745 21.033 13.3373 20.8184C12.7547 20.4504 12.1722 20.2971 11.5896 20.2971C11.0071 20.2971 10.4245 20.4811 9.84198 20.8184C9.50472 21.033 9.16745 21.125 8.83019 21.125C8.49292 21.125 8.15566 21.033 7.84906 20.8184C7.26651 20.4504 6.68396 20.2665 6.10141 20.2665C5.51887 20.2665 4.93632 20.4504 4.35377 20.7877C4.16981 20.9103 3.95519 21.0023 3.77123 21.033C3.61792 21.0636 3.46462 21.0943 3.31132 21.0943C3.00472 21.0943 2.69811 21.0023 2.39151 20.8184C1.83962 20.5424 1.3184 20.3278 0.889151 20.3278H0.82783C0.306604 20.3278 0.0306604 20.5424 0 20.9103C0 21.0943 0.0306604 21.2476 0.153302 21.3703C0.275943 21.4929 0.429245 21.5542 0.613208 21.5542C0.981132 21.5542 1.28774 21.6769 1.74764 21.9221C2.29953 22.2287 2.85141 22.4127 3.37264 22.4127C3.92453 22.4127 4.47641 22.2594 4.99764 21.9221C5.36557 21.6769 5.73349 21.5849 6.10141 21.5849C6.46934 21.5849 6.83726 21.7075 7.20519 21.9221C7.72641 22.2594 8.2783 22.4127 8.83019 22.4127C9.38207 22.4127 9.93396 22.2594 10.4858 21.9221C10.8538 21.6769 11.2217 21.5849 11.5896 21.5849C11.9575 21.5849 12.3255 21.7075 12.6934 21.9221C13.2453 22.2594 13.7972 22.4127 14.3491 22.4127C14.9009 22.4127 15.4835 22.2287 16.0047 21.9221C16.3726 21.7075 16.7406 21.5849 17.0778 21.5849C17.4151 21.5849 17.783 21.7075 18.1509 21.9221C18.7028 22.2594 19.2547 22.4434 19.8373 22.4434C20.3891 22.4434 20.9717 22.2594 21.5542 21.9221C21.7995 21.7688 21.9835 21.6769 22.1675 21.6462C22.3208 21.6155 22.4741 21.5849 22.6274 21.5849C22.934 21.5849 23.2406 21.6769 23.5165 21.8608C24.1297 22.2594 24.6816 22.4127 25.2335 22.4127H25.2642C25.6627 22.4127 25.9387 22.1674 25.9387 21.7995C26 21.4316 25.7547 21.1556 25.3561 21.1556Z" fill="#3F3F3F"/>
</g>
<defs>
<clipPath id="clip0_989_2943">
<rect width="26" height="22.4434" fill="white"/>
</clipPath>
</defs>
</svg>
