<svg width="25" height="23" viewBox="0 0 25 23" fill="none" xmlns="http://www.w3.org/2000/svg">
<g clip-path="url(#clip0_307_3510)">
<path d="M0 7.75913C0.0765306 7.46219 0.127551 7.15234 0.242347 6.8554C0.918367 5.02214 2.89541 4.33789 4.55357 5.3449C6.25 6.39063 6.91327 8.7274 5.9949 10.4574C5.20408 11.9421 3.3801 12.4456 1.93878 11.5677C0.854592 10.9222 0.242347 9.95388 0.0382653 8.70158C0.0382653 8.66285 0.0127551 8.62412 0 8.58539C0 8.31427 0 8.03024 0 7.75913ZM4.93622 8.5983C4.89796 7.83659 4.54082 7.08779 3.73724 6.5972C2.94643 6.11952 2.01531 6.42936 1.64541 7.28144C1.19898 8.32718 1.65816 9.7215 2.64031 10.2895C3.27806 10.651 3.96684 10.5865 4.43878 10.1088C4.79592 9.73441 4.93622 9.26963 4.93622 8.5983Z" fill="#3F3F3F"/>
<path d="M25.0002 11.9033C24.8216 12.4068 24.7196 12.962 24.4645 13.4138C23.814 14.5758 22.8063 15.2858 21.467 15.3633C20.0002 15.4537 18.8395 14.537 18.4951 13.0911C17.9594 10.8188 19.8726 8.40462 22.1686 8.45626C23.5844 8.48208 24.7451 9.5149 24.9619 10.935C24.9747 10.9996 24.9874 11.0641 25.013 11.1287C25.0002 11.374 25.0002 11.6451 25.0002 11.9033ZM19.8599 12.2906C19.8216 13.4267 20.74 14.1497 21.7987 13.827C22.7936 13.53 23.5334 12.4972 23.5206 11.4515C23.5079 10.4186 22.7043 9.7602 21.7094 9.96677C20.7145 10.1862 19.8982 11.2062 19.8599 12.2906Z" fill="#3F3F3F"/>
<path d="M11.6199 21.1471C10.4975 21.1342 9.46429 21.4053 8.46939 21.8055C6.25001 22.7221 3.81378 21.4569 3.25256 19.1202C3.02297 18.1777 3.0995 17.2223 3.59695 16.3961C4.64286 14.6919 5.63776 12.9361 6.83674 11.3481C8.31633 9.39869 10.3571 8.67571 12.7551 9.11466C14.4643 9.42451 15.7781 10.3799 16.7219 11.8387C17.6276 13.246 18.5204 14.6532 19.4133 16.0733C20.8673 18.4101 19.6684 21.3924 17.0536 21.9992C16.3138 22.167 15.5612 22.1412 14.8469 21.8442C13.7883 21.4311 12.7168 21.1213 11.6199 21.1471ZM18.5587 18.2035C18.5714 17.7646 18.4566 17.3385 18.2143 16.9641C17.2321 15.4149 16.2883 13.8269 15.2424 12.3293C13.5077 9.85055 9.66837 9.86346 7.93368 12.3293C6.87501 13.8269 5.94389 15.4149 4.96174 16.9641C4.59184 17.5451 4.51531 18.2035 4.70664 18.862C5.1148 20.295 6.54337 20.9534 7.95919 20.4241C8.66072 20.1659 9.37501 19.9464 10.102 19.7915C11.3138 19.5333 12.5383 19.5978 13.7245 19.9206C14.2985 20.0755 14.8469 20.295 15.4082 20.4887C16.9515 21.0309 18.5714 19.856 18.5587 18.2035Z" fill="#3F3F3F"/>
<path d="M13.4185 4.31205C13.3802 5.57726 12.9593 6.72628 11.9389 7.61709C10.5741 8.79193 8.73735 8.7532 7.42358 7.51381C5.70164 5.88711 5.62511 2.84027 7.25776 1.1232C8.8649 -0.555144 11.3139 -0.335669 12.6149 1.58797C13.1634 2.40132 13.4057 3.27922 13.4185 4.31205ZM9.63021 6.98448C10.4338 6.98448 10.9695 6.6359 11.3649 6.09367C12.1557 4.98338 12.143 3.55034 11.3904 2.41423C10.5613 1.18775 8.92868 1.18775 8.11235 2.41423C7.41082 3.47288 7.3598 4.60898 7.92102 5.73218C8.27817 6.46807 8.87766 6.94575 9.63021 6.98448Z" fill="#3F3F3F"/>
<path d="M20.7398 5.33191C20.6632 7.01025 20.1148 8.23674 18.8775 9.07591C17.0663 10.3024 14.8597 9.55359 14.1071 7.47503C13.4056 5.51266 14.3877 3.11134 16.2372 2.29798C17.9464 1.53628 19.8214 2.33672 20.4464 4.11834C20.6122 4.55729 20.676 5.03497 20.7398 5.33191ZM19.2602 5.44811C19.2219 5.25445 19.1836 4.9446 19.0816 4.64766C18.75 3.64066 17.7168 3.20171 16.7729 3.66648C15.625 4.22162 15.0127 5.80959 15.4847 7.02317C15.9056 8.09472 16.926 8.49494 17.9081 7.92689C18.8137 7.41048 19.1836 6.5713 19.2602 5.44811Z" fill="#3F3F3F"/>
</g>
<defs>
<clipPath id="clip0_307_3510">
<rect width="25" height="22.1154" fill="white"/>
</clipPath>
</defs>
</svg>
