<svg width="15" height="18" viewBox="0 0 15 18" fill="none" xmlns="http://www.w3.org/2000/svg">
<path d="M10.0747 17.4628C9.73887 17.3509 9.40305 17.2389 9.06723 17.127C8.17171 16.7912 7.38812 16.2315 6.71648 15.6718C5.03738 14.3285 3.80603 12.6494 2.57469 10.8583C1.79111 9.62698 1.11947 8.2837 0.671705 6.94041C0.335884 6.04489 0.112003 5.14937 0.223943 4.14191C0.335884 3.24639 0.671704 2.4628 1.45529 1.9031C2.12693 1.45534 2.79857 0.895639 3.47021 0.447878L3.58215 0.335938C4.8135 1.79116 5.9329 3.35833 7.16424 4.92549C6.26872 5.59713 5.3732 6.26877 4.47767 6.94041C5.59708 8.95534 6.94036 10.9703 8.73141 12.5374C9.62693 11.8658 10.5225 11.1941 11.418 10.5225C12.6493 12.0897 13.7687 13.6568 14.8881 15.224C14.8881 15.224 14.7762 15.224 14.7762 15.3359C14.1045 15.8956 13.4329 16.3434 12.6493 16.9031C12.2016 17.2389 11.7538 17.3509 11.306 17.4628C11.0822 17.4628 10.9702 17.4628 10.7463 17.4628C10.4105 17.5747 10.2986 17.5747 10.0747 17.4628Z" fill="white"/>
</svg>
