<svg width="19" height="20" viewBox="0 0 19 20" fill="none" xmlns="http://www.w3.org/2000/svg">
<g clip-path="url(#clip0_451_2006)">
<path d="M14.87 12.7022C14.5553 12.3613 14.1226 12.1646 13.6637 12.1646C13.2703 12.1646 12.8901 12.3088 12.6147 12.5711L12.0902 13.0431C11.9197 13.2005 11.6837 13.2923 11.4477 13.2923C11.4215 13.2923 11.4083 13.2923 11.3821 13.2923C11.1068 13.2792 10.8445 13.148 10.6609 12.9382L6.22891 8.08662C6.04533 7.87682 5.94043 7.61457 5.94043 7.33921C5.94043 7.06385 6.05844 6.81471 6.25513 6.64425L6.77963 6.1722C7.09433 5.88372 7.27791 5.49035 7.29102 5.05763C7.30413 4.63803 7.14678 4.23155 6.85831 3.91685L4.15713 0.953424C3.86866 0.651837 3.46217 0.468262 3.04257 0.468262C2.67542 0.468262 2.3345 0.599387 2.07225 0.848524L1.3904 1.46481C0.498747 2.27779 -0.43224 3.79883 0.223385 6.39511C0.760997 8.53244 2.28205 10.9845 4.73408 13.6725L4.97011 13.9217C7.40903 16.6229 9.70372 18.3537 11.8017 19.0749C12.536 19.3371 13.2441 19.4683 13.9128 19.4683C15.0274 19.4683 16.0371 19.088 16.8238 18.3537L17.5057 17.7374C18.0957 17.1998 18.1351 16.2557 17.5843 15.6525L14.87 12.7022ZM5.90109 5.2281L5.3766 5.70015C4.93077 6.10663 4.66852 6.67047 4.65541 7.28676C4.62918 7.90304 4.8521 8.49311 5.2717 8.95204L9.70372 13.8037C10.1233 14.2626 10.6872 14.538 11.3034 14.5773C11.3559 14.5773 11.3952 14.5773 11.4477 14.5773C12.0115 14.5773 12.5491 14.3675 12.9687 13.9872L13.4932 13.5152C13.5457 13.4759 13.6112 13.4496 13.6768 13.4496C13.7686 13.4496 13.8604 13.489 13.9259 13.5676L16.6271 16.518C16.7058 16.5966 16.7058 16.7146 16.6402 16.7802L15.9584 17.3965C15.3945 17.9079 14.6996 18.1701 13.8997 18.1701C11.7624 18.1701 8.93008 16.3475 5.91421 13.0563L5.67818 12.8071C3.40972 10.3157 1.95423 7.99483 1.46907 6.08041C1.0757 4.50691 1.35106 3.24811 2.25582 2.40891L2.93767 1.79262C2.9639 1.7664 3.00323 1.75329 3.04257 1.75329C3.09502 1.75329 3.16058 1.77951 3.19992 1.83196L5.90109 4.78227C5.96666 4.84783 5.99288 4.93962 5.99288 5.0183C5.99288 5.09697 5.95354 5.17565 5.90109 5.2281Z" fill="#3F3F3F"/>
<path d="M8.98292 3.99561C8.62888 3.99561 8.35352 4.28408 8.35352 4.62501C8.35352 4.96593 8.64199 5.2544 8.98292 5.2544C11.789 5.2544 14.0837 7.53598 14.0837 10.3552C14.0837 10.7092 14.3721 10.9846 14.7131 10.9846C15.054 10.9846 15.3425 10.6961 15.3425 10.3552C15.3556 6.85413 12.4971 3.99561 8.98292 3.99561Z" fill="#3F3F3F"/>
<path d="M8.89112 2.01564C13.2838 2.01564 16.8504 5.58223 16.8504 9.97492C16.8504 10.329 17.1389 10.6043 17.4798 10.6043C17.8207 10.6043 18.1092 10.3158 18.1092 9.97492C18.1092 4.88727 13.9788 0.756836 8.89112 0.756836C8.53708 0.756836 8.26172 1.04531 8.26172 1.38624C8.26172 1.72716 8.53708 2.01564 8.89112 2.01564Z" fill="#3F3F3F"/>
</g>
<defs>
<clipPath id="clip0_451_2006">
<rect width="18.1084" height="19" fill="white" transform="translate(0 0.468262)"/>
</clipPath>
</defs>
</svg>
