<svg width="23" height="23" viewBox="0 0 23 23" fill="none" xmlns="http://www.w3.org/2000/svg">
<g clip-path="url(#clip0_307_3621)">
<path d="M20.1817 0H2.3C1.03662 0 0 1.03662 0 2.3V22.2225C0 22.6437 0.356338 23 0.777465 23C1.19859 23 1.55493 22.6437 1.55493 22.2225V2.3C1.55493 1.87887 1.91127 1.52254 2.33239 1.52254H5.24789V17.6225H17.1042V1.55493H20.2141C20.6352 1.55493 20.9916 1.91127 20.9916 2.33239V22.2549C20.9916 22.6761 21.3479 23.0324 21.769 23.0324C22.1901 23.0324 22.5465 22.6761 22.5465 22.2549V2.3C22.4817 1.03662 21.4451 0 20.1817 0ZM6.77042 14.6746H15.5493V16.1H6.77042V14.6746ZM6.77042 13.1197V1.55493H15.5493V13.1197H6.77042Z" fill="#3F3F3F"/>
</g>
<defs>
<clipPath id="clip0_307_3621">
<rect width="22.4817" height="23" fill="white"/>
</clipPath>
</defs>
</svg>
