<svg width="20" height="20" viewBox="0 0 20 20" fill="none" xmlns="http://www.w3.org/2000/svg">
<path d="M19.4245 17.0535C19.1239 16.8404 18.7086 16.9114 18.5009 17.212C18.4955 17.2174 18.2004 17.6164 17.6375 17.8732C16.8397 18.2393 15.9107 18.1464 14.8778 17.6054C14.8341 17.5836 14.7959 17.5617 14.7521 17.5399V5.38632C14.7521 3.51192 16.2768 1.9818 18.1567 1.9818C18.5228 1.9818 18.8179 1.6867 18.8179 1.32056C18.8179 0.954427 18.5228 0.659332 18.1567 0.659332C15.55 0.659332 13.4242 2.77964 13.4242 5.39178V7.41373H3.04123V5.38632C3.04123 3.51192 4.56589 1.9818 6.44575 1.9818C6.81189 1.9818 7.10699 1.6867 7.10699 1.32056C7.10699 0.954427 6.81189 0.659332 6.44575 0.659332C3.83908 0.659332 1.7133 2.77964 1.7133 5.39178V17.0316C1.3417 17.1737 0.970102 17.3322 0.587571 17.5071C0.254223 17.6601 0.106675 18.0535 0.259687 18.3869C0.4127 18.7202 0.80616 18.8678 1.13951 18.7148C6.85014 16.0862 11.4187 17.3049 14.2494 18.7858C15.1456 19.2558 15.938 19.4197 16.6047 19.4197C17.2495 19.4197 17.7796 19.2667 18.1785 19.0809C19.0638 18.6765 19.5228 18.0481 19.572 17.9825C19.7906 17.6819 19.7196 17.2666 19.4245 17.0535ZM13.4242 16.9387C10.8121 15.8895 7.26546 15.2775 3.0467 16.5671V13.4195H13.4242V16.9387ZM13.4242 12.0915H3.04123V8.74166H13.4187V12.0915H13.4242Z" fill="#3F3F3F"/>
</svg>
