<svg width="25" height="25" viewBox="0 0 25 25" fill="none" xmlns="http://www.w3.org/2000/svg">
<g clip-path="url(#clip0_989_2949)">
<path d="M24.2792 25C20.1752 25 16.0712 25 11.9672 25H6.67267C6.23408 25 5.98345 24.7493 5.98345 24.3107V21.4285C5.98345 17.3872 5.98345 13.1892 5.98345 9.08517C5.98345 8.61524 6.04611 8.11399 6.20275 7.61274C6.57869 6.29695 7.42455 5.29444 8.67768 4.60522C8.74034 4.57389 8.92831 4.44858 8.92831 4.32326C8.92831 3.97865 8.92831 3.63404 8.92831 3.28943V2.8195H5.16891C3.66515 2.8195 2.66265 3.79068 2.66265 5.32577V14.0037L2.7253 14.035C3.6025 14.411 4.07242 15.0375 4.13508 15.9147C4.26039 16.9172 3.50851 17.8571 2.50601 18.0451C2.38069 18.0764 2.22405 18.0764 2.09874 18.0764C1.19022 18.0764 0.37568 17.4812 0.0937252 16.6353C-0.219558 15.6328 0.250367 14.5363 1.19022 14.0977C1.40951 14.0037 1.47217 13.8471 1.47217 13.6591C1.47217 10.8396 1.47217 8.02001 1.47217 5.16913C1.47217 3.16412 3.06992 1.56637 5.07493 1.56637C5.51352 1.56637 5.95212 1.56637 6.42205 1.56637H9.0223L9.05362 1.47239C9.27292 0.814492 9.68019 0.407224 10.2754 0.156598C10.3694 0.12527 10.4947 0.0626129 10.62 0.0312846C10.6514 0.0312846 10.714 0.0312846 10.7454 -4.37535e-05H11.3406C11.3719 0.0312846 11.3719 0.0312846 11.4032 0.0312846C12.1551 0.187926 12.6877 0.626523 13.001 1.34707C13.095 1.50372 13.2516 1.56637 13.3769 1.56637C14.1601 1.56637 14.9747 1.56637 15.7579 1.56637H15.9772C16.5098 1.56637 17.0423 1.56637 17.6063 1.56637C17.7942 1.56637 17.9195 1.50372 17.9822 1.31575C18.1702 0.814492 18.5461 0.438553 19.0474 0.187926C19.1727 0.12527 19.298 0.0939412 19.4546 0.0312846C19.5173 -4.37535e-05 19.5799 -4.37535e-05 19.6426 -0.0313721H20.2378C20.2692 -4.37535e-05 20.2692 -4.37535e-05 20.3005 -4.37535e-05C21.0524 0.156598 21.585 0.595194 21.8982 1.31575C21.9609 1.50372 22.1175 1.56637 22.2428 1.56637H22.3995C22.7128 1.56637 23.0261 1.56637 23.3393 1.56637C23.59 1.56637 23.8719 1.56637 24.1225 1.56637H24.1852C24.5925 1.56637 24.8118 1.72301 24.9684 2.0363V2.38091C24.8431 2.66286 24.5925 2.8195 24.2165 2.8195C24.1852 2.8195 24.1539 2.8195 24.1539 2.8195C23.9346 2.8195 23.7153 2.8195 23.4647 2.8195C23.308 2.8195 23.12 2.8195 22.9634 2.8195C22.9634 2.8195 22.5875 2.8195 22.4621 2.8195H22.0549V3.32076C22.0549 3.63404 22.0549 3.88467 22.0549 4.16662C22.0549 4.38592 22.1175 4.54256 22.3368 4.63655C23.496 5.26311 24.3105 6.20296 24.7491 7.4561C24.8431 7.70672 24.9058 7.98868 24.9371 8.2393C24.9684 8.36462 24.9997 8.48993 25.0311 8.61524V24.5614C24.8118 24.8433 24.6238 25 24.2792 25ZM16.1338 23.7468H23.7466V19.0789H16.1338V23.7468ZM7.23658 23.7468H14.8494V19.0789H7.26791L7.23658 23.7468ZM16.1338 17.8258H23.7466V15.1315H16.1338V17.8258ZM7.26791 17.8258H14.8807V16.5413V16.4787V15.1315H7.26791V17.8258ZM2.09874 15.1315C1.87944 15.1315 1.66014 15.2255 1.5035 15.3822C1.34686 15.5388 1.25287 15.7581 1.25287 15.9774C1.25287 16.4473 1.66014 16.8233 2.09874 16.8546C2.56866 16.8546 2.97593 16.4787 2.97593 16.0087C2.97593 15.5388 2.56866 15.1629 2.09874 15.1315ZM19.9559 5.26311C18.2328 5.26311 16.7291 6.42226 16.2591 8.08266C16.1025 8.70923 16.1338 13.8784 16.1338 13.8784H23.7779V13.2832C23.7779 12.03 23.8093 9.17915 23.7466 8.55259C23.5273 6.76687 22.0549 5.3571 20.2378 5.26311C20.1125 5.26311 20.0185 5.26311 19.9559 5.26311ZM11.0586 5.26311C9.33558 5.26311 7.83182 6.42226 7.3619 8.08266C7.1426 8.83454 7.20525 11.9674 7.23658 13.3145C7.23658 13.5338 7.23658 13.6904 7.23658 13.7844V13.9097H14.8494V13.7844C14.8494 12.9072 14.8807 9.21048 14.818 8.61524C14.5987 6.82953 13.1263 5.41976 11.3093 5.32577C11.2466 5.26311 11.1526 5.26311 11.0586 5.26311ZM13.1576 3.32076C13.1576 3.63404 13.1576 3.916 13.1576 4.22928C13.1576 4.41725 13.2203 4.54256 13.4083 4.63655C13.9722 4.9185 14.4734 5.32577 14.8807 5.7957C15.006 5.95234 15.1 6.07765 15.2253 6.23429L15.5073 6.61023L15.6012 6.45359C16.1338 5.60773 16.7917 4.98116 17.6689 4.54256C17.7629 4.51123 17.8256 4.38592 17.8256 4.29194C17.8256 3.94732 17.8256 3.57138 17.8256 3.22677V2.78818H13.1576V3.32076ZM19.9246 1.22176C19.4546 1.22176 19.0787 1.5977 19.0787 2.09895C19.0787 2.44356 19.0787 2.78818 19.0787 3.13279V4.04131H20.8017V3.35209C20.8017 2.94482 20.8017 2.50622 20.8017 2.09895C20.8017 1.62903 20.4258 1.22176 19.9246 1.22176ZM11.0586 1.22176C10.5887 1.22176 10.2128 1.62903 10.2128 2.13028C10.2128 2.60021 10.2128 3.07013 10.2128 3.54006V3.82201C10.2128 3.85334 10.2128 3.916 10.2128 3.94732V4.04131L10.3068 4.07264H11.9045V3.41474C11.9045 3.00747 11.9045 2.56888 11.9045 2.13028C11.9358 1.62903 11.5599 1.22176 11.0586 1.22176Z" fill="#3F3F3F"/>
</g>
<defs>
<clipPath id="clip0_989_2949">
<rect width="25" height="25" fill="white"/>
</clipPath>
</defs>
</svg>
