<svg width="22" height="25" viewBox="0 0 22 25" fill="none" xmlns="http://www.w3.org/2000/svg">
<g clip-path="url(#clip0_847_2791)">
<path d="M21.6899 11.5712H8.47033C8.35608 11.5712 8.25816 11.4733 8.25816 11.359C8.25816 11.359 8.25816 3.67211 8.25816 1.77893C8.25816 0.848665 7.81751 0.293769 6.9362 0.0489614C6.91988 0.0489614 6.88724 0.0326409 6.87092 0.0326409C6.82196 0 6.78932 0 6.74036 0H1.46884C1.4362 0 1.40356 0 1.3546 0.0163205C0.228487 0.456973 0 0.816024 0 2.13798C0 2.13798 0 22.3754 0 24.1053C0 24.3991 0.244807 24.6439 0.538576 24.6439H8.50297C8.61721 24.6439 8.71513 24.595 8.79674 24.5134C8.87834 24.4317 8.91098 24.3338 8.91098 24.2196C8.91098 24.2196 8.89466 22.0979 8.89466 21.2166C8.89466 20.727 9.0089 20.3516 9.27003 20.1068C9.53116 19.8457 9.89021 19.7315 10.3961 19.7315C10.3961 19.7315 11.5549 19.7315 11.5712 19.7315C12.5831 19.7315 13.9377 19.7315 14.3457 19.7315C16.0757 19.7315 17.7077 19.1929 19.0297 18.1973C20.3516 17.2018 21.2982 15.8145 21.7389 14.1662C21.9347 13.4807 22.0163 12.7626 22 11.8976C22 11.7018 21.8531 11.5712 21.6899 11.5712ZM6.96884 11.359C6.96884 11.4733 6.87092 11.5712 6.75668 11.5712H1.53412C1.41988 11.5712 1.32196 11.4733 1.32196 11.359V1.55045C1.32196 1.4362 1.41988 1.33828 1.53412 1.33828H6.75668C6.87092 1.33828 6.96884 1.4362 6.96884 1.55045V11.359ZM7.63798 20.6128C7.5727 21.0208 7.58902 21.4777 7.58902 21.9184C7.58902 22.1142 7.58902 22.3264 7.58902 22.5223C7.58902 22.6202 7.58902 22.7181 7.58902 22.8323V23.0935C7.58902 23.1588 7.5727 23.2077 7.52374 23.2404C7.47478 23.2893 7.42582 23.3056 7.37685 23.3056H1.53412C1.41988 23.3056 1.32196 23.2077 1.32196 23.0935V13.089C1.32196 12.9748 1.41988 12.8769 1.53412 12.8769H20.4496C20.5148 12.8769 20.5801 12.9095 20.6291 12.9585C20.678 13.0074 20.678 13.089 20.6617 13.1543L20.6291 13.2849C20.5964 13.3991 20.5638 13.497 20.5475 13.6113C20.4822 13.8398 20.4332 14.0682 20.3516 14.2967C19.454 16.7938 17.1365 18.4258 14.4273 18.4421C14.1662 18.4421 13.3012 18.4421 12.4199 18.4421C11.5059 18.4421 10.592 18.4421 10.3145 18.4421C8.89466 18.4421 7.83383 19.3071 7.63798 20.6128Z" fill="#3F3F3F"/>
<path d="M10.1514 10.6573H21.3636C21.7063 10.6573 21.9838 10.3798 21.9838 10.0371C21.9838 9.69438 21.7063 9.41693 21.3636 9.41693H10.1514C9.8087 9.41693 9.53125 9.69438 9.53125 10.0371C9.53125 10.3798 9.8087 10.6573 10.1514 10.6573Z" fill="#3F3F3F"/>
</g>
<defs>
<clipPath id="clip0_847_2791">
<rect width="22" height="24.6276" fill="white"/>
</clipPath>
</defs>
</svg>
