<svg width="23" height="18" viewBox="0 0 23 18" fill="none" xmlns="http://www.w3.org/2000/svg">
<path d="M21.8855 5.63923C21.7898 5.63923 21.7004 5.6594 21.6174 5.69975C20.6214 6.15029 19.7659 6.37219 18.9934 6.37219C18.0357 6.37219 17.2887 6.02925 16.5673 5.69975C15.7692 5.34335 14.9392 4.97351 13.8667 4.97351C13.0111 4.97351 12.1109 5.21559 11.1086 5.69975C10.1126 6.15029 9.25708 6.37219 8.48456 6.37219C7.52689 6.37219 6.77991 6.02925 6.05847 5.69975C5.26041 5.34335 4.43043 4.97351 3.36423 4.97351C2.50871 4.97351 1.60851 5.21559 0.606147 5.70647C0.433767 5.78717 0.299694 5.9351 0.235849 6.13011C0.172005 6.3184 0.172005 6.52013 0.248618 6.70169C0.363538 6.97067 0.618916 7.13878 0.899832 7.13878C1.00198 7.13878 1.09775 7.1186 1.19352 7.07153C1.9788 6.68151 2.67471 6.49323 3.31315 6.49323C4.10483 6.49323 4.7305 6.76893 5.45195 7.08498L5.48387 7.09843C6.26277 7.4481 7.23321 7.88519 8.45902 7.88519C9.40392 7.88519 10.4829 7.62293 11.6704 7.09843H11.6768C12.4685 6.71514 13.158 6.52685 13.7964 6.52685C14.5881 6.52685 15.2138 6.80255 15.9352 7.1186L15.9671 7.13205C16.746 7.48172 17.7165 7.91881 18.9423 7.91881C19.8872 7.91881 20.9662 7.65656 22.1601 7.13205C22.5623 6.93704 22.741 6.49996 22.575 6.10994C22.4474 5.82751 22.1728 5.63923 21.8855 5.63923Z" fill="#010101"/>
<path d="M0.898634 11.8124C1.00078 11.8124 1.09655 11.7922 1.19232 11.7451C1.98399 11.3619 2.67351 11.1736 3.31195 11.1736C4.10362 11.1736 4.7293 11.4493 5.45074 11.7653L5.48266 11.7788C6.26157 12.1284 7.232 12.5655 8.45782 12.5655C9.40271 12.5655 10.4817 12.3033 11.6692 11.7788H11.6756C12.4672 11.3955 13.1568 11.2072 13.7952 11.2072C14.5869 11.2072 15.2126 11.4829 15.934 11.7989L15.9659 11.8124C16.7448 12.1621 17.7153 12.5991 18.9411 12.5991C19.886 12.5991 20.9649 12.3369 22.1524 11.8124C22.3376 11.725 22.4844 11.5569 22.5483 11.3551C22.6057 11.1803 22.593 10.992 22.5164 10.8306C22.4461 10.5146 22.1908 10.2927 21.8843 10.2927C21.7949 10.2927 21.7055 10.3128 21.6225 10.3532C20.6266 10.8037 19.7711 11.0256 18.9985 11.0256C18.0409 11.0256 17.2939 10.6827 16.5724 10.3532C15.7744 9.9968 14.9444 9.62695 13.8718 9.62695C13.0163 9.62695 12.1161 9.86903 11.1137 10.3532C10.1178 10.8037 9.26226 11.0256 8.48974 11.0256C7.53207 11.0256 6.78509 10.6827 6.06365 10.3532C5.3039 10.0102 4.43562 9.62695 3.35026 9.62695C2.49474 9.62695 1.59454 9.86903 0.598565 10.3599L0.585796 10.3666C0.241036 10.5684 0.0878091 11.0189 0.241036 11.382C0.355956 11.6376 0.617718 11.8124 0.898634 11.8124Z" fill="#010101"/>
<path d="M21.86 14.9929C21.7642 14.9929 21.6748 15.013 21.5918 15.0534C20.5958 15.5039 19.7403 15.7258 18.9678 15.7258C18.0101 15.7258 17.2632 15.3829 16.5417 15.0534C15.7437 14.697 14.9137 14.3272 13.8411 14.3272C12.9856 14.3272 12.0854 14.5692 11.083 15.0534C10.087 15.5039 9.23153 15.7258 8.45901 15.7258C7.50135 15.7258 6.75437 15.3829 6.03292 15.0534C5.22848 14.6903 4.40489 14.3204 3.3323 14.3204C2.48317 14.3204 1.57658 14.5558 0.574224 15.0467C0.427382 15.1072 0.306077 15.235 0.242233 15.4031C0.165619 15.5981 0.165619 15.82 0.248617 16.0083C0.363537 16.2772 0.618915 16.4454 0.899831 16.4454C1.00198 16.4454 1.09775 16.4252 1.19351 16.3781C1.98519 15.9948 2.67471 15.8065 3.31315 15.8065C4.10482 15.8065 4.7305 16.0822 5.45194 16.3983L5.48386 16.4117C6.26276 16.7614 7.2332 17.1985 8.45901 17.1985C9.40391 17.1985 10.4829 16.9362 11.6704 16.4117H11.6768C12.4684 16.0284 13.158 15.8402 13.7964 15.8402C14.5881 15.8402 15.2138 16.1159 15.9352 16.4319L15.9671 16.4454C16.746 16.795 17.7165 17.2321 18.9423 17.2321C19.8872 17.2321 20.9661 16.9699 22.1536 16.4454C22.3196 16.3647 22.4601 16.2167 22.5367 16.0352C22.6133 15.8402 22.6133 15.6384 22.5367 15.4569C22.4154 15.1812 22.1409 14.9929 21.86 14.9929Z" fill="#010101"/>
<path d="M0.898404 2.80162C1.00055 2.80162 1.09632 2.78145 1.19209 2.73437C1.97737 2.35108 2.67328 2.1628 3.31172 2.1628C4.10339 2.1628 4.72907 2.4385 5.45051 2.75455L5.48244 2.768C6.26134 3.11767 7.23177 3.55475 8.45759 3.55475C9.40248 3.55475 10.4815 3.2925 11.669 2.768H11.6753C12.467 2.3847 13.1565 2.19642 13.795 2.19642C14.5867 2.19642 15.2123 2.47212 15.9338 2.78817L15.9657 2.80162C16.7446 3.15129 17.715 3.58838 18.9408 3.58838C19.8857 3.58838 20.9647 3.32612 22.1586 2.80162C22.5608 2.60661 22.7396 2.16952 22.5736 1.77951C22.4587 1.5038 22.1841 1.31552 21.8968 1.31552C21.8011 1.31552 21.7117 1.33569 21.6287 1.37604C20.6327 1.82658 19.7772 2.04848 19.0047 2.04848C18.047 2.04848 17.3 1.70554 16.5786 1.37604C15.7678 1.0062 14.9378 0.636353 13.8652 0.636353C13.0097 0.636353 12.1095 0.878432 11.1071 1.36259C10.1112 1.81313 9.25564 2.03503 8.48312 2.03503C7.52546 2.03503 6.77848 1.69209 6.05704 1.36259C5.25898 1.0062 4.429 0.636353 3.3628 0.636353C2.50728 0.636353 1.60069 0.878432 0.598335 1.36932C0.425955 1.45001 0.291881 1.59795 0.228037 1.79295C0.164192 1.98124 0.164192 2.18297 0.240806 2.36453C0.355726 2.62678 0.617488 2.80162 0.898404 2.80162Z" fill="#010101"/>
</svg>
