<svg width="24" height="25" viewBox="0 0 24 25" fill="none" xmlns="http://www.w3.org/2000/svg">
<g clip-path="url(#clip0_307_3541)">
<path d="M11.6783 22.4126H10.1748V25H11.6783V22.4126Z" fill="#3F3F3F"/>
<path d="M11.6783 18.6014H10.1748V21.1889H11.6783V18.6014Z" fill="#3F3F3F"/>
<path d="M11.6783 14.7552H10.1748V17.3427H11.6783V14.7552Z" fill="#3F3F3F"/>
<path d="M7.30721 22.4126H5.80371V25H7.30721V22.4126Z" fill="#3F3F3F"/>
<path d="M7.30721 18.6014H5.80371V21.1889H7.30721V18.6014Z" fill="#3F3F3F"/>
<path d="M7.30721 14.7552H5.80371V17.3427H7.30721V14.7552Z" fill="#3F3F3F"/>
<path d="M16.0494 18.6014H14.5459V21.1889H16.0494V18.6014Z" fill="#3F3F3F"/>
<path d="M20.4195 14.7552H18.916V17.3427H20.4195V14.7552Z" fill="#3F3F3F"/>
<path d="M14.8601 5.52448C14.7203 4.93007 14.3706 4.58042 13.8112 4.44056C13.8112 4.37063 13.8112 4.26573 13.8112 4.16084C13.8112 3.81119 13.8112 3.77622 13.8112 3.74126C13.5315 1.5035 11.7832 1.5035 10.3846 1.5035H1.5035V0H0V4.47552H1.5035V2.97203H10.3846C11.7832 2.97203 12.2028 2.97203 12.3427 3.77622C12.3427 3.81119 12.3427 3.98601 12.3427 4.1958C12.3427 4.3007 12.3427 4.40559 12.3427 4.47552C11.8182 4.61538 11.5035 5 11.3636 5.52448C5.55944 5.87413 3.07692 8.04196 3.07692 12.7622V13.4965H23.1469V12.7622C23.1469 9.75524 21.7133 6.08392 14.8601 5.52448ZM4.58042 12.028C4.79021 8.98601 6.32867 6.95804 13.1119 6.95804C18.4965 6.95804 21.2937 8.6014 21.6434 12.028H4.58042Z" fill="#3F3F3F"/>
<path d="M20.4195 18.6014H18.916V21.1889H20.4195V18.6014Z" fill="#3F3F3F"/>
<path d="M16.0494 14.7552H14.5459V17.3427H16.0494V14.7552Z" fill="#3F3F3F"/>
<path d="M20.4195 22.4126H18.916V25H20.4195V22.4126Z" fill="#3F3F3F"/>
<path d="M16.0494 22.4126H14.5459V25H16.0494V22.4126Z" fill="#3F3F3F"/>
</g>
<defs>
<clipPath id="clip0_307_3541">
<rect width="23.1469" height="25" fill="white"/>
</clipPath>
</defs>
</svg>
