<svg width="24" height="25" viewBox="0 0 24 25" fill="none" xmlns="http://www.w3.org/2000/svg">
<g clip-path="url(#clip0_223_719)">
<path d="M10.384 24.0741C9.94541 24.0741 9.63837 23.727 9.63837 23.2455C9.62741 22.2377 9.62741 18.3523 9.62741 17.3557C9.62741 16.9526 9.62741 16.5383 9.62741 16.1352V15.2954H9.43003C9.33134 15.2954 8.99141 15.2954 8.90369 15.2954C8.805 15.2954 8.71727 15.2954 8.62955 15.2954C8.41024 15.2954 8.17996 15.2842 7.90583 15.2842C7.67555 15.2842 7.43431 15.2842 7.20403 15.2842C6.97376 15.2842 6.73252 15.2842 6.50224 15.2842C5.72369 15.2842 4.87935 15.2618 4.04597 15.1387C1.77612 14.814 0.076467 12.7313 -0.000291441 10.2007C-0.0660844 7.84927 1.57874 5.65461 3.82666 5.08355C4.19949 4.99397 4.46266 4.83721 4.61618 4.34453C5.40569 1.74677 7.73038 0 10.384 0H10.395C13.0925 0.0111972 15.4172 1.78036 16.1848 4.41171C16.3054 4.84841 16.5466 4.98277 16.8646 5.07235C19.4635 5.72179 21.0425 8.1068 20.7245 10.8837C20.4394 13.3247 18.2463 15.273 15.7352 15.2954C15.2527 15.3066 14.7264 15.3066 14.1013 15.3066C13.6627 15.3066 13.2131 15.3066 12.7635 15.3066C12.303 15.3066 11.8315 15.3066 11.36 15.3066H11.1516V22.708C11.1516 22.764 11.1516 22.82 11.1516 22.876C11.1516 23.0103 11.1516 23.1447 11.1516 23.2679C11.1187 23.7494 10.8117 24.0741 10.384 24.0741ZM12.8293 9.3609C13.0157 9.3609 13.1802 9.42808 13.3228 9.57364C13.6517 9.89836 13.6079 10.3686 13.2351 10.7606C13.0267 10.9733 12.8184 11.186 12.61 11.3988C12.2482 11.7571 11.8863 12.1266 11.5354 12.5185C11.3819 12.6865 11.2832 12.8992 11.1955 13.1008C11.1516 13.1904 11.1187 13.2687 11.0749 13.3471L10.9981 13.5039L11.36 13.795H11.4257C11.6012 13.795 11.7766 13.795 11.9521 13.795C12.1275 13.795 12.303 13.795 12.4784 13.795C12.6977 13.795 12.9061 13.795 13.1254 13.7838C13.3557 13.7838 13.5969 13.7726 13.8272 13.7726H14.2658C14.9786 13.7726 15.6694 13.7614 16.3712 13.6718C18.0818 13.4367 19.3538 11.7907 19.277 9.92076C19.1893 8.17399 17.7528 6.62877 16.0641 6.47201C15.0444 6.38243 15.0334 6.37123 14.847 5.31869C14.4961 3.2472 12.6648 1.6236 10.6033 1.53402C10.5375 1.53402 10.4718 1.53402 10.406 1.53402C8.12514 1.53402 6.261 3.16882 5.88818 5.50904C5.76756 6.24806 5.57018 6.43842 4.94514 6.47201C3.1468 6.55039 1.63357 8.02842 1.51295 9.85357C1.38136 11.7795 2.67529 13.4479 4.53942 13.7166C5.01094 13.7838 5.48245 13.795 5.9759 13.795H6.19521C6.30486 13.795 6.41452 13.795 6.51321 13.795C6.897 13.795 7.28079 13.8062 7.66459 13.8062C7.94969 13.8062 8.23479 13.8062 8.53086 13.8062C8.82693 13.8062 9.13396 13.8062 9.43003 13.8062H9.63837V13.5935C9.63837 13.4143 9.63837 13.2463 9.63837 13.0784C9.64934 12.6753 9.64934 12.2946 9.61644 11.9027C9.59451 11.5891 9.45196 11.2644 9.26555 11.0629C8.805 10.5702 8.32251 10.0775 7.86196 9.60723C7.58783 9.3385 7.32466 9.05857 7.06148 8.78984C6.67769 8.39793 6.6448 7.97244 6.95183 7.63652C7.09438 7.47976 7.28079 7.39018 7.47817 7.39018C7.69748 7.39018 7.92776 7.50215 8.11417 7.69251C8.36638 7.93885 8.60762 8.19638 8.83789 8.45392C8.94755 8.56589 9.0572 8.68906 9.15589 8.80103L9.38617 9.04737L9.49582 8.72265C9.59451 8.40913 9.60548 8.1292 9.61644 7.87166C9.61644 7.79328 9.62741 7.7149 9.62741 7.64772C9.66031 7.21103 9.9783 6.8863 10.3731 6.8863H10.395C10.7898 6.8975 11.0968 7.19983 11.1297 7.63652C11.1516 7.86046 11.1406 8.08441 11.1406 8.31955C11.1406 8.42033 11.1406 8.5099 11.1406 8.61068C11.1406 8.9578 11.1406 9.29371 11.1406 9.64083V10.2343L11.5573 10.3798L11.6451 10.2791C11.6999 10.2119 11.7547 10.1447 11.8095 10.0775C11.9302 9.93196 12.0398 9.78639 12.1714 9.66322C12.3797 9.46167 12.61 9.3609 12.8293 9.3609Z" fill="#3F3F3F"/>
<path d="M18.8057 23.4023L18.6412 23.5703C18.378 23.839 17.9394 23.839 17.6762 23.5703L12.7089 18.4979C12.4457 18.2292 12.4457 17.7813 12.7089 17.5126L12.8733 17.3446C13.1365 17.0759 13.5751 17.0759 13.8383 17.3446L18.8057 22.417C19.0688 22.6969 19.0688 23.1336 18.8057 23.4023Z" fill="#3F3F3F"/>
<path d="M22.9507 23.0439L22.7862 23.2119C22.523 23.4806 22.0844 23.4806 21.8212 23.2119L16.8539 18.1395C16.5907 17.8708 16.5907 17.4229 16.8539 17.1542L17.0184 16.9862C17.2815 16.7175 17.7201 16.7175 17.9833 16.9862L22.9507 22.0586C23.2139 22.3273 23.2139 22.764 22.9507 23.0439Z" fill="#3F3F3F"/>
</g>
<defs>
<clipPath id="clip0_223_719">
<rect width="23.1481" height="24.0741" fill="white"/>
</clipPath>
</defs>
</svg>
