<svg width="22" height="26" viewBox="0 0 22 26" fill="none" xmlns="http://www.w3.org/2000/svg">
<g clip-path="url(#clip0_307_3521)">
<path d="M6.94642 5.4786C6.94642 4.79627 7.13627 4.11394 7.5048 3.49873C8.35352 2.07815 9.58194 1.2616 11.2794 0.981954C11.3464 0.970768 11.4022 0.948397 11.4469 0.926025L12.5078 0.926025C12.6306 0.959582 12.7535 0.981954 12.8763 1.01551C13.1667 1.08262 13.4347 1.14974 13.6916 1.23922C15.255 1.83207 16.2266 3.18553 16.2266 4.76271C16.2266 5.4786 16.0144 6.20567 15.6235 6.85444C14.2611 9.11394 11.2012 9.99761 8.93423 8.77837C7.70581 8.11842 6.94642 6.85444 6.94642 5.4786ZM14.7413 4.78509C14.7413 3.87905 14.1941 3.07368 13.3119 2.68218C11.7484 1.99985 9.63778 2.70455 8.78905 4.20343C8.55453 4.6173 8.43169 5.06473 8.43169 5.50097C8.43169 6.09381 8.66621 6.64191 9.10174 7.06696C9.64894 7.61506 10.3413 7.84996 11.3911 7.84996L11.4134 7.84996C12.6865 7.78285 13.7474 7.13408 14.4063 6.0267C14.6185 5.6352 14.7413 5.21014 14.7413 4.78509Z" fill="#3F3F3F"/>
<path d="M11.5023 25.9148C11.5693 25.8924 11.6251 25.8813 11.6921 25.8701C13.2667 25.624 14.3835 24.3488 14.417 22.7493L14.417 22.6821C14.417 21.4629 13.814 20.2884 12.7642 19.4495C11.7145 18.6106 10.419 18.2974 9.22413 18.577C7.70536 18.9349 6.71146 20.1542 6.71146 21.6754C6.71146 21.7425 6.71146 21.8208 6.72263 21.888C6.81197 23.3757 7.53785 24.5166 8.90028 25.2884C9.24647 25.4898 9.6485 25.6128 10.0729 25.7358C10.2515 25.7918 10.4302 25.8477 10.6089 25.9036L10.6201 25.9036L11.4688 25.9036L11.5023 25.9148ZM13.1216 22.1788C13.1551 22.3466 13.1774 22.5032 13.1774 22.671C13.1774 23.8231 12.3063 24.662 11.1226 24.6844C9.76017 24.7068 8.43125 23.7224 8.05155 22.4137C7.98455 22.19 7.95105 21.9663 7.95105 21.7425C7.95105 21.1945 8.16323 20.6911 8.53175 20.322C8.93378 19.9305 9.50332 19.7179 10.1287 19.7403C11.5358 19.7851 12.8424 20.8477 13.1216 22.1788Z" fill="#3F3F3F"/>
<path d="M12.3067 14.416C12.3067 12.8388 12.8874 11.34 13.8924 10.3109C14.9198 9.27062 16.2264 8.75607 17.5665 8.87912C18.9178 9.00216 20.1127 9.74041 20.9503 10.9708C21.6426 11.9999 21.9888 13.1744 22 14.5614C21.9218 16.3847 21.2518 17.8388 20.0122 18.9015C18.2031 20.4339 15.8244 20.3668 14.0823 18.7337C12.9544 17.6822 12.3067 16.1051 12.3067 14.416ZM20.5259 14.4272C20.5259 13.4876 20.2355 12.5592 19.6995 11.7538C19.0965 10.859 18.1696 10.3444 17.1645 10.3444C16.1594 10.3444 15.2437 10.8478 14.6407 11.7315C14.06 12.5816 13.7696 13.4764 13.7696 14.4048C13.7696 15.1319 13.9594 15.8814 14.3168 16.6196C14.8975 17.7941 15.8356 18.4652 16.9635 18.5212L16.9747 18.5212C18.1026 18.5212 18.9736 18.0849 19.6325 17.1789C20.2132 16.3623 20.5259 15.4116 20.5259 14.4272Z" fill="#3F3F3F"/>
<path d="M0.703518 13.2191C0.703518 11.5077 1.79793 10.0424 3.55121 9.40478C6.10855 8.47637 9.29127 9.79628 10.3522 12.2348C10.5979 12.794 10.7207 13.3757 10.7207 13.9685C10.7207 15.6688 9.64863 17.1565 7.99585 17.7493C7.57149 17.9059 7.11362 17.9842 6.7451 18.0625C6.61109 18.0849 6.48825 18.1072 6.38774 18.1296C4.09842 18.0178 2.54614 17.2236 1.48524 15.6464C0.971536 14.897 0.703518 14.058 0.703518 13.2191ZM9.2466 13.9574C9.2466 13.5547 9.15726 13.152 8.96742 12.7605C8.12986 11.0043 5.7847 10.0983 3.96441 10.8142C2.84766 11.2504 2.17762 12.1565 2.17762 13.2191C2.17762 13.6889 2.31163 14.1587 2.56848 14.6285C3.27203 15.8813 4.43344 16.5189 6.22023 16.6531L6.2649 16.6531L6.30957 16.6419C6.38774 16.6307 6.46591 16.6084 6.56642 16.5972C6.82327 16.5524 7.13596 16.4965 7.44865 16.3958C8.53189 16.0267 9.2466 15.0647 9.2466 13.9574Z" fill="#3F3F3F"/>
</g>
<defs>
<clipPath id="clip0_307_3521">
<rect width="25" height="21.2963" fill="white" transform="translate(22 0.926025) rotate(90)"/>
</clipPath>
</defs>
</svg>
