<svg width="25" height="25" viewBox="0 0 25 25" fill="none" xmlns="http://www.w3.org/2000/svg">
<g clip-path="url(#clip0_989_2911)">
<path d="M16.7021 25C13.5106 25 10.7092 22.6529 10.2128 19.559C10.1418 19.1323 10.1064 18.6699 10.1064 18.2432C10.1064 17.8876 10.1064 17.7098 10.1064 17.7098V17.6387H9.46809C9.3617 17.6387 9.29078 17.6387 9.1844 17.6387C8.75887 17.6387 8.43972 17.3186 8.43972 16.9274C8.43972 16.5362 8.75887 16.2517 9.1844 16.2517C10.3191 16.2517 11.4184 16.2517 12.5532 16.2517C13.6525 16.2517 14.7518 16.2517 15.8511 16.2517C16.0638 16.2517 16.2766 16.3229 16.4184 16.4651C16.5603 16.6074 16.5957 16.7852 16.5957 16.963C16.5957 17.3542 16.2766 17.6387 15.8511 17.6387C15.7447 17.6387 15.6738 17.6387 15.5674 17.6387H14.9291V17.7098C14.9291 17.7098 14.9291 18.2076 14.9291 18.4566C14.9645 19.4167 15.7801 20.2347 16.7376 20.2347C17.7305 20.2347 18.5461 19.4523 18.5816 18.4921C18.5816 17.283 18.5816 15.1849 18.5816 15.1849C18.5816 15.1493 18.5816 15.1138 18.5816 15.0782L18.5461 15.0071L18.4043 14.9359C18.227 14.9359 18.0851 14.9004 17.9433 14.9004C17.6241 14.9004 17.305 14.9004 16.9858 14.8293C15 14.5803 13.5106 12.9089 13.4752 10.8819C13.4752 10.2773 13.0496 9.81504 12.5177 9.81504C12.3759 9.81504 12.2695 9.8506 12.1277 9.88616C11.7376 10.064 11.5248 10.384 11.5248 10.8463C11.4539 12.8022 10.1418 14.4025 8.26241 14.7937C8.01418 14.8293 7.7305 14.8648 7.41135 14.8648C6.84397 14.8648 6.24114 14.8648 5.67376 14.8648C5.14184 14.8648 4.64539 14.8648 4.11348 14.8648C1.84397 14.9004 0 13.0512 0 10.8108C0 9.88616 0 8.92599 0 8.00138V7.57464C0 5.12087 1.77305 3.37834 4.1844 3.37834H18.5106V3.30722C18.5106 3.30722 18.5106 1.88474 18.5106 1.03126C18.5106 0.497827 18.6525 0.213332 19.0426 0.0355225H22.8014C23.156 0.213332 23.2979 0.497827 23.2979 1.03126C23.2979 1.74249 23.2979 2.45373 23.2979 3.20053V3.84064C23.2979 4.01845 23.3333 4.19626 23.5461 4.37407C24.5035 5.19199 25 6.25885 25 7.53908C25 8.6415 25 9.74391 25 10.8463C25 12.1266 24.5035 13.1934 23.5461 14.0113C23.3688 14.1536 23.2979 14.3314 23.2979 14.5448V14.687C23.2979 16.4651 23.2979 16.5718 23.2979 18.421C23.2979 21.6216 21.1702 24.2532 18.0496 24.9644C17.6241 24.9644 17.1631 25 16.7021 25ZM11.5248 17.9587C11.5248 18.1365 11.5248 18.3499 11.5248 18.6699C11.6312 21.266 13.8652 23.4708 16.4539 23.5775C16.5248 23.5775 16.5957 23.5775 16.6667 23.5775C19.5745 23.5775 21.8794 21.266 21.9149 18.3499C21.9149 17.1763 21.9149 15.2204 21.9149 15.2204C21.9149 15.1493 21.9149 15.1138 21.9149 15.0426V14.8648H19.9645V14.9359C19.9645 14.9715 19.9645 17.3542 19.9645 18.4566C19.9291 20.1991 18.4752 21.6216 16.7376 21.6216C16.1702 21.6216 15.6383 21.4793 15.1418 21.1593C14.1135 20.5192 13.5461 19.5946 13.5461 18.3499C13.5461 17.9587 13.5461 17.7098 13.5461 17.7098V17.6387H11.5957L11.5248 17.9587ZM4.14894 4.76525C2.55319 4.76525 1.41844 5.93879 1.38298 7.50352C1.38298 8.57037 1.38298 9.63723 1.38298 10.7041C1.38298 12.3044 2.55319 13.5135 4.14894 13.5135C4.64539 13.5135 5.14184 13.5135 5.6383 13.5135H7.30497C8.90071 13.5135 10.0355 12.4111 10.0709 10.8108C10.1064 9.49498 11.1702 8.46369 12.4468 8.46369C13.7589 8.46369 14.7872 9.49498 14.8227 10.8108C14.8582 12.4111 15.9929 13.5135 17.6241 13.5135H19.2908H20.7801C22.4113 13.5135 23.5461 12.3755 23.5461 10.7396C23.5461 9.88616 23.5461 9.03268 23.5461 8.14363V7.64576C23.5461 5.90323 22.4113 4.80081 20.7092 4.80081H7.55319C6.4539 4.76525 5.31915 4.76525 4.14894 4.76525ZM19.9645 3.37834H21.9149V1.42244H19.9645V3.37834Z" fill="#3F3F3F"/>
</g>
<defs>
<clipPath id="clip0_989_2911">
<rect width="25" height="25" fill="white"/>
</clipPath>
</defs>
</svg>
