<svg width="26" height="24" viewBox="0 0 26 24" fill="none" xmlns="http://www.w3.org/2000/svg">
<g clip-path="url(#clip0_307_3617)">
<path d="M24.9336 6.29395L23.0316 1.17579C22.7549 0.48415 22.0979 0 21.337 0H3.76932C3.0431 0 2.35145 0.48415 2.10938 1.17579L0.207361 6.29395C-0.0347139 6.91643 -0.069296 7.60807 0.138197 8.19597C0.484018 9.26801 1.31399 10.098 2.35145 10.4438V20.9914C2.35145 22.6513 3.70016 24 5.3601 24H19.7808C21.4408 24 22.7895 22.6513 22.7895 20.9914V10.4438C23.827 10.0634 24.6569 9.23343 25.0028 8.19597C25.1757 7.60807 25.1411 6.91643 24.9336 6.29395ZM13.1411 7.05475V1.21037H17.0834L17.8788 5.70605C17.9134 5.94813 17.948 6.1902 17.948 6.43228V7.05475C17.948 8.36888 16.8759 9.4755 15.5618 9.4755C14.2477 9.4755 13.1757 8.40346 13.1411 7.05475ZM7.15837 6.43228C7.15837 6.1902 7.19295 5.94813 7.22753 5.70605L8.02292 1.21037H11.9653V7.05475C11.9653 8.36888 10.8932 9.44092 9.57912 9.44092C8.265 9.44092 7.19295 8.36888 7.19295 7.05475V6.43228H7.15837ZM1.27941 7.81556C1.17566 7.46974 1.17566 7.08934 1.31399 6.70893L3.21601 1.59078C3.31975 1.3487 3.52725 1.21037 3.76932 1.21037H6.77797L6.01716 5.49856C5.94799 5.8098 5.948 6.12104 5.948 6.43228V7.05475C5.948 8.36888 4.87595 9.44092 3.56183 9.44092C2.52436 9.44092 1.59065 8.78386 1.27941 7.81556ZM11.3428 22.8242H7.15837V13.8329H11.3774V22.8242H11.3428ZM21.5791 21.0259C21.5791 22.0288 20.7837 22.8242 19.7808 22.8242H12.5532V13.8329C12.5532 13.1758 11.9999 12.6225 11.3428 12.6225H7.15837C6.50131 12.6225 5.948 13.1758 5.948 13.8329V22.8242H5.3601C4.35722 22.8242 3.56183 22.0288 3.56183 21.0259V10.6513C4.7722 10.6513 5.91341 10.0288 6.57047 9.02594C7.6771 10.6859 9.89036 11.1354 11.5503 10.0288C11.9653 9.75216 12.3111 9.40634 12.5532 9.02594C13.6598 10.6859 15.8731 11.1354 17.533 10.0288C17.948 9.75216 18.2938 9.40634 18.5359 9.02594C19.193 10.0288 20.3342 10.6513 21.5445 10.6513V21.0259H21.5791ZM23.827 7.81556C23.412 9.06052 22.0633 9.75216 20.7837 9.33718C19.8154 9.02594 19.1238 8.09222 19.1238 7.05475V6.43228C19.1238 6.12104 19.0892 5.8098 19.0546 5.49856L18.3284 1.21037H21.337C21.5791 1.21037 21.8212 1.38329 21.8904 1.59078L23.7924 6.70893C23.9307 7.08934 23.9653 7.46974 23.827 7.81556Z" fill="#3F3F3F"/>
<path d="M17.9481 12.6224H15.5619C14.9049 12.6224 14.3516 13.1758 14.3516 13.8328V16.219C14.3516 16.876 14.9049 17.4294 15.5619 17.4294H17.9481C18.6052 17.4294 19.1585 16.876 19.1585 16.219V13.8328C19.1585 13.1412 18.6397 12.6224 17.9481 12.6224ZM15.5619 16.219V13.8328H17.9481V16.219H15.5619Z" fill="#3F3F3F"/>
</g>
<defs>
<clipPath id="clip0_307_3617">
<rect width="25.1066" height="24" fill="white"/>
</clipPath>
</defs>
</svg>
