<svg width="25" height="25" viewBox="0 0 25 25" fill="none" xmlns="http://www.w3.org/2000/svg">
<g clip-path="url(#clip0_987_2833)">
<path d="M24.9998 3.21337C24.8711 3.75964 24.7746 4.30591 24.6137 4.82005C24.0667 6.52314 23.1658 8.03342 22.1684 9.51157C20.7205 11.6967 19.0152 13.6889 17.2134 15.5848C17.1491 15.6812 17.0204 15.7134 16.956 15.7776L17.9856 16.8059C18.0822 16.9023 18.2752 16.9344 18.4039 16.8702C19.1118 16.5488 19.884 16.5167 20.6562 16.8059C20.9779 16.9344 21.2997 17.0951 21.5249 17.3201C22.5223 18.3162 23.5197 19.3123 24.5172 20.3085C24.6459 20.437 24.6459 20.6941 24.5172 20.8226C23.3267 22.0116 22.1362 23.2005 20.8814 24.4537C20.7527 24.5823 20.4953 24.6144 20.3666 24.4537C19.7874 23.8753 18.4361 22.4936 17.6639 21.7866C16.5699 20.7584 16.3769 19.2481 17.0204 18.0913V18.0591L16.0873 17.1272C15.9586 16.9987 15.7334 16.9987 15.5725 17.1272C15.1542 17.5129 14.736 17.8985 14.3177 18.2841C12.0654 20.4049 9.6523 22.2686 6.91742 23.6825C5.82347 24.2288 4.72952 24.7108 3.50687 24.9036C2.92772 25 2.34857 25 1.80159 24.8715C0.707642 24.5823 0.0319665 23.7147 -0.000208507 22.4936C-0.0323835 21.5296 0.225017 20.6298 0.546767 19.7301C1.28679 17.8663 2.34857 16.1311 3.53905 14.4923C4.85822 12.6607 6.33827 10.9254 7.91485 9.31877C7.9792 9.2545 8.01138 9.19023 8.04355 9.1581L3.89297 5.01285C3.7321 4.85218 3.50687 4.88432 3.37817 5.01285L3.2173 5.20566C3.08859 5.36632 2.83119 5.36632 2.70249 5.20566L2.18769 4.69152C2.05899 4.56298 2.05899 4.30591 2.18769 4.17738L4.18255 2.18509C4.31125 2.05656 4.56865 2.05656 4.69735 2.18509L5.17997 2.66709C5.34085 2.82776 5.30867 3.0527 5.1478 3.21337L4.98692 3.3419C4.82605 3.47044 4.82605 3.72751 4.95475 3.85604L8.8801 7.77635C9.0088 7.90488 9.23403 7.90488 9.3949 7.77635C9.55578 7.61568 9.71665 7.45501 9.9097 7.29434C12.0333 5.33419 14.2855 3.5347 16.7952 2.02442C18.1787 1.18895 19.5944 0.482005 21.2031 0.128535C21.4284 0.096401 21.6536 0.0321337 21.8466 0C21.8788 0 21.8788 0 21.911 0H22.7475C22.8119 0.0321337 22.8762 0.0321337 22.9406 0.0642674C23.938 0.257069 24.6137 0.803342 24.9033 1.79949C24.9354 1.92802 24.9676 2.05656 24.9998 2.18509C24.9998 2.50643 24.9998 2.8599 24.9998 3.21337ZM9.36273 10.4434C9.20185 10.2828 8.97663 10.3149 8.84793 10.4434C7.49658 11.8252 6.24175 13.3033 5.08345 14.8779C5.05127 14.9422 5.0191 15.0707 5.05127 15.135C5.88782 17.3843 7.43223 18.9589 9.6523 19.8586C9.87753 19.955 10.1349 19.8907 10.328 19.7622C11.068 19.1838 11.808 18.6054 12.5159 18.027C13.2237 17.4165 13.8994 16.8059 14.5751 16.1954C14.736 16.0668 14.736 15.8098 14.5751 15.6812C12.8376 13.9139 11.1002 12.1787 9.36273 10.4434ZM15.9264 14.8136C15.9264 14.8136 15.9586 14.7815 15.9908 14.7815C17.4065 13.3033 18.7257 11.7931 19.9483 10.1542C20.0448 10.0257 20.0127 9.92931 19.9805 9.8329C19.1118 7.58355 17.5995 6.009 15.4438 5.14139C15.1864 5.04499 14.8968 5.07712 14.6716 5.23779C13.3203 6.26607 12.0011 7.35861 10.7784 8.54756C10.6819 8.64396 10.5532 8.77249 10.4567 8.86889C10.328 8.99743 10.328 9.22236 10.4889 9.3509L15.9264 14.8136ZM8.01138 20.7262C6.40262 19.8265 5.1478 18.5733 4.2469 16.9987C4.1182 16.7738 3.76427 16.7416 3.63557 16.9987C3.53905 17.1272 3.4747 17.2558 3.41035 17.3843C2.70249 18.5411 2.09117 19.6979 1.70507 21.0154C1.57637 21.4332 1.47984 21.8509 1.47984 22.3008C1.47984 22.9756 2.02682 23.5218 2.73467 23.5218C2.95989 23.5218 3.2173 23.5219 3.44252 23.4576C4.53647 23.2648 5.5339 22.8149 6.53132 22.2686C7.04612 21.9794 7.56093 21.6902 8.07573 21.3689C8.26878 21.2082 8.26878 20.8869 8.01138 20.7262ZM21.0423 8.54756C21.1388 8.38689 21.2031 8.29049 21.2997 8.16195C22.1362 6.84447 22.8762 5.52699 23.3267 4.01671C23.4554 3.63111 23.5519 3.21337 23.5519 2.82776C23.5841 2.05656 22.9406 1.41388 22.1684 1.47815C21.911 1.47815 21.6214 1.54242 21.364 1.60668C20.1414 1.89589 19.0152 2.44216 17.9213 3.08483C17.5995 3.27763 17.31 3.4383 16.9882 3.66324C16.763 3.82391 16.763 4.14524 16.9882 4.30591C18.8222 5.23779 20.1414 6.65167 21.0423 8.54756ZM19.1118 20.2121L19.0474 20.1478C18.7257 19.8265 18.2109 20.3085 18.5326 20.6298C19.2083 21.3046 19.884 21.9794 20.5596 22.6542C20.5918 22.6864 20.624 22.6864 20.624 22.6864L22.4258 20.919C22.5545 20.7905 22.5545 20.5656 22.4258 20.4049C21.7823 19.7301 21.1388 19.0553 20.4631 18.3805C20.1092 18.0591 19.6266 18.6054 19.9805 18.9267L20.2057 19.1517C20.3344 19.2802 20.3344 19.5373 20.2057 19.6658L19.6587 20.2121C19.4979 20.3727 19.2726 20.3727 19.1118 20.2121Z" fill="#3F3F3F"/>
</g>
<defs>
<clipPath id="clip0_987_2833">
<rect width="25" height="25" fill="white"/>
</clipPath>
</defs>
</svg>
