<svg width="44" height="24" viewBox="0 0 44 24" fill="none" xmlns="http://www.w3.org/2000/svg">
<path d="M10.0554 3.65913C12.9244 2.39143 16.5034 1.69995 20.0825 1.69995C23.6616 1.69995 26.9282 2.39143 29.7972 3.65913C24.4002 3.832 20.0825 8.3266 20.0825 13.8296C20.0825 8.21135 15.5945 3.65913 10.0554 3.65913Z" fill="#FFDF9E" stroke="#FFDF9E" stroke-miterlimit="10"/>
<path d="M9.74297 12.1584C8.834 12.1584 8.09546 12.9075 8.09546 13.8295C8.09546 14.7515 8.834 15.5006 9.74297 15.5006C10.6519 15.5006 11.3905 14.7515 11.3905 13.8295C11.3905 12.8787 10.6519 12.1584 9.74297 12.1584Z" fill="#EC2227"/>
<path d="M29.9393 12.1296C29.0303 12.1296 28.2917 12.8787 28.2917 13.8007C28.2917 14.7227 29.0303 15.4718 29.9393 15.4718C30.8482 15.4718 31.5868 14.7227 31.5868 13.8007C31.5868 12.8787 30.8482 12.1296 29.9393 12.1296Z" fill="#07A64F"/>
<path d="M9.99871 8.87395C7.30019 8.87395 5.14138 11.0924 5.14138 13.8295C5.14138 16.5666 7.3286 18.7563 9.99871 18.7563C12.6972 18.7563 14.8844 16.5378 14.8844 13.8295C14.8844 11.0636 12.6972 8.87395 9.99871 8.87395ZM9.99871 17.2293C8.12395 17.2293 6.61846 15.7023 6.61846 13.8007C6.61846 11.8992 8.12395 10.3721 9.99871 10.3721C11.8735 10.3721 13.379 11.8992 13.379 13.8007C13.379 15.7023 11.8735 17.2293 9.99871 17.2293ZM40.3073 3.80312H33.6036C30.195 1.46939 25.5081 0 20.1679 0C14.7992 0 9.79987 1.46939 6.39122 3.80312H0C1.051 5.04202 1.81795 6.71308 2.01678 7.86555C0.823757 9.53661 0.0852163 11.611 0.0852163 13.8295C0.0852163 19.4478 4.57327 24 10.1123 24C13.2653 24 16.0775 22.5306 17.8954 20.2257C18.634 21.1188 19.8838 22.9052 20.1394 23.4238C20.1394 23.4238 21.5881 21.2341 22.3835 20.2257C24.2298 22.5306 27.0136 23.9712 30.1666 23.9712C35.7056 23.9712 40.1937 19.419 40.1937 13.8007C40.1937 11.5534 39.4835 9.5078 38.2621 7.83673C38.5177 6.71309 39.2847 5.04202 40.3073 3.80312ZM10.1123 22.012C5.65268 22.012 2.04519 18.3529 2.04519 13.8295C2.04519 9.30612 5.65268 5.64706 10.1123 5.64706C14.572 5.64706 18.2079 9.30612 18.2079 13.8295C18.2079 18.3529 14.572 22.012 10.1123 22.012ZM10.1407 3.65906C13.0097 2.39136 16.5888 1.69988 20.1679 1.69988C23.7469 1.69988 27.0136 2.39136 29.8825 3.65906C24.4855 3.83193 20.1679 8.32653 20.1679 13.8295C20.1679 8.21128 15.6798 3.65906 10.1407 3.65906ZM30.195 22.012C25.7353 22.012 22.1278 18.3529 22.1278 13.8295C22.1278 9.30612 25.7353 5.64706 30.195 5.64706C34.6546 5.64706 38.2621 9.30612 38.2621 13.8295C38.2621 18.3529 34.6546 22.012 30.195 22.012ZM30.195 8.84514C27.4964 8.84514 25.3376 11.0636 25.3376 13.8007C25.3376 16.5378 27.5249 18.7275 30.195 18.7275C32.8935 18.7275 35.0523 16.509 35.0523 13.8007C35.0523 11.0636 32.8935 8.84514 30.195 8.84514ZM30.195 17.2005C28.3202 17.2005 26.8147 15.6735 26.8147 13.7719C26.8147 11.8703 28.3202 10.3433 30.195 10.3433C32.0697 10.3433 33.5752 11.8703 33.5752 13.7719C33.5752 15.6735 32.0697 17.2005 30.195 17.2005Z" fill="#3F3F3F"/>
<path d="M42.5798 5.44521H42.2673V4.09106H42.7502C42.9775 4.09106 43.2899 4.11988 43.2899 4.49443C43.2899 4.6673 43.2047 4.81135 43.0059 4.84016L43.3183 5.44521H42.9775L42.6934 4.89779H42.5798V5.44521ZM42.5798 4.6673C42.7502 4.6673 42.7786 4.6673 42.8354 4.63848C42.9491 4.60967 42.9491 4.52324 42.9491 4.46561C42.9491 4.37918 42.9207 4.32156 42.8638 4.29275C42.807 4.26393 42.7786 4.26393 42.6082 4.26393V4.6673H42.5798Z" fill="#3F3F3F"/>
<path d="M42.7786 3.57251C42.0968 3.57251 41.5571 4.11993 41.5571 4.81141C41.5571 5.50288 42.0968 6.0503 42.7786 6.0503C43.4603 6.0503 44 5.50288 44 4.81141C44 4.11993 43.4603 3.57251 42.7786 3.57251ZM42.7786 5.81981C42.2389 5.81981 41.7844 5.35882 41.7844 4.81141C41.7844 4.26399 42.2389 3.803 42.7786 3.803C43.3183 3.803 43.7728 4.26399 43.7728 4.81141C43.7728 5.35882 43.3183 5.81981 42.7786 5.81981Z" fill="#3F3F3F"/>
</svg>
