<svg width="22" height="24" viewBox="0 0 22 24" fill="none" xmlns="http://www.w3.org/2000/svg">
<g clip-path="url(#clip0_307_3611)">
<path d="M21.193 3.15789H19.5439H14.807V1.47368C14.807 0.666667 14.1404 0 13.3333 0H8.59649C7.78947 0 7.12281 0.666667 7.12281 1.47368V3.15789H2.35088H0.701754C0.315789 3.15789 0 3.47368 0 3.85965C0 4.24561 0.315789 4.5614 0.701754 4.5614H2.35088V22.1053C2.35088 23.1579 3.19298 24 4.24561 24H17.6491C18.7018 24 19.5439 23.1579 19.5439 22.1053V4.5614H21.193C21.5789 4.5614 21.8947 4.24561 21.8947 3.85965C21.8947 3.47368 21.5789 3.15789 21.193 3.15789ZM8.49123 1.47368C8.49123 1.4386 8.52632 1.40351 8.5614 1.40351H13.2982C13.3333 1.40351 13.3684 1.4386 13.3684 1.47368V3.15789H8.45614V1.47368H8.49123ZM18.1404 22.1053C18.1404 22.386 17.9298 22.5965 17.6491 22.5965H4.24561C3.96491 22.5965 3.75439 22.386 3.75439 22.1053V4.5614H7.08772H14.807H18.1404V22.1053Z" fill="#3F3F3F"/>
<path d="M7.78964 7.4386C7.40368 7.4386 7.08789 7.75439 7.08789 8.14035V18.6316C7.08789 19.0175 7.40368 19.3333 7.78964 19.3333C8.17561 19.3333 8.4914 19.0175 8.4914 18.6316V8.14035C8.4914 7.75439 8.17561 7.4386 7.78964 7.4386Z" fill="#3F3F3F"/>
<path d="M10.9478 7.4386C10.5619 7.4386 10.2461 7.75439 10.2461 8.14035V18.6316C10.2461 19.0175 10.5619 19.3333 10.9478 19.3333C11.3338 19.3333 11.6496 19.0175 11.6496 18.6316V8.14035C11.6496 7.75439 11.3338 7.4386 10.9478 7.4386Z" fill="#3F3F3F"/>
<path d="M14.1051 7.4386C13.7191 7.4386 13.4033 7.75439 13.4033 8.14035V18.6316C13.4033 19.0175 13.7191 19.3333 14.1051 19.3333C14.491 19.3333 14.8068 19.0175 14.8068 18.6316V8.14035C14.8068 7.75439 14.491 7.4386 14.1051 7.4386Z" fill="#3F3F3F"/>
</g>
<defs>
<clipPath id="clip0_307_3611">
<rect width="21.8947" height="24" fill="white"/>
</clipPath>
</defs>
</svg>
