<svg width="24" height="21" viewBox="0 0 24 21" fill="none" xmlns="http://www.w3.org/2000/svg">
<path d="M23.114 0.272705H0.885653C0.499023 0.272705 0.181641 0.590088 0.181641 0.976718V16.0322C0.181641 16.4188 0.499023 16.7362 0.885653 16.7362H8.62402V18.9117H6.04457C5.65794 18.9117 5.34055 19.2291 5.34055 19.6157C5.34055 20.0024 5.65794 20.3198 6.04457 20.3198H17.9551C18.3417 20.3198 18.6591 20.0024 18.6591 19.6157C18.6591 19.2291 18.3417 18.9117 17.9551 18.9117H15.3756V16.7304H23.1082C23.4948 16.7304 23.8122 16.4131 23.8122 16.0264V0.976718C23.818 0.590088 23.5006 0.272705 23.114 0.272705ZM13.9734 18.9117H10.0263V16.7304H13.9734V18.9117ZM22.41 15.3282H1.58967V14.1279H22.4157V15.3282H22.41ZM22.41 12.7199H1.58967V1.68073H22.4157V12.7199H22.41Z" fill="#3F3F3F"/>
</svg>
