<svg width="25" height="24" viewBox="0 0 25 24" fill="none" xmlns="http://www.w3.org/2000/svg">
<g clip-path="url(#clip0_307_3531)">
<path d="M0 10.3533C0.189255 9.90428 0.537241 9.77954 0.995116 9.77954C4.16972 9.79202 7.34432 9.78578 10.5189 9.78578C10.5617 9.78578 10.5983 9.78578 10.641 9.78578C11.337 9.79825 11.6606 10.291 11.4042 10.9459C11.0256 11.9188 10.641 12.8856 10.2564 13.8585C9.00488 17.0332 7.75336 20.2016 6.50183 23.3762C6.38584 23.6693 6.23321 23.9126 5.90965 23.9812C5.51282 24.0623 5.19536 23.8814 5.02442 23.4573C4.74359 22.765 4.47497 22.0727 4.20024 21.3804C2.85104 17.9188 1.48962 14.4698 0.128205 11.0207C0.0854701 10.9147 0.042735 10.8086 0 10.7026C0 10.5841 0 10.4718 0 10.3533ZM9.64591 11.3201C7.02686 11.3201 4.45665 11.3201 1.85592 11.3201C3.15018 14.607 4.43834 17.8752 5.75092 21.1995C7.06349 17.8752 8.34554 14.6132 9.64591 11.3201Z" fill="#3F3F3F"/>
<path d="M19.2307 23.9999C17.6434 23.9999 16.0561 23.9999 14.4688 23.9999C14.3223 23.9999 14.1696 23.9999 14.0353 23.9625C13.5836 23.8378 13.4004 23.3575 13.6019 22.8461C14.0659 21.661 14.5359 20.476 15.006 19.291C16.1782 16.3284 17.3442 13.3658 18.5164 10.397C18.6385 10.0852 18.8155 9.84193 19.1635 9.79827C19.5481 9.75461 19.8229 9.92925 19.9877 10.3471C20.3052 11.1392 20.6165 11.9313 20.9279 12.7234C22.2466 16.0727 23.5713 19.422 24.89 22.7712C24.9816 22.9958 25.061 23.2203 24.9694 23.4698C24.8656 23.7504 24.6824 23.9313 24.3894 23.975C24.2673 23.9937 24.1452 23.9999 24.0231 23.9999C22.4236 24.0062 20.8241 23.9999 19.2307 23.9999ZM23.1501 22.4719C21.8497 19.1787 20.5677 15.9168 19.2551 12.5924C17.9425 15.923 16.6544 19.185 15.3601 22.4719C17.9731 22.4719 20.5433 22.4719 23.1501 22.4719Z" fill="#3F3F3F"/>
<path d="M1.8746 3.94176C1.91123 1.73386 3.66947 -0.0374502 5.7818 -2.81364e-05C7.95518 0.0373939 9.65848 1.82118 9.62795 4.01661C9.59743 6.2058 7.82697 7.9584 5.69022 7.91474C3.55958 7.87108 1.83797 6.08106 1.8746 3.94176ZM3.37032 3.97295C3.37643 5.28896 4.46922 6.40538 5.75738 6.39914C7.04554 6.39291 8.13833 5.27648 8.13833 3.96047C8.13833 2.63823 7.05164 1.52804 5.75738 1.5218C4.45701 1.5218 3.36422 2.63823 3.37032 3.97295Z" fill="#3F3F3F"/>
<path d="M19.2495 0C21.3862 0 23.1384 1.78378 23.1323 3.9605C23.1262 6.14345 21.3801 7.921 19.2434 7.91476C17.1066 7.90852 15.385 6.14969 15.3789 3.96674C15.3789 1.78378 17.1127 0.00623701 19.2495 0ZM21.6365 3.94802C21.6304 2.62578 20.5437 1.52183 19.2495 1.52183C17.9552 1.52183 16.8746 2.63202 16.8685 3.95426C16.8624 5.27027 17.9552 6.38669 19.2434 6.39293C20.5437 6.40541 21.6426 5.28274 21.6365 3.94802Z" fill="#3F3F3F"/>
<path d="M9.64545 11.3202C8.34509 14.6133 7.05693 17.8815 5.75046 21.1996C4.43789 17.8753 3.14973 14.6133 1.85547 11.3202C4.4562 11.3202 7.02641 11.3202 9.64545 11.3202Z" fill="white"/>
<path d="M23.1503 22.472C20.5435 22.472 17.9733 22.472 15.3604 22.472C16.6546 19.1851 17.9428 15.9231 19.2553 12.5925C20.5618 15.9106 21.85 19.1726 23.1503 22.472Z" fill="white"/>
</g>
<defs>
<clipPath id="clip0_307_3531">
<rect width="25" height="24" fill="white"/>
</clipPath>
</defs>
</svg>
