<svg width="23" height="19" viewBox="0 0 23 19" fill="none" xmlns="http://www.w3.org/2000/svg">
<path d="M13.2917 13.2482C12.147 12.1036 10.285 12.1036 9.13484 13.2482C7.99021 14.3928 7.99021 16.2549 9.13484 17.405C9.7099 17.9801 10.4602 18.2649 11.2105 18.2649C11.9608 18.2649 12.7166 17.9801 13.2862 17.405C14.4363 16.2604 14.4363 14.3928 13.2917 13.2482ZM12.3332 16.4466C11.7144 17.0655 10.7121 17.0655 10.0987 16.4466C9.47988 15.8277 9.47988 14.8255 10.0987 14.2121C10.4054 13.9054 10.8107 13.752 11.216 13.752C11.6213 13.752 12.0266 13.9054 12.3332 14.2121C12.9521 14.8255 12.9521 15.8277 12.3332 16.4466Z" fill="#3F3F3F"/>
<path d="M18.0074 8.84484C14.2668 5.09876 8.17116 5.09876 4.43056 8.84484C4.3046 8.9708 4.2334 9.14606 4.2334 9.32679C4.2334 9.50752 4.3046 9.6773 4.43056 9.80874L6.50076 11.8789C6.62673 12.0049 6.80198 12.0761 6.98271 12.0761C7.16345 12.0761 7.33322 12.0049 7.46467 11.8789C8.46691 10.8767 9.80323 10.3235 11.2272 10.3235C12.6511 10.3235 13.9874 10.8767 14.9897 11.8789C15.1156 12.0049 15.2909 12.0761 15.4716 12.0761C15.6524 12.0761 15.8221 12.0049 15.9536 11.8789L18.0238 9.80874C18.1498 9.68277 18.221 9.50752 18.221 9.32679C18.2045 9.14058 18.1333 8.9708 18.0074 8.84484ZM15.4333 10.455C14.2448 9.48561 12.7716 8.95985 11.2162 8.95985C9.66083 8.95985 8.18759 9.48561 6.99914 10.455L5.88737 9.34322C8.95433 6.74178 13.4836 6.74178 16.5505 9.34322L15.4333 10.455Z" fill="#3F3F3F"/>
<path d="M22.2355 4.61684C19.289 1.67036 15.3786 0.0492554 11.2163 0.0492554C7.05401 0.0492554 3.14364 1.67036 0.197162 4.61136C-0.0657206 4.87425 -0.0657206 5.30691 0.197162 5.56979L2.26736 7.63999C2.53024 7.90287 2.9629 7.90287 3.22579 7.63999C7.62907 3.23671 14.7981 3.23671 19.2069 7.63999C19.3383 7.77143 19.5135 7.83715 19.6888 7.83715C19.8641 7.83715 20.0338 7.77143 20.1707 7.63999L22.241 5.56979C22.4984 5.30691 22.4984 4.87972 22.2355 4.61684ZM19.6724 6.21604C14.8748 1.90586 7.55239 1.90586 2.76027 6.21604L1.64849 5.10427C4.27184 2.71642 7.6455 1.40748 11.2163 1.40748C14.7871 1.40748 18.1608 2.71642 20.7841 5.10427L19.6724 6.21604Z" fill="#3F3F3F"/>
</svg>
