<svg width="20" height="20" viewBox="0 0 20 20" fill="none" xmlns="http://www.w3.org/2000/svg">
<mask id="path-1-inside-1_140_2156" fill="white">
<path d="M9.91229 0.00944754C5.89793 0.00944754 2.0859 -0.347372 0.629847 3.38653C0.0284117 4.9287 0.115753 6.93153 0.115753 9.79934C0.115753 12.3159 0.0350452 14.681 0.629847 16.211C2.08258 19.9472 5.92557 19.5892 9.91008 19.5892C13.7542 19.5892 17.7177 19.9891 19.1914 16.211C19.794 14.6534 19.7055 12.6804 19.7055 9.79934C19.7055 5.97485 19.9167 3.50584 18.0604 1.65214C16.1809 -0.225855 13.6392 0.00944754 9.90787 0.00944754H9.91229ZM9.03446 1.77366C17.4081 1.7604 18.4739 0.830245 17.8857 13.752C17.6768 18.3221 14.1942 17.8206 9.9134 17.8206C2.10801 17.8206 1.88357 17.5975 1.88357 9.79492C1.88357 1.90181 2.5027 1.77808 9.03446 1.77145V1.77366ZM15.1417 3.39868C14.4927 3.39868 13.9665 3.92452 13.9665 4.57298C13.9665 5.22144 14.4927 5.74728 15.1417 5.74728C15.7907 5.74728 16.3169 5.22144 16.3169 4.57298C16.3169 3.92452 15.7907 3.39868 15.1417 3.39868ZM9.91229 4.77183C7.13397 4.77183 4.88191 7.02322 4.88191 9.79934C4.88191 12.5755 7.13397 14.8257 9.91229 14.8257C12.6906 14.8257 14.9416 12.5755 14.9416 9.79934C14.9416 7.02322 12.6906 4.77183 9.91229 4.77183ZM9.91229 6.53604C14.2296 6.53604 14.2351 13.0626 9.91229 13.0626C5.59611 13.0626 5.58948 6.53604 9.91229 6.53604Z"/>
</mask>
<path d="M9.91229 0.00944754C5.89793 0.00944754 2.0859 -0.347372 0.629847 3.38653C0.0284117 4.9287 0.115753 6.93153 0.115753 9.79934C0.115753 12.3159 0.0350452 14.681 0.629847 16.211C2.08258 19.9472 5.92557 19.5892 9.91008 19.5892C13.7542 19.5892 17.7177 19.9891 19.1914 16.211C19.794 14.6534 19.7055 12.6804 19.7055 9.79934C19.7055 5.97485 19.9167 3.50584 18.0604 1.65214C16.1809 -0.225855 13.6392 0.00944754 9.90787 0.00944754H9.91229ZM9.03446 1.77366C17.4081 1.7604 18.4739 0.830245 17.8857 13.752C17.6768 18.3221 14.1942 17.8206 9.9134 17.8206C2.10801 17.8206 1.88357 17.5975 1.88357 9.79492C1.88357 1.90181 2.5027 1.77808 9.03446 1.77145V1.77366ZM15.1417 3.39868C14.4927 3.39868 13.9665 3.92452 13.9665 4.57298C13.9665 5.22144 14.4927 5.74728 15.1417 5.74728C15.7907 5.74728 16.3169 5.22144 16.3169 4.57298C16.3169 3.92452 15.7907 3.39868 15.1417 3.39868ZM9.91229 4.77183C7.13397 4.77183 4.88191 7.02322 4.88191 9.79934C4.88191 12.5755 7.13397 14.8257 9.91229 14.8257C12.6906 14.8257 14.9416 12.5755 14.9416 9.79934C14.9416 7.02322 12.6906 4.77183 9.91229 4.77183ZM9.91229 6.53604C14.2296 6.53604 14.2351 13.0626 9.91229 13.0626C5.59611 13.0626 5.58948 6.53604 9.91229 6.53604Z" fill="white"/>
<path d="M0.629847 3.38653L20.5052 11.1378L20.5055 11.1371L0.629847 3.38653ZM0.629847 16.211L-19.2538 23.9409L-19.2533 23.9423L0.629847 16.211ZM19.1914 16.211L39.0662 23.9637L39.0771 23.9357L39.088 23.9077L19.1914 16.211ZM18.0604 1.65214L2.98144 16.7431L2.98594 16.7475L18.0604 1.65214ZM9.03446 1.77366H-12.2989V23.1408L9.06824 23.107L9.03446 1.77366ZM17.8857 13.752L39.1968 14.7263L39.197 14.722L17.8857 13.752ZM9.03446 1.77145H30.3678V-19.5835L9.01281 -19.5619L9.03446 1.77145ZM9.91229 -21.3239C9.73012 -21.3239 4.2233 -21.5753 -0.482978 -20.4898C-3.44307 -19.807 -7.32058 -18.4256 -11.0613 -15.4825C-14.9459 -12.4261 -17.6271 -8.51503 -19.2458 -4.36403L20.5055 11.1371C19.6148 13.4211 17.9561 15.9766 15.3212 18.0497C12.8303 20.0096 10.4297 20.7801 9.10638 21.0853C7.89803 21.364 7.16471 21.3477 7.53502 21.338C8.13228 21.3222 8.22154 21.3428 9.91229 21.3428V-21.3239ZM-19.2455 -4.36472C-20.7674 -0.46224 -21.0603 3.07529 -21.1587 5.0154C-21.2484 6.78501 -21.2176 8.97651 -21.2176 9.79934H21.4491C21.4491 9.39386 21.4475 9.00642 21.4464 8.68575C21.4451 8.34817 21.4443 8.08557 21.4448 7.84628C21.4453 7.61102 21.4469 7.44628 21.4492 7.32559C21.4515 7.20552 21.4539 7.16309 21.4532 7.17623C21.4525 7.18967 21.4473 7.28959 21.4308 7.45493C21.4143 7.62089 21.3837 7.87984 21.3275 8.21046C21.2156 8.86912 20.9871 9.90209 20.5052 11.1378L-19.2455 -4.36472ZM-21.2176 9.79934C-21.2176 10.5149 -21.2462 12.6339 -21.1576 14.4273C-21.0755 16.09 -20.8343 19.8754 -19.2538 23.9409L20.5135 8.48117C20.8016 9.22216 20.9914 9.86441 21.1172 10.3611C21.2433 10.8591 21.3191 11.2663 21.3648 11.5522C21.451 12.0917 21.4609 12.3986 21.4571 12.323C21.4539 12.2582 21.447 12.0572 21.4457 11.5862C21.445 11.3596 21.4456 11.1137 21.4467 10.8069C21.4476 10.5189 21.4491 10.1597 21.4491 9.79934H-21.2176ZM-19.2533 23.9423C-17.6274 28.1238 -14.9295 32.0441 -11.0366 35.0986C-7.29289 38.0361 -3.41586 39.4117 -0.464161 40.091C4.23936 41.1735 9.7379 40.9226 9.91008 40.9226V-1.7441C8.22227 -1.7441 8.14179 -1.72345 7.54453 -1.73917C7.17701 -1.74884 7.90453 -1.765 9.10526 -1.48866C10.4166 -1.18687 12.8114 -0.422284 15.3015 1.53152C17.9407 3.60233 19.6134 6.16636 20.513 8.47979L-19.2533 23.9423ZM9.91008 40.9226C9.91649 40.9226 15.4497 41.1807 20.1199 40.1305C23.0539 39.4708 26.9389 38.1238 30.7062 35.212C34.6362 32.1745 37.4006 28.2336 39.0662 23.9637L-0.683373 8.45839C0.245337 6.07754 1.96167 3.50346 4.61389 1.45353C7.10341 -0.470647 9.48098 -1.20922 10.7594 -1.49669C11.9378 -1.76166 12.649 -1.74341 12.2835 -1.73499C11.6078 -1.71942 11.6888 -1.7441 9.91008 -1.7441V40.9226ZM39.088 23.9077C40.5817 20.0463 40.8801 16.5566 40.9803 14.5831C41.07 12.8163 41.0389 10.6204 41.0389 9.79934H-1.62782C-1.62782 10.2072 -1.62625 10.5957 -1.62504 10.9177C-1.62378 11.2566 -1.62294 11.5193 -1.62338 11.7586C-1.62381 11.9938 -1.62545 12.1574 -1.62773 12.2767C-1.62999 12.3953 -1.63227 12.4355 -1.63148 12.4199C-1.63118 12.414 -1.61277 12.0111 -1.50483 11.3771C-1.39225 10.7158 -1.16744 9.70953 -0.705144 8.51444L39.088 23.9077ZM41.0389 9.79934C41.0389 9.17129 41.1519 5.32524 40.7204 2.13112C40.1221 -2.29826 38.321 -8.26436 33.1349 -13.4433L2.98594 16.7475C1.5376 15.3012 0.365956 13.5734 -0.446936 11.7137C-1.21105 9.96559 -1.46907 8.53243 -1.56229 7.84227C-1.64622 7.22084 -1.62803 6.93184 -1.62241 7.41962C-1.6144 8.11341 -1.62782 8.34001 -1.62782 9.79934H41.0389ZM33.1394 -13.4388C27.8858 -18.6882 21.8356 -20.4489 17.4621 -21.0244C14.2959 -21.4411 10.4146 -21.3239 9.90787 -21.3239V21.3428C10.463 21.3428 11.0089 21.3383 11.3895 21.3359C11.8143 21.3332 12.081 21.3325 12.2955 21.3345C12.7847 21.339 12.5036 21.3576 11.8951 21.2775C11.2219 21.1889 9.80353 20.9404 8.06607 20.1907C6.21571 19.3922 4.46375 18.2242 2.98144 16.7431L33.1394 -13.4388ZM9.90787 21.3428H9.91229V-21.3239H9.90787V21.3428ZM9.06824 23.107C9.68328 23.106 10.2523 23.1008 10.7203 23.0964C11.218 23.0918 11.5656 23.0884 11.8808 23.0879C12.5907 23.0866 12.5172 23.1053 12.1423 23.072C11.7218 23.0346 5.81617 22.5892 0.945068 17.1626C-1.26737 14.6978 -2.3153 12.2211 -2.8021 10.6707C-3.25569 9.22613 -3.32665 8.25307 -3.32722 8.24639C-3.33258 8.18381 -3.30706 8.47253 -3.31476 9.3367C-3.32219 10.1705 -3.35692 11.2745 -3.42554 12.7819L39.197 14.722C39.3407 11.5642 39.4661 7.90419 39.184 4.6079C38.9482 1.8529 38.1719 -5.23825 32.6965 -11.3382C26.5858 -18.1459 18.8804 -19.1638 15.9233 -19.4268C13.3747 -19.6536 9.79828 -19.5609 9.00069 -19.5596L9.06824 23.107ZM-3.42534 12.7776C-3.36037 11.3567 -2.93957 7.76767 -0.24309 3.96842C2.66192 -0.124642 6.48279 -2.05857 9.08368 -2.86849C11.2269 -3.5359 12.7482 -3.50818 12.3774 -3.49847C11.7202 -3.48127 11.9924 -3.51273 9.9134 -3.51273V39.1539C9.97485 39.1539 12.2876 39.1852 13.4939 39.1536C14.9866 39.1145 18.1942 38.982 21.7693 37.8687C25.8021 36.6129 30.8003 33.9474 34.5509 28.6631C38.0929 23.6725 39.0274 18.4324 39.1968 14.7263L-3.42534 12.7776ZM9.9134 -3.51273C7.58607 -3.51273 7.57121 -3.56112 8.06779 -3.49772C8.52552 -3.43927 13.5374 -2.8673 18.0514 1.64381C22.5678 6.15714 23.1424 11.1717 23.2016 11.6344C23.2655 12.1338 23.2169 12.1213 23.2169 9.79492H-19.4498C-19.4498 11.3699 -19.4703 14.3112 -19.1204 17.0469C-18.7752 19.7458 -17.6566 26.2792 -12.1085 31.8236C-6.56266 37.3658 -0.031193 38.4812 2.66388 38.8254C5.39781 39.1744 8.33803 39.1539 9.9134 39.1539V-3.51273ZM23.2169 9.79492C23.2169 7.72118 23.2835 7.65358 23.2017 8.22674C23.1371 8.67926 22.5394 13.2588 18.4477 17.5491C14.0927 22.1155 9.1292 22.9048 8.10115 23.0478C7.31788 23.1567 6.95585 23.1069 9.05611 23.1048L9.01281 -19.5619C7.84719 -19.5607 4.95836 -19.5926 2.22195 -19.2119C-0.759252 -18.7971 -7.1022 -17.4824 -12.4285 -11.8976C-17.4914 -6.58886 -18.6521 -0.498048 -19.0369 2.19782C-19.4389 5.01432 -19.4498 7.92211 -19.4498 9.79492H23.2169ZM-12.2989 1.77145V1.77366H30.3678V1.77145H-12.2989ZM15.1417 -17.9347C2.72657 -17.9347 -7.36688 -7.87348 -7.36688 4.57298H35.2998C35.2998 15.7225 26.2588 24.732 15.1417 24.732V-17.9347ZM-7.36688 4.57298C-7.36688 17.0194 2.72657 27.0806 15.1417 27.0806V-15.5861C26.2588 -15.5861 35.2998 -6.57656 35.2998 4.57298H-7.36688ZM15.1417 27.0806C27.5568 27.0806 37.6502 17.0194 37.6502 4.57298H-5.01642C-5.01642 -6.57654 4.02449 -15.5861 15.1417 -15.5861V27.0806ZM37.6502 4.57298C37.6502 -7.87346 27.5568 -17.9347 15.1417 -17.9347V24.732C4.02449 24.732 -5.01642 15.7225 -5.01642 4.57298H37.6502ZM9.91229 -16.5615C-4.6383 -16.5615 -16.4514 -4.76866 -16.4514 9.79934H26.2152C26.2152 18.8151 18.9062 26.1052 9.91229 26.1052V-16.5615ZM-16.4514 9.79934C-16.4514 24.3735 -4.63218 36.1591 9.91229 36.1591V-6.50759C18.9001 -6.50759 26.2152 0.777476 26.2152 9.79934H-16.4514ZM9.91229 36.1591C24.4629 36.1591 36.2749 24.3674 36.2749 9.79934H-6.39176C-6.39176 0.783575 0.918355 -6.50759 9.91229 -6.50759V36.1591ZM36.2749 9.79934C36.2749 -4.76256 24.469 -16.5615 9.91229 -16.5615V26.1052C0.912243 26.1052 -6.39176 18.809 -6.39176 9.79934H36.2749ZM9.91229 27.8694C5.14504 27.8694 0.034377 25.8501 -3.65229 21.6735C-6.98269 17.9005 -8.17944 13.4969 -8.181 9.80838C-8.18256 6.11967 -6.98911 1.70843 -3.65297 -2.07227C0.0398795 -6.25722 5.15466 -8.27069 9.91229 -8.27069V34.396C16.8313 34.396 23.5665 31.5667 28.3392 26.158C32.7551 21.1535 34.4879 15.1107 34.4857 9.79031C34.4834 4.47012 32.746 -1.56511 28.3354 -6.56184C23.5685 -11.9622 16.8382 -14.7973 9.91229 -14.7973V27.8694ZM9.91229 -8.27069C14.6816 -8.27069 19.7922 -6.25008 23.478 -2.07405C26.8075 1.69825 28.0041 6.10071 28.006 9.7885C28.0079 13.4765 26.8152 17.8881 23.4788 21.6697C19.7856 25.8557 14.6701 27.8694 9.91229 27.8694V-14.7973C2.99311 -14.7973 -3.74265 -11.9678 -8.51555 -6.55803C-12.9316 -1.55276 -14.6634 4.49055 -14.6607 9.81018C-14.658 15.1296 -12.9205 21.1637 -8.511 26.1598C-3.7451 31.5595 2.98489 34.396 9.91229 34.396V-8.27069Z" fill="white" mask="url(#path-1-inside-1_140_2156)"/>
</svg>
