<svg width="52" height="47" viewBox="0 0 52 47" fill="none" xmlns="http://www.w3.org/2000/svg">
<g clip-path="url(#clip0_739_17646)">
<path d="M52 4.89855C52 4.14493 51.7209 3.8379 50.9393 3.75416C50.7998 3.7402 50.6742 3.72625 50.5346 3.71229C50.1578 3.68438 49.7531 3.65647 49.4042 3.54482C47.3247 2.93076 45.2313 2.27483 43.1938 1.63285L42.8728 1.53516C40.4444 0.767579 37.8347 0.027912 35.1412 0.027912C34.8202 0.027912 34.4992 0.041868 34.1782 0.0558239C31.0102 0.265164 28.5539 1.50725 26.6978 3.82394C26.5303 4.03328 26.3768 4.25658 26.2093 4.47987C26.1396 4.57756 26.0698 4.67526 26 4.77295L25.9163 4.64734C25.8465 4.54965 25.7767 4.45196 25.7209 4.36822C24.409 2.45625 22.6087 1.15835 20.4037 0.488459C19.2453 0.167472 18.0451 0 16.817 0C15.6307 0 14.3747 0.167472 13.1047 0.474504C11.2904 0.935051 9.46216 1.50725 7.7037 2.06549C7.07568 2.26087 6.46162 2.45625 5.8336 2.65164C5.66613 2.70746 5.49866 2.76329 5.33119 2.80515C3.93559 3.23779 2.48417 3.69834 0.976919 3.75416C0.572195 3.76812 0.265164 3.94954 0 4.34031V4.35427V42.5658L0.013956 42.5797C0.20934 42.8449 0.474504 43.1659 0.949007 43.1659C0.976919 43.1659 1.01879 43.1659 1.0467 43.1659C1.1723 43.1519 1.31186 43.1519 1.45142 43.138C1.7445 43.124 2.03757 43.11 2.31669 43.0403L2.45625 42.9984C4.46592 42.4402 6.54536 41.854 8.58293 41.212L9.12721 41.0446C11.5695 40.277 14.0955 39.4675 16.7472 39.4257C16.817 39.4257 16.8867 39.4257 16.9565 39.4257C18.9801 39.4257 20.6409 39.8722 22.0225 40.8073C22.3994 41.0585 22.7483 41.3655 23.0832 41.6726C23.2367 41.8121 23.3902 41.9377 23.5437 42.0773C23.767 42.2587 24.0183 42.3564 24.2555 42.3564C24.5904 42.3564 24.8696 42.175 24.9952 41.854C25.2045 41.3516 24.9393 40.9887 24.6742 40.7236C22.6506 38.672 20.1106 37.6672 16.9007 37.6672C16.8449 37.6672 16.789 37.6672 16.7472 37.6672C14.0118 37.6951 11.43 38.4487 9.01557 39.2303C7.11755 39.8443 5.09393 40.4863 3.0424 41.1143C2.77724 41.1981 2.48417 41.2399 2.17713 41.2818C2.05153 41.2958 1.91197 41.3237 1.77241 41.3376V6.11272C1.77241 6.08481 1.77241 6.04294 1.77241 6.01503C1.77241 5.94525 1.77241 5.87547 1.77241 5.80569C1.7445 5.56844 1.82823 5.47075 2.10735 5.42888L2.34461 5.38701C3.01449 5.27536 3.69834 5.14976 4.34031 4.95437C5.52657 4.59152 6.74074 4.20075 7.89909 3.80998C8.76436 3.53086 9.6715 3.23779 10.5507 2.95867C12.379 2.37252 14.57 1.78637 16.817 1.78637C17.0821 1.78637 17.3333 1.80032 17.5985 1.81428C21.241 2.03757 23.781 3.78207 25.1487 7.01986C25.1626 7.04777 25.1766 7.08964 25.1906 7.11755C25.1766 7.15942 25.1766 7.20129 25.1626 7.24316C25.1487 7.39667 25.1487 7.55019 25.1487 7.7037V7.8014C25.1487 11.3462 25.1487 19.6361 25.1487 23.6414V26.6559C25.1487 30.1589 25.1487 35.0574 25.1487 38.5604V38.6581C25.1487 38.8116 25.1487 38.9651 25.1626 39.1186C25.2185 39.5652 25.5534 39.8722 25.986 39.8722C26 39.8722 26.014 39.8722 26.0279 39.8722C26.4885 39.8583 26.7815 39.5931 26.8513 39.1326C26.8792 38.9791 26.8792 38.8256 26.8653 38.686V38.5743C26.8653 30.5357 26.8653 15.7982 26.8653 7.75953V7.67579C26.8653 7.53623 26.8653 7.39667 26.8513 7.25711C26.8513 7.21524 26.8374 7.15942 26.8234 7.11755C26.8374 7.08964 26.8513 7.06173 26.8653 7.03382C26.9351 6.90821 27.0048 6.76865 27.0746 6.64305C27.3956 6.01503 27.7445 5.37305 28.1771 4.84273C29.8379 2.80515 32.0988 1.80032 35.0853 1.80032H35.1691C37.6812 1.81428 40.0397 2.49812 42.4262 3.2657C43.0682 3.47504 43.7101 3.69834 44.3382 3.90768C46.0687 4.50778 47.8551 5.1358 49.6973 5.40097C50.1439 5.47075 50.2276 5.62426 50.2276 6.02899C50.2415 14.1095 50.2415 23.8647 50.2415 32.4756V40.8073C50.2415 40.9189 50.2415 41.0446 50.2276 41.1702C50.2276 41.226 50.2276 41.2818 50.2136 41.3376C50.1578 41.3376 50.102 41.3237 50.0462 41.3237C49.9206 41.3097 49.8089 41.2958 49.7112 41.2678C49.2367 41.1283 48.7622 40.9887 48.2877 40.8631C47.0456 40.5142 45.7756 40.1514 44.5336 39.7466L44.0172 39.5792C41.547 38.7697 38.993 37.9324 36.3414 37.723C35.8948 37.6812 35.4622 37.6672 35.0435 37.6672C32.8524 37.6672 31.0102 38.1557 29.3913 39.1465C28.6656 39.5931 28.0097 40.1793 27.3677 40.7515L27.256 40.8492C27.0607 41.0166 26.963 41.2399 26.949 41.4772C26.949 41.7144 27.0467 41.9517 27.2142 42.1192C27.3816 42.2866 27.577 42.3704 27.7864 42.3704C28.0097 42.3704 28.233 42.2727 28.4563 42.0913C28.5539 42.0075 28.6516 41.9098 28.7354 41.8261L28.8191 41.7424C29.8239 40.7654 31.0381 40.0816 32.4337 39.7327C33.3269 39.5094 34.2619 39.3838 35.2249 39.3838C36.3274 39.3838 37.4718 39.5373 38.6441 39.8443C40.3886 40.3049 42.1331 40.8492 43.8218 41.3935C44.4917 41.6028 45.1755 41.8261 45.8454 42.0354L46.1106 42.1192C47.6318 42.5937 49.1948 43.0821 50.8417 43.1519C50.8835 43.1519 50.9254 43.1519 50.9673 43.1519C51.7069 43.1519 52.0279 42.8309 52.0279 42.0633C52 30.9823 52 15.9936 52 4.89855Z" fill="#3F3F3F"/>
<path d="M50.9952 44.7569C50.8835 44.7429 50.7719 44.7429 50.6602 44.729C50.2695 44.7011 49.8647 44.6731 49.5019 44.5615C47.9109 44.1149 46.2083 43.6264 44.5056 43.0682L44.073 42.9286C41.5749 42.1052 38.993 41.2679 36.3135 41.0585C35.825 41.0167 35.3505 41.0027 34.9179 41.0027C32.4198 41.0027 30.424 41.6168 28.8331 42.8868C27.8841 43.6404 26.8932 43.9893 25.7209 43.9893C25.5255 43.9893 25.3162 43.9753 25.1068 43.9614H25.0929C25.0789 43.9614 25.0649 43.9614 25.0649 43.9614C25.051 43.9614 25.051 43.9614 25.037 43.9614C25.0231 43.9614 25.0231 43.9614 25.0231 43.9614C24.9393 43.9335 24.8556 43.9056 24.7579 43.8777C24.5625 43.8218 24.3671 43.766 24.2415 43.6544C23.0553 42.6216 21.7853 41.9099 20.3618 41.4912C19.2313 41.1562 18.0311 40.9888 16.803 40.9888C15.5888 40.9888 14.2909 41.1562 12.9791 41.4912C11.5556 41.854 10.132 42.3006 8.7504 42.7472C7.75953 43.0682 6.72679 43.3892 5.708 43.6823C4.11702 44.1428 2.49812 44.4778 1.14439 44.7429C0.683843 44.8267 0.251208 44.9244 0 45.3989V45.4128V45.9431V45.9571C0.167472 46.2083 0.460547 46.5432 0.935051 46.5432C0.962963 46.5432 0.990875 46.5432 1.03274 46.5432C1.15835 46.5293 1.28395 46.5293 1.40955 46.5153C1.70263 46.5014 2.00966 46.4874 2.28878 46.4037L2.53999 46.3339C4.52174 45.7757 6.55931 45.2035 8.55502 44.5755L9.04348 44.4219C11.5137 43.6404 14.0537 42.831 16.7193 42.7891C16.7891 42.7891 16.8728 42.7891 16.9426 42.7891C19.6221 42.7891 21.7155 43.6125 23.3484 45.2872C23.6554 45.6082 24.0183 45.7478 24.4648 45.7478H24.5067C24.9952 45.7338 25.4976 45.7338 26.014 45.7338C26.4605 45.7338 26.8653 45.7478 27.2421 45.7617C27.284 45.7617 27.3119 45.7617 27.3537 45.7617C27.9259 45.7617 28.3725 45.5663 28.8052 45.1197C29.7542 44.1428 30.9683 43.459 32.4058 43.0961C33.3129 42.8728 34.248 42.7472 35.197 42.7472C36.2856 42.7472 37.43 42.9007 38.6023 43.2078C40.3747 43.6683 42.161 44.2405 43.8916 44.7848C44.5335 44.9941 45.1755 45.1895 45.8175 45.3989L46.0129 45.4547C47.5899 45.9431 49.2088 46.4456 50.8975 46.5153C50.9254 46.5153 50.9393 46.5153 50.9673 46.5153C51.5674 46.5153 51.9581 46.1943 51.986 45.6919C52.014 45.1756 51.6232 44.8127 50.9952 44.7569Z" fill="#3F3F3F"/>
<path d="M30.6621 24.395C30.9272 24.8277 31.4157 24.9254 31.9321 24.5904C33.0765 23.8787 34.3186 23.5716 35.6583 23.5856C38.6449 23.5995 41.6175 23.5856 44.6041 23.5856C45.3438 23.5856 45.7485 23.2925 45.7345 22.7343C45.7206 22.19 45.3438 21.9109 44.5762 21.9109C42.9852 21.9109 41.4082 21.9109 39.8172 21.9109C38.2681 21.9109 36.719 21.8969 35.1559 21.9109C33.6766 21.9388 32.3089 22.3575 31.0529 23.1529C30.5644 23.5018 30.4109 23.9624 30.6621 24.395Z" fill="#3F3F3F"/>
<path d="M30.6622 29.9775C30.9273 30.4241 31.4158 30.5078 31.974 30.1589C33.0766 29.489 34.2628 29.1681 35.5468 29.182C38.6031 29.196 41.6455 29.182 44.7019 29.182C45.3578 29.182 45.7486 28.861 45.7486 28.3447C45.7486 27.8283 45.3718 27.5073 44.7019 27.5073C43.097 27.5073 41.492 27.5073 39.8871 27.5073C38.338 27.5073 36.7889 27.4933 35.2258 27.5073C33.7465 27.5213 32.3788 27.9399 31.1227 28.7215C30.5645 29.0704 30.397 29.5309 30.6622 29.9775Z" fill="#3F3F3F"/>
<path d="M34.8061 18.0591C34.8759 18.0591 34.9318 18.0451 35.0015 18.0312C35.2248 18.0172 35.4481 18.0033 35.6714 18.0033C38.658 18.0172 41.6306 18.0033 44.6172 18.0033C45.1894 18.0033 45.5662 17.8218 45.6918 17.4869C45.7756 17.3473 45.8314 17.1938 45.8314 17.0124V11.6254C45.8314 11.1648 45.4546 10.788 44.994 10.788C44.8963 10.7741 44.7986 10.7601 44.7009 10.7601C43.082 10.7601 41.4632 10.7601 39.8303 10.7601C38.2812 10.7601 36.7321 10.7462 35.169 10.7601C35.0434 10.7601 34.9178 10.7741 34.8061 10.7741H34.7085C34.2479 10.7741 33.8711 11.1509 33.8711 11.6114V17.1938C33.8711 17.6544 34.2479 18.0312 34.7085 18.0312H34.8061V18.0591ZM35.6435 12.4348C35.6575 12.4348 35.6575 12.4348 35.6714 12.4348C38.4626 12.4488 41.2538 12.4488 44.0311 12.4348V16.3425C42.6215 16.3425 41.2259 16.3425 39.8163 16.3425C38.4207 16.3425 37.0251 16.3286 35.6295 16.3425V12.4348H35.6435Z" fill="#3F3F3F"/>
</g>
<defs>
<clipPath id="clip0_739_17646">
<rect width="52" height="46.5293" fill="white"/>
</clipPath>
</defs>
</svg>
