<svg width="55" height="55" viewBox="0 0 55 55" fill="none" xmlns="http://www.w3.org/2000/svg">
<g clip-path="url(#clip0_739_17295)">
<path d="M23.6263 55C23.1681 54.7996 22.6812 54.6564 22.266 54.3843C20.204 52.9953 20.3902 49.9167 22.6239 48.8141C23.8697 48.1984 24.4282 47.2533 24.3709 45.893C24.3422 45.1771 24.0129 44.7188 23.3256 44.5041C23.0678 44.4181 22.8101 44.3752 22.5523 44.2893C22.0655 44.1318 21.8221 43.7595 21.9223 43.3299C22.0225 42.8717 22.4378 42.6569 22.9676 42.7571C25.6453 43.244 26.7765 45.535 25.588 48.0695C25.1728 48.9716 24.5141 49.659 23.612 50.1172C22.6812 50.5754 22.2803 51.277 22.4664 52.0646C22.6669 52.8951 23.3685 53.382 24.3709 53.382C26.4042 53.382 28.4519 53.382 30.4852 53.382C31.4732 53.382 32.1892 52.8808 32.3753 52.0503C32.5471 51.277 32.1462 50.5754 31.2727 50.1315C29.5115 49.2437 28.5521 47.3249 28.9101 45.3775C29.1392 44.1604 29.8551 43.3156 31.0436 43.0005C32.7333 42.5566 34.3227 41.898 35.8406 41.0388C37.0004 40.3658 38.3321 40.5663 39.3201 41.4684C40.8093 42.843 41.3248 44.4611 40.6661 46.4228C40.3941 47.2247 40.6518 47.9979 41.2962 48.4132C41.9835 48.8428 42.7997 48.7712 43.4154 48.1698C44.9619 46.6376 46.5083 45.0911 48.0548 43.5447C48.6562 42.9433 48.7421 42.0841 48.3269 41.4398C47.9116 40.7811 47.1384 40.509 46.3508 40.7811C44.3891 41.4541 42.771 40.9386 41.3964 39.4637C40.5086 38.5186 40.2795 37.1583 40.9382 36.0414C41.8403 34.4806 42.5133 32.8482 43.0001 31.1156C43.4297 29.5691 44.9332 28.7959 46.7804 29.0823C48.3269 29.3114 49.4581 30.1133 50.1454 31.5309C50.5464 32.3327 51.2623 32.7194 52.0069 32.5619C52.8088 32.39 53.3529 31.6884 53.3672 30.8006C53.3816 28.667 53.3816 26.5478 53.3672 24.4142C53.3672 23.5121 52.8088 22.8105 52.0212 22.6387C51.2766 22.4811 50.5607 22.8678 50.1454 23.6696C49.2147 25.4882 47.4534 26.4332 45.4487 26.1325C44.1743 25.9464 43.3152 25.2018 42.9858 23.9703C42.5419 22.295 41.8976 20.7199 41.0384 19.2307C40.3511 18.0279 40.5516 16.6819 41.5109 15.6652C42.8856 14.2047 44.5037 13.7321 46.4367 14.3765C47.2386 14.6486 47.9975 14.3765 48.4128 13.7178C48.8424 13.0448 48.7421 12.2143 48.1407 11.6129C46.6086 10.0664 45.0621 8.51994 43.5013 6.98778C42.9142 6.41502 42.0837 6.31478 41.4394 6.71572C40.752 7.13098 40.48 7.90421 40.752 8.73472C41.4107 10.6678 40.9095 12.2716 39.449 13.6462C38.4753 14.5626 37.1293 14.7917 35.9837 14.1187C34.4373 13.2166 32.8192 12.5436 31.1009 12.0854C29.5258 11.6558 28.7382 10.138 29.0246 8.27651C29.2537 6.75868 30.0556 5.64178 31.4302 4.94014C32.2751 4.52488 32.6617 3.80892 32.4899 3.05001C32.3037 2.23381 31.6021 1.71832 30.657 1.71832C28.5664 1.71832 26.4758 1.71832 24.3709 1.71832C23.4545 1.71832 22.7528 2.24813 22.5667 3.03569C22.3805 3.7946 22.7815 4.52488 23.612 4.94014C25.4162 5.85657 26.3613 7.66079 26.0462 9.65115C25.8458 10.9256 25.1012 11.7847 23.8554 12.0997C22.1944 12.5293 20.6479 13.1737 19.1587 14.0328C17.9273 14.7488 16.5812 14.534 15.5503 13.5603C14.1183 12.2 13.6315 10.5962 14.2615 8.69177C14.5336 7.86125 14.2759 7.08802 13.6029 6.67276C12.9299 6.2575 12.1137 6.37206 11.4979 6.95915C11.1113 7.33144 10.739 7.71806 10.3524 8.09036C9.95147 8.46266 9.47893 8.4913 9.14959 8.17628C8.79161 7.83262 8.80593 7.3744 9.22119 6.94483C9.62213 6.52957 10.0231 6.12863 10.4383 5.72769C11.5409 4.68239 13.1876 4.51056 14.4477 5.2838C15.7221 6.07136 16.3235 7.66079 15.808 9.12134C15.3355 10.4387 15.6791 11.4983 16.6815 12.4004C17.1683 12.8443 17.7554 12.9589 18.3139 12.6295C19.9319 11.6702 21.6359 10.9828 23.4545 10.5103C24.0988 10.3385 24.4138 9.86594 24.4425 9.20726C24.4998 7.87557 23.9986 6.90187 22.7671 6.30046C21.3639 5.62746 20.6622 4.15258 20.9772 2.69203C21.3066 1.18851 22.6096 0.100254 24.1704 0.0859347C26.3899 0.0716155 28.6094 0.0716155 30.8288 0.0859347C32.3896 0.100254 33.6927 1.18851 34.0363 2.69203C34.3657 4.15258 33.664 5.62746 32.2608 6.30046C31.0007 6.90187 30.4995 7.90421 30.5711 9.25022C30.5997 9.89458 30.9148 10.3671 31.5305 10.5246C33.3633 11.0115 35.0816 11.7131 36.6997 12.6868C37.1866 12.9875 37.702 12.9159 38.1603 12.5866C39.2342 11.799 39.6208 10.5819 39.2056 9.30749C38.733 7.86125 39.1053 6.45797 40.2222 5.5845C41.4394 4.6108 43.2436 4.58216 44.3748 5.6561C46.1217 7.30281 47.8114 9.00679 49.4581 10.7394C50.4748 11.799 50.5034 13.4601 49.7015 14.6629C48.871 15.8943 47.3532 16.4384 45.9213 15.923C44.6182 15.4647 43.5729 15.7941 42.6708 16.7678C42.184 17.2976 42.0837 17.8704 42.4417 18.4861C43.3724 20.0469 44.0454 21.7079 44.4893 23.4692C44.6755 24.2281 45.148 24.5431 45.9499 24.5574C47.2386 24.5861 48.1694 24.0563 48.7421 22.8678C49.4151 21.4645 50.89 20.7628 52.3506 21.0922C53.8398 21.4215 54.928 22.7103 54.9567 24.2424C54.9853 26.4905 54.9853 28.753 54.9567 31.0011C54.9423 32.5189 53.8398 33.8076 52.3506 34.137C50.89 34.4663 49.4438 33.7503 48.7421 32.3614C48.0978 31.087 47.0954 30.5285 45.6778 30.686C45.0907 30.7433 44.6612 31.0727 44.518 31.6454C44.0454 33.4783 43.3295 35.1966 42.3558 36.8147C42.0694 37.2872 42.1267 37.774 42.4417 38.2323C43.1863 39.3062 44.4607 39.7358 45.7065 39.3205C47.3245 38.7907 48.871 39.2919 49.7015 40.6379C50.532 41.9696 50.3029 43.6163 49.1144 44.8048C47.6396 46.294 46.1647 47.7688 44.6755 49.2437C43.4584 50.4465 41.8546 50.6899 40.5229 49.8738C39.1483 49.0289 38.6471 47.4968 39.1912 45.8501C39.6065 44.6043 39.1483 43.2869 38.0314 42.5567C37.5732 42.2559 37.072 42.2416 36.6138 42.5137C35.0244 43.4731 33.3204 44.1461 31.5305 44.6186C30.8575 44.7904 30.5425 45.263 30.4995 45.9503C30.4422 47.2247 30.9148 48.2127 32.1032 48.7998C33.4492 49.4585 34.1652 50.7043 34.0363 52.0932C33.8931 53.4679 32.9194 54.5704 31.5018 54.9571C31.4159 54.9857 31.3443 55.0287 31.2584 55.0573C28.7096 55 26.1751 55 23.6263 55Z" fill="#3F3F3F"/>
<path d="M0.00129462 23.641C0.25904 23.1111 0.43087 22.5241 0.774531 22.0802C2.26373 20.2187 5.12756 20.5051 6.18718 22.6529C6.81723 23.9273 7.79093 24.4571 9.16557 24.3999C9.82425 24.3712 10.2968 24.0419 10.4686 23.3975C10.9412 21.579 11.6571 19.875 12.6165 18.2713C12.9315 17.7415 12.8456 17.1973 12.459 16.7248C11.5998 15.6652 10.4973 15.3501 9.19421 15.7797C7.66206 16.2809 6.11559 15.7654 5.29939 14.4624C4.4832 13.1736 4.66935 11.5269 5.77193 10.3671C6.01535 10.1093 6.2731 9.85158 6.53084 9.60815C6.90314 9.29313 7.3184 9.29313 7.63342 9.60815C7.93412 9.90886 7.96276 10.3671 7.66206 10.7251C7.44727 10.9828 7.18953 11.2119 6.9461 11.4553C6.34469 12.0711 6.23014 12.9016 6.63108 13.5602C7.04633 14.2332 7.81957 14.5196 8.63576 14.2476C10.5689 13.5889 12.1726 14.0901 13.5472 15.5506C14.4637 16.5243 14.6928 17.8703 14.0198 19.0159C13.1177 20.5623 12.4447 22.1661 11.9865 23.8987C11.5569 25.4595 10.082 26.2327 8.22051 25.975C6.67404 25.7602 5.5285 24.9726 4.82686 23.555C4.39728 22.7102 3.70996 22.3236 2.93673 22.4811C2.12053 22.6529 1.59072 23.3689 1.59072 24.314C1.59072 26.3902 1.59072 28.4665 1.59072 30.5428C1.59072 31.5022 2.0919 32.2038 2.89377 32.4043C3.66701 32.5904 4.38297 32.2038 4.82686 31.3304C5.75761 29.4975 7.76229 28.5381 9.72402 28.9677C10.8982 29.2254 11.6714 29.9557 11.9721 31.1012C12.4017 32.7623 13.0318 34.3087 13.8909 35.7979C14.6069 37.0437 14.4064 38.404 13.4041 39.4493C12.0294 40.8813 10.4257 41.3251 8.52121 40.6951C7.71934 40.423 6.96042 40.7094 6.54516 41.3538C6.12991 42.0125 6.21582 42.843 6.78859 43.4301C8.32074 44.9765 9.86721 46.523 11.4137 48.0552C12.0151 48.6566 12.8742 48.7568 13.5329 48.3559C14.2202 47.9263 14.4637 47.1674 14.1773 46.2939C13.5472 44.3322 14.1343 42.4134 15.8097 41.1963C17.1986 40.1796 18.6306 40.5662 19.7618 41.4683C20.0768 41.7118 20.1197 42.0984 19.905 42.442C19.6759 42.8 19.3465 42.9432 18.9313 42.7714C18.6878 42.6712 18.4587 42.5136 18.2296 42.3848C17.6568 42.0984 17.1127 42.17 16.6402 42.5996C15.6522 43.5017 15.2799 44.5613 15.7524 45.8786C16.2679 47.3106 15.7238 48.8427 14.4923 49.6589C13.2609 50.4751 11.5569 50.4035 10.4686 49.3582C8.79327 47.7545 7.14657 46.1077 5.5285 44.4324C4.4832 43.3441 4.39728 41.7118 5.21348 40.466C6.02967 39.2059 7.57614 38.6618 9.02238 39.1629C10.3397 39.6212 11.3994 39.2632 12.3015 38.2608C12.7454 37.774 12.8456 37.1869 12.5019 36.6285C11.5569 35.039 10.8696 33.335 10.4113 31.5451C10.2395 30.8721 9.76698 30.5428 9.07966 30.5142C7.80525 30.4712 6.81723 30.9151 6.23014 32.1179C5.58578 33.4496 4.36865 34.1656 2.994 34.051C1.63368 33.9508 0.502466 32.9771 0.0872097 31.5595C0.0585714 31.4592 0.0156138 31.359 -0.0273438 31.2588C0.00129462 28.7243 0.00129462 26.1754 0.00129462 23.641Z" fill="#3F3F3F"/>
<path d="M17.9415 21.2497C17.9415 19.0875 19.2732 17.1257 21.2779 16.3096C23.3112 15.479 25.6166 15.9516 27.1631 17.541C27.6786 18.0708 27.7502 18.5577 27.3492 18.93C26.9769 19.2736 26.533 19.1877 26.0176 18.6722C24.872 17.5124 23.211 17.1973 21.7648 17.856C20.3472 18.5004 19.4737 19.9609 19.5596 21.5361C19.6455 23.0539 20.7051 24.3999 22.18 24.8581C24.2277 25.5025 26.4328 24.271 26.9483 22.1947C26.9769 22.0945 26.9913 21.9799 27.0199 21.8797C27.1631 21.3499 27.5354 21.0778 27.9936 21.1781C28.4375 21.2783 28.6809 21.6649 28.5807 22.2234C28.3659 23.4691 27.7788 24.5288 26.8051 25.3163C25.0868 26.7339 23.1537 27.0633 21.0918 26.1468C19.13 25.2877 17.9272 23.3689 17.9415 21.2497Z" fill="#3F3F3F"/>
<path d="M29.1953 29.4832C29.224 26.8342 31.5007 24.7436 34.1354 24.944C36.7415 25.1445 38.7176 27.6217 38.288 30.1419C37.8298 32.8625 35.281 34.5808 32.6749 33.9222C32.0305 33.7646 31.7298 33.378 31.8587 32.8769C31.9876 32.3757 32.3599 32.1895 33.0042 32.3327C33.0329 32.347 33.0758 32.347 33.1045 32.347C34.3932 32.6191 35.6676 32.075 36.312 30.9438C36.9706 29.8125 36.8131 28.4093 35.9253 27.4642C35.0232 26.5048 33.6629 26.2471 32.4887 26.8198C31.3289 27.3783 30.6702 28.6241 30.8563 29.9271C30.9423 30.5715 30.7275 30.9581 30.2406 31.044C29.7251 31.1299 29.3958 30.8435 29.2812 30.2135C29.2383 29.9701 29.224 29.7266 29.1953 29.4832Z" fill="#3F3F3F"/>
<path d="M23.7987 32.0177C25.7174 32.0177 27.2782 33.5928 27.2782 35.4973C27.2782 37.4304 25.6888 39.0055 23.7557 38.9912C21.8513 38.9769 20.2905 37.4018 20.3048 35.483C20.3048 33.5785 21.8799 32.0034 23.7987 32.0177ZM25.6602 35.4973C25.6602 34.4663 24.801 33.6215 23.77 33.6215C22.739 33.6215 21.8942 34.4806 21.8942 35.5116C21.8942 36.5426 22.7534 37.3874 23.7843 37.3874C24.8296 37.3731 25.6745 36.514 25.6602 35.4973Z" fill="#3F3F3F"/>
</g>
<defs>
<clipPath id="clip0_739_17295">
<rect width="55" height="55" fill="white"/>
</clipPath>
</defs>
</svg>
