<svg width="58" height="48" viewBox="0 0 58 48" fill="none" xmlns="http://www.w3.org/2000/svg">
<g clip-path="url(#clip0_739_17588)">
<path d="M58 14.746C57.5948 16.3523 56.4805 17.2206 54.99 17.8283C52.3129 18.8992 49.6791 20.0858 47.0309 21.2146C46.6547 21.3738 46.5389 21.5763 46.5389 21.9671C46.5534 23.8049 46.51 25.6282 46.5534 27.4661C46.6402 30.2445 45.3812 32.3283 43.2829 33.978C40.765 35.9606 37.8273 37.0314 34.7161 37.5958C29.1013 38.6088 23.5878 38.3049 18.2769 36.0763C16.2944 35.237 14.5 34.1083 13.1108 32.4152C12.0254 31.0983 11.4611 29.5933 11.4611 27.8857C11.4611 25.9032 11.4466 23.9207 11.4755 21.9381C11.4755 21.5474 11.3598 21.3738 11.0125 21.229C9.72455 20.6936 8.43663 20.1437 7.16317 19.5938C7.04741 19.5504 6.93164 19.507 6.72904 19.4491C6.72904 19.6951 6.72904 19.8688 6.72904 20.0569C6.72904 23.7904 6.72904 27.5384 6.71457 31.272C6.71457 31.6916 6.8014 31.9376 7.20659 32.1547C8.68264 32.9651 8.97206 34.6437 7.91567 36.3079C8.95759 37.3498 8.76946 38.7535 8.91417 40.0704C9.11677 41.7635 9.23254 43.4566 9.37725 45.1497C9.50749 46.6113 8.78393 47.3927 7.30788 47.4072C6.26597 47.4072 5.22405 47.4217 4.19661 47.4072C2.93762 47.3927 2.1996 46.5245 2.31537 45.2655C2.53244 42.979 2.70609 40.6781 2.96657 38.3917C3.03892 37.7839 3.38623 37.2051 3.57435 36.6118C3.63224 36.4381 3.67565 36.1776 3.58882 36.0329C2.70609 34.5135 3.14022 32.9361 4.65968 32.0679C4.80439 31.981 4.96357 31.735 4.96357 31.5614C4.97804 27.3937 4.97804 23.2116 4.96357 19.0439C4.96357 18.8703 4.77545 18.6098 4.6018 18.5374C3.89271 18.1901 3.15469 17.9007 2.41667 17.5968C0.897206 16.9167 0 15.7879 0 14.1237C0 12.4596 0.868263 11.3308 2.38772 10.6796C10.1297 7.35129 17.8718 4.02295 25.6282 0.709077C27.9002 -0.260484 30.1722 -0.231541 32.4441 0.73802C40.1138 4.03742 47.7979 7.33682 55.482 10.6073C56.8278 11.1717 57.6527 12.1123 58.0145 13.5015C58 13.9067 58 14.3263 58 14.746ZM8.68264 18.2046C8.66816 18.248 8.65369 18.2769 8.65369 18.3204C8.84182 18.4072 9.01547 18.494 9.20359 18.5808C14.8184 20.983 20.4331 23.3852 26.0479 25.8019C28.0304 26.6557 29.9696 26.6557 31.9666 25.8019C36.3368 23.9062 40.736 22.0394 45.1208 20.1582C48.3623 18.769 51.6038 17.3797 54.8453 15.9905C55.511 15.7011 56.0609 15.3104 56.2201 14.5434C56.4371 13.487 55.9885 12.7345 54.8019 12.228C47.1467 8.94311 39.4915 5.67265 31.8363 2.37325C29.8972 1.53393 28.016 1.57734 26.0768 2.41666C18.494 5.68712 10.8967 8.92864 3.31387 12.1846C3.06786 12.2859 2.83633 12.4017 2.60479 12.5464C1.43263 13.2844 1.41816 15.0354 2.63373 15.7011C3.51647 16.1931 4.48603 16.5549 5.41218 16.9456C5.52794 17.0035 5.7016 16.9601 5.84631 16.9311C9.23254 16.3523 12.6043 15.7735 15.9905 15.1801C18.6821 14.7171 21.3738 14.2395 24.0654 13.762C24.2246 13.733 24.4706 13.6462 24.5284 13.5304C25.0205 12.4017 25.9756 11.9097 27.0754 11.6637C29.0145 11.2151 30.9102 11.244 32.6033 12.4451C33.8912 13.3568 33.8623 14.8618 32.6033 15.8169C31.5614 16.5983 30.3458 16.8298 29.0724 16.8298C27.7121 16.8298 26.3807 16.6417 25.2954 15.7445C24.977 15.484 24.7021 15.4261 24.3258 15.4985C20.7226 16.1352 17.1193 16.7575 13.516 17.3797C11.9097 17.6402 10.2889 17.9152 8.68264 18.2046ZM13.1397 22.1552C13.2121 23.3273 13.1397 24.4127 13.3568 25.4256C13.7764 27.4082 15.238 28.6527 16.8733 29.6657C20.1582 31.6916 23.8049 32.4875 27.5963 32.6322C29.2171 32.6901 30.8378 32.5165 32.4586 32.502C32.7769 32.502 33.1677 32.6612 33.3847 32.8782C33.5294 33.0374 33.5729 33.5294 33.4281 33.6886C33.2256 33.9491 32.8348 34.1662 32.5165 34.2096C29.8827 34.5135 27.2345 34.499 24.6153 34.1083C21.6776 33.6742 18.8558 32.8927 16.3089 31.3298C15.2814 30.6931 14.3408 29.9117 13.3713 29.1881C13.5015 29.8972 13.8633 30.5484 14.3408 31.1417C15.9037 33.1098 18.0309 34.2385 20.3463 35.0055C26.1203 36.9012 31.9232 36.9012 37.6971 35.0055C39.7809 34.3253 41.6911 33.3124 43.2251 31.7061C43.9197 30.9825 44.4696 30.1577 44.6866 29.0289C44.513 29.1592 44.4262 29.2171 44.3538 29.2894C43.3119 30.3748 42.0674 31.1996 40.736 31.8797C40.0993 32.1981 39.6073 32.1113 39.3613 31.6337C39.1153 31.1562 39.3323 30.6931 39.9257 30.3458C40.5334 29.9985 41.1557 29.6657 41.7201 29.2605C44.8169 26.9885 45.005 25.2375 44.73 22.2275C44.513 22.3144 44.3104 22.3867 44.0933 22.4736C40.2585 24.1088 36.4237 25.744 32.6178 27.4082C30.2156 28.4501 27.8278 28.4646 25.4401 27.4227C23.747 26.6846 22.0394 25.9611 20.3463 25.2375C17.9875 24.2246 15.6577 23.226 13.1397 22.1552ZM7.66966 45.6272C7.43812 43.1238 7.23553 40.6926 6.98952 38.2615C6.93164 37.7116 6.5988 37.3353 6.01996 37.234C5.28194 37.1038 4.73204 37.6392 4.64521 38.5798C4.5005 40.2295 4.34132 41.8792 4.19661 43.5289C4.13872 44.2091 4.09531 44.9037 4.03743 45.6272C5.26747 45.6272 6.42515 45.6272 7.66966 45.6272ZM26.1781 14.0948C26.8872 15.3683 30.9391 15.4406 31.8074 14.1093C31.0838 12.8358 27.003 12.7924 26.1781 14.0948ZM6.8014 34.4701C6.8014 33.9202 6.36727 33.515 5.83184 33.515C5.29641 33.515 4.86228 33.9636 4.86228 34.4845C4.86228 34.991 5.33982 35.4541 5.84631 35.4541C6.38174 35.4541 6.8014 35.0055 6.8014 34.4701Z" fill="#3F3F3F"/>
<path d="M38.1745 32.4296C38.1745 32.777 37.914 33.0664 37.5088 33.1821C36.9299 33.3558 36.3511 33.515 35.7723 33.6597C35.2224 33.7899 34.7738 33.5294 34.658 33.0664C34.5422 32.5744 34.7738 32.1547 35.3237 31.9955C35.9025 31.8219 36.4813 31.6482 37.0602 31.5324C37.6969 31.3877 38.16 31.7495 38.1745 32.4296Z" fill="#3F3F3F"/>
</g>
<defs>
<clipPath id="clip0_739_17588">
<rect width="58" height="47.3927" fill="white"/>
</clipPath>
</defs>
</svg>
