<svg width="55" height="44" viewBox="0 0 55 44" fill="none" xmlns="http://www.w3.org/2000/svg">
<g clip-path="url(#clip0_739_17514)">
<path d="M51.4643 10.2219C46.2262 10.2219 41.4246 10.2219 36.1865 10.2219C35.9828 10.2219 35.7645 10.2219 35.5317 10.2219C35.5317 8.06163 35.5317 5.98778 35.5317 3.91393C35.5317 3.51068 35.5026 3.07863 35.4008 2.68978C34.9934 1.2352 33.7712 0.399902 32.0979 0.399902C27.5582 0.399902 23.004 0.399902 18.4643 0.399902C13.3135 0.399902 8.61376 0.399902 3.46296 0.399902C2.34259 0.399902 1.38228 0.702339 0.712963 1.58085C0.407407 1.98409 0.232804 2.50256 0 2.96341C0 10.1643 0 17.3652 0 24.566C0.247354 25.3437 0.611111 26.0638 1.32407 26.5535C1.92063 26.9711 2.6045 27.144 3.33201 27.144C4.36508 27.144 4.94709 27.144 6.02381 27.144C6.02381 27.4176 6.02381 27.6048 6.02381 27.8064C6.02381 29.3042 6.00926 30.7876 6.02381 32.2854C6.03836 33.1351 6.67857 33.4951 7.43518 33.1063C7.56614 33.0343 7.68254 32.9623 7.81349 32.8903C10.9418 31.1044 14.0847 29.333 17.1984 27.504C17.9405 27.0719 18.668 27.144 19.4828 27.1584C19.4828 27.4032 19.4828 27.6048 19.4828 27.792C19.4828 29.6787 19.4683 31.5653 19.4828 33.4663C19.4828 33.8696 19.5119 34.3016 19.6283 34.6905C20.0357 36.1162 21.2434 36.9515 22.8876 36.9515C27.4272 36.9515 31.9815 36.9515 36.5212 36.966C36.914 36.966 37.3505 37.0956 37.6852 37.2828C40.959 39.1262 44.2037 40.9984 47.463 42.8563C48.3214 43.3459 48.9762 42.9859 48.9907 41.9922C48.9907 40.5232 48.9907 39.0398 48.9907 37.5708C48.9907 37.3836 48.9907 37.182 48.9907 36.9515C50.0093 36.9515 50.504 36.9515 51.4497 36.9515C53.7341 36.9515 55 35.6986 55 33.4375C55 26.8703 55 20.3031 55 13.7215C55 11.4748 53.7341 10.2219 51.4643 10.2219ZM18.0423 25.4301C17.6495 25.4301 17.213 25.5454 16.8638 25.747C13.9974 27.3456 11.1601 28.9874 8.3082 30.6148C8.14815 30.7012 7.9881 30.7732 7.74074 30.9172C7.74074 29.405 7.74074 27.9793 7.74074 26.5679C7.74074 25.7038 7.46429 25.4445 6.60582 25.4301C5.4127 25.4301 4.64153 25.4301 3.44841 25.4301C2.28439 25.4301 1.74603 24.8973 1.74603 23.7451C1.74603 17.1203 1.74603 10.4955 1.74603 3.87072C1.74603 2.64658 2.25529 2.14251 3.50661 2.14251C10.0106 2.14251 16.0926 2.14251 22.5966 2.14251C25.7249 2.14251 28.8532 2.14251 31.9815 2.14251C33.291 2.14251 33.7857 2.63217 33.7857 3.94273C33.7857 10.4955 33.7857 17.0483 33.7857 23.6011C33.7857 24.9405 33.3056 25.4301 31.9524 25.4301C27.3108 25.4157 22.6693 25.4013 18.0423 25.4301ZM53.254 33.4663C53.254 34.7193 52.7447 35.2233 51.4643 35.2233C50.2712 35.2233 49.5 35.2233 48.3069 35.2233C47.5503 35.2233 47.2593 35.5258 47.2593 36.2747C47.2593 37.7148 47.2593 39.155 47.2593 40.696C47.041 40.5808 46.8664 40.5088 46.7063 40.4224C43.8545 38.795 41.0172 37.1676 38.1508 35.5546C37.8016 35.3674 37.3651 35.2377 36.9722 35.2377C32.3598 35.2233 27.7328 35.2233 23.1204 35.2233C21.6944 35.2233 21.2143 34.7625 21.2143 33.3511C21.2143 31.4933 21.2143 29.6499 21.2143 27.792C21.2143 27.5904 21.2143 27.4032 21.2143 27.1296C21.4762 27.1296 21.6799 27.1296 21.8981 27.1296C25.2447 27.1296 28.5913 27.1296 31.9378 27.1296C33.9458 27.1296 35.0225 26.3231 35.5463 24.35C35.7355 24.35 35.9537 24.35 36.1574 24.35C39.955 24.35 43.7526 24.35 47.5648 24.35C47.7394 24.35 47.9286 24.3644 48.1032 24.3356C48.5106 24.278 48.7579 24.0332 48.8161 23.6299C48.8743 23.2123 48.7143 22.8666 48.3069 22.7226C48.0741 22.6362 47.8122 22.6218 47.5648 22.6218C43.7817 22.6218 39.9987 22.6218 36.2156 22.6218C36.0119 22.6218 35.8228 22.6218 35.5899 22.6218C35.5899 21.1816 35.5899 19.7991 35.5899 18.3445C35.8228 18.3445 36.041 18.3445 36.2593 18.3445C39.9987 18.3445 43.7526 18.3445 47.4921 18.3445C47.7249 18.3445 47.9722 18.3445 48.1905 18.2869C48.6415 18.1861 48.8598 17.8548 48.8307 17.4084C48.8016 16.9907 48.5688 16.7027 48.1323 16.6307C47.9431 16.6019 47.7394 16.6019 47.5357 16.6019C43.7672 16.6019 40.0132 16.6019 36.2447 16.6019C36.0265 16.6019 35.8228 16.6019 35.5899 16.6019C35.5899 15.0177 35.5899 13.4911 35.5899 11.9213C35.8082 11.9213 35.9828 11.9213 36.1574 11.9213C41.4101 11.9213 46.2262 11.9213 51.4934 11.9213C52.7738 11.9213 53.2831 12.4254 53.2831 13.6783C53.254 20.2887 53.254 26.8847 53.254 33.4663Z" fill="#3F3F3F"/>
<path d="M47.5063 28.6706C40.3766 28.6706 33.2616 28.6706 26.1319 28.6706C25.9282 28.6706 25.7245 28.6562 25.5354 28.6994C25.0698 28.8002 24.7933 29.1026 24.8224 29.5779C24.8515 30.0531 25.128 30.3268 25.6081 30.3844C25.7682 30.3988 25.9282 30.3988 26.1028 30.3988C29.6676 30.3988 33.2325 30.3988 36.7827 30.3988C40.3621 30.3988 43.9414 30.3988 47.5208 30.3988C48.4084 30.3988 48.8158 30.1107 48.8012 29.5203C48.8158 28.9442 48.4084 28.6706 47.5063 28.6706Z" fill="#3F3F3F"/>
<path d="M20.7767 6.89509C19.9473 6.1318 18.7833 5.75735 17.2846 5.75735C16.368 5.75735 15.5532 5.93018 14.8548 6.26142C14.1418 6.59266 13.5889 7.05351 13.196 7.65839C12.8032 8.26326 12.5995 8.96895 12.614 9.77545L12.6431 9.84745H14.7965C14.7965 9.12737 15.0439 8.5801 15.5241 8.20565C16.0042 7.83121 16.6008 7.64399 17.2846 7.64399C18.0849 7.64399 18.696 7.86001 19.1325 8.29206C19.569 8.72412 19.7727 9.32899 19.7727 10.1355C19.7727 10.5387 19.7145 10.942 19.5836 11.3308C19.4526 11.7197 19.2489 12.1229 18.9434 12.5406C18.6378 12.9582 18.2159 13.4047 17.6775 13.8799C17.2846 14.2256 16.9791 14.528 16.7463 14.7873C16.5135 15.0465 16.3534 15.3057 16.237 15.5506C16.1206 15.8098 16.0479 16.1122 16.0188 16.4723C15.9751 16.8323 15.9606 17.2788 15.9606 17.826H18.2159C18.2159 17.3652 18.2304 16.9907 18.2741 16.7171C18.3032 16.4291 18.3905 16.1842 18.5069 15.9538C18.6233 15.7378 18.827 15.4785 19.0889 15.2193C19.7436 14.5568 20.282 13.9664 20.7185 13.4335C21.155 12.9006 21.4751 12.3678 21.6934 11.8349C21.9116 11.302 22.0135 10.7116 22.0135 10.0635C22.028 8.70972 21.6061 7.65839 20.7767 6.89509Z" fill="#3F3F3F"/>
<path d="M17.0694 22.161C17.8649 22.161 18.5099 21.5226 18.5099 20.7352C18.5099 19.9478 17.8649 19.3094 17.0694 19.3094C16.2738 19.3094 15.6289 19.9478 15.6289 20.7352C15.6289 21.5226 16.2738 22.161 17.0694 22.161Z" fill="#3F3F3F"/>
</g>
<defs>
<clipPath id="clip0_739_17514">
<rect width="55" height="42.6724" fill="white" transform="translate(0 0.399902)"/>
</clipPath>
</defs>
</svg>
