<svg width="52" height="52" viewBox="0 0 52 52" fill="none" xmlns="http://www.w3.org/2000/svg">
<g clip-path="url(#clip0_739_17630)">
<path d="M3.56159 17.0259V17.0401C3.5474 17.409 3.64672 17.7211 3.84535 17.9198C3.98724 18.0616 4.17168 18.1468 4.35613 18.1468C4.5122 18.1468 4.68246 18.09 4.83853 17.9907C5.30674 17.6644 5.74658 17.5083 6.15804 17.5083C6.5695 17.5083 6.98096 17.6644 7.4208 17.9765C7.52011 18.0475 7.69037 18.09 7.87482 18.09C8.05927 18.09 8.22953 18.0475 8.32884 17.9765C8.55586 17.8063 8.76868 17.338 8.68355 17.0827C8.35722 16.0611 8.59842 15.3233 9.49228 14.6139C9.79024 14.3727 9.90374 14.018 9.80442 13.6917C9.70511 13.3795 9.42134 13.1809 9.08082 13.1667C7.9032 13.1099 7.23635 12.6275 6.83908 11.5209C6.73976 11.2229 6.45599 11.0385 6.12966 11.0385C5.80333 11.0385 5.53376 11.2229 5.42025 11.5209C5.00879 12.6417 4.34194 13.1383 3.16432 13.1525C2.85218 13.1525 2.59679 13.3511 2.48328 13.6491C2.36977 13.9612 2.4549 14.2876 2.6961 14.5004C3.49065 15.1956 4.14331 15.976 3.56159 17.0259ZM5.19324 16.4442C5.07973 16.5009 4.98041 16.5577 4.86691 16.6003C4.8811 16.4867 4.89528 16.3591 4.90947 16.2455C4.95204 15.9192 4.9946 15.5929 4.89529 15.2949C4.81016 15.0112 4.58314 14.77 4.35613 14.5146C4.271 14.4153 4.18587 14.3301 4.10074 14.2308C4.21425 14.2024 4.32775 14.1741 4.45545 14.1599C4.78178 14.0889 5.10811 14.0322 5.3635 13.8477C5.6047 13.6775 5.76077 13.3795 5.93103 13.0816C6.00197 12.9681 6.07291 12.8404 6.14385 12.7127C6.42762 13.7342 7.08028 14.2308 8.11602 14.2308C7.30729 14.8409 7.08028 15.6213 7.4208 16.6144C7.2931 16.5577 7.15122 16.5009 7.03771 16.4442C6.71138 16.3023 6.39924 16.1604 6.0871 16.1604C5.78915 16.1462 5.49119 16.3023 5.19324 16.4442Z" fill="#3F3F3F"/>
<path d="M28.8889 47.0199C27.7113 46.9632 27.0444 46.4808 26.6755 45.4166C26.562 45.1045 26.3066 44.92 25.9945 44.92C25.6682 44.92 25.356 45.1187 25.1716 45.4308C25.0155 45.7004 24.8594 46.0125 24.7318 46.3389C24.6041 46.6368 24.448 46.8355 24.0649 46.8355H24.0365C23.6393 46.8355 23.3413 46.878 23.1143 46.9773C22.8731 47.0767 22.4474 47.2895 22.3623 47.5732C22.263 47.8712 22.5184 48.311 22.6319 48.4955C22.7312 48.6516 22.8731 48.7793 23.0008 48.8928C23.1143 48.9921 23.242 49.1056 23.3271 49.2191C23.469 49.4177 23.5683 49.6731 23.5541 49.8859C23.5399 50.1839 23.4832 50.4818 23.4264 50.7656C23.3981 50.8791 23.3839 50.9926 23.3697 51.1061C23.3697 51.6169 23.7244 52.0142 24.1926 52.0142C24.3629 52.0142 24.5331 51.9574 24.675 51.8581C25.1716 51.5318 25.5972 51.3757 26.0229 51.3757C26.4202 51.3757 26.8174 51.5176 27.2289 51.8297C27.3282 51.9007 27.4985 51.9574 27.6971 51.9574C27.8957 51.9574 28.0802 51.9149 28.1795 51.8439C28.4207 51.6737 28.591 51.1913 28.5058 50.9359C28.1937 49.9143 28.4349 49.1765 29.3287 48.4671C29.6125 48.2401 29.7402 47.8996 29.6267 47.5732C29.5416 47.2469 29.2578 47.0341 28.8889 47.0199ZM23.8805 48.084C25.0013 48.0131 25.6398 47.5591 25.8952 46.5943C26.2641 47.6016 26.9167 48.0698 27.9383 48.0698C27.1154 48.7367 26.8742 49.5029 27.2005 50.4535C26.7465 50.1555 26.335 49.9994 25.9094 49.9994C25.4837 49.9994 25.0865 50.1413 24.675 50.4535C24.9871 49.4887 24.7459 48.7225 23.8805 48.084Z" fill="#3F3F3F"/>
<path d="M22.5316 3.49029C23.5673 4.35577 23.8227 5.12194 23.3687 5.98742V6.00161V6.0158C23.3545 6.35632 23.4396 6.66846 23.6241 6.86709C23.766 7.02317 23.9646 7.1083 24.1774 7.1083C24.3619 7.1083 24.5605 7.05154 24.7308 6.92385C25.199 6.61171 25.6105 6.46982 26.0077 6.46982C26.3908 6.46982 26.7597 6.61171 27.1428 6.89547C27.2705 6.9806 27.4691 7.03735 27.6961 7.03735C27.8664 7.03735 28.0225 7.00898 28.1502 6.96641C28.5616 6.81034 28.6467 6.34213 28.5049 5.94486C28.1643 4.98006 28.4055 4.24226 29.271 3.63217C29.6257 3.37678 29.7392 2.97951 29.5548 2.63899C29.4129 2.3836 29.0582 2.11402 28.8028 2.11402H28.7744C27.7103 2.11402 27.0718 1.63162 26.6746 0.553314C26.5611 0.226984 26.2631 0.0141602 25.9226 0.0141602C25.5821 0.0141602 25.3125 0.212796 25.199 0.524938C24.8159 1.60325 24.1632 2.07146 22.9856 2.12821C22.6593 2.1424 22.3897 2.34104 22.2904 2.65318C22.1911 2.95113 22.2762 3.27746 22.5316 3.49029ZM27.1428 5.19288C27.157 5.33476 27.1712 5.46246 27.1854 5.60434C26.7739 5.27801 26.3482 5.10775 25.9226 5.10775C25.5111 5.10775 25.0855 5.26382 24.6598 5.57596C24.972 4.54022 24.7308 3.77405 23.9079 3.19233C25.0004 3.12139 25.6388 2.63899 25.9084 1.68838C26.2489 2.65318 26.8732 3.12139 27.8238 3.12139C27.8806 3.12139 27.9231 3.12139 27.9799 3.12139C27.8806 3.2349 27.7954 3.3484 27.6961 3.44772C27.4549 3.7173 27.2421 3.9585 27.157 4.24226C27.0718 4.51184 27.1002 4.83817 27.1428 5.19288Z" fill="#3F3F3F"/>
<path d="M51.8875 24.9713C51.6889 24.3045 51.0788 24.2903 50.5822 24.2903C49.9011 24.2903 49.5323 24.0065 49.2627 23.3113L49.2485 23.2545C49.0924 22.8289 48.908 22.3323 48.2979 22.3181H48.2695C47.6452 22.3181 47.4466 22.8289 47.2763 23.2687L47.2621 23.2971C46.9926 23.9923 46.6095 24.2761 45.9568 24.2903H45.9143C45.4319 24.2903 44.836 24.2903 44.6373 24.9571C44.4671 25.553 44.8785 25.8936 45.2332 26.1915L45.3184 26.2625C45.8717 26.7307 46.0136 27.1421 45.8008 27.6813C45.744 27.8516 45.7156 28.0218 45.7014 28.1779C45.7014 28.2488 45.6872 28.3056 45.6731 28.3765C45.6589 28.6887 45.7582 28.9724 45.9426 29.1711C46.0845 29.3129 46.269 29.3981 46.4392 29.3981C46.5669 29.3981 46.6946 29.3555 46.8223 29.2704C47.3189 28.9299 47.7871 28.7596 48.2553 28.7596C48.7235 28.7596 49.1917 28.9299 49.7025 29.2704C49.816 29.3413 49.9437 29.3839 50.0714 29.3839C50.2559 29.3839 50.4261 29.2988 50.5822 29.1569C50.7524 28.9866 50.8518 28.7454 50.8518 28.49C50.8518 28.1779 50.8092 27.9083 50.7383 27.6955C50.5396 27.0996 50.6815 26.6597 51.2207 26.2199L51.2774 26.1631C51.6605 25.9078 52.0719 25.5814 51.8875 24.9713ZM46.9358 27.8799C47.2479 26.8442 47.0068 26.0496 46.198 25.4821C47.2763 25.4537 47.9148 24.9855 48.2269 23.9923C48.5958 24.9997 49.2059 25.4679 50.1707 25.4679C50.1991 25.4679 50.2417 25.4679 50.27 25.4679C49.4329 26.1206 49.2059 26.9009 49.5748 27.8941C48.9222 27.6387 48.5816 27.5252 48.2411 27.5252C47.9006 27.511 47.5601 27.6387 46.9358 27.8799Z" fill="#3F3F3F"/>
<path d="M43.1207 15.3091C43.3619 15.5219 43.5038 15.7347 43.3903 16.0894C43.2768 16.4583 43.2484 16.8698 43.22 17.1961C43.1917 17.4657 43.291 17.7353 43.4612 17.9197C43.6031 18.0758 43.7876 18.1609 43.9862 18.1609C44.1281 18.1609 44.2558 18.1183 44.3693 18.0332C44.8659 17.6927 45.3341 17.5224 45.8023 17.5224C46.2705 17.5224 46.7387 17.6927 47.2495 18.0332C47.363 18.1042 47.4765 18.1467 47.6042 18.1467C48.0157 18.1467 48.3846 17.7353 48.3988 17.267C48.3988 17.111 48.3704 16.9549 48.3278 16.8414C48.0157 15.9759 48.2285 15.3091 49.0231 14.7557C49.1933 14.628 49.3068 14.4436 49.392 14.2875C49.4203 14.2308 49.4487 14.1882 49.4771 14.1598L49.4913 14.1456V14.1314C49.5055 13.4504 49.1507 13.1099 48.4413 13.0815C47.4482 13.0531 46.909 12.67 46.6962 11.8471C46.6678 11.7336 46.5969 11.6343 46.5401 11.535L46.5259 11.5066C46.3415 11.2228 46.0861 11.0668 45.7881 11.0668C45.5044 11.0668 45.2348 11.2228 45.0645 11.5066C44.9226 11.7194 44.8091 11.9464 44.724 12.1735C44.5112 12.7694 44.199 13.0248 43.7166 13.0248C43.6883 13.0248 43.6599 13.0248 43.6173 13.0248C43.5889 13.0248 43.5606 13.0248 43.5322 13.0248C43.3052 13.0248 43.0782 13.0815 42.8228 13.1383C42.4822 13.2234 42.241 13.4362 42.1559 13.7058C42.0708 13.9896 42.1417 14.2875 42.3687 14.5571C42.5816 14.8125 42.837 15.0537 43.1207 15.3091ZM46.9232 16.2171C46.9374 16.3448 46.9374 16.4725 46.9374 16.6002C46.5401 16.3022 46.1286 16.1604 45.7314 16.1604C45.3199 16.1604 44.8943 16.3164 44.4828 16.6428C44.7808 15.607 44.5396 14.8409 43.7166 14.2308C44.7524 14.2166 45.405 13.7484 45.7456 12.7977C46.0719 13.72 46.682 14.174 47.6184 14.174C47.6752 14.174 47.7461 14.174 47.8029 14.174C47.7035 14.2875 47.6042 14.401 47.5191 14.5145C47.2779 14.7841 47.0793 15.0253 46.9799 15.2949C46.8806 15.5503 46.8948 15.8766 46.9232 16.2171Z" fill="#3F3F3F"/>
<path d="M48.7387 35.953C47.5895 35.9104 46.9226 35.428 46.5253 34.3497C46.4118 34.0376 46.1281 33.8531 45.8017 33.8531C45.4612 33.8531 45.1916 34.0518 45.0781 34.3497C44.6809 35.4422 44.014 35.9246 42.8648 35.953C42.5242 35.9672 42.2405 36.18 42.1412 36.5064C42.0276 36.8469 42.1412 37.2016 42.4249 37.4002C43.2904 38.0671 43.5316 38.819 43.2053 39.9115C43.1343 40.1669 43.1769 40.4081 43.3188 40.5926C43.4748 40.7912 43.7161 40.9047 43.9856 40.9047C44.1275 40.9047 44.2552 40.8763 44.3829 40.8196C44.7802 40.6493 45.0781 40.4933 45.3335 40.323C45.4896 40.2237 45.6173 40.1811 45.7592 40.1811C45.901 40.1811 46.0429 40.2237 46.2132 40.3372C46.5111 40.5074 46.8233 40.6635 47.0787 40.777C47.178 40.8196 47.2631 40.8621 47.3483 40.9047H47.3624H47.3766C47.7455 40.9047 48.0577 40.777 48.2279 40.55C48.3556 40.3797 48.3982 40.1527 48.3272 39.9257C48.0151 38.8049 48.2563 38.0245 49.1643 37.3151C49.4339 37.1023 49.5474 36.7759 49.4339 36.4496C49.3488 36.1658 49.0792 35.953 48.7387 35.953ZM47.0219 39.4008C46.5821 39.1028 46.1564 38.9467 45.745 38.9467C45.3193 38.9467 44.9079 39.1028 44.4822 39.4149C44.7944 38.3934 44.539 37.6272 43.7161 37.0313C44.8227 36.9604 45.4612 36.478 45.745 35.5557C46.0713 36.5205 46.7098 36.9888 47.7739 37.0171C46.951 37.6556 46.6956 38.436 47.0219 39.4008Z" fill="#3F3F3F"/>
<path d="M9.06568 35.953C7.88806 35.8963 7.22121 35.4139 6.85231 34.3497C6.73881 34.0376 6.48342 33.8531 6.17128 33.8531C5.85913 33.8531 5.56118 34.0376 5.39092 34.3214C5.20647 34.6335 5.0504 34.9598 4.92271 35.272C4.79501 35.5699 4.63894 35.7686 4.25586 35.7686C3.85859 35.7686 3.44713 35.8679 3.14917 35.9388C2.80866 36.024 2.53908 36.2793 2.46814 36.5915C2.41138 36.8469 2.48232 37.1023 2.68096 37.2725C3.44713 37.9394 4.15654 38.7623 3.56063 39.8264V39.8406V39.8548C3.54645 40.2095 3.65995 40.5216 3.85859 40.7345C4.00047 40.8763 4.18492 40.9615 4.36936 40.9615C4.52544 40.9615 4.68151 40.9047 4.82339 40.8196C5.30579 40.4933 5.74563 40.3372 6.17128 40.3372C6.59692 40.3372 7.00838 40.4933 7.46241 40.8054C7.61848 40.9189 7.78874 40.9757 7.97319 40.9757C8.21439 40.9757 8.4414 40.8622 8.59747 40.6635C8.75354 40.4649 8.79611 40.1953 8.72516 39.9257C8.42721 38.8474 8.66841 38.0813 9.54808 37.4002C9.83185 37.1732 9.94536 36.8327 9.84604 36.5205C9.73253 36.18 9.43458 35.9672 9.06568 35.953ZM4.02885 37.0597C4.17073 37.0171 4.31261 36.9888 4.45449 36.9604C4.8092 36.8753 5.13553 36.8043 5.37673 36.6199C5.61793 36.4354 5.774 36.1375 5.93007 35.8537C5.98683 35.7544 6.04358 35.6551 6.10033 35.5557C6.15709 35.6551 6.22803 35.7686 6.28478 35.8679C6.45504 36.1658 6.6253 36.4638 6.88069 36.6482C7.12189 36.8185 7.41984 36.8894 7.78874 36.9462C7.93062 36.9746 8.0725 37.0029 8.21439 37.0313C7.3489 37.5847 7.09351 38.3366 7.37728 39.3866C6.96582 39.0744 6.55436 38.9325 6.12871 38.9325C5.70306 38.9325 5.2916 39.0886 4.85177 39.3866C5.14972 38.365 4.88014 37.5847 4.02885 37.0597Z" fill="#3F3F3F"/>
<path d="M40.11 4.59692C38.9466 4.58273 38.2797 4.11451 37.9676 3.06458C37.8966 2.82338 37.4568 2.56799 37.2014 2.56799C36.946 2.56799 36.5204 2.82338 36.4352 3.06458C36.1089 4.10033 35.4421 4.56854 34.2928 4.58273C33.9665 4.58273 33.6827 4.79555 33.5692 5.10769C33.4557 5.41984 33.5408 5.73198 33.782 5.9448C34.534 6.59746 35.2292 7.392 34.6475 8.47031V8.4845V8.49869C34.6333 8.86759 34.7327 9.17973 34.9313 9.37836C35.0732 9.52025 35.2434 9.60537 35.4421 9.60537C35.5981 9.60537 35.7684 9.54862 35.9245 9.4493C36.3927 9.12297 36.8325 8.9669 37.244 8.9669C37.6554 8.9669 38.0669 9.12297 38.5067 9.43512C38.6061 9.50606 38.7763 9.54862 38.9608 9.54862C39.1594 9.54862 39.3297 9.50606 39.429 9.43512C39.656 9.26486 39.8688 8.79664 39.7837 8.54125C39.4432 7.50551 39.6986 6.73934 40.5924 6.0725C40.791 5.91642 40.9187 5.44821 40.8336 5.19282C40.7485 4.89487 40.3654 4.59692 40.11 4.59692ZM36.2934 7.87441C36.194 7.93116 36.0947 7.97372 35.9954 8.01629C35.9954 7.90278 36.0096 7.77509 36.0096 7.66158C36.038 7.33525 36.0522 6.99473 35.9528 6.69678C35.8535 6.41301 35.6407 6.17181 35.3995 5.93061C35.3144 5.8313 35.2151 5.74617 35.1441 5.63266C35.3569 5.59009 35.5414 5.56172 35.6975 5.53334C36.492 5.40565 36.5062 5.39146 37.0028 4.46922C37.0595 4.35572 37.1305 4.24221 37.2014 4.10033C37.5136 5.13607 38.152 5.64685 39.1594 5.64685C39.1736 5.64685 39.1878 5.64685 39.202 5.64685C38.379 6.3137 38.152 7.09405 38.4784 8.04467C38.3365 7.98791 38.2088 7.93116 38.0811 7.86022C37.7548 7.70415 37.471 7.57645 37.1872 7.57645H37.173C36.8751 7.57645 36.5771 7.73252 36.2934 7.87441Z" fill="#3F3F3F"/>
<path d="M40.0557 44.4944C38.949 44.4802 38.2964 44.012 37.9559 42.962C37.8707 42.7067 37.4451 42.4655 37.1897 42.4655C36.9343 42.4655 36.5087 42.7208 36.4235 42.962C36.0972 43.9978 35.4445 44.466 34.2811 44.4802C33.9548 44.4802 33.671 44.693 33.5575 45.0052C33.444 45.3173 33.5291 45.6294 33.7703 45.8423C34.5223 46.4807 35.2175 47.2895 34.6358 48.3678V48.382V48.3962C34.6216 48.765 34.7209 49.0772 34.9196 49.2758C35.0615 49.4177 35.2459 49.5028 35.4445 49.5028C35.6148 49.5028 35.7992 49.4461 35.9837 49.3326C36.4519 49.0204 36.8776 48.8644 37.2748 48.8644C37.6721 48.8644 38.0694 49.0062 38.4666 49.3042C38.566 49.3751 38.7362 49.4177 38.9349 49.4177C39.1477 49.4177 39.3463 49.3751 39.474 49.29C39.701 49.1481 39.8713 48.6374 39.7861 48.382C39.4598 47.3746 39.701 46.6368 40.5665 45.9983C40.7793 45.8423 40.9354 45.3457 40.8503 45.0761C40.751 44.8065 40.3395 44.4944 40.0557 44.4944ZM35.1466 45.5869C36.1965 45.5727 36.8492 45.1045 37.1755 44.1113C37.5444 45.1045 38.1687 45.5727 39.1051 45.5727C39.1335 45.5727 39.1761 45.5727 39.2044 45.5727C38.3673 46.2679 38.1261 47.0341 38.4525 47.9705C38.0126 47.6584 37.587 47.5165 37.1755 47.5165C36.764 47.5165 36.3526 47.6584 35.9411 47.9705C36.2391 46.9773 35.9837 46.2253 35.1466 45.5869Z" fill="#3F3F3F"/>
<path d="M17.6646 44.4944C16.5012 44.466 15.8485 43.9978 15.4796 42.9337C15.3661 42.6074 15.0681 42.3945 14.7276 42.3945C14.4013 42.3945 14.1175 42.5932 14.004 42.9053C13.5926 44.012 12.9399 44.4944 11.7906 44.4944C11.5069 44.4944 11.2799 44.6505 11.1522 44.8917C11.0103 45.1896 11.0529 45.5727 11.2799 45.8423C11.4643 46.0835 11.6771 46.2963 11.9183 46.4808C12.3582 46.8355 12.4717 47.176 12.3156 47.6158C12.2447 47.8145 12.2163 48.0273 12.2021 48.2259C12.1879 48.311 12.1879 48.382 12.1737 48.4529C12.1595 48.7793 12.2589 49.0772 12.4433 49.2617C12.571 49.4035 12.7554 49.4745 12.9257 49.4745C13.0676 49.4745 13.1953 49.4319 13.323 49.3468C13.8054 49.0205 14.2594 48.8502 14.6992 48.8502C15.1391 48.8502 15.6073 49.0063 16.1039 49.3468C16.2316 49.4319 16.3735 49.4745 16.5295 49.4745C16.7707 49.4745 16.9977 49.361 17.1538 49.1623C17.2957 48.9779 17.3383 48.7509 17.2815 48.5239C16.9694 47.3746 17.2389 46.5659 18.1612 45.8281C18.4024 45.6295 18.5017 45.3173 18.3882 45.0052C18.2747 44.7214 17.9909 44.5086 17.6646 44.4944ZM13.4081 47.9563C13.7344 46.9773 13.4932 46.2254 12.6277 45.5727C13.7344 45.5301 14.3871 45.0619 14.6709 44.0971C15.0681 45.0619 15.6215 45.5018 16.4586 45.5018C16.5579 45.5018 16.6714 45.5018 16.7849 45.4876C15.8201 46.7078 15.8059 46.7645 15.962 48.0415C15.508 47.6868 15.0681 47.5165 14.6283 47.5165C14.231 47.5023 13.8196 47.6584 13.4081 47.9563Z" fill="#3F3F3F"/>
<path d="M4.91023 29.2278C5.09468 29.3413 5.27912 29.4122 5.46357 29.4122C5.70477 29.4122 5.9176 29.3129 6.05948 29.1285C6.21555 28.9298 6.25811 28.6603 6.18717 28.3623C5.90341 27.2414 6.14461 26.4895 7.02428 25.851C7.2371 25.6949 7.32223 25.2125 7.25129 24.9713C7.16616 24.7301 6.79727 24.4038 6.54188 24.4038H6.49931C5.40682 24.4038 4.78253 23.9356 4.44202 22.8856C4.35689 22.6302 3.93124 22.389 3.67585 22.389C3.42046 22.389 2.99481 22.6444 2.90968 22.8856C2.58335 23.9214 1.9165 24.3896 0.753066 24.4038C0.440924 24.4038 0.199723 24.5598 0.072029 24.8436C-0.0698537 25.1558 0.00108765 25.553 0.256476 25.8368C0.483489 26.1064 0.738878 26.3618 1.02264 26.5888C1.30641 26.83 1.37735 27.057 1.27803 27.3833C1.20709 27.6387 1.17871 27.9083 1.13615 28.1353C1.12196 28.2346 1.10777 28.3197 1.09358 28.4049C1.0794 28.7312 1.17871 29.015 1.34897 29.1994C1.49086 29.3413 1.66112 29.4122 1.84556 29.4122C2.01582 29.4122 2.18608 29.3555 2.35634 29.242C2.81036 28.944 3.22182 28.8021 3.6191 28.8021C4.04474 28.788 4.4562 28.9298 4.91023 29.2278ZM1.59017 25.4821C2.69686 25.4395 3.34952 24.9571 3.63328 24.0065C4.03056 25.0139 4.65484 25.4821 5.60545 25.4821C5.61964 25.4821 5.64802 25.4821 5.66221 25.4821C4.83929 26.1206 4.59809 26.8867 4.91023 27.8657C4.4562 27.5536 4.03056 27.4117 3.6191 27.4117C3.19345 27.4117 2.79618 27.5678 2.38472 27.8799C2.65429 26.83 2.39891 26.0638 1.59017 25.4821Z" fill="#3F3F3F"/>
<path d="M11.2789 5.97321C12.343 6.88126 12.5984 7.63323 12.1444 8.48453V8.49872V8.51291C12.1302 8.8818 12.2295 9.19394 12.414 9.39258C12.5559 9.53446 12.7403 9.61959 12.939 9.61959C13.1092 9.61959 13.2937 9.56284 13.4781 9.43514C13.9463 9.123 14.3578 8.98112 14.7692 8.98112C15.1665 8.98112 15.5638 9.123 15.9752 9.42096C16.0746 9.4919 16.259 9.53446 16.4576 9.53446C16.6705 9.53446 16.8691 9.47771 16.9826 9.39258C17.2096 9.22232 17.3515 8.71154 17.2664 8.42778C16.9259 7.42041 17.1529 6.68262 17.99 6.11509C18.3021 5.90226 18.5008 5.49081 18.2879 5.1361C18.146 4.88071 17.7772 4.59694 17.4934 4.59694C16.4435 4.58276 15.8334 4.14292 15.5212 3.16393C15.4361 2.90854 15.053 2.66734 14.7551 2.58221C14.6983 2.56802 14.6415 2.55383 14.5848 2.55383C14.2727 2.55383 14.0031 2.79503 13.9038 3.14974C13.6342 4.11454 13.0241 4.58276 12.0309 4.58276C11.9883 4.58276 11.9316 4.58276 11.889 4.58276H11.8748C11.8465 4.58276 11.8181 4.58276 11.7755 4.59694C11.4208 4.66789 11.137 4.92327 11.0519 5.2496C10.9668 5.50499 11.0519 5.77457 11.2789 5.97321ZM15.9469 8.05888C15.5212 7.74674 15.0956 7.59067 14.6841 7.59067C14.2585 7.59067 13.847 7.74674 13.4072 8.05888C13.7477 7.09408 13.4923 6.32791 12.6268 5.66106C13.7335 5.6185 14.3862 5.1361 14.6557 4.18548C15.0104 5.19285 15.6631 5.66106 16.713 5.66106C15.8759 6.29954 15.6347 7.07989 15.9469 8.05888Z" fill="#3F3F3F"/>
<path d="M34.8484 32.8033C34.8484 30.4906 34.8484 28.1069 34.8484 25.6808C34.8484 25.397 34.8484 25.1416 34.7917 24.9146C34.4795 23.6518 33.6424 22.9424 32.1952 22.7722L31.9966 22.7438V22.5593C31.9966 22.3323 31.9966 22.1053 31.9966 21.8641C31.9966 21.3959 32.0108 20.8993 31.9824 20.4311C31.8831 17.7069 29.6555 15.4226 26.9314 15.2382C26.8037 15.224 26.676 15.224 26.5483 15.224C23.8809 15.224 21.5682 17.1678 21.1568 19.7359C21.0574 20.3602 21.0432 20.9844 21.0291 21.6513V21.6655C21.0149 21.9634 21.0149 22.2756 21.0007 22.5877L20.9865 22.7722L20.802 22.8005C19.0285 23.0559 18.1914 24.0065 18.1914 25.7943V27.057C18.1914 28.9866 18.1914 30.9162 18.1914 32.8458C18.1914 34.591 19.2697 35.6693 21.0149 35.6693C22.8026 35.6693 24.6045 35.6693 26.3922 35.6693C28.2509 35.6693 30.1237 35.6693 31.9824 35.6693C33.7701 35.6551 34.8342 34.591 34.8484 32.8033ZM29.6981 34.2079H26.5057H23.3134C22.5756 34.2079 21.852 34.2079 21.1142 34.2079C20.1068 34.2079 19.6812 33.7823 19.667 32.7749C19.667 30.1359 19.667 27.809 19.667 25.6524C19.667 24.7301 20.121 24.2761 21.0291 24.2761C22.8593 24.2761 24.6896 24.2761 26.5199 24.2761C28.3502 24.2761 30.1805 24.2761 32.0108 24.2761C32.933 24.2761 33.387 24.7301 33.387 25.6382C33.387 27.9083 33.387 30.3345 33.387 32.8175C33.387 33.7681 32.9472 34.1937 31.954 34.1937C31.202 34.2079 30.4501 34.2079 29.6981 34.2079ZM24.1505 17.4657C24.8883 16.9266 25.6828 16.657 26.4915 16.657C27.0874 16.657 27.6975 16.8131 28.2934 17.0969C29.6697 17.7779 30.4359 18.9697 30.521 20.5446C30.5494 20.9986 30.5352 21.4385 30.5352 21.9067V21.9209C30.5352 22.1337 30.5352 22.3465 30.5352 22.5593V22.7722H22.5614L22.5472 22.5735C22.4337 20.729 22.306 18.7994 24.1505 17.4657Z" fill="#3F3F3F"/>
<path d="M29.3863 26.6172C29.2019 26.6172 29.0174 26.6881 28.8613 26.83C28.762 26.9151 28.6769 27.0003 28.5776 27.0996C28.535 27.1422 28.4925 27.1847 28.4499 27.2273L25.5271 30.1359L25.371 29.9656C25.2433 29.8237 25.1156 29.696 24.9879 29.5683C24.7326 29.2846 24.4772 29.0292 24.2218 28.7738C24.0373 28.6035 23.8387 28.5184 23.6401 28.5184C23.4556 28.5184 23.2854 28.5893 23.1435 28.7312C22.8313 29.0434 22.8455 29.4548 23.1718 29.7953C23.7819 30.4338 24.4062 31.0581 25.0021 31.6256C25.1866 31.7959 25.371 31.881 25.5555 31.881C25.7257 31.881 25.8818 31.8101 26.0237 31.6682C27.2864 30.4338 28.5776 29.1427 29.8687 27.8232C30.1383 27.5394 30.1383 27.1422 29.8545 26.8442C29.7552 26.6881 29.585 26.6172 29.3863 26.6172Z" fill="#3F3F3F"/>
</g>
<defs>
<clipPath id="clip0_739_17630">
<rect width="51.9291" height="52" fill="white"/>
</clipPath>
</defs>
</svg>
