<svg width="59" height="55" viewBox="0 0 59 55" fill="none" xmlns="http://www.w3.org/2000/svg">
<g clip-path="url(#clip0_739_17537)">
<path d="M52.5401 55C52.3044 55 52.0687 54.9527 51.8959 54.858C51.016 54.4319 50.0733 53.9742 49.1934 53.4376C48.722 53.1535 48.2664 52.8379 47.8264 52.5223C47.4494 52.254 47.1037 52.0015 46.7423 51.7805C46.1295 51.4017 45.4696 51.2281 44.7626 51.2913C43.6313 51.386 42.5629 51.165 41.5887 50.5969C41.3216 50.4391 41.1174 50.2181 40.9603 50.0445C40.8974 49.9814 40.8346 49.9182 40.7874 49.8551C40.756 49.8236 40.7246 49.792 40.6774 49.7604C40.6303 49.7289 40.5832 49.6657 40.5517 49.6342C39.7818 49.287 39.2005 49.1923 38.6191 49.3028C38.1006 49.3974 37.6293 49.3343 37.315 49.2554C36.7651 49.1292 36.3409 48.7188 36.1681 48.1507C35.9952 47.5825 36.1209 46.9512 36.5137 46.5251C36.7494 46.2568 37.0322 46.1148 37.3307 46.0675C36.7808 45.594 36.278 45.0574 35.8538 44.4261C35.571 44.0158 35.2096 43.8422 34.6911 43.8896C33.1042 44.0158 31.7529 43.5424 30.6374 42.4534C30.5431 42.4534 30.3703 42.485 30.1974 42.5323C29.7732 42.6428 29.3647 42.7848 28.9248 42.9269C28.5477 43.0531 28.1549 43.1951 27.7464 43.3056C27.055 43.495 26.1751 43.6528 25.5624 43.132C24.9339 42.5954 24.9653 41.7116 25.0439 40.9857C25.0596 40.8279 25.091 40.6385 25.091 40.5122C24.981 40.4649 24.8082 40.386 24.6668 40.3386C24.4939 40.2597 24.3054 40.1966 24.1326 40.1335C23.8183 40.0072 23.4884 39.8809 23.1741 39.7389C23.127 39.7231 23.0641 39.6916 23.017 39.6758C22.6242 39.518 21.98 39.2654 21.7286 38.5237C21.6815 38.4921 21.6343 38.4606 21.6029 38.429C21.2258 38.1449 20.8644 37.8766 20.4873 37.5926C19.7489 37.0402 18.9947 36.472 18.2562 35.9039C17.1092 35.0201 16.6065 33.8838 16.7793 32.5108C16.8578 31.9269 16.9521 31.5323 17.2192 31.1535C16.8421 30.8063 16.4965 30.4749 16.1194 30.1751C14.4382 28.802 13.6997 26.9713 13.8883 24.6198C13.9354 24.0517 13.8725 23.4046 13.7154 22.5682C13.684 22.4261 13.6369 22.363 13.6369 22.3472C13.6369 22.3472 13.5897 22.3314 13.4955 22.3472C12.9455 22.3946 12.3956 22.0789 12.0656 21.7633C11.6414 21.353 11.1858 20.9111 10.9187 20.3587C10.7301 19.9642 10.5259 19.759 9.99164 19.759C9.97593 20.0273 9.94451 20.2798 9.89737 20.5639C9.85024 20.8795 9.77168 21.1636 9.69311 21.4319C9.64598 21.637 9.58313 21.8264 9.55171 22C9.52028 22.1578 9.50457 22.3472 9.47314 22.5366C9.45743 22.6471 9.45743 22.7576 9.44172 22.868C9.34745 23.5467 9.17461 24.9355 7.71339 25.4405C7.69767 25.472 7.68196 25.5036 7.66625 25.5352C7.55626 25.7246 7.44628 25.9139 7.35201 26.1033C7.14775 26.4663 6.94349 26.8451 6.6921 27.2238C6.31501 27.7762 5.79651 28.0445 5.27801 27.9972C4.74379 27.9498 4.30385 27.5553 4.03675 26.9398C3.89534 26.5926 3.78535 26.2296 3.69108 25.8982C3.61252 25.6141 3.53396 25.33 3.42398 25.0933C3.23543 24.6356 3.12544 24.5409 3.10973 24.5251C1.08287 23.3099 0.910035 21.4161 0.910035 19.5696C0.910035 19.5223 0.894323 19.3802 0.784338 19.1435C0.721489 19.0015 0.627216 18.8436 0.548656 18.6858C0.407247 18.4333 0.234413 18.1335 0.124428 17.8178C-0.142678 17.0287 0.124428 16.5237 0.312974 16.3027C0.501519 16.0818 0.941459 15.7188 1.78991 15.8451C2.15129 15.9082 2.48125 15.9713 2.82691 16.0502C3.14116 16.1134 3.4554 16.1923 3.75393 16.2396C3.98961 16.2712 4.25672 16.2554 4.55525 16.2396H4.57096C4.58667 16.2396 4.60239 16.2396 4.6181 16.2396C4.72808 15.6873 5.35657 15.3085 5.71795 15.2454C6.18931 15.1664 6.6921 15.1507 7.22631 15.1822C7.55626 15.198 7.8548 15.2769 8.1219 15.3401C8.21617 15.3716 8.32616 15.3874 8.42043 15.4032C9.36316 15.5926 9.50457 15.4979 9.75596 14.5983C9.86595 14.188 9.99164 13.8723 10.1488 13.604C10.5101 12.957 11.0129 12.8307 11.2643 12.8149C11.5314 12.7992 12.0342 12.8623 12.4742 13.4778C12.6156 13.6672 12.7413 13.8566 12.8513 14.0459C13.0555 14.3458 13.2283 14.6299 13.4483 14.8824C13.5112 14.9613 13.574 15.0244 13.6526 15.1033C14.0454 14.7403 14.5796 14.551 15.4123 14.7877C15.7737 14.8982 16.1037 15.0402 16.4179 15.1822C16.6536 15.2927 16.8736 15.3874 17.0778 15.4505C17.0935 15.4505 17.0935 15.4505 17.1092 15.4663C16.7479 14.7719 16.7007 14.2669 16.9835 13.8092C16.5593 13.32 16.5122 12.6571 16.8893 12.1205C17.2821 11.5366 17.6592 11.0474 18.052 10.637C18.3819 10.2741 18.8062 10.1005 19.2304 10.1478C19.5603 10.1794 19.8589 10.3372 20.0945 10.6055C20.3617 10.4634 20.6288 10.3214 20.7387 10.2267C20.7073 10.0847 20.5973 9.83216 20.4088 9.45339L20.2674 9.15354C20.016 8.61695 19.7332 8.06458 19.5446 7.48065C19.1204 6.28123 19.4661 5.35009 20.5345 4.71881C21.053 4.41896 21.6029 4.18223 22.1214 3.96128C22.3728 3.85081 22.6085 3.75612 22.8285 3.64564C22.9227 3.5983 23.0327 3.56673 23.127 3.51939C23.237 3.47204 23.3941 3.4247 23.4412 3.37735C23.4412 3.36157 23.4412 3.34579 23.4569 3.29844C23.4727 2.57247 24.3054 2.25683 24.8082 2.14636C24.8396 2.13058 24.8867 2.13058 24.9182 2.13058C24.7925 1.53087 24.9339 0.962716 25.2795 0.552386C25.6252 0.157838 26.128 -0.031545 26.7094 0.0158007L26.9765 0.0473646C28.3434 0.17362 29.8989 0.315657 31.2187 1.48352C32.1929 2.35153 33.2299 3.17219 34.2512 3.97706C34.8482 4.45052 35.4767 4.93976 36.0895 5.44478C36.498 5.7762 36.8751 6.18653 37.2208 6.67577C37.425 6.94407 37.5193 6.92828 37.645 6.9125C39.0119 6.65999 40.2689 7.05454 41.4787 8.09615C41.8873 8.44335 42.4529 8.49069 43.1128 8.55382H43.1285C44.574 8.68008 45.9096 8.5696 47.2137 8.19084C47.5751 8.08037 47.6693 7.96989 47.7322 7.71738C48.0936 6.3917 49.6805 5.47635 51.0474 5.80777C51.3303 5.87089 51.5974 6.06028 51.833 6.36013C51.943 6.48639 52.0216 6.62843 52.0844 6.7389C52.1473 6.83359 52.1944 6.9125 52.2416 6.97563C53.1686 8.08037 53.5614 9.27979 53.42 10.5108C54.6141 10.4792 55.054 11.1263 55.2269 11.6629C55.4468 12.373 55.2426 13.0359 54.7241 13.462L54.6926 13.6198C55.384 13.9197 56.1696 14.1091 57.0652 14.1722C57.5208 14.2038 58.0393 14.2669 58.385 14.6614C58.6992 15.0244 58.715 15.4979 58.6835 15.9082C58.6364 16.4764 58.4164 16.9656 58.0236 17.2654C57.6622 17.5653 57.1752 17.6758 56.6567 17.5969C56.421 17.5653 56.201 17.5022 55.9968 17.4548C55.9025 17.8178 55.9653 17.9914 56.2167 18.2281C56.5624 18.5596 56.7352 18.9857 56.7038 19.4434C56.6724 19.9484 56.3896 20.4376 55.9182 20.769C55.8082 20.8479 55.6982 20.9111 55.5882 20.9584C55.5568 21.1478 55.4783 21.3056 55.4154 21.4161C55.0855 21.9685 54.4413 22.0947 54.2213 22.1421C54.127 22.1578 54.0485 22.1894 53.9542 22.2052C53.7028 22.2683 53.4357 22.3314 53.1371 22.3472C51.8959 22.4419 51.1574 21.9842 50.6546 20.8164C50.5918 20.6901 50.5604 20.5481 50.5132 20.4376C50.4504 20.264 50.3875 20.0904 50.3247 19.9957C50.2775 19.9326 50.2304 19.8695 50.1676 19.8063C49.9633 19.9799 49.7276 20.1062 49.4448 20.1535C48.8006 20.2482 48.2978 19.8695 47.9679 19.5538C47.8107 19.4118 47.6536 19.3329 47.4336 19.3171C47.3237 19.617 47.1351 19.9168 46.8052 20.0904C46.2238 20.4218 45.5796 20.1851 45.1554 19.9799C44.9826 19.901 44.8254 19.8221 44.684 19.7274C43.9613 20.8953 43.0342 21.1636 41.4473 20.7375C40.756 20.5639 40.0804 20.3271 39.4205 20.122C39.0905 20.0115 38.7606 19.901 38.4463 19.8063L38.3992 19.7906C37.9592 19.6485 37.9435 19.6643 37.8335 19.7748C37.3307 20.2798 36.4194 20.1851 35.9638 20.0588C35.3824 19.8852 34.8168 19.6643 34.2826 19.4434C34.2669 19.4434 34.2512 19.4276 34.2355 19.4276C33.9526 19.8379 33.497 20.264 32.7114 20.1851C32.2086 20.1378 31.6587 19.9957 30.9988 19.759C30.9516 19.7432 30.9045 19.7274 30.8731 19.7116C30.8731 19.7274 30.8731 19.7274 30.8574 19.7432C30.7317 20.1378 30.6217 20.5323 30.5117 20.9584C30.4331 21.2741 30.3546 21.5897 30.2603 21.9053C30.2132 22.0474 29.9932 22.726 29.3804 22.8838C28.8462 23.0101 27.8563 23.2626 26.9922 22.4261C26.3323 21.7791 25.6252 21.132 24.8867 20.5323C24.7453 20.406 24.6353 20.3429 24.5568 20.3114C24.5254 20.3745 24.4782 20.5007 24.4154 20.6901C24.1483 21.716 24.1483 22.8522 24.4311 24.2726C25.6252 24.6514 26.5522 25.5036 27.2278 26.8451C27.3378 27.066 27.4321 27.2712 27.5264 27.4921C27.6678 27.8078 27.8092 28.1234 27.9663 28.3917C28.2334 28.8336 28.5162 29.1966 28.8305 29.4807C29.3019 29.9226 29.8518 30.6012 29.3176 31.6112C29.6004 31.7533 29.8832 31.9269 30.1503 32.1478L30.5274 32.4792C32.4129 34.0732 34.3454 35.7303 35.9481 37.7504C36.3566 38.2712 36.8437 38.7289 37.3622 39.2181L37.5979 39.439C37.9278 39.7547 38.2892 39.9283 38.7134 39.9914C39.9232 40.1492 40.6146 40.891 40.5832 42.0273C40.5674 42.8637 40.9602 43.2267 41.9344 43.7791C42.7043 44.221 43.4742 44.7733 44.3855 45.5151C44.9197 45.957 45.2182 46.4936 45.2654 47.0775C46.1295 47.1091 46.868 47.6299 47.4494 48.6241C47.7636 49.1449 48.2821 49.4448 49.0206 49.7446C49.3505 49.8709 49.6805 49.9814 50.0419 50.1076C50.3875 50.2181 50.7646 50.3444 51.126 50.4864C52.5401 51.0545 53.42 51.9699 53.7185 53.2324C53.8285 53.6586 53.8128 54.3056 53.42 54.6844C53.2314 54.9053 52.8858 55 52.5401 55ZM48.9263 51.3702C49.2877 51.6227 49.6333 51.8594 49.9947 52.0804C50.6546 52.4749 51.3303 52.8221 52.1001 53.2167C51.8488 52.6643 51.3617 52.254 50.5761 51.9541C50.2618 51.8279 49.9319 51.7174 49.5862 51.6069C49.3662 51.528 49.1463 51.4491 48.9263 51.3702ZM45.0611 49.6973C45.5639 49.6973 46.0353 49.7762 46.5066 49.934C46.3809 49.7762 46.2552 49.6184 46.1453 49.429C45.6896 48.6557 45.3282 48.4979 44.6212 48.7977C44.3226 48.924 43.9613 48.8451 43.7413 48.6083C43.5213 48.3716 43.4742 48.0086 43.6156 47.7088C43.867 47.2195 43.757 46.9828 43.4428 46.7461C42.5943 46.0517 41.8873 45.5467 41.1959 45.1521C40.3789 44.6786 39.0119 43.9053 39.0591 41.9957C39.0591 41.759 39.0591 41.6327 38.5563 41.5696C37.8021 41.4749 37.1265 41.1435 36.5609 40.5911L36.3252 40.3702C35.791 39.8652 35.241 39.3286 34.7697 38.7289C33.277 36.835 31.3916 35.2411 29.569 33.6944L29.1919 33.363C28.9876 33.1894 28.7205 33.0474 28.3905 32.8896C28.2177 32.8106 28.0292 32.716 27.8563 32.6055C27.6678 32.495 27.5264 32.3056 27.4792 32.1005C27.4321 31.8795 27.4635 31.6586 27.5892 31.4692L27.6364 31.4061C27.6992 31.3114 27.7935 31.1693 27.9035 31.0115C27.9663 30.9326 27.9977 30.8695 28.0135 30.8379C27.982 30.8063 27.9349 30.7432 27.8249 30.6485C27.4164 30.2698 27.0236 29.7963 26.6779 29.2281C26.458 28.8652 26.3008 28.5022 26.1437 28.155C26.0494 27.9498 25.9709 27.7604 25.8766 27.5868C25.3895 26.6083 24.8082 26.056 23.9912 25.8035C23.5669 25.6772 23.0641 25.2511 22.9542 24.7145C22.6085 23.0101 22.5928 21.6055 22.9384 20.3114C23.017 19.9957 23.2684 19.0488 24.1011 18.7805C24.9182 18.5122 25.6723 19.1277 25.9237 19.3329C26.6779 19.9642 27.4321 20.627 28.1234 21.3056C28.2649 21.4477 28.4063 21.495 28.8148 21.4003C28.8933 21.132 28.9719 20.8479 29.0347 20.5639C29.1447 20.122 29.2547 19.6801 29.4118 19.2382C29.5847 18.7489 29.8361 18.4175 30.1974 18.2439C30.7002 18.0072 31.2187 18.1492 31.5644 18.2755C32.0986 18.4649 32.5228 18.5753 32.8842 18.6227H32.8999C32.9628 18.5596 33.057 18.386 33.1199 18.2755C33.167 18.1966 33.1985 18.1177 33.2456 18.0545C33.4341 17.7231 33.8427 17.5811 34.204 17.7073C34.4397 17.802 34.6754 17.8967 34.9111 17.9914C35.4453 18.2124 35.9481 18.4175 36.4509 18.5596C36.5923 18.6069 36.7651 18.6069 36.8594 18.5911C37.6293 17.8967 38.4306 18.1492 38.9177 18.2913L38.9491 18.3071C39.2791 18.4175 39.6247 18.5122 39.9547 18.6227C40.5989 18.8279 41.2431 19.0488 41.903 19.2224C43.0657 19.5223 43.2228 19.396 43.6627 18.4175C43.7884 18.1492 44.0241 18.0388 44.1027 17.9914L44.1184 17.9756C44.3541 17.8336 44.6526 17.8336 44.904 17.9756C45.014 18.0388 45.124 18.1019 45.2339 18.165C45.4539 18.3071 45.6739 18.4333 45.8939 18.5438C45.9567 18.5753 46.0196 18.6069 46.0667 18.6227C46.0824 18.5753 46.0824 18.5122 46.0981 18.4491C46.1452 18.0861 46.4281 17.802 46.7894 17.7547C47.4651 17.6758 48.3292 17.6916 49.0834 18.386C49.162 18.4491 49.2248 18.4964 49.2563 18.528C49.3034 18.4649 49.3662 18.3702 49.4605 18.2124C49.5862 17.9914 49.7905 17.8494 50.0419 17.8178C50.2933 17.7862 50.5289 17.8652 50.7018 18.0545C50.796 18.1492 50.8903 18.2281 50.9689 18.3228C51.2046 18.5438 51.4559 18.7805 51.6602 19.0804C51.8488 19.3644 51.9587 19.6485 52.0373 19.9168C52.0687 20.0273 52.1001 20.122 52.1473 20.2009C52.383 20.7375 52.493 20.8164 53.0586 20.769C53.2314 20.7533 53.42 20.7059 53.6242 20.6586C53.7185 20.627 53.8285 20.6112 53.9228 20.5954C53.9699 20.5797 54.017 20.5797 54.0485 20.5639C54.0013 20.2324 54.1741 19.901 54.4727 19.7432C54.567 19.6959 54.6612 19.6485 54.7398 19.617C54.8655 19.5538 54.9755 19.5065 55.0383 19.4591C55.1012 19.4118 55.1326 19.3802 55.1483 19.3487C53.9856 18.2281 54.4727 17.0129 54.7869 16.1923V16.1765C54.9283 15.7977 55.3368 15.6083 55.7139 15.703C55.8553 15.7504 55.9968 15.7819 56.1382 15.8293C56.4053 15.9082 56.6567 15.9871 56.8923 16.0187C56.9709 16.0345 57.0338 16.0187 57.0495 16.0029C57.0652 15.9871 57.1123 15.9082 57.128 15.7662C57.128 15.7504 57.128 15.7504 57.128 15.7346C57.0809 15.7346 57.0338 15.7188 56.9709 15.7188C55.6197 15.6241 54.4255 15.2927 53.4357 14.7246C53.1529 14.5667 52.9957 14.2353 53.0586 13.9197L53.2314 12.8307C53.2786 12.5624 53.4514 12.3415 53.6871 12.231C53.7185 12.2152 53.7342 12.2152 53.7342 12.1994C53.7342 12.1837 53.7342 12.1521 53.7185 12.089V12.0732C53.6871 12.0574 53.5928 12.0574 53.42 12.0574C53.2314 12.0574 53.0429 12.0732 52.87 12.089C52.7915 12.089 52.6972 12.1048 52.6186 12.1048C52.2416 12.1363 51.8959 11.8838 51.8016 11.505C51.8016 11.4735 51.7859 11.4577 51.7859 11.4577C51.7702 11.3946 51.7388 11.2841 51.7545 11.1421C51.7545 11.1105 51.7545 11.0947 51.7545 11.0631C51.7545 10.9527 51.7545 10.7949 51.8016 10.637C52.0373 9.69012 51.8016 8.8379 51.0631 7.95411C50.9375 7.81207 50.8432 7.65425 50.7646 7.528C50.7175 7.44909 50.6703 7.3544 50.6232 7.30705L50.6075 7.29127C50.0733 7.21236 49.3977 7.60691 49.272 8.09615C48.9734 9.1851 48.2192 9.51652 47.6693 9.67434C46.2081 10.1005 44.6369 10.2267 43.0185 10.0847H43.0028C42.1858 10.0058 41.2588 9.92685 40.4732 9.24823C39.6247 8.50648 38.8391 8.25397 37.9435 8.41179C37.3936 8.50648 36.608 8.44335 35.9638 7.54378C35.6967 7.16501 35.4139 6.84937 35.1153 6.61265C34.5183 6.12341 33.9055 5.63417 33.3084 5.16071C32.2714 4.34005 31.203 3.50361 30.1974 2.60404C29.2704 1.76759 28.1549 1.6729 26.8508 1.56243L26.5837 1.53087C26.5051 1.53087 26.4737 1.53087 26.4737 1.53087C26.4737 1.53087 26.4422 1.60978 26.4894 1.76759C26.5208 1.92541 26.5837 2.08323 26.6465 2.27262C26.6779 2.36731 26.7094 2.47778 26.7408 2.58825C26.8193 2.82498 26.7722 3.09328 26.6151 3.28266C26.4737 3.48782 26.238 3.5983 25.9866 3.5983C25.8609 3.5983 25.7352 3.5983 25.6252 3.58252C25.4524 3.56673 25.2953 3.56673 25.201 3.58252C25.1381 3.5983 25.0596 3.61408 24.9967 3.64564C24.8082 4.48209 24.0854 4.75038 23.724 4.89242C23.6455 4.92398 23.5826 4.95554 23.5041 4.98711C23.2527 5.09758 23.0013 5.20805 22.7499 5.31853C22.2471 5.53947 21.7757 5.72886 21.3358 5.98137C20.943 6.2181 20.8644 6.34435 21.0373 6.84937C21.2101 7.3544 21.4458 7.82785 21.6972 8.34866L21.8386 8.64851C22.2314 9.48496 22.4828 10.0689 22.2471 10.6844C22.0271 11.2525 21.5086 11.5208 20.7387 11.9469L20.6288 12.0101C19.9531 12.373 19.4032 12.1363 19.0733 11.7576C18.8062 12.0574 18.5548 12.3888 18.2876 12.7834C18.3505 12.8149 18.4133 12.8623 18.4762 12.9096C18.5233 12.9412 18.5862 12.9728 18.6333 13.0201C18.8533 13.1621 18.979 13.4147 18.979 13.6672C18.979 13.9355 18.8533 14.1722 18.6333 14.33C18.5233 14.3931 18.4605 14.4563 18.4133 14.4878C18.4291 14.5352 18.4605 14.5983 18.5233 14.693C18.5862 14.8192 18.649 14.9297 18.7119 15.056C18.7747 15.198 18.8533 15.3401 18.9161 15.4663C19.1361 15.8609 19.1361 16.287 18.9318 16.6184C18.7276 16.9498 18.3662 17.1234 17.9577 17.1234C17.502 17.1076 17.0464 17.0287 16.5907 16.8709C16.3079 16.7762 16.0408 16.65 15.7894 16.5395C15.5066 16.4132 15.2552 16.3027 14.9881 16.2238C14.8467 16.1765 14.7681 16.1765 14.7524 16.1765C14.721 16.1923 14.6424 16.287 14.501 16.5553C14.391 16.7762 14.1868 16.9182 13.9511 16.9656C13.7154 17.0129 13.464 16.934 13.2912 16.7762C13.1969 16.6815 13.1026 16.6026 12.9927 16.5237C12.7413 16.3185 12.4742 16.0976 12.2542 15.8135C12.0028 15.4979 11.7828 15.1664 11.5629 14.8508C11.5 14.7561 11.4529 14.6772 11.39 14.5983C11.3586 14.693 11.3115 14.8192 11.28 14.9455C10.8087 16.6657 9.86595 17.2497 8.1219 16.8867C8.01192 16.8551 7.88622 16.8393 7.77623 16.8078C7.54055 16.7604 7.3363 16.6973 7.13204 16.6973C6.80208 16.6815 6.47213 16.6815 6.15789 16.7131C6.11075 16.934 6.03219 17.1392 5.89078 17.297C5.54511 17.6916 5.07375 17.7231 4.77522 17.7389H4.66523C4.31957 17.7705 3.91105 17.7862 3.50254 17.7231C3.15687 17.66 2.8112 17.5969 2.48125 17.518C2.19843 17.4548 1.91561 17.3917 1.6485 17.3444C1.71135 17.5022 1.80563 17.66 1.8999 17.8178C2.00988 18.0072 2.11987 18.1966 2.21414 18.4017C2.38697 18.7805 2.48125 19.1435 2.48125 19.4749C2.48125 21.0373 2.59123 22.2999 3.89534 23.0732C4.39813 23.3731 4.66523 23.9412 4.85378 24.3989C4.97948 24.7303 5.07375 25.0459 5.16802 25.3616C5.24658 25.6456 5.32514 25.9139 5.41942 26.1507C5.60796 25.8666 5.76508 25.5667 5.93792 25.2511C6.0479 25.0459 6.15789 24.8408 6.28358 24.6356L6.31501 24.5725C6.4407 24.3515 6.64496 23.9885 7.06919 23.8781C7.52484 23.7676 7.7291 23.5467 7.8548 22.5682C7.87051 22.4735 7.87051 22.3788 7.88622 22.2841C7.90193 22.0632 7.93336 21.8264 7.98049 21.5739C8.02763 21.353 8.09048 21.132 8.15333 20.9111C8.21617 20.6586 8.29473 20.4218 8.32616 20.1851C8.3733 19.901 8.38901 19.617 8.42043 19.3013C8.43614 19.1593 8.43614 19.0172 8.45186 18.8752C8.48328 18.528 8.75039 18.2281 9.09605 18.165C10.1016 17.9756 11.5314 17.9283 12.317 19.5696C12.4742 19.8852 12.7884 20.2009 13.1184 20.5007C13.2126 20.5796 13.3226 20.6428 13.3698 20.6586C14.3282 20.5796 15.0352 21.1478 15.2395 22.1421C15.4438 23.1363 15.5066 23.9254 15.4438 24.6356C15.3023 26.4663 15.8208 27.8078 17.1092 28.8494C17.5335 29.1966 17.942 29.5753 18.3348 29.9541C18.5076 30.1119 18.6805 30.2855 18.869 30.4434C19.0418 30.6012 19.1361 30.8221 19.1204 31.0431C19.1204 31.2798 19.0104 31.485 18.8219 31.6428C18.3976 31.99 18.3819 32.0373 18.3191 32.6055C18.2248 33.4104 18.4919 34.0101 19.199 34.5467C19.9374 35.1148 20.6916 35.683 21.4144 36.2353C21.7915 36.5194 22.1528 36.7877 22.5299 37.0718C22.5456 37.0875 22.5771 37.1033 22.5928 37.1191C22.7656 37.2296 23.0956 37.4347 23.1741 37.8451C23.1898 37.924 23.1898 37.9398 23.5826 38.0976C23.6455 38.1292 23.7083 38.1449 23.7869 38.1765C24.0854 38.3028 24.384 38.429 24.6982 38.5395C24.8867 38.6184 25.0596 38.6815 25.2481 38.7604C26.5679 39.297 26.7565 39.6442 26.5994 41.0488C26.5522 41.4907 26.5679 41.7116 26.5994 41.7906C26.6936 41.7906 26.8979 41.7906 27.3221 41.6643C27.6835 41.5538 28.0449 41.4434 28.422 41.3171C28.8619 41.1751 29.3176 41.0172 29.7889 40.891C30.6531 40.6543 31.2659 40.7332 31.6272 41.1119C32.4443 41.9642 33.3713 42.3114 34.5497 42.2167C35.6338 42.122 36.5294 42.5481 37.1422 43.4319C37.9592 44.6313 39.0434 45.452 40.4417 45.9412C40.7403 46.0517 41.0074 46.2095 41.2116 46.3358C41.2902 46.3831 41.3531 46.4304 41.4316 46.462C41.7459 46.6356 41.903 46.9986 41.8087 47.3458C41.7144 47.693 41.4002 47.9297 41.0545 47.9297C40.9917 47.9297 40.9288 47.9297 40.866 47.9297C40.9917 47.9771 41.1017 48.0244 41.2116 48.0718C41.463 48.1822 41.6516 48.3716 41.793 48.4979C41.8244 48.5294 41.8401 48.5452 41.8716 48.5768C41.9658 48.6715 42.0601 48.7662 42.1387 48.8451C42.2329 48.9398 42.3272 49.0502 42.39 49.0818C43.0971 49.4764 43.8513 49.65 44.6526 49.571C44.7626 49.7131 44.904 49.6973 45.0611 49.6973Z" fill="#3F3F3F"/>
</g>
<defs>
<clipPath id="clip0_739_17537">
<rect width="58.7162" height="55" fill="white"/>
</clipPath>
</defs>
</svg>
