<svg width="49" height="50" viewBox="0 0 49 50" fill="none" xmlns="http://www.w3.org/2000/svg">
<g clip-path="url(#clip0_739_17533)">
<path d="M12.7802 38.0245C15.3443 38.0245 22.3574 38.0245 24.9215 38.0245C25.2264 38.0245 25.462 37.9411 25.6145 37.8022C25.7253 37.691 25.7808 37.5243 25.7808 37.3298C25.7669 36.788 25.3234 36.6769 24.9353 36.6769C24.7551 36.6769 20.1259 36.6769 19.9319 36.6769H18.8092V35.8433C18.8092 35.8433 18.8092 25.9656 18.8092 22.6591C18.8092 21.8533 18.6291 21.6727 17.8252 21.6727C16.6055 21.6727 15.372 21.6727 14.1523 21.6727H10.1884C9.32905 21.6727 9.14887 21.8533 9.14887 22.7147V36.6352H6.3353V34.2734C6.3353 29.2442 6.3353 22.3673 6.34916 17.2687C6.34916 17.0464 6.51548 16.7824 6.69566 16.6574C9.19045 14.6985 11.6852 12.7258 14.18 10.7669C16.1897 9.18311 18.2133 7.59934 20.2229 6.01556C20.3754 5.89053 20.5001 5.83496 20.6387 5.83496C20.7635 5.83496 20.9021 5.89053 21.0407 6.00167C22.884 7.46041 24.7413 8.90525 26.5846 10.364C29.2042 12.4201 31.9069 14.5457 34.568 16.6435C34.762 16.7963 34.9006 17.102 34.9145 17.352C34.9283 18.0606 34.9283 18.7969 34.9283 19.4915C34.9283 19.7972 34.9283 25.9517 34.9283 26.2573C34.9283 26.6046 35.0115 27.1742 35.5936 27.1742H35.6213C36.1618 27.1603 36.2727 26.6741 36.2866 26.2712C36.2866 25.7988 36.2866 19.5054 36.2866 19.0053V17.9633L36.9519 18.4774C37.2152 18.6858 37.4508 18.8664 37.6864 19.047C37.9221 19.2276 38.13 19.3248 38.2963 19.3248C38.5042 19.3248 38.6982 19.1859 38.9338 18.908C39.5852 18.0745 40.2782 17.1992 40.9851 16.2823C41.4286 15.7127 41.4009 15.421 40.8188 14.9625L40.001 14.3095C38.9338 13.4621 37.825 12.6007 36.7301 11.7533C36.4252 11.5171 36.3004 11.2531 36.3004 10.8502C36.3143 8.08558 36.3143 5.26535 36.3143 2.54237V0.944706C36.3143 0.152819 36.1203 -0.0416798 35.3164 -0.0416798C34.4016 -0.0416798 33.473 -0.0416798 32.5583 -0.0416798H29.3982C28.4696 -0.0416798 28.3171 0.111141 28.3171 1.05585V5.07085L28.0677 4.89025C27.9984 4.84857 27.9429 4.80689 27.9013 4.76521C27.8043 4.69575 27.735 4.65407 27.6657 4.5985C27.139 4.18172 26.6124 3.77883 26.0995 3.36205C24.963 2.47291 23.7988 1.55599 22.6346 0.652958C22.0386 0.194497 21.3595 -0.0555725 20.6803 -0.0555725C19.9873 -0.0555725 19.3082 0.194497 18.6984 0.666851C12.9326 5.20978 7.12532 9.76661 1.49819 14.1845L0.403259 15.0459C-0.095698 15.4348 -0.123418 15.7405 0.2508 16.2406C0.916076 17.102 1.60907 17.9911 2.35751 18.9497C2.56541 19.2276 2.75945 19.3526 2.96734 19.3526C3.13366 19.3526 3.3277 19.2692 3.56332 19.0886C3.8128 18.8941 4.06228 18.6996 4.32562 18.5051L4.93545 18.0328V36.6352L4.75527 36.663C4.72755 36.663 4.69983 36.6769 4.68597 36.6769H4.21474C3.92368 36.6769 3.63262 36.6769 3.3277 36.6908C2.70401 36.7047 2.48225 36.9269 2.46839 37.5521C2.46839 38.4551 2.46839 39.386 2.46839 40.2751V40.414C2.46839 41.1781 2.66243 41.3726 3.42472 41.3726C4.35334 41.3726 5.28195 41.3726 6.21057 41.3726H14.9007C16.758 41.3726 23.0365 41.3726 24.8937 41.3726C25.3788 41.3726 25.6838 41.1226 25.6976 40.7197C25.6976 40.5391 25.656 40.3862 25.5313 40.2612C25.3927 40.1084 25.1709 40.025 24.8799 40.025C24.8244 40.025 24.769 40.025 24.7274 40.025H24.4779H3.8821V38.0384L12.7802 38.0245ZM10.5071 23.062H17.4232V36.6352H10.5071V23.062ZM29.62 2.52848V1.37538H34.8867V10.3362L34.2769 9.86385C34.0413 9.68325 33.8057 9.50264 33.5839 9.32204L33.0295 8.87747C32.0177 8.08558 30.9782 7.26591 29.9526 6.46013C29.8001 6.33509 29.6338 6.11281 29.6338 5.89053C29.62 4.77911 29.62 3.68158 29.62 2.52848ZM3.72964 17.2548C3.63262 17.3382 3.52174 17.4076 3.41086 17.491C3.35542 17.5327 3.29998 17.5743 3.24454 17.616L3.1198 17.6994L1.63679 15.7961L2.19119 15.3515C2.48225 15.1153 2.77331 14.893 3.06436 14.6569L5.37897 12.8508C10.0498 9.18311 14.7206 5.52931 19.3913 1.86163C19.821 1.5282 20.2368 1.36149 20.6526 1.36149C21.0545 1.36149 21.4426 1.51431 21.8446 1.83384C26.2381 5.27925 30.6317 8.72465 35.0253 12.1701L39.3496 15.5599L39.6545 15.7961L38.1577 17.7133L37.3815 17.1159C36.9241 16.7547 36.4668 16.3934 36.0094 16.0461L21.401 4.58461C21.0407 4.30675 20.8189 4.15393 20.6387 4.15393C20.4586 4.15393 20.2368 4.29286 19.8764 4.57072L14.7899 8.55794C11.1031 11.4615 7.41638 14.3512 3.72964 17.2548Z" fill="#3F3F3F"/>
<path d="M44.9047 29.4943C42.6317 27.2159 39.6102 25.9655 36.3947 25.9655C33.2208 25.9655 30.227 27.2159 27.954 29.4804C25.681 31.7588 24.4336 34.7735 24.4336 37.9828C24.4336 44.6096 29.8251 49.9861 36.4501 49.9861C43.0336 49.9861 48.3974 44.6096 48.4113 38.0106C48.4113 34.8013 47.1639 31.7727 44.9047 29.4943ZM43.8375 45.3737C41.8694 47.3604 39.2221 48.4579 36.4086 48.4718H36.3947C33.6366 48.4718 31.0171 47.3743 29.0489 45.4015C27.067 43.4148 25.9859 40.803 25.972 38.0383C25.972 35.232 27.0531 32.5785 29.0212 30.5918C30.9893 28.6052 33.6227 27.5076 36.4224 27.5076V27.3548L36.4363 27.5076C42.1882 27.5076 46.8867 32.1756 46.9005 37.9272C46.9005 40.7335 45.8056 43.3871 43.8375 45.3737Z" fill="#3F3F3F"/>
<path d="M41.719 37.1631C41.2754 37.1492 40.8042 37.1492 40.2082 37.1492C39.8479 37.1492 39.4875 37.1492 39.1272 37.1492H38.947C38.5728 37.1492 38.1985 37.1492 37.8105 37.1492H37.2699V35.3848C37.2699 34.5235 37.2699 33.6204 37.2699 32.7174C37.2699 32.2173 37.0759 31.87 36.7294 31.7588C36.6324 31.731 36.5353 31.7032 36.4383 31.7032C36.0087 31.7032 35.676 32.0506 35.6622 32.509C35.6345 33.2592 35.6345 34.0233 35.6345 34.7597C35.6345 35.0931 35.6345 35.4126 35.6345 35.746C35.6345 35.8989 35.6345 36.9964 35.6345 37.1353H33.2644C33.0426 37.1353 32.8347 37.1353 32.613 37.1353H32.5437C32.3496 37.1353 32.1695 37.1353 31.9754 37.1353C31.6289 37.1353 31.3517 37.1353 31.0884 37.1492C30.5479 37.177 30.1875 37.4965 30.1875 37.9689C30.1875 38.4412 30.5479 38.7608 31.0745 38.7747C31.4903 38.7885 31.9339 38.7886 32.5021 38.7886C32.7654 38.7886 33.0288 38.7886 33.2921 38.7886H33.3337C33.6109 38.7886 33.8881 38.7886 34.1653 38.7886H35.6206V40.3584C35.6206 40.9975 35.6206 41.6227 35.6206 42.2478C35.6206 42.3451 35.6206 42.4423 35.6206 42.5535C35.6206 42.873 35.6206 43.1787 35.6483 43.4843C35.6899 43.915 35.9948 44.2345 36.4106 44.2484H36.4383C36.8125 44.2484 37.1452 43.9567 37.2006 43.5815C37.2422 43.3037 37.2422 42.9842 37.2422 42.6646C37.2422 42.5674 37.2422 42.484 37.2422 42.3868C37.2422 41.6921 37.2422 40.9975 37.2422 40.2751V38.7886C37.8243 38.7886 39.8202 38.7886 40.1112 38.7886C40.624 38.7886 41.1368 38.7886 41.6497 38.7886C42.3842 38.7886 42.5506 38.469 42.6199 38.2328C42.703 37.955 42.6614 37.7049 42.5228 37.5243C42.3842 37.302 42.0932 37.1631 41.719 37.1631Z" fill="#3F3F3F"/>
</g>
<defs>
<clipPath id="clip0_739_17533">
<rect width="48.4127" height="50" fill="white"/>
</clipPath>
</defs>
</svg>
