<svg width="43" height="50" viewBox="0 0 43 50" fill="none" xmlns="http://www.w3.org/2000/svg">
<g clip-path="url(#clip0_739_17612)">
<path d="M42.9277 33.8794V33.7883V28.8872C42.9277 21.3729 42.9277 13.8586 42.9277 6.34425C42.9277 4.69319 42.0567 3.82215 40.3926 3.82215H35.9854C35.9854 3.69215 35.9854 3.56214 35.9854 3.43214C35.9854 3.14613 35.9984 2.87311 35.9724 2.6001C35.8424 1.11804 34.6334 0 33.1383 0C33.0993 0 33.0603 0 33.0343 0C31.5523 0.0520021 30.3562 1.27405 30.3172 2.79511C30.3172 3.02912 30.3172 3.26313 30.3172 3.48414C30.3172 3.57514 30.3172 3.67915 30.3172 3.77015H24.311C24.311 3.66615 24.311 3.56214 24.311 3.45814C24.311 3.21113 24.311 2.99012 24.311 2.75611C24.246 1.27405 23.0889 0.0910036 21.6459 0C21.5939 0 21.5289 0 21.4769 0C20.0598 0 18.9028 0.988039 18.6687 2.3921C18.6167 2.70411 18.6037 3.01612 18.6037 3.35413C18.6037 3.49714 18.5907 3.62715 18.5907 3.77015H12.6105C12.6105 3.66615 12.6105 3.56214 12.6105 3.45814C12.6105 3.21113 12.6105 2.99012 12.6105 2.75611C12.5585 1.24805 11.3625 0.0390016 9.85439 0C9.82839 0 9.80239 0 9.77639 0C8.29433 0 7.07228 1.10504 6.94228 2.5871C6.91628 2.86011 6.92928 3.13313 6.92928 3.41914C6.92928 3.54914 6.92928 3.67915 6.92928 3.80915H6.31825C6.07124 3.80915 5.73323 3.80915 5.35621 3.80915C4.8882 3.80915 4.35517 3.80915 3.84815 3.80915C3.09412 3.80915 2.5741 3.80915 2.24909 3.82215C1.00104 3.83515 0.026001 4.77119 0.0130005 5.94124C0 10.0754 0 17.7587 0 21.8799C0 21.9449 0 22.0099 0 22.0879V28.0941C0 34.6074 0 41.1206 0 47.6339C0 48.4659 0.286011 49.09 0.884035 49.532C1.06604 49.675 1.28705 49.766 1.50806 49.87C1.59906 49.909 1.70307 49.961 1.79407 50H1.80707H41.1466H41.1596C42.5897 49.389 42.9407 48.856 42.9407 47.2439V35.6344C42.9407 35.1144 42.9407 34.6074 42.9407 34.0874C42.9407 34.0224 42.9407 33.9444 42.9277 33.8794ZM2.65211 48.4529C1.69007 48.4529 1.54706 48.3099 1.54706 47.3219V42.9537C1.54706 36.2194 1.54706 29.4722 1.54706 22.7379C1.54706 22.6599 1.54706 22.5819 1.54706 22.5039V22.3999V13.3125H41.4067V13.8846C41.4067 20.3328 41.4067 26.7811 41.4067 33.2293C41.4067 33.3073 41.4067 33.3983 41.4067 33.4763C41.4067 33.5153 41.4067 33.5543 41.4067 33.5933V33.7624V33.8144C41.4067 33.8924 41.4067 33.9574 41.4067 34.0354V47.3999C41.4067 48.2969 41.2376 48.4659 40.3276 48.4659H2.65211V48.4529ZM6.94228 6.47426C7.04628 7.93032 8.19033 9.04836 9.64639 9.12636C9.69839 9.12636 9.73739 9.12636 9.78939 9.12636C11.1414 9.12636 12.3115 8.15133 12.5585 6.81227C12.6235 6.48726 12.6235 6.16225 12.6365 5.81123C12.6365 5.66823 12.6365 5.51222 12.6495 5.36921H18.6297C18.6297 5.46022 18.6297 5.53822 18.6297 5.62922C18.6297 5.83723 18.6297 6.04524 18.6297 6.25325C18.6687 7.86531 19.9168 9.12636 21.4769 9.12636C23.0369 9.12636 24.285 7.86531 24.324 6.25325C24.324 6.05824 24.324 5.86323 24.324 5.65523C24.324 5.56422 24.324 5.48622 24.324 5.38222H30.3302V5.60322C30.3302 5.79823 30.3302 5.99324 30.3302 6.18825C30.3432 7.85231 31.5523 9.11336 33.1513 9.12636H33.1773C34.7244 9.12636 35.9464 7.90432 36.0114 6.27925C36.0244 6.07124 36.0244 5.86323 36.0114 5.65523C36.0114 5.56422 36.0114 5.46022 36.0114 5.36921C36.3105 5.36921 36.6875 5.36921 37.0905 5.36921C37.6105 5.36921 38.1825 5.36921 38.7285 5.36921C39.6776 5.36921 40.3536 5.36922 40.7826 5.38222C41.1336 5.39522 41.3807 5.65523 41.3807 6.03224C41.3937 7.4233 41.3807 8.85335 41.3807 10.2314V11.7265H1.54706V10.2444C1.54706 8.86635 1.54706 7.4233 1.54706 6.03224C1.54706 5.65523 1.79407 5.39522 2.14509 5.38222C2.5741 5.36922 3.25013 5.36921 4.19917 5.36921C4.75819 5.36921 5.33021 5.36921 5.83723 5.36921C6.25325 5.36921 6.63026 5.36921 6.92928 5.36921C6.92928 5.48622 6.92928 5.60322 6.92928 5.72023C6.92928 5.96724 6.91628 6.22725 6.94228 6.47426ZM11.0764 2.91212V4.53718V4.57618C11.0764 4.75819 11.0764 4.9272 11.0764 5.1092C11.0764 5.49922 11.0764 5.88924 11.0764 6.29225C11.0504 7.03328 10.5044 7.5923 9.78939 7.6053H9.77639C9.07436 7.6053 8.51534 7.05928 8.48934 6.37025C8.45034 5.14821 8.45034 3.93916 8.48934 2.76911C8.51534 2.08008 9.06136 1.56006 9.77639 1.56006H9.81539C10.5174 1.57306 11.0504 2.11908 11.0894 2.83411C11.0764 2.84711 11.0764 2.88612 11.0764 2.91212ZM33.1773 1.53406C33.9054 1.53406 34.4384 2.06708 34.4644 2.79511C34.5034 3.99116 34.5034 5.18721 34.4644 6.34425C34.4384 7.04628 33.8924 7.5793 33.1773 7.5793H33.1643C32.4623 7.5663 31.9033 6.99428 31.8773 6.26625C31.8643 5.87624 31.8643 5.47322 31.8773 5.0832C31.8773 4.9142 31.8773 4.73219 31.8773 4.56318C31.8773 4.39418 31.8773 4.22517 31.8773 4.06916C31.8773 3.67915 31.8773 3.26313 31.8773 2.86011C31.8903 2.10608 32.4233 1.54706 33.1383 1.53406H33.1773ZM21.4639 1.50806L21.4769 1.54706C22.2309 1.54706 22.7639 2.11908 22.7899 2.93812C22.8029 3.31513 22.8029 3.70515 22.7899 4.08216C22.7899 4.25117 22.7899 4.42018 22.7899 4.58918C22.7899 4.75819 22.7899 4.9272 22.7899 5.0962C22.7899 5.46022 22.7899 5.83723 22.7899 6.20125C22.7639 7.00728 22.2179 7.5923 21.4639 7.5923C20.7228 7.5923 20.1638 6.99428 20.1508 6.18825C20.1378 5.0702 20.1378 3.96516 20.1508 2.92512C20.1638 2.11908 20.7098 1.54706 21.4639 1.54706V1.50806Z" fill="#3F3F3F"/>
<path d="M9.80116 27.3661C9.84016 27.3661 9.87916 27.3661 9.91816 27.3661H10.1002H32.8641C32.9031 27.3661 33.0461 27.3661 33.0851 27.3661C33.1371 27.3661 33.2021 27.3661 33.2541 27.3531C33.6961 27.3141 33.9951 27.0151 33.9951 26.5991C33.9951 26.1831 33.6961 25.8711 33.2671 25.8321C33.2021 25.8321 33.1241 25.8191 33.0201 25.8191C32.9681 25.8191 32.9161 25.8191 32.8771 25.8191C32.8251 25.8191 32.7731 25.8191 32.7341 25.8191H27.0659V24.454C27.0659 23.362 27.0659 22.2959 27.0659 21.2169C27.0659 20.4368 26.7668 19.7998 26.1558 19.3318C25.7658 19.0328 25.3888 18.7338 25.0118 18.4348C24.3227 17.8887 23.5947 17.3297 22.8927 16.7967C22.4377 16.4457 21.9566 16.2637 21.4886 16.2637C21.0076 16.2637 20.5396 16.4457 20.0716 16.7967C19.6686 17.1087 19.2655 17.4207 18.8625 17.7327C18.2385 18.2138 17.5885 18.7208 16.9514 19.2018C16.2104 19.7478 15.8854 20.4368 15.8984 21.3599C15.9114 22.3869 15.9114 23.401 15.9114 24.48C15.9114 24.922 15.9114 25.364 15.9114 25.8061H12.4793C11.5952 25.8061 10.7242 25.8061 9.84016 25.8061C9.55415 25.8061 9.32014 25.8971 9.16413 26.0531C9.03413 26.1831 8.96913 26.3781 8.96913 26.5861C8.95613 27.0671 9.28114 27.3531 9.80116 27.3661ZM25.5058 21.2429C25.5318 22.1009 25.5318 22.9849 25.5188 23.83C25.5188 24.311 25.5188 24.792 25.5188 25.273C25.5188 25.4681 25.4798 25.6111 25.3888 25.7021C25.3108 25.7801 25.1808 25.8191 24.9858 25.8191H24.9598C24.6218 25.8191 24.2577 25.8061 23.8157 25.8061C23.5557 25.8061 23.2827 25.8061 23.0227 25.8061C22.7627 25.8061 22.4897 25.8061 22.2167 25.8061V25.286C22.2167 24.844 22.2167 24.428 22.2167 24.012C22.2167 23.96 22.2167 23.921 22.2167 23.869C22.2167 23.713 22.2167 23.544 22.2037 23.375C22.1517 22.9329 21.8786 22.6729 21.4756 22.6729C21.4626 22.6729 21.4496 22.6729 21.4236 22.6729C20.9816 22.6989 20.7216 22.9589 20.6956 23.388C20.6696 23.778 20.6826 24.181 20.6826 24.571C20.6826 24.727 20.6826 24.883 20.6826 25.052C20.6826 25.221 20.6826 25.39 20.6826 25.5591V25.7671C20.6566 25.7671 20.6306 25.7801 20.6046 25.7931C20.5396 25.8061 20.4876 25.8191 20.4226 25.8191C20.2536 25.8191 20.0846 25.8191 19.9026 25.8191H18.9925C18.6415 25.8191 18.2905 25.8191 17.9395 25.8191H17.9135C17.7315 25.8191 17.5885 25.7801 17.5105 25.7021C17.4325 25.6241 17.3935 25.4941 17.3935 25.325C17.3935 24.883 17.3935 24.441 17.3935 23.999C17.3935 23.076 17.3935 22.1269 17.4065 21.1909C17.4065 20.9829 17.5625 20.6839 17.7575 20.5278C18.3815 20.0208 19.0185 19.5268 19.6426 19.0458C20.0716 18.7208 20.5136 18.3828 20.9296 18.0447C21.1116 17.9017 21.2676 17.8367 21.4366 17.8367C21.5926 17.8367 21.7616 17.9017 21.9436 18.0447C22.3207 18.3438 22.6977 18.6428 23.0877 18.9288C23.7637 19.4488 24.4528 19.9818 25.1288 20.5408C25.3368 20.6969 25.4928 21.0089 25.5058 21.2429Z" fill="#3F3F3F"/>
<path d="M31.5901 31.4352C32.0061 31.0192 32.0451 30.5772 31.7201 30.2392C31.5771 30.0962 31.3951 30.0052 31.2131 30.0052C30.9791 30.0052 30.7451 30.1222 30.5241 30.3432C30.1991 30.6812 29.874 31.0192 29.536 31.3702C29.393 31.5132 29.25 31.6693 29.107 31.8253C28.951 31.6693 28.795 31.5132 28.639 31.3572C28.288 31.0062 27.963 30.6682 27.625 30.3302C27.4039 30.1092 27.1569 29.9922 26.9359 29.9922C26.7539 29.9922 26.5719 30.0702 26.4289 30.2262C26.0909 30.5772 26.1429 31.0062 26.5589 31.4222C26.8839 31.7473 27.2219 32.0723 27.573 32.4103C27.716 32.5533 27.872 32.6963 28.028 32.8523C27.872 33.0083 27.716 33.1513 27.573 33.2943C27.1699 33.6713 26.7929 34.0353 26.4549 34.4254C26.2989 34.6074 26.2209 35.0104 26.2989 35.2444C26.3769 35.4654 26.7149 35.6734 26.9489 35.6994C26.9619 35.6994 26.9749 35.6994 26.9879 35.6994C27.2089 35.6994 27.4689 35.5304 27.638 35.3614C27.989 35.0364 28.314 34.6854 28.665 34.3214C28.795 34.1784 28.925 34.0354 29.068 33.8923C29.237 34.0614 29.393 34.2304 29.549 34.3864C29.913 34.7634 30.2511 35.1274 30.6021 35.4654C30.7711 35.6344 30.9791 35.7254 31.1871 35.7254C31.4861 35.7254 31.7331 35.5564 31.8631 35.2574C32.0061 34.9324 31.9281 34.6334 31.6291 34.3344L30.1341 32.8653C30.2901 32.7093 30.4461 32.5663 30.5891 32.4103C30.9401 32.0853 31.2651 31.7603 31.5901 31.4352Z" fill="#3F3F3F"/>
<path d="M16.186 30.3692C16.082 30.4732 15.978 30.5902 15.874 30.6942C15.835 30.7462 15.796 30.7852 15.757 30.8372L13.1309 33.6973L12.6888 33.2553C12.3508 32.9173 12.0128 32.5923 11.6878 32.2673C11.4278 32.0073 11.1678 31.8773 10.9338 31.8773C10.7648 31.8773 10.5958 31.9553 10.4528 32.0853C10.2968 32.2283 10.2188 32.3973 10.2188 32.5793C10.2188 32.8133 10.3358 33.0733 10.5828 33.3203C11.2328 33.9833 11.8308 34.6074 12.4158 35.2054C12.6888 35.4784 12.9099 35.6084 13.1309 35.6084C13.3649 35.6084 13.5859 35.4784 13.8589 35.1924C14.5869 34.3994 15.328 33.5933 16.056 32.7873L16.459 32.3453C16.537 32.2543 16.615 32.1763 16.693 32.0853C16.914 31.8513 17.135 31.6173 17.343 31.3572C17.629 31.0192 17.616 30.5902 17.304 30.3042C17.161 30.1612 16.979 30.0962 16.797 30.0962C16.563 30.1092 16.355 30.2002 16.186 30.3692Z" fill="#3F3F3F"/>
<path d="M17.809 38.1305C16.496 38.1305 15.1959 38.1305 13.8829 38.1305C12.5568 38.1305 11.2308 38.1305 9.90473 38.1305C9.55371 38.1305 9.2937 38.2215 9.1247 38.3775C8.99469 38.5075 8.92969 38.6895 8.92969 38.9105C8.92969 39.2485 9.1117 39.6646 9.91773 39.6646C10.4637 39.6646 11.0098 39.6646 11.5558 39.6646H13.8699H16.145C16.704 39.6646 17.263 39.6646 17.809 39.6646C18.4071 39.6646 18.7451 39.3915 18.7581 38.9105C18.7581 38.6895 18.6931 38.5075 18.5631 38.3775C18.4201 38.2215 18.1601 38.1435 17.809 38.1305Z" fill="#3F3F3F"/>
<path d="M33.0486 38.1436C31.7226 38.1436 30.3835 38.1436 29.0574 38.1436C27.7444 38.1436 26.4183 38.1436 25.1053 38.1436C24.5073 38.1436 24.1693 38.4166 24.1562 38.8976C24.1562 39.1186 24.2083 39.2876 24.3383 39.4306C24.5073 39.5996 24.7673 39.6776 25.1183 39.6906C25.6643 39.6906 26.2103 39.6906 26.7564 39.6906H29.0574H31.3715C31.9306 39.6906 32.5026 39.6906 33.0616 39.6906C33.3866 39.6906 33.6336 39.5996 33.7896 39.4436C33.9196 39.3136 33.9846 39.1316 33.9846 38.9236C33.9846 38.4166 33.6466 38.1436 33.0486 38.1436Z" fill="#3F3F3F"/>
<path d="M17.8369 41.9137C17.2909 41.9137 16.7319 41.9137 16.1859 41.9137H13.8978H11.9217C11.1027 41.9137 10.4787 41.9137 9.89363 41.9267C9.65962 41.9267 9.37361 41.9527 9.28261 42.0827C9.1266 42.2907 8.9576 42.6417 9.0096 42.9147C9.0616 43.2657 9.36061 43.4608 9.88063 43.4608C11.0377 43.4608 12.1947 43.4608 13.3518 43.4608H14.3528C15.5229 43.4608 16.7059 43.4608 17.876 43.4608C18.188 43.4608 18.448 43.3698 18.604 43.2137C18.734 43.0837 18.799 42.8887 18.799 42.6807C18.773 42.1867 18.435 41.9137 17.8369 41.9137Z" fill="#3F3F3F"/>
<path d="M33.0217 41.9137C32.4887 41.9137 31.9427 41.9137 31.4097 41.9137H26.7815C26.1964 41.9137 25.6114 41.9137 25.0264 41.9137C24.5454 41.9137 24.2594 42.1217 24.1684 42.5377C24.1164 42.7717 24.1684 42.9667 24.2984 43.1357C24.4674 43.3438 24.7534 43.4478 25.1044 43.4478C26.4175 43.4478 27.7305 43.4478 29.0436 43.4478C30.3826 43.4478 31.7217 43.4478 33.0477 43.4478C33.6457 43.4478 33.9838 43.1747 33.9968 42.6937C33.9968 42.4727 33.9318 42.3037 33.8147 42.1737C33.6457 42.0047 33.3727 41.9137 33.0217 41.9137Z" fill="#3F3F3F"/>
</g>
<defs>
<clipPath id="clip0_739_17612">
<rect width="42.9407" height="50" fill="white"/>
</clipPath>
</defs>
</svg>
