<svg width="56" height="55" viewBox="0 0 56 55" fill="none" xmlns="http://www.w3.org/2000/svg">
<g clip-path="url(#clip0_739_17569)">
<path d="M26.9391 51.0253C26.256 51.0253 26.0633 50.8677 25.9582 50.1845C25.8531 49.589 25.5028 49.2387 24.9072 49.1336C24.2241 49.0285 24.0664 48.8358 24.0664 48.1526C24.0664 45.8054 24.0664 43.4407 24.0664 41.0935C24.0664 40.4104 24.2241 40.2177 24.9072 40.1126C25.5028 40.0075 25.8531 39.6572 25.9582 39.0616C26.0633 38.3785 26.256 38.2208 26.9391 38.2208C29.1111 38.2208 30.8803 38.2208 32.667 38.2208H49.6054C50.4461 38.2208 50.5512 38.3084 50.7089 39.1142C50.814 39.6747 51.1643 39.99 51.7424 40.0951C52.4255 40.2002 52.5831 40.3929 52.5831 41.076C52.5831 43.4232 52.5831 45.7879 52.5831 48.1351C52.5831 48.8183 52.4255 49.0109 51.7424 49.116C51.1468 49.2211 50.7965 49.5715 50.6914 50.167C50.5863 50.8502 50.3936 51.0078 49.7104 51.0078C45.3839 51.0078 41.8631 51.0078 38.3248 51.0078C34.7865 51.0078 31.2481 51.0253 26.9391 51.0253ZM31.1781 39.7272C30.1096 39.7272 29.2688 39.7272 27.7624 39.7448C27.5522 39.7448 27.377 39.9199 27.2544 40.06L27.2018 40.1126C27.0617 40.2527 26.9216 40.4104 26.7815 40.5505C26.5187 40.8308 26.2735 41.0935 25.9932 41.3212C25.748 41.5139 25.5553 41.7066 25.5553 42.127C25.5728 43.756 25.5728 45.4551 25.5553 47.1892C25.5553 47.5921 25.7305 47.8023 25.9932 47.995C26.4486 48.3278 26.834 48.6956 27.0967 49.081C27.3245 49.3963 27.5347 49.5715 27.9726 49.5715C29.1462 49.554 29.8994 49.554 30.6526 49.554H33.1224C33.2275 49.554 33.3326 49.5364 33.4377 49.5364C33.4902 49.5364 33.5428 49.5189 33.5953 49.5189L33.9807 49.4839L33.718 49.1861C31.2657 46.4535 31.2832 42.7926 33.7705 40.0776L34.0683 39.7448L31.1781 39.7272ZM42.8265 40.06C44.1052 41.4438 44.7183 42.9503 44.7183 44.6318C44.7183 46.3134 44.1052 47.8198 42.8265 49.2211L42.5287 49.554H45.2613C46.4174 49.554 47.3457 49.5539 48.8872 49.5364C49.0974 49.5364 49.2725 49.3613 49.3952 49.2211L49.4302 49.1861C49.5703 49.046 49.7104 48.9058 49.8331 48.7482C50.0958 48.4679 50.341 48.1877 50.6388 47.9775C50.9716 47.7498 51.0942 47.5045 51.0942 47.1192C51.0767 45.1573 51.0767 43.6509 51.0942 42.2496C51.0942 41.8292 51.0067 41.5139 50.5512 41.2512C50.1834 41.041 49.8331 40.6731 49.5703 40.2527C49.3251 39.8674 49.0799 39.7272 48.6419 39.7272H48.6244C47.7136 39.7272 47.1706 39.7448 46.6451 39.7448H45.8743C45.5065 39.7448 45.1036 39.7448 44.5431 39.7448H42.5287L42.8265 40.06ZM38.3073 39.7272C35.6272 39.7272 33.4202 41.9168 33.4202 44.5968C33.4202 45.9105 33.9106 47.1542 34.839 48.0826C35.7674 49.0109 36.9935 49.5364 38.3073 49.5364H38.3248C41.0048 49.5364 43.2119 47.3644 43.2294 44.7019C43.2469 43.3707 42.7389 42.127 41.793 41.1811C40.8647 40.2352 39.6385 39.7272 38.3073 39.7272Z" fill="#3F3F3F"/>
<path d="M21.8084 54.5812C20.8275 54.5812 20.6523 54.406 20.6523 53.4251C20.6523 44.9121 20.6523 44.3516 20.6523 35.8211C20.6523 34.8402 20.8275 34.665 21.8084 34.665H54.8269C55.8078 34.665 55.983 34.8402 55.983 35.8211C55.983 44.3341 55.983 44.8946 55.983 53.4251C55.983 54.406 55.8078 54.5812 54.8269 54.5812H29.8485H21.8084ZM22.1763 53.0748H54.459V36.2064H22.1763V53.0748Z" fill="#3F3F3F"/>
<path d="M21.8266 30.7588C22.8075 30.7588 23.7709 30.7588 24.7518 30.7588C25.7327 30.7588 26.6961 30.7588 27.677 30.7588C28.3602 30.7588 28.658 30.4786 28.658 29.7954C28.6755 27.8686 28.6755 25.8893 28.658 23.8924C28.658 23.2093 28.3777 22.9465 27.677 22.9465C27.2917 22.9465 26.9063 22.9465 26.521 22.9465H24.7518C24.7518 22.9465 23.2629 22.9465 22.9651 22.9465C22.5623 22.9465 22.1769 22.9465 21.774 22.9465C21.1084 22.9465 20.8281 23.2268 20.8281 23.8924C20.8281 25.8893 20.8281 27.8686 20.8281 29.7954C20.8456 30.4611 21.1434 30.7413 21.8266 30.7588ZM22.4572 24.523H27.064V29.1648H22.4572V24.523Z" fill="#3F3F3F"/>
<path d="M13.1535 22.9465C12.7681 22.9465 12.3652 22.9465 11.9799 22.9465C11.6646 22.9465 11.3668 22.9465 11.0515 22.9465C10.7537 22.9465 10.4735 22.9465 10.1757 22.9465H10.1582C9.8604 22.9465 9.56262 22.9465 9.26484 22.9465C8.96706 22.9465 8.66928 22.9465 8.3715 22.9465C7.96862 22.9465 7.56575 22.9465 7.16287 22.9465C6.54979 22.9465 6.26953 23.2268 6.26953 23.8398C6.26953 25.7491 6.26953 27.711 6.26953 29.848C6.26953 30.4786 6.54979 30.7588 7.1979 30.7588C8.17882 30.7588 9.17726 30.7588 10.1582 30.7588C11.1566 30.7588 12.155 30.7588 13.1535 30.7588C13.8191 30.7588 14.0819 30.4786 14.0819 29.8129C14.0819 27.6759 14.0819 25.7316 14.0819 23.8574C14.0643 23.2093 13.8016 22.9465 13.1535 22.9465ZM12.4703 29.1648H7.84601V24.523H12.4703V29.1648Z" fill="#3F3F3F"/>
<path d="M36.4009 30.7588C36.8038 30.7588 37.1891 30.7588 37.592 30.7588H39.3787H41.1654C41.5507 30.7588 41.9536 30.7588 42.339 30.7588C42.9696 30.7588 43.2498 30.4611 43.2498 29.8305C43.2498 27.9562 43.2498 25.9944 43.2498 23.8749C43.2498 23.2268 42.9871 22.9465 42.3565 22.9465C41.358 22.9465 40.3421 22.9465 39.3437 22.9465C38.3452 22.9465 37.3468 22.9465 36.3484 22.9465C35.7002 22.9465 35.4375 23.2093 35.4375 23.8574C35.4375 25.8017 35.4375 27.7986 35.4375 29.8129C35.455 30.4786 35.7178 30.7413 36.4009 30.7588ZM37.049 24.523H41.6733V29.1648H37.049V24.523Z" fill="#3F3F3F"/>
<path d="M13.1535 35.4532C12.155 35.4532 11.1566 35.4532 10.1582 35.4532C9.15974 35.4532 8.1613 35.4532 7.16287 35.4532C6.53228 35.4532 6.26953 35.7335 6.26953 36.3816C6.26953 38.5186 6.26953 40.4629 6.26953 42.3372C6.26953 42.9678 6.54979 43.2481 7.18039 43.2656C7.58326 43.2656 7.98614 43.2656 8.38902 43.2656H10.2107H11.9974C12.3828 43.2656 12.7681 43.2656 13.1535 43.2656C13.8366 43.2656 14.0994 43.0028 14.0994 42.3197C14.0994 40.2703 14.0994 38.2734 14.0994 36.3641C14.0643 35.716 13.8016 35.4532 13.1535 35.4532ZM12.4703 41.6716H7.84601V37.0297H12.4703V41.6716Z" fill="#3F3F3F"/>
<path d="M18.8107 47.96H12.4873C5.98872 47.96 11.7341 47.96 5.23552 47.96C2.9759 47.96 1.55707 46.5586 1.55707 44.2815C1.55707 36.4166 1.55707 28.5343 1.55707 20.6694V19.0228C1.55707 18.9002 1.55707 18.7951 1.57459 18.6725L1.5921 18.4973L1.60962 18.2521H47.9756V32.7032H49.5345C49.5345 24.558 49.5345 17.4464 49.5345 9.30122C49.5345 6.86644 48.0807 4.9046 45.8561 4.32656C45.3481 4.18642 44.7876 4.16891 44.3146 4.16891C43.7716 4.16891 43.1761 4.15139 42.4404 4.15139C42.0375 4.15139 41.6171 4.15139 41.2142 4.15139C40.8114 4.15139 40.391 4.15139 39.9881 4.15139H39.1123V3.18799C39.1123 2.94276 39.1123 2.69753 39.1123 2.4523C39.1123 1.89177 39.1123 1.31373 39.0948 0.753206C39.0597 0.315296 38.7619 0 38.3065 0C37.8686 0 37.5358 0.350328 37.5358 0.805755C37.5183 1.3838 37.5183 1.97936 37.5358 2.5574V2.57491C37.5358 2.82014 37.5358 3.08289 37.5358 3.32812V4.13388H11.9969V2.76759C11.9969 2.57491 11.9969 2.36472 11.9969 2.17204V2.15452C11.9969 1.69909 11.9969 1.22615 11.9969 0.770723C11.9618 0.332812 11.629 0 11.2086 0H11.1911C10.7532 0.0175164 10.4554 0.332812 10.4379 0.788239C10.4204 1.36628 10.4204 1.96184 10.4379 2.53988V2.5574C10.4379 2.80263 10.4379 3.06537 10.4379 3.3106V4.15139H9.15919C8.75632 4.15139 8.35344 4.15139 7.95056 4.15139C7.54769 4.15139 7.14481 4.15139 6.74193 4.15139C5.98872 4.15139 5.37565 4.15139 4.81512 4.16891C2.43289 4.25649 0.523601 5.88552 0.0856907 8.26775C0.0681743 8.35533 0.0331414 8.4254 0.015625 8.47795V8.49546V45.2449C0.0331414 45.315 0.0506578 45.385 0.0681743 45.4551L0.0856907 45.4901C0.13824 45.6828 0.190789 45.8755 0.260855 46.0682C0.891446 47.8549 2.15263 48.9759 4.00937 49.4313C4.09695 49.4489 4.16702 49.4839 4.2546 49.5014L4.30715 49.5189H18.8283V47.96H18.8107ZM1.55707 13.908C1.55707 12.4191 1.55707 10.9127 1.55707 9.42383C1.55707 7.11167 2.94087 5.74539 5.25303 5.72787H7.03971H10.4204V6.76134C10.4204 6.98905 10.4204 7.23428 10.4204 7.462C10.4204 8.005 10.4204 8.54801 10.4379 9.10854C10.4554 9.56397 10.7707 9.89678 11.1911 9.89678H11.2086C11.6465 9.89678 11.9793 9.54645 11.9793 9.09102C11.9969 8.37285 11.9969 7.67219 11.9793 6.9365C11.9793 6.62121 11.9793 6.32343 11.9793 6.00813V5.74539H37.5183C37.5183 5.74539 37.5183 6.91899 37.5183 7.19925C37.5183 7.39193 37.5183 7.58461 37.5183 7.77729C37.5183 8.2152 37.5183 8.68814 37.5358 9.14357C37.5533 9.56397 37.8861 9.89678 38.3065 9.89678H38.324C38.7444 9.87926 39.0597 9.56397 39.0772 9.14357C39.0948 8.5305 39.0948 7.91742 39.0948 7.32186C39.0948 7.07663 39.0948 6.81389 39.0948 6.56866C39.0948 6.44604 39.0948 5.72787 39.0948 5.72787H41.3018H43.2461C43.649 5.72787 44.0694 5.72787 44.4723 5.72787C46.4341 5.74539 47.888 7.11167 47.9405 8.98592C47.9931 10.685 47.9756 12.4191 47.9756 14.1007V14.1182C47.9756 14.8189 47.9756 15.5195 47.9756 16.2202C47.9756 16.2903 47.9581 16.3603 47.9405 16.4129C47.9405 16.4304 47.923 16.4479 47.923 16.4654L47.8705 16.6581H1.55707V13.908Z" fill="#3F3F3F"/>
</g>
<defs>
<clipPath id="clip0_739_17569">
<rect width="56" height="54.5812" fill="white"/>
</clipPath>
</defs>
</svg>
