<svg width="49" height="50" viewBox="0 0 49 50" fill="none" xmlns="http://www.w3.org/2000/svg">
<g clip-path="url(#clip0_739_17519)">
<path d="M11.5721 11.9332H11.5111C11.316 11.9332 11.1575 11.9332 11.0112 11.9698C10.6576 12.0429 10.4625 12.2623 10.4137 12.6402C10.3649 12.9937 10.56 13.3228 10.877 13.4325C11.0356 13.4812 11.2185 13.5178 11.4623 13.5178C14.8155 13.5178 18.1565 13.5178 21.5096 13.5178C24.497 13.5178 27.4843 13.5178 30.4717 13.5178C30.679 13.5178 30.8375 13.5056 30.9716 13.4568C31.3374 13.3593 31.5447 13.0546 31.5203 12.6767C31.4959 12.2989 31.2521 12.0185 30.8741 11.9698C30.7034 11.9454 30.5205 11.9454 30.3376 11.9454H30.301C28.3745 11.9454 26.4601 11.9454 24.5336 11.9454H17.498C15.5227 11.9332 13.5474 11.9332 11.5721 11.9332Z" fill="#3F3F3F"/>
<path d="M31.0078 21.2092C30.8128 21.1482 30.6055 21.136 30.4226 21.136C27.2645 21.136 24.1186 21.136 20.9605 21.136C17.8025 21.136 14.6566 21.136 11.4985 21.136C11.3278 21.136 11.1083 21.1482 10.9133 21.2092C10.5718 21.3189 10.3646 21.648 10.4133 22.0258C10.4621 22.3793 10.7182 22.6475 11.0596 22.6841C11.1937 22.6962 11.3278 22.7084 11.4498 22.7084C11.4498 22.7084 15.5955 22.7084 17.5952 22.7084H24.2771C26.3012 22.7084 30.4713 22.7084 30.4713 22.7084C30.5933 22.7084 30.7274 22.7084 30.8615 22.6841C31.2151 22.6353 31.4712 22.3793 31.5078 22.0137C31.5565 21.6358 31.3493 21.3189 31.0078 21.2092Z" fill="#3F3F3F"/>
<path d="M11.3051 8.8981C12.1343 8.8981 12.9756 8.8981 13.8047 8.8981H18.6211C18.6211 8.8981 20.3404 8.8981 20.6574 8.8981C21.3646 8.8981 21.9011 8.8981 22.4132 8.88591C22.901 8.88591 23.2302 8.58118 23.2424 8.13018C23.2546 7.69137 22.9132 7.35007 22.4132 7.31351C22.3523 7.31351 22.2913 7.31351 22.2303 7.31351H22.0108H13.0488C12.8659 7.31351 12.683 7.31351 12.5123 7.31351C12.3294 7.31351 12.1586 7.31351 11.9757 7.31351C11.6831 7.31351 11.4514 7.31351 11.232 7.3257C10.9393 7.33789 10.6833 7.45978 10.5369 7.66699C10.4028 7.86202 10.3662 8.1058 10.4394 8.34959C10.5491 8.71526 10.8418 8.8981 11.3051 8.8981Z" fill="#3F3F3F"/>
<path d="M22.3506 30.351C20.6192 30.351 18.8877 30.351 17.1685 30.351H11.2669C11.1937 30.351 11.1206 30.351 11.0596 30.3632C10.6572 30.4364 10.3768 30.7899 10.4134 31.2043C10.4499 31.6553 10.7792 31.9235 11.2791 31.9235C12.1082 31.9235 12.9252 31.9235 13.7543 31.9235H16.6198H19.9241C20.7289 31.9235 21.5215 31.9235 22.3262 31.9235C22.8749 31.9235 23.2285 31.6187 23.2407 31.1555C23.2407 30.9483 23.1676 30.7655 23.0334 30.6192C22.8505 30.4486 22.6189 30.351 22.3506 30.351Z" fill="#3F3F3F"/>
<path d="M25.1077 25.7557C24.6688 25.7435 24.1811 25.7435 23.5958 25.7435C23.2422 25.7435 22.8764 25.7435 22.5228 25.7435C22.1692 25.7435 21.8034 25.7435 21.4498 25.7435H21.4132C21.0596 25.7435 20.706 25.7435 20.3524 25.7435C19.9866 25.7435 19.6086 25.7435 19.2428 25.7435C18.7306 25.7435 18.2307 25.7435 17.7186 25.7435C17.426 25.7435 17.1943 25.8289 17.048 25.9873C16.9138 26.1214 16.8407 26.3164 16.8529 26.5236C16.8529 26.9868 17.2065 27.3037 17.7064 27.3037C18.8648 27.3037 20.0231 27.3159 21.1815 27.3159C22.4984 27.3159 23.8275 27.3159 25.1443 27.3159C25.4979 27.3159 25.754 27.1575 25.9003 26.8527C26.0101 26.609 26.0101 26.3408 25.8759 26.1336C25.7174 25.902 25.437 25.7679 25.1077 25.7557Z" fill="#3F3F3F"/>
<path d="M11.3173 18.1131C11.7563 18.1131 12.1952 18.1131 12.6342 18.1131H14.5607H16.4873C16.9262 18.1131 17.3652 18.1131 17.8042 18.1131C18.3529 18.1131 18.6943 17.8206 18.6943 17.3452C18.6943 17.1258 18.6211 16.9308 18.487 16.7967C18.3285 16.6382 18.109 16.5651 17.8164 16.5529C16.7312 16.5529 15.6459 16.5529 14.5607 16.5529C13.4755 16.5529 12.3781 16.5529 11.2929 16.5529C10.7564 16.5529 10.4028 16.8576 10.3906 17.3208C10.3906 17.528 10.4516 17.7231 10.5979 17.8571C10.7564 18.0156 11.0125 18.1131 11.3173 18.1131Z" fill="#3F3F3F"/>
<path d="M30.6054 16.5407C30.203 16.5407 29.8006 16.5407 29.3982 16.5407C29.0934 16.5407 27.8985 16.5407 27.5936 16.5407C27.2888 16.5407 26.0573 16.5407 25.7524 16.5407C25.3257 16.5407 24.9111 16.5407 24.4843 16.5407C23.9234 16.5407 23.5942 16.8211 23.582 17.3086C23.582 17.5402 23.643 17.7231 23.7771 17.8571C23.9356 18.0156 24.1795 18.1009 24.4843 18.1009C25.4964 18.1009 26.5084 18.1009 27.5205 18.1009C28.5447 18.1009 29.569 18.1009 30.6054 18.1009C31.1663 18.1009 31.4955 17.8084 31.5077 17.333C31.5077 17.1136 31.4467 16.9186 31.3126 16.7845C31.1541 16.6382 30.9102 16.5529 30.6054 16.5407Z" fill="#3F3F3F"/>
<path d="M10.9613 27.2672C11.3271 27.2915 11.7051 27.3159 12.0709 27.3159C12.461 27.3159 12.8634 27.3037 13.2414 27.2672C13.4243 27.255 13.5462 27.1453 13.6194 27.06C13.7535 26.9015 13.8267 26.6821 13.8023 26.4749C13.7657 26.0848 13.4853 25.8045 13.1073 25.7679C12.9975 25.7557 12.8756 25.7557 12.7415 25.7557C12.6439 25.7557 12.5342 25.7557 12.4367 25.7557C12.3269 25.7557 12.2294 25.7557 12.1196 25.7557L11.9855 25.7435H11.2539C11.2173 25.7435 11.1686 25.7435 11.132 25.7557C10.7174 25.8045 10.4248 26.0848 10.4004 26.4749C10.376 26.8406 10.5833 27.2428 10.9613 27.2672Z" fill="#3F3F3F"/>
<path d="M37.1293 26.5968C37.1415 23.5129 37.1415 18.0765 37.1415 15.2852C37.1415 13.2131 37.1415 11.1409 37.1415 9.06874C37.1415 8.59337 36.9951 8.27645 36.6537 7.98391C33.7517 5.5217 30.74 2.96197 27.716 0.365675C27.4112 0.121892 27.1064 0 26.6918 0C22.6314 0.0121892 18.5101 0.0121892 14.9618 0.0121892H8.03601C6.02411 0.0121892 4.78039 1.25548 4.7682 3.2667C4.7682 3.62018 4.7682 3.96148 4.7682 4.33934V5.03413H3.25623C1.21994 5.03413 0.0128023 6.25305 0.0128023 8.28864C0.0128023 11.214 0.0128023 14.1272 0.0128023 17.0527C0.0128023 25.5241 0.0249957 34.276 -0.0115843 42.8937C-0.0237776 44.9293 0.793175 46.0873 2.53682 46.5626H28.4964C30.618 48.7079 33.5688 50.0244 36.8366 50.0244C43.2503 50.0244 48.5056 44.7708 48.5056 38.3593C48.53 31.96 43.4698 26.7918 37.1293 26.5968ZM27.7892 3.87616C27.7892 3.53486 27.7892 3.18137 27.7892 2.82789V2.52316L34.0687 7.87421L33.7517 7.91077C33.6908 7.92296 33.6298 7.92296 33.5932 7.93515C33.5079 7.94734 33.4347 7.95953 33.3615 7.95953H32.7153C32.2154 7.95953 31.7032 7.95953 31.2033 7.95953C30.7156 7.95953 30.24 7.95953 29.7523 7.95953C28.5939 7.94734 27.8014 7.17942 27.777 6.03364C27.7892 5.32667 27.7892 4.6197 27.7892 3.87616ZM7.95065 1.5724C10.7063 1.5724 13.462 1.5724 16.2177 1.5724H25.6919C25.7651 1.5724 25.8383 1.5724 25.9236 1.58459C25.9724 1.58459 26.0212 1.58459 26.0699 1.59678L26.2041 1.60897V1.92589C26.2041 2.04778 26.2041 2.16967 26.2041 2.29156C26.2041 2.73037 26.2041 3.16918 26.2041 3.59581C26.2041 4.55875 26.1919 5.55826 26.2772 6.5334C26.4113 8.17893 27.7892 9.47099 29.4719 9.53193C30.4229 9.5685 31.374 9.5685 32.1056 9.5685C32.4836 9.5685 32.8494 9.5685 33.2274 9.5685C33.6054 9.5685 33.9712 9.5685 34.3492 9.5685C34.5199 9.5685 34.6906 9.5685 34.8613 9.5685H35.5807V13.1155C35.5807 16.6382 35.5807 22.9035 35.5929 26.6577C29.7279 27.2672 25.1189 32.2647 25.1189 38.3106C25.1189 38.8713 25.1554 39.4198 25.2408 39.9561H24.2165C24.2165 39.9561 22.6314 39.9561 22.3266 39.9561C21.9364 39.9561 21.5584 39.9561 21.1682 39.9561C20.1318 39.9561 18.4125 39.9561 16.5469 39.9561C14.9862 39.9561 9.04805 39.9561 9.04805 39.9561C8.54813 39.9561 8.18233 39.9561 7.99943 39.9561C6.90203 39.9561 6.35333 39.3954 6.35333 38.2984C6.35333 26.609 6.35333 14.9317 6.35333 3.24232C6.34114 2.15748 6.90203 1.5724 7.95065 1.5724ZM16.1202 44.9537C11.8403 44.9537 7.54827 44.9537 3.26842 44.9537C2.14663 44.9537 1.59793 44.4052 1.59793 43.2716C1.59793 31.6065 1.59793 19.9293 1.59793 8.26426C1.59793 7.14286 2.14663 6.60653 3.28061 6.60653C3.43913 6.60653 3.59764 6.60653 3.75615 6.60653H4.756V14.9561C4.756 22.7694 4.756 30.5704 4.756 38.3837C4.756 39.9561 5.65831 41.1506 7.12151 41.4919C7.26783 41.5285 7.41415 41.5407 7.54827 41.5407C8.69445 41.5407 14.913 41.5529 18.8271 41.5529C19.4977 41.5529 20.1074 41.5529 20.6195 41.5529C20.7049 41.5529 20.778 41.5529 20.8634 41.5529H25.1676C25.3017 41.5529 25.4359 41.5529 25.57 41.5529C25.9236 42.784 26.4845 43.9298 27.1917 44.9659C23.741 44.9537 19.449 44.9537 16.1202 44.9537ZM36.8 48.5373C31.2033 48.5495 26.582 43.942 26.5699 38.3471C26.5577 32.667 31.1423 28.0717 36.8 28.0717C42.4212 28.0717 47.0424 32.6426 47.0546 38.2374C47.079 43.9298 42.4943 48.5251 36.8 48.5373Z" fill="#3F3F3F"/>
<path d="M42.042 33.8615C41.8347 33.6421 41.6884 33.3862 41.4689 33.2521C41.1519 33.057 40.8592 33.2277 40.6154 33.4715C37.7499 36.3359 34.8845 39.2004 32.0191 42.0649C31.6289 42.4549 31.6045 42.8693 31.9215 43.1863C32.2386 43.5032 32.6653 43.4788 33.0433 43.1009C35.9087 40.2365 38.7742 37.372 41.6274 34.5076C41.7859 34.3613 41.8713 34.1297 42.042 33.8615Z" fill="#3F3F3F"/>
<path d="M33.5333 37.567C34.9355 37.567 36.0939 36.3969 36.0939 35.0073C36.0817 33.5934 34.9477 32.4598 33.5333 32.4476C32.131 32.4476 30.9727 33.6056 30.9727 35.0073C30.9727 36.4213 32.1188 37.567 33.5333 37.567ZM33.5576 33.9103C34.1429 33.9225 34.6185 34.4222 34.6185 35.0073C34.6185 35.6046 34.1185 36.1043 33.5211 36.1043C32.9236 36.1043 32.4237 35.5924 32.4359 34.9951C32.448 34.3857 32.9602 33.8981 33.5576 33.9103Z" fill="#3F3F3F"/>
<path d="M40.1398 39.0297C38.7375 39.0176 37.5548 40.1633 37.5548 41.5651C37.5426 42.979 38.6766 44.137 40.091 44.1492C41.4932 44.1736 42.6638 43.0156 42.676 41.6138C42.676 40.1999 41.542 39.0419 40.1398 39.0297ZM40.0666 42.6865C39.4813 42.6621 39.0058 42.1624 39.018 41.5895C39.018 40.9922 39.5301 40.4924 40.1276 40.5046C40.7251 40.5168 41.225 41.0288 41.2006 41.626C41.1884 42.2233 40.6641 42.6987 40.0666 42.6865Z" fill="#3F3F3F"/>
</g>
<defs>
<clipPath id="clip0_739_17519">
<rect width="48.5294" height="50" fill="white"/>
</clipPath>
</defs>
</svg>
