<svg width="55" height="45" viewBox="0 0 55 45" fill="none" xmlns="http://www.w3.org/2000/svg">
<g clip-path="url(#clip0_739_17662)">
<path d="M2.50603 44.6702C2.24377 44.5391 1.96695 44.4517 1.73384 44.2914C1.10735 43.8689 0.815959 43.257 0.78682 42.5139C0.77225 42.3245 0.78682 42.1497 0.78682 41.9603C0.78682 28.804 0.78682 17.8185 0.78682 4.66225C0.78682 4.34172 0.728542 4.10861 0.48086 3.8755C-0.1602 3.26358 -0.14563 1.09272 0.437151 0.466225C0.757681 0.116556 1.16563 0 1.63185 0C3.64245 0 5.63847 0 7.6345 0C13.2875 0 18.9405 0 24.608 0C25.8756 0 26.3709 0.509934 26.3855 1.77748C26.3855 2.11258 26.4438 2.46225 26.3709 2.78278C26.2835 3.17616 26.1524 3.58411 25.9193 3.89007C25.7299 4.12318 25.657 4.32715 25.657 4.60397C25.657 17.8623 25.657 28.9205 25.657 42.1788C25.657 43.5046 25.2199 44.1311 23.9961 44.6119C23.9669 44.6265 23.9524 44.6556 23.9378 44.6702C16.7842 44.6702 9.6451 44.6702 2.50603 44.6702ZM2.15636 12.8212C2.15636 13.0252 2.15636 13.1563 2.15636 13.2728C2.15636 23.6464 2.15636 31.8199 2.15636 42.1934C2.15636 43.0384 2.41861 43.2861 3.29278 43.2861C9.89278 43.2861 16.4928 43.2861 23.1073 43.2861C24.0398 43.2861 24.2729 43.053 24.2729 42.1351C24.2729 33.204 24.2729 26.4437 24.2729 17.5126C24.2729 17.3815 24.2729 17.2503 24.2729 16.9881C23.4424 17.8331 22.6848 18.5616 21.9709 19.3192C21.6504 19.6543 21.3153 19.7417 20.8636 19.6397C15.9246 18.5325 11.1895 16.8424 6.55636 14.8464C6.4398 14.8027 6.33781 14.7444 6.23583 14.6715C5.959 14.4676 5.87159 14.1762 6.00271 13.8702C6.14841 13.5351 6.42523 13.3894 6.78947 13.4768C6.9643 13.5205 7.13914 13.5934 7.2994 13.6662C11.6266 15.502 16.0266 17.0901 20.6014 18.1536C20.9365 18.2265 21.155 18.1974 21.4027 17.9351C22.1749 17.1338 22.9325 16.3179 23.763 15.5748C24.3312 15.0795 24.3166 14.5258 24.2292 13.8702C16.6385 14.0596 9.36828 12.4715 2.15636 10.1113C2.15636 10.3589 2.17093 10.5483 2.15636 10.7377C2.11265 11.102 2.24377 11.3205 2.59344 11.4662C3.03053 11.6411 3.45304 11.8742 3.86099 12.0927C4.31265 12.3258 4.45834 12.6901 4.28351 13.0543C4.10867 13.4331 3.72987 13.5205 3.26364 13.3166C2.91397 13.2 2.57887 13.0252 2.15636 12.8212ZM6.57092 10.0675C7.91132 10.4026 9.25172 10.7523 10.6067 11.0583C11.7285 11.306 12.865 11.6119 14.016 11.6993C15.4583 11.8159 16.9153 11.743 18.3577 11.7139C19.1881 11.6993 19.8001 11.1603 19.8292 10.3298C19.8729 8.78543 19.8729 7.25563 19.8292 5.71126C19.8001 4.86623 19.159 4.31258 18.314 4.29801C14.9047 4.28344 11.4809 4.28344 8.07159 4.29801C7.25569 4.29801 6.61463 4.85166 6.58549 5.66755C6.54179 7.13907 6.57092 8.58146 6.57092 10.0675ZM24.9722 1.39868C17.1047 1.39868 9.28086 1.39868 1.45702 1.39868C1.45702 1.92318 1.45702 2.40397 1.45702 2.92848C1.67556 2.92848 1.86497 2.92848 2.0398 2.92848C8.3047 2.92848 14.5696 2.92848 20.8491 2.92848C21.0239 2.92848 21.1842 2.91391 21.3444 2.94305C21.7232 3.00132 21.9564 3.24901 21.9564 3.62781C21.9418 4.00662 21.7087 4.23974 21.3299 4.29801C21.1842 4.31258 21.0385 4.31258 20.9511 4.32715C21.053 4.89536 21.2279 5.43444 21.2424 5.98808C21.2862 7.32848 21.257 8.66887 21.257 10.0093C21.257 10.7232 21.0968 11.3934 20.6451 11.9762C20.5285 12.1219 20.3974 12.2676 20.208 12.4861C21.6213 12.4861 22.9325 12.4861 24.2729 12.4861C24.2729 9.74702 24.2729 7.05166 24.2729 4.35629C23.6901 4.13775 23.5007 3.89007 23.5736 3.49669C23.6464 3.10331 23.9378 2.94305 24.5352 2.92848C24.6809 2.92848 24.8266 2.91391 24.9868 2.89934C24.9722 2.3894 24.9722 1.90861 24.9722 1.39868ZM2.15636 4.32715C2.15636 5.7404 2.15636 7.10993 2.15636 8.47947C2.15636 8.55232 2.24377 8.68344 2.31662 8.71258C3.24907 9.03311 4.18152 9.33907 5.18682 9.6596C5.18682 9.06225 5.17225 8.53775 5.18682 8.02781C5.2451 6.7894 4.96828 5.52185 5.5802 4.31258C4.4292 4.32715 3.32192 4.32715 2.15636 4.32715Z" fill="#3F3F3F"/>
<path d="M31.1042 44.6702C30.842 44.5391 30.5651 44.4516 30.332 44.2914C29.7055 43.8689 29.4141 43.2569 29.385 42.5139C29.3704 42.3245 29.385 42.1497 29.385 41.9602C29.385 28.804 29.385 17.8185 29.385 4.66224C29.385 4.34171 29.3267 4.1086 29.079 3.87548C28.4526 3.27813 28.4526 1.10727 29.0499 0.480782C29.3704 0.131113 29.7784 0.0145569 30.2446 0.0145569C32.2406 0.0145569 34.2367 0.0145569 36.2327 0.0145569C41.8857 0.0145569 47.5532 0.0145569 53.2062 0.0145569C54.4737 0.0145569 54.9691 0.524491 54.9837 1.79204C54.9837 2.12714 55.0419 2.47681 54.9691 2.79734C54.8817 3.19072 54.7505 3.59866 54.5174 3.90462C54.328 4.13773 54.2552 4.34171 54.2552 4.61853C54.2552 17.8768 54.2552 28.9351 54.2552 42.1934C54.2552 43.5192 53.8181 44.1457 52.5943 44.6265C52.5651 44.641 52.5505 44.6702 52.536 44.6847C45.3823 44.6702 38.2433 44.6702 31.1042 44.6702ZM30.7545 12.8212C30.7545 13.0252 30.7545 13.1563 30.7545 13.2728C30.7545 23.6463 30.7545 31.8199 30.7545 42.1934C30.7545 43.0384 31.0168 43.2861 31.891 43.2861C38.491 43.2861 45.0909 43.2861 51.7055 43.2861C52.638 43.2861 52.8711 43.053 52.8711 42.1351C52.8711 33.204 52.8711 26.4437 52.8711 17.5126C52.8711 17.3814 52.8711 17.2503 52.8711 16.9881C52.0406 17.8331 51.283 18.5616 50.5691 19.3192C50.2486 19.6543 49.9135 19.7417 49.4618 19.6397C44.5227 18.5324 39.7876 16.8424 35.1545 14.8463C35.038 14.8026 34.936 14.7444 34.834 14.6715C34.5572 14.4675 34.4698 14.1761 34.6009 13.8702C34.7466 13.5351 35.0234 13.3894 35.3876 13.4768C35.5625 13.5205 35.7373 13.5934 35.8976 13.6662C40.2247 15.502 44.6247 17.0901 49.1996 18.1536C49.5347 18.2265 49.7532 18.1973 50.0009 17.9351C50.7731 17.1338 51.5307 16.3179 52.3611 15.5748C52.9293 15.0795 52.9148 14.5258 52.8274 13.8702C45.2366 14.0596 37.9665 12.4715 30.7545 10.1112C30.7545 10.3589 30.7691 10.5483 30.7545 10.7377C30.7108 11.102 30.842 11.3205 31.1916 11.4662C31.6287 11.641 32.0512 11.8742 32.4592 12.0927C32.9108 12.3258 33.0565 12.6901 32.8817 13.0543C32.7069 13.4331 32.328 13.5205 31.8618 13.3165C31.5122 13.2 31.1771 13.0252 30.7545 12.8212ZM35.1691 10.0675C36.5095 10.4026 37.8499 10.7523 39.2049 11.0583C40.3267 11.3059 41.4631 11.6119 42.6141 11.6993C44.0565 11.8159 45.5135 11.743 46.9558 11.7139C47.7863 11.6993 48.3982 11.1603 48.4274 10.3298C48.4711 8.78542 48.4711 7.25562 48.4274 5.71125C48.3982 4.86621 47.7572 4.31257 46.9121 4.298C43.5029 4.28343 40.079 4.28343 36.6698 4.298C35.8539 4.298 35.2128 4.85164 35.1837 5.66754C35.14 7.13906 35.1691 8.58144 35.1691 10.0675ZM53.5704 1.39866C45.7029 1.39866 37.879 1.39866 30.0552 1.39866C30.0552 1.92317 30.0552 2.40396 30.0552 2.92846C30.2737 2.92846 30.4631 2.92846 30.638 2.92846C36.9029 2.92846 43.1678 2.92846 49.4472 2.92846C49.6221 2.92846 49.7823 2.91389 49.9426 2.94303C50.3214 3.00131 50.5545 3.24899 50.5545 3.6278C50.5399 4.00661 50.3068 4.23972 49.928 4.298C49.7823 4.31257 49.6366 4.31257 49.5492 4.32714C49.6512 4.89535 49.826 5.43442 49.8406 5.98807C49.8843 7.32846 49.8552 8.66886 49.8552 10.0093C49.8552 10.7232 49.6949 11.3934 49.2433 11.9761C49.1267 12.1218 48.9956 12.2675 48.8062 12.4861C50.2194 12.4861 51.5307 12.4861 52.8711 12.4861C52.8711 9.74701 52.8711 7.05164 52.8711 4.35628C52.2883 4.13773 52.0989 3.89005 52.1717 3.49668C52.2446 3.1033 52.536 2.94303 53.1333 2.92846C53.279 2.92846 53.4247 2.91389 53.585 2.89932C53.5704 2.38939 53.5704 1.9086 53.5704 1.39866ZM30.7545 4.32714C30.7545 5.74038 30.7545 7.10992 30.7545 8.47946C30.7545 8.5523 30.842 8.68343 30.9148 8.71257C31.8473 9.0331 32.7797 9.33906 33.785 9.65959C33.785 9.06224 33.7704 8.53773 33.785 8.0278C33.8433 6.78939 33.5665 5.52184 34.1784 4.31257C33.0274 4.32714 31.9201 4.32714 30.7545 4.32714Z" fill="#3F3F3F"/>
</g>
<defs>
<clipPath id="clip0_739_17662">
<rect width="55" height="44.6702" fill="white"/>
</clipPath>
</defs>
</svg>
