<svg width="52" height="47" viewBox="0 0 52 47" fill="none" xmlns="http://www.w3.org/2000/svg">
<g clip-path="url(#clip0_739_17653)">
<path d="M13.1061 24.4232C13.8442 25.0718 14.7388 25.3961 15.8347 25.4184C15.8794 25.4184 15.9241 25.4184 15.9689 25.4184C17.0648 25.4184 17.9594 25.1165 18.7087 24.5126C19.4803 23.8864 20.0059 23.0141 20.319 21.8511C20.6657 20.5875 20.7327 19.2455 20.5203 17.7359C20.2407 15.667 18.9659 14.3027 16.9194 13.889C16.774 13.8554 16.6398 13.8442 16.4945 13.8219C16.4274 13.8107 16.3603 13.7995 16.2932 13.7883H15.4992L15.3538 13.8107C15.2532 13.8331 15.1637 13.8442 15.0631 13.8666C13.7323 14.0903 12.7259 14.7501 12.0437 15.8348C11.63 16.5057 11.3951 17.2885 11.3168 18.3174C11.205 19.827 11.328 21.1242 11.7194 22.2761C12.0437 23.1819 12.491 23.8752 13.1061 24.4232ZM12.7035 18.0154C12.8712 16.8301 13.3521 16.0249 14.202 15.5552C14.7052 15.2645 15.2532 15.1303 15.8794 15.1303C16.1254 15.1303 16.3938 15.1526 16.6622 15.1974C17.5345 15.3427 18.1831 15.7341 18.6416 16.3939C18.9547 16.8412 19.1448 17.3892 19.2343 18.0713C19.2678 18.3062 19.279 18.5522 19.3014 18.7759C19.3125 18.8765 19.3125 18.9883 19.3237 19.089C19.3237 19.9948 19.2678 21.0571 18.8652 22.0748C18.4179 23.1931 17.7134 23.8305 16.7181 24.0094C16.4274 24.0653 16.1366 24.0877 15.8794 24.0877C14.996 24.0877 14.2915 23.7858 13.7323 23.1595C13.2515 22.6116 12.9383 21.907 12.7706 20.9341C12.5805 19.9836 12.5693 18.9995 12.7035 18.0154Z" fill="black"/>
<path d="M22.7777 26.9506C21.8719 26.7046 20.9996 26.3244 20.0827 25.7988C19.9596 25.7317 19.8478 25.6534 19.7248 25.5863C19.5794 25.4968 19.4341 25.4074 19.2887 25.3291C19.1769 25.262 19.0762 25.2396 18.9644 25.2396C18.8302 25.2396 18.696 25.2844 18.573 25.385C18.3605 25.5416 18.271 25.7652 18.3158 26.0224C18.3605 26.2908 18.5394 26.4362 18.6848 26.5256C19.9261 27.3308 21.1674 27.9011 22.4758 28.259C23.0685 28.4267 23.4375 28.7957 23.6052 29.4108C23.8624 30.3613 23.7953 31.3231 23.7059 32.0499C23.6947 32.1058 23.6276 32.1841 23.5717 32.2177C22.5764 32.7545 21.447 33.157 20.1162 33.4701C18.7631 33.7833 17.3876 33.9398 16.0121 33.9398C14.9386 33.9398 13.8427 33.8392 12.7467 33.6491C11.17 33.3695 9.71621 32.8998 8.40782 32.24C8.28481 32.1729 8.22889 32.1058 8.21771 31.9717C8.12825 31.077 8.13943 30.3502 8.26244 29.6904C8.40782 28.874 8.83277 28.4044 9.55965 28.2366C9.8504 28.1695 10.13 28.0689 10.376 27.9794C11.3824 27.6104 12.3665 27.1183 13.2835 26.5145C13.4848 26.3803 13.6078 26.179 13.6302 25.9665C13.6414 25.7652 13.5631 25.5751 13.4065 25.4297C13.2835 25.3179 13.1381 25.262 12.9928 25.262C12.8474 25.262 12.6908 25.3179 12.5343 25.4074C11.3713 26.1566 10.2642 26.671 9.16825 26.9618C7.92696 27.2973 7.20008 28.136 6.95406 29.5114C6.80868 30.3166 6.7975 31.1777 6.92051 32.2065C6.96524 32.6203 7.09943 33.1235 7.7033 33.3695C7.89341 33.4478 8.0947 33.5484 8.27363 33.6379C8.44137 33.7274 8.60911 33.8056 8.78803 33.8839C10.9575 34.7897 13.2835 35.2482 15.9227 35.2706L15.9338 35.3377L16.0009 35.3265C16.3252 35.2929 16.6495 35.2706 16.9738 35.237C17.6895 35.1699 18.4276 35.114 19.1433 35.0022C20.9996 34.7338 22.7553 34.1635 24.3769 33.3024C24.7459 33.1011 24.9472 32.8215 25.0031 32.4078C25.1596 31.3678 25.1485 30.4172 24.9919 29.5003C24.7571 28.1248 24.0302 27.2973 22.7777 26.9506Z" fill="black"/>
<path d="M51.9777 35.606C51.754 32.8662 50.6357 30.5402 48.634 28.7174C48.3097 28.4267 48.1755 28.1024 48.1755 27.6439C48.1755 24.043 48.1755 20.4422 48.1755 16.8413C48.1755 12.9944 48.1755 7.78323 48.1867 3.88043C48.1867 2.50495 47.717 1.47613 46.7553 0.726882C46.1179 0.234839 45.3351 0 44.3063 0C39.7101 0 33.1011 0 26.6822 0H12.3346C11.4959 0 8.11871 0 7.26882 0C6.09463 0 4.92043 0 3.74624 0C2.18065 0.0111828 1.04 0.693333 0.369032 2.03527C0.246022 2.27011 0.178925 2.53849 0.100645 2.81806C0.0670968 2.94108 0.0335484 3.06409 0 3.1871V39.5983C0.167742 40.2357 0.391398 40.9626 0.91699 41.5217C1.55441 42.2039 2.29247 42.5841 3.16473 42.6847C3.45549 42.7183 3.75742 42.7183 4.02581 42.7183C7.05635 42.7183 11.1828 42.7183 15.5217 42.7183C20.923 42.7183 28.382 42.7183 33.1906 42.7071C33.6043 42.7071 33.8951 42.8301 34.1523 43.1097C35.9303 45.0779 38.1669 46.2073 40.7949 46.4757C40.8731 46.4869 40.9402 46.5092 40.9962 46.5204C41.0073 46.5204 41.0073 46.5204 41.0185 46.5316H42.6512C42.942 46.4533 43.2439 46.3974 43.5346 46.3303C44.1721 46.1849 44.8319 46.0396 45.4469 45.8159C49.5174 44.351 52.3243 39.9673 51.9777 35.606ZM1.39785 3.7686C1.40903 2.28129 2.29247 1.39785 3.7686 1.39785C9.46065 1.39785 16.8525 1.39785 24.2331 1.39785C31.5243 1.39785 38.7931 1.39785 44.4181 1.39785C45.9054 1.39785 46.7888 2.29247 46.8 3.80215C46.8 4.61849 46.8 5.42366 46.8 6.25118V7.61548H1.45376L1.4314 7.38064C1.4314 7.33591 1.42022 7.30237 1.42022 7.25763C1.40903 7.16817 1.39785 7.07871 1.39785 6.98925V6.36301C1.39785 5.5243 1.38667 4.64086 1.39785 3.7686ZM3.89162 41.3092C2.23656 41.3092 1.39785 40.4594 1.39785 38.7931C1.39785 31.871 1.39785 24.9488 1.39785 18.0267V9.06925H46.7777V27.2637L46.4198 27.1183C44.6977 26.3914 43.0426 26.0224 41.4994 26.0224C38.9162 26.0224 36.5789 27.0512 34.5437 29.0753C31.2895 32.3295 30.6409 36.3329 32.5979 40.9514L32.7432 41.3092H3.89162ZM48.019 42.517C46.3415 44.2056 44.1162 45.1338 41.7678 45.1338C36.9368 45.1338 32.9781 41.1751 32.9445 36.3217C32.9222 33.9733 33.828 31.7591 35.483 30.0929C37.1493 28.4043 39.3746 27.4649 41.7566 27.4649H41.7901C46.6435 27.4649 50.6022 31.4237 50.6245 36.2882C50.6134 38.6142 49.6964 40.8396 48.019 42.517Z" fill="black"/>
<path d="M45.5252 35.5948C45.3463 35.5836 45.145 35.5836 44.8989 35.5836C44.7536 35.5836 44.597 35.5836 44.4516 35.5836C44.2951 35.5836 44.1497 35.5836 43.9931 35.5836H42.4611C42.4611 35.5836 42.4611 34.8456 42.4611 34.7338C42.4611 34.4989 42.4611 34.2753 42.4611 34.0404C42.4611 33.526 42.4723 32.9892 42.4499 32.4636C42.4387 32.0611 42.148 31.7815 41.7789 31.7815C41.7007 31.7815 41.6112 31.7927 41.5329 31.8262C41.2422 31.9269 41.0744 32.2064 41.0744 32.6202C41.0744 33.2464 41.0744 33.8503 41.0744 34.5101C41.0744 34.7897 41.0744 35.5948 41.0744 35.5948H40.8172C40.5265 35.5948 40.2357 35.5948 39.945 35.5948C39.6654 35.5948 39.397 35.5948 39.1286 35.5948C38.7148 35.5948 38.3794 35.5948 38.0662 35.606C37.7643 35.606 37.5183 35.7178 37.3841 35.9079C37.2611 36.0757 37.2387 36.2882 37.2946 36.5118C37.3282 36.6348 37.4288 36.9927 38.0998 36.9927C38.4576 36.9927 38.8155 36.9927 39.1845 36.9927C39.4529 36.9927 39.7101 36.9927 39.9785 36.9927C40.2581 36.9927 40.5265 36.9927 40.8172 36.9927H41.0744V37.8873C41.0744 38.4017 41.0744 38.8938 41.0744 39.3858C41.0744 39.4529 41.0744 39.5088 41.0744 39.5759C41.0744 39.8107 41.0744 40.0232 41.108 40.2357C41.1639 40.56 41.4435 40.806 41.7678 40.806H41.7901C42.148 40.7948 42.4164 40.5264 42.4499 40.1574C42.4723 39.9449 42.4723 39.7213 42.4611 39.4976C42.4611 39.4305 42.4611 39.3522 42.4611 39.2851C42.4611 38.8155 42.4611 38.357 42.4611 37.8761V36.9927H43.3557C43.5458 36.9927 43.7471 36.9927 43.9372 36.9927C44.1273 36.9927 44.3286 36.9927 44.5187 36.9927C44.9213 36.9927 45.2344 36.9927 45.5252 36.9815C45.9613 36.9703 46.2633 36.6907 46.2633 36.2993C46.2744 35.8968 45.9725 35.606 45.5252 35.5948Z" fill="black"/>
<path d="M4.95574 5.4684C5.44778 5.4684 5.89509 5.03227 5.90628 4.54023C5.91746 4.01463 5.47015 3.57851 4.94456 3.58969C4.43015 3.60087 4.01638 4.01463 4.02757 4.52904C4.02757 5.03227 4.45251 5.4684 4.95574 5.4684Z" fill="black"/>
<path d="M12.6254 5.46841C13.1399 5.44604 13.5424 5.0211 13.5313 4.50669C13.5201 3.99228 13.1063 3.57852 12.5919 3.5897C12.0887 3.5897 11.6525 4.01465 11.6525 4.51787C11.6414 5.03228 12.111 5.49077 12.6254 5.46841Z" fill="black"/>
<path d="M8.78985 5.46843C9.29307 5.45725 9.71802 5.02112 9.71802 4.51789C9.71802 4.00349 9.29307 3.58972 8.77866 3.58972C8.26425 3.58972 7.83931 3.9923 7.82812 4.50671C7.82813 5.02112 8.27544 5.47961 8.78985 5.46843Z" fill="black"/>
</g>
<defs>
<clipPath id="clip0_739_17653">
<rect width="52" height="46.5316" fill="white"/>
</clipPath>
</defs>
</svg>
