<svg width="62" height="45" viewBox="0 0 62 45" fill="none" xmlns="http://www.w3.org/2000/svg">
<g clip-path="url(#clip0_739_17595)">
<path d="M61.5519 16.1377V16.0785C61.5519 15.5656 61.5322 15.0329 61.5322 14.5002C61.5322 11.9356 59.9342 10.3376 57.3696 10.3179C56.9947 10.3179 56.6199 10.3179 56.2451 10.3179H54.8444C54.2328 10.3179 53.5028 10.3179 52.7532 10.2981C52.5164 10.2981 52.1021 10.1798 51.9838 9.92329C51.3525 8.7396 50.4055 8.20694 48.8667 8.20694C47.4463 8.20694 46.381 8.12803 45.4143 7.95047C42.4551 7.39808 39.8904 5.83956 37.7992 3.33408C35.9448 1.10479 33.5971 -0.0197144 30.8549 -0.0197144C30.4998 -0.0197144 30.1249 1.38339e-05 29.7501 0.0394702C27.3433 0.295937 25.3113 1.38099 23.733 3.31435C21.7602 5.72119 19.3731 7.24026 16.6703 7.81238C15.4077 8.08857 14.0662 8.14775 12.7839 8.18721L12.3696 8.20694C11.0478 8.26612 10.1995 8.75933 9.66681 9.72601C9.41035 10.1995 9.09469 10.2981 8.70013 10.2981H8.1872C7.47698 10.2981 6.76677 10.2784 6.05655 10.2784C5.16879 10.2784 4.43884 10.2784 3.72863 10.2981C2.05173 10.3376 0.65103 11.4424 0.157826 13.0995C0.118369 13.2179 0.0789128 13.3165 0.0394564 13.4152L0.0197282 13.4546L0 13.573V20.399C0.0789128 20.6752 0.138097 20.9513 0.21701 21.2473C0.374836 21.8786 0.512933 22.4901 0.769399 23.0425C2.52521 26.9487 5.68172 29.4147 10.1206 30.3222C10.5349 30.4011 10.7519 30.5787 10.9097 30.9733C13.0206 36.2407 16.5914 40.1666 21.5629 42.6524C24.6997 44.2306 27.6786 44.9803 30.6773 44.9803C31.9202 44.9803 33.1828 44.8422 34.4257 44.566C42.1197 42.8496 47.5844 38.2727 50.6225 30.9338C50.7804 30.559 50.9974 30.4011 51.3722 30.3222C53.3647 29.9671 55.16 29.1977 56.7185 28.0338C59.5989 25.8637 61.1574 23.3385 61.4336 20.2609C61.5914 18.9193 61.5717 17.4989 61.5519 16.1377ZM29.0004 1.83474C29.6515 1.69664 30.3025 1.61773 30.9141 1.61773C33.1039 1.61773 34.9978 2.54495 36.5366 4.35994C38.9237 7.2008 41.8632 8.97634 45.2959 9.60764C46.2429 9.78519 47.2293 9.86411 48.2551 9.86411C48.3735 9.86411 48.4919 9.86411 48.63 9.86411C48.6892 9.86411 48.7286 9.86411 48.7878 9.86411C49.5769 9.86411 50.0504 10.0022 50.3266 10.3179C50.6817 10.7124 50.6817 11.3437 50.5831 12.1328L50.5633 12.3104L50.3858 12.3301C49.7348 12.3696 49.1035 12.409 48.4919 12.409C42.7313 12.409 38.2332 10.3376 34.7413 6.0763C33.6957 4.79396 32.295 4.10348 30.8154 4.10348C29.3358 4.10348 27.9351 4.81369 26.8698 6.09602C23.9697 9.60764 20.32 11.6791 15.9996 12.2315C14.9342 12.3696 13.8689 12.3893 12.7444 12.409C12.2512 12.4288 11.7185 12.4288 11.2056 12.4485L10.9689 12.4682V12.2315C10.9689 12.0934 10.9689 11.9553 10.9689 11.8172V11.7975C10.9689 11.5213 10.9491 11.2451 10.9886 10.9886C11.0281 10.5151 11.3043 9.96275 12.3498 9.90356C12.7247 9.88383 13.1192 9.86411 13.4941 9.84438C14.4213 9.80492 15.388 9.76547 16.2955 9.60764C19.7479 8.99607 22.6677 7.24026 24.9956 4.3994C26.0609 3.03815 27.4222 2.18984 29.0004 1.83474ZM10.9886 17.4989C11.0083 16.473 11.0478 15.3091 11.0478 14.1649V13.9478H11.2648C11.6791 13.9478 12.0934 13.9478 12.5077 13.9676C12.922 13.9676 13.3363 13.9873 13.7505 13.9873C14.3029 13.9873 14.7764 13.9676 15.2104 13.9478C20.2608 13.5533 24.5024 11.3832 27.8167 7.45727C28.4678 6.66814 29.0991 6.01711 30.1052 5.83956C30.342 5.8001 30.5787 5.78037 30.8154 5.78037C31.861 5.78037 32.7488 6.23412 33.4787 7.14162C35.5305 9.70628 38.1346 11.6199 41.1925 12.8036C43.3034 13.6125 45.5721 14.007 48.0973 14.007H48.2354C48.4919 14.007 48.7484 14.007 49.0048 14.007H50.5436L50.5633 14.2043C50.5633 14.2635 50.5831 14.3227 50.5831 14.3819C50.6028 14.5002 50.6028 14.5989 50.6028 14.7172C50.6028 15.5656 50.6028 16.4139 50.6225 17.2622C50.6423 19.1561 50.6423 21.1289 50.5831 23.0623C50.4252 28.1719 48.5313 32.9855 45.2367 36.655C41.9619 40.3047 37.4244 42.6326 32.4923 43.2245C31.8413 43.3034 31.1903 43.3428 30.5392 43.3428C27.3235 43.3428 24.0881 42.3564 20.9316 40.4231C15.0329 36.7931 11.7185 31.4665 11.107 24.5813C10.89 22.2731 10.9294 19.9452 10.9886 17.4989ZM51.7668 28.5072L51.4708 28.527L51.53 28.2311C52.3389 24.7786 52.2797 21.2078 52.2205 17.7554C52.2008 16.1969 52.1613 14.5791 52.2205 13.0009C52.2205 12.9022 52.2205 12.8036 52.2205 12.705C52.2205 12.5866 52.2205 12.4682 52.2205 12.3301C52.2205 12.2512 52.26 12.2118 52.2797 12.1526C52.2994 12.1328 52.2994 12.1131 52.3192 12.0737L52.3783 11.9553H55.1797C55.3968 11.9553 55.594 11.9553 55.811 11.9553H55.8702C56.0872 11.9553 56.324 11.9553 56.541 11.9553C56.975 11.9553 57.3498 11.9553 57.6655 11.975C58.8689 12.0145 59.7961 12.8628 59.8356 13.9676L59.8553 14.3819C59.9145 16.3152 59.9737 18.3078 59.7961 20.2806C59.5594 23.0031 58.0995 25.2126 55.3178 27.0671C54.0947 27.8759 52.694 28.4481 51.7668 28.5072ZM1.69662 20.1819C1.5388 18.4064 1.59798 16.5914 1.63744 14.8356L1.65717 14.007C1.6769 12.9417 2.60412 12.0145 3.66944 11.975C4.32047 11.9553 5.01096 11.9553 5.879 11.9553C6.39193 11.9553 6.92459 11.9553 7.43753 11.9553C7.97019 11.9553 8.50285 11.9553 9.03551 11.9553H9.23279L9.25252 12.1526C9.37089 14.0859 9.33143 16.039 9.3117 17.9329C9.25252 21.3459 9.21306 24.8575 10.0219 28.2902L10.1008 28.6256L9.76545 28.5467C8.48312 28.2508 7.31916 27.7576 6.19465 27.0079C3.39325 25.1732 1.93336 22.9439 1.69662 20.1819Z" fill="#3F3F3F"/>
<path d="M17.1237 32.5713C21.2666 34.5441 25.8238 35.6686 29.947 35.6883H29.9865C34.3069 35.6883 37.9369 35.0965 41.4288 33.7944C42.5336 33.3999 43.5989 32.9067 44.5853 32.4529C44.8023 32.3543 44.9602 32.1964 45.0193 31.9992C45.0785 31.8019 45.0785 31.5849 44.9602 31.3876C44.8221 31.0917 44.5656 30.9338 44.2499 30.9338C44.1118 30.9338 43.9935 30.9536 43.8554 31.0127C43.737 31.0719 43.5989 31.1311 43.4608 31.1903C43.3819 31.2298 43.303 31.2692 43.2043 31.3087C39.1995 33.1237 35.0369 34.0312 30.815 34.0312C29.3552 34.0312 27.8755 33.9128 26.3959 33.7155C23.4959 33.3012 20.6945 32.4332 17.8142 31.1114C17.6563 31.0325 17.4393 30.993 17.2421 30.993C17.104 30.993 16.9856 31.0127 16.8869 31.0522C16.7094 31.1311 16.5121 31.4862 16.4727 31.8019C16.4727 32.0386 16.5121 32.2951 17.1237 32.5713Z" fill="#3F3F3F"/>
<path d="M44.1893 23.7725C44.1104 23.7725 44.0315 23.7725 43.9526 23.7922C43.775 23.8316 43.6172 23.8711 43.4397 23.9303C43.3805 23.95 43.3213 23.9697 43.2818 23.9895C39.2178 25.1929 35.0157 25.7847 30.7544 25.7847C30.5177 25.7847 30.281 25.7847 30.0245 25.7847C25.9802 25.7255 21.8767 25.0745 17.8325 23.8711C17.6549 23.8119 17.4971 23.7922 17.3393 23.7922C16.9447 23.7922 16.6685 23.9895 16.5699 24.3446C16.4318 24.8575 16.708 25.2521 17.359 25.4494C21.7781 26.7711 26.1972 27.4419 30.5177 27.4419H30.6755C33.9701 27.4419 37.0083 27.146 39.9478 26.5147C41.3287 26.2188 42.69 25.8439 44.0315 25.4691L44.3669 25.3704C44.8601 25.2323 45.0771 24.8575 44.9587 24.384C44.8798 23.9697 44.5839 23.7725 44.1893 23.7725Z" fill="#3F3F3F"/>
<path d="M17.5793 19.2153C21.8998 19.8466 26.3189 20.182 30.738 20.2609C31.4088 20.2214 32.0598 20.2017 32.7306 20.182H32.77C34.2891 20.1228 35.8476 20.0636 37.3667 19.9452C39.3395 19.7874 41.3518 19.5309 43.3049 19.2745L44.2518 19.1561C44.528 19.1166 44.7253 19.018 44.8634 18.8404C44.9818 18.6826 45.0212 18.4656 44.9818 18.2289C44.9226 17.8146 44.6069 17.5581 44.1334 17.5581C44.0743 17.5581 44.0348 17.5581 43.9756 17.5581C43.2259 17.637 42.4565 17.7159 41.7069 17.8146C39.8722 18.0316 37.9783 18.2289 36.1041 18.3867C34.368 18.5248 32.5727 18.584 30.738 18.584C28.055 18.584 25.3325 18.4459 22.4127 18.15C21.3671 18.0513 20.3215 17.9132 19.3154 17.7751C18.7235 17.6962 18.1317 17.6173 17.5399 17.5581C17.5004 17.5581 17.4412 17.5581 17.4018 17.5581C17.0861 17.5581 16.8099 17.6962 16.6521 17.9329C16.514 18.15 16.4943 18.4064 16.5929 18.6826C16.7705 19.0377 17.0664 19.1364 17.5793 19.2153Z" fill="#3F3F3F"/>
</g>
<defs>
<clipPath id="clip0_739_17595">
<rect width="61.5717" height="45" fill="white"/>
</clipPath>
</defs>
</svg>
