<svg width="54" height="55" viewBox="0 0 54 55" fill="none" xmlns="http://www.w3.org/2000/svg">
<g clip-path="url(#clip0_739_17560)">
<path d="M21.071 29.6968C22.0066 29.6968 22.9423 29.6968 23.9186 29.6968C24.8543 29.6968 25.7899 29.6968 26.7662 29.6968C27.4171 29.6968 27.7019 29.412 27.7019 28.7611C27.7019 26.8898 27.7019 24.9778 27.7019 23.0658C27.7019 22.415 27.4171 22.1709 26.7662 22.1302C26.4001 22.1302 26.034 22.1302 25.6679 22.1302H23.9593C23.9593 22.1302 22.4948 22.1302 22.2507 22.1302C21.8846 22.1302 21.4778 22.1302 21.1117 22.1302C20.4608 22.1302 20.2167 22.415 20.2167 23.0658C20.2167 24.9778 20.2167 26.9305 20.2167 28.7611C20.1353 29.412 20.4201 29.6968 21.071 29.6968ZM21.6812 23.676H26.1154V28.1509H21.6812V23.676Z" fill="#3F3F3F"/>
<path d="M26.8067 34.2529C26.4406 34.2529 26.0338 34.2529 25.6676 34.2529C25.3829 34.2529 25.0981 34.2529 24.8134 34.2529H23.9184C23.6336 34.2529 23.3489 34.2529 23.0641 34.2529C23.0641 34.2529 22.4539 34.2529 22.2098 34.2529C21.803 34.2529 21.4369 34.2529 21.0301 34.2529C20.4199 34.2529 20.1758 34.5377 20.1758 35.1072C20.1758 36.9785 20.1758 38.8498 20.1758 40.9245C20.1758 41.5347 20.4605 41.8195 21.0708 41.8195C22.0064 41.8195 22.9827 41.8195 23.9184 41.8195C24.8947 41.8195 25.8304 41.8195 26.8067 41.8195C27.4576 41.8195 27.7017 41.5347 27.7424 40.9245C27.7424 38.8905 27.7424 37.0192 27.7424 35.1886C27.7017 34.5377 27.4169 34.2529 26.8067 34.2529ZM26.1558 40.2736H21.681V35.7988H26.1558V40.2736Z" fill="#3F3F3F"/>
<path d="M12.6911 22.1708C12.325 22.1708 11.9182 22.1708 11.5521 22.1708C11.2673 22.1708 10.9419 22.1708 10.6571 22.1708C10.3723 22.1708 10.0876 22.1708 9.80282 22.1708H9.76213C9.47737 22.1708 9.19261 22.1708 8.90784 22.1708C8.62308 22.1708 8.33832 22.1708 8.05355 22.1708C7.64675 22.1708 7.28063 22.1708 6.87382 22.1708C6.26361 22.1708 6.01953 22.4556 6.01953 23.0251C6.01953 24.8557 6.01953 26.7677 6.01953 28.8424C6.01953 29.4526 6.30429 29.7374 6.9145 29.7374C7.85015 29.7374 8.82648 29.7374 9.76213 29.7374C10.7385 29.7374 11.6741 29.7374 12.6504 29.7374C13.3013 29.7374 13.5454 29.4526 13.5454 28.8424C13.5454 26.7677 13.5454 24.8964 13.5454 23.1065C13.5861 22.4149 13.342 22.1708 12.6911 22.1708ZM12.0402 28.1509H7.56539V23.676H12.0402V28.1509Z" fill="#3F3F3F"/>
<path d="M35.1466 29.6967C35.5127 29.6967 35.9195 29.6967 36.2856 29.6967H37.9942H39.7435C40.1096 29.6967 40.5164 29.6967 40.8825 29.6967C41.4927 29.6967 41.7775 29.412 41.7775 28.8018C41.7775 26.9711 41.7775 25.0998 41.7775 23.0658C41.7775 22.4556 41.5334 22.1708 40.9232 22.1708C39.9469 22.1708 38.9706 22.1708 37.9942 22.1708C37.0179 22.1708 36.0822 22.1708 35.1059 22.1708C34.4957 22.1708 34.2516 22.4149 34.2109 23.0658C34.2109 24.9371 34.2109 26.8898 34.2109 28.8018C34.2516 29.4526 34.4957 29.6967 35.1466 29.6967ZM35.7975 23.676H40.2723V28.1509H35.7975V23.676Z" fill="#3F3F3F"/>
<path d="M12.6934 34.2529C11.7171 34.2529 10.7408 34.2529 9.8051 34.2529C8.82877 34.2529 7.85244 34.2529 6.91679 34.2529C6.30658 34.2529 6.0625 34.5377 6.0625 35.1479C6.0625 37.2226 6.0625 39.0939 6.0625 40.8839C6.0625 41.4941 6.34726 41.7788 6.95747 41.7788C7.36428 41.7788 7.7304 41.7788 8.1372 41.7788H9.88647H11.595C11.9612 41.7788 12.3273 41.7788 12.6934 41.7788C13.3443 41.7788 13.5884 41.5347 13.5884 40.8839C13.5884 38.8905 13.5884 36.9785 13.5884 35.1479C13.5884 34.497 13.3443 34.2529 12.6934 34.2529ZM12.0425 40.2736H7.56768V35.7988H12.0425V40.2736Z" fill="#3F3F3F"/>
<path d="M50.037 36.3683C49.3861 35.7175 48.6132 35.1479 47.8402 34.6598V34.5377C47.8402 26.0355 47.8402 17.4926 47.8402 8.99039C47.8402 6.63092 46.4571 4.75962 44.301 4.19009C43.8129 4.06805 43.284 4.02737 42.8365 4.02737C42.3077 4.02737 41.7382 4.02737 41.0059 4.02737C40.5991 4.02737 40.233 4.02737 39.8262 4.02737C39.4194 4.02737 39.0126 4.02737 38.6465 4.02737H37.7922V3.09172C37.7922 2.84763 37.7922 2.64423 37.7922 2.40015C37.7922 1.8713 37.7922 1.30178 37.7922 0.732248C37.7515 0.325444 37.426 0 37.0192 0C36.6124 0 36.287 0.325444 36.287 0.772929C36.287 1.34246 36.287 1.91198 36.287 2.48151C36.287 2.72559 36.287 2.96967 36.287 3.21376V3.98669H11.5939V2.68491C11.5939 2.48151 11.5939 2.27811 11.5939 2.11538C11.5939 1.6679 11.5939 1.22041 11.5939 0.772929C11.5939 0.325444 11.2685 0 10.8617 0H10.821C10.4142 0 10.0888 0.325444 10.0888 0.772929C10.0888 1.34246 10.0888 1.91198 10.0888 2.48151V2.52219C10.0888 2.76627 10.0888 3.01035 10.0888 3.25444V4.06805H8.86834C8.46154 4.06805 8.09542 4.06805 7.68861 4.06805C7.28181 4.06805 6.91568 4.06805 6.50888 4.06805C5.77663 4.06805 5.2071 4.06805 4.63757 4.06805C2.31879 4.10873 0.488166 5.69527 0.081361 8.01405C0.081361 8.09542 0.0406805 8.17678 0 8.21746V43.7315C0 43.8129 0.0406805 43.8535 0.0406805 43.9349V43.9756C0.081361 44.179 0.162722 44.3417 0.203402 44.5451C0.81361 46.2537 2.03402 47.3521 3.82396 47.7996C3.90533 47.7996 3.98669 47.8402 4.06805 47.8809H4.10873H32.0155C33.5614 52.071 37.5888 55.0407 42.3077 55.0407C48.3284 55.0407 53.2101 50.159 53.2101 44.1383C53.2507 41.1686 52.1117 38.4431 50.037 36.3683ZM1.50518 13.4246C1.50518 11.9601 1.50518 10.5362 1.50518 9.07175C1.50518 6.83432 2.84763 5.49186 5.08506 5.49186H6.79364H10.0481V6.50888C10.0481 6.75296 10.0481 6.95636 10.0481 7.20044C10.0481 7.72929 10.0481 8.25814 10.0481 8.78698C10.0481 9.23447 10.3735 9.55991 10.7803 9.55991C11.1871 9.55991 11.5126 9.23447 11.5126 8.78698C11.5126 8.09541 11.5126 7.40385 11.5126 6.71228C11.5126 6.42752 11.5126 6.10207 11.5126 5.81731V5.57323H36.1649C36.1649 5.57323 36.1649 6.71228 36.1649 6.95636C36.1649 7.15976 36.1649 7.32249 36.1649 7.52589C36.1649 7.97337 36.1649 8.42086 36.1649 8.82766C36.1649 9.23447 36.4904 9.55991 36.8972 9.55991H36.9379C37.3447 9.55991 37.6294 9.23447 37.6701 8.82766C37.6701 8.25814 37.6701 7.64793 37.6701 7.0784C37.6701 6.83432 37.6701 6.59024 37.6701 6.34615C37.6701 6.22411 37.6701 5.53254 37.6701 5.53254H39.7855H41.6568C42.0636 5.53254 42.4297 5.53254 42.8365 5.53254C44.7078 5.53254 46.1317 6.875 46.1723 8.66494C46.213 10.3328 46.213 12.0007 46.213 13.5873C46.213 14.2788 46.213 14.9297 46.213 15.6213C46.213 15.7027 46.1723 15.7433 46.1723 15.784V15.8247L46.1317 15.9874H1.50518V13.4246ZM23.9201 46.3351C17.6553 46.3351 11.3499 46.3351 5.08506 46.3351C2.88831 46.3351 1.54586 44.9926 1.54586 42.7959C1.54586 35.1886 1.54586 27.5814 1.54586 19.9741V18.3876C1.54586 18.2655 1.54586 18.1842 1.54586 18.0621V17.8994V17.6553H46.3351V33.9275C45.074 33.4394 43.6908 33.1546 42.267 33.1546C39.3787 33.1546 36.6531 34.2936 34.5784 36.3683C32.5037 38.4431 31.3646 41.1686 31.3646 44.0976C31.3646 44.8706 31.446 45.6028 31.6087 46.3351H23.9201ZM49.02 50.7692C47.23 52.5592 44.8299 53.5762 42.3077 53.5762C39.8262 53.5762 37.4667 52.5999 35.6768 50.8099C33.8868 49.02 32.9105 46.6605 32.9105 44.1383C32.9105 41.6161 33.8868 39.216 35.6768 37.426C37.4667 35.6361 39.8262 34.6598 42.3891 34.6598C47.5962 34.6598 51.8269 38.8905 51.8676 44.057C51.7862 46.5791 50.8099 48.9793 49.02 50.7692Z" fill="#3F3F3F"/>
<path d="M47.2724 39.5008C47.191 39.4601 47.1096 39.4601 47.0283 39.4601C46.7842 39.4601 46.5401 39.5821 46.3367 39.8262C46.0519 40.1923 45.7672 40.5585 45.4824 40.9246C45.3604 41.0873 45.2383 41.25 45.1163 41.4127L41.2516 46.5792L41.211 46.5385C40.9262 46.3351 40.6414 46.091 40.316 45.8876C39.6244 45.3587 38.9735 44.8706 38.282 44.3824C38.0786 44.2197 37.8345 44.1383 37.6311 44.1383C37.387 44.1383 37.1429 44.2604 36.9802 44.5045C36.6954 44.9113 36.7768 45.3994 37.265 45.7656C38.4447 46.6605 39.6244 47.5555 40.8448 48.4505C41.0889 48.6132 41.2923 48.6945 41.4957 48.6945C41.7805 48.6945 42.0246 48.5318 42.228 48.2471C44.384 45.3994 46.1333 43.04 47.7198 40.8839C47.8419 40.6805 47.9232 40.3957 47.9232 40.111C47.8419 39.8262 47.6385 39.5821 47.2724 39.5008Z" fill="#3F3F3F"/>
</g>
<defs>
<clipPath id="clip0_739_17560">
<rect width="53.2507" height="55" fill="white"/>
</clipPath>
</defs>
</svg>
