<svg width="41" height="51" viewBox="0 0 41 51" fill="none" xmlns="http://www.w3.org/2000/svg">
<g clip-path="url(#clip0_739_17502)">
<path d="M40.5017 4.99175C40.5017 4.2885 40.3763 4.12302 39.7075 3.9024C34.0228 2.04084 28.1849 1.00664 22.2076 0.827381C14.9067 0.606752 7.77301 1.62716 0.834361 3.9024C0.0959111 4.1506 -0.00162004 4.27471 -0.00162004 5.0607C-0.00162004 8.35634 -0.00162004 11.6382 -0.00162004 14.9338C-0.00162004 17.5124 -0.0155531 20.1048 -0.00162004 22.6834C-0.00162004 23.5246 0.026246 24.3795 0.109844 25.2069C0.555701 29.7573 2.17193 33.8941 4.74954 37.6724C8.60899 43.326 13.8478 47.4352 19.8251 50.7033C20.0619 50.8274 20.4939 50.8136 20.7447 50.6757C25.9138 47.8627 30.5396 44.3602 34.2318 39.7546C38.1749 34.8042 40.4877 29.2471 40.5017 22.8765C40.5156 16.9195 40.5017 10.9625 40.5017 4.99175ZM39.0526 22.9178C39.0387 28.8059 36.9209 33.9493 33.3401 38.5549C29.8708 43.0226 25.454 46.401 20.5357 49.1727C20.3963 49.2554 20.1455 49.2692 20.0201 49.2002C13.8199 45.7116 8.46966 41.3403 4.84707 35.149C2.58992 31.3017 1.41955 27.1512 1.43348 22.6972C1.44741 20.0772 1.43348 17.4573 1.43348 14.8373C1.43348 11.7899 1.43348 8.74244 1.41955 5.68122C1.41955 5.32269 1.51708 5.17101 1.86541 5.0607C9.4589 2.68894 17.2057 1.80642 25.1196 2.42694C29.7036 2.78546 34.1761 3.66798 38.5511 5.03312C38.9272 5.14343 39.0666 5.29511 39.0666 5.70879C39.0526 11.4451 39.0666 17.1815 39.0526 22.9178Z" fill="#3F3F3F"/>
<path d="M35.2073 7.08772C32.0027 6.219 28.7284 5.63985 25.4124 5.33648C18.613 4.70218 11.9391 5.32269 5.34881 7.08772C4.5825 7.29456 4.48496 7.41867 4.48496 8.19087C4.48496 10.7695 4.48496 13.3619 4.48496 15.9405C4.48496 18.1605 4.4989 20.3806 4.48496 22.6145C4.4571 26.4203 5.41848 29.978 7.27157 33.2874C10.2393 38.6101 14.6421 42.5124 19.7695 45.6978C20.1317 45.9184 20.4522 45.877 20.7866 45.6702C24.8968 43.1192 28.5473 40.0717 31.4036 36.1556C34.2738 32.2118 36.0015 27.8682 36.0154 22.9592C36.0293 18.0088 36.0154 13.0723 36.0154 8.12192C36.0293 7.43246 35.9039 7.26698 35.2073 7.08772ZM29.5226 36.2521C27.0286 39.4098 23.9633 41.9471 20.5776 44.0982C20.4383 44.1947 20.1317 44.2085 19.9924 44.1258C15.3109 41.1473 11.2982 37.5207 8.56734 32.6531C6.81178 29.5229 5.90613 26.1721 5.934 22.5731C5.96186 18.0778 5.94793 13.5825 5.94793 9.07338C5.94793 8.86654 5.94793 8.6597 5.94793 8.4115C15.506 5.90184 25.0222 5.91563 34.5803 8.4115C34.5803 8.61834 34.5803 8.82518 34.5803 9.01823C34.5803 13.3067 34.4967 17.609 34.5942 21.8974C34.7196 27.3304 32.8665 32.0326 29.5226 36.2521Z" fill="#3F3F3F"/>
<path d="M22.9607 18.3398C23.2812 18.3398 23.4762 18.4225 23.5598 18.7535C23.6574 19.1534 23.7967 19.5395 23.9639 19.9256C24.0196 20.0497 24.1729 20.2013 24.3122 20.2289C24.5769 20.2703 24.8556 20.2427 25.1621 20.2427C25.1761 20.1048 25.2039 20.0359 25.19 19.9945C24.5212 18.0226 23.8664 16.0508 23.1418 14.0927C23.0861 13.941 22.6124 13.8721 22.3337 13.8721C22.1526 13.8721 21.86 13.9962 21.8043 14.1203C21.1215 16.037 20.4667 17.9537 19.8258 19.8842C19.7979 19.9807 19.8815 20.1876 19.9651 20.2289C20.4946 20.422 20.8986 20.2151 21.0658 19.6911C21.5117 18.326 21.5117 18.3398 22.9607 18.3398ZM22.3895 15.6095C22.4313 15.6095 22.473 15.6095 22.5009 15.6095C22.696 16.1749 22.891 16.7264 23.1 17.3332C22.6681 17.3332 22.278 17.3332 21.8182 17.3332C22.0133 16.754 22.1944 16.1749 22.3895 15.6095Z" fill="#3F3F3F"/>
<path d="M18.4603 23.5521C18.3071 23.0971 18.0284 23.1247 17.6662 23.0971C17.276 23.0833 17.0392 23.1523 16.8998 23.5797C16.3286 25.3448 15.7016 27.096 15.1025 28.861C15.0467 29.0265 15.005 29.2058 14.9492 29.385C15.9106 29.647 16.0499 29.5781 16.3286 28.7369C16.454 28.3646 16.5794 27.9923 16.7187 27.5924C17.276 27.5924 17.8055 27.5786 18.3489 27.6062C18.4743 27.62 18.6415 27.7579 18.6972 27.882C18.8644 28.2957 18.9898 28.7231 19.157 29.1368C19.2127 29.2747 19.3521 29.4402 19.4775 29.4678C19.7561 29.5229 20.0487 29.4815 20.4388 29.4815C20.3692 29.2196 20.3413 29.0679 20.2856 28.93C19.6865 27.1374 19.0455 25.3448 18.4603 23.5521ZM17.0252 26.6272C17.2342 25.9929 17.4432 25.3861 17.6801 24.6829C17.917 25.3861 18.112 25.9653 18.3349 26.6272C17.8473 26.6272 17.4711 26.6272 17.0252 26.6272Z" fill="#3F3F3F"/>
<path d="M29.7717 28.4887C29.1587 28.4887 28.5317 28.4887 27.9186 28.4887C27.9186 27.8406 27.9186 27.289 27.9186 26.6685C28.5595 26.6685 29.1447 26.6547 29.7438 26.6685C30.134 26.6823 30.3012 26.5996 30.3012 26.1583C30.3012 25.7171 30.12 25.6343 29.7299 25.6481C29.1308 25.6619 28.5317 25.6481 27.9465 25.6481C27.9465 25.0828 27.9465 24.6139 27.9465 24.0899C28.6849 24.0899 29.3816 24.0761 30.0643 24.0899C30.4544 24.0899 30.3987 23.8279 30.3987 23.5935C30.3987 23.3591 30.4684 23.0833 30.0782 23.0833C29.089 23.0833 28.0998 23.0695 27.0966 23.0971C26.9712 23.0971 26.7622 23.3039 26.7622 23.428C26.7343 25.3172 26.7482 27.2201 26.7622 29.1092C26.7622 29.2196 26.9433 29.4402 27.0408 29.4402C28.1833 29.4678 29.3259 29.454 30.4544 29.454C30.6774 28.5577 30.6216 28.4887 29.7717 28.4887Z" fill="#3F3F3F"/>
<path d="M13.2905 16.823C12.8447 16.561 12.3292 16.4093 11.8972 16.1197C11.7022 15.9818 11.4932 15.6095 11.5489 15.4027C11.6046 15.1683 11.9112 14.8649 12.162 14.8235C12.5382 14.7546 12.9561 14.8373 13.3323 14.9476C13.611 15.0304 13.7921 15.0579 13.8757 14.727C13.9454 14.4512 14.1962 14.0789 13.6946 13.9824C13.1233 13.8721 12.5242 13.7755 11.953 13.8307C11.0613 13.9272 10.5039 14.5064 10.3646 15.3061C10.2392 16.0508 10.6015 16.7127 11.4235 17.1539C11.7718 17.347 12.148 17.4711 12.5103 17.6503C12.9143 17.8572 13.1791 18.1467 13.0815 18.6432C12.9701 19.1534 12.566 19.3464 12.1062 19.305C11.5907 19.2637 11.0891 19.1258 10.5318 19.0155C10.072 19.7463 10.1138 19.9945 10.9916 20.1738C11.5768 20.2979 12.2038 20.2979 12.789 20.2151C13.4717 20.1048 13.9733 19.6636 14.1962 18.9741C14.4609 18.0916 14.1405 17.3056 13.2905 16.823Z" fill="#3F3F3F"/>
<path d="M12.9695 26.0342C12.5376 25.8136 12.0639 25.6619 11.6738 25.3861C11.4648 25.2344 11.2697 24.8621 11.3115 24.6277C11.3533 24.4071 11.6877 24.1175 11.9246 24.0761C12.3007 24.021 12.7187 24.1037 13.0949 24.2002C13.3597 24.2692 13.5408 24.3106 13.5965 23.9934C13.6523 23.7314 13.9866 23.428 13.4851 23.235C12.7048 22.9454 11.9246 22.8903 11.1443 23.235C9.8764 23.8003 9.7092 25.3723 10.8238 26.1859C11.0886 26.379 11.3951 26.5031 11.6877 26.6547C11.9385 26.7788 12.2032 26.8754 12.4401 27.0133C12.7745 27.2063 12.9556 27.551 12.8023 27.8958C12.6909 28.1578 12.3843 28.4749 12.1336 28.5025C11.6738 28.5577 11.1861 28.4336 10.7124 28.3508C10.4895 28.3095 10.2526 28.0337 10.1272 28.4473C10.0297 28.7645 9.76493 29.1644 10.3362 29.3161C10.7681 29.4402 11.2 29.5367 11.6459 29.647C13.1507 29.5919 14.0424 28.8197 13.9866 27.551C13.9588 26.8202 13.5687 26.3514 12.9695 26.0342Z" fill="#3F3F3F"/>
<path d="M24.9227 23.0971C23.9613 23.1109 23.0139 23.1109 22.0525 23.0971C21.7599 23.0971 21.6484 23.2212 21.6484 23.497C21.6484 25.3585 21.6484 27.2201 21.6624 29.0817C21.6624 29.2058 21.732 29.4126 21.8017 29.4264C22.0943 29.4678 22.4008 29.4953 22.6655 29.4126C22.7491 29.385 22.7909 29.0541 22.7909 28.861C22.8049 28.1578 22.7909 27.4683 22.7909 26.7375C23.4458 26.7375 24.031 26.7099 24.6022 26.7513C24.9924 26.7651 25.1178 26.6272 25.1178 26.2549C25.1178 25.8825 25.0202 25.7171 24.6162 25.7309C24.031 25.7584 23.4458 25.7309 22.8327 25.7309C22.8327 25.1793 22.8327 24.6829 22.8327 24.0899C23.5433 24.0899 24.226 24.0761 24.8948 24.0899C25.285 24.1037 25.3128 23.8831 25.2989 23.6073C25.285 23.3591 25.3407 23.0971 24.9227 23.0971Z" fill="#3F3F3F"/>
<path d="M27.0695 19.7187C26.9998 20.1738 27.2367 20.2565 27.6408 20.2565C28.0309 20.2565 28.2956 20.2014 28.2259 19.7325C27.9891 18.1605 28.4767 16.7954 29.4102 15.5544C29.6889 15.182 29.8979 14.7546 30.1208 14.3547C30.1905 14.2444 30.2323 14.1203 30.2741 13.9962C29.5496 13.679 29.1177 13.8031 28.7972 14.4098C28.4489 15.0855 28.0866 15.7474 27.6965 16.5196C27.3064 15.7612 26.958 15.0717 26.6097 14.3961C26.3032 13.8031 25.7877 13.6652 25.1328 14.0375C25.3975 14.5339 25.6344 15.0579 25.9549 15.513C26.8326 16.7816 27.2924 18.1605 27.0695 19.7187Z" fill="#3F3F3F"/>
<path d="M15.3814 14.8787C15.8412 14.8511 16.3149 14.8787 16.8304 14.8787C16.8304 15.1131 16.8304 15.2924 16.8304 15.4854C16.8304 16.8781 16.8444 18.2708 16.8165 19.6636C16.8026 20.091 16.914 20.2565 17.3878 20.2703C17.9033 20.2841 18.0008 20.091 17.9869 19.6498C17.959 18.0916 17.9729 16.5196 17.9729 14.8925C18.5163 14.8925 18.99 14.8787 19.4498 14.8925C19.8678 14.9063 19.826 14.6443 19.826 14.3823C19.826 14.1203 19.8678 13.8583 19.4498 13.8583C18.0705 13.8721 16.705 13.8721 15.3257 13.8583C14.9077 13.8583 14.9634 14.1341 14.9634 14.3823C15.0052 14.6443 14.9773 14.8925 15.3814 14.8787Z" fill="#3F3F3F"/>
</g>
<defs>
<clipPath id="clip0_739_17502">
<rect width="40.5172" height="50" fill="white" transform="translate(0 0.799805)"/>
</clipPath>
</defs>
</svg>
