<svg width="50" height="50" viewBox="0 0 50 50" fill="none" xmlns="http://www.w3.org/2000/svg">
<g clip-path="url(#clip0_739_17491)">
<path d="M2.74553 50C0.867107 49.5024 -0.012991 48.2452 0.000144838 46.0582C0.0264164 36.7994 0.0264164 27.3966 0.0264164 18.2949C0.0264164 15.1519 0.0264164 12.022 0.0264164 8.879C0.0264164 6.69199 1.34 5.38241 3.52054 5.38241H5.14938V4.63594C5.14938 4.24307 5.14938 3.86329 5.14938 3.48351C5.14938 1.33579 6.50236 -0.0130882 8.66977 -0.0130882H16.1309C19.9534 -0.0130882 24.3933 -0.0130882 28.7675 -0.0261841C29.201 -0.0261841 29.5426 0.104775 29.8709 0.379788C33.1418 3.16921 36.3732 5.91934 39.4995 8.5647C39.8673 8.879 40.0249 9.2195 40.0249 9.73023C40.0249 11.9565 40.0249 14.1828 40.0249 16.4091C40.0249 19.6307 40.0249 22.9571 40.0118 26.231C40.0118 26.8465 40.2745 27.1084 40.6817 27.3311C41.6669 27.8549 42.6652 28.3918 43.6241 28.9026C44.9246 29.6098 46.2776 30.3431 47.6174 31.0372C48.7208 31.6134 49.2068 32.4385 49.1937 33.7088C49.128 37.5851 47.8539 41.2651 45.2924 44.945C43.5453 47.4594 41.7194 49.0571 39.5389 49.9738H2.74553V50ZM3.53367 7.08487C2.31204 7.08487 1.72093 7.67418 1.72093 8.86591C1.72093 21.3986 1.72093 33.9445 1.72093 46.4772C1.72093 47.6951 2.31204 48.2845 3.52054 48.2845C8.1312 48.2845 12.755 48.2845 17.3657 48.2845C23.2636 48.2845 29.1485 48.2845 35.0464 48.2845C35.1515 48.2845 35.2566 48.2714 35.3354 48.2714C35.3748 48.2714 35.4011 48.2714 35.4274 48.2583L35.7164 48.2321L35.5325 48.0094C35.3092 47.7344 35.0727 47.4594 34.8494 47.1975C34.2714 46.5165 33.6803 45.8093 33.1286 45.0891C32.8528 44.7355 32.5901 44.6045 32.1697 44.6045C30.3176 44.6176 28.4917 44.6176 27.1124 44.6176H22.4755C22.3835 44.6176 22.3047 44.6176 22.2128 44.6176C21.6611 44.6176 21.0043 44.6176 20.2818 44.6176C16.0652 44.6176 9.36597 44.6045 8.1312 44.6045C7.98671 44.6045 7.84222 44.5783 7.67145 44.5521C6.09515 44.1855 5.12311 42.9152 5.12311 41.2127C5.12311 32.8182 5.12311 24.4369 5.12311 16.0424V7.08487H4.04597C3.8752 7.08487 3.70444 7.08487 3.53367 7.08487ZM30.8693 33.9314C30.8824 35.9089 31.3684 38.0435 32.2617 40.0733C33.746 43.4521 35.4931 45.8093 37.7656 47.4594C37.8838 47.5511 38.002 47.6297 38.094 47.6951C38.6194 48.088 38.869 48.2714 39.158 48.2714C39.4207 48.2714 39.644 48.1142 40.0643 47.8392C40.2088 47.7475 40.3664 47.6297 40.5635 47.5118C40.6686 47.4463 40.7737 47.3677 40.8656 47.2892L40.9313 47.2368C42.5864 45.9403 43.9657 44.2247 45.2661 41.8151C46.6979 39.1697 47.4335 36.5637 47.5123 33.8528C47.5255 33.198 47.3021 32.8182 46.7504 32.517C44.478 31.3253 42.1923 30.0812 39.9855 28.8764L39.6046 28.6669C39.4601 28.5883 39.3287 28.549 39.2105 28.549C39.0791 28.549 38.9478 28.5883 38.7901 28.6669L37.7524 29.23C35.8346 30.2776 33.838 31.3515 31.8676 32.373C31.1977 32.7266 30.6328 33.1325 30.8693 33.9314ZM17.8254 42.9282C19.8352 42.9282 21.6873 42.9282 22.8039 42.9282C23.2242 42.9282 23.6314 42.9282 24.0518 42.9282C24.3802 42.9282 26.0878 42.9282 26.0878 42.9282H31.6049L31.5786 42.758C31.5786 42.7187 31.5655 42.6925 31.5655 42.6663C31.5655 42.627 31.5523 42.5878 31.5392 42.5485C31.4998 42.4568 31.4472 42.3651 31.4078 42.2735L31.3422 42.1425C29.8841 39.2483 29.1616 36.472 29.1485 33.6433C29.1485 32.4123 29.6214 31.6134 30.6985 31.0634C32.1172 30.33 33.5358 29.5574 34.9151 28.8109C35.8609 28.3002 36.8461 27.7632 37.805 27.2525C38.1859 27.043 38.3435 26.7941 38.3435 26.362C38.3304 22.263 38.3304 18.0985 38.3304 14.065V10.2541H37.5554C37.3715 10.2541 37.1876 10.2541 37.0037 10.2541C36.5965 10.2541 36.2024 10.2541 35.7952 10.2541C35.388 10.2541 34.9939 10.2541 34.5867 10.2541C33.8117 10.2541 32.7871 10.2541 31.7494 10.2148C29.9366 10.1493 28.4523 8.76114 28.3078 6.9932C28.2158 5.94553 28.229 4.87167 28.229 3.8371C28.229 3.37874 28.229 2.90729 28.229 2.43584C28.229 2.30488 28.229 2.17392 28.229 2.04296V1.70247L28.0845 1.68937C28.0188 1.68937 27.9663 1.67628 27.9268 1.67628C27.8349 1.67628 27.7561 1.66318 27.6773 1.66318H17.4708C14.5021 1.66318 11.5334 1.66318 8.56468 1.66318C7.43501 1.66318 6.84389 2.27869 6.84389 3.45732C6.84389 16.0162 6.84389 28.5621 6.84389 41.121C6.84389 42.2996 7.43501 42.9021 8.61723 42.9021C8.8274 42.9021 9.22147 42.9021 9.74691 42.9021C9.74691 42.9282 16.144 42.9282 17.8254 42.9282ZM29.9498 3.02515C29.9498 3.41803 29.9498 3.78471 29.9498 4.1514C29.9498 4.96334 29.9366 5.7229 29.9629 6.48246C29.9892 7.71347 30.843 8.53851 32.0909 8.55161C32.6163 8.55161 33.1286 8.55161 33.6541 8.55161C34.1926 8.55161 34.7443 8.55161 35.2829 8.55161H35.9791C36.0579 8.55161 36.1367 8.53851 36.2287 8.52541C36.2812 8.51232 36.3338 8.51232 36.3994 8.49922L36.741 8.45993L29.9498 2.71085V3.02515Z" fill="#3F3F3F"/>
<path d="M23.1569 14.5233C19.5446 14.5233 15.9454 14.5233 12.333 14.5233C12.0834 14.5233 11.8733 14.4971 11.7025 14.4317C11.361 14.3138 11.1508 13.9602 11.2033 13.5804C11.2559 13.1744 11.4792 12.9387 11.847 12.8601C12.0177 12.8209 12.1885 12.8209 12.3856 12.8209H12.4512C14.5792 12.8209 16.7072 12.8209 18.8352 12.8209H26.4146C28.49 12.8209 30.5524 12.8209 32.6278 12.8209H32.6672C32.8643 12.8209 33.0613 12.8209 33.2452 12.8471C33.6393 12.9125 33.9151 13.2137 33.9414 13.6066C33.9677 14.0126 33.7312 14.34 33.3503 14.4447C33.2058 14.484 33.035 14.5102 32.8117 14.5102C29.5934 14.5233 26.3752 14.5233 23.1569 14.5233Z" fill="#3F3F3F"/>
<path d="M18.9403 24.3976C16.786 24.3976 12.3198 24.3976 12.3198 24.3976C12.1885 24.3976 12.044 24.3976 11.8995 24.3714C11.5185 24.319 11.2427 24.044 11.2033 23.6642C11.1507 23.2582 11.3609 22.9047 11.7419 22.7868C11.952 22.7213 12.1885 22.7082 12.3724 22.7082C15.7745 22.7082 19.1636 22.7082 22.5657 22.7082C25.9679 22.7082 29.3569 22.7082 32.7591 22.7082C32.9562 22.7082 33.1926 22.7213 33.3896 22.7868C33.7574 22.9047 33.9807 23.2452 33.9282 23.6642C33.8888 24.044 33.6129 24.3321 33.232 24.3845C33.0875 24.3976 32.943 24.4107 32.8117 24.4107C32.8117 24.4107 28.3061 24.4107 26.1387 24.4107H18.9403V24.3976Z" fill="#3F3F3F"/>
<path d="M20.0603 9.55997H14.8716C13.9784 9.55997 13.072 9.55997 12.1788 9.55997C11.6796 9.55997 11.3644 9.36353 11.2462 8.98375C11.1673 8.72184 11.1936 8.45992 11.3512 8.25039C11.5089 8.02776 11.7847 7.8968 12.1 7.8837C12.3364 7.87061 12.586 7.87061 12.9013 7.87061C13.0983 7.87061 13.2822 7.87061 13.4792 7.87061C13.6763 7.87061 13.8733 7.87061 14.0572 7.87061H23.712H23.9485C24.0142 7.87061 24.0798 7.87061 24.1455 7.87061C24.6841 7.90989 25.0519 8.27658 25.0387 8.74803C25.0256 9.21948 24.6578 9.54688 24.1455 9.55997C23.5938 9.55997 23.0158 9.57307 22.254 9.57307C21.8993 9.55997 20.0603 9.55997 20.0603 9.55997Z" fill="#3F3F3F"/>
<path d="M17.9044 34.2981H14.8175C13.9243 34.2981 13.0442 34.2981 12.1509 34.2981C11.6124 34.2981 11.2577 34.01 11.2183 33.5254C11.1789 33.0933 11.481 32.7004 11.9145 32.6218C11.9802 32.6087 12.059 32.6087 12.1378 32.6087H18.4955C20.3608 32.6087 22.2261 32.6087 24.0782 32.6087C24.3672 32.6087 24.6299 32.7135 24.8007 32.8837C24.9583 33.0409 25.024 33.2373 25.024 33.4599C25.0109 33.9576 24.6299 34.285 24.0388 34.285C23.1719 34.285 22.318 34.285 21.4511 34.285L17.9044 34.2981Z" fill="#3F3F3F"/>
<path d="M22.8038 29.3609C21.5559 29.3609 20.308 29.3609 19.0601 29.3478C18.5216 29.3478 18.1538 28.9942 18.1406 28.5097C18.1406 28.274 18.2063 28.0775 18.3508 27.9335C18.5216 27.7632 18.7711 27.6716 19.0733 27.6716C19.625 27.6716 20.1635 27.6716 20.7152 27.6716C21.1093 27.6716 21.5165 27.6716 21.9106 27.6716C22.2915 27.6716 22.6725 27.6716 23.0534 27.6716H23.0928C23.4738 27.6716 23.8678 27.6716 24.2488 27.6716C24.6297 27.6716 25.0238 27.6716 25.4047 27.6716C26.0352 27.6716 26.5475 27.6716 27.0336 27.6847C27.3882 27.6847 27.6772 27.8418 27.848 28.1037C27.9925 28.3264 28.0056 28.6145 27.8743 28.8764C27.7166 29.2038 27.4408 29.374 27.0598 29.374C25.6543 29.3609 24.2225 29.3609 22.8038 29.3609Z" fill="#3F3F3F"/>
<path d="M15.6838 19.4605H13.6084C13.1355 19.4605 12.6626 19.4605 12.1897 19.4605C11.8613 19.4605 11.5855 19.3557 11.4147 19.1854C11.2702 19.0414 11.1914 18.8449 11.1914 18.6092C11.2045 18.1116 11.5723 17.7842 12.1635 17.7842C13.3325 17.7842 14.5148 17.7842 15.6838 17.7842C16.8529 17.7842 18.022 17.7842 19.1911 17.7842C19.4932 17.7842 19.7428 17.8759 19.9136 18.0461C20.0581 18.1902 20.1369 18.3997 20.1369 18.6354C20.1369 19.1461 19.7691 19.4605 19.178 19.4605C18.7051 19.4605 18.2322 19.4605 17.7593 19.4605H15.6838Z" fill="#3F3F3F"/>
<path d="M29.6622 19.4605C28.572 19.4605 27.4817 19.4605 26.3914 19.4605C26.063 19.4605 25.8003 19.3688 25.6296 19.1985C25.4851 19.0545 25.4063 18.8449 25.4194 18.6092C25.4325 18.0854 25.7872 17.7973 26.3914 17.7842C26.8512 17.7842 27.2978 17.7842 27.7576 17.7842C28.086 17.7842 29.4127 17.7842 29.7411 17.7842C30.0695 17.7842 31.3568 17.7842 31.6852 17.7842C32.1186 17.7842 32.5521 17.7842 32.9856 17.7842C33.314 17.7842 33.5767 17.8758 33.7475 18.0592C33.892 18.2032 33.9577 18.4128 33.9577 18.6485C33.9445 19.1592 33.5767 19.4735 32.9856 19.4735C31.8691 19.4605 30.7657 19.4605 29.6622 19.4605Z" fill="#3F3F3F"/>
<path d="M13.0048 29.3478C12.6107 29.3478 12.2035 29.3347 11.8095 29.2955C11.4022 29.2693 11.1789 28.8371 11.2052 28.4573C11.2315 28.0383 11.5467 27.724 11.9934 27.6847C12.0328 27.6847 12.0853 27.6716 12.1247 27.6716H12.9129L13.0574 27.6847C13.1756 27.6847 13.2807 27.6847 13.3989 27.6847C13.504 27.6847 13.6222 27.6847 13.7273 27.6847C13.8849 27.6847 14.0031 27.6847 14.1214 27.6978C14.5286 27.737 14.8307 28.0383 14.8701 28.4573C14.8964 28.68 14.8176 28.9157 14.6731 29.0859C14.5942 29.1776 14.4629 29.2955 14.2658 29.3086C13.8586 29.3216 13.4252 29.3478 13.0048 29.3478Z" fill="#3F3F3F"/>
<path d="M38.1067 40.9115C37.8702 40.9115 37.6206 40.7805 37.3185 40.4924L36.9244 40.1257C36.491 39.7197 36.0443 39.3007 35.5977 38.8816C35.1774 38.4756 35.1248 37.978 35.4664 37.6113C35.6371 37.428 35.8473 37.3232 36.0706 37.3232C36.3071 37.3232 36.5566 37.428 36.7799 37.6375C37.0558 37.8863 37.3316 38.1482 37.555 38.3578C37.6469 38.4364 37.7257 38.5149 37.8045 38.5804L37.9096 38.6721L41.3775 35.4636C41.4169 35.4243 41.4694 35.385 41.5088 35.3326C41.5876 35.2541 41.6665 35.1755 41.7584 35.11C41.9029 35.0052 42.0737 34.9529 42.2444 34.9529C42.4677 34.9529 42.6779 35.0314 42.8355 35.1886C43.1245 35.4636 43.1902 35.9088 42.98 36.2624C42.9144 36.3803 42.8093 36.4851 42.7173 36.5767L42.6648 36.6291C41.43 37.8994 40.1558 39.1959 38.9079 40.4793C38.5927 40.7674 38.3431 40.9115 38.1067 40.9115Z" fill="#3F3F3F"/>
</g>
<defs>
<clipPath id="clip0_739_17491">
<rect width="49.1936" height="50" fill="white"/>
</clipPath>
</defs>
</svg>
