<svg width="633" height="543" viewBox="0 0 633 543" fill="none" xmlns="http://www.w3.org/2000/svg">
<path fill-rule="evenodd" clip-rule="evenodd" d="M110.279 269.752C125.89 237.077 197.413 232.72 209.757 257.771C287.451 241.797 284.184 196.415 229.725 186.249C307.056 175.72 295.802 257.408 208.305 260.676C193.056 227.274 83.0495 278.103 140.413 292.988C112.457 292.988 102.292 286.816 110.279 269.752Z" fill="#E5E5E5" fill-opacity="0.3"/>
<path fill-rule="evenodd" clip-rule="evenodd" d="M202.495 355.798C199.591 311.505 186.158 284.275 161.47 274.473L149.489 280.645C191.967 292.626 204.674 320.944 179.26 365.237L202.495 355.798Z" fill="#E5E5E5" fill-opacity="0.3"/>
<path fill-rule="evenodd" clip-rule="evenodd" d="M261.673 342.727C229.361 326.389 202.495 302.065 181.074 270.115L195.233 269.752C206.851 294.44 218.469 325.663 295.074 335.103L261.673 342.727Z" fill="#E5E5E5" fill-opacity="0.3"/>
<path fill-rule="evenodd" clip-rule="evenodd" d="M357.157 296.618C380.756 262.491 397.456 222.917 407.259 177.172L398.909 176.083C397.456 220.013 354.978 294.44 313.59 298.433L357.157 296.618Z" fill="#E5E5E5" fill-opacity="0.3"/>
<path fill-rule="evenodd" clip-rule="evenodd" d="M422.508 277.376C410.164 231.631 410.527 197.504 423.234 174.631L438.483 169.185C410.527 202.95 429.769 239.255 457.362 249.784C444.655 256.319 434.126 266.122 422.508 277.376Z" fill="#E5E5E5" fill-opacity="0.3"/>
<path fill-rule="evenodd" clip-rule="evenodd" d="M138.234 541.683C116.45 470.16 83.4121 422.237 114.998 367.778C141.138 370.683 157.113 361.969 168.368 342.727C163.648 366.689 149.852 378.67 126.253 382.3C99.3867 387.02 108.826 458.18 157.476 542.046H138.234V541.683Z" fill="#E5E5E5" fill-opacity="0.3"/>
<path fill-rule="evenodd" clip-rule="evenodd" d="M137.144 308.6C110.641 302.065 97.208 294.44 39.1187 314.409C-23.6903 335.829 -7.71577 258.861 64.5328 254.141C-20.4228 234.899 54.3672 197.504 93.9405 202.95C33.3098 210.574 12.9786 239.618 79.7813 253.778C5.35437 261.765 -9.16798 315.135 41.2971 301.701C89.2208 289.721 111.73 291.173 137.144 308.6Z" fill="#E5E5E5" fill-opacity="0.3"/>
<path fill-rule="evenodd" clip-rule="evenodd" d="M205.4 210.211L188.336 214.205C258.043 147.402 142.591 136.51 95.0301 179.351C115.724 177.173 142.228 197.867 113.909 225.823C107.737 222.918 98.6607 223.281 85.9536 226.549C117.54 208.396 123.712 177.899 87.7689 183.345C126.616 131.065 282.731 133.606 205.4 210.211Z" fill="#E5E5E5" fill-opacity="0.3"/>
<path fill-rule="evenodd" clip-rule="evenodd" d="M420.693 33.7645C382.935 55.185 278.374 17.0639 304.514 93.6691C247.151 123.077 242.068 190.969 305.603 152.122C321.941 142.319 353.89 138.325 381.119 165.918C353.89 138.325 336.1 130.338 319.763 140.141C256.227 178.988 266.393 126.344 323.756 97.2997C297.616 21.0575 382.935 55.185 420.693 33.7645Z" fill="#E5E5E5" fill-opacity="0.3"/>
<path fill-rule="evenodd" clip-rule="evenodd" d="M474.425 123.803C495.846 95.4843 523.438 62.809 583.343 66.0766C615.292 67.8919 635.26 46.1083 614.929 48.2867C572.088 53.0064 572.814 29.0446 576.082 13.0701C499.839 41.3886 417.425 -25.4141 430.858 75.516C398.546 -38.4842 506.375 28.3185 582.617 0C579.349 16.3376 580.438 40.2994 623.279 35.5797C643.611 33.4013 628.362 74.0638 596.413 72.2486C536.871 68.981 495.846 95.4843 474.425 123.803Z" fill="#E5E5E5" fill-opacity="0.3"/>
<path fill-rule="evenodd" clip-rule="evenodd" d="M375.311 138.688C428.317 206.217 492.578 104.561 449.737 192.058C490.037 189.154 529.247 156.841 552.12 157.204C613.477 157.931 597.865 79.147 536.508 90.7649C590.967 82.0515 606.942 149.58 553.209 148.128C510.731 147.039 509.642 171.364 468.98 173.905C512.183 86.4081 428.317 206.217 375.311 138.688Z" fill="#E5E5E5" fill-opacity="0.3"/>
<path fill-rule="evenodd" clip-rule="evenodd" d="M440.661 283.185C375.674 355.434 285.272 362.332 314.68 340.912C352.438 312.956 280.553 320.943 245.336 308.963C279.463 316.95 390.922 299.16 346.266 328.931C327.387 340.912 370.591 334.014 440.661 283.185Z" fill="#E5E5E5" fill-opacity="0.3"/>
</svg>
