<svg width="135" height="65" viewBox="0 0 135 65" fill="none" xmlns="http://www.w3.org/2000/svg">
<path d="M126.961 61.2375C128.388 57.994 129.08 55.3127 129.08 53.1504C129.08 52.5882 128.951 52.0692 128.734 51.6367C128.518 51.2043 128.215 50.988 127.956 50.988C127.524 50.988 127.005 51.7665 126.442 53.2801C124.885 57.4318 124.107 60.3293 124.107 62.016C124.107 62.9674 124.41 63.4431 124.972 63.4431C125.621 63.3999 126.269 62.6647 126.961 61.2375ZM114.463 52.5017C114.463 51.5935 114.16 51.1178 113.555 51.1178C113.036 51.1178 112.43 51.9395 111.652 53.5828C110.917 55.2262 110.268 57.2156 109.706 59.5509C111.046 59.5077 112.171 58.8157 113.079 57.4751C113.987 56.1344 114.463 54.4478 114.463 52.5017ZM97.8562 54.4045C97.0345 57.5615 95.7371 60.0699 93.8775 61.9295C92.0611 63.7891 89.9852 64.7405 87.7364 64.7405C85.0551 64.7405 83.7145 63.2701 83.7145 60.2861C83.7145 59.6374 83.7577 59.0752 83.8874 58.5562C80.0385 62.8377 75.3678 65 69.789 65C64.6858 65 60.3611 63.0971 56.8582 59.3347C53.3552 55.5722 51.582 50.9448 51.582 45.4524C51.582 40.9115 52.9659 36.976 55.6905 33.6893C58.415 30.4025 62.1343 28.1969 66.8049 27.0725C70.2214 22.9641 74.8921 20.9315 80.7737 20.9315C85.4876 20.9315 90.115 22.6613 94.5694 26.1643C96.0398 25.0832 97.5102 24.5642 98.8941 24.5642C99.6725 24.5642 100.408 24.6507 101.143 24.8237C101.705 24.9534 101.489 25.6021 101.143 25.5156C100.451 25.3859 99.8023 25.3426 99.1536 25.3426C97.7697 25.3426 96.3858 25.8183 95.1316 26.7265C98.1589 29.7971 99.6725 32.8676 99.6725 35.9381C99.6725 39.4411 97.9859 41.9062 94.5694 43.3333C97.0345 45.2794 98.2886 47.6148 98.2886 50.3393C98.2886 51.2043 98.2454 51.8962 98.1589 52.5017L98.0292 53.4099C98.8076 54.0586 99.3698 54.9235 99.8023 56.0047C100.148 55.2262 100.451 54.4045 100.754 53.6261C100.883 53.3234 101.143 52.5449 101.619 51.2908L101.878 50.5123C101.229 49.9069 100.883 49.2582 100.883 48.6527C100.883 48.0905 101.056 47.6148 101.359 47.2255C101.662 46.8363 102.008 46.6201 102.44 46.6201C103.089 46.6201 103.435 46.9661 103.435 47.6148C103.435 48.1337 103.219 48.9987 102.743 50.2961C103.608 50.8583 104.17 51.334 104.43 51.5935C104.905 52.1557 105.122 52.8044 105.122 53.5396C105.122 54.318 104.862 55.5722 104.3 57.3021C104.04 58.1238 103.738 59.1184 103.392 60.2429L102.959 61.8862C102.83 62.4484 102.743 62.7944 102.743 62.9242C102.743 63.3566 102.959 63.5729 103.349 63.5729C104.257 63.5729 105.554 61.497 107.284 57.3453C107.933 55.5722 108.711 53.9721 109.36 52.9774C110.528 51.2475 111.782 50.3393 113.166 50.3393C113.901 50.3393 114.506 50.6421 114.982 51.2475C115.458 51.853 115.674 52.6314 115.674 53.5828C115.674 55.4857 115.112 56.9993 114.03 58.167C112.949 59.3347 111.436 59.9834 109.49 60.1131C109.403 60.5888 109.36 61.1078 109.36 61.6268C109.36 62.9242 109.836 63.5729 110.744 63.5729C112.82 63.5729 114.636 61.497 116.15 57.3453L121.296 38.8357H123.934L118.355 59.2049C117.836 61.0645 117.577 62.2322 117.577 62.7079C117.577 63.2269 117.793 63.4864 118.182 63.4864C119.134 63.4864 120.431 61.4105 122.118 57.2156C122.42 56.0047 123.112 54.318 123.588 53.5396C124.842 51.334 126.226 50.2528 127.783 50.2528C128.605 50.2528 129.167 50.9015 129.599 52.1989L130.032 50.5123H132.756C132.713 50.6853 132.627 51.0313 132.497 51.5502C131.935 53.4531 131.329 56.1344 130.205 60.0266C129.945 60.8916 129.556 62.189 129.556 62.7079C129.556 63.1836 129.772 63.3999 130.248 63.3999C131.243 63.3999 132.583 61.151 134.357 56.6966C134.53 56.2641 135.135 56.4804 134.962 56.9128C133.708 59.9401 132.756 61.9295 132.108 62.8809C131.459 63.8323 130.681 64.3081 129.816 64.3081C128.475 64.3081 127.653 63.3566 127.394 61.4538C126.442 63.3566 125.491 64.3081 124.496 64.3081C122.723 64.3081 121.815 62.8809 121.815 60.0266C121.815 59.8969 121.815 59.7239 121.815 59.5941C120.474 62.7512 119.09 64.3081 117.75 64.3081C116.236 64.3081 115.458 63.2701 115.458 61.2375C115.458 60.9348 115.501 60.5888 115.544 60.2429C114.982 61.2808 114.463 62.1025 113.944 62.6647C112.993 63.7458 111.825 64.3081 110.528 64.3081C109.49 64.3081 108.581 63.9188 107.889 63.1404C107.197 62.3619 106.852 61.3673 106.852 60.1131C106.852 59.9401 106.852 59.7239 106.852 59.5509C105.987 61.4538 105.597 62.3187 105.122 62.9242C104.473 63.7891 103.738 64.3513 102.873 64.3513C102.224 64.3513 101.532 64.0486 101.056 63.5296C100.581 62.9674 100.494 62.3187 100.494 61.5403C100.494 60.8051 100.97 59.0752 101.965 56.3506C102.657 54.4045 103.003 53.1071 103.003 52.3719C103.003 51.9827 102.786 51.5502 102.397 51.1178C102.311 51.2907 102.224 51.5502 102.138 51.8097C101.662 53.0639 101.402 53.7991 101.316 54.0586C100.797 55.4425 100.364 56.4804 100.105 56.9993C99.8888 57.4318 99.5428 57.4318 99.3698 57.0426C98.9373 55.7884 98.4184 54.9667 97.8562 54.4045ZM92.1476 51.6367C90.0285 51.6367 88.2121 52.5017 86.6985 54.1883C85.1848 55.8749 84.4496 57.9075 84.4496 60.2429C84.4496 61.2808 84.7091 62.1025 85.2281 62.7512C85.7471 63.3999 86.3958 63.7458 87.131 63.7458C90.0717 63.7458 92.4936 59.8104 94.3532 51.9827C93.5747 51.7665 92.8395 51.6367 92.1476 51.6367ZM94.8289 47.5715C94.8289 45.8849 94.3964 44.501 93.5315 43.4631C92.9693 43.5928 92.5368 43.6361 92.2341 43.6361C91.0664 43.6361 90.5042 43.3333 90.5042 42.7279C90.5042 42.3386 90.8502 42.1657 91.5854 42.1657C92.1043 42.1657 92.753 42.2954 93.4882 42.5981C95.3478 41.0413 96.2993 38.2734 96.2993 34.338C96.2993 31.7432 95.6073 29.4511 94.1802 27.4617C92.9693 28.8024 92.0611 30.4458 91.4124 32.5216C90.7637 34.5542 90.0285 37.9707 89.25 42.7279C88.7743 45.5389 87.9959 48.8689 86.8715 52.7611C88.4284 51.4637 90.2447 50.8583 92.2341 50.8583C92.7963 50.8583 93.5315 50.9448 94.3964 51.1178C94.7424 50.0798 94.8289 48.8689 94.8289 47.5715ZM70.1782 27.505C69.3997 27.505 68.4051 27.5915 67.1941 27.8077C65.767 29.4078 65.0318 31.5702 65.0318 34.338C65.0318 37.0193 65.9832 39.3114 67.8429 41.2142C69.7025 43.0738 71.9946 44.0253 74.6326 44.0253C77.7896 44.0253 80.6007 42.5549 83.0658 39.6573C82.6765 35.9814 81.3359 33.0406 78.9573 30.7917C76.5787 28.6294 73.6812 27.505 70.1782 27.505ZM80.7737 21.7099C75.4543 21.7099 71.1729 23.3965 68.0158 26.7698H68.5781H69.616H70.3079C73.7244 26.7698 76.6652 27.851 79.1303 30.0133C81.5954 32.1756 83.1522 35.0299 83.7145 38.4897C84.8821 36.0679 85.4443 33.9488 85.4443 32.1756C85.4443 30.7917 85.1848 29.4511 84.6659 28.1537C84.4496 27.6347 85.0983 27.3752 85.3146 27.851C85.8768 29.1916 86.1363 30.6188 86.1363 32.0459C86.1363 34.7272 85.3578 37.322 83.7577 39.8303C83.8009 40.2628 83.8009 40.7385 83.8009 41.3007C83.8009 45.0632 82.5468 48.2635 80.0817 50.9015C77.5734 53.5828 74.5894 54.8802 71.1296 54.8802C68.2753 54.8802 65.8967 53.9288 63.9506 52.0259C62.0045 50.1231 61.0531 47.7878 61.0531 44.9767C61.0531 44.0253 61.1828 42.9441 61.4856 41.7332C61.6153 41.1277 62.3073 41.3007 62.1775 41.7764C61.8748 43.0306 61.745 44.0685 61.745 44.8902C61.745 47.3985 62.61 49.5609 64.3399 51.2908C66.0697 53.0639 68.1456 53.9288 70.6106 53.9288C73.7677 53.9288 76.5355 52.6747 78.914 50.1663C81.2926 47.658 82.6333 44.5875 82.936 40.9115C80.4277 43.4631 77.6166 44.7605 74.5029 44.7605C71.6053 44.7605 69.1835 43.7226 67.1941 41.6899C65.2048 39.6573 64.2101 37.149 64.2101 34.165C64.2101 32.1324 64.8156 30.0998 65.9832 28.1104C61.7883 29.5376 58.5015 31.8729 56.1662 34.9867C53.8309 38.1005 52.6632 41.8629 52.6632 46.1011C52.6632 50.988 54.2633 55.2262 57.5069 58.7725C60.7504 62.3187 64.5561 64.0918 69.0105 64.0918C73.0325 64.0918 76.3192 62.3187 78.8708 58.8157C81.4656 55.3127 84.0172 49.0419 86.612 40.0033C87.7797 36.0246 88.7311 33.3001 89.5528 31.8297C90.5042 30.0998 91.8449 28.3699 93.6612 26.7265C89.9852 23.3965 85.7038 21.7099 80.7737 21.7099Z" fill="white"/>
<path fill-rule="evenodd" clip-rule="evenodd" d="M13.1362 32.1324C14.9958 28.2402 23.5155 27.7212 24.9858 30.7052C34.2407 28.8024 33.8515 23.3965 27.3644 22.1856C36.576 20.9314 35.2354 30.662 24.8129 31.0512C22.9965 27.0725 9.8927 33.1271 16.7257 34.9002C13.3957 34.9002 12.1848 34.165 13.1362 32.1324Z" fill="white"/>
<path fill-rule="evenodd" clip-rule="evenodd" d="M24.1212 42.3819C23.7752 37.1058 22.1751 33.8623 19.2343 32.6946L17.8071 33.4298C22.867 34.857 24.3807 38.2302 21.3534 43.5064L24.1212 42.3819Z" fill="white"/>
<path fill-rule="evenodd" clip-rule="evenodd" d="M31.1701 40.8251C27.3212 38.879 24.1209 35.9815 21.5693 32.1758L23.256 32.1325C24.6399 35.0733 26.0238 38.7925 35.1488 39.9169L31.1701 40.8251Z" fill="white"/>
<path fill-rule="evenodd" clip-rule="evenodd" d="M42.5436 35.3327C45.3547 31.2675 47.344 26.5536 48.5117 21.1045L47.517 20.9748C47.344 26.2077 42.2841 35.0733 37.354 35.549L42.5436 35.3327Z" fill="white"/>
<path fill-rule="evenodd" clip-rule="evenodd" d="M50.3282 33.0406C48.8579 27.5915 48.9011 23.5263 50.4147 20.8018L52.2311 20.1531C48.9011 24.175 51.1932 28.4997 54.4799 29.7539C52.9663 30.5323 51.7121 31.7 50.3282 33.0406Z" fill="white"/>
<path fill-rule="evenodd" clip-rule="evenodd" d="M16.4664 64.5243C13.8716 56.0047 9.93611 50.2961 13.6986 43.8091C16.8124 44.1551 18.7152 43.1172 20.0559 40.8251C19.4937 43.6794 17.8503 45.1065 15.0392 45.539C11.839 46.1012 12.9634 54.5776 18.7585 64.5676H16.4664V64.5243Z" fill="white"/>
<path fill-rule="evenodd" clip-rule="evenodd" d="M16.3364 36.76C13.1794 35.9815 11.5793 35.0733 4.65976 37.4519C-2.82195 40.0035 -0.919089 30.8351 7.68704 30.2729C-2.43273 27.9808 6.47613 23.5264 11.19 24.1751C3.96781 25.0833 1.54599 28.5431 9.50341 30.2297C0.637803 31.1811 -1.09207 37.5384 4.91924 35.9383C10.6278 34.5111 13.3091 34.6841 16.3364 36.76Z" fill="white"/>
<path fill-rule="evenodd" clip-rule="evenodd" d="M24.467 25.04L22.4344 25.5157C30.7378 17.5583 16.9853 16.2609 11.3199 21.364C13.785 21.1046 16.942 23.5696 13.5688 26.8996C12.8336 26.5537 11.7524 26.5969 10.2388 26.9861C14.0012 24.8238 14.7364 21.1911 10.455 21.8398C15.0824 15.6122 33.6786 15.9149 24.467 25.04Z" fill="white"/>
<path fill-rule="evenodd" clip-rule="evenodd" d="M50.1121 4.02197C45.6144 6.57354 33.1593 2.03262 36.2731 11.1577C29.4401 14.6607 28.8346 22.7479 36.4028 18.1205C38.3489 16.9528 42.1547 16.4771 45.3982 19.7638C42.1547 16.4771 40.0356 15.5256 38.0895 16.6933C30.5213 21.3207 31.7322 15.0499 38.5652 11.5902C35.4514 2.50833 45.6144 6.57354 50.1121 4.02197Z" fill="white"/>
<path fill-rule="evenodd" clip-rule="evenodd" d="M56.513 14.7472C59.0646 11.3739 62.3513 7.4817 69.4871 7.87093C73.2928 8.08716 75.6714 5.49234 73.2495 5.75183C68.1464 6.31404 68.2329 3.45974 68.6221 1.55688C59.5403 4.93014 49.7232 -3.02728 51.3234 8.99534C47.4744 -4.58417 60.3187 3.37325 69.4006 0C69.0113 1.94611 69.1411 4.8004 74.2442 4.23819C76.666 3.97871 74.8497 8.82236 71.0439 8.60612C63.9515 8.2169 59.0646 11.3739 56.513 14.7472Z" fill="white"/>
<path fill-rule="evenodd" clip-rule="evenodd" d="M44.7065 16.5204C51.0206 24.5643 58.6753 12.4552 53.5721 22.8777C58.3726 22.5317 63.0432 18.6827 65.7678 18.726C73.0765 18.8125 71.2169 9.4279 63.9081 10.8118C70.3952 9.77387 72.298 17.8178 65.8975 17.6448C60.8376 17.5151 60.7079 20.4126 55.8642 20.7153C61.0106 10.2928 51.0206 24.5643 44.7065 16.5204Z" fill="white"/>
<path fill-rule="evenodd" clip-rule="evenodd" d="M52.4909 33.7324C44.7497 42.3385 33.9813 43.1602 37.4843 40.6087C41.9819 37.2787 33.4191 38.2301 29.2241 36.803C33.2893 37.7544 46.5661 35.6353 41.2467 39.1815C38.9979 40.6087 44.1443 39.787 52.4909 33.7324Z" fill="white"/>
</svg>
