<svg width="21" height="25" viewBox="0 0 21 25" fill="none" xmlns="http://www.w3.org/2000/svg">
<path d="M14.5107 0H1.55449C1.19378 0 0.901367 0.292411 0.901367 0.859821V24.5536C0.901367 24.7076 1.19378 25 1.55449 25H19.4447C19.8054 25 20.0978 24.7076 20.0978 24.5536V5.79375C20.0978 5.48304 20.0563 5.38304 19.9831 5.30937L14.7884 0.114732C14.7148 0.0415179 14.6148 0 14.5107 0Z" fill="#E9E9E0"/>
<path d="M14.7402 0.0673828V5.35711H20.03L14.7402 0.0673828Z" fill="#D9D7CA"/>
<path d="M6.711 14.8768C6.55565 14.8768 6.40654 14.8264 6.27931 14.7313C5.81457 14.3826 5.75207 13.9947 5.78154 13.7304C5.86279 13.0036 6.76145 12.2429 8.45341 11.4679C9.12484 9.99648 9.76368 8.18354 10.1445 6.66881C9.69895 5.69916 9.26591 4.44113 9.58154 3.70318C9.69225 3.4447 9.8302 3.24648 10.0878 3.16077C10.1896 3.12684 10.4467 3.08398 10.5414 3.08398C10.7664 3.08398 10.9641 3.37372 11.1043 3.55229C11.236 3.72014 11.5347 4.07595 10.9378 6.58889C11.5396 7.83175 12.3923 9.09782 13.2092 9.96479C13.7945 9.85898 14.2981 9.80497 14.7083 9.80497C15.4074 9.80497 15.8311 9.96791 16.0039 10.3036C16.1467 10.5813 16.0882 10.9059 15.8298 11.2679C15.5811 11.6157 15.2382 11.7996 14.8387 11.7996C14.2958 11.7996 13.6637 11.4568 12.9588 10.7795C11.6923 11.0443 10.2132 11.5166 9.0177 12.0393C8.64448 12.8313 8.2869 13.4693 7.95386 13.9371C7.49627 14.5777 7.10163 14.8768 6.711 14.8768ZM7.8994 12.5884C6.94538 13.1246 6.55654 13.5652 6.52841 13.8134C6.52395 13.8545 6.5119 13.9626 6.72082 14.1224C6.78734 14.1014 7.17573 13.9242 7.8994 12.5884ZM13.9873 10.6054C14.3512 10.8853 14.44 11.0268 14.678 11.0268C14.7824 11.0268 15.0802 11.0224 15.2181 10.83C15.2847 10.7367 15.3106 10.6768 15.3208 10.6447C15.2659 10.6157 15.1931 10.5568 14.7963 10.5568C14.5708 10.5572 14.2873 10.567 13.9873 10.6054ZM10.6525 7.66702C10.3333 8.77148 9.9119 9.9639 9.45877 11.0438C10.3918 10.6818 11.4061 10.3657 12.3588 10.142C11.7561 9.44202 11.1539 8.56791 10.6525 7.66702ZM10.3815 3.88934C10.3378 3.90407 9.78779 4.67372 10.4244 5.32506C10.8481 4.38086 10.4007 3.88309 10.3815 3.88934Z" fill="#CC4B4C"/>
<path d="M19.4447 25.0001H1.55449C1.19378 25.0001 0.901367 24.7076 0.901367 24.3469V17.4108H20.0978V24.3469C20.0978 24.7076 19.8054 25.0001 19.4447 25.0001Z" fill="#CC4B4C"/>
<path d="M5.76091 23.6607H5.02832V19.1625H6.32207C6.51314 19.1625 6.70243 19.1928 6.88948 19.254C7.07653 19.3152 7.24439 19.4067 7.39305 19.5285C7.54171 19.6504 7.6618 19.7982 7.75332 19.971C7.84484 20.1437 7.89082 20.3379 7.89082 20.554C7.89082 20.7821 7.85198 20.9884 7.77475 21.1736C7.69752 21.3589 7.58948 21.5147 7.45109 21.6406C7.3127 21.7665 7.14573 21.8643 6.95064 21.9335C6.75555 22.0027 6.53948 22.037 6.30377 22.037H5.76046V23.6607H5.76091ZM5.76091 19.7178V21.5H6.43234C6.52162 21.5 6.61002 21.4848 6.69796 21.454C6.78546 21.4236 6.86582 21.3736 6.93903 21.3044C7.01225 21.2352 7.07118 21.1388 7.11582 21.0147C7.16046 20.8906 7.18278 20.737 7.18278 20.554C7.18278 20.4808 7.17252 20.396 7.15243 20.3009C7.13189 20.2053 7.09037 20.1138 7.02743 20.0263C6.96403 19.9388 6.87564 19.8656 6.7618 19.8067C6.64796 19.7477 6.49707 19.7183 6.31002 19.7183H5.76091V19.7178Z" fill="white"/>
<path d="M12.3837 21.2866C12.3837 21.6567 12.3439 21.9732 12.2645 22.2357C12.185 22.4982 12.0845 22.7178 11.9622 22.8951C11.8399 23.0723 11.7028 23.2116 11.5502 23.3134C11.3975 23.4152 11.2502 23.491 11.1078 23.5424C10.9653 23.5933 10.835 23.6259 10.7171 23.6402C10.5993 23.6535 10.5118 23.6607 10.4546 23.6607H8.75195V19.1625H10.1069C10.4854 19.1625 10.818 19.2227 11.1046 19.3424C11.3912 19.462 11.6296 19.6223 11.8189 19.8214C12.0082 20.0205 12.1493 20.2477 12.243 20.5018C12.3368 20.7562 12.3837 21.0178 12.3837 21.2866ZM10.2109 23.1236C10.7073 23.1236 11.0653 22.9652 11.285 22.6477C11.5046 22.3303 11.6145 21.8705 11.6145 21.2683C11.6145 21.0812 11.5921 20.896 11.5475 20.7129C11.5024 20.5299 11.4162 20.3643 11.2881 20.2156C11.16 20.0669 10.9859 19.9469 10.7662 19.8553C10.5466 19.7638 10.2618 19.7178 9.91177 19.7178H9.48454V23.1236H10.2109Z" fill="white"/>
<path d="M14.19 19.7178V21.1339H16.0699V21.6344H14.19V23.6607H13.4453V19.1625H16.2587V19.7178H14.19Z" fill="white"/>
</svg>
