<svg width="19" height="19" viewBox="0 0 19 19" fill="none" xmlns="http://www.w3.org/2000/svg">
<path d="M14.87 12.234C14.5553 11.893 14.1226 11.6963 13.6637 11.6963C13.2703 11.6963 12.8901 11.8406 12.6147 12.1028L12.0902 12.5749C11.9197 12.7322 11.6837 12.824 11.4477 12.824C11.4215 12.824 11.4083 12.824 11.3821 12.824C11.1068 12.8109 10.8445 12.6798 10.6609 12.47L6.22891 7.61836C6.04533 7.40856 5.94043 7.14631 5.94043 6.87095C5.94043 6.59558 6.05844 6.34645 6.25513 6.17598L6.77963 5.70393C7.09433 5.41546 7.27791 5.02208 7.29102 4.58937C7.30413 4.16977 7.14678 3.76328 6.85831 3.44859L4.15713 0.485162C3.86866 0.183575 3.46217 0 3.04257 0C2.67542 0 2.3345 0.131125 2.07225 0.380262L1.3904 0.996549C0.498747 1.80952 -0.43224 3.33057 0.223385 5.92685C0.760997 8.06418 2.28205 10.5162 4.73408 13.2043L4.97011 13.4534C7.40903 16.1546 9.70372 17.8854 11.8017 18.6066C12.536 18.8689 13.2441 19 13.9128 19C15.0274 19 16.0371 18.6197 16.8238 17.8854L17.5057 17.2691C18.0957 16.7315 18.1351 15.7874 17.5843 15.1843L14.87 12.234ZM5.90109 4.75983L5.3766 5.23188C4.93077 5.63837 4.66852 6.20221 4.65541 6.8185C4.62918 7.43478 4.8521 8.02484 5.2717 8.48378L9.70372 13.3354C10.1233 13.7943 10.6872 14.0697 11.3034 14.109C11.3559 14.109 11.3952 14.109 11.4477 14.109C12.0115 14.109 12.5491 13.8992 12.9687 13.519L13.4932 13.0469C13.5457 13.0076 13.6112 12.9814 13.6768 12.9814C13.7686 12.9814 13.8604 13.0207 13.9259 13.0994L16.6271 16.0497C16.7058 16.1284 16.7058 16.2464 16.6402 16.3119L15.9584 16.9282C15.3945 17.4396 14.6996 17.7019 13.8997 17.7019C11.7624 17.7019 8.93008 15.8792 5.91421 12.588L5.67818 12.3389C3.40972 9.84748 1.95423 7.52657 1.46907 5.61215C1.0757 4.03865 1.35106 2.77985 2.25582 1.94065L2.93767 1.32436C2.9639 1.29814 3.00323 1.28502 3.04257 1.28502C3.09502 1.28502 3.16058 1.31125 3.19992 1.3637L5.90109 4.31401C5.96666 4.37957 5.99288 4.47136 5.99288 4.55003C5.99288 4.62871 5.95354 4.70738 5.90109 4.75983Z" fill="#8C9AA0"/>
<path d="M8.98292 3.52734C8.62888 3.52734 8.35352 3.81582 8.35352 4.15674C8.35352 4.49767 8.64199 4.78614 8.98292 4.78614C11.789 4.78614 14.0837 7.06772 14.0837 9.8869C14.0837 10.2409 14.3721 10.5163 14.7131 10.5163C15.054 10.5163 15.3425 10.2278 15.3425 9.8869C15.3556 6.38587 12.4971 3.52734 8.98292 3.52734Z" fill="#8C9AA0"/>
<path d="M8.89112 1.54737C13.2838 1.54737 16.8504 5.11397 16.8504 9.50666C16.8504 9.8607 17.1389 10.1361 17.4798 10.1361C17.8207 10.1361 18.1092 9.84758 18.1092 9.50666C18.1092 4.41901 13.9788 0.288574 8.89112 0.288574C8.53708 0.288574 8.26172 0.577049 8.26172 0.917974C8.26172 1.2589 8.53708 1.54737 8.89112 1.54737Z" fill="#8C9AA0"/>
</svg>
