<?xml version="1.0" encoding="utf-8"?>
<!-- Generator: Adobe Illustrator 23.0.6, SVG Export Plug-In . SVG Version: 6.00 Build 0)  -->
<svg version="1.1" id="Layer_1" xmlns="http://www.w3.org/2000/svg" xmlns:xlink="http://www.w3.org/1999/xlink" x="0px" y="0px"
	 viewBox="0 0 1000 130" style="enable-background:new 0 0 1000 130;" xml:space="preserve">
<style type="text/css">
	.st0{fill:#BFBFBF;}
	.st1{fill:#77C5DF;}
	.st2{fill:#669B4A;}
	.st3{fill:#B8D2BF;}
	.st4{fill:#DBDBDB;}
	.st5{fill:#EFEFEF;}
	.st6{fill:#C6C6C6;}
	.st7{fill:#584E37;}
	.st8{fill:#7CC05F;}
</style>
<image style="overflow:visible;" width="1800" height="363" xlink:href="../podrace.jpg"  transform="matrix(1 0 0 1 -677.7256 519.9049)">
</image>
<g>
	<g>
		<g>
			<path class="st0" d="M726.3,98.9c-0.5,0-0.9-0.3-1-0.8c-0.1-0.5,0.3-1,0.8-1.1c0.5-0.1,0.9-0.1,1.4-0.2c0.5-0.1,1,0.3,1.1,0.8
				c0.1,0.5-0.3,1-0.8,1.1c-0.5,0.1-0.9,0.2-1.4,0.2C726.4,98.9,726.3,98.9,726.3,98.9z M731.8,97.9c-0.5,0-0.9-0.3-1-0.8
				c-0.1-0.5,0.2-1.1,0.8-1.2c0.5-0.1,0.9-0.2,1.4-0.3c0.5-0.1,1.1,0.2,1.2,0.7s-0.2,1.1-0.7,1.2c-0.5,0.1-0.9,0.2-1.4,0.3
				C732,97.9,731.9,97.9,731.8,97.9z M737.3,96.5c-0.4,0-0.8-0.3-0.9-0.7c-0.2-0.5,0.1-1.1,0.7-1.2c0.5-0.1,0.9-0.3,1.3-0.4
				c0.5-0.2,1.1,0.1,1.2,0.6c0.2,0.5-0.1,1.1-0.6,1.2c-0.4,0.1-0.9,0.3-1.4,0.4C737.5,96.5,737.4,96.5,737.3,96.5z M700.2,96.3
				c-0.1,0-0.3,0-0.4-0.1c-0.4-0.2-0.9-0.4-1.3-0.6c-0.5-0.2-0.7-0.8-0.4-1.3c0.2-0.5,0.8-0.7,1.3-0.4c0.4,0.2,0.8,0.4,1.2,0.6
				c0.5,0.2,0.7,0.8,0.5,1.3C700.9,96,700.5,96.3,700.2,96.3z M742.6,94.5c-0.4,0-0.7-0.2-0.9-0.6c-0.2-0.5,0-1.1,0.5-1.3l0.1-0.1
				c0.4-0.2,0.7-0.4,1.1-0.6c0.5-0.2,1.1-0.1,1.3,0.4c0.2,0.5,0.1,1.1-0.4,1.3c-0.4,0.2-0.8,0.4-1.2,0.6l-0.1,0.1
				C742.9,94.5,742.7,94.5,742.6,94.5z M695.2,93.6c-0.2,0-0.3,0-0.5-0.1c-0.4-0.2-0.8-0.5-1.2-0.7c-0.5-0.3-0.6-0.9-0.3-1.4
				c0.3-0.5,0.9-0.6,1.4-0.3c0.4,0.2,0.8,0.5,1.2,0.7c0.5,0.3,0.6,0.9,0.4,1.3C695.8,93.5,695.5,93.6,695.2,93.6z M826.7,92.2
				c-0.5,0-0.9-0.4-1-0.9c-0.1-0.5,0.3-1,0.9-1.1c0.4-0.1,0.9-0.1,1.3-0.2c0.5-0.1,1.1,0.2,1.2,0.8c0.1,0.5-0.2,1.1-0.8,1.2
				c-0.5,0.1-1,0.2-1.5,0.2C826.8,92.2,826.7,92.2,826.7,92.2z M822.5,92.1c-0.1,0-0.1,0-0.2,0c-0.5-0.1-1-0.2-1.5-0.3
				c-0.5-0.1-0.8-0.7-0.7-1.2c0.1-0.5,0.7-0.8,1.2-0.7c0.4,0.1,0.8,0.2,1.3,0.3c0.5,0.1,0.9,0.6,0.8,1.1
				C823.4,91.8,822.9,92.1,822.5,92.1z M747.6,91.9c-0.3,0-0.7-0.2-0.9-0.5c-0.3-0.5-0.1-1.1,0.4-1.3c0.4-0.2,0.8-0.5,1.2-0.7
				c0.5-0.3,1.1-0.1,1.3,0.4c0.3,0.5,0.1,1.1-0.4,1.3c-0.4,0.2-0.8,0.5-1.2,0.7C747.9,91.8,747.7,91.9,747.6,91.9z M832.1,90.7
				c-0.4,0-0.7-0.2-0.9-0.6c-0.2-0.5,0-1.1,0.5-1.3c0.4-0.2,0.8-0.4,1.2-0.6c0.5-0.2,1.1,0,1.3,0.4c0.2,0.5,0,1.1-0.4,1.3
				c-0.4,0.2-0.9,0.4-1.3,0.6C832.3,90.6,832.2,90.7,832.1,90.7z M690.4,90.6c-0.2,0-0.4-0.1-0.6-0.2c-0.5-0.3-0.9-0.6-1.2-0.8
				c-0.4-0.3-0.5-0.9-0.2-1.4c0.3-0.4,0.9-0.5,1.4-0.2c0.3,0.2,0.7,0.5,1.1,0.8c0.4,0.3,0.6,0.9,0.3,1.4
				C691,90.5,690.7,90.6,690.4,90.6z M817.2,90.2c-0.2,0-0.3,0-0.5-0.1c-0.4-0.2-0.8-0.5-1.3-0.8c-0.5-0.3-0.6-0.9-0.3-1.4
				c0.3-0.5,0.9-0.6,1.4-0.3c0.4,0.2,0.8,0.5,1.2,0.7c0.5,0.3,0.6,0.9,0.4,1.3C817.9,90,817.5,90.2,817.2,90.2z M752.5,89.1
				c-0.3,0-0.7-0.2-0.9-0.5c-0.3-0.5-0.1-1.1,0.4-1.3l1.2-0.7c0.5-0.3,1.1-0.1,1.3,0.4s0.1,1.1-0.4,1.3l-1.2,0.7
				C752.8,89,752.6,89.1,752.5,89.1z M837,87.9c-0.3,0-0.6-0.2-0.8-0.4c-0.3-0.4-0.2-1.1,0.3-1.4c0.4-0.3,0.8-0.5,1.1-0.8
				c0.4-0.3,1.1-0.2,1.4,0.2c0.3,0.4,0.2,1.1-0.2,1.4c-0.4,0.3-0.8,0.6-1.2,0.8C837.4,87.8,837.2,87.9,837,87.9z M685.9,87.2
				c-0.2,0-0.4-0.1-0.6-0.2l-1.1-0.9c-0.4-0.3-0.5-1-0.1-1.4c0.3-0.4,1-0.5,1.4-0.1l1.1,0.9c0.4,0.3,0.5,1,0.1,1.4
				C686.5,87,686.2,87.2,685.9,87.2z M812.6,87c-0.2,0-0.4-0.1-0.6-0.2c-0.4-0.3-0.7-0.6-1.1-0.9c-0.4-0.4-0.5-1-0.1-1.4
				c0.4-0.4,1-0.5,1.4-0.1c0.4,0.3,0.7,0.6,1.1,0.9c0.4,0.3,0.5,1,0.1,1.4C813.2,86.8,812.9,87,812.6,87z M757.3,86.2
				c-0.3,0-0.7-0.2-0.9-0.5c-0.3-0.5-0.1-1.1,0.4-1.3l1.2-0.7c0.5-0.3,1.1-0.1,1.4,0.4c0.3,0.5,0.1,1.1-0.4,1.3l-1.2,0.7
				C757.7,86.2,757.5,86.2,757.3,86.2z M841.4,84.4c-0.3,0-0.6-0.1-0.8-0.3c-0.4-0.4-0.3-1,0.1-1.4c0.3-0.3,0.7-0.6,1.1-0.9
				c0.4-0.4,1-0.3,1.4,0.1c0.4,0.4,0.3,1-0.1,1.4c-0.4,0.3-0.7,0.6-1.1,0.9C841.9,84.3,841.7,84.4,841.4,84.4z M681.5,83.6
				c-0.2,0-0.4-0.1-0.6-0.2l-1.1-0.9c-0.4-0.3-0.5-1-0.2-1.4c0.3-0.4,1-0.5,1.4-0.2l1.1,0.9c0.4,0.3,0.5,1,0.2,1.4
				C682.1,83.5,681.8,83.6,681.5,83.6z M762.2,83.4c-0.3,0-0.7-0.2-0.9-0.5c-0.3-0.5-0.1-1.1,0.4-1.3l1.2-0.7
				c0.5-0.3,1.1-0.1,1.3,0.4c0.3,0.5,0.1,1.1-0.4,1.3l-1.2,0.7C762.6,83.3,762.4,83.4,762.2,83.4z M808.4,83.2
				c-0.2,0-0.5-0.1-0.7-0.3c-0.3-0.3-0.7-0.7-1-1c-0.4-0.4-0.4-1,0-1.4c0.4-0.4,1-0.4,1.4,0c0.3,0.3,0.7,0.6,1,1
				c0.4,0.4,0.4,1,0,1.4C808.9,83.1,808.6,83.2,808.4,83.2z M845.7,80.7c-0.3,0-0.5-0.1-0.7-0.3c-0.4-0.4-0.3-1,0.1-1.4
				c0.3-0.3,0.7-0.6,1-0.9c0.4-0.4,1-0.3,1.4,0.1c0.4,0.4,0.3,1-0.1,1.4c-0.3,0.3-0.7,0.6-1,1C846.1,80.6,845.9,80.7,845.7,80.7z
				 M767.1,80.6c-0.3,0-0.7-0.2-0.9-0.5c-0.3-0.5-0.1-1.1,0.4-1.3l1.2-0.7c0.5-0.3,1.1-0.1,1.3,0.4c0.3,0.5,0.1,1.1-0.4,1.3
				l-1.2,0.7C767.4,80.5,767.3,80.6,767.1,80.6z M677.1,80.1c-0.2,0-0.4-0.1-0.6-0.2l-1.1-0.9c-0.4-0.3-0.5-1-0.2-1.4
				c0.3-0.4,1-0.5,1.4-0.2l1.1,0.9c0.4,0.3,0.5,1,0.2,1.4C677.7,80,677.4,80.1,677.1,80.1z M804.3,79.3c-0.2,0-0.5-0.1-0.7-0.3
				c-0.3-0.3-0.7-0.6-1-0.9c-0.4-0.4-0.4-1-0.1-1.4c0.4-0.4,1-0.4,1.4-0.1c0.4,0.3,0.7,0.6,1.1,1c0.4,0.4,0.4,1,0.1,1.4
				C804.8,79.2,804.6,79.3,804.3,79.3z M977.2,77.7c-0.1,0-0.1,0-0.2,0c-0.5-0.1-0.9-0.2-1.4-0.3c-0.5-0.1-0.9-0.6-0.8-1.2
				c0.1-0.5,0.6-0.9,1.2-0.8c0.5,0.1,0.9,0.2,1.4,0.3c0.5,0.1,0.9,0.6,0.8,1.2C978,77.4,977.6,77.7,977.2,77.7z M672.7,76.6
				c-0.2,0-0.4-0.1-0.6-0.2l-1.1-0.9c-0.4-0.3-0.5-1-0.2-1.4c0.3-0.4,1-0.5,1.4-0.2l1.1,0.9c0.4,0.3,0.5,1,0.2,1.4
				C673.2,76.5,673,76.6,672.7,76.6z M971.7,76.5c-0.1,0-0.2,0-0.2,0c-0.5-0.1-0.9-0.2-1.4-0.4c-0.5-0.1-0.8-0.7-0.7-1.2
				c0.1-0.5,0.7-0.8,1.2-0.7c0.5,0.1,0.9,0.2,1.3,0.4c0.5,0.1,0.8,0.7,0.7,1.2C972.5,76.2,972.1,76.5,971.7,76.5z M800,75.7
				c-0.2,0-0.4-0.1-0.6-0.2c-0.4-0.3-0.7-0.5-1.1-0.7c-0.5-0.3-0.6-0.9-0.3-1.4c0.3-0.5,0.9-0.6,1.4-0.3c0.4,0.2,0.8,0.5,1.2,0.8
				c0.4,0.3,0.6,0.9,0.2,1.4C800.6,75.6,800.3,75.7,800,75.7z M966.2,74.9c-0.1,0-0.2,0-0.3,0c-0.4-0.1-0.9-0.3-1.4-0.4
				c-0.5-0.2-0.8-0.7-0.6-1.3c0.2-0.5,0.7-0.8,1.3-0.6c0.4,0.2,0.9,0.3,1.3,0.4c0.5,0.2,0.8,0.7,0.6,1.2
				C967,74.7,966.7,74.9,966.2,74.9z M794.9,73.3c-0.1,0-0.2,0-0.2,0c-0.4-0.1-0.9-0.2-1.3-0.3c-0.5-0.1-0.9-0.6-0.8-1.1
				c0.1-0.5,0.6-0.9,1.1-0.8c0.5,0.1,1,0.2,1.4,0.3c0.5,0.1,0.8,0.7,0.7,1.2C795.8,73,795.4,73.3,794.9,73.3z M668.2,73.2
				c-0.2,0-0.4-0.1-0.6-0.2l-1.1-0.9c-0.4-0.3-0.5-1-0.2-1.4c0.3-0.4,1-0.5,1.4-0.2l1.1,0.9c0.4,0.3,0.5,1,0.2,1.4
				C668.8,73,668.5,73.2,668.2,73.2z M960.9,73c-0.1,0-0.2,0-0.4-0.1c-0.4-0.2-0.9-0.3-1.3-0.5c-0.5-0.2-0.7-0.8-0.5-1.3
				c0.2-0.5,0.8-0.7,1.3-0.5c0.4,0.2,0.9,0.4,1.3,0.5c0.5,0.2,0.8,0.8,0.6,1.3C961.7,72.8,961.3,73,960.9,73z M955.8,70.8
				c-0.1,0-0.3,0-0.4-0.1c-0.4-0.2-0.9-0.4-1.3-0.6c-0.5-0.2-0.7-0.8-0.5-1.3c0.2-0.5,0.8-0.7,1.3-0.5c0.4,0.2,0.8,0.4,1.3,0.6
				c0.5,0.2,0.7,0.8,0.5,1.3C956.5,70.6,956.1,70.8,955.8,70.8z M663.7,69.7c-0.2,0-0.4-0.1-0.6-0.2l-1.1-0.8
				c-0.4-0.3-0.5-0.9-0.2-1.4c0.3-0.4,0.9-0.5,1.4-0.2l1.1,0.9c0.4,0.3,0.5,0.9,0.2,1.4C664.3,69.6,664,69.7,663.7,69.7z
				 M950.7,68.3c-0.2,0-0.3,0-0.5-0.1c-0.4-0.2-0.8-0.5-1.2-0.7c-0.5-0.3-0.6-0.9-0.4-1.3c0.3-0.5,0.9-0.6,1.3-0.4
				c0.4,0.2,0.8,0.5,1.2,0.7c0.5,0.3,0.6,0.9,0.4,1.3C951.4,68.1,951.1,68.3,950.7,68.3z M659.2,66.4c-0.2,0-0.4-0.1-0.6-0.2
				c-0.4-0.3-0.8-0.6-1.1-0.8c-0.4-0.3-0.5-0.9-0.2-1.4c0.3-0.4,0.9-0.5,1.4-0.2c0.4,0.3,0.8,0.6,1.1,0.8c0.4,0.3,0.5,0.9,0.2,1.4
				C659.8,66.2,659.5,66.4,659.2,66.4z M945.9,65.4c-0.2,0-0.4-0.1-0.5-0.2l-1.2-0.8c-0.5-0.3-0.6-0.9-0.3-1.4
				c0.3-0.5,0.9-0.6,1.4-0.3l1.2,0.8c0.5,0.3,0.6,0.9,0.3,1.4C946.5,65.2,946.2,65.4,945.9,65.4z M654.6,63c-0.2,0-0.4-0.1-0.6-0.2
				l-1.1-0.8c-0.4-0.3-0.6-0.9-0.2-1.4c0.3-0.4,0.9-0.6,1.4-0.2c0.4,0.3,0.8,0.5,1.2,0.8c0.4,0.3,0.6,0.9,0.2,1.4
				C655.2,62.9,654.9,63,654.6,63z M941.1,62.3c-0.2,0-0.4,0-0.5-0.2c-0.4-0.3-0.8-0.5-1.2-0.7c-0.5-0.3-0.6-0.9-0.3-1.4
				c0.3-0.5,0.9-0.6,1.4-0.3c0.4,0.2,0.8,0.5,1.2,0.7c0.5,0.3,0.6,0.9,0.3,1.4C941.8,62.2,941.5,62.3,941.1,62.3z M866.8,62
				c-0.3,0-0.6-0.1-0.8-0.4c-0.3-0.4-0.2-1.1,0.2-1.4c0.4-0.3,0.8-0.6,1.1-0.9c0.4-0.3,1.1-0.2,1.4,0.2c0.3,0.4,0.2,1.1-0.2,1.4
				c-0.4,0.3-0.8,0.6-1.1,0.8C867.2,62,867,62,866.8,62z M650,59.8c-0.2,0-0.4-0.1-0.5-0.2c-0.4-0.3-0.8-0.5-1.2-0.8
				c-0.5-0.3-0.6-0.9-0.3-1.4c0.3-0.5,0.9-0.6,1.4-0.3c0.4,0.2,0.8,0.5,1.2,0.8c0.5,0.3,0.6,0.9,0.3,1.4
				C650.6,59.7,650.3,59.8,650,59.8z M936.3,59.4c-0.2,0-0.3,0-0.5-0.1c-0.4-0.2-0.8-0.5-1.2-0.7c-0.5-0.3-0.6-0.9-0.4-1.3
				c0.3-0.5,0.9-0.6,1.3-0.4c0.4,0.2,0.8,0.5,1.2,0.7c0.5,0.3,0.6,0.9,0.3,1.4C937,59.2,936.7,59.4,936.3,59.4z M871.4,58.7
				c-0.3,0-0.6-0.1-0.8-0.4c-0.3-0.4-0.2-1.1,0.2-1.4c0.4-0.3,0.8-0.5,1.2-0.8c0.5-0.3,1.1-0.2,1.4,0.3c0.3,0.5,0.2,1.1-0.3,1.4
				c-0.4,0.3-0.8,0.5-1.2,0.8C871.8,58.6,871.6,58.7,871.4,58.7z M645.1,56.9c-0.2,0-0.3,0-0.5-0.1c-0.4-0.2-0.8-0.4-1.2-0.7
				c-0.5-0.3-0.7-0.8-0.4-1.3c0.3-0.5,0.9-0.7,1.3-0.4c0.4,0.2,0.8,0.4,1.3,0.7c0.5,0.3,0.6,0.9,0.4,1.3
				C645.8,56.7,645.5,56.9,645.1,56.9z M931.4,56.6c-0.2,0-0.3,0-0.5-0.1c-0.4-0.2-0.8-0.4-1.2-0.6c-0.5-0.2-0.7-0.8-0.4-1.3
				c0.2-0.5,0.8-0.7,1.3-0.4c0.4,0.2,0.8,0.4,1.3,0.7c0.5,0.3,0.7,0.9,0.4,1.3C932.1,56.4,931.8,56.6,931.4,56.6z M876.1,55.6
				c-0.3,0-0.7-0.2-0.8-0.5c-0.3-0.5-0.1-1.1,0.3-1.4c0.4-0.3,0.8-0.5,1.2-0.7c0.5-0.3,1.1-0.1,1.4,0.3c0.3,0.5,0.1,1.1-0.3,1.4
				c-0.4,0.2-0.8,0.5-1.2,0.7C876.5,55.5,876.3,55.6,876.1,55.6z M640.1,54.4c-0.1,0-0.3,0-0.4-0.1c-0.4-0.2-0.9-0.4-1.3-0.6
				c-0.5-0.2-0.7-0.8-0.5-1.3c0.2-0.5,0.8-0.7,1.3-0.5c0.4,0.2,0.9,0.4,1.3,0.6c0.5,0.2,0.7,0.8,0.5,1.3
				C640.8,54.2,640.5,54.4,640.1,54.4z M926.4,54.1c-0.1,0-0.3,0-0.4-0.1c-0.4-0.2-0.9-0.4-1.3-0.5c-0.5-0.2-0.7-0.8-0.5-1.3
				c0.2-0.5,0.8-0.7,1.3-0.5c0.4,0.2,0.9,0.4,1.3,0.6c0.5,0.2,0.7,0.8,0.5,1.3C927.1,53.9,926.8,54.1,926.4,54.1z M881,52.8
				c-0.4,0-0.7-0.2-0.9-0.6c-0.2-0.5,0-1.1,0.4-1.3c0.4-0.2,0.9-0.4,1.3-0.6c0.5-0.2,1.1,0,1.3,0.5c0.2,0.5,0,1.1-0.5,1.3
				c-0.4,0.2-0.8,0.4-1.2,0.6C881.3,52.8,881.2,52.8,881,52.8z M237.1,52.8C237.1,52.8,237.1,52.8,237.1,52.8c-0.5,0-1-0.1-1.5-0.2
				c-0.5-0.1-0.9-0.6-0.8-1.1c0.1-0.5,0.6-0.9,1.1-0.8c0.5,0.1,0.9,0.1,1.3,0.2c0.5,0,0.9,0.5,0.9,1.1
				C238.1,52.4,237.6,52.8,237.1,52.8z M241.3,52.6c-0.5,0-0.9-0.4-1-0.8c-0.1-0.5,0.3-1,0.8-1.1c0.4-0.1,0.9-0.1,1.3-0.2
				c0.5-0.1,1.1,0.2,1.2,0.8c0.1,0.5-0.2,1.1-0.8,1.2c-0.5,0.1-1,0.2-1.4,0.2C241.4,52.6,241.4,52.6,241.3,52.6z M634.8,52.3
				c-0.1,0-0.2,0-0.3-0.1c-0.4-0.2-0.9-0.3-1.3-0.4c-0.5-0.2-0.8-0.7-0.6-1.2c0.2-0.5,0.7-0.8,1.2-0.6c0.4,0.1,0.9,0.3,1.4,0.5
				c0.5,0.2,0.8,0.7,0.6,1.3C635.6,52.1,635.3,52.3,634.8,52.3z M921.1,52.1c-0.1,0-0.2,0-0.3,0c-0.5-0.1-0.9-0.3-1.3-0.4
				c-0.5-0.2-0.8-0.7-0.7-1.2c0.2-0.5,0.7-0.8,1.2-0.7c0.4,0.1,0.9,0.3,1.4,0.4c0.5,0.2,0.8,0.7,0.6,1.2
				C921.9,51.9,921.5,52.1,921.1,52.1z M231.6,51.8c-0.1,0-0.2,0-0.2,0c-0.5-0.1-0.9-0.2-1.4-0.3c-0.5-0.1-0.8-0.7-0.7-1.2
				c0.1-0.5,0.7-0.8,1.2-0.7c0.5,0.1,0.9,0.2,1.4,0.3c0.5,0.1,0.9,0.7,0.7,1.2C232.4,51.5,232,51.8,231.6,51.8z M246.8,51.3
				c-0.4,0-0.8-0.3-0.9-0.7c-0.2-0.5,0.1-1.1,0.7-1.2c0.4-0.1,0.9-0.3,1.3-0.4c0.5-0.2,1.1,0.1,1.2,0.6s-0.1,1.1-0.6,1.2
				c-0.5,0.2-0.9,0.3-1.4,0.4C247,51.3,246.9,51.3,246.8,51.3z M886.3,50.8c-0.4,0-0.8-0.3-1-0.7c-0.1-0.5,0.2-1.1,0.7-1.2
				c0.5-0.1,0.9-0.2,1.4-0.3c0.5-0.1,1.1,0.2,1.2,0.8c0.1,0.5-0.2,1.1-0.8,1.2c-0.5,0.1-0.9,0.2-1.3,0.3
				C886.5,50.8,886.4,50.8,886.3,50.8z M629.5,50.7c-0.1,0-0.2,0-0.2,0c-0.5-0.1-0.9-0.2-1.3-0.3c-0.5-0.1-0.9-0.7-0.7-1.2
				c0.1-0.5,0.7-0.9,1.2-0.7c0.5,0.1,0.9,0.2,1.4,0.3c0.5,0.1,0.8,0.7,0.7,1.2C630.3,50.4,629.9,50.7,629.5,50.7z M915.7,50.6
				c-0.1,0-0.1,0-0.2,0c-0.4-0.1-0.9-0.2-1.4-0.2c-0.5-0.1-0.9-0.6-0.8-1.1c0.1-0.5,0.6-0.9,1.1-0.8c0.5,0.1,1,0.2,1.4,0.3
				c0.5,0.1,0.9,0.6,0.8,1.2C916.6,50.3,916.2,50.6,915.7,50.6z M910.1,49.8c0,0-0.1,0-0.1,0c-0.5,0-0.9-0.1-1.4-0.1
				c-0.5,0-0.9-0.5-0.9-1.1c0-0.5,0.5-0.9,1.1-0.9c0.5,0,1,0.1,1.4,0.1c0.5,0.1,0.9,0.5,0.9,1.1C911,49.4,910.6,49.8,910.1,49.8z
				 M891.8,49.8c-0.5,0-0.9-0.4-1-0.9c-0.1-0.5,0.3-1,0.9-1.1c0.5-0.1,0.9-0.1,1.4-0.2c0.5-0.1,1,0.3,1.1,0.9c0.1,0.5-0.3,1-0.9,1.1
				c-0.5,0-0.9,0.1-1.4,0.2C891.9,49.8,891.9,49.8,891.8,49.8z M623.9,49.5c-0.1,0-0.1,0-0.2,0c-0.5-0.1-0.9-0.2-1.4-0.2
				c-0.5-0.1-0.9-0.6-0.8-1.1c0.1-0.5,0.6-0.9,1.1-0.8c0.4,0.1,0.9,0.1,1.4,0.2c0.5,0.1,0.9,0.6,0.8,1.1
				C624.8,49.2,624.4,49.5,623.9,49.5z M252.2,49.5c-0.4,0-0.8-0.2-0.9-0.6c-0.2-0.5,0-1.1,0.6-1.3c0.4-0.2,0.9-0.3,1.3-0.5
				c0.5-0.2,1.1,0,1.3,0.5c0.2,0.5,0,1.1-0.5,1.3c-0.4,0.2-0.9,0.4-1.3,0.5C252.4,49.4,252.3,49.5,252.2,49.5z M904.5,49.4
				C904.5,49.4,904.5,49.4,904.5,49.4c-0.5,0-1,0-1.4-0.1c-0.5,0-1-0.5-1-1c0-0.5,0.5-1,1-1c0.5,0,1,0,1.4,0.1c0.5,0,1,0.5,0.9,1
				C905.5,49,905,49.4,904.5,49.4z M897.4,49.4c-0.5,0-1-0.4-1-1c0-0.5,0.4-1,0.9-1c0.5,0,1,0,1.4,0c0,0,0,0,0,0c0.5,0,1,0.4,1,1
				c0,0.5-0.4,1-1,1C898.4,49.3,897.9,49.3,897.4,49.4C897.5,49.4,897.5,49.4,897.4,49.4z M618.4,48.7c-0.1,0-0.1,0-0.2,0
				c-0.4-0.1-0.9-0.1-1.4-0.2c-0.5-0.1-0.9-0.6-0.8-1.1c0.1-0.5,0.6-0.9,1.1-0.8c0.5,0.1,1,0.2,1.4,0.2c0.5,0.1,0.9,0.6,0.8,1.1
				C619.2,48.4,618.8,48.7,618.4,48.7z M612.8,47.8c-0.1,0-0.1,0-0.2,0l-1.4-0.3c-0.5-0.1-0.9-0.6-0.8-1.1c0.1-0.5,0.6-0.9,1.1-0.8
				l1.4,0.3c0.5,0.1,0.9,0.6,0.8,1.1C613.7,47.4,613.2,47.8,612.8,47.8z M257.3,47.2c-0.4,0-0.7-0.2-0.9-0.6c-0.2-0.5,0-1.1,0.5-1.3
				c0.4-0.2,0.8-0.4,1.3-0.6c0.5-0.2,1.1,0,1.3,0.4c0.2,0.5,0,1.1-0.4,1.3c-0.4,0.2-0.9,0.4-1.3,0.6
				C257.6,47.2,257.5,47.2,257.3,47.2z M262.3,44.6c-0.3,0-0.7-0.2-0.9-0.5c-0.3-0.5-0.1-1.1,0.4-1.3c0.4-0.2,0.8-0.5,1.2-0.7
				c0.5-0.3,1.1-0.1,1.3,0.4c0.3,0.5,0.1,1.1-0.4,1.3c-0.4,0.2-0.8,0.5-1.2,0.7C262.7,44.6,262.5,44.6,262.3,44.6z M485.6,43.3
				c-0.1,0-0.2,0-0.3,0c-0.5-0.1-0.9-0.3-1.4-0.5c-0.5-0.2-0.8-0.8-0.6-1.3c0.2-0.5,0.8-0.8,1.3-0.6c0.4,0.2,0.9,0.3,1.3,0.4
				c0.5,0.2,0.8,0.7,0.6,1.2C486.4,43.1,486,43.3,485.6,43.3z M204.9,42.8c-0.1,0-0.2,0-0.3-0.1c-0.4-0.1-0.9-0.3-1.3-0.4
				c-0.5-0.2-0.8-0.7-0.6-1.2c0.2-0.5,0.7-0.8,1.2-0.6c0.5,0.1,0.9,0.3,1.4,0.4c0.5,0.2,0.8,0.7,0.6,1.2
				C205.6,42.5,205.3,42.8,204.9,42.8z M585,42.5c-0.1,0-0.1,0-0.2,0l-1.4-0.3c-0.5-0.1-0.9-0.6-0.8-1.1c0.1-0.5,0.6-0.9,1.1-0.8
				l1.4,0.3c0.5,0.1,0.9,0.6,0.8,1.1C585.9,42.1,585.5,42.5,585,42.5z M267.2,41.8c-0.3,0-0.7-0.2-0.8-0.5c-0.3-0.5-0.1-1.1,0.3-1.4
				c0.4-0.2,0.8-0.5,1.2-0.7c0.5-0.3,1.1-0.2,1.4,0.3c0.3,0.5,0.2,1.1-0.3,1.4c-0.4,0.3-0.8,0.5-1.2,0.8
				C267.6,41.7,267.4,41.8,267.2,41.8z M579.5,41.5c-0.1,0-0.1,0-0.2,0l-1.4-0.3c-0.5-0.1-0.9-0.6-0.8-1.1c0.1-0.5,0.6-0.9,1.1-0.8
				l1.4,0.3c0.5,0.1,0.9,0.6,0.8,1.1C580.3,41.1,579.9,41.5,579.5,41.5z M338,41.2c-0.1,0-0.1,0-0.2,0c-0.5-0.1-0.9-0.2-1.4-0.2
				c-0.5-0.1-0.9-0.6-0.8-1.1c0.1-0.5,0.6-0.9,1.1-0.8c0.5,0.1,0.9,0.2,1.4,0.2c0.5,0.1,0.9,0.6,0.8,1.1
				C338.9,40.9,338.4,41.2,338,41.2z M480.4,41.1c-0.2,0-0.3,0-0.5-0.1c-0.4-0.2-0.8-0.5-1.3-0.7c-0.5-0.3-0.6-0.9-0.3-1.4
				c0.3-0.5,0.9-0.6,1.4-0.3c0.4,0.2,0.8,0.5,1.2,0.7c0.5,0.3,0.7,0.9,0.4,1.3C481.1,40.9,480.7,41.1,480.4,41.1z M199.5,41.1
				c-0.1,0-0.2,0-0.3,0c-0.4-0.1-0.9-0.3-1.3-0.4c-0.5-0.1-0.8-0.7-0.7-1.2c0.1-0.5,0.7-0.8,1.2-0.7c0.5,0.1,0.9,0.3,1.4,0.4
				c0.5,0.2,0.8,0.7,0.7,1.2C200.3,40.8,199.9,41.1,199.5,41.1z M573.9,40.5c-0.1,0-0.1,0-0.2,0l-1.4-0.2c-0.5-0.1-0.9-0.6-0.8-1.1
				c0.1-0.5,0.6-0.9,1.1-0.8l1.4,0.2c0.5,0.1,0.9,0.6,0.8,1.1C574.8,40.1,574.4,40.5,573.9,40.5z M58,40.1C58,40.1,58,40.1,58,40.1
				c-0.5,0-1,0-1.4,0c-0.5,0-1-0.5-1-1c0-0.5,0.5-1,1-1c0.5,0,0.9,0,1.4,0c0.5,0,1,0.5,1,1C59,39.7,58.5,40.1,58,40.1z M62.2,40.1
				c-0.5,0-1-0.4-1-1c0-0.5,0.4-1,1-1c0.5,0,0.9,0,1.4,0c0.5,0,1,0.4,1,1c0,0.5-0.4,1-1,1C63.2,40.1,62.7,40.1,62.2,40.1
				C62.2,40.1,62.2,40.1,62.2,40.1z M332.4,40.1c-0.1,0-0.2,0-0.2,0c-0.5-0.1-0.9-0.2-1.4-0.3c-0.5-0.1-0.8-0.7-0.7-1.2
				c0.1-0.5,0.7-0.8,1.2-0.7c0.5,0.1,0.9,0.2,1.4,0.3c0.5,0.1,0.9,0.7,0.7,1.2C333.3,39.8,332.9,40.1,332.4,40.1z M364.2,40
				c-0.4,0-0.7-0.2-0.9-0.6c-0.2-0.5,0-1.1,0.5-1.3c0.4-0.2,0.8-0.4,1.2-0.6c0.5-0.3,1.1-0.1,1.3,0.4c0.3,0.5,0.1,1.1-0.4,1.3
				c-0.4,0.2-0.9,0.4-1.3,0.7C364.5,40,364.4,40,364.2,40z M52.4,39.9C52.3,39.9,52.3,39.9,52.4,39.9l-1.5-0.1c-0.5,0-1-0.5-0.9-1
				c0-0.5,0.5-0.9,1-0.9l1.4,0.1c0.5,0,1,0.5,0.9,1C53.3,39.5,52.9,39.9,52.4,39.9z M67.9,39.9c-0.5,0-1-0.4-1-0.9
				c0-0.5,0.4-1,0.9-1c0.5,0,0.9-0.1,1.4-0.1c0.5,0,1,0.4,1.1,0.9c0,0.5-0.4,1-0.9,1.1C68.9,39.8,68.4,39.8,67.9,39.9
				C67.9,39.9,67.9,39.9,67.9,39.9z M194,39.6c-0.1,0-0.2,0-0.2,0c-0.4-0.1-0.9-0.2-1.4-0.3c-0.5-0.1-0.9-0.7-0.7-1.2
				c0.1-0.5,0.7-0.9,1.2-0.7c0.5,0.1,0.9,0.2,1.4,0.3c0.5,0.1,0.8,0.7,0.7,1.2C194.9,39.3,194.5,39.6,194,39.6z M46.7,39.5
				C46.7,39.5,46.7,39.5,46.7,39.5c-0.6,0-1-0.1-1.5-0.1c-0.5,0-0.9-0.5-0.9-1.1c0-0.5,0.5-0.9,1.1-0.9c0.5,0,0.9,0.1,1.4,0.1
				c0.5,0,0.9,0.5,0.9,1.1C47.7,39.1,47.2,39.5,46.7,39.5z M568.3,39.5c-0.1,0-0.1,0-0.2,0l-1.4-0.2c-0.5-0.1-0.9-0.6-0.8-1.1
				c0.1-0.5,0.6-0.9,1.1-0.8l1.4,0.2c0.5,0.1,0.9,0.6,0.8,1.1C569.2,39.1,568.8,39.5,568.3,39.5z M73.5,39.4c-0.5,0-0.9-0.4-1-0.9
				c-0.1-0.5,0.3-1,0.9-1.1c0.5,0,0.9-0.1,1.4-0.1c0.5-0.1,1,0.3,1.1,0.9c0.1,0.5-0.3,1-0.9,1.1C74.5,39.3,74,39.4,73.5,39.4
				C73.5,39.4,73.5,39.4,73.5,39.4z M511.3,39.4c-0.4,0-0.7-0.2-0.9-0.5c-0.2-0.5,0-1.1,0.4-1.3l0.1-0.1c0.4-0.2,0.8-0.4,1.2-0.6
				c0.5-0.2,1.1,0,1.3,0.5c0.2,0.5,0,1.1-0.5,1.3c-0.4,0.2-0.7,0.3-1.1,0.5l-0.1,0.1C511.6,39.3,511.5,39.4,511.3,39.4z M41.1,39
				C41.1,39,41.1,39,41.1,39c-0.6-0.1-1-0.1-1.5-0.2c-0.5-0.1-0.9-0.5-0.9-1.1c0.1-0.5,0.5-0.9,1.1-0.9c0.5,0,0.9,0.1,1.4,0.1
				c0.5,0.1,0.9,0.5,0.9,1.1C42,38.6,41.6,39,41.1,39z M79.1,38.8c-0.5,0-0.9-0.4-1-0.9c-0.1-0.5,0.3-1,0.8-1.1
				c0.5-0.1,0.9-0.1,1.4-0.2c0.5-0.1,1,0.3,1.1,0.8c0.1,0.5-0.3,1-0.8,1.1c-0.5,0.1-0.9,0.1-1.4,0.2C79.2,38.8,79.1,38.8,79.1,38.8z
				 M272,38.8c-0.3,0-0.7-0.2-0.8-0.5c-0.3-0.5-0.1-1.1,0.3-1.4c0.4-0.3,0.8-0.5,1.2-0.7c0.5-0.3,1.1-0.1,1.4,0.3
				c0.3,0.5,0.1,1.1-0.3,1.4c-0.4,0.2-0.8,0.5-1.2,0.7C272.3,38.7,272.1,38.8,272,38.8z M327,38.6c-0.1,0-0.2,0-0.3,0
				c-0.4-0.1-0.8-0.3-1.2-0.4l-0.1,0c-0.5-0.2-0.8-0.7-0.6-1.3c0.2-0.5,0.7-0.8,1.3-0.6l0.1,0c0.4,0.1,0.8,0.3,1.2,0.4
				c0.5,0.2,0.8,0.7,0.6,1.2C327.8,38.3,327.4,38.6,327,38.6z M562.8,38.6c-0.1,0-0.1,0-0.2,0l-1.4-0.2c-0.5-0.1-0.9-0.6-0.8-1.1
				c0.1-0.5,0.6-0.9,1.1-0.8l1.4,0.2c0.5,0.1,0.9,0.6,0.8,1.1C563.7,38.2,563.2,38.6,562.8,38.6z M35.5,38.4c0,0-0.1,0-0.1,0
				c-0.5-0.1-0.9-0.1-1.4-0.2c-0.5-0.1-0.9-0.6-0.8-1.1c0.1-0.5,0.6-0.9,1.1-0.8c0.5,0.1,0.9,0.1,1.4,0.2c0.5,0.1,0.9,0.6,0.9,1.1
				C36.4,38,36,38.4,35.5,38.4z M188.6,38.2c-0.1,0-0.2,0-0.3,0c-0.5-0.1-0.9-0.2-1.4-0.4c-0.5-0.1-0.8-0.7-0.7-1.2
				c0.1-0.5,0.7-0.8,1.2-0.7c0.4,0.1,0.9,0.2,1.4,0.4c0.5,0.1,0.8,0.7,0.7,1.2C189.4,37.9,189,38.2,188.6,38.2z M475.7,38
				c-0.2,0-0.4-0.1-0.6-0.2c-0.4-0.3-0.7-0.6-1.1-0.9c-0.4-0.4-0.4-1-0.1-1.4c0.4-0.4,1-0.4,1.4-0.1c0.3,0.3,0.7,0.6,1,0.9
				c0.4,0.3,0.5,1,0.1,1.4C476.3,37.8,476,38,475.7,38z M84.7,37.9c-0.5,0-0.9-0.3-1-0.8c-0.1-0.5,0.3-1,0.8-1.1
				c0.5-0.1,0.9-0.2,1.4-0.2c0.5-0.1,1,0.3,1.1,0.8c0.1,0.5-0.3,1-0.8,1.1c-0.5,0.1-0.9,0.2-1.4,0.2C84.8,37.9,84.7,37.9,84.7,37.9z
				 M557.2,37.7c0,0-0.1,0-0.1,0c-0.5-0.1-0.9-0.1-1.4-0.2c-0.5-0.1-0.9-0.6-0.8-1.1c0.1-0.5,0.6-0.9,1.1-0.8
				c0.5,0.1,0.9,0.1,1.4,0.2c0.5,0.1,0.9,0.6,0.8,1.1C558.1,37.3,557.7,37.7,557.2,37.7z M29.9,37.6c-0.1,0-0.1,0-0.2,0
				c-0.5-0.1-0.9-0.2-1.4-0.2c-0.5-0.1-0.9-0.6-0.8-1.1c0.1-0.5,0.6-0.9,1.1-0.8c0.5,0.1,0.9,0.2,1.4,0.2c0.5,0.1,0.9,0.6,0.8,1.1
				C30.8,37.3,30.4,37.6,29.9,37.6z M516.6,37.3c-0.4,0-0.8-0.3-0.9-0.7c-0.2-0.5,0.1-1.1,0.7-1.2c0.5-0.1,0.9-0.3,1.4-0.4
				c0.5-0.1,1.1,0.2,1.2,0.7c0.1,0.5-0.2,1.1-0.7,1.2c-0.4,0.1-0.9,0.2-1.3,0.4C516.8,37.3,516.7,37.3,516.6,37.3z M369.1,37.2
				c-0.3,0-0.6-0.2-0.8-0.4c-0.3-0.5-0.2-1.1,0.3-1.4c0.4-0.3,0.8-0.5,1.1-0.8c0.4-0.3,1.1-0.2,1.4,0.2c0.3,0.4,0.2,1.1-0.2,1.4
				c-0.4,0.3-0.8,0.5-1.2,0.8C369.5,37.2,369.3,37.2,369.1,37.2z M551.6,37c0,0-0.1,0-0.1,0l-1.4-0.2c-0.5-0.1-1-0.6-0.9-1.1
				c0.1-0.5,0.5-0.9,1.1-0.9l1.4,0.2c0.5,0.1,0.9,0.5,0.9,1.1C552.5,36.6,552.1,37,551.6,37z M90.2,36.9c-0.5,0-0.9-0.3-1-0.8
				c-0.1-0.5,0.2-1.1,0.8-1.2c0.5-0.1,0.9-0.2,1.4-0.3c0.5-0.1,1.1,0.2,1.2,0.8c0.1,0.5-0.2,1.1-0.8,1.2c-0.5,0.1-0.9,0.2-1.4,0.3
				C90.3,36.9,90.3,36.9,90.2,36.9z M321.6,36.9c-0.1,0-0.2,0-0.3,0c-0.4-0.1-0.9-0.3-1.3-0.4c-0.5-0.2-0.8-0.7-0.7-1.2
				c0.2-0.5,0.7-0.8,1.2-0.7c0.5,0.1,0.9,0.3,1.4,0.4c0.5,0.2,0.8,0.7,0.7,1.2C322.5,36.6,322.1,36.9,321.6,36.9z M183.1,36.7
				c-0.1,0-0.2,0-0.3,0c-0.5-0.1-0.9-0.3-1.4-0.4c-0.5-0.2-0.8-0.7-0.6-1.2c0.2-0.5,0.7-0.8,1.2-0.6c0.4,0.1,0.9,0.3,1.3,0.4
				c0.5,0.2,0.8,0.7,0.6,1.2C184,36.4,183.6,36.7,183.1,36.7z M24.4,36.6c-0.1,0-0.1,0-0.2,0c-0.5-0.1-0.9-0.2-1.4-0.3
				c-0.5-0.1-0.9-0.6-0.8-1.2c0.1-0.5,0.6-0.9,1.2-0.8c0.4,0.1,0.9,0.2,1.4,0.3c0.5,0.1,0.9,0.6,0.8,1.2
				C25.3,36.3,24.8,36.6,24.4,36.6z M546,36.3c0,0-0.1,0-0.1,0c-0.5,0-0.9-0.1-1.4-0.1c-0.5-0.1-0.9-0.5-0.9-1.1
				c0.1-0.5,0.5-0.9,1.1-0.9c0.5,0,0.9,0.1,1.4,0.1c0.5,0.1,0.9,0.5,0.9,1.1C546.9,36,546.5,36.3,546,36.3z M522.1,36.1
				c-0.5,0-0.9-0.4-1-0.8c-0.1-0.5,0.3-1,0.8-1.1c0.5-0.1,0.9-0.1,1.4-0.2c0.5-0.1,1,0.3,1.1,0.9c0.1,0.5-0.3,1-0.9,1.1
				c-0.5,0.1-0.9,0.1-1.4,0.2C522.2,36.1,522.1,36.1,522.1,36.1z M276.8,35.9c-0.3,0-0.7-0.2-0.9-0.5c-0.3-0.5-0.1-1.1,0.4-1.3
				c0.4-0.2,0.8-0.5,1.3-0.7c0.5-0.3,1.1-0.1,1.3,0.4c0.3,0.5,0.1,1.1-0.4,1.3c-0.4,0.2-0.8,0.4-1.2,0.7
				C277.2,35.9,277,35.9,276.8,35.9z M540.4,35.8C540.3,35.8,540.3,35.8,540.4,35.8c-0.5,0-1-0.1-1.5-0.1c-0.5,0-1-0.5-0.9-1
				c0-0.5,0.5-1,1-0.9c0.5,0,0.9,0.1,1.4,0.1c0.5,0,1,0.5,0.9,1.1C541.3,35.4,540.9,35.8,540.4,35.8z M95.7,35.7
				c-0.4,0-0.9-0.3-1-0.8c-0.1-0.5,0.2-1.1,0.7-1.2c0.5-0.1,0.9-0.2,1.4-0.3c0.5-0.1,1.1,0.2,1.2,0.7c0.1,0.5-0.2,1.1-0.7,1.2
				c-0.5,0.1-0.9,0.2-1.4,0.3C95.9,35.7,95.8,35.7,95.7,35.7z M527.7,35.6c-0.5,0-1-0.4-1-0.9c0-0.5,0.4-1,0.9-1c0.5,0,1,0,1.4-0.1
				c0,0,0,0,0,0c0.5,0,1,0.4,1,1c0,0.5-0.4,1-1,1C528.7,35.5,528.2,35.6,527.7,35.6C527.7,35.6,527.7,35.6,527.7,35.6z M534.7,35.5
				C534.7,35.5,534.7,35.5,534.7,35.5c-0.5,0-1,0-1.4,0c-0.5,0-1-0.5-1-1c0-0.5,0.4-1,1-1c0.5,0,1,0,1.4,0c0.5,0,1,0.5,1,1
				C535.7,35.1,535.3,35.5,534.7,35.5z M316.2,35.3c-0.1,0-0.2,0-0.2,0c-0.5-0.1-0.9-0.2-1.4-0.3c-0.5-0.1-0.8-0.7-0.7-1.2
				c0.1-0.5,0.7-0.9,1.2-0.7c0.5,0.1,0.9,0.2,1.4,0.4c0.5,0.1,0.8,0.7,0.7,1.2C317,35,316.6,35.3,316.2,35.3z M177.8,34.8
				c-0.1,0-0.2,0-0.4-0.1c-0.4-0.2-0.9-0.3-1.3-0.5c-0.5-0.2-0.8-0.8-0.5-1.3c0.2-0.5,0.8-0.7,1.3-0.5c0.4,0.2,0.9,0.3,1.3,0.5
				c0.5,0.2,0.8,0.8,0.6,1.3C178.6,34.6,178.2,34.8,177.8,34.8z M101.2,34.3c-0.4,0-0.8-0.3-1-0.7c-0.1-0.5,0.2-1.1,0.7-1.2
				c0.5-0.1,0.9-0.2,1.4-0.4c0.5-0.1,1.1,0.2,1.2,0.7c0.1,0.5-0.2,1.1-0.7,1.2c-0.4,0.1-0.9,0.2-1.4,0.4
				C101.4,34.3,101.3,34.3,101.2,34.3z M471.7,34.1c-0.3,0-0.5-0.1-0.7-0.3c-0.3-0.4-0.6-0.7-0.9-1.1c-0.3-0.4-0.3-1,0.2-1.4
				c0.4-0.3,1-0.3,1.4,0.2c0.3,0.4,0.6,0.7,0.9,1c0.4,0.4,0.3,1-0.1,1.4C472.1,34,471.9,34.1,471.7,34.1z M310.7,34
				c-0.1,0-0.1,0-0.2,0c-0.5-0.1-0.9-0.2-1.4-0.3c-0.5-0.1-0.9-0.6-0.7-1.2c0.1-0.5,0.6-0.9,1.2-0.7c0.5,0.1,0.9,0.2,1.4,0.3
				c0.5,0.1,0.9,0.7,0.7,1.2C311.6,33.7,311.2,34,310.7,34z M373.6,33.9c-0.3,0-0.6-0.1-0.8-0.3c-0.4-0.4-0.3-1,0.1-1.4
				c0.3-0.3,0.7-0.6,1-0.9c0.4-0.4,1-0.3,1.4,0.1c0.4,0.4,0.3,1-0.1,1.4c-0.4,0.3-0.7,0.6-1.1,1C374.1,33.8,373.9,33.9,373.6,33.9z
				 M303.6,32.5c-0.5-0.1-0.9-0.6-0.8-1.2c0.1-0.5,0.6-0.9,1.2-0.8l1.4,0.3c0.5,0.1,0.9,0.6,0.8,1.2c-0.1,0.5-0.5,0.8-1,0.8
				 M106.6,32.8c-0.4,0-0.8-0.3-0.9-0.7c-0.2-0.5,0.1-1.1,0.7-1.2c0.5-0.1,0.9-0.3,1.3-0.4c0.5-0.2,1.1,0.1,1.2,0.7
				c0.2,0.5-0.1,1.1-0.7,1.2c-0.4,0.1-0.9,0.3-1.4,0.4C106.8,32.8,106.7,32.8,106.6,32.8z M172.6,32.6c-0.1,0-0.3,0-0.4-0.1
				c-0.4-0.2-0.9-0.4-1.3-0.6c-0.5-0.2-0.7-0.8-0.4-1.3c0.2-0.5,0.8-0.7,1.3-0.4c0.4,0.2,0.8,0.4,1.3,0.6c0.5,0.2,0.7,0.8,0.5,1.3
				C173.4,32.4,173,32.6,172.6,32.6z M112,31.1c-0.4,0-0.8-0.3-0.9-0.7c-0.2-0.5,0.1-1.1,0.6-1.2c0.5-0.2,0.9-0.3,1.3-0.5
				c0.5-0.2,1.1,0.1,1.3,0.6c0.2,0.5-0.1,1.1-0.6,1.3c-0.4,0.1-0.9,0.3-1.3,0.5C112.2,31.1,112.1,31.1,112,31.1z M167.6,30
				c-0.2,0-0.3,0-0.5-0.1c-0.4-0.2-0.8-0.5-1.2-0.7c-0.5-0.3-0.6-0.9-0.3-1.4c0.3-0.5,0.9-0.6,1.4-0.3c0.4,0.2,0.8,0.5,1.2,0.7
				c0.5,0.3,0.6,0.9,0.3,1.4C168.3,29.8,168,30,167.6,30z M377.7,29.9c-0.2,0-0.5-0.1-0.6-0.2c-0.4-0.4-0.5-1-0.1-1.4
				c0.3-0.3,0.6-0.7,0.9-1.1c0.3-0.4,1-0.5,1.4-0.2c0.4,0.3,0.5,1,0.2,1.4c-0.3,0.4-0.6,0.8-0.9,1.1
				C378.2,29.8,377.9,29.9,377.7,29.9z M468.3,29.5c-0.3,0-0.7-0.2-0.8-0.5l-0.7-1.2c-0.3-0.5-0.2-1.1,0.3-1.4
				c0.5-0.3,1.1-0.2,1.4,0.3l0.7,1.2c0.3,0.5,0.1,1.1-0.3,1.4C468.7,29.5,468.5,29.5,468.3,29.5z M117.3,29.2
				c-0.4,0-0.8-0.2-0.9-0.6c-0.2-0.5,0.1-1.1,0.6-1.3c0.5-0.2,0.9-0.4,1.3-0.5c0.5-0.2,1.1,0,1.3,0.6c0.2,0.5,0,1.1-0.6,1.3
				c-0.4,0.1-0.8,0.3-1.3,0.5C117.5,29.2,117.4,29.2,117.3,29.2z M122.4,26.8c-0.4,0-0.7-0.2-0.9-0.5c-0.3-0.5-0.1-1.1,0.4-1.3
				l1.2-0.7c0.5-0.3,1.1-0.1,1.3,0.4c0.3,0.5,0.1,1.1-0.4,1.3l-1.2,0.7C122.8,26.8,122.6,26.8,122.4,26.8z M380.9,25.3
				c-0.2,0-0.4,0-0.5-0.1c-0.5-0.3-0.6-0.9-0.3-1.4c0.3-0.4,0.5-0.8,0.7-1.2c0.3-0.5,0.9-0.6,1.4-0.3c0.5,0.3,0.6,0.9,0.3,1.4
				c-0.2,0.4-0.5,0.8-0.7,1.2C381.6,25.2,381.3,25.3,380.9,25.3z M465.3,24.8c-0.3,0-0.6-0.2-0.8-0.4c-0.3-0.4-0.5-0.8-0.8-1.2
				c-0.3-0.4-0.2-1.1,0.3-1.4c0.4-0.3,1.1-0.2,1.4,0.3c0.3,0.4,0.5,0.8,0.8,1.2c0.3,0.5,0.2,1.1-0.3,1.4
				C465.7,24.7,465.5,24.8,465.3,24.8z M127.4,24.1c-0.3,0-0.7-0.2-0.9-0.5c-0.3-0.5-0.1-1.1,0.4-1.3l1.2-0.7
				c0.5-0.3,1.1-0.1,1.3,0.4c0.3,0.5,0.1,1.1-0.4,1.3l-1.2,0.7C127.7,24.1,127.6,24.1,127.4,24.1z M132.3,21.3
				c-0.3,0-0.7-0.2-0.9-0.5c-0.3-0.5-0.1-1.1,0.4-1.4c0.4-0.2,0.8-0.5,1.2-0.7c0.5-0.3,1.1-0.1,1.4,0.3c0.3,0.5,0.1,1.1-0.3,1.4
				c-0.4,0.2-0.8,0.5-1.2,0.7C132.6,21.3,132.5,21.3,132.3,21.3z M384,20.6c-0.2,0-0.4-0.1-0.6-0.2c-0.5-0.3-0.6-0.9-0.3-1.4
				c0.3-0.4,0.5-0.8,0.8-1.2c0.3-0.4,0.9-0.6,1.4-0.2c0.4,0.3,0.6,0.9,0.2,1.4c-0.3,0.4-0.5,0.8-0.8,1.1
				C384.6,20.4,384.3,20.6,384,20.6z M137.1,18.3c-0.4,0-0.7-0.2-0.9-0.5c-0.3-0.5-0.1-1.1,0.4-1.3c0.4-0.2,0.9-0.4,1.4-0.6
				c0.5-0.2,1.1,0,1.3,0.5c0.2,0.5,0,1.1-0.5,1.3c-0.4,0.2-0.8,0.4-1.2,0.5C137.4,18.3,137.3,18.3,137.1,18.3z M142.5,16.7
				c-0.5,0-0.9-0.4-1-0.9c-0.1-0.5,0.3-1,0.8-1.1c0.5-0.1,1-0.1,1.5-0.1c0.5,0,1,0.4,1,0.9c0,0.5-0.4,1-0.9,1
				c-0.4,0-0.9,0.1-1.3,0.1C142.5,16.7,142.5,16.7,142.5,16.7z M441.5,12.7C441.5,12.7,441.5,12.7,441.5,12.7c-0.5,0-0.9,0-1.4,0
				c-0.5,0-1-0.4-1-1c0-0.5,0.4-1,1-1c0,0,0,0,0,0c0.5,0,1,0,1.4,0c0.5,0,1,0.5,1,1C442.5,12.3,442.1,12.7,441.5,12.7z M434.5,12.7
				c-0.5,0-1-0.4-1-1c0-0.5,0.4-1,1-1l1.4,0c0,0,0,0,0,0c0.5,0,1,0.4,1,1c0,0.5-0.4,1-1,1L434.5,12.7z M430.3,12.7
				C430.2,12.7,430.2,12.7,430.3,12.7c-0.5,0-1,0-1.4,0c-0.5,0-1-0.5-1-1c0-0.5,0.5-1,1-1c0.5,0,0.9,0,1.4,0c0.5,0,1,0.5,1,1
				C431.2,12.3,430.8,12.7,430.3,12.7z M424.6,12.4C424.6,12.4,424.6,12.4,424.6,12.4c-0.4,0-0.8-0.1-1.2-0.1l-0.4,0
				c-0.5-0.1-0.9-0.6-0.9-1.1c0.1-0.5,0.6-0.9,1.1-0.9l0.3,0c0.3,0,0.7,0.1,1,0.1c0.5,0,0.9,0.5,0.9,1.1
				C425.6,12,425.1,12.4,424.6,12.4z M419.1,11.5c-0.1,0-0.1,0-0.2,0c-0.5-0.1-0.9-0.2-1.4-0.3c-0.5-0.1-0.9-0.7-0.7-1.2
				c0.1-0.5,0.7-0.9,1.2-0.7c0.5,0.1,0.9,0.2,1.4,0.3c0.5,0.1,0.9,0.7,0.7,1.2C419.9,11.2,419.5,11.5,419.1,11.5z M413.6,10.1
				c-0.1,0-0.2,0-0.3,0L412,9.7c-0.5-0.1-0.8-0.7-0.7-1.2c0.1-0.5,0.7-0.8,1.2-0.7l1.4,0.4c0.5,0.1,0.8,0.7,0.7,1.2
				C414.4,9.8,414,10.1,413.6,10.1z M408.1,8.7c-0.1,0-0.1,0-0.2,0c-0.5-0.1-0.9-0.2-1.4-0.3c-0.5-0.1-0.9-0.6-0.8-1.2
				c0.1-0.5,0.6-0.9,1.2-0.8c0.5,0.1,0.9,0.2,1.4,0.3c0.5,0.1,0.9,0.6,0.7,1.2C409,8.4,408.6,8.7,408.1,8.7z"/>
		</g>
	</g>
</g>
<g>
	<path class="st0" d="M10.2,42c-5,0-9-4.1-9-9s4.1-9,9-9s9,4.1,9,9S15.2,42,10.2,42z M10.2,25.5c-4.1,0-7.5,3.4-7.5,7.5
		s3.4,7.5,7.5,7.5s7.5-3.4,7.5-7.5S14.3,25.5,10.2,25.5z"/>
</g>
<g>
	<path class="st0" d="M155,29.7c-5,0-9-4.1-9-9s4.1-9,9-9s9,4.1,9,9S159.9,29.7,155,29.7z M155,13.2c-4.1,0-7.5,3.4-7.5,7.5
		s3.4,7.5,7.5,7.5s7.5-3.4,7.5-7.5S159.1,13.2,155,13.2z"/>
</g>
<g>
	<path class="st0" d="M217.3,55.2c-5,0-9-4.1-9-9s4.1-9,9-9c5,0,9,4.1,9,9S222.3,55.2,217.3,55.2z M217.3,38.7
		c-4.1,0-7.5,3.4-7.5,7.5s3.4,7.5,7.5,7.5s7.5-3.4,7.5-7.5S221.4,38.7,217.3,38.7z"/>
</g>
<g>
	<path class="st0" d="M291.3,40.3c-5,0-9-4.1-9-9c0-5,4.1-9,9-9c5,0,9,4.1,9,9C300.3,36.3,296.3,40.3,291.3,40.3z M291.3,23.8
		c-4.1,0-7.5,3.4-7.5,7.5s3.4,7.5,7.5,7.5c4.1,0,7.5-3.4,7.5-7.5S295.4,23.8,291.3,23.8z"/>
</g>
<g>
	<path class="st0" d="M351.2,50.1c-5,0-9-4.1-9-9c0-5,4.1-9,9-9c5,0,9,4.1,9,9C360.2,46.1,356.1,50.1,351.2,50.1z M351.2,33.6
		c-4.1,0-7.5,3.4-7.5,7.5s3.4,7.5,7.5,7.5c4.1,0,7.5-3.4,7.5-7.5S355.3,33.6,351.2,33.6z"/>
</g>
<g>
	<path class="st0" d="M394.7,19.5c-5,0-9-4.1-9-9s4.1-9,9-9c5,0,9,4.1,9,9S399.7,19.5,394.7,19.5z M394.7,2.9
		c-4.1,0-7.5,3.4-7.5,7.5s3.4,7.5,7.5,7.5c4.1,0,7.5-3.4,7.5-7.5S398.8,2.9,394.7,2.9z"/>
</g>
<g>
	<path class="st0" d="M454.3,23.6c-5,0-9-4.1-9-9s4.1-9,9-9c5,0,9,4.1,9,9S459.3,23.6,454.3,23.6z M454.3,7.1
		c-4.1,0-7.5,3.4-7.5,7.5s3.4,7.5,7.5,7.5c4.1,0,7.5-3.4,7.5-7.5S458.5,7.1,454.3,7.1z"/>
</g>
<g>
	<path class="st0" d="M498.4,50.8c-5,0-9-4.1-9-9c0-5,4.1-9,9-9c5,0,9,4.1,9,9C507.4,46.8,503.4,50.8,498.4,50.8z M498.4,34.3
		c-4.1,0-7.5,3.4-7.5,7.5s3.4,7.5,7.5,7.5c4.1,0,7.5-3.4,7.5-7.5S502.5,34.3,498.4,34.3z"/>
</g>
<g>
	<path class="st0" d="M598.5,53.8c-5,0-9-4.1-9-9s4.1-9,9-9c5,0,9,4.1,9,9S603.5,53.8,598.5,53.8z M598.5,37.3
		c-4.1,0-7.5,3.4-7.5,7.5s3.4,7.5,7.5,7.5c4.1,0,7.5-3.4,7.5-7.5S602.6,37.3,598.5,37.3z"/>
</g>
<g>
	<path class="st0" d="M712.9,106.5c-5,0-9-4.1-9-9c0-5,4.1-9,9-9s9,4.1,9,9C721.9,102.5,717.9,106.5,712.9,106.5z M712.9,90
		c-4.1,0-7.5,3.4-7.5,7.5c0,4.1,3.4,7.5,7.5,7.5s7.5-3.4,7.5-7.5C720.4,93.3,717,90,712.9,90z"/>
</g>
<g>
	<path class="st0" d="M780.8,82.2c-5,0-9-4.1-9-9c0-5,4.1-9,9-9s9,4.1,9,9C789.8,78.2,785.8,82.2,780.8,82.2z M780.8,65.7
		c-4.1,0-7.5,3.4-7.5,7.5c0,4.1,3.4,7.5,7.5,7.5s7.5-3.4,7.5-7.5C788.3,69.1,784.9,65.7,780.8,65.7z"/>
</g>
<g>
	<path class="st0" d="M857.1,78.5c-5,0-9-4.1-9-9c0-5,4.1-9,9-9s9,4.1,9,9C866.1,74.4,862.1,78.5,857.1,78.5z M857.1,62
		c-4.1,0-7.5,3.4-7.5,7.5c0,4.1,3.4,7.5,7.5,7.5s7.5-3.4,7.5-7.5C864.6,65.3,861.2,62,857.1,62z"/>
</g>
<g>
	<path class="st0" d="M990,86.8c-5,0-9-4.1-9-9c0-5,4.1-9,9-9c5,0,9,4.1,9,9C999,82.7,994.9,86.8,990,86.8z M990,70.3
		c-4.1,0-7.5,3.4-7.5,7.5c0,4.1,3.4,7.5,7.5,7.5c4.1,0,7.5-3.4,7.5-7.5C997.5,73.6,994.1,70.3,990,70.3z"/>
</g>
<g>
	<path class="st1" d="M636.6,112.5c0,0-1.9,3.7-1.6,4.6s3.6,1.9,4.5,3.4c0.9,1.4,3,1.4,4.5,1.4c1.5-0.1,4.4,1.6,5.8,2.3
		c1.4,0.7,2.1,3.9,7,4.4s9.2,0.5,10.8-0.7c1.5-1.2,4.4-1.9,5.7-2.4c3.1-1.2,4.2-6,6-6.8s4.4-3.3,3.8-3.8c-1.1-1.1-2.5-2.6-4.3-2.7
		C677.1,112,636.6,112.5,636.6,112.5z"/>
	<path class="st2" d="M667.3,96.6c0,0-1-1-1.9-1.5s-3.2-1.1-4.2-0.7c-1,0.4-2.5,1.8-3.3,2.2c-0.8,0.4-3.3,2.6-4.4,2.4
		c-1-0.2-3.3,0-4.1,0.8c-0.8,0.8-2.7,2.9-3.6,3.6c-0.9,0.7-3.3,1.9-3.8,2.3c-0.5,0.4-1.6,2.4-1.6,2.4s8,0.3,9,0s4.3-2.3,4.9-2.9
		s8.9-5.6,8.9-5.6l5.1-2.1L667.3,96.6z"/>
	<path class="st3" d="M651.5,105.4c0.5-0.1,1.4-0.8,2.1-1.7s1.9-1.6,2.7-1.8c0.8-0.1,2.7-0.8,2.8-1.6s1.6-1.9,2.6-2.3
		c0.9-0.4,2.7-0.6,3.1-0.7c0.4-0.1,1.1-0.3,1.8,0c0.7,0.3,1.3-0.4,2-0.8c0.7-0.4,1.4-1.5,2.1-1.5s1.7,0.1,2.2,0.5
		c0.5,0.4,2.6,1.3,2.6,1.3l-0.2,2.1l-7.8,8.5l-15.9,2.9l-2.6-3.7C648.8,106.8,649.8,105.6,651.5,105.4z"/>
	<path class="st4" d="M645.7,106.3c-0.2-0.2-2.3-0.1-3.1,0c-0.8,0.1-2.3,0.9-2.8,1.7s-1.2,2.7-1.5,3.7c-0.2,1,1.5,3.7,2,4.3
		c0.4,0.6,3.1,0.7,3.6,0.8s3-0.5,3-0.5s0.7-6.6,0.4-7.7S645.7,106.3,645.7,106.3z"/>
	<path class="st5" d="M671.4,100.1c0,0-2-0.6-2.2,0c-0.2,0.6-0.9,2-1.2,2.3c-0.3,0.3-1.9-0.1-2.3,0c-0.3,0.1-1.7-0.9-1.9-0.8
		s-1.9,0.6-1.9,0.6l-1.9,1.1l-0.8,1.7c0,0-0.6,1.5-1.2,1.5s-2.2-0.3-2.4-0.3c-0.2,0-1.2,1-1.9,1.2c-0.6,0.2-2.3-0.7-3.2-0.9
		c-0.9-0.2-1.9-0.2-2.7,0.4c-0.8,0.6-1.5,2-2.1,3.4s-1.7,3.8-1.7,4.7s0.4,2.9,0.9,3.9c0.5,1,2.6,1.8,3.7,1.9c1,0.2,9.8-0.2,11.1,0
		s6.2-0.5,7.2-0.6c1-0.2,3.3-0.5,3.9-0.6s2.4-0.1,2.5-0.7s0.1-4.7,0.1-4.7l-0.6-11.5l1-3.5C673.7,99.1,672.3,98.4,671.4,100.1z"/>
	<path class="st6" d="M676.6,98.8c0,0,0-0.4-0.2-0.5c-0.1-0.5-0.4-1.2-0.8-1.4c-0.3-0.2-0.9,0.1-2,0.6c-0.7,0.3-0.9,0.5-1.2,0.8
		c-0.3,0.3-0.7,0.7-0.6,1.3c0,0.3-0.2,2-0.4,2.2c-0.4,0.4-1.7,3.2-1.7,3.2l-0.3,2.2l1.1,3.5l1.1,1.2c0,0,0.3-2.6,0.4-2.9
		c0-0.1,0.2-0.3,0.3-0.5v0c0,0,0.4,0.8,0.8,1c0.4,0.2,0.8,1.8,0.8,1.8l-0.3,3.3c0,0,1.4-1.2,1.8-1.4c0.4-0.3,1.2-1.6,1.2-2.3
		c0-0.7-0.1-2.3,0-2.8c0.1-0.5,0-3.9,0-3.9s0.1-2.4,0.1-2.6C676.6,101.4,676.6,98.8,676.6,98.8z"/>
	<path class="st4" d="M670.3,106.5c0,0-1.3,1.4-1,2c0.3,0.7,1.4,2.4,1,3.2c-0.4,0.8-0.9,3.1-0.5,3.8c0.4,0.7,0.4,1.7,0.7,1.9
		s0.8,1.2,1.1,1.5s2.3,0.3,2.9-0.4c0.5-0.7,0.5-2.5,0-3.7c-0.5-1.2-0.2-2.9-0.2-4c0-1.1,0.3-4.1-0.6-4.4s-1.3-1.4-2-1.1
		S670.3,106.5,670.3,106.5z"/>
	<path class="st7" d="M639.6,100.2c0,0,1,1.3,1,1.3c0.6,0.4,1.2,0.7,1.7,1.5c0,0,0.8,1.6,1,2.9h0.6c0.4-0.2,0-0.9,0-0.7c0,0,0,0,0,0
		c0,0-0.7-2.5-1.2-3.2c-0.5-0.7-1.7-1.2-2.5-2.4"/>
	<path class="st7" d="M652.7,93.4c0,0,1.5,2.3,1.8,2.9c0.8,2.1,1,3.4,1,3.7c0.2,1.3,0.7,5,0.7,5s0.5-0.9,0.5-1.2
		c0-0.3-0.6-4.3-0.6-4.3s-0.4-2.2-0.9-3.4c-0.5-1.2-2-2.9-2-2.9L652.7,93.4z"/>
	<path class="st7" d="M649.8,94.9c0,0,1.8,0.5,2.4,1c0.6,0.4,2.1,1.1,2.5,1.6c0.4,0.5-0.1-0.6-0.1-0.6s-1.7-1.5-3.6-2.1
		C650,94.5,649.8,94.9,649.8,94.9z"/>
	<path class="st7" d="M668.3,92.2c0,0,0.7,0.9,0.7,0.9c0.6,0.5,0.7,0.7,1.2,1.1c0,0,0.6,1.1,0.7,2h0.4c0.3-0.2,0-0.6,0-0.5
		c0,0,0,0,0,0c0,0-0.5-1.8-0.8-2.2c-0.4-0.5-1.2-0.8-1.8-1.7"/>
	<path class="st7" d="M658.9,92.5c0,0,0.6,0.7,0.6,0.7c0.5,0.4,0.5,0.6,0.9,0.9c0,0,0.5,0.9,0.6,1.6h0.4c0.2-0.1,0-0.5,0-0.4
		c0,0,0,0,0,0c0,0-0.4-1.5-0.7-1.8c-0.3-0.4-1-0.7-1.5-1.4"/>
	<path class="st2" d="M662.4,90.4c-0.8-0.5-2-0.6-2.3-0.6s-2,0.5-2.4,0.5s-1.8,0.9-1.8,0.9s-1.4,1.3-1.6,1.1
		c-0.1-0.1-0.2,0.1-0.3,0.4c-0.4-0.1-0.8-0.3-1-0.3c-0.2,0-0.6-0.5-0.6-0.5s-0.8-0.1-1-0.1s-0.7,0.3-1,0.5s-0.9,0.3-1.1,0.4
		c-0.2,0.1-1.1-0.4-1.2-0.4c-0.1,0-0.9-0.6-1.2-0.6c-0.3,0-0.5,0.5-0.5,0.6c-0.1,0.1-0.8,0.6-1,0.7s-0.5,0.2-0.7,0.3
		c-0.2,0.1-0.6,0.6-0.7,0.8c-0.1,0.2,0,0.7,0,1c-0.2-0.2-0.6-0.4-0.8-0.4c-0.4-0.1-1.5,0-1.8,0.1c-0.4,0-0.1,0.4-0.1,1
		c0,0.6-0.3,0.4-0.8,0.5c-0.4,0.1-1.2-0.8-1.4-1.2c-0.2-0.3-0.7-0.8-0.7-0.8s-0.9-0.2-1.2,0c-0.3,0.1-0.8,0.2-1.1,0.5
		c-0.3,0.3,0,0.6,0.4,1.5c0.4,0.9-0.2,0.5-0.2,0.5s-0.3,0.5-0.9,0.7c-0.6,0.1-0.7-0.6-1-0.8c-0.2-0.2-0.9-0.1-1.1,0
		c-0.2,0.1-1.1,1.3-1.2,1.7c-0.1,0.4-0.2,1.2-0.1,1.6c0.1,0.4-0.1,1.1-0.2,1.4c-0.1,0.3-0.7,0.5-0.7,0.5s0.2,1.5,0.4,1.6
		s1.9,1.3,1.9,1.3s1.5-1.4,1.8-1.3c0.2,0.2,1.2,0.3,2.3-0.1c1-0.4,0.8-0.8,1.3-1.1c0.5-0.3,1.3-0.8,1.4-1.5c0.1-0.7,1.7-0.6,1.7-0.6
		s0.4,0.3,1.1,0.7c0.7,0.4,0.4,0.2,1.2,0.3c0.6,0,0.5-0.4,0.5-0.8c0.2,0,0.3,0.1,0.4,0.1c0.3,0,0.8-0.3,0.9-0.3
		c0.1,0,0.6-0.7,0.6-0.7s0.4-0.5,0.5-0.6s0.5-0.7,0.5-0.7l1-0.4c0,0,0.6,0.2,0.9,0.3s0.3-0.1,0.4-0.3c0.1-0.2,0.7-0.5,0.7-0.5
		l0.8-0.1l0.5-0.4c0,0,1-0.8,1.1-0.9c0.1-0.1,0.7-0.3,0.7-0.3l1.5,0.2c0,0,0.5,0.4,0.8,0.5c0.3,0,0.9-0.4,0.9-0.4s0.6-0.5,0.8-0.6
		c0.2-0.1,0.5-0.2,0.9-0.4c0.1,0,0.1,0,0.2-0.1c0.1,0,0.1,0,0.1,0c0.1-0.1,1,0.2,1.3-0.6c0.4-0.8,0.1-1.3,0.8-1.7
		c0.7-0.4,1.3-0.4,1.6-0.8S663.2,90.9,662.4,90.4z"/>
	<path class="st8" d="M664.8,90.9c0,0,0.4-0.5,0.8-1.2c0.4-0.7,1.7-0.6,1.9-0.5s1.9,0.2,2.1,0.2c0.2,0,1-0.1,1.2-0.4
		c0.2-0.2,1.2,0.2,1.3,0.3c0,0.2-0.1,1.1-0.1,1.3c0,0.2-0.9,0.6-0.8,0.8c0,0.3,1.1,0.4,1.5,0.7c0.4,0.3,0.5,1.1,0.3,1.3
		c-0.2,0.2-0.9,0.6-1.6,0.5c-0.7-0.2-1.3-0.7-1.6-0.2c-0.3,0.5-0.5,1-1.1,1c-0.6,0-2.4-0.4-2.7-0.5c-0.3-0.1-1.9-1.5-1.8-2
		C664.1,91.7,664.8,90.9,664.8,90.9z"/>
	<path class="st8" d="M651,94.4c0.3-0.2,0.5-1,0.7-1.5c0.2-0.5,0-1.1,0.6-1.1s1.6,0.9,1.9,0.9s1.5,0.2,1.7-0.1
		c0.2-0.3,0.7-0.9,1.1-1.6c0.4-0.7,1.6-0.8,1.2-2c-0.4-1.2-1.3-1.8-1.5-1.8c-0.2,0.1-1.8-0.4-2.3-0.8c-0.5-0.5-1.3-1.1-1.6-1
		c-0.3,0.1-0.8,0-1.4,0.6c-0.6,0.7-1,2-1.6,2.2c-0.6,0.2-1.2-0.5-2.3-0.4s-1.7,0.2-2.1,0.7c-0.4,0.6-1.1,2.1-1.4,2.6
		c-0.4,0.5-0.7,1.1-1.1,1.3c-0.4,0.1-0.9,0.5-1.1,0.9s-0.1,0.6,0.1,1.3s0.4,1.1,0.9,1.7c0.5,0.5,0.7,0.7,1.5,0.7s1.3-0.5,1.9-1
		c0.5-0.5,1.4-0.9,2-1.2c0.6-0.4,1.3-0.3,1.5-0.3C649.9,94.7,651,94.4,651,94.4z"/>
</g>
</svg>
