<svg width="20" height="20" viewBox="0 0 20 20" fill="none" xmlns="http://www.w3.org/2000/svg">
<path d="M13.7278 19.5334C13.7278 17.0832 13.7278 14.633 13.7278 12.1828C13.7961 12.1828 13.9327 12.1828 14.001 12.1828C14.7523 12.1828 15.5719 12.1828 16.3232 12.1828C16.4597 12.1828 16.528 12.1828 16.5963 11.9787C16.8012 11.0258 17.0744 10.0049 17.3476 9.05206C17.3476 9.05206 17.3476 8.984 17.3476 8.91594C16.1183 8.91594 14.9572 8.91594 13.7961 8.91594C13.7961 8.84788 13.7961 8.84787 13.7961 8.77981C13.7961 8.16727 13.7961 7.48666 13.7961 6.87412C13.7961 6.05739 14.2059 5.71709 15.0255 5.64903C15.5036 5.64903 16.05 5.64903 16.528 5.64903C16.5963 5.64903 16.6646 5.64903 16.8012 5.64903C16.8012 4.76424 16.8012 3.87945 16.8012 2.99467C16.5963 2.99467 16.3915 2.9266 16.1866 2.9266C15.2987 2.85854 14.4791 2.79048 13.5912 2.9266C12.0204 3.19885 10.9276 4.28782 10.7227 5.85321C10.6544 6.66994 10.6544 7.48666 10.6544 8.30339C10.6544 8.50757 10.6544 8.64369 10.6544 8.84787C9.83487 8.84787 9.0153 8.84787 8.19572 8.84787C8.19572 9.93684 8.19572 11.0258 8.19572 12.1148C9.0153 12.1148 9.83487 12.1148 10.5861 12.1148C10.5861 14.565 10.5861 17.0151 10.5861 19.4653C10.5178 19.4653 10.4495 19.4653 10.3813 19.4653C7.51275 19.4653 4.57595 19.4653 1.70744 19.4653C0.682977 19.4653 0 18.7847 0 17.7638C0 12.387 0 6.94218 0 1.56539C0 0.680606 0.682977 0 1.70744 0C7.10296 0 12.5668 0 17.9623 0C18.9868 0 19.6697 0.680606 19.6697 1.70151C19.6697 7.0783 19.6697 12.4551 19.6697 17.8319C19.6697 18.8528 18.9868 19.5334 17.9623 19.5334C16.6646 19.5334 15.2987 19.5334 14.001 19.5334C13.8644 19.5334 13.7961 19.5334 13.7278 19.5334Z" fill="#3F51B5"/>
</svg>
