<svg width="20" height="20" viewBox="0 0 20 20" fill="none" xmlns="http://www.w3.org/2000/svg">
<g clip-path="url(#clip0_311_882)">
<path d="M16.1085 0H3.90508C2.86102 0 1.88474 0.406779 1.13898 1.13898C0.39322 1.87119 0 2.86102 0 3.90508V16.1085C0 18.2644 1.74915 20.0135 3.90508 20.0135H16.1085C18.2644 20.0135 20.0135 18.2644 20.0135 16.1085V3.90508C20 1.74915 18.2508 0 16.1085 0ZM16.1085 18.6169H3.90508C2.52203 18.6169 1.39661 17.4915 1.39661 16.1085V3.90508C1.39661 2.52203 2.52203 1.39661 3.90508 1.39661H16.1085C17.4915 1.39661 18.6169 2.52203 18.6169 3.90508V16.1085C18.6169 17.4915 17.4915 18.6169 16.1085 18.6169Z" fill="#CBCBCB"/>
<path fill-rule="evenodd" clip-rule="evenodd" d="M9.12505 10.0067C9.12505 11.4711 7.94539 12.6508 6.48098 12.6508C5.01658 12.6508 3.83691 11.4711 3.83691 10.0067C3.83691 8.54232 5.01658 7.36266 6.48098 7.36266C7.94539 7.3491 9.12505 8.54232 9.12505 10.0067Z" fill="#1D66D8"/>
<path fill-rule="evenodd" clip-rule="evenodd" d="M16.1758 10.0067C16.1758 11.4711 14.9962 12.6508 13.5318 12.6508C12.0674 12.6508 10.8877 11.4711 10.8877 10.0067C10.8877 8.54232 12.0674 7.36266 13.5318 7.36266C14.9826 7.3491 16.1758 8.54232 16.1758 10.0067Z" fill="#FB0A84"/>
</g>
<defs>
<clipPath id="clip0_311_882">
<rect width="20" height="20" fill="white"/>
</clipPath>
</defs>
</svg>
