<svg width="20" height="20" viewBox="0 0 20 20" fill="none" xmlns="http://www.w3.org/2000/svg">
<g clip-path="url(#clip0_311_865)">
<path d="M10 0C11.4583 0 12.8472 0.0694444 14.3056 0.0694444C15.2083 0.0694444 16.1806 0.277778 17.0139 0.694444C18.6111 1.52778 19.5139 2.77778 19.8611 4.51389C20.0694 5.55556 20.0694 6.59722 20.0694 7.63889C20.0694 9.58333 20.0694 11.5278 20.0694 13.4722C20.0694 14.375 20 15.3472 19.6528 16.25C18.9583 18.125 17.6389 19.3056 15.6944 19.7222C15.0694 19.8611 14.4444 19.9306 13.75 19.9306C11.25 19.9306 8.81945 19.9306 6.31945 19.9306C5.41667 19.9306 4.51389 19.8611 3.61111 19.5139C1.80556 18.8194 0.625 17.5 0.277778 15.5556C0.0694444 15 0 14.3056 0 13.6806C0 11.25 0 8.81944 0 6.38889C0 5.48611 0.0694445 4.51389 0.416667 3.68056C1.11111 1.875 2.43056 0.694444 4.375 0.347222C5.06945 0.208333 5.76389 0.138889 6.45833 0.138889C7.63889 0.0694444 8.81945 0.0694444 10 0C10 0.0694444 10 0 10 0ZM9.93056 18.1944C10.5556 18.1944 11.1806 18.1944 11.8056 18.1944C12.8472 18.1944 13.8889 18.1944 14.9306 18.0556C16.5972 17.8472 17.7778 16.7361 17.9861 15.0694C18.125 14.2361 18.125 13.4028 18.125 12.6389C18.125 11.0417 18.125 9.51389 18.125 7.91667C18.125 6.94444 18.0556 6.04167 17.9861 5.06944C17.7778 3.40278 16.7361 2.22222 15 1.94444C14.1667 1.80556 13.3333 1.80556 12.5 1.73611C11.0417 1.73611 9.58333 1.73611 8.125 1.73611C7.08333 1.73611 6.04167 1.73611 5 1.875C3.33333 2.15278 2.22222 3.26389 1.94444 4.93056C1.80556 5.76389 1.80556 6.52778 1.80556 7.36111C1.80556 9.02778 1.80556 10.6944 1.80556 12.3611C1.80556 13.2639 1.80556 14.2361 1.94444 15.1389C2.22222 16.5972 3.05556 17.5694 4.51389 17.9861C5.06945 18.125 5.69445 18.1944 6.25 18.1944C7.5 18.1944 8.75 18.1944 9.93056 18.1944Z" fill="url(#paint0_linear_311_865)"/>
<path d="M10.0002 15.1389C7.15299 15.1389 4.86133 12.8472 4.86133 9.99997C4.86133 7.15275 7.15299 4.86108 10.0002 4.86108C12.8474 4.86108 15.1391 7.15275 15.1391 9.99997C15.0697 12.8472 12.778 15.1389 10.0002 15.1389ZM10.0002 13.3333C11.8752 13.3333 13.3336 11.875 13.3336 9.99997C13.3336 8.19442 11.8058 6.66664 10.0002 6.66664C8.12522 6.66664 6.66688 8.12497 6.66688 9.99997C6.66688 11.875 8.12522 13.3333 10.0002 13.3333Z" fill="url(#paint1_linear_311_865)"/>
<path d="M16.5281 4.72232C16.5281 5.41676 15.9725 5.90287 15.3475 5.90287C14.6531 5.90287 14.167 5.34732 14.167 4.72232C14.167 4.02787 14.7225 3.54176 15.417 3.54176C15.9725 3.47232 16.5281 4.02787 16.5281 4.72232Z" fill="url(#paint2_linear_311_865)"/>
</g>
<defs>
<linearGradient id="paint0_linear_311_865" x1="10.0347" y1="0" x2="10.0347" y2="19.9306" gradientUnits="userSpaceOnUse">
<stop stop-color="#D92F80"/>
<stop offset="1" stop-color="#FA882D"/>
</linearGradient>
<linearGradient id="paint1_linear_311_865" x1="10.0002" y1="4.86108" x2="10.0002" y2="15.1389" gradientUnits="userSpaceOnUse">
<stop stop-color="#D92F80"/>
<stop offset="1" stop-color="#FA882D"/>
</linearGradient>
<linearGradient id="paint2_linear_311_865" x1="15.3475" y1="3.53589" x2="15.3475" y2="5.90287" gradientUnits="userSpaceOnUse">
<stop stop-color="#D92F80"/>
<stop offset="1" stop-color="#FA882D"/>
</linearGradient>
<clipPath id="clip0_311_865">
<rect width="19.9306" height="20" fill="white"/>
</clipPath>
</defs>
</svg>
