<svg width="20" height="20" viewBox="0 0 20 20" fill="none" xmlns="http://www.w3.org/2000/svg">
<path fill-rule="evenodd" clip-rule="evenodd" d="M3.5 0H16.5C18.433 0 20 1.567 20 3.5V16.5C20 18.433 18.433 20 16.5 20H3.5C1.567 20 0 18.433 0 16.5V3.5C0 1.567 1.567 0 3.5 0ZM2.80937 7.35616H5.63124V17.5812H2.80937V7.35616ZM15.0625 7.35623C12.9812 6.56248 11.475 7.90623 10.8312 8.65623V7.35623H8.01874V17.5812H10.8312V12.1875C10.8152 11.5038 11.065 10.8406 11.5281 10.3375C11.6603 10.1819 11.8232 10.0552 12.0065 9.96543C12.1899 9.87563 12.3898 9.82463 12.5937 9.8156C12.8219 9.81122 13.0485 9.85298 13.2601 9.93836C13.4717 10.0237 13.6638 10.151 13.825 10.3125C14.1745 10.6777 14.3655 11.1664 14.3562 11.6718V17.5812H17.5312V11.25C17.5312 11.25 17.8844 8.41248 15.0625 7.35623ZM5.98026 4.1806C5.98026 5.15384 5.19129 5.94281 4.21805 5.94281C3.24481 5.94281 2.45584 5.15384 2.45584 4.1806C2.45584 3.20736 3.24481 2.41839 4.21805 2.41839C5.19129 2.41839 5.98026 3.20736 5.98026 4.1806Z" fill="#007BB8"/>
</svg>
