<svg width="22" height="16" viewBox="0 0 22 16" fill="none" xmlns="http://www.w3.org/2000/svg">
<path d="M21.8182 1.90164C21.0208 2.22951 20.151 2.42623 19.2812 2.55738C20.2235 2.03279 20.8759 1.2459 21.2383 0.327869C20.3685 0.786885 19.4262 1.11475 18.4114 1.31148C17.5415 0.459016 16.3818 0 15.1495 0C12.685 0 10.6554 1.83607 10.6554 4.06557C10.6554 4.39344 10.7279 4.72131 10.8004 4.98361C7.10359 4.78689 3.76925 3.21311 1.59468 0.721312C1.23226 1.31148 1.0148 2.03279 1.0148 2.7541C1.0148 4.13115 1.81214 5.37705 2.97191 6.09836C2.24706 6.09836 1.5222 5.90164 0.942314 5.63934V5.70492C0.942314 7.67213 2.46451 9.31147 4.49411 9.63934C4.13168 9.70492 3.69677 9.77049 3.33434 9.77049C3.0444 9.77049 2.75445 9.77049 2.46451 9.70492C3.0444 11.2787 4.71157 12.459 6.59619 12.5246C5.074 13.6393 3.11688 14.2295 1.08728 14.2295C0.724857 14.2295 0.362428 14.2295 0 14.1639C1.95711 15.2787 4.34914 16 6.81365 16C15.0045 16 19.4986 9.83607 19.4986 4.52459C19.4986 4.32787 19.4986 4.19672 19.4986 4C20.441 3.40984 21.2383 2.68852 21.8182 1.90164Z" fill="#25A4EF"/>
</svg>
