<svg width="25" height="15" viewBox="0 0 25 15" fill="none" xmlns="http://www.w3.org/2000/svg">
<g clip-path="url(#clip0_311_935)">
<path d="M23.778 4.83707C24.0835 3.56415 25 2.34216 25 2.34216H20.8248C18.4827 0.814664 15.6314 0 12.4745 0C9.21589 0 6.26273 0.814664 3.92057 2.34216H0C0 2.34216 0.916497 3.56415 1.222 4.83707L1.42566 4.98982C0.610998 6.05906 0.101833 7.38289 0.101833 8.80855C0.101833 12.169 2.85132 14.9185 6.21181 14.9185C8.24847 14.9185 10.0306 13.9511 11.1507 12.4236L11.2016 12.4745L12.5255 14.4603L13.8493 12.4745L13.9002 12.4236C15.0204 13.9511 16.8024 14.9185 18.8391 14.9185C22.1996 14.9185 24.9491 12.169 24.9491 8.80855C24.9491 7.38289 24.4399 6.05906 23.6253 4.98982L23.778 4.83707ZM6.21181 13.9002C3.41141 13.9002 1.12016 11.609 1.12016 8.80855C1.12016 6.00815 3.41141 3.7169 6.21181 3.7169C9.01222 3.7169 11.3035 6.00815 11.3035 8.80855C11.3035 11.609 9.01222 13.9002 6.21181 13.9002ZM12.5255 8.09572C12.2709 4.88798 9.67414 2.34216 6.41548 2.29124C8.19756 1.52749 10.2851 1.12016 12.5255 1.12016C14.7658 1.12016 16.8024 1.52749 18.5845 2.34216C17.9226 2.34216 17.2607 2.49491 16.5988 2.69857C15.0204 3.25866 13.7475 4.42974 13.0855 5.95723C12.7291 6.61914 12.5764 7.33198 12.5255 8.09572ZM23.8798 8.75764C23.8798 11.558 21.5886 13.8493 18.7882 13.8493C15.9878 13.8493 13.6965 11.558 13.6965 8.75764C13.6965 5.95723 15.9878 3.66599 18.7882 3.66599C21.5886 3.66599 23.8798 5.95723 23.8798 8.75764Z" fill="#000A12"/>
<path d="M6.21222 11.8126C4.53197 11.8126 3.15723 10.4379 3.15723 8.75763C3.15723 7.07738 4.53197 5.70264 6.21222 5.70264C7.89246 5.70264 9.26721 7.07738 9.26721 8.75763C9.21629 10.4379 7.84154 11.8126 6.21222 11.8126ZM6.21222 6.77188C5.09205 6.77188 4.17556 7.68838 4.17556 8.80854C4.17556 9.92871 5.09205 10.8452 6.21222 10.8452C7.33238 10.8452 8.24888 9.92871 8.24888 8.80854C8.24888 7.68838 7.28146 6.77188 6.21222 6.77188Z" fill="#000A12"/>
<path d="M6.21169 9.82694C6.7741 9.82694 7.23002 9.37102 7.23002 8.80861C7.23002 8.2462 6.7741 7.79028 6.21169 7.79028C5.64928 7.79028 5.19336 8.2462 5.19336 8.80861C5.19336 9.37102 5.64928 9.82694 6.21169 9.82694Z" fill="#EF6A45"/>
<path d="M18.7884 11.8126C17.1081 11.8126 15.7334 10.4379 15.7334 8.75763C15.7334 7.07738 17.1081 5.70264 18.7884 5.70264C20.4686 5.70264 21.8434 7.07738 21.8434 8.75763C21.8434 10.4379 20.4686 11.8126 18.7884 11.8126ZM18.7884 6.77188C17.6682 6.77188 16.7517 7.68838 16.7517 8.80854C16.7517 9.92871 17.6682 10.8452 18.7884 10.8452C19.9085 10.8452 20.825 9.92871 20.825 8.80854C20.825 7.68838 19.9085 6.77188 18.7884 6.77188Z" fill="#000A12"/>
<path d="M18.7879 9.77592C19.3503 9.77592 19.8062 9.32 19.8062 8.75759C19.8062 8.19518 19.3503 7.73926 18.7879 7.73926C18.2255 7.73926 17.7695 8.19518 17.7695 8.75759C17.7695 9.32 18.2255 9.77592 18.7879 9.77592Z" fill="#00B087"/>
<path d="M18.5333 2.29133C17.8714 2.29133 17.2095 2.44408 16.5476 2.64775C14.9691 3.20783 13.6962 4.37891 13.0343 5.9064C12.7288 6.56832 12.5252 7.33207 12.4742 8.0449C12.2197 4.83716 9.62291 2.29133 6.36426 2.24042C8.14634 1.47667 10.2339 1.06934 12.4742 1.06934C14.7146 1.06934 16.7512 1.47667 18.5333 2.29133Z" fill="#FCC40F"/>
</g>
<defs>
<clipPath id="clip0_311_935">
<rect width="25" height="14.9185" fill="white"/>
</clipPath>
</defs>
</svg>
