<svg width="21" height="15" viewBox="0 0 21 15" fill="none" xmlns="http://www.w3.org/2000/svg">
<path fill-rule="evenodd" clip-rule="evenodd" d="M18.6878 0.458823C19.586 0.705882 20.2941 1.42941 20.5359 2.34706C20.985 4.02353 20.9677 7.51764 20.9677 7.51764C20.9677 7.51764 20.9677 10.9941 20.5359 12.6706C20.2941 13.5882 19.586 14.3118 18.6878 14.5588C17.047 15 10.4838 15 10.4838 15C10.4838 15 3.93792 15 2.27985 14.5412C1.38173 14.2941 0.673592 13.5706 0.431789 12.6529C0 10.9941 0 7.5 0 7.5C0 7.5 0 4.02353 0.431789 2.34706C0.673592 1.42941 1.399 0.688235 2.27985 0.441176C3.92065 0 10.4838 0 10.4838 0C10.4838 0 17.047 0 18.6878 0.458823ZM8.39398 4.28811L13.8518 7.49987L8.39398 10.7116V4.28811Z" fill="#F52424"/>
</svg>
