<svg width="324" height="117" viewBox="0 0 324 117" fill="none" xmlns="http://www.w3.org/2000/svg">
<g opacity="0.6" clip-path="url(#clip0_140_1612)">
<path d="M224.086 29.4218C224.894 28.9639 226.28 24.728 224.548 24.6136C223.855 24.6136 220.158 31.8259 224.086 29.4218ZM238.178 52.776C237.6 53.3484 237.947 54.3787 238.986 54.3787C240.141 54.4932 238.871 52.2036 238.178 52.776ZM238.524 39.7251C238.871 39.0382 239.564 39.1527 239.217 38.4658C239.102 38.2368 236.214 38.8093 235.983 39.7251C235.752 40.8699 238.062 41.4423 237.022 41.4423C237.6 41.5568 237.6 41.4423 238.524 39.7251ZM300.552 73.1537C301.129 74.184 302.169 73.3826 302.516 72.9247C304.941 70.4061 299.512 71.322 300.552 73.1537ZM243.029 49.5705C244.646 48.7691 243.491 46.2505 242.22 46.7085C240.95 47.0519 240.95 50.6008 243.029 49.5705ZM231.594 47.0519C231.94 47.1664 232.171 46.4795 232.402 46.1361C233.788 43.8464 230.323 46.594 231.594 47.0519ZM220.274 37.55C220.967 35.4893 215.885 36.8631 218.195 38.4658C218.888 38.9237 219.927 38.4658 220.274 37.55ZM250.306 52.2036C250.883 52.3181 251.346 49.5705 250.19 49.9139C249.266 50.2574 249.613 52.0891 250.306 52.2036ZM234.828 30.6811C234.712 30.6811 237.138 31.5969 237.254 31.5969C236.907 31.5969 242.105 28.1625 242.22 28.048L241.643 24.957C240.95 24.728 241.181 26.4453 240.257 26.4453C240.141 26.4453 239.679 25.9873 239.448 26.1018C238.062 26.6742 239.564 27.4756 238.409 27.4756C237.485 27.4756 237.485 25.8729 236.56 26.2163C235.752 26.5597 234.481 28.6204 234.25 29.4218C234.25 29.5363 234.828 29.9942 234.481 30.7956C234.25 31.4824 234.943 30.7956 234.828 30.6811ZM221.891 15.455C222.122 14.7682 219.812 18.0881 219.927 17.9736C219.465 18.2026 218.772 17.6302 218.772 17.4012C217.733 17.6302 216 18.546 215.654 19.3474C215.538 19.6909 215.423 21.7515 216.116 22.095C216.347 22.2094 218.772 21.637 219.234 20.8357C220.158 19.2329 217.964 19.9198 219.35 18.6605C220.274 17.8592 221.313 19.004 222.7 17.1723C222.468 17.5157 223.855 14.5392 223.739 13.8523C223.739 13.6233 222.468 12.0206 222.122 12.1351C220.967 12.364 222.237 14.7682 221.891 15.455ZM218.888 17.4012C219.119 17.4012 219.234 17.4012 219.35 17.4012C219.003 17.2867 218.888 17.2867 218.888 17.4012ZM263.936 38.3513C263.243 38.4658 262.896 38.5803 263.936 38.3513V38.3513ZM263.936 38.3513C264.051 38.3513 264.167 38.2368 264.398 38.2368C264.167 38.2368 264.051 38.2368 263.936 38.3513ZM231.016 16.2564C229.63 16.3709 230.554 17.8592 230.208 18.4316C229.746 19.1185 228.013 19.4619 226.858 20.6067C225.934 21.4081 226.165 21.9805 225.125 22.8963C225.125 22.8963 223.046 25.0715 224.663 23.9267C224.663 23.9267 224.894 23.6977 225.01 23.5832C224.779 23.6977 224.779 23.6977 225.125 23.5832H225.01C225.703 23.3543 227.897 22.5529 228.128 22.5529C228.359 22.5529 229.399 23.1253 229.514 22.8963C230.67 21.866 230.785 19.2329 230.67 19.3474L231.478 19.6909C231.825 19.1185 233.557 16.1419 231.016 16.2564ZM211.957 13.2799C211.842 13.7378 211.957 14.6537 212.188 15.1116C212.304 14.8826 212.304 14.8826 212.304 15.1116C212.304 15.455 212.304 15.455 212.188 15.1116C211.957 15.455 211.842 16.3709 212.304 16.3709C212.997 16.2564 212.997 13.8523 212.881 13.8523C213.112 13.6233 213.69 13.7378 213.805 13.3944C213.921 12.822 214.152 11.9061 213.343 11.9061C212.073 11.9061 213.574 12.4785 212.997 13.2799C212.881 13.2799 211.842 13.5089 211.957 13.2799ZM266.131 37.7789C266.015 37.6644 265.091 37.8934 264.398 38.1224C264.513 38.1224 263.012 38.9237 262.781 38.9237C262.203 38.8093 258.854 35.6038 258.622 38.3513C258.507 39.2672 259.2 41.5568 259.547 41.6713C259.893 41.7858 262.319 42.9306 262.088 42.9306C262.434 42.9306 264.282 42.3582 264.975 41.5568C265.437 40.9844 266.939 38.6948 266.131 37.7789ZM273.523 38.3513C273.523 38.2368 270.751 38.2368 270.751 38.2368C269.48 38.8093 269.711 40.183 268.903 41.0989C268.556 41.4423 268.325 40.5265 268.094 40.7554C267.863 40.9844 267.863 42.2437 267.401 42.5871C267.055 42.9306 263.589 41.5568 263.82 43.274C263.936 43.6175 264.744 42.8161 264.744 42.8161C265.784 42.9306 266.015 44.3044 267.632 44.5333C268.094 44.6478 268.787 43.9609 269.711 43.6175C270.173 43.503 270.635 43.7319 270.982 43.6175C271.444 43.3885 272.021 42.3582 272.252 42.3582C273.292 42.1292 272.599 43.732 273.408 42.5871C273.639 42.5871 274.216 39.0382 273.523 38.3513ZM213.228 3.89242C212.766 4.12139 212.188 6.06757 213.228 5.15172C212.997 5.2662 214.036 3.54898 213.228 3.89242ZM281.724 53.4629C281.84 53.4629 282.417 53.9208 282.417 53.8063C283.11 53.4629 281.262 49.456 279.414 52.3181C278.143 54.1498 280.454 52.776 281.724 53.4629ZM245.801 33.4286C244.762 34.001 245.801 35.8327 246.956 35.6038C248.573 35.1458 246.841 32.8562 245.801 33.4286ZM273.87 85.7466C273.87 85.9756 275.025 85.1742 275.256 84.8308C276.873 82.7701 273.639 84.7163 273.87 85.7466ZM205.373 57.5842C205.72 57.3552 206.413 56.8973 205.835 56.5539C205.373 56.2104 204.334 58.1566 205.373 57.5842ZM215.423 59.6449C215.538 60.1028 216.462 59.8738 216.578 59.8738C217.964 59.7593 215.076 58.729 215.423 59.6449ZM299.743 36.6341C300.436 36.5196 301.129 35.8327 301.591 34.8024C303.671 31.0245 295.701 37.55 299.743 36.6341ZM254.349 8.3572C254.002 8.47168 254.118 9.50201 254.811 9.27305C255.85 8.92961 254.811 8.24272 254.349 8.3572ZM295.585 36.0617C295.701 36.2907 296.394 35.9472 296.74 35.7183C297.78 34.6879 295.239 35.2603 295.585 36.0617ZM299.974 54.9511C299.974 54.8366 302.285 55.7525 302.516 55.5235C304.017 54.3787 299.628 52.547 299.974 54.9511ZM294.199 54.3787C294.199 55.4091 297.087 55.5235 297.78 54.8366C300.436 52.2036 294.083 51.2877 294.199 54.3787ZM282.995 33.8866C282.995 34.1155 285.074 35.1458 284.843 35.1458C285.536 34.8024 286.922 29.9942 284.727 32.2838C284.843 32.2838 282.995 33.6576 282.995 33.8866ZM277.566 43.503C278.374 43.3885 279.183 42.2437 280.107 42.2437C282.533 42.3582 284.843 45.3347 286.575 44.5333C287.269 44.1899 286.113 42.4727 287.731 42.9306C288.77 43.1595 288.077 46.594 290.503 44.9912C290.734 44.7623 291.427 43.3885 291.658 43.3885C292.928 43.503 291.773 44.7623 292.813 45.5637C294.083 46.4795 295.47 45.2202 295.585 45.1057C296.74 43.274 295.008 44.3044 292.928 42.8161C292.004 42.1292 293.044 42.2437 291.889 41.6713C291.427 41.4423 290.503 42.1292 290.156 42.0147C289.925 42.0147 286.806 39.2672 286.46 39.2672C284.496 39.2672 285.767 41.2134 285.651 41.4423C285.42 41.7858 283.803 42.7016 283.803 42.7016C283.226 42.4727 283.341 40.7554 282.995 40.412C282.648 40.0685 279.645 39.0382 278.952 39.0382C278.143 38.9237 278.143 39.7251 277.681 39.6106C276.295 39.4961 275.949 38.0079 274.794 39.1527C274.332 39.6106 276.295 40.7554 275.949 40.0685C276.526 41.0989 273.408 44.1899 277.566 43.503ZM250.537 13.3944C250.883 10.3034 247.187 18.0881 245.917 18.6605C245.339 18.8895 243.606 17.7447 242.913 18.4316C241.412 19.8053 242.22 23.0108 242.913 23.4687C243.722 23.9267 243.722 22.4384 244.993 22.5529C246.148 22.6674 246.841 23.8122 247.534 23.8122C248.458 23.6977 249.844 22.5529 250.19 21.637C251.577 19.004 249.728 21.7515 249.728 19.4619C249.728 17.7447 251.577 16.0275 251.692 15.1116C251.692 14.6537 250.421 14.5392 250.537 13.3944ZM292.466 53.4629C292.466 53.3484 293.275 50.7153 293.275 50.7153C292.351 50.1429 292.928 51.4022 291.889 52.2036C291.427 52.547 289.925 52.4325 289.694 52.6615C287.5 55.4091 290.618 56.5539 292.466 53.4629ZM296.394 63.8807C296.971 63.9952 297.202 62.9648 297.087 62.6214C296.509 61.7055 296.047 63.7662 296.394 63.8807ZM281.955 71.7799C282.302 71.2075 282.071 68.5744 280.454 69.1468C279.991 69.3758 281.262 72.0089 280.8 71.8944C281.262 72.2378 281.724 72.0089 281.955 71.7799ZM245.108 57.9276C245.108 57.9276 246.148 55.7525 244.993 55.638C244.415 55.5235 244.184 58.1566 245.108 57.9276ZM323.307 93.3024C323.307 93.4169 324.116 92.959 324 92.73C323.654 92.1576 321.921 92.959 321.574 93.1879C321.69 93.1879 321.805 93.1879 321.805 93.1879C321.459 93.3024 321.459 93.3024 321.574 93.1879C321.343 93.1879 320.881 93.1879 320.881 93.0734C319.726 94.5617 322.498 95.7065 323.307 93.3024ZM205.951 47.7388C207.221 47.2809 205.604 45.9071 205.142 46.1361C204.796 46.2505 204.911 48.0822 205.951 47.7388ZM217.617 50.8298C217.964 51.1732 220.043 51.7457 220.043 51.7457C221.891 50.8298 218.31 45.7926 217.155 49.3415C217.386 48.4257 218.079 51.1732 217.617 50.8298ZM301.014 63.9952C301.129 63.9952 301.823 63.7662 301.591 63.4228C301.245 61.9345 299.05 64.682 301.014 63.9952ZM282.533 58.6145C281.609 58.958 282.417 64.682 284.496 63.4228C284.496 63.4228 284.381 57.9276 282.533 58.6145ZM280.685 71.8944C280.569 71.8944 280.454 71.7799 280.338 71.6654C280.569 71.7799 280.685 71.8944 280.685 71.8944ZM284.496 52.8905C285.42 52.4325 285.536 50.7153 284.843 50.2574C282.648 48.6547 281.955 54.3787 284.496 52.8905ZM302.516 63.7662C303.093 63.5372 302.978 62.8503 302.4 62.7359C301.822 62.7359 301.822 63.9952 302.516 63.7662ZM266.824 48.8836C265.668 49.9139 264.629 48.4257 264.513 49.685C264.398 51.4022 267.863 51.5167 268.672 49.5705C269.365 48.0822 268.094 47.7388 266.824 48.8836ZM291.889 74.5274C291.427 74.6419 293.159 72.4668 292.351 71.6654C292.466 71.7799 289.579 71.093 289.463 71.2075C288.655 71.7799 291.08 74.7564 291.889 74.5274ZM313.604 82.5411C314.413 83.686 317.647 83.8004 318.109 83.5715C319.264 82.7701 316.03 81.6253 315.221 81.1674C314.528 80.8239 314.066 80.0226 313.835 80.137C314.182 79.9081 313.489 82.3122 313.604 82.5411ZM305.981 76.2447C306.789 76.8171 307.251 75.7867 307.713 75.2143C310.717 71.8944 304.133 74.8709 305.981 76.2447ZM308.522 76.2447C308.406 76.9316 309.562 76.7026 309.908 76.5881C311.41 76.0157 308.753 75.0999 308.522 76.2447Z" fill="#E5E5E5"/>
<path d="M213.343 41.2133C206.99 37.6644 199.482 34.5734 187.007 34.1155C171.298 33.6576 163.213 37.8934 155.474 41.9002C155.358 42.0147 155.127 42.1292 155.012 42.1292C155.127 42.3582 155.243 42.7016 155.127 43.1595C155.127 43.045 150.276 44.3043 151.084 44.6478C150.853 44.5333 150.738 44.5333 150.622 44.4188C149.814 44.7623 149.005 45.1057 148.197 45.5636C149.698 45.3347 152.817 46.0216 152.933 46.9374C154.319 46.2505 155.705 45.5636 156.975 44.8767C164.714 40.7554 172.107 36.9775 186.892 37.4355C191.166 37.5499 194.747 38.0079 197.865 38.6947C198.327 38.5803 198.558 38.5803 198.789 38.9237C206.182 40.6409 211.149 43.6174 216.231 46.8229C216.462 46.9374 216.693 47.0519 216.924 47.2808C216.924 46.9374 216.924 46.365 217.155 46.2505C217.733 45.6781 218.657 45.3347 219.581 45.1057C219.003 44.7623 218.541 44.4188 217.964 44.1898C217.155 43.7319 216.462 43.274 215.653 42.8161C214.96 43.3885 214.383 43.7319 213.921 43.7319C212.997 43.274 212.766 42.2437 213.343 41.2133ZM225.472 51.5167C225.472 51.1732 224.894 50.4863 224.894 50.4863C225.241 49.7994 226.165 49.5705 226.742 48.8836C225.125 48.0822 223.624 47.2808 222.122 46.4795C222.006 46.7084 221.891 46.8229 221.775 47.0519C221.544 47.7388 221.775 48.9981 221.66 50.0284C222.815 50.7153 224.086 51.2877 225.356 51.8601C225.472 51.7456 225.472 51.5167 225.472 51.5167ZM311.294 9.50199C311.294 8.58613 310.601 7.89925 309.677 7.78477C293.968 7.32684 285.998 11.5627 278.143 15.5695C270.982 19.3474 264.167 22.7818 251.576 23.0108C251.461 23.1253 251.23 23.2398 250.768 23.6977C250.537 23.8122 250.883 24.3846 250.768 24.6135C249.613 26.1018 247.187 24.6135 246.61 24.3846C247.072 24.6135 245.57 23.6977 244.993 23.4687C244.877 23.4687 244.877 23.5832 244.761 23.4687C244.646 23.3542 244.762 23.3542 244.993 23.4687C245.224 23.3542 245.57 23.0108 245.57 23.0108C244.184 22.8963 242.798 22.7818 241.527 22.6673C241.412 23.8122 240.95 25.1859 241.296 25.5294C241.412 25.6439 243.837 25.4149 243.953 25.6439C244.184 25.9873 244.068 26.1018 243.953 26.2163C245.339 26.3308 246.61 26.4452 248.111 26.5597C263.82 27.0176 271.79 22.7818 279.645 18.775C287.384 14.6537 294.776 10.8758 309.561 11.3337C310.601 11.1047 311.294 10.4178 311.294 9.50199ZM236.907 25.0715C237.253 24.0411 237.715 22.8963 238.178 22.0949C236.907 21.866 235.636 21.5225 234.481 21.1791C234.366 21.9805 234.25 22.6673 234.135 22.8963C233.788 23.3542 232.749 23.2398 232.749 23.3542C229.861 23.6977 230.207 21.637 231.363 20.2632C226.627 18.546 222.815 16.2564 218.888 13.8523C211.38 9.27302 203.525 4.4648 187.932 4.00688C172.222 3.54895 164.252 7.78477 156.398 11.7916C148.659 15.9129 141.266 19.6908 126.481 19.2329C122.438 19.1184 118.973 18.6605 115.855 17.9736C114.699 18.6605 112.274 19.5764 112.62 19.2329C112.158 19.5764 112.274 20.0343 112.274 20.3777C114.122 20.8356 116.086 21.2936 118.165 21.5225C117.934 21.0646 117.934 20.7212 117.934 20.4922C118.165 20.8356 120.244 21.1791 120.59 21.866C121.861 21.9805 123.363 22.0949 124.749 22.2094C125.211 21.7515 125.673 21.4081 125.788 21.5225C126.25 21.7515 126.135 21.9805 126.019 22.3239C126.135 22.3239 126.25 22.3239 126.366 22.3239C142.075 22.7818 150.045 18.546 157.899 14.5392C165.639 10.4178 173.031 6.63995 187.816 7.09788C202.601 7.5558 209.647 11.9061 217.155 16.4854C222.699 19.9198 228.244 23.2398 236.907 25.0715ZM104.997 17.1722C105.921 16.7143 108 17.2867 109.155 16.2564C109.155 16.2564 109.155 16.1419 109.155 16.0274C104.535 14.3102 100.954 12.1351 97.1422 9.84543C95.7561 8.92958 94.2545 8.12821 92.7529 7.21236C92.1754 7.09788 91.8289 6.86891 91.5979 6.52547C89.0567 5.15169 86.169 3.77792 82.9348 2.74758C82.7037 2.86206 82.5882 2.97655 82.3572 2.97655C82.0107 2.97655 81.4332 2.6331 80.9711 2.17518C76.9283 1.03036 72.077 0.228992 66.0706 2.92771e-05C50.477 -0.457896 42.3914 3.77792 34.5369 7.89925C26.7979 12.0206 19.4053 15.7985 4.62032 15.3405C3.69626 15.3405 3.00321 16.0274 3.00321 16.9433C3.00321 17.8591 3.69626 18.546 4.62032 18.6605C14.092 19.0039 20.6759 17.5157 26.2203 15.455C26.2203 15.1116 26.5668 15.1116 26.9134 15.2261C30.2631 13.9668 33.2663 12.364 36.154 10.8758C43.893 6.63995 51.2856 2.74758 66.0706 3.31999C68.8428 3.43447 71.2684 3.66343 73.5786 4.00688C73.5786 3.8924 73.3476 3.77792 73.3476 3.66343C73.2321 0.915881 76.6973 3.43447 77.1594 3.43447C77.3904 3.43447 77.6214 2.17518 77.6214 2.06069C78.4299 1.60277 80.0471 3.09103 79.9315 3.77792C79.816 4.12136 77.7369 4.12136 77.7369 4.12136C77.3904 4.23584 77.1594 4.4648 77.0438 4.57929C84.8984 6.29651 90.0963 9.3875 95.4096 12.593C96.1027 13.0509 96.7957 13.3944 97.4888 13.8523C97.4888 13.6233 97.6043 13.5088 97.6043 13.5088C99.3369 12.364 99.6834 13.7378 99.4524 14.9971C100.03 15.3405 100.723 15.684 101.301 16.0274C101.763 15.7985 102.109 15.684 101.994 15.684C102.687 16.0274 102.456 16.2564 101.878 16.4854C102.687 16.9433 103.495 17.2867 104.419 17.7446C104.881 17.4012 105.112 17.1722 104.997 17.1722ZM104.188 14.7681C103.611 15.684 102.918 14.8826 102.802 14.7681C102.918 14.4247 104.65 13.9668 104.188 14.7681ZM109.848 19.5764C110.772 19.9198 112.736 18.4315 114.353 17.6302C113.082 17.2867 111.812 16.9433 110.657 16.5998C110.195 17.2867 109.617 18.0881 109.502 18.546C109.502 18.0881 110.426 19.8053 109.848 19.5764ZM108.462 19.2329C108.347 18.6605 108.231 17.7446 108.462 17.8591C107.653 17.1722 106.729 17.6302 106.036 18.2026C106.729 18.6605 107.538 19.0039 108.462 19.2329ZM310.37 39.7251C310.37 38.8092 309.677 38.1223 308.753 38.0079C293.044 37.5499 285.074 41.7857 277.219 45.7926C269.48 49.9139 262.088 53.6918 247.303 53.2339C240.719 53.0049 235.752 52.0891 231.478 50.6008C230.67 51.4022 229.976 52.547 229.399 52.776C229.168 52.8904 228.937 53.0049 228.59 53.0049C233.442 54.8366 239.333 56.0959 247.072 56.3249C262.781 56.7828 270.866 52.547 278.605 48.5401C286.344 44.4188 293.737 40.6409 308.522 41.0989C309.561 41.3278 310.37 40.6409 310.37 39.7251ZM1.03957 77.275C1.03957 78.1908 1.73262 78.8777 2.65668 78.9922C18.3658 79.4501 26.4513 75.2143 34.1904 71.2075C41.9294 67.0861 49.3219 63.3083 64.1069 63.7662C78.892 64.2241 85.938 68.5744 93.446 73.1537C99.6834 76.9315 106.152 80.8239 117.01 82.3122C116.663 81.8542 116.894 81.3963 117.01 81.1674C117.587 80.5949 118.049 81.7398 118.049 82.4267C120.013 82.6556 122.092 82.8846 124.402 82.9991C137.339 83.457 145.078 80.5949 151.778 77.275C151.431 77.046 151.084 76.8171 151.084 76.7026C150.853 75.9012 152.471 74.6419 152.817 74.4129C153.51 74.0695 155.012 74.5274 156.051 75.0998C163.79 70.9785 171.183 67.2006 185.968 67.6585C200.753 68.1165 207.799 72.4668 215.307 77.046C222.815 81.6253 230.67 86.4335 246.263 86.8914C261.972 87.3493 270.058 83.1135 277.797 79.1067C285.536 74.9854 292.928 71.2075 307.713 71.6654C308.637 71.6654 309.33 70.9785 309.446 70.0627C309.446 69.1468 308.753 68.4599 307.829 68.3454C292.12 67.8875 284.034 72.1233 276.295 76.1302C268.556 80.2515 261.164 84.0294 246.379 83.5715C231.594 83.1135 224.548 78.7632 217.04 74.184C209.532 69.6047 201.677 64.7965 186.083 64.3386C170.374 63.8807 162.404 68.1165 154.55 72.1233C146.811 76.2447 139.418 80.0225 124.633 79.5646C119.089 79.3357 114.584 78.6488 110.772 77.6184C110.31 77.6184 109.617 77.3895 109.155 77.046C103.726 75.2143 99.5679 72.8102 95.2941 70.1771C87.7861 65.5979 79.9315 60.7897 64.338 60.3317C48.5134 59.8738 40.4278 64.1096 32.5733 68.2309C24.8342 72.3523 17.4417 76.1302 2.65668 75.6722C1.73262 75.6722 1.03957 76.3591 1.03957 77.275ZM149.121 48.1967C148.774 48.3112 148.312 48.4257 147.85 48.5401C147.735 48.8836 147.619 49.1126 147.504 49.3415C149.005 48.7691 150.507 48.0822 151.893 47.3953C151.547 47.2809 151.316 47.2809 150.969 47.3953C150.16 47.6243 149.698 47.9677 149.121 48.1967ZM1.96364 47.0519C1.96364 47.9677 2.65668 48.6546 3.58075 48.7691C19.2898 49.227 27.3754 44.9912 35.1144 40.9844C42.8535 36.863 50.246 33.0852 65.031 33.5431C77.8524 34.001 84.8984 37.321 91.4823 41.0989C92.1754 41.3278 92.984 41.7857 93.215 42.1292C93.5615 42.3582 94.0235 42.5871 94.37 42.8161C99.5679 46.0216 104.997 49.227 112.851 51.0587C113.775 50.4863 115.161 50.2574 115.046 51.4022C115.046 51.4022 115.046 51.5167 114.93 51.5167C116.432 51.8601 118.049 52.0891 119.782 52.2036C119.897 51.5167 121.168 51.0587 121.399 51.8601C121.399 51.9746 121.283 52.2036 121.052 52.318C122.439 52.4325 123.709 52.547 125.211 52.6615C134.798 53.0049 141.497 51.5167 147.042 49.3415C147.157 49.1126 147.157 48.8836 147.273 48.6546C146.233 48.8836 145.078 49.1126 145.078 48.4257C145.078 47.5098 146.58 47.5098 147.504 47.5098C147.735 46.594 147.85 45.7926 147.504 45.7926C145.887 46.4795 144.038 47.1664 142.19 47.6243C142.421 47.8533 142.652 48.0822 142.652 48.3112C142.537 49.685 139.187 50.0284 139.649 50.3718C138.725 49.7994 140.227 48.7691 140.227 48.4257C140.227 48.3112 140.227 48.1967 140.227 48.0822C136.068 49.1126 131.217 49.685 125.095 49.456C110.772 48.9981 103.611 44.6478 96.1027 40.0685C88.5947 35.4893 80.7401 30.681 65.1465 30.2231C59.4866 29.9942 54.9818 30.4521 50.939 31.2535C50.939 32.0548 50.5925 32.6272 49.4374 32.0548C49.2064 31.9403 49.2064 31.8259 49.0909 31.7114C42.8535 33.1996 38.2332 35.6037 33.6128 38.0079C25.8738 42.1292 18.4813 45.9071 3.69626 45.4492C2.77219 45.4492 1.96364 46.136 1.96364 47.0519ZM57.985 32.1693C59.3711 32.2838 57.523 33.5431 57.754 33.4286C55.3283 34.3445 57.6385 32.1693 57.985 32.1693ZM147.735 47.3953C147.619 47.8533 147.504 48.1967 147.388 48.6546C147.504 48.6546 147.619 48.5401 147.735 48.5401C147.966 48.1967 148.081 47.7388 148.312 47.1664C148.428 47.3953 148.197 47.3953 147.735 47.3953ZM185.044 94.5617C180.655 94.4472 176.958 94.6762 173.609 95.1341C173.724 95.363 173.955 95.592 174.071 95.7065C175.226 96.1644 183.658 93.5313 181.117 95.3631C180.193 96.0499 180.886 96.9658 180.539 97.3092C180.193 97.6527 179.384 97.7672 178.575 97.8816C180.539 97.7672 182.618 97.6527 185.044 97.7672C199.829 98.2251 206.875 102.575 214.383 107.155C221.891 111.734 229.63 116.542 245.339 117C260.933 117.458 269.018 113.222 276.873 109.215C284.612 105.094 292.004 101.316 306.789 101.774C307.713 101.774 308.406 101.087 308.522 100.171C308.522 99.2554 307.829 98.5685 306.905 98.454C291.196 97.9961 283.11 102.232 275.371 106.239C267.632 110.36 260.24 114.138 245.455 113.68C230.67 113.222 223.624 108.872 216.116 104.293C208.492 99.7133 200.637 95.0196 185.044 94.5617ZM187.239 94.6762C187.585 94.9051 187.816 96.0499 186.892 95.592C186.314 95.2486 186.892 94.4472 187.239 94.6762ZM0 107.498C0 108.414 0.693048 109.101 1.61711 109.215C17.3262 109.673 25.4118 105.437 33.1508 101.431C40.8898 97.3092 48.2823 93.5313 63.0674 93.9893C77.8524 94.4472 84.8984 98.7975 92.4064 103.377C99.9144 107.956 107.769 112.764 123.363 113.222C139.072 113.68 147.042 109.444 154.896 105.437C159.748 102.919 164.368 100.515 170.721 99.1409C170.605 98.683 170.605 98.2251 170.259 97.8816C169.566 96.9658 168.411 97.8816 168.18 96.9658C168.18 96.8513 168.18 96.6223 168.295 96.3934C167.487 96.6223 166.794 96.7368 166.101 96.9658C166.101 96.9658 166.101 96.9658 166.216 96.9658L164.368 99.5989C164.368 99.5989 162.635 99.2554 161.018 98.912C158.361 100.057 155.82 101.316 153.395 102.575C153.048 102.804 152.702 102.919 152.355 103.148C153.395 103.491 154.665 104.407 154.55 104.522C154.319 105.323 153.857 104.751 153.164 104.865C151.316 105.323 151.2 105.323 150.853 104.979C151.431 105.552 150.969 104.522 151.084 103.72C144.038 107.384 136.761 110.475 123.478 110.017C108.693 109.559 101.647 105.208 94.139 100.629C86.631 96.0499 78.7765 91.2417 63.1829 90.7838C47.4738 90.3259 39.5037 94.5617 31.6492 98.5685C23.9102 102.69 16.5176 106.468 1.73262 106.01C0.808556 105.895 0 106.582 0 107.498Z" fill="#E5E5E5"/>
</g>
<defs>
<clipPath id="clip0_140_1612">
<rect width="324" height="117" fill="white"/>
</clipPath>
</defs>
</svg>
