<svg width="18" height="18" viewBox="0 0 18 18" fill="none" xmlns="http://www.w3.org/2000/svg">
<path d="M12.0347 12.8659L11.9116 12.9621C10.7416 13.8704 9.15597 14.4169 7.6704 14.4169C3.79484 14.4169 0.642822 11.2649 0.642822 7.38934C0.642822 5.50351 1.35482 3.74084 2.6441 2.42077C3.94109 1.09299 5.68067 0.361755 7.54725 0.361755C11.4228 0.361755 14.5748 3.51378 14.5748 7.38934C14.5748 8.91339 13.9706 10.5029 12.8737 11.8768L12.7775 12L17.5498 16.7761L16.68 17.6459L12.0347 12.8659ZM7.54725 1.74726C6.05783 1.74726 4.64924 2.33995 3.57547 3.41371C2.50171 4.48748 1.90902 5.89992 1.90902 7.38549C1.90902 8.88645 2.48246 10.2989 3.52544 11.3573C4.58381 12.431 6.01165 13.0237 7.54725 13.0237C9.08285 13.0237 10.5107 12.431 11.5691 11.3573C12.612 10.2989 13.1855 8.88645 13.1855 7.38549C13.1855 5.88453 12.612 4.47208 11.5691 3.41371C10.5107 2.33995 9.08285 1.74726 7.54725 1.74726Z" fill="#3F3F3F"/>
</svg>
