<svg width="17" height="18" viewBox="0 0 17 18" fill="none" xmlns="http://www.w3.org/2000/svg">
<path d="M12.9514 12.5075C14.0725 11.0323 14.6913 9.31613 14.6913 7.67312C14.6913 3.44086 11.3693 0 7.28334 0C5.31509 0 3.47557 0.8 2.10943 2.24946C0.747435 3.69032 0 5.6172 0 7.67312C0 11.9054 3.32193 15.3462 7.40791 15.3462C8.94431 15.3462 10.5887 14.7699 11.8219 13.8065L15.746 18L17 16.7011L12.9514 12.5075ZM7.27919 2.0043C8.76991 2.0043 10.1568 2.59785 11.1825 3.67742C12.1957 4.74409 12.7521 6.16344 12.7521 7.67312C12.7521 9.1828 12.1957 10.6021 11.1825 11.6688C10.1568 12.7484 8.76991 13.3419 7.27504 13.3419C5.78432 13.3419 4.39741 12.7484 3.37176 11.6688C2.35857 10.6021 1.80215 9.1828 1.80215 7.67312C1.80215 6.17634 2.37518 4.75699 3.42159 3.67742C4.468 2.59785 5.83415 2.0043 7.27919 2.0043Z" fill="#ffffff"/>
</svg>
