<?xml version="1.0" encoding="utf-8"?>
<!-- Generator: Adobe Illustrator 23.0.6, SVG Export Plug-In . SVG Version: 6.00 Build 0)  -->
<svg version="1.1" id="Layer_1" xmlns="http://www.w3.org/2000/svg" xmlns:xlink="http://www.w3.org/1999/xlink" x="0px" y="0px"
	 viewBox="0 0 293.8 112.9" style="enable-background:new 0 0 293.8 112.9;" xml:space="preserve">
<style type="text/css">
	.st0{fill:#FFFFFF;}
</style>
<g>
	<g>
		<path class="st0" d="M18.6,40.4h-17v-39h17v6.4H8.5v9.6h8v6.4h-8V34h10.1V40.4z M2.6,39.4h15V35H7.5V22.8h8v-4.4h-8V6.8h10.1V2.4
			h-15V39.4z"/>
	</g>
	<g>
		<path class="st0" d="M39.9,40.4h-9.6l-5.9-39h6.9l4,28l4-28h6.4L39.9,40.4z M31.2,39.4H39l5.6-37h-4.4l-4.9,34l-4.9-34h-4.9
			L31.2,39.4z"/>
	</g>
	<g>
		<path class="st0" d="M69.2,40.4h-17v-39h17v6.4H59.1v9.6h8v6.4h-8V34h10.1V40.4z M53.2,39.4h15V35H58.1V22.8h8v-4.4h-8V6.8h10.1
			V2.4h-15V39.4z"/>
	</g>
	<g>
		<path class="st0" d="M96.1,40.4H89l-0.1-0.3l0.5-0.2L88.9,40c-0.3-1-0.5-1.7-0.5-4.8v-6c0-3.6-1.3-4.3-3.3-4.3h-1.5v15.5h-6.9v-39
			H86c6.3,0,9.2,2.9,9.2,9.3v3c0,3.7-1.1,6.3-3.3,7.7c2.3,1.4,3.3,4,3.3,8.1v5.9c0,1.7,0,3.1,0.6,4.4L96.1,40.4z M89.7,39.4h4.9
			c-0.4-1.3-0.4-2.5-0.4-4.1v-5.9c0-4.2-1.1-6.6-3.6-7.6l-1-0.4l1-0.5c2.4-1.1,3.6-3.5,3.6-7.3v-3c0-5.7-2.5-8.3-8.2-8.3h-8.3v37
			h4.9V23.9H85c3,0,4.3,1.6,4.3,5.3v6C89.3,37.9,89.5,38.6,89.7,39.4z M85.3,19.5h-2.8V6.8h3.3c3.1,0,3.5,2.5,3.5,4.4V15
			C89.3,18,88,19.5,85.3,19.5z M83.5,18.5h1.8c1.6,0,3-0.4,3-3.5v-3.8c0-2.8-1-3.4-2.5-3.4h-2.3V18.5z"/>
	</g>
	<g>
		<path class="st0" d="M114.6,40.4h-6.9v-13l-7.6-26h7.2l4.1,15.8l4.1-15.8h6.6l-7.6,26V40.4z M108.8,39.4h4.9l0-12.2l7.2-24.8h-4.5
			l-4.9,18.8l-4.9-18.8h-5.1l7.2,24.9V39.4z"/>
	</g>
	<g>
		<path class="st0" d="M139.5,40.4h-6.9V7.8h-6.1V1.4h19.1v6.4h-6.1V40.4z M133.6,39.4h4.9V6.8h6.1V2.4h-17.1v4.4h6.1V39.4z"/>
	</g>
	<g>
		<path class="st0" d="M171.4,40.4h-7V24.1h-5.7v16.3h-6.9v-39h6.9v16.3h5.7V1.4h7V40.4z M165.5,39.4h5v-37h-5v16.3h-7.7V2.4h-4.9
			v37h4.9V23.1h7.7V39.4z"/>
	</g>
	<g>
		<path class="st0" d="M186.3,40.4h-6.9v-39h6.9V40.4z M180.5,39.4h4.9v-37h-4.9V39.4z"/>
	</g>
	<g>
		<path class="st0" d="M213.9,40.4H207l-6.4-24.2v24.2h-6.3v-39h8.2l5.1,19.4V1.4h6.2V40.4z M207.8,39.4h5.1v-37h-4.2v26.1
			l-6.9-26.1h-6.5v37h4.3V8.5L207.8,39.4z"/>
	</g>
	<g>
		<path class="st0" d="M230.7,40.8c-6,0-9.2-3.6-9.2-10.1V11c0-6.5,3.3-10.1,9.2-10.1s9.2,3.6,9.2,10.1v4.2h-6.5v-4.6
			c0-2.9-1.4-3.3-2.5-3.3c-1.2,0-2.5,0.4-2.5,3.3v20.5c0,2.8,1.4,3.2,2.5,3.2c1.2,0,2.5-0.4,2.5-3.2v-6.5h-2.7v-6.4h9.2v12.6
			C239.9,37.3,236.6,40.8,230.7,40.8z M230.7,1.9c-5.4,0-8.2,3.1-8.2,9.1v19.8c0,5.9,2.8,9.1,8.2,9.1c5.4,0,8.2-3.1,8.2-9.1V19.2
			h-7.2v4.4h2.7v7.5c0,2.8-1.2,4.2-3.5,4.2c-2.3,0-3.5-1.4-3.5-4.2V10.6c0-3.5,1.9-4.3,3.5-4.3s3.5,0.7,3.5,4.3v3.6h4.5V11
			C238.9,5.1,236.1,1.9,230.7,1.9z"/>
	</g>
	<g>
		<path class="st0" d="M267.4,40.4h-6.9v-39h6.9V40.4z M261.5,39.4h4.9v-37h-4.9V39.4z"/>
	</g>
	<g>
		<path class="st0" d="M283.8,40.8c-6,0-9.2-3.6-9.2-10.1v-2.8h6.5v3.2c0,2.8,1.4,3.2,2.5,3.2c1.2,0,2.5-0.4,2.5-3.2
			c0-3.4-2.3-5.5-4.9-7.9c-3.1-2.9-6.6-6.1-6.6-12.2c0-6.5,3.2-10.1,9.1-10.1c5.9,0,9.1,3.6,9.1,10.1v1.7h-6.5v-2.1
			c0-2.9-1.2-3.3-2.4-3.3s-2.4,0.4-2.4,3.3c0,3.4,2.3,5.5,4.9,7.9c3.1,2.9,6.6,6.1,6.6,12.2C293,37.3,289.7,40.8,283.8,40.8z
			 M275.5,28.9v1.8c0,5.9,2.8,9.1,8.2,9.1c5.4,0,8.2-3.1,8.2-9.1c0-5.7-3.2-8.6-6.3-11.5c-2.7-2.5-5.2-4.8-5.2-8.6
			c0-2.8,1.2-4.3,3.4-4.3s3.4,1.4,3.4,4.3v1.1h4.5V11c0-5.9-2.8-9.1-8.1-9.1c-5.3,0-8.1,3.1-8.1,9.1c0,5.7,3.2,8.6,6.3,11.5
			c2.7,2.5,5.2,4.8,5.2,8.6c0,2.8-1.2,4.2-3.5,4.2c-2.3,0-3.5-1.4-3.5-4.2v-2.2H275.5z"/>
	</g>
</g>
<g>
	<path class="st0" d="M28.8,66.5v2.1c0,6.1-1.8,9.9-5.9,11.9c4.9,1.9,6.8,6.4,6.8,12.6v4.8c0,9.1-4.7,14-13.9,14H1.5v-59h13.8
		C24.8,52.9,28.8,57.4,28.8,66.5z M10.6,61.3v15.6h3.6c3.4,0,5.5-1.5,5.5-6.2v-3.3c0-4.2-1.4-6.1-4.7-6.1H10.6z M10.6,85.4v18.1h5.2
		c3.1,0,4.7-1.4,4.7-5.8v-5.1c0-5.5-1.7-7.2-5.9-7.2H10.6z"/>
</g>
<g>
	<path class="st0" d="M58.5,111.9c-0.5-1.5-0.8-2.4-0.8-7.2v-9.3c0-5.5-1.8-7.5-6-7.5h-3.2v24h-9.1v-59h13.8
		c9.5,0,13.5,4.5,13.5,13.6v4.6c0,6.1-1.9,10-6,12c4.6,1.9,6.1,6.4,6.1,12.6v9.1c0,2.9,0.1,5,1,7.2H58.5z M48.5,61.3v18.1h3.6
		c3.4,0,5.5-1.5,5.5-6.2v-5.8c0-4.2-1.4-6.1-4.7-6.1H48.5z"/>
</g>
<g>
	<path class="st0" d="M86.1,77.8h12.5v8.4H86.1v17.3h15.8v8.4H76.9v-59h24.9v8.4H86.1V77.8z"/>
</g>
<g>
	<path class="st0" d="M111.7,52.9h9.1v50.6h15v8.4h-24.2V52.9z"/>
</g>
<g>
	<path class="st0" d="M173.6,111.9h-9.2l-1.6-10.7h-11.2l-1.6,10.7h-8.4l9.3-59h13.4L173.6,111.9z M152.7,93.2h8.8l-4.4-29.8
		L152.7,93.2z"/>
</g>
<g>
	<path class="st0" d="M190,111.9V56.4h-11.9v-3.5h27.5v3.5h-11.8v55.5H190z"/>
</g>
<g>
	<path class="st0" d="M218.6,52.9v59h-3.8v-59H218.6z"/>
</g>
<g>
	<path class="st0" d="M232.5,52.9l11.8,54.5l11.8-54.5h3.6l-12.6,59h-5.6l-12.8-59H232.5z"/>
</g>
<g>
	<path class="st0" d="M289.3,80.2v3.5h-15.9v24.6h19.1v3.5h-22.9v-59h22.9v3.5h-19.1v23.8H289.3z"/>
</g>
</svg>
