<svg width="35" height="35" viewBox="0 0 35 35" fill="none" xmlns="http://www.w3.org/2000/svg">
<circle cx="17.5" cy="17.5" r="17.5" fill="#33E0A1"/>
<g clip-path="url(#clip0_470_1742)">
<path d="M28.778 13.8371C29.0835 12.5642 30 11.3422 30 11.3422H25.8248C23.4827 9.81466 20.6314 9 17.4745 9C14.2159 9 11.2627 9.81466 8.92057 11.3422H5C5 11.3422 5.9165 12.5642 6.222 13.8371L6.42566 13.9898C5.611 15.0591 5.10183 16.3829 5.10183 17.8086C5.10183 21.169 7.85132 23.9185 11.2118 23.9185C13.2485 23.9185 15.0306 22.9511 16.1507 21.4236L16.2016 21.4745L17.5255 23.4603L18.8493 21.4745L18.9002 21.4236C20.0204 22.9511 21.8024 23.9185 23.8391 23.9185C27.1996 23.9185 29.9491 21.169 29.9491 17.8086C29.9491 16.3829 29.4399 15.0591 28.6253 13.9898L28.778 13.8371ZM11.2118 22.9002C8.41141 22.9002 6.12016 20.609 6.12016 17.8086C6.12016 15.0081 8.41141 12.7169 11.2118 12.7169C14.0122 12.7169 16.3035 15.0081 16.3035 17.8086C16.3035 20.609 14.0122 22.9002 11.2118 22.9002ZM17.5255 17.0957C17.2709 13.888 14.6741 11.3422 11.4155 11.2912C13.1976 10.5275 15.2851 10.1202 17.5255 10.1202C19.7658 10.1202 21.8024 10.5275 23.5845 11.3422C22.9226 11.3422 22.2607 11.4949 21.5988 11.6986C20.0204 12.2587 18.7475 13.4297 18.0855 14.9572C17.7291 15.6191 17.5764 16.332 17.5255 17.0957ZM28.8798 17.7576C28.8798 20.558 26.5886 22.8493 23.7882 22.8493C20.9878 22.8493 18.6965 20.558 18.6965 17.7576C18.6965 14.9572 20.9878 12.666 23.7882 12.666C26.5886 12.666 28.8798 14.9572 28.8798 17.7576Z" fill="#3F3F3F"/>
<path d="M11.2112 20.8126C9.531 20.8126 8.15625 19.4379 8.15625 17.7576C8.15625 16.0774 9.531 14.7026 11.2112 14.7026C12.8915 14.7026 14.2662 16.0774 14.2662 17.7576C14.2153 19.4379 12.8406 20.8126 11.2112 20.8126ZM11.2112 15.7719C10.0911 15.7719 9.17458 16.6884 9.17458 17.8085C9.17458 18.9287 10.0911 19.8452 11.2112 19.8452C12.3314 19.8452 13.2479 18.9287 13.2479 17.8085C13.2479 16.6884 12.2805 15.7719 11.2112 15.7719Z" fill="#3F3F3F"/>
<path d="M11.2117 18.8269C11.7741 18.8269 12.23 18.371 12.23 17.8086C12.23 17.2461 11.7741 16.7902 11.2117 16.7902C10.6493 16.7902 10.1934 17.2461 10.1934 17.8086C10.1934 18.371 10.6493 18.8269 11.2117 18.8269Z" fill="#3F3F3F"/>
<path d="M23.7874 20.8126C22.1072 20.8126 20.7324 19.4379 20.7324 17.7576C20.7324 16.0774 22.1072 14.7026 23.7874 14.7026C25.4677 14.7026 26.8424 16.0774 26.8424 17.7576C26.8424 19.4379 25.4677 20.8126 23.7874 20.8126ZM23.7874 15.7719C22.6672 15.7719 21.7508 16.6884 21.7508 17.8085C21.7508 18.9287 22.6672 19.8452 23.7874 19.8452C24.9076 19.8452 25.8241 18.9287 25.8241 17.8085C25.8241 16.6884 24.9076 15.7719 23.7874 15.7719Z" fill="#3F3F3F"/>
<path d="M23.7879 18.776C24.3503 18.776 24.8062 18.3201 24.8062 17.7576C24.8062 17.1952 24.3503 16.7393 23.7879 16.7393C23.2255 16.7393 22.7695 17.1952 22.7695 17.7576C22.7695 18.3201 23.2255 18.776 23.7879 18.776Z" fill="#3F3F3F"/>
</g>
<defs>
<clipPath id="clip0_470_1742">
<rect width="25" height="14.9185" fill="white" transform="translate(5 9)"/>
</clipPath>
</defs>
</svg>
