<svg width="35" height="35" viewBox="0 0 35 35" fill="none" xmlns="http://www.w3.org/2000/svg">
<circle cx="17.5" cy="17.5" r="17.5" fill="url(#paint0_linear_470_1678)"/>
<path d="M17.5015 8.17568C13.6786 8.17568 10.0484 7.83588 8.66176 11.3917C8.08901 12.8603 8.17218 14.7677 8.17218 17.4987C8.17218 19.8952 8.09532 22.1476 8.66176 23.6046C10.0452 27.1626 13.7049 26.8217 17.4994 26.8217C21.1602 26.8217 24.9347 27.2026 26.3381 23.6046C26.912 22.1213 26.8277 20.2424 26.8277 17.4987C26.8277 13.8566 27.0288 11.5053 25.2611 9.74004C23.4712 7.9516 21.0507 8.17568 17.4973 8.17568H17.5015ZM16.6656 9.85576C24.6399 9.84314 25.6548 8.95734 25.0947 21.2628C24.8957 25.6151 21.5792 25.1374 17.5026 25.1374C10.0694 25.1374 9.8557 24.9249 9.8557 17.4945C9.8557 9.9778 10.4453 9.85997 16.6656 9.85366V9.85576ZM22.4815 11.4033C21.8635 11.4033 21.3624 11.9041 21.3624 12.5216C21.3624 13.1391 21.8635 13.6399 22.4815 13.6399C23.0996 13.6399 23.6007 13.1391 23.6007 12.5216C23.6007 11.9041 23.0996 11.4033 22.4815 11.4033ZM17.5015 12.711C14.8557 12.711 12.711 14.855 12.711 17.4987C12.711 20.1424 14.8557 22.2854 17.5015 22.2854C20.1474 22.2854 22.291 20.1424 22.291 17.4987C22.291 14.855 20.1474 12.711 17.5015 12.711ZM17.5015 14.391C21.6129 14.391 21.6182 20.6064 17.5015 20.6064C13.3912 20.6064 13.3849 14.391 17.5015 14.391Z" fill="white"/>
<defs>
<linearGradient id="paint0_linear_470_1678" x1="2.34996" y1="32.7198" x2="34.7798" y2="4.64656" gradientUnits="userSpaceOnUse">
<stop stop-color="#FFDD55"/>
<stop offset="0.5" stop-color="#FF543E"/>
<stop offset="1" stop-color="#C837AB"/>
</linearGradient>
</defs>
</svg>
