<svg width="36" height="35" viewBox="0 0 36 35" fill="none" xmlns="http://www.w3.org/2000/svg">
<circle cx="17.875" cy="17.5" r="17.5" fill="#F52424"/>
<path fill-rule="evenodd" clip-rule="evenodd" d="M23.9423 11.7388C24.6544 11.9347 25.2159 12.5084 25.4076 13.2359C25.7636 14.5652 25.7499 17.3356 25.7499 17.3356C25.7499 17.3356 25.7499 20.092 25.4076 21.4213C25.2159 22.1489 24.6544 22.7226 23.9423 22.9184C22.6413 23.2682 17.4375 23.2682 17.4375 23.2682C17.4375 23.2682 12.2473 23.2682 10.9327 22.9044C10.2205 22.7086 9.65908 22.1349 9.46736 21.4073C9.125 20.092 9.125 17.3216 9.125 17.3216C9.125 17.3216 9.125 14.5652 9.46736 13.2359C9.65908 12.5084 10.2342 11.9207 10.9327 11.7248C12.2336 11.375 17.4375 11.375 17.4375 11.375C17.4375 11.375 22.6413 11.375 23.9423 11.7388ZM15.7804 14.775L20.1079 17.3215L15.7804 19.8681V14.775Z" fill="white"/>
</svg>
