<svg width="24" height="24" viewBox="0 0 24 24" fill="none" xmlns="http://www.w3.org/2000/svg">
<path d="M12 1.47949C6.1995 1.47949 1.47949 6.1995 1.47949 12C1.47949 14.811 2.57402 17.4525 4.56152 19.4385C6.54752 21.426 9.1905 22.5205 12 22.5205C17.8005 22.5205 22.5205 17.8005 22.5205 12C22.5205 6.1995 17.8005 1.47949 12 1.47949ZM12 2.97949C16.9725 2.97949 21.0205 7.026 21.0205 12C21.0205 14.3595 20.1003 16.5018 18.6123 18.1113C17.5818 16.8903 16.2506 15.992 14.7656 15.4805C15.7721 14.654 16.4297 13.4102 16.4297 11.9912C16.4297 9.51921 14.4186 7.50879 11.9121 7.50879C9.44161 7.50879 7.42969 9.51837 7.42969 12.0264C7.42969 13.4199 8.08296 14.6526 9.08496 15.4746C7.62996 15.9726 6.31838 16.843 5.29688 18.0205C3.80437 16.363 2.97949 14.247 2.97949 12C2.97949 7.026 7.0275 2.97949 12 2.97949ZM11.9473 9.00879C13.5928 9.00879 14.9297 10.3464 14.9297 12.0264C14.9297 13.6374 13.6429 14.9475 12.0439 15C12.0004 15 11.9585 14.9912 11.915 14.9912C11.8775 14.9912 11.8412 14.9985 11.8037 15C10.2092 14.94 8.92969 13.6337 8.92969 11.9912C8.92969 10.3472 10.2673 9.00879 11.9473 9.00879ZM11.8037 16.4971C11.8397 16.4986 11.8761 16.5088 11.9121 16.5088H11.9473C11.9803 16.5088 12.008 16.4986 12.041 16.4971C14.1695 16.5346 16.1564 17.5005 17.5049 19.125C15.9809 20.3085 14.0745 21.0205 12 21.0205C9.9345 21.0205 7.97672 20.3252 6.38672 19.0547C7.73672 17.4707 9.70671 16.5301 11.8037 16.4971Z" fill="white"/>
</svg>
