<svg width="80" height="80" viewBox="0 0 80 80" fill="none" xmlns="http://www.w3.org/2000/svg">
<path d="M40 3.09912C19.6216 3.09912 3.09912 19.6216 3.09912 40C3.09912 60.3784 19.6216 76.9009 40 76.9009C60.3784 76.9009 76.9009 60.3784 76.9009 40C76.9009 19.6216 60.3784 3.09912 40 3.09912ZM54.2883 41.5496C47.3694 46 40.4325 50.4505 33.5135 54.9009C32.9009 55.2973 32.2703 55.5676 31.5676 55.1712C30.8649 54.7748 30.7748 54.1081 30.7748 53.3694C30.7928 48.9009 30.7748 44.4325 30.7748 39.964C30.7748 35.5135 30.7748 31.0811 30.7748 26.6307C30.7748 25.8919 30.8649 25.2253 31.5676 24.8289C32.2703 24.4325 32.9009 24.7027 33.5135 25.0991C40.4325 29.5496 47.3694 34 54.2883 38.4505C55.7658 39.4234 55.7658 40.6126 54.2883 41.5496Z" fill="white"/>
<path d="M68.2883 11.7117C60.7207 4.16216 50.6847 0 40 0C29.3153 0 19.2793 4.16216 11.7117 11.7117C4.16216 19.2793 0 29.3153 0 40C0 50.6847 4.16216 60.7207 11.7117 68.2883C19.2613 75.8378 29.3153 80 40 80C50.6847 80 60.7207 75.8378 68.2883 68.2883C75.8378 60.7387 80 50.6847 80 40C80 29.3153 75.8378 19.2793 68.2883 11.7117ZM67.9099 67.9099C60.4504 75.3513 50.5405 79.4595 40 79.4595C29.4595 79.4595 19.5495 75.3513 12.0901 67.9099C4.64865 60.4504 0.540541 50.5405 0.540541 40C0.540541 29.4595 4.64865 19.5495 12.0901 12.0901C19.5315 4.63063 29.4595 0.540541 40 0.540541C50.5405 0.540541 60.4504 4.64865 67.9099 12.0901C75.3513 19.5495 79.4595 29.4595 79.4595 40C79.4595 50.5405 75.3513 60.4504 67.9099 67.9099Z" fill="white"/>
</svg>
